<?xml version="1.0" encoding="utf-8" standalone="no"?>
<!DOCTYPE svg PUBLIC "-//W3C//DTD SVG 1.1//EN"
  "http://www.w3.org/Graphics/SVG/1.1/DTD/svg11.dtd">
<svg xmlns:xlink="http://www.w3.org/1999/xlink" width="639.781071pt" height="423.99625pt" viewBox="0 0 639.781071 423.99625" xmlns="http://www.w3.org/2000/svg" version="1.1">
 <metadata>
  <rdf:RDF xmlns:dc="http://purl.org/dc/elements/1.1/" xmlns:cc="http://creativecommons.org/ns#" xmlns:rdf="http://www.w3.org/1999/02/22-rdf-syntax-ns#">
   <cc:Work>
    <dc:type rdf:resource="http://purl.org/dc/dcmitype/StillImage"/>
    <dc:date>2026-05-10T00:12:00.868124</dc:date>
    <dc:format>image/svg+xml</dc:format>
    <dc:creator>
     <cc:Agent>
      <dc:title>Matplotlib v3.10.9, https://matplotlib.org/</dc:title>
     </cc:Agent>
    </dc:creator>
   </cc:Work>
  </rdf:RDF>
 </metadata>
 <defs>
  <style type="text/css">*{stroke-linejoin: round; stroke-linecap: butt}</style>
 </defs>
 <g id="figure_1">
  <g id="patch_1">
   <path d="M 0 423.99625 
L 639.781071 423.99625 
L 639.781071 0 
L 0 0 
z
" style="fill: #ffffff"/>
  </g>
  <g id="axes_1">
   <g id="patch_2">
    <path d="M 51.378125 386.44 
L 632.581071 386.44 
L 632.581071 7.2 
L 51.378125 7.2 
z
" style="fill: #ffffff"/>
   </g>
   <g id="matplotlib.axis_1">
    <g id="xtick_1">
     <g id="line2d_1">
      <path d="M 155.133431 386.44 
L 155.133431 7.2 
" clip-path="url(#paa77374a47)" style="fill: none; stroke: #b0b0b0; stroke-opacity: 0.25; stroke-width: 0.8; stroke-linecap: square"/>
     </g>
     <g id="line2d_2">
      <defs>
       <path id="md71ebab084" d="M 0 0 
L 0 3.5 
" style="stroke: #000000; stroke-width: 0.8"/>
      </defs>
      <g>
       <use xlink:href="#md71ebab084" x="155.133431" y="386.44" style="stroke: #000000; stroke-width: 0.8"/>
      </g>
     </g>
     <g id="text_1">
      <!-- 0.2 -->
      <g transform="translate(147.181868 401.038437) scale(0.1 -0.1)">
       <defs>
        <path id="DejaVuSans-30" d="M 2034 4250 
Q 1547 4250 1301 3770 
Q 1056 3291 1056 2328 
Q 1056 1369 1301 889 
Q 1547 409 2034 409 
Q 2525 409 2770 889 
Q 3016 1369 3016 2328 
Q 3016 3291 2770 3770 
Q 2525 4250 2034 4250 
z
M 2034 4750 
Q 2819 4750 3233 4129 
Q 3647 3509 3647 2328 
Q 3647 1150 3233 529 
Q 2819 -91 2034 -91 
Q 1250 -91 836 529 
Q 422 1150 422 2328 
Q 422 3509 836 4129 
Q 1250 4750 2034 4750 
z
" transform="scale(0.015625)"/>
        <path id="DejaVuSans-2e" d="M 684 794 
L 1344 794 
L 1344 0 
L 684 0 
L 684 794 
z
" transform="scale(0.015625)"/>
        <path id="DejaVuSans-32" d="M 1228 531 
L 3431 531 
L 3431 0 
L 469 0 
L 469 531 
Q 828 903 1448 1529 
Q 2069 2156 2228 2338 
Q 2531 2678 2651 2914 
Q 2772 3150 2772 3378 
Q 2772 3750 2511 3984 
Q 2250 4219 1831 4219 
Q 1534 4219 1204 4116 
Q 875 4013 500 3803 
L 500 4441 
Q 881 4594 1212 4672 
Q 1544 4750 1819 4750 
Q 2544 4750 2975 4387 
Q 3406 4025 3406 3419 
Q 3406 3131 3298 2873 
Q 3191 2616 2906 2266 
Q 2828 2175 2409 1742 
Q 1991 1309 1228 531 
z
" transform="scale(0.015625)"/>
       </defs>
       <use xlink:href="#DejaVuSans-30"/>
       <use xlink:href="#DejaVuSans-2e" transform="translate(63.623047 0)"/>
       <use xlink:href="#DejaVuSans-32" transform="translate(95.410156 0)"/>
      </g>
     </g>
    </g>
    <g id="xtick_2">
     <g id="line2d_3">
      <path d="M 278.872614 386.44 
L 278.872614 7.2 
" clip-path="url(#paa77374a47)" style="fill: none; stroke: #b0b0b0; stroke-opacity: 0.25; stroke-width: 0.8; stroke-linecap: square"/>
     </g>
     <g id="line2d_4">
      <g>
       <use xlink:href="#md71ebab084" x="278.872614" y="386.44" style="stroke: #000000; stroke-width: 0.8"/>
      </g>
     </g>
     <g id="text_2">
      <!-- 0.4 -->
      <g transform="translate(270.921052 401.038437) scale(0.1 -0.1)">
       <defs>
        <path id="DejaVuSans-34" d="M 2419 4116 
L 825 1625 
L 2419 1625 
L 2419 4116 
z
M 2253 4666 
L 3047 4666 
L 3047 1625 
L 3713 1625 
L 3713 1100 
L 3047 1100 
L 3047 0 
L 2419 0 
L 2419 1100 
L 313 1100 
L 313 1709 
L 2253 4666 
z
" transform="scale(0.015625)"/>
       </defs>
       <use xlink:href="#DejaVuSans-30"/>
       <use xlink:href="#DejaVuSans-2e" transform="translate(63.623047 0)"/>
       <use xlink:href="#DejaVuSans-34" transform="translate(95.410156 0)"/>
      </g>
     </g>
    </g>
    <g id="xtick_3">
     <g id="line2d_5">
      <path d="M 402.611798 386.44 
L 402.611798 7.2 
" clip-path="url(#paa77374a47)" style="fill: none; stroke: #b0b0b0; stroke-opacity: 0.25; stroke-width: 0.8; stroke-linecap: square"/>
     </g>
     <g id="line2d_6">
      <g>
       <use xlink:href="#md71ebab084" x="402.611798" y="386.44" style="stroke: #000000; stroke-width: 0.8"/>
      </g>
     </g>
     <g id="text_3">
      <!-- 0.6 -->
      <g transform="translate(394.660236 401.038437) scale(0.1 -0.1)">
       <defs>
        <path id="DejaVuSans-36" d="M 2113 2584 
Q 1688 2584 1439 2293 
Q 1191 2003 1191 1497 
Q 1191 994 1439 701 
Q 1688 409 2113 409 
Q 2538 409 2786 701 
Q 3034 994 3034 1497 
Q 3034 2003 2786 2293 
Q 2538 2584 2113 2584 
z
M 3366 4563 
L 3366 3988 
Q 3128 4100 2886 4159 
Q 2644 4219 2406 4219 
Q 1781 4219 1451 3797 
Q 1122 3375 1075 2522 
Q 1259 2794 1537 2939 
Q 1816 3084 2150 3084 
Q 2853 3084 3261 2657 
Q 3669 2231 3669 1497 
Q 3669 778 3244 343 
Q 2819 -91 2113 -91 
Q 1303 -91 875 529 
Q 447 1150 447 2328 
Q 447 3434 972 4092 
Q 1497 4750 2381 4750 
Q 2619 4750 2861 4703 
Q 3103 4656 3366 4563 
z
" transform="scale(0.015625)"/>
       </defs>
       <use xlink:href="#DejaVuSans-30"/>
       <use xlink:href="#DejaVuSans-2e" transform="translate(63.623047 0)"/>
       <use xlink:href="#DejaVuSans-36" transform="translate(95.410156 0)"/>
      </g>
     </g>
    </g>
    <g id="xtick_4">
     <g id="line2d_7">
      <path d="M 526.350982 386.44 
L 526.350982 7.2 
" clip-path="url(#paa77374a47)" style="fill: none; stroke: #b0b0b0; stroke-opacity: 0.25; stroke-width: 0.8; stroke-linecap: square"/>
     </g>
     <g id="line2d_8">
      <g>
       <use xlink:href="#md71ebab084" x="526.350982" y="386.44" style="stroke: #000000; stroke-width: 0.8"/>
      </g>
     </g>
     <g id="text_4">
      <!-- 0.8 -->
      <g transform="translate(518.399419 401.038437) scale(0.1 -0.1)">
       <defs>
        <path id="DejaVuSans-38" d="M 2034 2216 
Q 1584 2216 1326 1975 
Q 1069 1734 1069 1313 
Q 1069 891 1326 650 
Q 1584 409 2034 409 
Q 2484 409 2743 651 
Q 3003 894 3003 1313 
Q 3003 1734 2745 1975 
Q 2488 2216 2034 2216 
z
M 1403 2484 
Q 997 2584 770 2862 
Q 544 3141 544 3541 
Q 544 4100 942 4425 
Q 1341 4750 2034 4750 
Q 2731 4750 3128 4425 
Q 3525 4100 3525 3541 
Q 3525 3141 3298 2862 
Q 3072 2584 2669 2484 
Q 3125 2378 3379 2068 
Q 3634 1759 3634 1313 
Q 3634 634 3220 271 
Q 2806 -91 2034 -91 
Q 1263 -91 848 271 
Q 434 634 434 1313 
Q 434 1759 690 2068 
Q 947 2378 1403 2484 
z
M 1172 3481 
Q 1172 3119 1398 2916 
Q 1625 2713 2034 2713 
Q 2441 2713 2670 2916 
Q 2900 3119 2900 3481 
Q 2900 3844 2670 4047 
Q 2441 4250 2034 4250 
Q 1625 4250 1398 4047 
Q 1172 3844 1172 3481 
z
" transform="scale(0.015625)"/>
       </defs>
       <use xlink:href="#DejaVuSans-30"/>
       <use xlink:href="#DejaVuSans-2e" transform="translate(63.623047 0)"/>
       <use xlink:href="#DejaVuSans-38" transform="translate(95.410156 0)"/>
      </g>
     </g>
    </g>
    <g id="text_5">
     <!-- CO2 loading, mol CO2/mol MEA -->
     <g transform="translate(263.182723 414.716562) scale(0.1 -0.1)">
      <defs>
       <path id="DejaVuSans-43" d="M 4122 4306 
L 4122 3641 
Q 3803 3938 3442 4084 
Q 3081 4231 2675 4231 
Q 1875 4231 1450 3742 
Q 1025 3253 1025 2328 
Q 1025 1406 1450 917 
Q 1875 428 2675 428 
Q 3081 428 3442 575 
Q 3803 722 4122 1019 
L 4122 359 
Q 3791 134 3420 21 
Q 3050 -91 2638 -91 
Q 1578 -91 968 557 
Q 359 1206 359 2328 
Q 359 3453 968 4101 
Q 1578 4750 2638 4750 
Q 3056 4750 3426 4639 
Q 3797 4528 4122 4306 
z
" transform="scale(0.015625)"/>
       <path id="DejaVuSans-4f" d="M 2522 4238 
Q 1834 4238 1429 3725 
Q 1025 3213 1025 2328 
Q 1025 1447 1429 934 
Q 1834 422 2522 422 
Q 3209 422 3611 934 
Q 4013 1447 4013 2328 
Q 4013 3213 3611 3725 
Q 3209 4238 2522 4238 
z
M 2522 4750 
Q 3503 4750 4090 4092 
Q 4678 3434 4678 2328 
Q 4678 1225 4090 567 
Q 3503 -91 2522 -91 
Q 1538 -91 948 565 
Q 359 1222 359 2328 
Q 359 3434 948 4092 
Q 1538 4750 2522 4750 
z
" transform="scale(0.015625)"/>
       <path id="DejaVuSans-20" transform="scale(0.015625)"/>
       <path id="DejaVuSans-6c" d="M 603 4863 
L 1178 4863 
L 1178 0 
L 603 0 
L 603 4863 
z
" transform="scale(0.015625)"/>
       <path id="DejaVuSans-6f" d="M 1959 3097 
Q 1497 3097 1228 2736 
Q 959 2375 959 1747 
Q 959 1119 1226 758 
Q 1494 397 1959 397 
Q 2419 397 2687 759 
Q 2956 1122 2956 1747 
Q 2956 2369 2687 2733 
Q 2419 3097 1959 3097 
z
M 1959 3584 
Q 2709 3584 3137 3096 
Q 3566 2609 3566 1747 
Q 3566 888 3137 398 
Q 2709 -91 1959 -91 
Q 1206 -91 779 398 
Q 353 888 353 1747 
Q 353 2609 779 3096 
Q 1206 3584 1959 3584 
z
" transform="scale(0.015625)"/>
       <path id="DejaVuSans-61" d="M 2194 1759 
Q 1497 1759 1228 1600 
Q 959 1441 959 1056 
Q 959 750 1161 570 
Q 1363 391 1709 391 
Q 2188 391 2477 730 
Q 2766 1069 2766 1631 
L 2766 1759 
L 2194 1759 
z
M 3341 1997 
L 3341 0 
L 2766 0 
L 2766 531 
Q 2569 213 2275 61 
Q 1981 -91 1556 -91 
Q 1019 -91 701 211 
Q 384 513 384 1019 
Q 384 1609 779 1909 
Q 1175 2209 1959 2209 
L 2766 2209 
L 2766 2266 
Q 2766 2663 2505 2880 
Q 2244 3097 1772 3097 
Q 1472 3097 1187 3025 
Q 903 2953 641 2809 
L 641 3341 
Q 956 3463 1253 3523 
Q 1550 3584 1831 3584 
Q 2591 3584 2966 3190 
Q 3341 2797 3341 1997 
z
" transform="scale(0.015625)"/>
       <path id="DejaVuSans-64" d="M 2906 2969 
L 2906 4863 
L 3481 4863 
L 3481 0 
L 2906 0 
L 2906 525 
Q 2725 213 2448 61 
Q 2172 -91 1784 -91 
Q 1150 -91 751 415 
Q 353 922 353 1747 
Q 353 2572 751 3078 
Q 1150 3584 1784 3584 
Q 2172 3584 2448 3432 
Q 2725 3281 2906 2969 
z
M 947 1747 
Q 947 1113 1208 752 
Q 1469 391 1925 391 
Q 2381 391 2643 752 
Q 2906 1113 2906 1747 
Q 2906 2381 2643 2742 
Q 2381 3103 1925 3103 
Q 1469 3103 1208 2742 
Q 947 2381 947 1747 
z
" transform="scale(0.015625)"/>
       <path id="DejaVuSans-69" d="M 603 3500 
L 1178 3500 
L 1178 0 
L 603 0 
L 603 3500 
z
M 603 4863 
L 1178 4863 
L 1178 4134 
L 603 4134 
L 603 4863 
z
" transform="scale(0.015625)"/>
       <path id="DejaVuSans-6e" d="M 3513 2113 
L 3513 0 
L 2938 0 
L 2938 2094 
Q 2938 2591 2744 2837 
Q 2550 3084 2163 3084 
Q 1697 3084 1428 2787 
Q 1159 2491 1159 1978 
L 1159 0 
L 581 0 
L 581 3500 
L 1159 3500 
L 1159 2956 
Q 1366 3272 1645 3428 
Q 1925 3584 2291 3584 
Q 2894 3584 3203 3211 
Q 3513 2838 3513 2113 
z
" transform="scale(0.015625)"/>
       <path id="DejaVuSans-67" d="M 2906 1791 
Q 2906 2416 2648 2759 
Q 2391 3103 1925 3103 
Q 1463 3103 1205 2759 
Q 947 2416 947 1791 
Q 947 1169 1205 825 
Q 1463 481 1925 481 
Q 2391 481 2648 825 
Q 2906 1169 2906 1791 
z
M 3481 434 
Q 3481 -459 3084 -895 
Q 2688 -1331 1869 -1331 
Q 1566 -1331 1297 -1286 
Q 1028 -1241 775 -1147 
L 775 -588 
Q 1028 -725 1275 -790 
Q 1522 -856 1778 -856 
Q 2344 -856 2625 -561 
Q 2906 -266 2906 331 
L 2906 616 
Q 2728 306 2450 153 
Q 2172 0 1784 0 
Q 1141 0 747 490 
Q 353 981 353 1791 
Q 353 2603 747 3093 
Q 1141 3584 1784 3584 
Q 2172 3584 2450 3431 
Q 2728 3278 2906 2969 
L 2906 3500 
L 3481 3500 
L 3481 434 
z
" transform="scale(0.015625)"/>
       <path id="DejaVuSans-2c" d="M 750 794 
L 1409 794 
L 1409 256 
L 897 -744 
L 494 -744 
L 750 256 
L 750 794 
z
" transform="scale(0.015625)"/>
       <path id="DejaVuSans-6d" d="M 3328 2828 
Q 3544 3216 3844 3400 
Q 4144 3584 4550 3584 
Q 5097 3584 5394 3201 
Q 5691 2819 5691 2113 
L 5691 0 
L 5113 0 
L 5113 2094 
Q 5113 2597 4934 2840 
Q 4756 3084 4391 3084 
Q 3944 3084 3684 2787 
Q 3425 2491 3425 1978 
L 3425 0 
L 2847 0 
L 2847 2094 
Q 2847 2600 2669 2842 
Q 2491 3084 2119 3084 
Q 1678 3084 1418 2786 
Q 1159 2488 1159 1978 
L 1159 0 
L 581 0 
L 581 3500 
L 1159 3500 
L 1159 2956 
Q 1356 3278 1631 3431 
Q 1906 3584 2284 3584 
Q 2666 3584 2933 3390 
Q 3200 3197 3328 2828 
z
" transform="scale(0.015625)"/>
       <path id="DejaVuSans-2f" d="M 1625 4666 
L 2156 4666 
L 531 -594 
L 0 -594 
L 1625 4666 
z
" transform="scale(0.015625)"/>
       <path id="DejaVuSans-4d" d="M 628 4666 
L 1569 4666 
L 2759 1491 
L 3956 4666 
L 4897 4666 
L 4897 0 
L 4281 0 
L 4281 4097 
L 3078 897 
L 2444 897 
L 1241 4097 
L 1241 0 
L 628 0 
L 628 4666 
z
" transform="scale(0.015625)"/>
       <path id="DejaVuSans-45" d="M 628 4666 
L 3578 4666 
L 3578 4134 
L 1259 4134 
L 1259 2753 
L 3481 2753 
L 3481 2222 
L 1259 2222 
L 1259 531 
L 3634 531 
L 3634 0 
L 628 0 
L 628 4666 
z
" transform="scale(0.015625)"/>
       <path id="DejaVuSans-41" d="M 2188 4044 
L 1331 1722 
L 3047 1722 
L 2188 4044 
z
M 1831 4666 
L 2547 4666 
L 4325 0 
L 3669 0 
L 3244 1197 
L 1141 1197 
L 716 0 
L 50 0 
L 1831 4666 
z
" transform="scale(0.015625)"/>
      </defs>
      <use xlink:href="#DejaVuSans-43"/>
      <use xlink:href="#DejaVuSans-4f" transform="translate(69.824219 0)"/>
      <use xlink:href="#DejaVuSans-32" transform="translate(148.535156 0)"/>
      <use xlink:href="#DejaVuSans-20" transform="translate(212.158203 0)"/>
      <use xlink:href="#DejaVuSans-6c" transform="translate(243.945312 0)"/>
      <use xlink:href="#DejaVuSans-6f" transform="translate(271.728516 0)"/>
      <use xlink:href="#DejaVuSans-61" transform="translate(332.910156 0)"/>
      <use xlink:href="#DejaVuSans-64" transform="translate(394.189453 0)"/>
      <use xlink:href="#DejaVuSans-69" transform="translate(457.666016 0)"/>
      <use xlink:href="#DejaVuSans-6e" transform="translate(485.449219 0)"/>
      <use xlink:href="#DejaVuSans-67" transform="translate(548.828125 0)"/>
      <use xlink:href="#DejaVuSans-2c" transform="translate(612.304688 0)"/>
      <use xlink:href="#DejaVuSans-20" transform="translate(644.091797 0)"/>
      <use xlink:href="#DejaVuSans-6d" transform="translate(675.878906 0)"/>
      <use xlink:href="#DejaVuSans-6f" transform="translate(773.291016 0)"/>
      <use xlink:href="#DejaVuSans-6c" transform="translate(834.472656 0)"/>
      <use xlink:href="#DejaVuSans-20" transform="translate(862.255859 0)"/>
      <use xlink:href="#DejaVuSans-43" transform="translate(894.042969 0)"/>
      <use xlink:href="#DejaVuSans-4f" transform="translate(963.867188 0)"/>
      <use xlink:href="#DejaVuSans-32" transform="translate(1042.578125 0)"/>
      <use xlink:href="#DejaVuSans-2f" transform="translate(1106.201172 0)"/>
      <use xlink:href="#DejaVuSans-6d" transform="translate(1139.892578 0)"/>
      <use xlink:href="#DejaVuSans-6f" transform="translate(1237.304688 0)"/>
      <use xlink:href="#DejaVuSans-6c" transform="translate(1298.486328 0)"/>
      <use xlink:href="#DejaVuSans-20" transform="translate(1326.269531 0)"/>
      <use xlink:href="#DejaVuSans-4d" transform="translate(1358.056641 0)"/>
      <use xlink:href="#DejaVuSans-45" transform="translate(1444.335938 0)"/>
      <use xlink:href="#DejaVuSans-41" transform="translate(1507.519531 0)"/>
     </g>
    </g>
   </g>
   <g id="matplotlib.axis_2">
    <g id="ytick_1">
     <g id="line2d_9">
      <path d="M 51.378125 386.44 
L 632.581071 386.44 
" clip-path="url(#paa77374a47)" style="fill: none; stroke: #b0b0b0; stroke-opacity: 0.25; stroke-width: 0.8; stroke-linecap: square"/>
     </g>
     <g id="line2d_10">
      <defs>
       <path id="mb0f7f84c45" d="M 0 0 
L -3.5 0 
" style="stroke: #000000; stroke-width: 0.8"/>
      </defs>
      <g>
       <use xlink:href="#mb0f7f84c45" x="51.378125" y="386.44" style="stroke: #000000; stroke-width: 0.8"/>
      </g>
     </g>
     <g id="text_6">
      <!-- $\mathdefault{10^{-5}}$ -->
      <g transform="translate(20.878125 390.239219) scale(0.1 -0.1)">
       <defs>
        <path id="DejaVuSans-31" d="M 794 531 
L 1825 531 
L 1825 4091 
L 703 3866 
L 703 4441 
L 1819 4666 
L 2450 4666 
L 2450 531 
L 3481 531 
L 3481 0 
L 794 0 
L 794 531 
z
" transform="scale(0.015625)"/>
        <path id="DejaVuSans-2212" d="M 678 2272 
L 4684 2272 
L 4684 1741 
L 678 1741 
L 678 2272 
z
" transform="scale(0.015625)"/>
        <path id="DejaVuSans-35" d="M 691 4666 
L 3169 4666 
L 3169 4134 
L 1269 4134 
L 1269 2991 
Q 1406 3038 1543 3061 
Q 1681 3084 1819 3084 
Q 2600 3084 3056 2656 
Q 3513 2228 3513 1497 
Q 3513 744 3044 326 
Q 2575 -91 1722 -91 
Q 1428 -91 1123 -41 
Q 819 9 494 109 
L 494 744 
Q 775 591 1075 516 
Q 1375 441 1709 441 
Q 2250 441 2565 725 
Q 2881 1009 2881 1497 
Q 2881 1984 2565 2268 
Q 2250 2553 1709 2553 
Q 1456 2553 1204 2497 
Q 953 2441 691 2322 
L 691 4666 
z
" transform="scale(0.015625)"/>
       </defs>
       <use xlink:href="#DejaVuSans-31" transform="translate(0 0.684375)"/>
       <use xlink:href="#DejaVuSans-30" transform="translate(63.623047 0.684375)"/>
       <use xlink:href="#DejaVuSans-2212" transform="translate(128.203125 38.965625) scale(0.7)"/>
       <use xlink:href="#DejaVuSans-35" transform="translate(186.855469 38.965625) scale(0.7)"/>
      </g>
     </g>
    </g>
    <g id="ytick_2">
     <g id="line2d_11">
      <path d="M 51.378125 301.733784 
L 632.581071 301.733784 
" clip-path="url(#paa77374a47)" style="fill: none; stroke: #b0b0b0; stroke-opacity: 0.25; stroke-width: 0.8; stroke-linecap: square"/>
     </g>
     <g id="line2d_12">
      <g>
       <use xlink:href="#mb0f7f84c45" x="51.378125" y="301.733784" style="stroke: #000000; stroke-width: 0.8"/>
      </g>
     </g>
     <g id="text_7">
      <!-- $\mathdefault{10^{-4}}$ -->
      <g transform="translate(20.878125 305.533003) scale(0.1 -0.1)">
       <use xlink:href="#DejaVuSans-31" transform="translate(0 0.684375)"/>
       <use xlink:href="#DejaVuSans-30" transform="translate(63.623047 0.684375)"/>
       <use xlink:href="#DejaVuSans-2212" transform="translate(128.203125 38.965625) scale(0.7)"/>
       <use xlink:href="#DejaVuSans-34" transform="translate(186.855469 38.965625) scale(0.7)"/>
      </g>
     </g>
    </g>
    <g id="ytick_3">
     <g id="line2d_13">
      <path d="M 51.378125 217.027568 
L 632.581071 217.027568 
" clip-path="url(#paa77374a47)" style="fill: none; stroke: #b0b0b0; stroke-opacity: 0.25; stroke-width: 0.8; stroke-linecap: square"/>
     </g>
     <g id="line2d_14">
      <g>
       <use xlink:href="#mb0f7f84c45" x="51.378125" y="217.027568" style="stroke: #000000; stroke-width: 0.8"/>
      </g>
     </g>
     <g id="text_8">
      <!-- $\mathdefault{10^{-3}}$ -->
      <g transform="translate(20.878125 220.826787) scale(0.1 -0.1)">
       <defs>
        <path id="DejaVuSans-33" d="M 2597 2516 
Q 3050 2419 3304 2112 
Q 3559 1806 3559 1356 
Q 3559 666 3084 287 
Q 2609 -91 1734 -91 
Q 1441 -91 1130 -33 
Q 819 25 488 141 
L 488 750 
Q 750 597 1062 519 
Q 1375 441 1716 441 
Q 2309 441 2620 675 
Q 2931 909 2931 1356 
Q 2931 1769 2642 2001 
Q 2353 2234 1838 2234 
L 1294 2234 
L 1294 2753 
L 1863 2753 
Q 2328 2753 2575 2939 
Q 2822 3125 2822 3475 
Q 2822 3834 2567 4026 
Q 2313 4219 1838 4219 
Q 1578 4219 1281 4162 
Q 984 4106 628 3988 
L 628 4550 
Q 988 4650 1302 4700 
Q 1616 4750 1894 4750 
Q 2613 4750 3031 4423 
Q 3450 4097 3450 3541 
Q 3450 3153 3228 2886 
Q 3006 2619 2597 2516 
z
" transform="scale(0.015625)"/>
       </defs>
       <use xlink:href="#DejaVuSans-31" transform="translate(0 0.765625)"/>
       <use xlink:href="#DejaVuSans-30" transform="translate(63.623047 0.765625)"/>
       <use xlink:href="#DejaVuSans-2212" transform="translate(128.203125 39.046875) scale(0.7)"/>
       <use xlink:href="#DejaVuSans-33" transform="translate(186.855469 39.046875) scale(0.7)"/>
      </g>
     </g>
    </g>
    <g id="ytick_4">
     <g id="line2d_15">
      <path d="M 51.378125 132.321352 
L 632.581071 132.321352 
" clip-path="url(#paa77374a47)" style="fill: none; stroke: #b0b0b0; stroke-opacity: 0.25; stroke-width: 0.8; stroke-linecap: square"/>
     </g>
     <g id="line2d_16">
      <g>
       <use xlink:href="#mb0f7f84c45" x="51.378125" y="132.321352" style="stroke: #000000; stroke-width: 0.8"/>
      </g>
     </g>
     <g id="text_9">
      <!-- $\mathdefault{10^{-2}}$ -->
      <g transform="translate(20.878125 136.120571) scale(0.1 -0.1)">
       <use xlink:href="#DejaVuSans-31" transform="translate(0 0.765625)"/>
       <use xlink:href="#DejaVuSans-30" transform="translate(63.623047 0.765625)"/>
       <use xlink:href="#DejaVuSans-2212" transform="translate(128.203125 39.046875) scale(0.7)"/>
       <use xlink:href="#DejaVuSans-32" transform="translate(186.855469 39.046875) scale(0.7)"/>
      </g>
     </g>
    </g>
    <g id="ytick_5">
     <g id="line2d_17">
      <path d="M 51.378125 47.615136 
L 632.581071 47.615136 
" clip-path="url(#paa77374a47)" style="fill: none; stroke: #b0b0b0; stroke-opacity: 0.25; stroke-width: 0.8; stroke-linecap: square"/>
     </g>
     <g id="line2d_18">
      <g>
       <use xlink:href="#mb0f7f84c45" x="51.378125" y="47.615136" style="stroke: #000000; stroke-width: 0.8"/>
      </g>
     </g>
     <g id="text_10">
      <!-- $\mathdefault{10^{-1}}$ -->
      <g transform="translate(20.878125 51.414355) scale(0.1 -0.1)">
       <use xlink:href="#DejaVuSans-31" transform="translate(0 0.684375)"/>
       <use xlink:href="#DejaVuSans-30" transform="translate(63.623047 0.684375)"/>
       <use xlink:href="#DejaVuSans-2212" transform="translate(128.203125 38.965625) scale(0.7)"/>
       <use xlink:href="#DejaVuSans-31" transform="translate(186.855469 38.965625) scale(0.7)"/>
      </g>
     </g>
    </g>
    <g id="ytick_6">
     <g id="line2d_19">
      <path d="M 51.378125 360.940888 
L 632.581071 360.940888 
" clip-path="url(#paa77374a47)" style="fill: none; stroke: #b0b0b0; stroke-opacity: 0.25; stroke-width: 0.8; stroke-linecap: square"/>
     </g>
     <g id="line2d_20">
      <defs>
       <path id="m53097c6d7c" d="M 0 0 
L -2 0 
" style="stroke: #000000; stroke-width: 0.6"/>
      </defs>
      <g>
       <use xlink:href="#m53097c6d7c" x="51.378125" y="360.940888" style="stroke: #000000; stroke-width: 0.6"/>
      </g>
     </g>
    </g>
    <g id="ytick_7">
     <g id="line2d_21">
      <path d="M 51.378125 346.024864 
L 632.581071 346.024864 
" clip-path="url(#paa77374a47)" style="fill: none; stroke: #b0b0b0; stroke-opacity: 0.25; stroke-width: 0.8; stroke-linecap: square"/>
     </g>
     <g id="line2d_22">
      <g>
       <use xlink:href="#m53097c6d7c" x="51.378125" y="346.024864" style="stroke: #000000; stroke-width: 0.6"/>
      </g>
     </g>
    </g>
    <g id="ytick_8">
     <g id="line2d_23">
      <path d="M 51.378125 335.441776 
L 632.581071 335.441776 
" clip-path="url(#paa77374a47)" style="fill: none; stroke: #b0b0b0; stroke-opacity: 0.25; stroke-width: 0.8; stroke-linecap: square"/>
     </g>
     <g id="line2d_24">
      <g>
       <use xlink:href="#m53097c6d7c" x="51.378125" y="335.441776" style="stroke: #000000; stroke-width: 0.6"/>
      </g>
     </g>
    </g>
    <g id="ytick_9">
     <g id="line2d_25">
      <path d="M 51.378125 327.232896 
L 632.581071 327.232896 
" clip-path="url(#paa77374a47)" style="fill: none; stroke: #b0b0b0; stroke-opacity: 0.25; stroke-width: 0.8; stroke-linecap: square"/>
     </g>
     <g id="line2d_26">
      <g>
       <use xlink:href="#m53097c6d7c" x="51.378125" y="327.232896" style="stroke: #000000; stroke-width: 0.6"/>
      </g>
     </g>
    </g>
    <g id="ytick_10">
     <g id="line2d_27">
      <path d="M 51.378125 320.525752 
L 632.581071 320.525752 
" clip-path="url(#paa77374a47)" style="fill: none; stroke: #b0b0b0; stroke-opacity: 0.25; stroke-width: 0.8; stroke-linecap: square"/>
     </g>
     <g id="line2d_28">
      <g>
       <use xlink:href="#m53097c6d7c" x="51.378125" y="320.525752" style="stroke: #000000; stroke-width: 0.6"/>
      </g>
     </g>
    </g>
    <g id="ytick_11">
     <g id="line2d_29">
      <path d="M 51.378125 314.854943 
L 632.581071 314.854943 
" clip-path="url(#paa77374a47)" style="fill: none; stroke: #b0b0b0; stroke-opacity: 0.25; stroke-width: 0.8; stroke-linecap: square"/>
     </g>
     <g id="line2d_30">
      <g>
       <use xlink:href="#m53097c6d7c" x="51.378125" y="314.854943" style="stroke: #000000; stroke-width: 0.6"/>
      </g>
     </g>
    </g>
    <g id="ytick_12">
     <g id="line2d_31">
      <path d="M 51.378125 309.942665 
L 632.581071 309.942665 
" clip-path="url(#paa77374a47)" style="fill: none; stroke: #b0b0b0; stroke-opacity: 0.25; stroke-width: 0.8; stroke-linecap: square"/>
     </g>
     <g id="line2d_32">
      <g>
       <use xlink:href="#m53097c6d7c" x="51.378125" y="309.942665" style="stroke: #000000; stroke-width: 0.6"/>
      </g>
     </g>
    </g>
    <g id="ytick_13">
     <g id="line2d_33">
      <path d="M 51.378125 305.609728 
L 632.581071 305.609728 
" clip-path="url(#paa77374a47)" style="fill: none; stroke: #b0b0b0; stroke-opacity: 0.25; stroke-width: 0.8; stroke-linecap: square"/>
     </g>
     <g id="line2d_34">
      <g>
       <use xlink:href="#m53097c6d7c" x="51.378125" y="305.609728" style="stroke: #000000; stroke-width: 0.6"/>
      </g>
     </g>
    </g>
    <g id="ytick_14">
     <g id="line2d_35">
      <path d="M 51.378125 276.234672 
L 632.581071 276.234672 
" clip-path="url(#paa77374a47)" style="fill: none; stroke: #b0b0b0; stroke-opacity: 0.25; stroke-width: 0.8; stroke-linecap: square"/>
     </g>
     <g id="line2d_36">
      <g>
       <use xlink:href="#m53097c6d7c" x="51.378125" y="276.234672" style="stroke: #000000; stroke-width: 0.6"/>
      </g>
     </g>
    </g>
    <g id="ytick_15">
     <g id="line2d_37">
      <path d="M 51.378125 261.318648 
L 632.581071 261.318648 
" clip-path="url(#paa77374a47)" style="fill: none; stroke: #b0b0b0; stroke-opacity: 0.25; stroke-width: 0.8; stroke-linecap: square"/>
     </g>
     <g id="line2d_38">
      <g>
       <use xlink:href="#m53097c6d7c" x="51.378125" y="261.318648" style="stroke: #000000; stroke-width: 0.6"/>
      </g>
     </g>
    </g>
    <g id="ytick_16">
     <g id="line2d_39">
      <path d="M 51.378125 250.73556 
L 632.581071 250.73556 
" clip-path="url(#paa77374a47)" style="fill: none; stroke: #b0b0b0; stroke-opacity: 0.25; stroke-width: 0.8; stroke-linecap: square"/>
     </g>
     <g id="line2d_40">
      <g>
       <use xlink:href="#m53097c6d7c" x="51.378125" y="250.73556" style="stroke: #000000; stroke-width: 0.6"/>
      </g>
     </g>
    </g>
    <g id="ytick_17">
     <g id="line2d_41">
      <path d="M 51.378125 242.52668 
L 632.581071 242.52668 
" clip-path="url(#paa77374a47)" style="fill: none; stroke: #b0b0b0; stroke-opacity: 0.25; stroke-width: 0.8; stroke-linecap: square"/>
     </g>
     <g id="line2d_42">
      <g>
       <use xlink:href="#m53097c6d7c" x="51.378125" y="242.52668" style="stroke: #000000; stroke-width: 0.6"/>
      </g>
     </g>
    </g>
    <g id="ytick_18">
     <g id="line2d_43">
      <path d="M 51.378125 235.819536 
L 632.581071 235.819536 
" clip-path="url(#paa77374a47)" style="fill: none; stroke: #b0b0b0; stroke-opacity: 0.25; stroke-width: 0.8; stroke-linecap: square"/>
     </g>
     <g id="line2d_44">
      <g>
       <use xlink:href="#m53097c6d7c" x="51.378125" y="235.819536" style="stroke: #000000; stroke-width: 0.6"/>
      </g>
     </g>
    </g>
    <g id="ytick_19">
     <g id="line2d_45">
      <path d="M 51.378125 230.148727 
L 632.581071 230.148727 
" clip-path="url(#paa77374a47)" style="fill: none; stroke: #b0b0b0; stroke-opacity: 0.25; stroke-width: 0.8; stroke-linecap: square"/>
     </g>
     <g id="line2d_46">
      <g>
       <use xlink:href="#m53097c6d7c" x="51.378125" y="230.148727" style="stroke: #000000; stroke-width: 0.6"/>
      </g>
     </g>
    </g>
    <g id="ytick_20">
     <g id="line2d_47">
      <path d="M 51.378125 225.236449 
L 632.581071 225.236449 
" clip-path="url(#paa77374a47)" style="fill: none; stroke: #b0b0b0; stroke-opacity: 0.25; stroke-width: 0.8; stroke-linecap: square"/>
     </g>
     <g id="line2d_48">
      <g>
       <use xlink:href="#m53097c6d7c" x="51.378125" y="225.236449" style="stroke: #000000; stroke-width: 0.6"/>
      </g>
     </g>
    </g>
    <g id="ytick_21">
     <g id="line2d_49">
      <path d="M 51.378125 220.903512 
L 632.581071 220.903512 
" clip-path="url(#paa77374a47)" style="fill: none; stroke: #b0b0b0; stroke-opacity: 0.25; stroke-width: 0.8; stroke-linecap: square"/>
     </g>
     <g id="line2d_50">
      <g>
       <use xlink:href="#m53097c6d7c" x="51.378125" y="220.903512" style="stroke: #000000; stroke-width: 0.6"/>
      </g>
     </g>
    </g>
    <g id="ytick_22">
     <g id="line2d_51">
      <path d="M 51.378125 191.528456 
L 632.581071 191.528456 
" clip-path="url(#paa77374a47)" style="fill: none; stroke: #b0b0b0; stroke-opacity: 0.25; stroke-width: 0.8; stroke-linecap: square"/>
     </g>
     <g id="line2d_52">
      <g>
       <use xlink:href="#m53097c6d7c" x="51.378125" y="191.528456" style="stroke: #000000; stroke-width: 0.6"/>
      </g>
     </g>
    </g>
    <g id="ytick_23">
     <g id="line2d_53">
      <path d="M 51.378125 176.612432 
L 632.581071 176.612432 
" clip-path="url(#paa77374a47)" style="fill: none; stroke: #b0b0b0; stroke-opacity: 0.25; stroke-width: 0.8; stroke-linecap: square"/>
     </g>
     <g id="line2d_54">
      <g>
       <use xlink:href="#m53097c6d7c" x="51.378125" y="176.612432" style="stroke: #000000; stroke-width: 0.6"/>
      </g>
     </g>
    </g>
    <g id="ytick_24">
     <g id="line2d_55">
      <path d="M 51.378125 166.029344 
L 632.581071 166.029344 
" clip-path="url(#paa77374a47)" style="fill: none; stroke: #b0b0b0; stroke-opacity: 0.25; stroke-width: 0.8; stroke-linecap: square"/>
     </g>
     <g id="line2d_56">
      <g>
       <use xlink:href="#m53097c6d7c" x="51.378125" y="166.029344" style="stroke: #000000; stroke-width: 0.6"/>
      </g>
     </g>
    </g>
    <g id="ytick_25">
     <g id="line2d_57">
      <path d="M 51.378125 157.820464 
L 632.581071 157.820464 
" clip-path="url(#paa77374a47)" style="fill: none; stroke: #b0b0b0; stroke-opacity: 0.25; stroke-width: 0.8; stroke-linecap: square"/>
     </g>
     <g id="line2d_58">
      <g>
       <use xlink:href="#m53097c6d7c" x="51.378125" y="157.820464" style="stroke: #000000; stroke-width: 0.6"/>
      </g>
     </g>
    </g>
    <g id="ytick_26">
     <g id="line2d_59">
      <path d="M 51.378125 151.11332 
L 632.581071 151.11332 
" clip-path="url(#paa77374a47)" style="fill: none; stroke: #b0b0b0; stroke-opacity: 0.25; stroke-width: 0.8; stroke-linecap: square"/>
     </g>
     <g id="line2d_60">
      <g>
       <use xlink:href="#m53097c6d7c" x="51.378125" y="151.11332" style="stroke: #000000; stroke-width: 0.6"/>
      </g>
     </g>
    </g>
    <g id="ytick_27">
     <g id="line2d_61">
      <path d="M 51.378125 145.442511 
L 632.581071 145.442511 
" clip-path="url(#paa77374a47)" style="fill: none; stroke: #b0b0b0; stroke-opacity: 0.25; stroke-width: 0.8; stroke-linecap: square"/>
     </g>
     <g id="line2d_62">
      <g>
       <use xlink:href="#m53097c6d7c" x="51.378125" y="145.442511" style="stroke: #000000; stroke-width: 0.6"/>
      </g>
     </g>
    </g>
    <g id="ytick_28">
     <g id="line2d_63">
      <path d="M 51.378125 140.530233 
L 632.581071 140.530233 
" clip-path="url(#paa77374a47)" style="fill: none; stroke: #b0b0b0; stroke-opacity: 0.25; stroke-width: 0.8; stroke-linecap: square"/>
     </g>
     <g id="line2d_64">
      <g>
       <use xlink:href="#m53097c6d7c" x="51.378125" y="140.530233" style="stroke: #000000; stroke-width: 0.6"/>
      </g>
     </g>
    </g>
    <g id="ytick_29">
     <g id="line2d_65">
      <path d="M 51.378125 136.197296 
L 632.581071 136.197296 
" clip-path="url(#paa77374a47)" style="fill: none; stroke: #b0b0b0; stroke-opacity: 0.25; stroke-width: 0.8; stroke-linecap: square"/>
     </g>
     <g id="line2d_66">
      <g>
       <use xlink:href="#m53097c6d7c" x="51.378125" y="136.197296" style="stroke: #000000; stroke-width: 0.6"/>
      </g>
     </g>
    </g>
    <g id="ytick_30">
     <g id="line2d_67">
      <path d="M 51.378125 106.82224 
L 632.581071 106.82224 
" clip-path="url(#paa77374a47)" style="fill: none; stroke: #b0b0b0; stroke-opacity: 0.25; stroke-width: 0.8; stroke-linecap: square"/>
     </g>
     <g id="line2d_68">
      <g>
       <use xlink:href="#m53097c6d7c" x="51.378125" y="106.82224" style="stroke: #000000; stroke-width: 0.6"/>
      </g>
     </g>
    </g>
    <g id="ytick_31">
     <g id="line2d_69">
      <path d="M 51.378125 91.906216 
L 632.581071 91.906216 
" clip-path="url(#paa77374a47)" style="fill: none; stroke: #b0b0b0; stroke-opacity: 0.25; stroke-width: 0.8; stroke-linecap: square"/>
     </g>
     <g id="line2d_70">
      <g>
       <use xlink:href="#m53097c6d7c" x="51.378125" y="91.906216" style="stroke: #000000; stroke-width: 0.6"/>
      </g>
     </g>
    </g>
    <g id="ytick_32">
     <g id="line2d_71">
      <path d="M 51.378125 81.323128 
L 632.581071 81.323128 
" clip-path="url(#paa77374a47)" style="fill: none; stroke: #b0b0b0; stroke-opacity: 0.25; stroke-width: 0.8; stroke-linecap: square"/>
     </g>
     <g id="line2d_72">
      <g>
       <use xlink:href="#m53097c6d7c" x="51.378125" y="81.323128" style="stroke: #000000; stroke-width: 0.6"/>
      </g>
     </g>
    </g>
    <g id="ytick_33">
     <g id="line2d_73">
      <path d="M 51.378125 73.114248 
L 632.581071 73.114248 
" clip-path="url(#paa77374a47)" style="fill: none; stroke: #b0b0b0; stroke-opacity: 0.25; stroke-width: 0.8; stroke-linecap: square"/>
     </g>
     <g id="line2d_74">
      <g>
       <use xlink:href="#m53097c6d7c" x="51.378125" y="73.114248" style="stroke: #000000; stroke-width: 0.6"/>
      </g>
     </g>
    </g>
    <g id="ytick_34">
     <g id="line2d_75">
      <path d="M 51.378125 66.407104 
L 632.581071 66.407104 
" clip-path="url(#paa77374a47)" style="fill: none; stroke: #b0b0b0; stroke-opacity: 0.25; stroke-width: 0.8; stroke-linecap: square"/>
     </g>
     <g id="line2d_76">
      <g>
       <use xlink:href="#m53097c6d7c" x="51.378125" y="66.407104" style="stroke: #000000; stroke-width: 0.6"/>
      </g>
     </g>
    </g>
    <g id="ytick_35">
     <g id="line2d_77">
      <path d="M 51.378125 60.736295 
L 632.581071 60.736295 
" clip-path="url(#paa77374a47)" style="fill: none; stroke: #b0b0b0; stroke-opacity: 0.25; stroke-width: 0.8; stroke-linecap: square"/>
     </g>
     <g id="line2d_78">
      <g>
       <use xlink:href="#m53097c6d7c" x="51.378125" y="60.736295" style="stroke: #000000; stroke-width: 0.6"/>
      </g>
     </g>
    </g>
    <g id="ytick_36">
     <g id="line2d_79">
      <path d="M 51.378125 55.824017 
L 632.581071 55.824017 
" clip-path="url(#paa77374a47)" style="fill: none; stroke: #b0b0b0; stroke-opacity: 0.25; stroke-width: 0.8; stroke-linecap: square"/>
     </g>
     <g id="line2d_80">
      <g>
       <use xlink:href="#m53097c6d7c" x="51.378125" y="55.824017" style="stroke: #000000; stroke-width: 0.6"/>
      </g>
     </g>
    </g>
    <g id="ytick_37">
     <g id="line2d_81">
      <path d="M 51.378125 51.49108 
L 632.581071 51.49108 
" clip-path="url(#paa77374a47)" style="fill: none; stroke: #b0b0b0; stroke-opacity: 0.25; stroke-width: 0.8; stroke-linecap: square"/>
     </g>
     <g id="line2d_82">
      <g>
       <use xlink:href="#m53097c6d7c" x="51.378125" y="51.49108" style="stroke: #000000; stroke-width: 0.6"/>
      </g>
     </g>
    </g>
    <g id="ytick_38">
     <g id="line2d_83">
      <path d="M 51.378125 22.116024 
L 632.581071 22.116024 
" clip-path="url(#paa77374a47)" style="fill: none; stroke: #b0b0b0; stroke-opacity: 0.25; stroke-width: 0.8; stroke-linecap: square"/>
     </g>
     <g id="line2d_84">
      <g>
       <use xlink:href="#m53097c6d7c" x="51.378125" y="22.116024" style="stroke: #000000; stroke-width: 0.6"/>
      </g>
     </g>
    </g>
    <g id="ytick_39">
     <g id="line2d_85">
      <path d="M 51.378125 7.2 
L 632.581071 7.2 
" clip-path="url(#paa77374a47)" style="fill: none; stroke: #b0b0b0; stroke-opacity: 0.25; stroke-width: 0.8; stroke-linecap: square"/>
     </g>
     <g id="line2d_86">
      <g>
       <use xlink:href="#m53097c6d7c" x="51.378125" y="7.2" style="stroke: #000000; stroke-width: 0.6"/>
      </g>
     </g>
    </g>
    <g id="text_11">
     <!-- True-species mole fraction -->
     <g transform="translate(14.798438 262.695781) rotate(-90) scale(0.1 -0.1)">
      <defs>
       <path id="DejaVuSans-54" d="M -19 4666 
L 3928 4666 
L 3928 4134 
L 2272 4134 
L 2272 0 
L 1638 0 
L 1638 4134 
L -19 4134 
L -19 4666 
z
" transform="scale(0.015625)"/>
       <path id="DejaVuSans-72" d="M 2631 2963 
Q 2534 3019 2420 3045 
Q 2306 3072 2169 3072 
Q 1681 3072 1420 2755 
Q 1159 2438 1159 1844 
L 1159 0 
L 581 0 
L 581 3500 
L 1159 3500 
L 1159 2956 
Q 1341 3275 1631 3429 
Q 1922 3584 2338 3584 
Q 2397 3584 2469 3576 
Q 2541 3569 2628 3553 
L 2631 2963 
z
" transform="scale(0.015625)"/>
       <path id="DejaVuSans-75" d="M 544 1381 
L 544 3500 
L 1119 3500 
L 1119 1403 
Q 1119 906 1312 657 
Q 1506 409 1894 409 
Q 2359 409 2629 706 
Q 2900 1003 2900 1516 
L 2900 3500 
L 3475 3500 
L 3475 0 
L 2900 0 
L 2900 538 
Q 2691 219 2414 64 
Q 2138 -91 1772 -91 
Q 1169 -91 856 284 
Q 544 659 544 1381 
z
M 1991 3584 
L 1991 3584 
z
" transform="scale(0.015625)"/>
       <path id="DejaVuSans-65" d="M 3597 1894 
L 3597 1613 
L 953 1613 
Q 991 1019 1311 708 
Q 1631 397 2203 397 
Q 2534 397 2845 478 
Q 3156 559 3463 722 
L 3463 178 
Q 3153 47 2828 -22 
Q 2503 -91 2169 -91 
Q 1331 -91 842 396 
Q 353 884 353 1716 
Q 353 2575 817 3079 
Q 1281 3584 2069 3584 
Q 2775 3584 3186 3129 
Q 3597 2675 3597 1894 
z
M 3022 2063 
Q 3016 2534 2758 2815 
Q 2500 3097 2075 3097 
Q 1594 3097 1305 2825 
Q 1016 2553 972 2059 
L 3022 2063 
z
" transform="scale(0.015625)"/>
       <path id="DejaVuSans-2d" d="M 313 2009 
L 1997 2009 
L 1997 1497 
L 313 1497 
L 313 2009 
z
" transform="scale(0.015625)"/>
       <path id="DejaVuSans-73" d="M 2834 3397 
L 2834 2853 
Q 2591 2978 2328 3040 
Q 2066 3103 1784 3103 
Q 1356 3103 1142 2972 
Q 928 2841 928 2578 
Q 928 2378 1081 2264 
Q 1234 2150 1697 2047 
L 1894 2003 
Q 2506 1872 2764 1633 
Q 3022 1394 3022 966 
Q 3022 478 2636 193 
Q 2250 -91 1575 -91 
Q 1294 -91 989 -36 
Q 684 19 347 128 
L 347 722 
Q 666 556 975 473 
Q 1284 391 1588 391 
Q 1994 391 2212 530 
Q 2431 669 2431 922 
Q 2431 1156 2273 1281 
Q 2116 1406 1581 1522 
L 1381 1569 
Q 847 1681 609 1914 
Q 372 2147 372 2553 
Q 372 3047 722 3315 
Q 1072 3584 1716 3584 
Q 2034 3584 2315 3537 
Q 2597 3491 2834 3397 
z
" transform="scale(0.015625)"/>
       <path id="DejaVuSans-70" d="M 1159 525 
L 1159 -1331 
L 581 -1331 
L 581 3500 
L 1159 3500 
L 1159 2969 
Q 1341 3281 1617 3432 
Q 1894 3584 2278 3584 
Q 2916 3584 3314 3078 
Q 3713 2572 3713 1747 
Q 3713 922 3314 415 
Q 2916 -91 2278 -91 
Q 1894 -91 1617 61 
Q 1341 213 1159 525 
z
M 3116 1747 
Q 3116 2381 2855 2742 
Q 2594 3103 2138 3103 
Q 1681 3103 1420 2742 
Q 1159 2381 1159 1747 
Q 1159 1113 1420 752 
Q 1681 391 2138 391 
Q 2594 391 2855 752 
Q 3116 1113 3116 1747 
z
" transform="scale(0.015625)"/>
       <path id="DejaVuSans-63" d="M 3122 3366 
L 3122 2828 
Q 2878 2963 2633 3030 
Q 2388 3097 2138 3097 
Q 1578 3097 1268 2742 
Q 959 2388 959 1747 
Q 959 1106 1268 751 
Q 1578 397 2138 397 
Q 2388 397 2633 464 
Q 2878 531 3122 666 
L 3122 134 
Q 2881 22 2623 -34 
Q 2366 -91 2075 -91 
Q 1284 -91 818 406 
Q 353 903 353 1747 
Q 353 2603 823 3093 
Q 1294 3584 2113 3584 
Q 2378 3584 2631 3529 
Q 2884 3475 3122 3366 
z
" transform="scale(0.015625)"/>
       <path id="DejaVuSans-66" d="M 2375 4863 
L 2375 4384 
L 1825 4384 
Q 1516 4384 1395 4259 
Q 1275 4134 1275 3809 
L 1275 3500 
L 2222 3500 
L 2222 3053 
L 1275 3053 
L 1275 0 
L 697 0 
L 697 3053 
L 147 3053 
L 147 3500 
L 697 3500 
L 697 3744 
Q 697 4328 969 4595 
Q 1241 4863 1831 4863 
L 2375 4863 
z
" transform="scale(0.015625)"/>
       <path id="DejaVuSans-74" d="M 1172 4494 
L 1172 3500 
L 2356 3500 
L 2356 3053 
L 1172 3053 
L 1172 1153 
Q 1172 725 1289 603 
Q 1406 481 1766 481 
L 2356 481 
L 2356 0 
L 1766 0 
Q 1100 0 847 248 
Q 594 497 594 1153 
L 594 3053 
L 172 3053 
L 172 3500 
L 594 3500 
L 594 4494 
L 1172 4494 
z
" transform="scale(0.015625)"/>
      </defs>
      <use xlink:href="#DejaVuSans-54"/>
      <use xlink:href="#DejaVuSans-72" transform="translate(46.333984 0)"/>
      <use xlink:href="#DejaVuSans-75" transform="translate(87.447266 0)"/>
      <use xlink:href="#DejaVuSans-65" transform="translate(150.826172 0)"/>
      <use xlink:href="#DejaVuSans-2d" transform="translate(212.349609 0)"/>
      <use xlink:href="#DejaVuSans-73" transform="translate(248.433594 0)"/>
      <use xlink:href="#DejaVuSans-70" transform="translate(300.533203 0)"/>
      <use xlink:href="#DejaVuSans-65" transform="translate(364.009766 0)"/>
      <use xlink:href="#DejaVuSans-63" transform="translate(425.533203 0)"/>
      <use xlink:href="#DejaVuSans-69" transform="translate(480.513672 0)"/>
      <use xlink:href="#DejaVuSans-65" transform="translate(508.296875 0)"/>
      <use xlink:href="#DejaVuSans-73" transform="translate(569.820312 0)"/>
      <use xlink:href="#DejaVuSans-20" transform="translate(621.919922 0)"/>
      <use xlink:href="#DejaVuSans-6d" transform="translate(653.707031 0)"/>
      <use xlink:href="#DejaVuSans-6f" transform="translate(751.119141 0)"/>
      <use xlink:href="#DejaVuSans-6c" transform="translate(812.300781 0)"/>
      <use xlink:href="#DejaVuSans-65" transform="translate(840.083984 0)"/>
      <use xlink:href="#DejaVuSans-20" transform="translate(901.607422 0)"/>
      <use xlink:href="#DejaVuSans-66" transform="translate(933.394531 0)"/>
      <use xlink:href="#DejaVuSans-72" transform="translate(968.599609 0)"/>
      <use xlink:href="#DejaVuSans-61" transform="translate(1009.712891 0)"/>
      <use xlink:href="#DejaVuSans-63" transform="translate(1070.992188 0)"/>
      <use xlink:href="#DejaVuSans-74" transform="translate(1125.972656 0)"/>
      <use xlink:href="#DejaVuSans-69" transform="translate(1165.181641 0)"/>
      <use xlink:href="#DejaVuSans-6f" transform="translate(1192.964844 0)"/>
      <use xlink:href="#DejaVuSans-6e" transform="translate(1254.146484 0)"/>
     </g>
    </g>
   </g>
   <g id="line2d_87">
    <defs>
     <path id="m8d6615a4f9" d="M 0 3 
C 0.795609 3 1.55874 2.683901 2.12132 2.12132 
C 2.683901 1.55874 3 0.795609 3 0 
C 3 -0.795609 2.683901 -1.55874 2.12132 -2.12132 
C 1.55874 -2.683901 0.795609 -3 0 -3 
C -0.795609 -3 -1.55874 -2.683901 -2.12132 -2.12132 
C -2.683901 -1.55874 -3 -0.795609 -3 0 
C -3 0.795609 -2.683901 1.55874 -2.12132 2.12132 
C -1.55874 2.683901 -0.795609 3 0 3 
z
" style="stroke: #e377c2; stroke-opacity: 0.6"/>
    </defs>
    <g clip-path="url(#paa77374a47)">
     <use xlink:href="#m8d6615a4f9" x="77.796441" y="31.343056" style="fill: #e377c2; fill-opacity: 0.6; stroke: #e377c2; stroke-opacity: 0.6"/>
     <use xlink:href="#m8d6615a4f9" x="345.691774" y="52.846646" style="fill: #e377c2; fill-opacity: 0.6; stroke: #e377c2; stroke-opacity: 0.6"/>
     <use xlink:href="#m8d6615a4f9" x="410.654845" y="50.026854" style="fill: #e377c2; fill-opacity: 0.6; stroke: #e377c2; stroke-opacity: 0.6"/>
     <use xlink:href="#m8d6615a4f9" x="606.162755" y="43.784917" style="fill: #e377c2; fill-opacity: 0.6; stroke: #e377c2; stroke-opacity: 0.6"/>
    </g>
   </g>
   <g id="line2d_88">
    <path d="M 77.796441 45.226379 
L 345.691774 61.389079 
L 410.654845 58.431383 
L 606.162755 46.847575 
" clip-path="url(#paa77374a47)" style="fill: none; stroke: #e377c2; stroke-width: 1.5; stroke-linecap: square"/>
   </g>
   <g id="line2d_89">
    <defs>
     <path id="m621f661039" d="M 0 3 
C 0.795609 3 1.55874 2.683901 2.12132 2.12132 
C 2.683901 1.55874 3 0.795609 3 0 
C 3 -0.795609 2.683901 -1.55874 2.12132 -2.12132 
C 1.55874 -2.683901 0.795609 -3 0 -3 
C -0.795609 -3 -1.55874 -2.683901 -2.12132 -2.12132 
C -2.683901 -1.55874 -3 -0.795609 -3 0 
C -3 0.795609 -2.683901 1.55874 -2.12132 2.12132 
C -1.55874 2.683901 -0.795609 3 0 3 
z
" style="stroke: #d62728; stroke-opacity: 0.6"/>
    </defs>
    <g clip-path="url(#paa77374a47)">
     <use xlink:href="#m621f661039" x="77.796441" y="138.048902" style="fill: #d62728; fill-opacity: 0.6; stroke: #d62728; stroke-opacity: 0.6"/>
     <use xlink:href="#m621f661039" x="208.959976" y="93.232994" style="fill: #d62728; fill-opacity: 0.6; stroke: #d62728; stroke-opacity: 0.6"/>
     <use xlink:href="#m621f661039" x="210.816063" y="92.07472" style="fill: #d62728; fill-opacity: 0.6; stroke: #d62728; stroke-opacity: 0.6"/>
     <use xlink:href="#m621f661039" x="345.691774" y="74.39201" style="fill: #d62728; fill-opacity: 0.6; stroke: #d62728; stroke-opacity: 0.6"/>
     <use xlink:href="#m621f661039" x="359.92178" y="77.326986" style="fill: #d62728; fill-opacity: 0.6; stroke: #d62728; stroke-opacity: 0.6"/>
     <use xlink:href="#m621f661039" x="402.611798" y="73.965811" style="fill: #d62728; fill-opacity: 0.6; stroke: #d62728; stroke-opacity: 0.6"/>
     <use xlink:href="#m621f661039" x="410.654845" y="83.728705" style="fill: #d62728; fill-opacity: 0.6; stroke: #d62728; stroke-opacity: 0.6"/>
     <use xlink:href="#m621f661039" x="606.162755" y="126.235343" style="fill: #d62728; fill-opacity: 0.6; stroke: #d62728; stroke-opacity: 0.6"/>
    </g>
   </g>
   <g id="line2d_90">
    <path d="M 77.796441 154.065563 
L 208.959976 94.534981 
L 210.816063 94.118041 
L 345.691774 78.259243 
L 359.92178 78.827145 
L 402.611798 82.306978 
L 410.654845 83.556921 
L 606.162755 132.90986 
" clip-path="url(#paa77374a47)" style="fill: none; stroke: #d62728; stroke-width: 1.5; stroke-linecap: square"/>
   </g>
   <g id="line2d_91">
    <defs>
     <path id="m9b244d5eab" d="M 0 3 
C 0.795609 3 1.55874 2.683901 2.12132 2.12132 
C 2.683901 1.55874 3 0.795609 3 0 
C 3 -0.795609 2.683901 -1.55874 2.12132 -2.12132 
C 1.55874 -2.683901 0.795609 -3 0 -3 
C -0.795609 -3 -1.55874 -2.683901 -2.12132 -2.12132 
C -2.683901 -1.55874 -3 -0.795609 -3 0 
C -3 0.795609 -2.683901 1.55874 -2.12132 2.12132 
C -1.55874 2.683901 -0.795609 3 0 3 
z
" style="stroke: #ff7f0e; stroke-opacity: 0.6"/>
    </defs>
    <g clip-path="url(#paa77374a47)">
     <use xlink:href="#m9b244d5eab" x="208.959976" y="90.937271" style="fill: #ff7f0e; fill-opacity: 0.6; stroke: #ff7f0e; stroke-opacity: 0.6"/>
     <use xlink:href="#m9b244d5eab" x="210.816063" y="100.419785" style="fill: #ff7f0e; fill-opacity: 0.6; stroke: #ff7f0e; stroke-opacity: 0.6"/>
     <use xlink:href="#m9b244d5eab" x="359.92178" y="69.351073" style="fill: #ff7f0e; fill-opacity: 0.6; stroke: #ff7f0e; stroke-opacity: 0.6"/>
     <use xlink:href="#m9b244d5eab" x="402.611798" y="65.055587" style="fill: #ff7f0e; fill-opacity: 0.6; stroke: #ff7f0e; stroke-opacity: 0.6"/>
    </g>
   </g>
   <g id="line2d_92">
    <path d="M 208.959976 85.483224 
L 210.816063 85.145425 
L 359.92178 65.260599 
L 402.611798 61.941012 
" clip-path="url(#paa77374a47)" style="fill: none; stroke: #ff7f0e; stroke-width: 1.5; stroke-linecap: square"/>
   </g>
   <g id="patch_3">
    <path d="M 51.378125 386.44 
L 51.378125 7.2 
" style="fill: none; stroke: #000000; stroke-width: 0.8; stroke-linejoin: miter; stroke-linecap: square"/>
   </g>
   <g id="patch_4">
    <path d="M 632.581071 386.44 
L 632.581071 7.2 
" style="fill: none; stroke: #000000; stroke-width: 0.8; stroke-linejoin: miter; stroke-linecap: square"/>
   </g>
   <g id="patch_5">
    <path d="M 51.378125 386.44 
L 632.581071 386.44 
" style="fill: none; stroke: #000000; stroke-width: 0.8; stroke-linejoin: miter; stroke-linecap: square"/>
   </g>
   <g id="patch_6">
    <path d="M 51.378125 7.2 
L 632.581071 7.2 
" style="fill: none; stroke: #000000; stroke-width: 0.8; stroke-linejoin: miter; stroke-linecap: square"/>
   </g>
   <g id="legend_1">
    <g id="patch_7">
     <path d="M 56.978125 382.44 
L 164.818125 382.44 
Q 166.418125 382.44 166.418125 380.84 
L 166.418125 311.185 
Q 166.418125 309.585 164.818125 309.585 
L 56.978125 309.585 
Q 55.378125 309.585 55.378125 311.185 
L 55.378125 380.84 
Q 55.378125 382.44 56.978125 382.44 
z
" style="fill: #ffffff; opacity: 0.8; stroke: #cccccc; stroke-linejoin: miter"/>
    </g>
    <g id="line2d_93">
     <g>
      <use xlink:href="#m8d6615a4f9" x="66.578125" y="316.06375" style="fill: #e377c2; fill-opacity: 0.6; stroke: #e377c2; stroke-opacity: 0.6"/>
     </g>
    </g>
    <g id="text_12">
     <!-- $MEA + MEAH^+$ data -->
     <g transform="translate(80.978125 318.86375) scale(0.08 -0.08)">
      <defs>
       <path id="DejaVuSans-Oblique-4d" d="M 1081 4666 
L 2028 4666 
L 2572 1522 
L 4378 4666 
L 5350 4666 
L 4441 0 
L 3828 0 
L 4622 4091 
L 2791 897 
L 2175 897 
L 1581 4103 
L 788 0 
L 172 0 
L 1081 4666 
z
" transform="scale(0.015625)"/>
       <path id="DejaVuSans-Oblique-45" d="M 1081 4666 
L 4031 4666 
L 3928 4134 
L 1606 4134 
L 1338 2753 
L 3566 2753 
L 3463 2222 
L 1234 2222 
L 909 531 
L 3284 531 
L 3181 0 
L 172 0 
L 1081 4666 
z
" transform="scale(0.015625)"/>
       <path id="DejaVuSans-Oblique-41" d="M 2356 4666 
L 3072 4666 
L 3938 0 
L 3278 0 
L 3084 1197 
L 984 1197 
L 325 0 
L -341 0 
L 2356 4666 
z
M 2584 4044 
L 1275 1722 
L 2988 1722 
L 2584 4044 
z
" transform="scale(0.015625)"/>
       <path id="DejaVuSans-2b" d="M 2944 4013 
L 2944 2272 
L 4684 2272 
L 4684 1741 
L 2944 1741 
L 2944 0 
L 2419 0 
L 2419 1741 
L 678 1741 
L 678 2272 
L 2419 2272 
L 2419 4013 
L 2944 4013 
z
" transform="scale(0.015625)"/>
       <path id="DejaVuSans-Oblique-48" d="M 1081 4666 
L 1716 4666 
L 1344 2753 
L 3634 2753 
L 4006 4666 
L 4641 4666 
L 3731 0 
L 3097 0 
L 3531 2222 
L 1241 2222 
L 806 0 
L 172 0 
L 1081 4666 
z
" transform="scale(0.015625)"/>
      </defs>
      <use xlink:href="#DejaVuSans-Oblique-4d" transform="translate(0 0.826562)"/>
      <use xlink:href="#DejaVuSans-Oblique-45" transform="translate(86.279297 0.826562)"/>
      <use xlink:href="#DejaVuSans-Oblique-41" transform="translate(149.462891 0.826562)"/>
      <use xlink:href="#DejaVuSans-2b" transform="translate(237.353516 0.826562)"/>
      <use xlink:href="#DejaVuSans-Oblique-4d" transform="translate(340.625 0.826562)"/>
      <use xlink:href="#DejaVuSans-Oblique-45" transform="translate(426.904297 0.826562)"/>
      <use xlink:href="#DejaVuSans-Oblique-41" transform="translate(490.087891 0.826562)"/>
      <use xlink:href="#DejaVuSans-Oblique-48" transform="translate(558.496094 0.826562)"/>
      <use xlink:href="#DejaVuSans-2b" transform="translate(654.345872 39.107812) scale(0.7)"/>
      <use xlink:href="#DejaVuSans-20" transform="translate(729.370286 0.826562)"/>
      <use xlink:href="#DejaVuSans-64" transform="translate(761.157396 0.826562)"/>
      <use xlink:href="#DejaVuSans-61" transform="translate(824.633958 0.826562)"/>
      <use xlink:href="#DejaVuSans-74" transform="translate(885.913255 0.826562)"/>
      <use xlink:href="#DejaVuSans-61" transform="translate(925.12224 0.826562)"/>
     </g>
    </g>
    <g id="line2d_94">
     <path d="M 58.578125 327.80625 
L 66.578125 327.80625 
L 74.578125 327.80625 
" style="fill: none; stroke: #e377c2; stroke-width: 1.5; stroke-linecap: square"/>
    </g>
    <g id="text_13">
     <!-- $MEA + MEAH^+$ fitted -->
     <g transform="translate(80.978125 330.60625) scale(0.08 -0.08)">
      <use xlink:href="#DejaVuSans-Oblique-4d" transform="translate(0 0.826562)"/>
      <use xlink:href="#DejaVuSans-Oblique-45" transform="translate(86.279297 0.826562)"/>
      <use xlink:href="#DejaVuSans-Oblique-41" transform="translate(149.462891 0.826562)"/>
      <use xlink:href="#DejaVuSans-2b" transform="translate(237.353516 0.826562)"/>
      <use xlink:href="#DejaVuSans-Oblique-4d" transform="translate(340.625 0.826562)"/>
      <use xlink:href="#DejaVuSans-Oblique-45" transform="translate(426.904297 0.826562)"/>
      <use xlink:href="#DejaVuSans-Oblique-41" transform="translate(490.087891 0.826562)"/>
      <use xlink:href="#DejaVuSans-Oblique-48" transform="translate(558.496094 0.826562)"/>
      <use xlink:href="#DejaVuSans-2b" transform="translate(654.345872 39.107812) scale(0.7)"/>
      <use xlink:href="#DejaVuSans-20" transform="translate(729.370286 0.826562)"/>
      <use xlink:href="#DejaVuSans-66" transform="translate(761.157396 0.826562)"/>
      <use xlink:href="#DejaVuSans-69" transform="translate(796.362474 0.826562)"/>
      <use xlink:href="#DejaVuSans-74" transform="translate(824.145677 0.826562)"/>
      <use xlink:href="#DejaVuSans-74" transform="translate(863.354661 0.826562)"/>
      <use xlink:href="#DejaVuSans-65" transform="translate(902.563646 0.826562)"/>
      <use xlink:href="#DejaVuSans-64" transform="translate(964.087083 0.826562)"/>
     </g>
    </g>
    <g id="line2d_95">
     <g>
      <use xlink:href="#m621f661039" x="66.578125" y="339.54875" style="fill: #d62728; fill-opacity: 0.6; stroke: #d62728; stroke-opacity: 0.6"/>
     </g>
    </g>
    <g id="text_14">
     <!-- $MEACOO^-$ data -->
     <g transform="translate(80.978125 342.34875) scale(0.08 -0.08)">
      <defs>
       <path id="DejaVuSans-Oblique-43" d="M 4447 4306 
L 4319 3641 
Q 4019 3944 3683 4091 
Q 3347 4238 2956 4238 
Q 2422 4238 2017 3981 
Q 1613 3725 1319 3200 
Q 1131 2863 1032 2486 
Q 934 2109 934 1728 
Q 934 1091 1264 756 
Q 1594 422 2222 422 
Q 2656 422 3056 561 
Q 3456 700 3834 978 
L 3688 231 
Q 3316 72 2936 -9 
Q 2556 -91 2175 -91 
Q 1278 -91 773 396 
Q 269 884 269 1753 
Q 269 2309 461 2846 
Q 653 3384 1013 3828 
Q 1394 4300 1883 4525 
Q 2372 4750 3022 4750 
Q 3422 4750 3780 4639 
Q 4138 4528 4447 4306 
z
" transform="scale(0.015625)"/>
       <path id="DejaVuSans-Oblique-4f" d="M 2919 4238 
Q 2400 4238 2003 3986 
Q 1606 3734 1313 3219 
Q 1125 2891 1026 2522 
Q 928 2153 928 1778 
Q 928 1128 1239 775 
Q 1550 422 2119 422 
Q 2631 422 3032 676 
Q 3434 931 3719 1434 
Q 3909 1772 4009 2142 
Q 4109 2513 4109 2881 
Q 4109 3528 3796 3883 
Q 3484 4238 2919 4238 
z
M 2100 -91 
Q 1241 -91 748 418 
Q 256 928 256 1813 
Q 256 2319 448 2847 
Q 641 3375 978 3788 
Q 1375 4272 1862 4511 
Q 2350 4750 2938 4750 
Q 3794 4750 4287 4245 
Q 4781 3741 4781 2869 
Q 4781 2331 4593 1812 
Q 4406 1294 4056 872 
Q 3656 384 3173 146 
Q 2691 -91 2100 -91 
z
" transform="scale(0.015625)"/>
      </defs>
      <use xlink:href="#DejaVuSans-Oblique-4d" transform="translate(0 0.015625)"/>
      <use xlink:href="#DejaVuSans-Oblique-45" transform="translate(86.279297 0.015625)"/>
      <use xlink:href="#DejaVuSans-Oblique-41" transform="translate(149.462891 0.015625)"/>
      <use xlink:href="#DejaVuSans-Oblique-43" transform="translate(217.871094 0.015625)"/>
      <use xlink:href="#DejaVuSans-Oblique-4f" transform="translate(287.695312 0.015625)"/>
      <use xlink:href="#DejaVuSans-Oblique-4f" transform="translate(366.40625 0.015625)"/>
      <use xlink:href="#DejaVuSans-2212" transform="translate(465.955404 38.296875) scale(0.7)"/>
      <use xlink:href="#DejaVuSans-20" transform="translate(540.979818 0.015625)"/>
      <use xlink:href="#DejaVuSans-64" transform="translate(572.766927 0.015625)"/>
      <use xlink:href="#DejaVuSans-61" transform="translate(636.24349 0.015625)"/>
      <use xlink:href="#DejaVuSans-74" transform="translate(697.522786 0.015625)"/>
      <use xlink:href="#DejaVuSans-61" transform="translate(736.731771 0.015625)"/>
     </g>
    </g>
    <g id="line2d_96">
     <path d="M 58.578125 351.29125 
L 66.578125 351.29125 
L 74.578125 351.29125 
" style="fill: none; stroke: #d62728; stroke-width: 1.5; stroke-linecap: square"/>
    </g>
    <g id="text_15">
     <!-- $MEACOO^-$ fitted -->
     <g transform="translate(80.978125 354.09125) scale(0.08 -0.08)">
      <use xlink:href="#DejaVuSans-Oblique-4d" transform="translate(0 0.015625)"/>
      <use xlink:href="#DejaVuSans-Oblique-45" transform="translate(86.279297 0.015625)"/>
      <use xlink:href="#DejaVuSans-Oblique-41" transform="translate(149.462891 0.015625)"/>
      <use xlink:href="#DejaVuSans-Oblique-43" transform="translate(217.871094 0.015625)"/>
      <use xlink:href="#DejaVuSans-Oblique-4f" transform="translate(287.695312 0.015625)"/>
      <use xlink:href="#DejaVuSans-Oblique-4f" transform="translate(366.40625 0.015625)"/>
      <use xlink:href="#DejaVuSans-2212" transform="translate(465.955404 38.296875) scale(0.7)"/>
      <use xlink:href="#DejaVuSans-20" transform="translate(540.979818 0.015625)"/>
      <use xlink:href="#DejaVuSans-66" transform="translate(572.766927 0.015625)"/>
      <use xlink:href="#DejaVuSans-69" transform="translate(607.972005 0.015625)"/>
      <use xlink:href="#DejaVuSans-74" transform="translate(635.755208 0.015625)"/>
      <use xlink:href="#DejaVuSans-74" transform="translate(674.964193 0.015625)"/>
      <use xlink:href="#DejaVuSans-65" transform="translate(714.173177 0.015625)"/>
      <use xlink:href="#DejaVuSans-64" transform="translate(775.696615 0.015625)"/>
     </g>
    </g>
    <g id="line2d_97">
     <g>
      <use xlink:href="#m9b244d5eab" x="66.578125" y="363.03375" style="fill: #ff7f0e; fill-opacity: 0.6; stroke: #ff7f0e; stroke-opacity: 0.6"/>
     </g>
    </g>
    <g id="text_16">
     <!-- $MEAH^+$ data -->
     <g transform="translate(80.978125 365.83375) scale(0.08 -0.08)">
      <use xlink:href="#DejaVuSans-Oblique-4d" transform="translate(0 0.826562)"/>
      <use xlink:href="#DejaVuSans-Oblique-45" transform="translate(86.279297 0.826562)"/>
      <use xlink:href="#DejaVuSans-Oblique-41" transform="translate(149.462891 0.826562)"/>
      <use xlink:href="#DejaVuSans-Oblique-48" transform="translate(217.871094 0.826562)"/>
      <use xlink:href="#DejaVuSans-2b" transform="translate(313.720872 39.107812) scale(0.7)"/>
      <use xlink:href="#DejaVuSans-20" transform="translate(388.745286 0.826562)"/>
      <use xlink:href="#DejaVuSans-64" transform="translate(420.532396 0.826562)"/>
      <use xlink:href="#DejaVuSans-61" transform="translate(484.008958 0.826562)"/>
      <use xlink:href="#DejaVuSans-74" transform="translate(545.288255 0.826562)"/>
      <use xlink:href="#DejaVuSans-61" transform="translate(584.49724 0.826562)"/>
     </g>
    </g>
    <g id="line2d_98">
     <path d="M 58.578125 374.77625 
L 66.578125 374.77625 
L 74.578125 374.77625 
" style="fill: none; stroke: #ff7f0e; stroke-width: 1.5; stroke-linecap: square"/>
    </g>
    <g id="text_17">
     <!-- $MEAH^+$ fitted -->
     <g transform="translate(80.978125 377.57625) scale(0.08 -0.08)">
      <use xlink:href="#DejaVuSans-Oblique-4d" transform="translate(0 0.826562)"/>
      <use xlink:href="#DejaVuSans-Oblique-45" transform="translate(86.279297 0.826562)"/>
      <use xlink:href="#DejaVuSans-Oblique-41" transform="translate(149.462891 0.826562)"/>
      <use xlink:href="#DejaVuSans-Oblique-48" transform="translate(217.871094 0.826562)"/>
      <use xlink:href="#DejaVuSans-2b" transform="translate(313.720872 39.107812) scale(0.7)"/>
      <use xlink:href="#DejaVuSans-20" transform="translate(388.745286 0.826562)"/>
      <use xlink:href="#DejaVuSans-66" transform="translate(420.532396 0.826562)"/>
      <use xlink:href="#DejaVuSans-69" transform="translate(455.737474 0.826562)"/>
      <use xlink:href="#DejaVuSans-74" transform="translate(483.520677 0.826562)"/>
      <use xlink:href="#DejaVuSans-74" transform="translate(522.729661 0.826562)"/>
      <use xlink:href="#DejaVuSans-65" transform="translate(561.938646 0.826562)"/>
      <use xlink:href="#DejaVuSans-64" transform="translate(623.462083 0.826562)"/>
     </g>
    </g>
   </g>
  </g>
 </g>
 <defs>
  <clipPath id="paa77374a47">
   <rect x="51.378125" y="7.2" width="581.202946" height="379.24"/>
  </clipPath>
 </defs>
</svg>
