<?xml version="1.0" encoding="utf-8" standalone="no"?>
<!DOCTYPE svg PUBLIC "-//W3C//DTD SVG 1.1//EN"
  "http://www.w3.org/Graphics/SVG/1.1/DTD/svg11.dtd">
<svg xmlns:xlink="http://www.w3.org/1999/xlink" width="789.930391pt" height="524.769211pt" viewBox="0 0 789.930391 524.769211" xmlns="http://www.w3.org/2000/svg" version="1.1">
 <metadata>
  <rdf:RDF xmlns:dc="http://purl.org/dc/elements/1.1/" xmlns:cc="http://creativecommons.org/ns#" xmlns:rdf="http://www.w3.org/1999/02/22-rdf-syntax-ns#">
   <cc:Work>
    <dc:type rdf:resource="http://purl.org/dc/dcmitype/StillImage"/>
    <dc:date>2026-07-09T17:06:20.700641</dc:date>
    <dc:format>image/svg+xml</dc:format>
    <dc:creator>
     <cc:Agent>
      <dc:title>Matplotlib v3.10.9, https://matplotlib.org/</dc:title>
     </cc:Agent>
    </dc:creator>
   </cc:Work>
  </rdf:RDF>
 </metadata>
 <defs>
  <style type="text/css">*{stroke-linejoin: round; stroke-linecap: butt}</style>
 </defs>
 <g id="figure_1">
  <g id="patch_1">
   <path d="M 0 524.769211
L 789.930391 524.769211
L 789.930391 0
L 0 0
z
" style="fill: #ffffff"/>
  </g>
  <g id="axes_1">
   <g id="patch_2">
    <path d="M 59.140938 484.51718
L 771.040937 484.51718
L 771.040937 11.18918
L 59.140938 11.18918
z
" style="fill: #ffffff"/>
   </g>
   <g id="matplotlib.axis_1">
    <g id="xtick_1">
     <g id="line2d_1">
      <defs>
       <path id="mefcca810e2" d="M 0 0
L 0 4.5
" style="stroke: #000000; stroke-width: 0.9"/>
      </defs>
      <g>
       <use xlink:href="#mefcca810e2" x="59.140938" y="484.51718" style="stroke: #000000; stroke-width: 0.9"/>
      </g>
     </g>
     <g id="text_1">
      <!-- 0.00 -->
      <g transform="translate(47.451484 500.495539) scale(0.105 -0.105)">
       <defs>
        <path id="DejaVuSerif-30" d="M 2034 219
Q 2513 219 2750 744
Q 2988 1269 2988 2328
Q 2988 3391 2750 3916
Q 2513 4441 2034 4441
Q 1556 4441 1318 3916
Q 1081 3391 1081 2328
Q 1081 1269 1318 744
Q 1556 219 2034 219
z
M 2034 -91
Q 1275 -91 848 546
Q 422 1184 422 2328
Q 422 3475 848 4112
Q 1275 4750 2034 4750
Q 2797 4750 3222 4112
Q 3647 3475 3647 2328
Q 3647 1184 3222 546
Q 2797 -91 2034 -91
z
" transform="scale(0.015625)"/>
        <path id="DejaVuSerif-2e" d="M 603 325
Q 603 500 722 622
Q 841 744 1019 744
Q 1191 744 1312 622
Q 1434 500 1434 325
Q 1434 153 1312 31
Q 1191 -91 1019 -91
Q 841 -91 722 29
Q 603 150 603 325
z
" transform="scale(0.015625)"/>
       </defs>
       <use xlink:href="#DejaVuSerif-30"/>
       <use xlink:href="#DejaVuSerif-2e" transform="translate(63.623047 0)"/>
       <use xlink:href="#DejaVuSerif-30" transform="translate(95.410156 0)"/>
       <use xlink:href="#DejaVuSerif-30" transform="translate(159.033203 0)"/>
      </g>
     </g>
    </g>
    <g id="xtick_2">
     <g id="line2d_2">
      <g>
       <use xlink:href="#mefcca810e2" x="130.330938" y="484.51718" style="stroke: #000000; stroke-width: 0.9"/>
      </g>
     </g>
     <g id="text_2">
      <!-- 0.08 -->
      <g transform="translate(118.641484 500.495539) scale(0.105 -0.105)">
       <defs>
        <path id="DejaVuSerif-38" d="M 2981 1275
Q 2981 1775 2732 2051
Q 2484 2328 2034 2328
Q 1584 2328 1336 2051
Q 1088 1775 1088 1275
Q 1088 772 1336 495
Q 1584 219 2034 219
Q 2484 219 2732 495
Q 2981 772 2981 1275
z
M 2853 3541
Q 2853 3966 2637 4203
Q 2422 4441 2034 4441
Q 1650 4441 1433 4203
Q 1216 3966 1216 3541
Q 1216 3113 1433 2875
Q 1650 2638 2034 2638
Q 2422 2638 2637 2875
Q 2853 3113 2853 3541
z
M 2516 2484
Q 3047 2413 3344 2092
Q 3641 1772 3641 1275
Q 3641 619 3225 264
Q 2809 -91 2034 -91
Q 1263 -91 845 264
Q 428 619 428 1275
Q 428 1772 725 2092
Q 1022 2413 1556 2484
Q 1084 2569 832 2842
Q 581 3116 581 3541
Q 581 4103 968 4426
Q 1356 4750 2034 4750
Q 2713 4750 3100 4426
Q 3488 4103 3488 3541
Q 3488 3116 3236 2842
Q 2984 2569 2516 2484
z
" transform="scale(0.015625)"/>
       </defs>
       <use xlink:href="#DejaVuSerif-30"/>
       <use xlink:href="#DejaVuSerif-2e" transform="translate(63.623047 0)"/>
       <use xlink:href="#DejaVuSerif-30" transform="translate(95.410156 0)"/>
       <use xlink:href="#DejaVuSerif-38" transform="translate(159.033203 0)"/>
      </g>
     </g>
    </g>
    <g id="xtick_3">
     <g id="line2d_3">
      <g>
       <use xlink:href="#mefcca810e2" x="201.520937" y="484.51718" style="stroke: #000000; stroke-width: 0.9"/>
      </g>
     </g>
     <g id="text_3">
      <!-- 0.16 -->
      <g transform="translate(189.831484 500.495539) scale(0.105 -0.105)">
       <defs>
        <path id="DejaVuSerif-31" d="M 909 0
L 909 331
L 1722 331
L 1722 4213
L 781 3603
L 781 4013
L 1919 4750
L 2350 4750
L 2350 331
L 3163 331
L 3163 0
L 909 0
z
" transform="scale(0.015625)"/>
        <path id="DejaVuSerif-36" d="M 2094 219
Q 2534 219 2771 542
Q 3009 866 3009 1472
Q 3009 2078 2771 2401
Q 2534 2725 2094 2725
Q 1647 2725 1412 2412
Q 1178 2100 1178 1509
Q 1178 888 1415 553
Q 1653 219 2094 219
z
M 1075 2569
Q 1288 2803 1556 2918
Q 1825 3034 2163 3034
Q 2859 3034 3264 2615
Q 3669 2197 3669 1472
Q 3669 763 3233 336
Q 2797 -91 2069 -91
Q 1278 -91 853 498
Q 428 1088 428 2181
Q 428 3406 931 4078
Q 1434 4750 2350 4750
Q 2597 4750 2869 4703
Q 3141 4656 3425 4563
L 3425 3794
L 3072 3794
Q 3034 4109 2831 4275
Q 2628 4441 2284 4441
Q 1678 4441 1381 3981
Q 1084 3522 1075 2569
z
" transform="scale(0.015625)"/>
       </defs>
       <use xlink:href="#DejaVuSerif-30"/>
       <use xlink:href="#DejaVuSerif-2e" transform="translate(63.623047 0)"/>
       <use xlink:href="#DejaVuSerif-31" transform="translate(95.410156 0)"/>
       <use xlink:href="#DejaVuSerif-36" transform="translate(159.033203 0)"/>
      </g>
     </g>
    </g>
    <g id="xtick_4">
     <g id="line2d_4">
      <g>
       <use xlink:href="#mefcca810e2" x="272.710937" y="484.51718" style="stroke: #000000; stroke-width: 0.9"/>
      </g>
     </g>
     <g id="text_4">
      <!-- 0.24 -->
      <g transform="translate(261.021484 500.495539) scale(0.105 -0.105)">
       <defs>
        <path id="DejaVuSerif-32" d="M 819 3553
L 469 3553
L 469 4384
Q 803 4563 1142 4656
Q 1481 4750 1806 4750
Q 2534 4750 2956 4397
Q 3378 4044 3378 3438
Q 3378 2753 2422 1800
Q 2347 1728 2309 1691
L 1131 513
L 3078 513
L 3078 1088
L 3444 1088
L 3444 0
L 434 0
L 434 341
L 1850 1753
Q 2319 2222 2519 2614
Q 2719 3006 2719 3438
Q 2719 3909 2473 4175
Q 2228 4441 1797 4441
Q 1350 4441 1106 4219
Q 863 3997 819 3553
z
" transform="scale(0.015625)"/>
        <path id="DejaVuSerif-34" d="M 2234 1581
L 2234 4063
L 641 1581
L 2234 1581
z
M 3609 0
L 1484 0
L 1484 331
L 2234 331
L 2234 1247
L 197 1247
L 197 1588
L 2241 4750
L 2859 4750
L 2859 1581
L 3750 1581
L 3750 1247
L 2859 1247
L 2859 331
L 3609 331
L 3609 0
z
" transform="scale(0.015625)"/>
       </defs>
       <use xlink:href="#DejaVuSerif-30"/>
       <use xlink:href="#DejaVuSerif-2e" transform="translate(63.623047 0)"/>
       <use xlink:href="#DejaVuSerif-32" transform="translate(95.410156 0)"/>
       <use xlink:href="#DejaVuSerif-34" transform="translate(159.033203 0)"/>
      </g>
     </g>
    </g>
    <g id="xtick_5">
     <g id="line2d_5">
      <g>
       <use xlink:href="#mefcca810e2" x="343.900937" y="484.51718" style="stroke: #000000; stroke-width: 0.9"/>
      </g>
     </g>
     <g id="text_5">
      <!-- 0.32 -->
      <g transform="translate(332.211484 500.495539) scale(0.105 -0.105)">
       <defs>
        <path id="DejaVuSerif-33" d="M 622 4469
Q 988 4606 1323 4678
Q 1659 4750 1953 4750
Q 2638 4750 3022 4454
Q 3406 4159 3406 3634
Q 3406 3213 3140 2930
Q 2875 2647 2388 2547
Q 2963 2466 3280 2130
Q 3597 1794 3597 1259
Q 3597 606 3158 257
Q 2719 -91 1894 -91
Q 1528 -91 1179 -12
Q 831 66 488 225
L 488 1131
L 838 1131
Q 869 681 1141 450
Q 1413 219 1906 219
Q 2384 219 2661 495
Q 2938 772 2938 1253
Q 2938 1803 2653 2086
Q 2369 2369 1819 2369
L 1522 2369
L 1522 2688
L 1678 2688
Q 2225 2688 2498 2914
Q 2772 3141 2772 3597
Q 2772 4006 2547 4223
Q 2322 4441 1900 4441
Q 1478 4441 1245 4241
Q 1013 4041 972 3647
L 622 3647
L 622 4469
z
" transform="scale(0.015625)"/>
       </defs>
       <use xlink:href="#DejaVuSerif-30"/>
       <use xlink:href="#DejaVuSerif-2e" transform="translate(63.623047 0)"/>
       <use xlink:href="#DejaVuSerif-33" transform="translate(95.410156 0)"/>
       <use xlink:href="#DejaVuSerif-32" transform="translate(159.033203 0)"/>
      </g>
     </g>
    </g>
    <g id="xtick_6">
     <g id="line2d_6">
      <g>
       <use xlink:href="#mefcca810e2" x="415.090937" y="484.51718" style="stroke: #000000; stroke-width: 0.9"/>
      </g>
     </g>
     <g id="text_6">
      <!-- 0.40 -->
      <g transform="translate(403.401484 500.495539) scale(0.105 -0.105)">
       <use xlink:href="#DejaVuSerif-30"/>
       <use xlink:href="#DejaVuSerif-2e" transform="translate(63.623047 0)"/>
       <use xlink:href="#DejaVuSerif-34" transform="translate(95.410156 0)"/>
       <use xlink:href="#DejaVuSerif-30" transform="translate(159.033203 0)"/>
      </g>
     </g>
    </g>
    <g id="xtick_7">
     <g id="line2d_7">
      <g>
       <use xlink:href="#mefcca810e2" x="486.280937" y="484.51718" style="stroke: #000000; stroke-width: 0.9"/>
      </g>
     </g>
     <g id="text_7">
      <!-- 0.48 -->
      <g transform="translate(474.591484 500.495539) scale(0.105 -0.105)">
       <use xlink:href="#DejaVuSerif-30"/>
       <use xlink:href="#DejaVuSerif-2e" transform="translate(63.623047 0)"/>
       <use xlink:href="#DejaVuSerif-34" transform="translate(95.410156 0)"/>
       <use xlink:href="#DejaVuSerif-38" transform="translate(159.033203 0)"/>
      </g>
     </g>
    </g>
    <g id="xtick_8">
     <g id="line2d_8">
      <g>
       <use xlink:href="#mefcca810e2" x="557.470937" y="484.51718" style="stroke: #000000; stroke-width: 0.9"/>
      </g>
     </g>
     <g id="text_8">
      <!-- 0.56 -->
      <g transform="translate(545.781484 500.495539) scale(0.105 -0.105)">
       <defs>
        <path id="DejaVuSerif-35" d="M 3219 4666
L 3219 4153
L 1081 4153
L 1081 2816
Q 1244 2928 1461 2984
Q 1678 3041 1947 3041
Q 2703 3041 3140 2622
Q 3578 2203 3578 1478
Q 3578 738 3136 323
Q 2694 -91 1894 -91
Q 1572 -91 1234 -12
Q 897 66 544 225
L 544 1131
L 897 1131
Q 925 688 1179 453
Q 1434 219 1894 219
Q 2388 219 2653 544
Q 2919 869 2919 1478
Q 2919 2084 2655 2407
Q 2391 2731 1894 2731
Q 1613 2731 1398 2631
Q 1184 2531 1019 2322
L 750 2322
L 750 4666
L 3219 4666
z
" transform="scale(0.015625)"/>
       </defs>
       <use xlink:href="#DejaVuSerif-30"/>
       <use xlink:href="#DejaVuSerif-2e" transform="translate(63.623047 0)"/>
       <use xlink:href="#DejaVuSerif-35" transform="translate(95.410156 0)"/>
       <use xlink:href="#DejaVuSerif-36" transform="translate(159.033203 0)"/>
      </g>
     </g>
    </g>
    <g id="xtick_9">
     <g id="line2d_9">
      <g>
       <use xlink:href="#mefcca810e2" x="628.660937" y="484.51718" style="stroke: #000000; stroke-width: 0.9"/>
      </g>
     </g>
     <g id="text_9">
      <!-- 0.64 -->
      <g transform="translate(616.971484 500.495539) scale(0.105 -0.105)">
       <use xlink:href="#DejaVuSerif-30"/>
       <use xlink:href="#DejaVuSerif-2e" transform="translate(63.623047 0)"/>
       <use xlink:href="#DejaVuSerif-36" transform="translate(95.410156 0)"/>
       <use xlink:href="#DejaVuSerif-34" transform="translate(159.033203 0)"/>
      </g>
     </g>
    </g>
    <g id="xtick_10">
     <g id="line2d_10">
      <g>
       <use xlink:href="#mefcca810e2" x="699.850937" y="484.51718" style="stroke: #000000; stroke-width: 0.9"/>
      </g>
     </g>
     <g id="text_10">
      <!-- 0.72 -->
      <g transform="translate(688.161484 500.495539) scale(0.105 -0.105)">
       <defs>
        <path id="DejaVuSerif-37" d="M 3609 4347
L 1784 0
L 1319 0
L 3059 4153
L 903 4153
L 903 3578
L 538 3578
L 538 4666
L 3609 4666
L 3609 4347
z
" transform="scale(0.015625)"/>
       </defs>
       <use xlink:href="#DejaVuSerif-30"/>
       <use xlink:href="#DejaVuSerif-2e" transform="translate(63.623047 0)"/>
       <use xlink:href="#DejaVuSerif-37" transform="translate(95.410156 0)"/>
       <use xlink:href="#DejaVuSerif-32" transform="translate(159.033203 0)"/>
      </g>
     </g>
    </g>
    <g id="xtick_11">
     <g id="line2d_11">
      <g>
       <use xlink:href="#mefcca810e2" x="771.040937" y="484.51718" style="stroke: #000000; stroke-width: 0.9"/>
      </g>
     </g>
     <g id="text_11">
      <!-- 0.80 -->
      <g transform="translate(759.351484 500.495539) scale(0.105 -0.105)">
       <use xlink:href="#DejaVuSerif-30"/>
       <use xlink:href="#DejaVuSerif-2e" transform="translate(63.623047 0)"/>
       <use xlink:href="#DejaVuSerif-38" transform="translate(95.410156 0)"/>
       <use xlink:href="#DejaVuSerif-30" transform="translate(159.033203 0)"/>
      </g>
     </g>
    </g>
    <g id="text_12">
     <!-- $CO_2$ loading, mol $CO_2$/mol MEA -->
     <g transform="translate(326.980937 515.039211) scale(0.11 -0.11)">
      <defs>
       <path id="DejaVuSerif-Italic-43" d="M 4300 1234
Q 3966 581 3414 245
Q 2863 -91 2119 -91
Q 1663 -91 1303 65
Q 944 222 700 525
Q 419 875 334 1320
Q 250 1766 359 2328
Q 572 3416 1330 4083
Q 2088 4750 3116 4750
Q 3497 4750 3908 4650
Q 4319 4550 4775 4347
L 4569 3272
L 4216 3272
Q 4213 3859 3919 4137
Q 3625 4416 2997 4416
Q 2250 4416 1762 3886
Q 1275 3356 1075 2328
Q 875 1303 1156 773
Q 1438 244 2184 244
Q 2706 244 3092 492
Q 3478 741 3725 1234
L 4300 1234
z
" transform="scale(0.015625)"/>
       <path id="DejaVuSerif-Italic-4f" d="M 2219 244
Q 2984 244 3478 770
Q 3972 1297 4172 2328
Q 4372 3363 4084 3889
Q 3797 4416 3031 4416
Q 2263 4416 1769 3889
Q 1275 3363 1075 2328
Q 875 1297 1162 770
Q 1450 244 2219 244
z
M 2153 -91
Q 1678 -91 1311 65
Q 944 222 700 525
Q 419 875 334 1319
Q 250 1763 359 2328
Q 469 2894 725 3339
Q 981 3784 1400 4134
Q 1766 4441 2191 4595
Q 2616 4750 3097 4750
Q 4113 4750 4608 4084
Q 5103 3419 4891 2328
Q 4781 1769 4522 1320
Q 4263 872 3847 525
Q 3481 219 3056 64
Q 2631 -91 2153 -91
z
" transform="scale(0.015625)"/>
       <path id="DejaVuSerif-20" transform="scale(0.015625)"/>
       <path id="DejaVuSerif-6c" d="M 1313 331
L 1856 331
L 1856 0
L 184 0
L 184 331
L 738 331
L 738 4531
L 184 4531
L 184 4863
L 1313 4863
L 1313 331
z
" transform="scale(0.015625)"/>
       <path id="DejaVuSerif-6f" d="M 1925 219
Q 2388 219 2623 584
Q 2859 950 2859 1663
Q 2859 2375 2623 2739
Q 2388 3103 1925 3103
Q 1463 3103 1227 2739
Q 991 2375 991 1663
Q 991 950 1228 584
Q 1466 219 1925 219
z
M 1925 -91
Q 1200 -91 759 389
Q 319 869 319 1663
Q 319 2456 758 2934
Q 1197 3413 1925 3413
Q 2653 3413 3092 2934
Q 3531 2456 3531 1663
Q 3531 869 3092 389
Q 2653 -91 1925 -91
z
" transform="scale(0.015625)"/>
       <path id="DejaVuSerif-61" d="M 2547 1044
L 2547 1747
L 1806 1747
Q 1378 1747 1168 1562
Q 959 1378 959 997
Q 959 650 1171 447
Q 1384 244 1747 244
Q 2106 244 2326 466
Q 2547 688 2547 1044
z
M 3122 2075
L 3122 331
L 3634 331
L 3634 0
L 2547 0
L 2547 359
Q 2356 128 2106 18
Q 1856 -91 1522 -91
Q 969 -91 644 203
Q 319 497 319 997
Q 319 1513 691 1797
Q 1063 2081 1741 2081
L 2547 2081
L 2547 2309
Q 2547 2688 2317 2895
Q 2088 3103 1672 3103
Q 1328 3103 1125 2947
Q 922 2791 872 2484
L 575 2484
L 575 3156
Q 875 3284 1158 3348
Q 1441 3413 1709 3413
Q 2400 3413 2761 3070
Q 3122 2728 3122 2075
z
" transform="scale(0.015625)"/>
       <path id="DejaVuSerif-64" d="M 3359 331
L 3909 331
L 3909 0
L 2784 0
L 2784 519
Q 2616 206 2355 57
Q 2094 -91 1709 -91
Q 1097 -91 708 395
Q 319 881 319 1663
Q 319 2444 706 2928
Q 1094 3413 1709 3413
Q 2094 3413 2355 3264
Q 2616 3116 2784 2803
L 2784 4531
L 2241 4531
L 2241 4863
L 3359 4863
L 3359 331
z
M 2784 1497
L 2784 1825
Q 2784 2422 2554 2737
Q 2325 3053 1888 3053
Q 1444 3053 1217 2703
Q 991 2353 991 1663
Q 991 975 1217 622
Q 1444 269 1888 269
Q 2325 269 2554 583
Q 2784 897 2784 1497
z
" transform="scale(0.015625)"/>
       <path id="DejaVuSerif-69" d="M 622 4353
Q 622 4497 726 4603
Q 831 4709 978 4709
Q 1122 4709 1226 4603
Q 1331 4497 1331 4353
Q 1331 4206 1228 4103
Q 1125 4000 978 4000
Q 831 4000 726 4103
Q 622 4206 622 4353
z
M 1356 331
L 1900 331
L 1900 0
L 231 0
L 231 331
L 781 331
L 781 2988
L 231 2988
L 231 3322
L 1356 3322
L 1356 331
z
" transform="scale(0.015625)"/>
       <path id="DejaVuSerif-6e" d="M 263 0
L 263 331
L 781 331
L 781 2988
L 231 2988
L 231 3322
L 1356 3322
L 1356 2731
Q 1516 3069 1770 3241
Q 2025 3413 2363 3413
Q 2913 3413 3172 3097
Q 3431 2781 3431 2113
L 3431 331
L 3944 331
L 3944 0
L 2356 0
L 2356 331
L 2853 331
L 2853 1931
Q 2853 2541 2703 2767
Q 2553 2994 2175 2994
Q 1775 2994 1565 2701
Q 1356 2409 1356 1850
L 1356 331
L 1856 331
L 1856 0
L 263 0
z
" transform="scale(0.015625)"/>
       <path id="DejaVuSerif-67" d="M 3359 2988
L 3359 72
Q 3359 -644 2965 -1033
Q 2572 -1422 1844 -1422
Q 1516 -1422 1216 -1362
Q 916 -1303 641 -1184
L 641 -488
L 941 -488
Q 997 -813 1206 -963
Q 1416 -1113 1806 -1113
Q 2313 -1113 2548 -827
Q 2784 -541 2784 72
L 2784 519
Q 2616 206 2355 57
Q 2094 -91 1709 -91
Q 1097 -91 708 395
Q 319 881 319 1663
Q 319 2444 706 2928
Q 1094 3413 1709 3413
Q 2094 3413 2355 3264
Q 2616 3116 2784 2803
L 2784 3322
L 3909 3322
L 3909 2988
L 3359 2988
z
M 2784 1825
Q 2784 2422 2554 2737
Q 2325 3053 1888 3053
Q 1444 3053 1217 2703
Q 991 2353 991 1663
Q 991 975 1217 622
Q 1444 269 1888 269
Q 2325 269 2554 583
Q 2784 897 2784 1497
L 2784 1825
z
" transform="scale(0.015625)"/>
       <path id="DejaVuSerif-2c" d="M 231 -622
Q 525 -406 662 -114
Q 800 178 800 594
L 800 709
L 1416 709
Q 1391 175 1164 -208
Q 938 -591 481 -872
L 231 -622
z
" transform="scale(0.015625)"/>
       <path id="DejaVuSerif-6d" d="M 3316 2675
Q 3481 3041 3739 3227
Q 3997 3413 4341 3413
Q 4863 3413 5119 3089
Q 5375 2766 5375 2113
L 5375 331
L 5894 331
L 5894 0
L 4300 0
L 4300 331
L 4800 331
L 4800 2047
Q 4800 2556 4650 2772
Q 4500 2988 4153 2988
Q 3769 2988 3567 2697
Q 3366 2406 3366 1850
L 3366 331
L 3866 331
L 3866 0
L 2291 0
L 2291 331
L 2791 331
L 2791 2069
Q 2791 2566 2641 2777
Q 2491 2988 2144 2988
Q 1759 2988 1557 2697
Q 1356 2406 1356 1850
L 1356 331
L 1856 331
L 1856 0
L 263 0
L 263 331
L 781 331
L 781 2994
L 231 2994
L 231 3322
L 1356 3322
L 1356 2731
Q 1516 3063 1762 3238
Q 2009 3413 2322 3413
Q 2709 3413 2968 3220
Q 3228 3028 3316 2675
z
" transform="scale(0.015625)"/>
       <path id="DejaVuSerif-2f" d="M 1656 4666
L 2156 4666
L 500 -594
L 0 -594
L 1656 4666
z
" transform="scale(0.015625)"/>
       <path id="DejaVuSerif-4d" d="M 353 0
L 353 331
L 947 331
L 947 4331
L 319 4331
L 319 4666
L 1678 4666
L 3316 1344
L 4953 4666
L 6228 4666
L 6228 4331
L 5606 4331
L 5606 331
L 6203 331
L 6203 0
L 4378 0
L 4378 331
L 4972 331
L 4972 3938
L 3372 684
L 2931 684
L 1331 3938
L 1331 331
L 1925 331
L 1925 0
L 353 0
z
" transform="scale(0.015625)"/>
       <path id="DejaVuSerif-45" d="M 353 0
L 353 331
L 947 331
L 947 4331
L 353 4331
L 353 4666
L 4109 4666
L 4109 3628
L 3725 3628
L 3725 4281
L 1581 4281
L 1581 2719
L 3109 2719
L 3109 3303
L 3494 3303
L 3494 1753
L 3109 1753
L 3109 2338
L 1581 2338
L 1581 384
L 3775 384
L 3775 1038
L 4159 1038
L 4159 0
L 353 0
z
" transform="scale(0.015625)"/>
       <path id="DejaVuSerif-41" d="M 1281 1691
L 2994 1691
L 2138 3909
L 1281 1691
z
M -38 0
L -38 331
L 372 331
L 2034 4666
L 2559 4666
L 4225 331
L 4684 331
L 4684 0
L 2988 0
L 2988 331
L 3506 331
L 3116 1356
L 1153 1356
L 763 331
L 1275 331
L 1275 0
L -38 0
z
" transform="scale(0.015625)"/>
      </defs>
      <use xlink:href="#DejaVuSerif-Italic-43" transform="translate(0 0.015625)"/>
      <use xlink:href="#DejaVuSerif-Italic-4f" transform="translate(76.513672 0.015625)"/>
      <use xlink:href="#DejaVuSerif-32" transform="translate(158.496094 -15.55625) scale(0.7)"/>
      <use xlink:href="#DejaVuSerif-20" transform="translate(205.627539 0.015625)"/>
      <use xlink:href="#DejaVuSerif-6c" transform="translate(237.414648 0.015625)"/>
      <use xlink:href="#DejaVuSerif-6f" transform="translate(269.39707 0.015625)"/>
      <use xlink:href="#DejaVuSerif-61" transform="translate(329.602148 0.015625)"/>
      <use xlink:href="#DejaVuSerif-64" transform="translate(389.221289 0.015625)"/>
      <use xlink:href="#DejaVuSerif-69" transform="translate(453.234961 0.015625)"/>
      <use xlink:href="#DejaVuSerif-6e" transform="translate(485.217383 0.015625)"/>
      <use xlink:href="#DejaVuSerif-67" transform="translate(549.62168 0.015625)"/>
      <use xlink:href="#DejaVuSerif-2c" transform="translate(613.635352 0.015625)"/>
      <use xlink:href="#DejaVuSerif-20" transform="translate(645.422461 0.015625)"/>
      <use xlink:href="#DejaVuSerif-6d" transform="translate(677.20957 0.015625)"/>
      <use xlink:href="#DejaVuSerif-6f" transform="translate(772.033789 0.015625)"/>
      <use xlink:href="#DejaVuSerif-6c" transform="translate(832.238867 0.015625)"/>
      <use xlink:href="#DejaVuSerif-20" transform="translate(864.221289 0.015625)"/>
      <use xlink:href="#DejaVuSerif-Italic-43" transform="translate(896.008398 0.015625)"/>
      <use xlink:href="#DejaVuSerif-Italic-4f" transform="translate(972.52207 0.015625)"/>
      <use xlink:href="#DejaVuSerif-32" transform="translate(1054.504492 -15.55625) scale(0.7)"/>
      <use xlink:href="#DejaVuSerif-2f" transform="translate(1101.635937 0.015625)"/>
      <use xlink:href="#DejaVuSerif-6d" transform="translate(1135.327344 0.015625)"/>
      <use xlink:href="#DejaVuSerif-6f" transform="translate(1230.151562 0.015625)"/>
      <use xlink:href="#DejaVuSerif-6c" transform="translate(1290.356641 0.015625)"/>
      <use xlink:href="#DejaVuSerif-20" transform="translate(1322.339062 0.015625)"/>
      <use xlink:href="#DejaVuSerif-4d" transform="translate(1354.126172 0.015625)"/>
      <use xlink:href="#DejaVuSerif-45" transform="translate(1456.51875 0.015625)"/>
      <use xlink:href="#DejaVuSerif-41" transform="translate(1529.516797 0.015625)"/>
     </g>
    </g>
   </g>
   <g id="matplotlib.axis_2">
    <g id="ytick_1">
     <g id="line2d_12">
      <defs>
       <path id="m9c6b513aaf" d="M 0 0
L -4.5 0
" style="stroke: #000000; stroke-width: 0.9"/>
      </defs>
      <g>
       <use xlink:href="#m9c6b513aaf" x="59.140938" y="484.51718" style="stroke: #000000; stroke-width: 0.9"/>
      </g>
     </g>
     <g id="text_13">
      <!-- $\mathdefault{10^{-14}}$ -->
      <g transform="translate(21.845938 488.506359) scale(0.105 -0.105)">
       <defs>
        <path id="DejaVuSerif-2212" d="M 678 2259
L 4684 2259
L 4684 1753
L 678 1753
L 678 2259
z
" transform="scale(0.015625)"/>
       </defs>
       <use xlink:href="#DejaVuSerif-31" transform="translate(0 0.7125)"/>
       <use xlink:href="#DejaVuSerif-30" transform="translate(63.623047 0.7125)"/>
       <use xlink:href="#DejaVuSerif-2212" transform="translate(128.154453 37.046875) scale(0.7)"/>
       <use xlink:href="#DejaVuSerif-31" transform="translate(186.806797 37.046875) scale(0.7)"/>
       <use xlink:href="#DejaVuSerif-34" transform="translate(231.34293 37.046875) scale(0.7)"/>
      </g>
     </g>
    </g>
    <g id="ytick_2">
     <g id="line2d_13">
      <g>
       <use xlink:href="#m9c6b513aaf" x="59.140938" y="450.708037" style="stroke: #000000; stroke-width: 0.9"/>
      </g>
     </g>
     <g id="text_14">
      <!-- $\mathdefault{10^{-13}}$ -->
      <g transform="translate(21.845938 454.697217) scale(0.105 -0.105)">
       <use xlink:href="#DejaVuSerif-31" transform="translate(0 0.7125)"/>
       <use xlink:href="#DejaVuSerif-30" transform="translate(63.623047 0.7125)"/>
       <use xlink:href="#DejaVuSerif-2212" transform="translate(128.154453 37.046875) scale(0.7)"/>
       <use xlink:href="#DejaVuSerif-31" transform="translate(186.806797 37.046875) scale(0.7)"/>
       <use xlink:href="#DejaVuSerif-33" transform="translate(231.34293 37.046875) scale(0.7)"/>
      </g>
     </g>
    </g>
    <g id="ytick_3">
     <g id="line2d_14">
      <g>
       <use xlink:href="#m9c6b513aaf" x="59.140938" y="416.898894" style="stroke: #000000; stroke-width: 0.9"/>
      </g>
     </g>
     <g id="text_15">
      <!-- $\mathdefault{10^{-12}}$ -->
      <g transform="translate(21.845938 420.888074) scale(0.105 -0.105)">
       <use xlink:href="#DejaVuSerif-31" transform="translate(0 0.7125)"/>
       <use xlink:href="#DejaVuSerif-30" transform="translate(63.623047 0.7125)"/>
       <use xlink:href="#DejaVuSerif-2212" transform="translate(128.154453 37.046875) scale(0.7)"/>
       <use xlink:href="#DejaVuSerif-31" transform="translate(186.806797 37.046875) scale(0.7)"/>
       <use xlink:href="#DejaVuSerif-32" transform="translate(231.34293 37.046875) scale(0.7)"/>
      </g>
     </g>
    </g>
    <g id="ytick_4">
     <g id="line2d_15">
      <g>
       <use xlink:href="#m9c6b513aaf" x="59.140938" y="383.089751" style="stroke: #000000; stroke-width: 0.9"/>
      </g>
     </g>
     <g id="text_16">
      <!-- $\mathdefault{10^{-11}}$ -->
      <g transform="translate(21.845938 387.078931) scale(0.105 -0.105)">
       <use xlink:href="#DejaVuSerif-31" transform="translate(0 0.7125)"/>
       <use xlink:href="#DejaVuSerif-30" transform="translate(63.623047 0.7125)"/>
       <use xlink:href="#DejaVuSerif-2212" transform="translate(128.154453 37.046875) scale(0.7)"/>
       <use xlink:href="#DejaVuSerif-31" transform="translate(186.806797 37.046875) scale(0.7)"/>
       <use xlink:href="#DejaVuSerif-31" transform="translate(231.34293 37.046875) scale(0.7)"/>
      </g>
     </g>
    </g>
    <g id="ytick_5">
     <g id="line2d_16">
      <g>
       <use xlink:href="#m9c6b513aaf" x="59.140938" y="349.280608" style="stroke: #000000; stroke-width: 0.9"/>
      </g>
     </g>
     <g id="text_17">
      <!-- $\mathdefault{10^{-10}}$ -->
      <g transform="translate(21.845938 353.269788) scale(0.105 -0.105)">
       <use xlink:href="#DejaVuSerif-31" transform="translate(0 0.7125)"/>
       <use xlink:href="#DejaVuSerif-30" transform="translate(63.623047 0.7125)"/>
       <use xlink:href="#DejaVuSerif-2212" transform="translate(128.154453 37.046875) scale(0.7)"/>
       <use xlink:href="#DejaVuSerif-31" transform="translate(186.806797 37.046875) scale(0.7)"/>
       <use xlink:href="#DejaVuSerif-30" transform="translate(231.34293 37.046875) scale(0.7)"/>
      </g>
     </g>
    </g>
    <g id="ytick_6">
     <g id="line2d_17">
      <g>
       <use xlink:href="#m9c6b513aaf" x="59.140938" y="315.471465" style="stroke: #000000; stroke-width: 0.9"/>
      </g>
     </g>
     <g id="text_18">
      <!-- $\mathdefault{10^{-9}}$ -->
      <g transform="translate(26.570938 319.460645) scale(0.105 -0.105)">
       <defs>
        <path id="DejaVuSerif-39" d="M 2994 2091
Q 2784 1856 2512 1740
Q 2241 1625 1900 1625
Q 1206 1625 804 2044
Q 403 2463 403 3188
Q 403 3897 839 4323
Q 1275 4750 2003 4750
Q 2794 4750 3217 4161
Q 3641 3572 3641 2478
Q 3641 1253 3137 581
Q 2634 -91 1722 -91
Q 1475 -91 1203 -44
Q 931 3 647 97
L 647 872
L 997 872
Q 1038 556 1241 387
Q 1444 219 1784 219
Q 2391 219 2687 676
Q 2984 1134 2994 2091
z
M 1978 4441
Q 1534 4441 1298 4117
Q 1063 3794 1063 3188
Q 1063 2581 1298 2256
Q 1534 1931 1978 1931
Q 2422 1931 2658 2245
Q 2894 2559 2894 3150
Q 2894 3772 2656 4106
Q 2419 4441 1978 4441
z
" transform="scale(0.015625)"/>
       </defs>
       <use xlink:href="#DejaVuSerif-31" transform="translate(0 0.7125)"/>
       <use xlink:href="#DejaVuSerif-30" transform="translate(63.623047 0.7125)"/>
       <use xlink:href="#DejaVuSerif-2212" transform="translate(128.154453 37.046875) scale(0.7)"/>
       <use xlink:href="#DejaVuSerif-39" transform="translate(186.806797 37.046875) scale(0.7)"/>
      </g>
     </g>
    </g>
    <g id="ytick_7">
     <g id="line2d_18">
      <g>
       <use xlink:href="#m9c6b513aaf" x="59.140938" y="281.662323" style="stroke: #000000; stroke-width: 0.9"/>
      </g>
     </g>
     <g id="text_19">
      <!-- $\mathdefault{10^{-8}}$ -->
      <g transform="translate(26.570938 285.651502) scale(0.105 -0.105)">
       <use xlink:href="#DejaVuSerif-31" transform="translate(0 0.7125)"/>
       <use xlink:href="#DejaVuSerif-30" transform="translate(63.623047 0.7125)"/>
       <use xlink:href="#DejaVuSerif-2212" transform="translate(128.154453 37.046875) scale(0.7)"/>
       <use xlink:href="#DejaVuSerif-38" transform="translate(186.806797 37.046875) scale(0.7)"/>
      </g>
     </g>
    </g>
    <g id="ytick_8">
     <g id="line2d_19">
      <g>
       <use xlink:href="#m9c6b513aaf" x="59.140938" y="247.85318" style="stroke: #000000; stroke-width: 0.9"/>
      </g>
     </g>
     <g id="text_20">
      <!-- $\mathdefault{10^{-7}}$ -->
      <g transform="translate(26.570938 251.842359) scale(0.105 -0.105)">
       <use xlink:href="#DejaVuSerif-31" transform="translate(0 0.63125)"/>
       <use xlink:href="#DejaVuSerif-30" transform="translate(63.623047 0.63125)"/>
       <use xlink:href="#DejaVuSerif-2212" transform="translate(128.154453 36.965625) scale(0.7)"/>
       <use xlink:href="#DejaVuSerif-37" transform="translate(186.806797 36.965625) scale(0.7)"/>
      </g>
     </g>
    </g>
    <g id="ytick_9">
     <g id="line2d_20">
      <g>
       <use xlink:href="#m9c6b513aaf" x="59.140938" y="214.044037" style="stroke: #000000; stroke-width: 0.9"/>
      </g>
     </g>
     <g id="text_21">
      <!-- $\mathdefault{10^{-6}}$ -->
      <g transform="translate(26.570938 218.033217) scale(0.105 -0.105)">
       <use xlink:href="#DejaVuSerif-31" transform="translate(0 0.7125)"/>
       <use xlink:href="#DejaVuSerif-30" transform="translate(63.623047 0.7125)"/>
       <use xlink:href="#DejaVuSerif-2212" transform="translate(128.154453 37.046875) scale(0.7)"/>
       <use xlink:href="#DejaVuSerif-36" transform="translate(186.806797 37.046875) scale(0.7)"/>
      </g>
     </g>
    </g>
    <g id="ytick_10">
     <g id="line2d_21">
      <g>
       <use xlink:href="#m9c6b513aaf" x="59.140938" y="180.234894" style="stroke: #000000; stroke-width: 0.9"/>
      </g>
     </g>
     <g id="text_22">
      <!-- $\mathdefault{10^{-5}}$ -->
      <g transform="translate(26.570938 184.224074) scale(0.105 -0.105)">
       <use xlink:href="#DejaVuSerif-31" transform="translate(0 0.63125)"/>
       <use xlink:href="#DejaVuSerif-30" transform="translate(63.623047 0.63125)"/>
       <use xlink:href="#DejaVuSerif-2212" transform="translate(128.154453 36.965625) scale(0.7)"/>
       <use xlink:href="#DejaVuSerif-35" transform="translate(186.806797 36.965625) scale(0.7)"/>
      </g>
     </g>
    </g>
    <g id="ytick_11">
     <g id="line2d_22">
      <g>
       <use xlink:href="#m9c6b513aaf" x="59.140938" y="146.425751" style="stroke: #000000; stroke-width: 0.9"/>
      </g>
     </g>
     <g id="text_23">
      <!-- $\mathdefault{10^{-4}}$ -->
      <g transform="translate(26.570938 150.414931) scale(0.105 -0.105)">
       <use xlink:href="#DejaVuSerif-31" transform="translate(0 0.7125)"/>
       <use xlink:href="#DejaVuSerif-30" transform="translate(63.623047 0.7125)"/>
       <use xlink:href="#DejaVuSerif-2212" transform="translate(128.154453 37.046875) scale(0.7)"/>
       <use xlink:href="#DejaVuSerif-34" transform="translate(186.806797 37.046875) scale(0.7)"/>
      </g>
     </g>
    </g>
    <g id="ytick_12">
     <g id="line2d_23">
      <g>
       <use xlink:href="#m9c6b513aaf" x="59.140938" y="112.616608" style="stroke: #000000; stroke-width: 0.9"/>
      </g>
     </g>
     <g id="text_24">
      <!-- $\mathdefault{10^{-3}}$ -->
      <g transform="translate(26.570938 116.605788) scale(0.105 -0.105)">
       <use xlink:href="#DejaVuSerif-31" transform="translate(0 0.7125)"/>
       <use xlink:href="#DejaVuSerif-30" transform="translate(63.623047 0.7125)"/>
       <use xlink:href="#DejaVuSerif-2212" transform="translate(128.154453 37.046875) scale(0.7)"/>
       <use xlink:href="#DejaVuSerif-33" transform="translate(186.806797 37.046875) scale(0.7)"/>
      </g>
     </g>
    </g>
    <g id="ytick_13">
     <g id="line2d_24">
      <g>
       <use xlink:href="#m9c6b513aaf" x="59.140938" y="78.807465" style="stroke: #000000; stroke-width: 0.9"/>
      </g>
     </g>
     <g id="text_25">
      <!-- $\mathdefault{10^{-2}}$ -->
      <g transform="translate(26.570938 82.796645) scale(0.105 -0.105)">
       <use xlink:href="#DejaVuSerif-31" transform="translate(0 0.7125)"/>
       <use xlink:href="#DejaVuSerif-30" transform="translate(63.623047 0.7125)"/>
       <use xlink:href="#DejaVuSerif-2212" transform="translate(128.154453 37.046875) scale(0.7)"/>
       <use xlink:href="#DejaVuSerif-32" transform="translate(186.806797 37.046875) scale(0.7)"/>
      </g>
     </g>
    </g>
    <g id="ytick_14">
     <g id="line2d_25">
      <g>
       <use xlink:href="#m9c6b513aaf" x="59.140938" y="44.998323" style="stroke: #000000; stroke-width: 0.9"/>
      </g>
     </g>
     <g id="text_26">
      <!-- $\mathdefault{10^{-1}}$ -->
      <g transform="translate(26.570938 48.987502) scale(0.105 -0.105)">
       <use xlink:href="#DejaVuSerif-31" transform="translate(0 0.7125)"/>
       <use xlink:href="#DejaVuSerif-30" transform="translate(63.623047 0.7125)"/>
       <use xlink:href="#DejaVuSerif-2212" transform="translate(128.154453 37.046875) scale(0.7)"/>
       <use xlink:href="#DejaVuSerif-31" transform="translate(186.806797 37.046875) scale(0.7)"/>
      </g>
     </g>
    </g>
    <g id="ytick_15">
     <g id="line2d_26">
      <g>
       <use xlink:href="#m9c6b513aaf" x="59.140938" y="11.18918" style="stroke: #000000; stroke-width: 0.9"/>
      </g>
     </g>
     <g id="text_27">
      <!-- $\mathdefault{10^{0}}$ -->
      <g transform="translate(32.660938 15.178359) scale(0.105 -0.105)">
       <use xlink:href="#DejaVuSerif-31" transform="translate(0 0.7125)"/>
       <use xlink:href="#DejaVuSerif-30" transform="translate(63.623047 0.7125)"/>
       <use xlink:href="#DejaVuSerif-30" transform="translate(128.154453 37.046875) scale(0.7)"/>
      </g>
     </g>
    </g>
    <g id="text_28">
     <!-- True-species mole fraction -->
     <g transform="translate(15.558281 322.206305) rotate(-90) scale(0.11 -0.11)">
      <defs>
       <path id="DejaVuSerif-54" d="M 1222 0
L 1222 331
L 1819 331
L 1819 4294
L 447 4294
L 447 3566
L 63 3566
L 63 4666
L 4206 4666
L 4206 3566
L 3822 3566
L 3822 4294
L 2450 4294
L 2450 331
L 3047 331
L 3047 0
L 1222 0
z
" transform="scale(0.015625)"/>
       <path id="DejaVuSerif-72" d="M 3059 3328
L 3059 2497
L 2728 2497
Q 2713 2744 2591 2866
Q 2469 2988 2234 2988
Q 1809 2988 1582 2694
Q 1356 2400 1356 1850
L 1356 331
L 2022 331
L 2022 0
L 263 0
L 263 331
L 781 331
L 781 2994
L 231 2994
L 231 3322
L 1356 3322
L 1356 2731
Q 1525 3078 1790 3245
Q 2056 3413 2438 3413
Q 2578 3413 2733 3391
Q 2888 3369 3059 3328
z
" transform="scale(0.015625)"/>
       <path id="DejaVuSerif-75" d="M 2266 3322
L 3341 3322
L 3341 331
L 3884 331
L 3884 0
L 2766 0
L 2766 588
Q 2606 256 2353 82
Q 2100 -91 1766 -91
Q 1213 -91 952 223
Q 691 538 691 1209
L 691 2988
L 172 2988
L 172 3322
L 1269 3322
L 1269 1388
Q 1269 781 1417 556
Q 1566 331 1947 331
Q 2347 331 2556 625
Q 2766 919 2766 1478
L 2766 2988
L 2266 2988
L 2266 3322
z
" transform="scale(0.015625)"/>
       <path id="DejaVuSerif-65" d="M 3469 1600
L 991 1600
L 991 1575
Q 991 903 1244 561
Q 1497 219 1991 219
Q 2369 219 2611 417
Q 2853 616 2950 1006
L 3413 1006
Q 3275 459 2904 184
Q 2534 -91 1931 -91
Q 1203 -91 761 389
Q 319 869 319 1663
Q 319 2450 753 2931
Q 1188 3413 1894 3413
Q 2647 3413 3050 2948
Q 3453 2484 3469 1600
z
M 2791 1931
Q 2772 2513 2545 2808
Q 2319 3103 1894 3103
Q 1497 3103 1269 2806
Q 1041 2509 991 1931
L 2791 1931
z
" transform="scale(0.015625)"/>
       <path id="DejaVuSerif-2d" d="M 281 1959
L 1881 1959
L 1881 1472
L 281 1472
L 281 1959
z
" transform="scale(0.015625)"/>
       <path id="DejaVuSerif-73" d="M 359 184
L 359 959
L 691 959
Q 703 588 923 403
Q 1144 219 1575 219
Q 1963 219 2166 364
Q 2369 509 2369 788
Q 2369 1006 2220 1140
Q 2072 1275 1594 1428
L 1178 1569
Q 750 1706 558 1912
Q 366 2119 366 2438
Q 366 2894 700 3153
Q 1034 3413 1625 3413
Q 1888 3413 2178 3344
Q 2469 3275 2778 3144
L 2778 2419
L 2447 2419
Q 2434 2741 2221 2922
Q 2009 3103 1644 3103
Q 1281 3103 1095 2975
Q 909 2847 909 2591
Q 909 2381 1050 2254
Q 1191 2128 1613 1997
L 2069 1856
Q 2541 1709 2748 1489
Q 2956 1269 2956 922
Q 2956 450 2595 179
Q 2234 -91 1600 -91
Q 1278 -91 972 -22
Q 666 47 359 184
z
" transform="scale(0.015625)"/>
       <path id="DejaVuSerif-70" d="M 1313 1825
L 1313 1497
Q 1313 897 1542 583
Q 1772 269 2209 269
Q 2650 269 2876 622
Q 3103 975 3103 1663
Q 3103 2353 2876 2703
Q 2650 3053 2209 3053
Q 1772 3053 1542 2737
Q 1313 2422 1313 1825
z
M 738 2988
L 184 2988
L 184 3322
L 1313 3322
L 1313 2803
Q 1481 3116 1742 3264
Q 2003 3413 2388 3413
Q 3000 3413 3387 2928
Q 3775 2444 3775 1663
Q 3775 881 3387 395
Q 3000 -91 2388 -91
Q 2003 -91 1742 57
Q 1481 206 1313 519
L 1313 -997
L 1856 -997
L 1856 -1331
L 184 -1331
L 184 -997
L 738 -997
L 738 2988
z
" transform="scale(0.015625)"/>
       <path id="DejaVuSerif-63" d="M 3291 997
Q 3169 466 2822 187
Q 2475 -91 1925 -91
Q 1200 -91 759 389
Q 319 869 319 1663
Q 319 2459 759 2936
Q 1200 3413 1925 3413
Q 2241 3413 2553 3339
Q 2866 3266 3181 3116
L 3181 2266
L 2847 2266
Q 2781 2703 2561 2903
Q 2341 3103 1931 3103
Q 1466 3103 1228 2742
Q 991 2381 991 1663
Q 991 944 1227 581
Q 1463 219 1931 219
Q 2303 219 2525 412
Q 2747 606 2828 997
L 3291 997
z
" transform="scale(0.015625)"/>
       <path id="DejaVuSerif-66" d="M 2753 4078
L 2450 4078
Q 2447 4313 2317 4434
Q 2188 4556 1941 4556
Q 1619 4556 1487 4379
Q 1356 4203 1356 3750
L 1356 3322
L 2284 3322
L 2284 2988
L 1356 2988
L 1356 331
L 2094 331
L 2094 0
L 231 0
L 231 331
L 781 331
L 781 2988
L 231 2988
L 231 3322
L 781 3322
L 781 3738
Q 781 4294 1070 4578
Q 1359 4863 1919 4863
Q 2128 4863 2337 4825
Q 2547 4788 2753 4709
L 2753 4078
z
" transform="scale(0.015625)"/>
       <path id="DejaVuSerif-74" d="M 691 2988
L 184 2988
L 184 3322
L 691 3322
L 691 4353
L 1269 4353
L 1269 3322
L 2350 3322
L 2350 2988
L 1269 2988
L 1269 878
Q 1269 456 1350 337
Q 1431 219 1650 219
Q 1875 219 1978 351
Q 2081 484 2088 781
L 2522 781
Q 2497 328 2275 118
Q 2053 -91 1600 -91
Q 1103 -91 897 129
Q 691 350 691 878
L 691 2988
z
" transform="scale(0.015625)"/>
      </defs>
      <use xlink:href="#DejaVuSerif-54"/>
      <use xlink:href="#DejaVuSerif-72" transform="translate(66.699219 0)"/>
      <use xlink:href="#DejaVuSerif-75" transform="translate(114.501953 0)"/>
      <use xlink:href="#DejaVuSerif-65" transform="translate(178.90625 0)"/>
      <use xlink:href="#DejaVuSerif-2d" transform="translate(238.085938 0)"/>
      <use xlink:href="#DejaVuSerif-73" transform="translate(271.875 0)"/>
      <use xlink:href="#DejaVuSerif-70" transform="translate(323.193359 0)"/>
      <use xlink:href="#DejaVuSerif-65" transform="translate(387.207031 0)"/>
      <use xlink:href="#DejaVuSerif-63" transform="translate(446.386719 0)"/>
      <use xlink:href="#DejaVuSerif-69" transform="translate(502.392578 0)"/>
      <use xlink:href="#DejaVuSerif-65" transform="translate(534.375 0)"/>
      <use xlink:href="#DejaVuSerif-73" transform="translate(593.554688 0)"/>
      <use xlink:href="#DejaVuSerif-20" transform="translate(644.873047 0)"/>
      <use xlink:href="#DejaVuSerif-6d" transform="translate(676.660156 0)"/>
      <use xlink:href="#DejaVuSerif-6f" transform="translate(771.484375 0)"/>
      <use xlink:href="#DejaVuSerif-6c" transform="translate(831.689453 0)"/>
      <use xlink:href="#DejaVuSerif-65" transform="translate(863.671875 0)"/>
      <use xlink:href="#DejaVuSerif-20" transform="translate(922.851562 0)"/>
      <use xlink:href="#DejaVuSerif-66" transform="translate(954.638672 0)"/>
      <use xlink:href="#DejaVuSerif-72" transform="translate(991.650391 0)"/>
      <use xlink:href="#DejaVuSerif-61" transform="translate(1039.453125 0)"/>
      <use xlink:href="#DejaVuSerif-63" transform="translate(1099.072266 0)"/>
      <use xlink:href="#DejaVuSerif-74" transform="translate(1155.078125 0)"/>
      <use xlink:href="#DejaVuSerif-69" transform="translate(1195.263672 0)"/>
      <use xlink:href="#DejaVuSerif-6f" transform="translate(1227.246094 0)"/>
      <use xlink:href="#DejaVuSerif-6e" transform="translate(1287.451172 0)"/>
     </g>
    </g>
   </g>
   <g id="line2d_27">
    <path d="M 59.764012 525.769211
L 63.590313 405.711161
L 68.039687 386.698082
L 72.489063 374.78194
L 76.938438 366.096695
L 81.387812 359.249327
L 85.837187 353.582507
L 90.286563 348.735779
L 94.735938 344.490801
L 99.185312 340.705557
L 103.634687 337.282582
L 108.084062 334.152133
L 112.533437 331.2626
L 116.982812 328.574724
L 121.432187 326.05795
L 125.881562 323.688024
L 134.780312 319.313964
L 143.679062 315.333821
L 152.577812 311.664359
L 161.476562 308.244848
L 170.375312 305.029511
L 183.723437 300.513809
L 197.071562 296.288508
L 210.419687 292.286481
L 228.217187 287.210007
L 250.464062 281.151709
L 281.609687 272.954915
L 326.103437 261.242613
L 348.350312 255.133872
L 366.147812 250.004264
L 379.495937 245.958805
L 392.844062 241.693078
L 406.192187 237.15096
L 415.090937 233.935729
L 423.989687 230.542701
L 432.888437 226.94384
L 441.787187 223.107589
L 450.685937 218.999694
L 459.584687 214.585655
L 468.483437 209.836111
L 477.382187 204.736793
L 486.280937 199.303642
L 495.179687 193.59951
L 521.875937 176.187828
L 530.774687 170.767881
L 539.673437 165.690795
L 548.572187 160.974686
L 557.470937 156.60705
L 566.369687 152.559937
L 575.268437 148.80002
L 584.167187 145.294093
L 593.065937 142.011601
L 601.964687 138.925522
L 610.863437 136.012436
L 624.211562 131.92402
L 637.559687 128.124375
L 650.907812 124.569316
L 664.255937 121.223811
L 682.053437 117.041674
L 699.850937 113.131718
L 717.648437 109.45557
L 735.445937 105.984569
L 757.692812 101.90249
L 771.040937 99.57871
L 771.040937 99.57871
" clip-path="url(#pad9d1d6c41)" style="fill: none; stroke-dasharray: 8.14,3.52; stroke-dashoffset: 0; stroke: #16805a; stroke-width: 2.2"/>
   </g>
   <g id="line2d_28">
    <defs>
     <path id="md2cd7a79b4" d="M 0 3.4
C 0.901691 3.4 1.766572 3.041755 2.404163 2.404163
C 3.041755 1.766572 3.4 0.901691 3.4 0
C 3.4 -0.901691 3.041755 -1.766572 2.404163 -2.404163
C 1.766572 -3.041755 0.901691 -3.4 0 -3.4
C -0.901691 -3.4 -1.766572 -3.041755 -2.404163 -2.404163
C -3.041755 -1.766572 -3.4 -0.901691 -3.4 0
C -3.4 0.901691 -3.041755 1.766572 -2.404163 2.404163
C -1.766572 3.041755 -0.901691 3.4 0 3.4
z
"/>
    </defs>
    <g clip-path="url(#pad9d1d6c41)">
     <use xlink:href="#md2cd7a79b4" x="753.243437" y="122.794174" style="fill: #16805a; fill-opacity: 0.78"/>
     <use xlink:href="#md2cd7a79b4" x="885.834812" y="90.209334" style="fill: #16805a; fill-opacity: 0.78"/>
     <use xlink:href="#md2cd7a79b4" x="925.879187" y="84.90853" style="fill: #16805a; fill-opacity: 0.78"/>
     <use xlink:href="#md2cd7a79b4" x="940.117187" y="103.986064" style="fill: #16805a; fill-opacity: 0.78"/>
    </g>
   </g>
   <g id="line2d_29">
    <path d="M 59.140938 43.377028
L 76.938438 43.915557
L 121.432187 45.51443
L 165.925937 47.317453
L 205.970312 49.153136
L 241.565312 51.000147
L 272.710937 52.82797
L 299.407187 54.594028
L 326.103437 56.594222
L 348.350312 58.488453
L 366.147812 60.191844
L 383.945312 62.104237
L 401.742812 64.278737
L 415.090937 66.12444
L 428.439062 68.198235
L 441.787187 70.550453
L 450.685937 72.302543
L 459.584687 74.223713
L 468.483437 76.330894
L 477.382187 78.634186
L 486.280937 81.129182
L 499.629062 85.16269
L 526.325312 93.440943
L 539.673437 97.235965
L 548.572187 99.567588
L 561.920312 102.773213
L 575.268437 105.666761
L 588.616562 108.298783
L 601.964687 110.715954
L 619.762187 113.670938
L 637.559687 116.384487
L 659.806562 119.516623
L 682.053437 122.428274
L 708.749687 125.702632
L 739.895312 129.292422
L 771.040937 132.686443
L 771.040937 132.686443
" clip-path="url(#pad9d1d6c41)" style="fill: none; stroke-dasharray: 8.14,3.52; stroke-dashoffset: 0; stroke: #1f5aa6; stroke-width: 2.2"/>
   </g>
   <g id="line2d_30">
    <defs>
     <path id="m76ae2e8922" d="M 0 3.4
C 0.901691 3.4 1.766572 3.041755 2.404163 2.404163
C 3.041755 1.766572 3.4 0.901691 3.4 0
C 3.4 -0.901691 3.041755 -1.766572 2.404163 -2.404163
C 1.766572 -3.041755 0.901691 -3.4 0 -3.4
C -0.901691 -3.4 -1.766572 -3.041755 -2.404163 -2.404163
C -3.041755 -1.766572 -3.4 -0.901691 -3.4 0
C -3.4 0.901691 -3.041755 1.766572 -2.404163 2.404163
C -1.766572 3.041755 -0.901691 3.4 0 3.4
z
"/>
    </defs>
    <g clip-path="url(#pad9d1d6c41)">
     <use xlink:href="#m76ae2e8922" x="153.467687" y="46.302642" style="fill: #1f5aa6; fill-opacity: 0.78"/>
     <use xlink:href="#m76ae2e8922" x="157.027187" y="44.707558" style="fill: #1f5aa6; fill-opacity: 0.78"/>
     <use xlink:href="#m76ae2e8922" x="173.044937" y="47.093844" style="fill: #1f5aa6; fill-opacity: 0.78"/>
     <use xlink:href="#m76ae2e8922" x="192.622187" y="47.96602" style="fill: #1f5aa6; fill-opacity: 0.78"/>
     <use xlink:href="#m76ae2e8922" x="213.089312" y="48.874161" style="fill: #1f5aa6; fill-opacity: 0.78"/>
     <use xlink:href="#m76ae2e8922" x="232.666562" y="49.862632" style="fill: #1f5aa6; fill-opacity: 0.78"/>
     <use xlink:href="#m76ae2e8922" x="246.014687" y="49.579087" style="fill: #1f5aa6; fill-opacity: 0.78"/>
     <use xlink:href="#m76ae2e8922" x="253.133687" y="50.92248" style="fill: #1f5aa6; fill-opacity: 0.78"/>
     <use xlink:href="#m76ae2e8922" x="273.600812" y="52.064823" style="fill: #1f5aa6; fill-opacity: 0.78"/>
     <use xlink:href="#m76ae2e8922" x="281.609687" y="52.720754" style="fill: #1f5aa6; fill-opacity: 0.78"/>
     <use xlink:href="#m76ae2e8922" x="294.067937" y="53.303595" style="fill: #1f5aa6; fill-opacity: 0.78"/>
     <use xlink:href="#m76ae2e8922" x="314.535062" y="54.656589" style="fill: #1f5aa6; fill-opacity: 0.78"/>
     <use xlink:href="#m76ae2e8922" x="317.204687" y="53.617125" style="fill: #1f5aa6; fill-opacity: 0.78"/>
     <use xlink:href="#m76ae2e8922" x="335.002187" y="56.115687" style="fill: #1f5aa6; fill-opacity: 0.78"/>
     <use xlink:href="#m76ae2e8922" x="356.359187" y="57.770943" style="fill: #1f5aa6; fill-opacity: 0.78"/>
     <use xlink:href="#m76ae2e8922" x="377.716187" y="59.557422" style="fill: #1f5aa6; fill-opacity: 0.78"/>
     <use xlink:href="#m76ae2e8922" x="399.073187" y="61.637294" style="fill: #1f5aa6; fill-opacity: 0.78"/>
     <use xlink:href="#m76ae2e8922" x="415.090937" y="61.232526" style="fill: #1f5aa6; fill-opacity: 0.78"/>
     <use xlink:href="#m76ae2e8922" x="420.430187" y="64.007494" style="fill: #1f5aa6; fill-opacity: 0.78"/>
     <use xlink:href="#m76ae2e8922" x="442.677062" y="66.770536" style="fill: #1f5aa6; fill-opacity: 0.78"/>
     <use xlink:href="#m76ae2e8922" x="464.034062" y="70.095574" style="fill: #1f5aa6; fill-opacity: 0.78"/>
     <use xlink:href="#m76ae2e8922" x="486.280937" y="74.400992" style="fill: #1f5aa6; fill-opacity: 0.78"/>
     <use xlink:href="#m76ae2e8922" x="508.527812" y="80.354487" style="fill: #1f5aa6; fill-opacity: 0.78"/>
     <use xlink:href="#m76ae2e8922" x="531.664562" y="90.209334" style="fill: #1f5aa6; fill-opacity: 0.78"/>
     <use xlink:href="#m76ae2e8922" x="593.065937" y="114.16363" style="fill: #1f5aa6; fill-opacity: 0.78"/>
     <use xlink:href="#m76ae2e8922" x="753.243437" y="130.29469" style="fill: #1f5aa6; fill-opacity: 0.78"/>
     <use xlink:href="#m76ae2e8922" x="940.117187" y="120.117124" style="fill: #1f5aa6; fill-opacity: 0.78"/>
    </g>
   </g>
   <g id="line2d_31">
    <path d="M 59.140938 120.999258
L 63.590313 111.41443
L 68.039687 105.133062
L 72.489063 100.712591
L 76.938438 97.334088
L 81.387812 94.60427
L 85.837187 92.314117
L 90.286563 90.340996
L 94.735938 88.607197
L 99.185312 87.060479
L 103.634687 85.664056
L 112.533437 83.221251
L 121.432187 81.132076
L 130.330938 79.306361
L 139.229687 77.684668
L 152.577812 75.547603
L 165.925937 73.684148
L 179.274062 72.031882
L 197.071562 70.084571
L 214.869062 68.366353
L 237.115937 66.468441
L 259.362812 64.788554
L 286.059062 62.998042
L 317.204687 61.15297
L 352.799687 59.294778
L 392.844062 57.452661
L 437.337812 55.646775
L 486.280937 53.89331
L 539.673437 52.212724
L 597.515312 50.614655
L 659.806562 49.113662
L 722.097812 47.832132
L 771.040937 46.985357
L 771.040937 46.985357
" clip-path="url(#pad9d1d6c41)" style="fill: none; stroke-dasharray: 8.14,3.52; stroke-dashoffset: 0; stroke: #bcbd22; stroke-width: 2.2"/>
   </g>
   <g id="line2d_32">
    <defs>
     <path id="m190eb14a58" d="M 0 3.4
C 0.901691 3.4 1.766572 3.041755 2.404163 2.404163
C 3.041755 1.766572 3.4 0.901691 3.4 0
C 3.4 -0.901691 3.041755 -1.766572 2.404163 -2.404163
C 1.766572 -3.041755 0.901691 -3.4 0 -3.4
C -0.901691 -3.4 -1.766572 -3.041755 -2.404163 -2.404163
C -3.041755 -1.766572 -3.4 -0.901691 -3.4 0
C -3.4 0.901691 -3.041755 1.766572 -2.404163 2.404163
C -1.766572 3.041755 -0.901691 3.4 0 3.4
z
"/>
    </defs>
    <g clip-path="url(#pad9d1d6c41)">
     <use xlink:href="#m190eb14a58" x="153.467687" y="76.755323" style="fill: #bcbd22; fill-opacity: 0.78"/>
     <use xlink:href="#m190eb14a58" x="157.027187" y="81.901508" style="fill: #bcbd22; fill-opacity: 0.78"/>
     <use xlink:href="#m190eb14a58" x="173.044937" y="73.972258" style="fill: #bcbd22; fill-opacity: 0.78"/>
     <use xlink:href="#m190eb14a58" x="192.622187" y="71.723942" style="fill: #bcbd22; fill-opacity: 0.78"/>
     <use xlink:href="#m190eb14a58" x="213.089312" y="69.695464" style="fill: #bcbd22; fill-opacity: 0.78"/>
     <use xlink:href="#m190eb14a58" x="232.666562" y="67.913507" style="fill: #bcbd22; fill-opacity: 0.78"/>
     <use xlink:href="#m190eb14a58" x="246.014687" y="70.34098" style="fill: #bcbd22; fill-opacity: 0.78"/>
     <use xlink:href="#m190eb14a58" x="253.133687" y="66.324594" style="fill: #bcbd22; fill-opacity: 0.78"/>
     <use xlink:href="#m190eb14a58" x="273.600812" y="64.947978" style="fill: #bcbd22; fill-opacity: 0.78"/>
     <use xlink:href="#m190eb14a58" x="281.609687" y="65.650094" style="fill: #bcbd22; fill-opacity: 0.78"/>
     <use xlink:href="#m190eb14a58" x="294.067937" y="63.637089" style="fill: #bcbd22; fill-opacity: 0.78"/>
     <use xlink:href="#m190eb14a58" x="314.535062" y="62.481923" style="fill: #bcbd22; fill-opacity: 0.78"/>
     <use xlink:href="#m190eb14a58" x="317.204687" y="66.19963" style="fill: #bcbd22; fill-opacity: 0.78"/>
     <use xlink:href="#m190eb14a58" x="335.002187" y="61.411047" style="fill: #bcbd22; fill-opacity: 0.78"/>
     <use xlink:href="#m190eb14a58" x="356.359187" y="60.455003" style="fill: #bcbd22; fill-opacity: 0.78"/>
     <use xlink:href="#m190eb14a58" x="377.716187" y="59.517898" style="fill: #bcbd22; fill-opacity: 0.78"/>
     <use xlink:href="#m190eb14a58" x="399.073187" y="58.674249" style="fill: #bcbd22; fill-opacity: 0.78"/>
     <use xlink:href="#m190eb14a58" x="415.090937" y="56.821125" style="fill: #bcbd22; fill-opacity: 0.78"/>
     <use xlink:href="#m190eb14a58" x="420.430187" y="57.911789" style="fill: #bcbd22; fill-opacity: 0.78"/>
     <use xlink:href="#m190eb14a58" x="442.677062" y="57.186975" style="fill: #bcbd22; fill-opacity: 0.78"/>
     <use xlink:href="#m190eb14a58" x="464.034062" y="56.496264" style="fill: #bcbd22; fill-opacity: 0.78"/>
     <use xlink:href="#m190eb14a58" x="486.280937" y="55.867341" style="fill: #bcbd22; fill-opacity: 0.78"/>
     <use xlink:href="#m190eb14a58" x="508.527812" y="55.293826" style="fill: #bcbd22; fill-opacity: 0.78"/>
     <use xlink:href="#m190eb14a58" x="531.664562" y="54.741873" style="fill: #bcbd22; fill-opacity: 0.78"/>
     <use xlink:href="#m190eb14a58" x="593.065937" y="51.735907" style="fill: #bcbd22; fill-opacity: 0.78"/>
     <use xlink:href="#m190eb14a58" x="753.243437" y="49.241985" style="fill: #bcbd22; fill-opacity: 0.78"/>
     <use xlink:href="#m190eb14a58" x="940.117187" y="47.805156" style="fill: #bcbd22; fill-opacity: 0.78"/>
    </g>
   </g>
   <g id="line2d_33">
    <path d="M 59.140938 258.836805
L 63.590313 129.03695
L 68.039687 116.575759
L 72.489063 109.367323
L 76.938438 104.356284
L 81.387812 100.540197
L 85.837187 97.469662
L 90.286563 94.906359
L 94.735938 92.709421
L 99.185312 90.788964
L 103.634687 89.084268
L 108.084062 87.552464
L 112.533437 86.1622
L 121.432187 83.717295
L 130.330938 81.616959
L 139.229687 79.776887
L 148.128437 78.140222
L 161.476562 75.981897
L 174.824687 74.099777
L 188.172812 72.431738
L 205.970312 70.467707
L 223.767812 68.73725
L 246.014687 66.829676
L 268.261562 65.1459
L 294.957812 63.358205
L 326.103437 61.52777
L 357.249062 59.919704
L 392.844062 58.312416
L 428.439062 56.939556
L 459.584687 55.973345
L 481.831562 55.495695
L 499.629062 55.316512
L 517.426562 55.363943
L 535.224062 55.621732
L 557.470937 56.154523
L 588.616562 57.139615
L 624.211562 58.481308
L 664.255937 60.200893
L 708.749687 62.346268
L 753.243437 64.721343
L 771.040937 65.728802
L 771.040937 65.728802
" clip-path="url(#pad9d1d6c41)" style="fill: none; stroke-dasharray: 8.14,3.52; stroke-dashoffset: 0; stroke: #d62728; stroke-width: 2.2"/>
   </g>
   <g id="line2d_34">
    <defs>
     <path id="mc0943bc199" d="M 0 3.4
C 0.901691 3.4 1.766572 3.041755 2.404163 2.404163
C 3.041755 1.766572 3.4 0.901691 3.4 0
C 3.4 -0.901691 3.041755 -1.766572 2.404163 -2.404163
C 1.766572 -3.041755 0.901691 -3.4 0 -3.4
C -0.901691 -3.4 -1.766572 -3.041755 -2.404163 -2.404163
C -3.041755 -1.766572 -3.4 -0.901691 -3.4 0
C -3.4 0.901691 -3.041755 1.766572 -2.404163 2.404163
C -1.766572 3.041755 -0.901691 3.4 0 3.4
z
"/>
    </defs>
    <g clip-path="url(#pad9d1d6c41)">
     <use xlink:href="#mc0943bc199" x="125.881562" y="81.022017" style="fill: #d62728; fill-opacity: 0.78"/>
     <use xlink:href="#mc0943bc199" x="153.467687" y="79.254702" style="fill: #d62728; fill-opacity: 0.78"/>
     <use xlink:href="#mc0943bc199" x="157.027187" y="77.951896" style="fill: #d62728; fill-opacity: 0.78"/>
     <use xlink:href="#mc0943bc199" x="173.044937" y="75.648958" style="fill: #d62728; fill-opacity: 0.78"/>
     <use xlink:href="#mc0943bc199" x="192.622187" y="72.756408" style="fill: #d62728; fill-opacity: 0.78"/>
     <use xlink:href="#mc0943bc199" x="192.622187" y="70.930067" style="fill: #d62728; fill-opacity: 0.78"/>
     <use xlink:href="#mc0943bc199" x="213.089312" y="70.423702" style="fill: #d62728; fill-opacity: 0.78"/>
     <use xlink:href="#mc0943bc199" x="232.666562" y="68.411288" style="fill: #d62728; fill-opacity: 0.78"/>
     <use xlink:href="#mc0943bc199" x="246.014687" y="68.195884" style="fill: #d62728; fill-opacity: 0.78"/>
     <use xlink:href="#mc0943bc199" x="253.133687" y="66.705995" style="fill: #d62728; fill-opacity: 0.78"/>
     <use xlink:href="#mc0943bc199" x="268.261562" y="64.387485" style="fill: #d62728; fill-opacity: 0.78"/>
     <use xlink:href="#mc0943bc199" x="273.600812" y="65.236457" style="fill: #d62728; fill-opacity: 0.78"/>
     <use xlink:href="#mc0943bc199" x="281.609687" y="64.007494" style="fill: #d62728; fill-opacity: 0.78"/>
     <use xlink:href="#mc0943bc199" x="294.067937" y="63.900707" style="fill: #d62728; fill-opacity: 0.78"/>
     <use xlink:href="#mc0943bc199" x="314.535062" y="62.72543" style="fill: #d62728; fill-opacity: 0.78"/>
     <use xlink:href="#mc0943bc199" x="317.204687" y="62.337734" style="fill: #d62728; fill-opacity: 0.78"/>
     <use xlink:href="#mc0943bc199" x="334.112312" y="60.455003" style="fill: #d62728; fill-opacity: 0.78"/>
     <use xlink:href="#mc0943bc199" x="335.002187" y="61.682964" style="fill: #d62728; fill-opacity: 0.78"/>
     <use xlink:href="#mc0943bc199" x="356.359187" y="60.7525" style="fill: #d62728; fill-opacity: 0.78"/>
     <use xlink:href="#mc0943bc199" x="377.716187" y="59.918008" style="fill: #d62728; fill-opacity: 0.78"/>
     <use xlink:href="#mc0943bc199" x="399.073187" y="59.16689" style="fill: #d62728; fill-opacity: 0.78"/>
     <use xlink:href="#mc0943bc199" x="404.412437" y="57.39044" style="fill: #d62728; fill-opacity: 0.78"/>
     <use xlink:href="#mc0943bc199" x="415.090937" y="57.493239" style="fill: #d62728; fill-opacity: 0.78"/>
     <use xlink:href="#mc0943bc199" x="420.430187" y="58.452333" style="fill: #d62728; fill-opacity: 0.78"/>
     <use xlink:href="#mc0943bc199" x="442.677062" y="57.841197" style="fill: #d62728; fill-opacity: 0.78"/>
     <use xlink:href="#mc0943bc199" x="464.034062" y="57.288355" style="fill: #d62728; fill-opacity: 0.78"/>
     <use xlink:href="#mc0943bc199" x="480.941687" y="55.382905" style="fill: #d62728; fill-opacity: 0.78"/>
     <use xlink:href="#mc0943bc199" x="486.280937" y="56.788314" style="fill: #d62728; fill-opacity: 0.78"/>
     <use xlink:href="#mc0943bc199" x="508.527812" y="56.33649" style="fill: #d62728; fill-opacity: 0.78"/>
     <use xlink:href="#mc0943bc199" x="525.435437" y="56.178435" style="fill: #d62728; fill-opacity: 0.78"/>
     <use xlink:href="#mc0943bc199" x="531.664562" y="55.929034" style="fill: #d62728; fill-opacity: 0.78"/>
     <use xlink:href="#mc0943bc199" x="593.065937" y="54.62827" style="fill: #d62728; fill-opacity: 0.78"/>
     <use xlink:href="#mc0943bc199" x="601.074812" y="58.452333" style="fill: #d62728; fill-opacity: 0.78"/>
     <use xlink:href="#mc0943bc199" x="685.612937" y="61.546376" style="fill: #d62728; fill-opacity: 0.78"/>
     <use xlink:href="#mc0943bc199" x="753.243437" y="59.01354" style="fill: #d62728; fill-opacity: 0.78"/>
     <use xlink:href="#mc0943bc199" x="799.516937" y="68.77747" style="fill: #d62728; fill-opacity: 0.78"/>
     <use xlink:href="#mc0943bc199" x="885.834812" y="76.377196" style="fill: #d62728; fill-opacity: 0.78"/>
     <use xlink:href="#mc0943bc199" x="925.879187" y="76.883561" style="fill: #d62728; fill-opacity: 0.78"/>
     <use xlink:href="#mc0943bc199" x="940.117187" y="63.900707" style="fill: #d62728; fill-opacity: 0.78"/>
    </g>
   </g>
   <g id="line2d_35">
    <path d="M 59.140938 333.193418
L 63.590313 203.281121
L 68.039687 190.685019
L 72.489063 183.333409
L 76.938438 178.174919
L 81.387812 174.208446
L 85.837187 170.985145
L 90.286563 168.266953
L 94.735938 165.913128
L 99.185312 163.833848
L 103.634687 161.968416
L 108.084062 160.273969
L 116.982812 157.280312
L 125.881562 154.681637
L 134.780312 152.372834
L 143.679062 150.28478
L 157.027187 147.465601
L 170.375312 144.928086
L 183.723437 142.599788
L 201.520937 139.735694
L 223.767812 136.428731
L 250.464062 132.717211
L 294.957812 126.815935
L 339.451562 120.857177
L 366.147812 117.052702
L 388.394687 113.63166
L 406.192187 110.653178
L 419.540312 108.230028
L 432.888437 105.600403
L 446.236562 102.71637
L 459.584687 99.526143
L 468.483437 97.207351
L 477.382187 94.729547
L 490.730312 90.747677
L 521.875937 81.182711
L 530.774687 78.69906
L 539.673437 76.407418
L 548.572187 74.312732
L 557.470937 72.405261
L 566.369687 70.668302
L 579.717812 68.341771
L 593.065937 66.297544
L 606.414062 64.485576
L 619.762187 62.86588
L 637.559687 60.952071
L 655.357187 59.268525
L 677.604062 57.426131
L 699.850937 55.821904
L 726.547187 54.154709
L 753.243437 52.723004
L 771.040937 51.881893
L 771.040937 51.881893
" clip-path="url(#pad9d1d6c41)" style="fill: none; stroke-dasharray: 8.14,3.52; stroke-dashoffset: 0; stroke: #17becf; stroke-width: 2.2"/>
   </g>
   <g id="line2d_36">
    <defs>
     <path id="mb79c71a605" d="M 0 3.4
C 0.901691 3.4 1.766572 3.041755 2.404163 2.404163
C 3.041755 1.766572 3.4 0.901691 3.4 0
C 3.4 -0.901691 3.041755 -1.766572 2.404163 -2.404163
C 1.766572 -3.041755 0.901691 -3.4 0 -3.4
C -0.901691 -3.4 -1.766572 -3.041755 -2.404163 -2.404163
C -3.041755 -1.766572 -3.4 -0.901691 -3.4 0
C -3.4 0.901691 -3.041755 1.766572 -2.404163 2.404163
C -1.766572 3.041755 -0.901691 3.4 0 3.4
z
"/>
    </defs>
    <g clip-path="url(#pad9d1d6c41)">
     <use xlink:href="#mb79c71a605" x="153.467687" y="99.761992" style="fill: #17becf; fill-opacity: 0.78"/>
     <use xlink:href="#mb79c71a605" x="173.044937" y="101.039591" style="fill: #17becf; fill-opacity: 0.78"/>
     <use xlink:href="#mb79c71a605" x="192.622187" y="102.439042" style="fill: #17becf; fill-opacity: 0.78"/>
     <use xlink:href="#mb79c71a605" x="213.089312" y="102.439042" style="fill: #17becf; fill-opacity: 0.78"/>
     <use xlink:href="#mb79c71a605" x="232.666562" y="102.439042" style="fill: #17becf; fill-opacity: 0.78"/>
     <use xlink:href="#mb79c71a605" x="246.014687" y="146.425751" style="fill: #17becf; fill-opacity: 0.78"/>
     <use xlink:href="#mb79c71a605" x="253.133687" y="101.72265" style="fill: #17becf; fill-opacity: 0.78"/>
     <use xlink:href="#mb79c71a605" x="273.600812" y="100.3869" style="fill: #17becf; fill-opacity: 0.78"/>
     <use xlink:href="#mb79c71a605" x="281.609687" y="136.248185" style="fill: #17becf; fill-opacity: 0.78"/>
     <use xlink:href="#mb79c71a605" x="294.067937" y="98.586715" style="fill: #17becf; fill-opacity: 0.78"/>
     <use xlink:href="#mb79c71a605" x="314.535062" y="96.485548" style="fill: #17becf; fill-opacity: 0.78"/>
     <use xlink:href="#mb79c71a605" x="317.204687" y="136.248185" style="fill: #17becf; fill-opacity: 0.78"/>
     <use xlink:href="#mb79c71a605" x="335.002187" y="94.647762" style="fill: #17becf; fill-opacity: 0.78"/>
     <use xlink:href="#mb79c71a605" x="356.359187" y="92.261476" style="fill: #17becf; fill-opacity: 0.78"/>
     <use xlink:href="#mb79c71a605" x="377.716187" y="90.209334" style="fill: #17becf; fill-opacity: 0.78"/>
     <use xlink:href="#mb79c71a605" x="399.073187" y="88.129462" style="fill: #17becf; fill-opacity: 0.78"/>
     <use xlink:href="#mb79c71a605" x="415.090937" y="120.117124" style="fill: #17becf; fill-opacity: 0.78"/>
     <use xlink:href="#mb79c71a605" x="420.430187" y="86.06528" style="fill: #17becf; fill-opacity: 0.78"/>
     <use xlink:href="#mb79c71a605" x="442.677062" y="84.044568" style="fill: #17becf; fill-opacity: 0.78"/>
     <use xlink:href="#mb79c71a605" x="464.034062" y="82.08391" style="fill: #17becf; fill-opacity: 0.78"/>
     <use xlink:href="#mb79c71a605" x="486.280937" y="80.192241" style="fill: #17becf; fill-opacity: 0.78"/>
     <use xlink:href="#mb79c71a605" x="508.527812" y="78.516701" style="fill: #17becf; fill-opacity: 0.78"/>
     <use xlink:href="#mb79c71a605" x="525.435437" y="77.951896" style="fill: #17becf; fill-opacity: 0.78"/>
     <use xlink:href="#mb79c71a605" x="531.664562" y="76.883561" style="fill: #17becf; fill-opacity: 0.78"/>
     <use xlink:href="#mb79c71a605" x="593.065937" y="73.972258" style="fill: #17becf; fill-opacity: 0.78"/>
     <use xlink:href="#mb79c71a605" x="601.074812" y="65.120384" style="fill: #17becf; fill-opacity: 0.78"/>
     <use xlink:href="#mb79c71a605" x="685.612937" y="58.089768" style="fill: #17becf; fill-opacity: 0.78"/>
     <use xlink:href="#mb79c71a605" x="753.243437" y="56.986292" style="fill: #17becf; fill-opacity: 0.78"/>
     <use xlink:href="#mb79c71a605" x="799.516937" y="51.899444" style="fill: #17becf; fill-opacity: 0.78"/>
     <use xlink:href="#mb79c71a605" x="885.834812" y="48.552689" style="fill: #17becf; fill-opacity: 0.78"/>
     <use xlink:href="#mb79c71a605" x="925.879187" y="46.942209" style="fill: #17becf; fill-opacity: 0.78"/>
     <use xlink:href="#mb79c71a605" x="940.117187" y="50.856686" style="fill: #17becf; fill-opacity: 0.78"/>
    </g>
   </g>
   <g id="line2d_37">
    <path d="M 59.140938 254.266463
L 63.590313 134.050796
L 68.039687 127.871321
L 72.489063 125.083799
L 76.938438 123.451664
L 81.387812 122.365741
L 85.837187 121.585659
L 90.286563 120.99574
L 99.185312 120.159307
L 108.084062 119.592601
L 121.432187 119.01689
L 139.229687 118.524444
L 165.925937 118.076243
L 201.520937 117.732825
L 254.913437 117.458703
L 335.002187 117.293784
L 410.641562 117.343958
L 455.135312 117.579347
L 481.831562 117.944289
L 499.629062 118.384266
L 517.426562 119.037566
L 539.673437 120.125935
L 566.369687 121.684225
L 606.414062 124.275037
L 659.806562 127.976758
L 717.648437 132.212118
L 771.040937 136.278256
L 771.040937 136.278256
" clip-path="url(#pad9d1d6c41)" style="fill: none; stroke-dasharray: 8.14,3.52; stroke-dashoffset: 0; stroke: #9467bd; stroke-width: 2.2"/>
   </g>
   <g id="line2d_38">
    <defs>
     <path id="m53c3fa429f" d="M 0 3.4
C 0.901691 3.4 1.766572 3.041755 2.404163 2.404163
C 3.041755 1.766572 3.4 0.901691 3.4 0
C 3.4 -0.901691 3.041755 -1.766572 2.404163 -2.404163
C 1.766572 -3.041755 0.901691 -3.4 0 -3.4
C -0.901691 -3.4 -1.766572 -3.041755 -2.404163 -2.404163
C -3.041755 -1.766572 -3.4 -0.901691 -3.4 0
C -3.4 0.901691 -3.041755 1.766572 -2.404163 2.404163
C -1.766572 3.041755 -0.901691 3.4 0 3.4
z
"/>
    </defs>
    <g clip-path="url(#pad9d1d6c41)">
     <use xlink:href="#m53c3fa429f" x="157.027187" y="146.425751" style="fill: #9467bd; fill-opacity: 0.78"/>
     <use xlink:href="#m53c3fa429f" x="246.014687" y="126.070619" style="fill: #9467bd; fill-opacity: 0.78"/>
     <use xlink:href="#m53c3fa429f" x="281.609687" y="120.117124" style="fill: #9467bd; fill-opacity: 0.78"/>
     <use xlink:href="#m53c3fa429f" x="317.204687" y="120.117124" style="fill: #9467bd; fill-opacity: 0.78"/>
     <use xlink:href="#m53c3fa429f" x="415.090937" y="109.939558" style="fill: #9467bd; fill-opacity: 0.78"/>
     <use xlink:href="#m53c3fa429f" x="593.065937" y="107.676145" style="fill: #9467bd; fill-opacity: 0.78"/>
     <use xlink:href="#m53c3fa429f" x="753.243437" y="107.676145" style="fill: #9467bd; fill-opacity: 0.78"/>
     <use xlink:href="#m53c3fa429f" x="940.117187" y="104.825328" style="fill: #9467bd; fill-opacity: 0.78"/>
    </g>
   </g>
   <g id="line2d_39">
    <path d="M 59.140938 501.823105
L 63.590313 492.125835
L 68.039687 485.709556
L 72.489063 481.145911
L 76.938438 477.619957
L 81.387812 474.739753
L 85.837187 472.296834
L 90.286563 470.168823
L 94.735938 468.278138
L 99.185312 466.572596
L 103.634687 465.015439
L 112.533437 462.245425
L 121.432187 459.821275
L 130.330938 457.652582
L 139.229687 455.679605
L 152.577812 452.999255
L 165.925937 450.57165
L 183.723437 447.62029
L 201.520937 444.904156
L 223.767812 441.736137
L 254.913437 437.561062
L 348.350312 425.239999
L 370.597187 422.015139
L 388.394687 419.244443
L 406.192187 416.238095
L 419.540312 413.780122
L 432.888437 411.099154
L 446.236562 408.140618
L 455.135312 405.983409
L 464.034062 403.656826
L 472.932812 401.146693
L 481.831562 398.449305
L 495.179687 394.093001
L 530.774687 382.10364
L 539.673437 379.374813
L 548.572187 376.813662
L 557.470937 374.416604
L 570.819062 371.101698
L 584.167187 368.077784
L 597.515312 365.295283
L 610.863437 362.711935
L 628.660937 359.519053
L 646.458437 356.557432
L 668.705312 353.111476
L 690.952187 349.890905
L 717.648437 346.262049
L 744.344687 342.843638
L 771.040937 339.605681
L 771.040937 339.605681
" clip-path="url(#pad9d1d6c41)" style="fill: none; stroke-dasharray: 8.14,3.52; stroke-dashoffset: 0; stroke: #8c564b; stroke-width: 2.2"/>
   </g>
   <g id="line2d_40">
    <path d="M 59.140938 121.003855
L 63.590313 130.699843
L 68.039687 137.11682
L 72.489063 141.681352
L 76.938438 145.208107
L 81.387812 148.089002
L 85.837187 150.532521
L 90.286563 152.661057
L 94.735938 154.55221
L 99.185312 156.258174
L 103.634687 157.815718
L 112.533437 160.586425
L 121.432187 163.011194
L 130.330938 165.180457
L 139.229687 167.153974
L 152.577812 169.835101
L 165.925937 172.26347
L 183.723437 175.215863
L 201.520937 177.933076
L 223.767812 181.10256
L 254.913437 185.280011
L 343.900937 196.991418
L 366.147812 200.178321
L 383.945312 202.905361
L 401.742812 205.852422
L 415.090937 208.252684
L 428.439062 210.861695
L 441.787187 213.731482
L 450.685937 215.81966
L 459.584687 218.070371
L 468.483437 220.501122
L 477.382187 223.122637
L 486.280937 225.931171
L 499.629062 230.427614
L 526.325312 239.610096
L 539.673437 243.846506
L 548.572187 246.467929
L 557.470937 248.928094
L 570.819062 252.341598
L 584.167187 255.467472
L 597.515312 258.354246
L 610.863437 261.043472
L 628.660937 264.379186
L 646.458437 267.484787
L 668.705312 271.1114
L 690.952187 274.512479
L 717.648437 278.356523
L 744.344687 281.987204
L 771.040937 285.433067
L 771.040937 285.433067
" clip-path="url(#pad9d1d6c41)" style="fill: none; stroke-dasharray: 8.14,3.52; stroke-dashoffset: 0; stroke: #7f7f7f; stroke-width: 2.2"/>
   </g>
   <g id="line2d_41">
    <path d="M 59.140938 43.302926
L 81.387812 43.60374
L 161.476562 44.981058
L 259.362812 46.878393
L 352.799687 48.917
L 472.932812 51.58427
L 495.179687 51.829604
L 512.977187 51.837824
L 535.224062 51.612712
L 566.369687 51.038874
L 744.344687 47.375489
L 771.040937 46.942567
L 771.040937 46.942567
" clip-path="url(#pad9d1d6c41)" style="fill: none; stroke-dasharray: 8.14,3.52; stroke-dashoffset: 0; stroke: #e377c2; stroke-width: 2.2"/>
   </g>
   <g id="line2d_42">
    <defs>
     <path id="m163846d8da" d="M 0 3.4
C 0.901691 3.4 1.766572 3.041755 2.404163 2.404163
C 3.041755 1.766572 3.4 0.901691 3.4 0
C 3.4 -0.901691 3.041755 -1.766572 2.404163 -2.404163
C 1.766572 -3.041755 0.901691 -3.4 0 -3.4
C -0.901691 -3.4 -1.766572 -3.041755 -2.404163 -2.404163
C -3.041755 -1.766572 -3.4 -0.901691 -3.4 0
C -3.4 0.901691 -3.041755 1.766572 -2.404163 2.404163
C -1.766572 3.041755 -0.901691 3.4 0 3.4
z
"/>
    </defs>
    <g clip-path="url(#pad9d1d6c41)">
     <use xlink:href="#m163846d8da" x="125.881562" y="44.226101" style="fill: #e377c2; fill-opacity: 0.78"/>
     <use xlink:href="#m163846d8da" x="153.467687" y="44.564307" style="fill: #e377c2; fill-opacity: 0.78"/>
     <use xlink:href="#m163846d8da" x="157.027187" y="43.585529" style="fill: #e377c2; fill-opacity: 0.78"/>
     <use xlink:href="#m163846d8da" x="173.044937" y="44.910487" style="fill: #e377c2; fill-opacity: 0.78"/>
     <use xlink:href="#m163846d8da" x="192.622187" y="45.309952" style="fill: #e377c2; fill-opacity: 0.78"/>
     <use xlink:href="#m163846d8da" x="192.622187" y="45.506233" style="fill: #e377c2; fill-opacity: 0.78"/>
     <use xlink:href="#m163846d8da" x="213.089312" y="45.689774" style="fill: #e377c2; fill-opacity: 0.78"/>
     <use xlink:href="#m163846d8da" x="232.666562" y="46.095498" style="fill: #e377c2; fill-opacity: 0.78"/>
     <use xlink:href="#m163846d8da" x="246.014687" y="46.383098" style="fill: #e377c2; fill-opacity: 0.78"/>
     <use xlink:href="#m163846d8da" x="253.133687" y="46.512751" style="fill: #e377c2; fill-opacity: 0.78"/>
     <use xlink:href="#m163846d8da" x="268.261562" y="47.026257" style="fill: #e377c2; fill-opacity: 0.78"/>
     <use xlink:href="#m163846d8da" x="273.600812" y="46.958981" style="fill: #e377c2; fill-opacity: 0.78"/>
     <use xlink:href="#m163846d8da" x="281.609687" y="47.628462" style="fill: #e377c2; fill-opacity: 0.78"/>
     <use xlink:href="#m163846d8da" x="294.067937" y="47.401893" style="fill: #e377c2; fill-opacity: 0.78"/>
     <use xlink:href="#m163846d8da" x="314.535062" y="47.876433" style="fill: #e377c2; fill-opacity: 0.78"/>
     <use xlink:href="#m163846d8da" x="317.204687" y="48.422337" style="fill: #e377c2; fill-opacity: 0.78"/>
     <use xlink:href="#m163846d8da" x="334.112312" y="48.646512" style="fill: #e377c2; fill-opacity: 0.78"/>
     <use xlink:href="#m163846d8da" x="335.002187" y="48.348367" style="fill: #e377c2; fill-opacity: 0.78"/>
     <use xlink:href="#m163846d8da" x="356.359187" y="48.874161" style="fill: #e377c2; fill-opacity: 0.78"/>
     <use xlink:href="#m163846d8da" x="377.716187" y="49.36008" style="fill: #e377c2; fill-opacity: 0.78"/>
     <use xlink:href="#m163846d8da" x="399.073187" y="49.903589" style="fill: #e377c2; fill-opacity: 0.78"/>
     <use xlink:href="#m163846d8da" x="404.412437" y="50.704302" style="fill: #e377c2; fill-opacity: 0.78"/>
     <use xlink:href="#m163846d8da" x="415.090937" y="48.684209" style="fill: #e377c2; fill-opacity: 0.78"/>
     <use xlink:href="#m163846d8da" x="420.430187" y="50.467992" style="fill: #e377c2; fill-opacity: 0.78"/>
     <use xlink:href="#m163846d8da" x="442.677062" y="51.032797" style="fill: #e377c2; fill-opacity: 0.78"/>
     <use xlink:href="#m163846d8da" x="464.034062" y="51.597168" style="fill: #e377c2; fill-opacity: 0.78"/>
     <use xlink:href="#m163846d8da" x="480.941687" y="52.017382" style="fill: #e377c2; fill-opacity: 0.78"/>
     <use xlink:href="#m163846d8da" x="486.280937" y="52.208074" style="fill: #e377c2; fill-opacity: 0.78"/>
     <use xlink:href="#m163846d8da" x="508.527812" y="52.845505" style="fill: #e377c2; fill-opacity: 0.78"/>
     <use xlink:href="#m163846d8da" x="525.435437" y="51.6202" style="fill: #e377c2; fill-opacity: 0.78"/>
     <use xlink:href="#m163846d8da" x="531.664562" y="53.485673" style="fill: #e377c2; fill-opacity: 0.78"/>
     <use xlink:href="#m163846d8da" x="593.065937" y="51.528287" style="fill: #e377c2; fill-opacity: 0.78"/>
     <use xlink:href="#m163846d8da" x="601.074812" y="50.319569" style="fill: #e377c2; fill-opacity: 0.78"/>
     <use xlink:href="#m163846d8da" x="685.612937" y="49.281244" style="fill: #e377c2; fill-opacity: 0.78"/>
     <use xlink:href="#m163846d8da" x="753.243437" y="49.183291" style="fill: #e377c2; fill-opacity: 0.78"/>
     <use xlink:href="#m163846d8da" x="799.516937" y="47.646036" style="fill: #e377c2; fill-opacity: 0.78"/>
     <use xlink:href="#m163846d8da" x="885.834812" y="46.825345" style="fill: #e377c2; fill-opacity: 0.78"/>
     <use xlink:href="#m163846d8da" x="925.879187" y="46.792125" style="fill: #e377c2; fill-opacity: 0.78"/>
     <use xlink:href="#m163846d8da" x="940.117187" y="47.698884" style="fill: #e377c2; fill-opacity: 0.78"/>
    </g>
   </g>
   <g id="patch_3">
    <path d="M 59.140938 484.51718
L 59.140938 11.18918
" style="fill: none; stroke: #000000; stroke-width: 0.9; stroke-linejoin: miter; stroke-linecap: square"/>
   </g>
   <g id="patch_4">
    <path d="M 771.040937 484.51718
L 771.040937 11.18918
" style="fill: none; stroke: #000000; stroke-width: 0.9; stroke-linejoin: miter; stroke-linecap: square"/>
   </g>
   <g id="patch_5">
    <path d="M 59.140938 484.51718
L 771.040937 484.51718
" style="fill: none; stroke: #000000; stroke-width: 0.9; stroke-linejoin: miter; stroke-linecap: square"/>
   </g>
   <g id="patch_6">
    <path d="M 59.140938 11.18918
L 771.040937 11.18918
" style="fill: none; stroke: #000000; stroke-width: 0.9; stroke-linejoin: miter; stroke-linecap: square"/>
   </g>
   <g id="legend_1">
    <g id="patch_7">
     <path d="M 362.890937 480.01718
L 467.290937 480.01718
Q 469.090937 480.01718 469.090937 478.21718
L 469.090937 356.746711
Q 469.090937 354.946711 467.290937 354.946711
L 362.890937 354.946711
Q 361.090937 354.946711 361.090937 356.746711
L 361.090937 478.21718
Q 361.090937 480.01718 362.890937 480.01718
z
" style="fill: #ffffff; opacity: 0.88; stroke: #cccccc; stroke-linejoin: miter"/>
    </g>
    <g id="line2d_43">
     <path d="M 365.140937 362.685305
L 375.490937 362.685305
L 385.840937 362.685305
" style="fill: none; stroke-dasharray: 8.14,3.52; stroke-dashoffset: 0; stroke: #16805a; stroke-width: 2.2"/>
    </g>
    <g id="text_29">
     <!-- $CO_2$ -->
     <g transform="translate(393.040937 365.835305) scale(0.09 -0.09)">
      <use xlink:href="#DejaVuSerif-Italic-43" transform="translate(0 0.78125)"/>
      <use xlink:href="#DejaVuSerif-Italic-4f" transform="translate(76.513672 0.78125)"/>
      <use xlink:href="#DejaVuSerif-32" transform="translate(158.496094 -14.790625) scale(0.7)"/>
     </g>
    </g>
    <g id="line2d_44">
     <path d="M 365.140937 375.895617
L 375.490937 375.895617
L 385.840937 375.895617
" style="fill: none; stroke-dasharray: 8.14,3.52; stroke-dashoffset: 0; stroke: #1f5aa6; stroke-width: 2.2"/>
    </g>
    <g id="text_30">
     <!-- $MEA$ -->
     <g transform="translate(393.040937 379.045617) scale(0.09 -0.09)">
      <defs>
       <path id="DejaVuSerif-Italic-4d" d="M -97 0
L -34 331
L 559 331
L 1338 4331
L 709 4331
L 775 4666
L 2134 4666
L 3125 1344
L 5409 4666
L 6684 4666
L 6619 4331
L 5997 4331
L 5222 331
L 5816 331
L 5753 0
L 3928 0
L 3991 331
L 4584 331
L 5288 3938
L 3053 684
L 2613 684
L 1647 3938
L 944 331
L 1538 331
L 1475 0
L -97 0
z
" transform="scale(0.015625)"/>
       <path id="DejaVuSerif-Italic-45" d="M -97 0
L -34 331
L 559 331
L 1338 4331
L 744 4331
L 809 4666
L 4566 4666
L 4366 3628
L 3981 3628
L 4106 4281
L 1963 4281
L 1659 2719
L 3188 2719
L 3300 3303
L 3684 3303
L 3384 1753
L 3000 1753
L 3113 2338
L 1584 2338
L 1206 384
L 3400 384
L 3525 1038
L 3909 1038
L 3709 0
L -97 0
z
" transform="scale(0.015625)"/>
       <path id="DejaVuSerif-Italic-41" d="M 1159 1691
L 2872 1691
L 2447 3909
L 1159 1691
z
M -488 0
L -425 331
L -16 331
L 2491 4666
L 3016 4666
L 3841 331
L 4297 331
L 4234 0
L 2538 0
L 2600 331
L 3119 331
L 2928 1356
L 966 1356
L 375 331
L 888 331
L 825 0
L -488 0
z
" transform="scale(0.015625)"/>
      </defs>
      <use xlink:href="#DejaVuSerif-Italic-4d" transform="translate(0 0.09375)"/>
      <use xlink:href="#DejaVuSerif-Italic-45" transform="translate(102.392578 0.09375)"/>
      <use xlink:href="#DejaVuSerif-Italic-41" transform="translate(175.390625 0.09375)"/>
     </g>
    </g>
    <g id="line2d_45">
     <path d="M 365.140937 389.10593
L 375.490937 389.10593
L 385.840937 389.10593
" style="fill: none; stroke-dasharray: 8.14,3.52; stroke-dashoffset: 0; stroke: #bcbd22; stroke-width: 2.2"/>
    </g>
    <g id="text_31">
     <!-- $MEAH^+$ -->
     <g transform="translate(393.040937 392.25593) scale(0.09 -0.09)">
      <defs>
       <path id="DejaVuSerif-Italic-48" d="M -97 0
L -34 331
L 559 331
L 1338 4331
L 744 4331
L 809 4666
L 2631 4666
L 2566 4331
L 1972 4331
L 1659 2719
L 4078 2719
L 4391 4331
L 3797 4331
L 3863 4666
L 5684 4666
L 5619 4331
L 5025 4331
L 4247 331
L 4841 331
L 4778 0
L 2956 0
L 3019 331
L 3616 331
L 4003 2338
L 1584 2338
L 1194 331
L 1788 331
L 1725 0
L -97 0
z
" transform="scale(0.015625)"/>
       <path id="DejaVuSerif-2b" d="M 2931 4013
L 2931 2259
L 4684 2259
L 4684 1753
L 2931 1753
L 2931 0
L 2431 0
L 2431 1753
L 678 1753
L 678 2259
L 2431 2259
L 2431 4013
L 2931 4013
z
" transform="scale(0.015625)"/>
      </defs>
      <use xlink:href="#DejaVuSerif-Italic-4d" transform="translate(0 0.773438)"/>
      <use xlink:href="#DejaVuSerif-Italic-45" transform="translate(102.392578 0.773438)"/>
      <use xlink:href="#DejaVuSerif-Italic-41" transform="translate(175.390625 0.773438)"/>
      <use xlink:href="#DejaVuSerif-Italic-48" transform="translate(247.607422 0.773438)"/>
      <use xlink:href="#DejaVuSerif-2b" transform="translate(355.268854 37.107812) scale(0.7)"/>
     </g>
    </g>
    <g id="line2d_46">
     <path d="M 365.140937 402.316242
L 375.490937 402.316242
L 385.840937 402.316242
" style="fill: none; stroke-dasharray: 8.14,3.52; stroke-dashoffset: 0; stroke: #d62728; stroke-width: 2.2"/>
    </g>
    <g id="text_32">
     <!-- $MEACOO^-$ -->
     <g transform="translate(393.040937 405.466242) scale(0.09 -0.09)">
      <use xlink:href="#DejaVuSerif-Italic-4d" transform="translate(0 0.78125)"/>
      <use xlink:href="#DejaVuSerif-Italic-45" transform="translate(102.392578 0.78125)"/>
      <use xlink:href="#DejaVuSerif-Italic-41" transform="translate(175.390625 0.78125)"/>
      <use xlink:href="#DejaVuSerif-Italic-43" transform="translate(247.607422 0.78125)"/>
      <use xlink:href="#DejaVuSerif-Italic-4f" transform="translate(324.121094 0.78125)"/>
      <use xlink:href="#DejaVuSerif-Italic-4f" transform="translate(406.103516 0.78125)"/>
      <use xlink:href="#DejaVuSerif-2212" transform="translate(508.724089 37.115625) scale(0.7)"/>
     </g>
    </g>
    <g id="line2d_47">
     <path d="M 365.140937 415.526555
L 375.490937 415.526555
L 385.840937 415.526555
" style="fill: none; stroke-dasharray: 8.14,3.52; stroke-dashoffset: 0; stroke: #17becf; stroke-width: 2.2"/>
    </g>
    <g id="text_33">
     <!-- $HCO_3^-$ -->
     <g transform="translate(393.040937 418.676555) scale(0.09 -0.09)">
      <use xlink:href="#DejaVuSerif-Italic-48" transform="translate(0 0.78125)"/>
      <use xlink:href="#DejaVuSerif-Italic-43" transform="translate(87.207031 0.78125)"/>
      <use xlink:href="#DejaVuSerif-Italic-4f" transform="translate(163.720703 0.78125)"/>
      <use xlink:href="#DejaVuSerif-2212" transform="translate(266.341276 39.28125) scale(0.7)"/>
      <use xlink:href="#DejaVuSerif-33" transform="translate(245.703125 -25.171875) scale(0.7)"/>
     </g>
    </g>
    <g id="line2d_48">
     <path d="M 365.140937 430.646555
L 375.490937 430.646555
L 385.840937 430.646555
" style="fill: none; stroke-dasharray: 8.14,3.52; stroke-dashoffset: 0; stroke: #9467bd; stroke-width: 2.2"/>
    </g>
    <g id="text_34">
     <!-- $CO_3^{2-}$ -->
     <g transform="translate(393.040937 433.796555) scale(0.09 -0.09)">
      <use xlink:href="#DejaVuSerif-Italic-43" transform="translate(0 0.546875)"/>
      <use xlink:href="#DejaVuSerif-Italic-4f" transform="translate(76.513672 0.546875)"/>
      <use xlink:href="#DejaVuSerif-32" transform="translate(165.858854 39.046875) scale(0.7)"/>
      <use xlink:href="#DejaVuSerif-2212" transform="translate(223.670378 39.046875) scale(0.7)"/>
      <use xlink:href="#DejaVuSerif-33" transform="translate(158.496094 -25.40625) scale(0.7)"/>
     </g>
    </g>
    <g id="line2d_49">
     <path d="M 365.140937 444.524836
L 375.490937 444.524836
L 385.840937 444.524836
" style="fill: none; stroke-dasharray: 8.14,3.52; stroke-dashoffset: 0; stroke: #8c564b; stroke-width: 2.2"/>
    </g>
    <g id="text_35">
     <!-- $H_3O^+$ -->
     <g transform="translate(393.040937 447.674836) scale(0.09 -0.09)">
      <use xlink:href="#DejaVuSerif-Italic-48" transform="translate(0 0.773438)"/>
      <use xlink:href="#DejaVuSerif-33" transform="translate(87.207031 -14.798438) scale(0.7)"/>
      <use xlink:href="#DejaVuSerif-Italic-4f" transform="translate(134.338477 0.773438)"/>
      <use xlink:href="#DejaVuSerif-2b" transform="translate(236.959049 37.107812) scale(0.7)"/>
     </g>
    </g>
    <g id="line2d_50">
     <path d="M 365.140937 457.735148
L 375.490937 457.735148
L 385.840937 457.735148
" style="fill: none; stroke-dasharray: 8.14,3.52; stroke-dashoffset: 0; stroke: #7f7f7f; stroke-width: 2.2"/>
    </g>
    <g id="text_36">
     <!-- $OH^-$ -->
     <g transform="translate(393.040937 460.885148) scale(0.09 -0.09)">
      <use xlink:href="#DejaVuSerif-Italic-4f" transform="translate(0 0.78125)"/>
      <use xlink:href="#DejaVuSerif-Italic-48" transform="translate(81.982422 0.78125)"/>
      <use xlink:href="#DejaVuSerif-2212" transform="translate(189.643854 37.115625) scale(0.7)"/>
     </g>
    </g>
    <g id="line2d_51">
     <path d="M 365.140937 470.945461
L 375.490937 470.945461
L 385.840937 470.945461
" style="fill: none; stroke-dasharray: 8.14,3.52; stroke-dashoffset: 0; stroke: #e377c2; stroke-width: 2.2"/>
    </g>
    <g id="text_37">
     <!-- $MEA + MEAH^+$ -->
     <g transform="translate(393.040937 474.095461) scale(0.09 -0.09)">
      <use xlink:href="#DejaVuSerif-Italic-4d" transform="translate(0 0.773438)"/>
      <use xlink:href="#DejaVuSerif-Italic-45" transform="translate(102.392578 0.773438)"/>
      <use xlink:href="#DejaVuSerif-Italic-41" transform="translate(175.390625 0.773438)"/>
      <use xlink:href="#DejaVuSerif-2b" transform="translate(266.572266 0.773438)"/>
      <use xlink:href="#DejaVuSerif-Italic-4d" transform="translate(369.326172 0.773438)"/>
      <use xlink:href="#DejaVuSerif-Italic-45" transform="translate(471.71875 0.773438)"/>
      <use xlink:href="#DejaVuSerif-Italic-41" transform="translate(544.716797 0.773438)"/>
      <use xlink:href="#DejaVuSerif-Italic-48" transform="translate(616.933594 0.773438)"/>
      <use xlink:href="#DejaVuSerif-2b" transform="translate(724.595026 37.107812) scale(0.7)"/>
     </g>
    </g>
   </g>
  </g>
 </g>
 <defs>
  <clipPath id="pad9d1d6c41">
   <rect x="59.140938" y="11.18918" width="711.9" height="473.328"/>
  </clipPath>
 </defs>
</svg>
