<?xml version="1.0" encoding="utf-8" standalone="no"?>
<!DOCTYPE svg PUBLIC "-//W3C//DTD SVG 1.1//EN"
  "http://www.w3.org/Graphics/SVG/1.1/DTD/svg11.dtd">
<svg xmlns:xlink="http://www.w3.org/1999/xlink" width="782.377383pt" height="523.608312pt" viewBox="0 0 782.377383 523.608312" xmlns="http://www.w3.org/2000/svg" version="1.1">
 <metadata>
  <rdf:RDF xmlns:dc="http://purl.org/dc/elements/1.1/" xmlns:cc="http://creativecommons.org/ns#" xmlns:rdf="http://www.w3.org/1999/02/22-rdf-syntax-ns#">
   <cc:Work>
    <dc:type rdf:resource="http://purl.org/dc/dcmitype/StillImage"/>
    <dc:date>2026-06-29T15:25:48.681959</dc:date>
    <dc:format>image/svg+xml</dc:format>
    <dc:creator>
     <cc:Agent>
      <dc:title>Matplotlib v3.10.9, https://matplotlib.org/</dc:title>
     </cc:Agent>
    </dc:creator>
   </cc:Work>
  </rdf:RDF>
 </metadata>
 <defs>
  <style type="text/css">*{stroke-linejoin: round; stroke-linecap: butt}</style>
 </defs>
 <g id="figure_1">
  <g id="patch_1">
   <path d="M 0 523.608312
L 782.377383 523.608312
L 782.377383 0
L 0 0
z
" style="fill: #ffffff"/>
  </g>
  <g id="axes_1">
   <g id="patch_2">
    <path d="M 53.47875 484.196437
L 765.37875 484.196437
L 765.37875 10.868437
L 53.47875 10.868437
z
" style="fill: #ffffff"/>
   </g>
   <g id="matplotlib.axis_1">
    <g id="xtick_1">
     <g id="line2d_1">
      <defs>
       <path id="mcb9282bc06" d="M 0 0
L 0 4.5
" style="stroke: #000000; stroke-width: 0.9"/>
      </defs>
      <g>
       <use xlink:href="#mcb9282bc06" x="53.47875" y="484.196437" style="stroke: #000000; stroke-width: 0.9"/>
      </g>
     </g>
     <g id="text_1">
      <!-- 0.00 -->
      <g transform="translate(43.680117 499.533312) scale(0.105 -0.105)">
       <defs>
        <path id="Cambria-30" d="M 1738 -50
Q 1063 -50 733 481
Q 403 1013 403 2094
Q 403 2669 504 3087
Q 606 3506 789 3779
Q 972 4053 1228 4184
Q 1484 4316 1788 4316
Q 2472 4316 2806 3787
Q 3141 3259 3141 2191
Q 3141 1084 2783 517
Q 2425 -50 1738 -50
z
M 1013 2188
Q 1013 1169 1202 692
Q 1391 216 1788 216
Q 2166 216 2348 664
Q 2531 1113 2531 2053
Q 2531 2772 2437 3217
Q 2344 3663 2176 3856
Q 2009 4050 1772 4050
Q 1556 4050 1411 3922
Q 1266 3794 1177 3553
Q 1088 3313 1050 2967
Q 1013 2622 1013 2188
z
" transform="scale(0.015625)"/>
        <path id="Cambria-2e" d="M 972 725
L 972 0
L 341 0
L 341 725
L 972 725
z
" transform="scale(0.015625)"/>
       </defs>
       <use xlink:href="#Cambria-30"/>
       <use xlink:href="#Cambria-2e" transform="translate(55.371094 0)"/>
       <use xlink:href="#Cambria-30" transform="translate(75.878906 0)"/>
       <use xlink:href="#Cambria-30" transform="translate(131.25 0)"/>
      </g>
     </g>
    </g>
    <g id="xtick_2">
     <g id="line2d_2">
      <g>
       <use xlink:href="#mcb9282bc06" x="124.66875" y="484.196437" style="stroke: #000000; stroke-width: 0.9"/>
      </g>
     </g>
     <g id="text_2">
      <!-- 0.08 -->
      <g transform="translate(114.870117 499.533312) scale(0.105 -0.105)">
       <defs>
        <path id="Cambria-38" d="M 2475 2253
L 2481 2213
Q 2834 2075 3015 1811
Q 3197 1547 3197 1175
Q 3197 809 3022 531
Q 2847 253 2514 101
Q 2181 -50 1738 -50
Q 1322 -50 1008 89
Q 694 228 520 495
Q 347 763 347 1125
Q 347 1397 440 1597
Q 534 1797 686 1926
Q 838 2056 1069 2163
L 1063 2203
Q 391 2494 391 3200
Q 391 3522 567 3775
Q 744 4028 1070 4172
Q 1397 4316 1794 4316
Q 2244 4316 2550 4189
Q 2856 4063 3011 3823
Q 3166 3584 3166 3250
Q 3166 2906 2997 2657
Q 2828 2409 2475 2253
z
M 978 3228
Q 978 3044 1022 2881
Q 1066 2719 1162 2600
Q 1259 2481 1414 2411
Q 1569 2341 1794 2341
Q 2053 2341 2229 2442
Q 2406 2544 2492 2739
Q 2578 2934 2578 3191
Q 2578 3472 2476 3667
Q 2375 3863 2197 3956
Q 2019 4050 1788 4050
Q 1394 4050 1186 3836
Q 978 3622 978 3228
z
M 944 1178
Q 944 975 991 798
Q 1038 622 1139 494
Q 1241 366 1400 291
Q 1559 216 1788 216
Q 2044 216 2226 320
Q 2409 425 2504 631
Q 2600 838 2600 1119
Q 2600 1419 2497 1636
Q 2394 1853 2206 1967
Q 2019 2081 1772 2081
Q 1541 2081 1383 2009
Q 1225 1938 1126 1816
Q 1028 1694 986 1530
Q 944 1366 944 1178
z
" transform="scale(0.015625)"/>
       </defs>
       <use xlink:href="#Cambria-30"/>
       <use xlink:href="#Cambria-2e" transform="translate(55.371094 0)"/>
       <use xlink:href="#Cambria-30" transform="translate(75.878906 0)"/>
       <use xlink:href="#Cambria-38" transform="translate(131.25 0)"/>
      </g>
     </g>
    </g>
    <g id="xtick_3">
     <g id="line2d_3">
      <g>
       <use xlink:href="#mcb9282bc06" x="195.85875" y="484.196437" style="stroke: #000000; stroke-width: 0.9"/>
      </g>
     </g>
     <g id="text_3">
      <!-- 0.16 -->
      <g transform="translate(186.060117 499.533312) scale(0.105 -0.105)">
       <defs>
        <path id="Cambria-31" d="M 2172 816
Q 2172 634 2192 542
Q 2213 450 2264 392
Q 2316 334 2412 301
Q 2509 269 2656 251
Q 2803 234 3044 228
L 3044 0
L 734 0
L 734 228
Q 1081 244 1229 270
Q 1378 297 1456 350
Q 1534 403 1570 500
Q 1606 597 1606 816
L 1606 3350
Q 1606 3475 1562 3533
Q 1519 3591 1434 3591
Q 1334 3591 1150 3487
Q 966 3384 694 3203
L 556 3444
L 2019 4316
L 2191 4316
Q 2172 4016 2172 3484
L 2172 816
z
" transform="scale(0.015625)"/>
        <path id="Cambria-36" d="M 2847 4144
L 2847 3991
Q 2366 3991 1994 3784
Q 1622 3578 1376 3178
Q 1131 2778 1031 2228
L 1063 2216
Q 1325 2403 1579 2490
Q 1834 2578 2131 2578
Q 2484 2578 2732 2423
Q 2981 2269 3106 1989
Q 3231 1709 3231 1334
Q 3231 928 3075 617
Q 2919 306 2592 128
Q 2266 -50 1788 -50
Q 1103 -50 754 375
Q 406 800 406 1628
Q 406 2184 581 2668
Q 756 3153 1078 3514
Q 1400 3875 1825 4083
Q 2250 4291 2719 4316
L 2847 4144
z
M 1916 2250
Q 1763 2250 1620 2215
Q 1478 2181 1353 2115
Q 1228 2050 1109 1950
Q 1072 1916 1053 1878
Q 1022 1819 1012 1731
Q 1003 1644 1003 1438
Q 1003 841 1203 528
Q 1403 216 1809 216
Q 2044 216 2203 297
Q 2363 378 2461 520
Q 2559 663 2601 855
Q 2644 1047 2644 1272
Q 2644 1734 2453 1992
Q 2263 2250 1916 2250
z
" transform="scale(0.015625)"/>
       </defs>
       <use xlink:href="#Cambria-30"/>
       <use xlink:href="#Cambria-2e" transform="translate(55.371094 0)"/>
       <use xlink:href="#Cambria-31" transform="translate(75.878906 0)"/>
       <use xlink:href="#Cambria-36" transform="translate(131.25 0)"/>
      </g>
     </g>
    </g>
    <g id="xtick_4">
     <g id="line2d_4">
      <g>
       <use xlink:href="#mcb9282bc06" x="267.04875" y="484.196437" style="stroke: #000000; stroke-width: 0.9"/>
      </g>
     </g>
     <g id="text_4">
      <!-- 0.24 -->
      <g transform="translate(257.250117 499.533312) scale(0.105 -0.105)">
       <defs>
        <path id="Cambria-32" d="M 2194 500
Q 2347 500 2440 519
Q 2534 538 2590 581
Q 2647 625 2680 695
Q 2713 766 2763 913
L 3028 913
L 2975 0
L 403 0
L 403 150
Q 538 478 766 822
Q 994 1166 1413 1631
Q 1775 2031 1934 2238
Q 2109 2463 2195 2627
Q 2281 2791 2318 2936
Q 2356 3081 2356 3228
Q 2356 3463 2281 3642
Q 2206 3822 2051 3925
Q 1897 4028 1663 4028
Q 1078 4028 875 3378
L 497 3378
L 497 3978
Q 875 4156 1204 4236
Q 1534 4316 1797 4316
Q 2378 4316 2675 4061
Q 2972 3806 2972 3322
Q 2972 3156 2939 3017
Q 2906 2878 2836 2742
Q 2766 2606 2647 2450
Q 2528 2294 2384 2133
Q 2241 1972 1888 1597
Q 1294 969 1016 500
L 2194 500
z
" transform="scale(0.015625)"/>
        <path id="Cambria-34" d="M 1613 153
Q 1806 203 1872 264
Q 1938 325 1958 437
Q 1978 550 1978 781
L 1978 1294
L 241 1294
L 241 1528
L 2069 4288
L 2516 4288
L 2516 1597
L 2581 1597
Q 2763 1597 2841 1623
Q 2919 1650 2970 1717
Q 3022 1784 3066 1938
L 3303 1938
L 3266 1294
L 2516 1294
L 2516 781
Q 2516 572 2530 475
Q 2544 378 2576 322
Q 2609 266 2673 228
Q 2738 191 2881 153
L 2881 0
L 1613 0
L 1613 153
z
M 756 1597
L 1978 1597
L 1978 2375
Q 1978 2669 1987 3033
Q 1997 3397 2009 3581
L 1978 3581
L 756 1641
L 756 1597
z
" transform="scale(0.015625)"/>
       </defs>
       <use xlink:href="#Cambria-30"/>
       <use xlink:href="#Cambria-2e" transform="translate(55.371094 0)"/>
       <use xlink:href="#Cambria-32" transform="translate(75.878906 0)"/>
       <use xlink:href="#Cambria-34" transform="translate(131.25 0)"/>
      </g>
     </g>
    </g>
    <g id="xtick_5">
     <g id="line2d_5">
      <g>
       <use xlink:href="#mcb9282bc06" x="338.23875" y="484.196437" style="stroke: #000000; stroke-width: 0.9"/>
      </g>
     </g>
     <g id="text_5">
      <!-- 0.32 -->
      <g transform="translate(328.440117 499.533312) scale(0.105 -0.105)">
       <defs>
        <path id="Cambria-33" d="M 497 3381
L 497 3975
Q 859 4147 1175 4231
Q 1491 4316 1784 4316
Q 2138 4316 2403 4206
Q 2669 4097 2809 3892
Q 2950 3688 2950 3403
Q 2950 3138 2844 2936
Q 2738 2734 2545 2584
Q 2353 2434 2047 2291
L 2047 2263
Q 2238 2228 2414 2145
Q 2591 2063 2728 1931
Q 2866 1800 2948 1617
Q 3031 1434 3031 1200
Q 3031 838 2873 556
Q 2716 275 2391 112
Q 2066 -50 1600 -50
Q 1331 -50 1020 11
Q 709 72 450 172
L 450 834
L 825 834
Q 934 509 1114 362
Q 1294 216 1603 216
Q 2009 216 2217 437
Q 2425 659 2425 1094
Q 2425 1550 2150 1790
Q 1875 2031 1344 2031
L 1063 2031
L 1063 2306
Q 1484 2331 1773 2468
Q 2063 2606 2203 2822
Q 2344 3038 2344 3306
Q 2344 3653 2159 3840
Q 1975 4028 1622 4028
Q 1328 4028 1143 3868
Q 959 3709 872 3381
L 497 3381
z
" transform="scale(0.015625)"/>
       </defs>
       <use xlink:href="#Cambria-30"/>
       <use xlink:href="#Cambria-2e" transform="translate(55.371094 0)"/>
       <use xlink:href="#Cambria-33" transform="translate(75.878906 0)"/>
       <use xlink:href="#Cambria-32" transform="translate(131.25 0)"/>
      </g>
     </g>
    </g>
    <g id="xtick_6">
     <g id="line2d_6">
      <g>
       <use xlink:href="#mcb9282bc06" x="409.42875" y="484.196437" style="stroke: #000000; stroke-width: 0.9"/>
      </g>
     </g>
     <g id="text_6">
      <!-- 0.40 -->
      <g transform="translate(399.630117 499.533312) scale(0.105 -0.105)">
       <use xlink:href="#Cambria-30"/>
       <use xlink:href="#Cambria-2e" transform="translate(55.371094 0)"/>
       <use xlink:href="#Cambria-34" transform="translate(75.878906 0)"/>
       <use xlink:href="#Cambria-30" transform="translate(131.25 0)"/>
      </g>
     </g>
    </g>
    <g id="xtick_7">
     <g id="line2d_7">
      <g>
       <use xlink:href="#mcb9282bc06" x="480.61875" y="484.196437" style="stroke: #000000; stroke-width: 0.9"/>
      </g>
     </g>
     <g id="text_7">
      <!-- 0.48 -->
      <g transform="translate(470.820117 499.533312) scale(0.105 -0.105)">
       <use xlink:href="#Cambria-30"/>
       <use xlink:href="#Cambria-2e" transform="translate(55.371094 0)"/>
       <use xlink:href="#Cambria-34" transform="translate(75.878906 0)"/>
       <use xlink:href="#Cambria-38" transform="translate(131.25 0)"/>
      </g>
     </g>
    </g>
    <g id="xtick_8">
     <g id="line2d_8">
      <g>
       <use xlink:href="#mcb9282bc06" x="551.80875" y="484.196437" style="stroke: #000000; stroke-width: 0.9"/>
      </g>
     </g>
     <g id="text_8">
      <!-- 0.56 -->
      <g transform="translate(542.010117 499.533312) scale(0.105 -0.105)">
       <defs>
        <path id="Cambria-35" d="M 469 172
L 469 834
L 847 834
Q 941 516 1130 366
Q 1319 216 1619 216
Q 2034 216 2246 466
Q 2459 716 2459 1213
Q 2459 1544 2346 1761
Q 2234 1978 2043 2075
Q 1853 2172 1600 2172
Q 1388 2172 1234 2145
Q 1081 2119 906 2063
L 656 2209
L 656 4266
L 2378 4266
Q 2484 4266 2531 4283
Q 2578 4300 2606 4336
Q 2634 4372 2672 4472
L 2916 4472
L 2869 3747
L 1072 3747
L 1072 2375
Q 1234 2444 1425 2478
Q 1616 2513 1806 2513
Q 2178 2513 2465 2361
Q 2753 2209 2909 1929
Q 3066 1650 3066 1281
Q 3066 863 2891 563
Q 2716 263 2384 106
Q 2053 -50 1600 -50
Q 1059 -50 469 172
z
" transform="scale(0.015625)"/>
       </defs>
       <use xlink:href="#Cambria-30"/>
       <use xlink:href="#Cambria-2e" transform="translate(55.371094 0)"/>
       <use xlink:href="#Cambria-35" transform="translate(75.878906 0)"/>
       <use xlink:href="#Cambria-36" transform="translate(131.25 0)"/>
      </g>
     </g>
    </g>
    <g id="xtick_9">
     <g id="line2d_9">
      <g>
       <use xlink:href="#mcb9282bc06" x="622.99875" y="484.196437" style="stroke: #000000; stroke-width: 0.9"/>
      </g>
     </g>
     <g id="text_9">
      <!-- 0.64 -->
      <g transform="translate(613.200117 499.533312) scale(0.105 -0.105)">
       <use xlink:href="#Cambria-30"/>
       <use xlink:href="#Cambria-2e" transform="translate(55.371094 0)"/>
       <use xlink:href="#Cambria-36" transform="translate(75.878906 0)"/>
       <use xlink:href="#Cambria-34" transform="translate(131.25 0)"/>
      </g>
     </g>
    </g>
    <g id="xtick_10">
     <g id="line2d_10">
      <g>
       <use xlink:href="#mcb9282bc06" x="694.18875" y="484.196437" style="stroke: #000000; stroke-width: 0.9"/>
      </g>
     </g>
     <g id="text_10">
      <!-- 0.72 -->
      <g transform="translate(684.390117 499.533312) scale(0.105 -0.105)">
       <defs>
        <path id="Cambria-37" d="M 3206 4116
L 1388 -22
L 934 -22
L 934 131
L 2619 3697
L 2619 3744
L 1244 3744
Q 1116 3744 1039 3720
Q 963 3697 911 3653
Q 859 3609 825 3537
Q 791 3466 731 3253
L 463 3253
L 525 4266
L 3206 4266
L 3206 4116
z
" transform="scale(0.015625)"/>
       </defs>
       <use xlink:href="#Cambria-30"/>
       <use xlink:href="#Cambria-2e" transform="translate(55.371094 0)"/>
       <use xlink:href="#Cambria-37" transform="translate(75.878906 0)"/>
       <use xlink:href="#Cambria-32" transform="translate(131.25 0)"/>
      </g>
     </g>
    </g>
    <g id="xtick_11">
     <g id="line2d_11">
      <g>
       <use xlink:href="#mcb9282bc06" x="765.37875" y="484.196437" style="stroke: #000000; stroke-width: 0.9"/>
      </g>
     </g>
     <g id="text_11">
      <!-- 0.80 -->
      <g transform="translate(755.580117 499.533312) scale(0.105 -0.105)">
       <use xlink:href="#Cambria-30"/>
       <use xlink:href="#Cambria-2e" transform="translate(55.371094 0)"/>
       <use xlink:href="#Cambria-38" transform="translate(75.878906 0)"/>
       <use xlink:href="#Cambria-30" transform="translate(131.25 0)"/>
      </g>
     </g>
    </g>
    <g id="text_12">
     <!-- $CO_2$ loading, mol $CO_2$/mol MEA -->
     <g transform="translate(331.87875 513.988312) scale(0.11 -0.11)">
      <defs>
       <path id="DejaVuSerif-Italic-43" d="M 4300 1234
Q 3966 581 3414 245
Q 2863 -91 2119 -91
Q 1663 -91 1303 65
Q 944 222 700 525
Q 419 875 334 1320
Q 250 1766 359 2328
Q 572 3416 1330 4083
Q 2088 4750 3116 4750
Q 3497 4750 3908 4650
Q 4319 4550 4775 4347
L 4569 3272
L 4216 3272
Q 4213 3859 3919 4137
Q 3625 4416 2997 4416
Q 2250 4416 1762 3886
Q 1275 3356 1075 2328
Q 875 1303 1156 773
Q 1438 244 2184 244
Q 2706 244 3092 492
Q 3478 741 3725 1234
L 4300 1234
z
" transform="scale(0.015625)"/>
       <path id="DejaVuSerif-Italic-4f" d="M 2219 244
Q 2984 244 3478 770
Q 3972 1297 4172 2328
Q 4372 3363 4084 3889
Q 3797 4416 3031 4416
Q 2263 4416 1769 3889
Q 1275 3363 1075 2328
Q 875 1297 1162 770
Q 1450 244 2219 244
z
M 2153 -91
Q 1678 -91 1311 65
Q 944 222 700 525
Q 419 875 334 1319
Q 250 1763 359 2328
Q 469 2894 725 3339
Q 981 3784 1400 4134
Q 1766 4441 2191 4595
Q 2616 4750 3097 4750
Q 4113 4750 4608 4084
Q 5103 3419 4891 2328
Q 4781 1769 4522 1320
Q 4263 872 3847 525
Q 3481 219 3056 64
Q 2631 -91 2153 -91
z
" transform="scale(0.015625)"/>
       <path id="DejaVuSerif-32" d="M 819 3553
L 469 3553
L 469 4384
Q 803 4563 1142 4656
Q 1481 4750 1806 4750
Q 2534 4750 2956 4397
Q 3378 4044 3378 3438
Q 3378 2753 2422 1800
Q 2347 1728 2309 1691
L 1131 513
L 3078 513
L 3078 1088
L 3444 1088
L 3444 0
L 434 0
L 434 341
L 1850 1753
Q 2319 2222 2519 2614
Q 2719 3006 2719 3438
Q 2719 3909 2473 4175
Q 2228 4441 1797 4441
Q 1350 4441 1106 4219
Q 863 3997 819 3553
z
" transform="scale(0.015625)"/>
       <path id="Cambria-20" transform="scale(0.015625)"/>
       <path id="Cambria-6c" d="M 1138 781
Q 1138 513 1163 408
Q 1188 303 1258 248
Q 1328 194 1488 153
L 1488 0
L 247 0
L 247 153
Q 403 194 464 237
Q 525 281 551 342
Q 578 403 589 508
Q 600 613 600 781
L 600 3397
Q 600 3697 595 3815
Q 591 3934 570 4017
Q 550 4100 514 4147
Q 478 4194 417 4222
Q 356 4250 197 4278
L 197 4441
L 950 4472
L 1138 4472
L 1138 781
z
" transform="scale(0.015625)"/>
       <path id="Cambria-6f" d="M 1663 -50
Q 1013 -50 670 333
Q 328 716 328 1466
Q 328 1981 508 2337
Q 688 2694 1000 2867
Q 1313 3041 1713 3041
Q 2381 3041 2725 2652
Q 3069 2263 3069 1534
Q 3069 1016 2897 659
Q 2725 303 2409 126
Q 2094 -50 1663 -50
z
M 919 1531
Q 919 888 1123 542
Q 1328 197 1709 197
Q 1919 197 2066 298
Q 2213 400 2305 572
Q 2397 744 2437 970
Q 2478 1197 2478 1444
Q 2478 1903 2376 2206
Q 2275 2509 2100 2651
Q 1925 2794 1700 2794
Q 1322 2794 1120 2466
Q 919 2138 919 1531
z
" transform="scale(0.015625)"/>
       <path id="Cambria-61" d="M 2109 447
L 2063 459
Q 1791 181 1552 65
Q 1313 -50 1044 -50
Q 806 -50 625 42
Q 444 134 347 301
Q 250 469 250 688
Q 250 1144 701 1392
Q 1153 1641 2056 1681
L 2056 1884
Q 2056 2209 1993 2396
Q 1931 2584 1797 2671
Q 1663 2759 1438 2759
Q 1194 2759 1045 2631
Q 897 2503 822 2247
L 413 2247
L 413 2653
Q 713 2809 913 2882
Q 1113 2956 1313 2998
Q 1513 3041 1719 3041
Q 2028 3041 2215 2942
Q 2403 2844 2497 2641
Q 2591 2438 2591 2028
L 2591 941
Q 2591 709 2594 614
Q 2597 519 2612 437
Q 2628 356 2659 307
Q 2691 259 2752 225
Q 2813 191 2950 153
L 2950 0
L 2094 0
L 2109 447
z
M 2056 1425
Q 1422 1419 1106 1256
Q 791 1094 791 766
Q 791 588 862 484
Q 934 381 1043 342
Q 1153 303 1303 303
Q 1516 303 1689 406
Q 1863 509 1959 668
Q 2056 828 2056 984
L 2056 1425
z
" transform="scale(0.015625)"/>
       <path id="Cambria-64" d="M 2413 3397
Q 2413 3697 2408 3815
Q 2403 3934 2383 4017
Q 2363 4100 2327 4147
Q 2291 4194 2230 4222
Q 2169 4250 2009 4278
L 2009 4441
L 2766 4472
L 2950 4472
L 2950 853
Q 2950 609 2959 504
Q 2969 400 3000 337
Q 3031 275 3098 236
Q 3166 197 3334 163
L 3334 0
L 2597 -31
L 2409 -31
L 2447 481
L 2400 494
Q 2203 284 2058 179
Q 1913 75 1748 12
Q 1584 -50 1397 -50
Q 884 -50 606 339
Q 328 728 328 1463
Q 328 1975 509 2333
Q 691 2691 998 2866
Q 1306 3041 1691 3041
Q 1897 3041 2065 3008
Q 2234 2975 2413 2900
L 2413 3397
z
M 2413 1853
Q 2413 2097 2391 2244
Q 2369 2391 2317 2491
Q 2266 2591 2178 2659
Q 2091 2728 1986 2759
Q 1881 2791 1734 2791
Q 1334 2791 1125 2470
Q 916 2150 916 1550
Q 916 950 1087 637
Q 1259 325 1609 325
Q 1747 325 1837 348
Q 1928 372 2015 423
Q 2103 475 2193 565
Q 2284 656 2326 731
Q 2369 806 2391 903
Q 2413 1000 2413 1153
L 2413 1853
z
" transform="scale(0.015625)"/>
       <path id="Cambria-69" d="M 1197 4213
L 1197 3606
L 622 3606
L 622 4213
L 1197 4213
z
M 303 153
Q 425 191 476 219
Q 528 247 564 297
Q 600 347 620 450
Q 641 553 641 772
L 641 2134
Q 641 2334 634 2456
Q 628 2578 590 2651
Q 553 2725 476 2761
Q 400 2797 259 2822
L 259 2988
L 988 3016
L 1178 3016
L 1178 781
Q 1178 513 1203 408
Q 1228 303 1298 248
Q 1369 194 1528 153
L 1528 0
L 303 0
L 303 153
z
" transform="scale(0.015625)"/>
       <path id="Cambria-6e" d="M 3347 0
L 2116 0
L 2116 153
Q 2238 191 2291 219
Q 2344 247 2380 297
Q 2416 347 2436 451
Q 2456 556 2456 769
L 2456 1588
Q 2456 1806 2443 1984
Q 2431 2163 2401 2277
Q 2372 2391 2330 2455
Q 2288 2519 2230 2564
Q 2172 2609 2097 2636
Q 2022 2663 1900 2663
Q 1778 2663 1668 2614
Q 1559 2566 1428 2447
Q 1297 2328 1237 2212
Q 1178 2097 1178 1947
L 1178 781
Q 1178 513 1203 408
Q 1228 303 1298 248
Q 1369 194 1528 153
L 1528 0
L 303 0
L 303 153
Q 425 191 476 219
Q 528 247 564 297
Q 600 347 620 450
Q 641 553 641 772
L 641 2134
Q 641 2334 634 2456
Q 628 2578 590 2651
Q 553 2725 476 2761
Q 400 2797 259 2822
L 259 2988
L 991 3016
L 1181 3016
L 1147 2506
L 1191 2494
Q 1422 2728 1564 2828
Q 1706 2928 1851 2983
Q 1997 3038 2159 3038
Q 2328 3038 2461 2998
Q 2594 2959 2695 2878
Q 2797 2797 2862 2676
Q 2928 2556 2961 2387
Q 2994 2219 2994 1959
L 2994 781
Q 2994 566 3006 469
Q 3019 372 3050 319
Q 3081 266 3140 230
Q 3200 194 3347 153
L 3347 0
z
" transform="scale(0.015625)"/>
       <path id="Cambria-67" d="M 3106 2672
L 2528 2694
L 2500 2659
Q 2597 2563 2653 2395
Q 2709 2228 2709 2034
Q 2709 1525 2395 1248
Q 2081 972 1503 972
Q 1244 972 1056 1038
Q 819 856 819 681
Q 819 566 864 506
Q 909 447 1014 422
Q 1119 397 1331 397
L 2081 397
Q 2413 397 2622 294
Q 2831 191 2920 17
Q 3009 -156 3009 -388
Q 3009 -681 2840 -911
Q 2672 -1141 2353 -1269
Q 2034 -1397 1609 -1397
Q 1294 -1397 1033 -1359
Q 772 -1322 586 -1233
Q 400 -1144 298 -998
Q 197 -853 197 -634
Q 197 -438 328 -277
Q 459 -116 700 6
Q 553 66 468 181
Q 384 297 384 453
Q 384 631 484 779
Q 584 928 838 1119
Q 613 1250 495 1475
Q 378 1700 378 1988
Q 378 2256 467 2454
Q 556 2653 714 2783
Q 872 2913 1087 2977
Q 1303 3041 1553 3041
Q 1778 3041 2000 2988
L 3106 2988
L 3106 2672
z
M 938 2038
Q 938 1647 1097 1434
Q 1256 1222 1556 1222
Q 1716 1222 1828 1283
Q 1941 1344 2011 1450
Q 2081 1556 2114 1695
Q 2147 1834 2147 1988
Q 2147 2263 2069 2447
Q 1991 2631 1856 2717
Q 1722 2803 1547 2803
Q 1250 2803 1094 2606
Q 938 2409 938 2038
z
M 1016 -50
Q 856 -169 776 -301
Q 697 -434 697 -603
Q 697 -884 920 -1017
Q 1144 -1150 1603 -1150
Q 1884 -1150 2086 -1075
Q 2288 -1000 2394 -859
Q 2500 -719 2500 -531
Q 2500 -444 2478 -361
Q 2456 -278 2395 -212
Q 2334 -147 2221 -108
Q 2109 -69 1928 -69
L 1463 -69
Q 1209 -69 1016 -50
z
" transform="scale(0.015625)"/>
       <path id="Cambria-2c" d="M 966 725
Q 1009 506 1009 294
Q 1009 75 934 -106
Q 859 -288 695 -467
Q 531 -647 244 -863
L 75 -672
Q 234 -522 306 -401
Q 378 -281 409 -128
Q 441 25 441 256
Q 441 494 419 725
L 966 725
z
" transform="scale(0.015625)"/>
       <path id="Cambria-6d" d="M 1147 2506
L 1191 2494
Q 1378 2681 1498 2776
Q 1619 2872 1731 2930
Q 1844 2988 1942 3013
Q 2041 3038 2144 3038
Q 2456 3038 2653 2894
Q 2850 2750 2925 2453
Q 3159 2691 3304 2803
Q 3450 2916 3601 2977
Q 3753 3038 3928 3038
Q 4138 3038 4289 2977
Q 4441 2916 4545 2789
Q 4650 2663 4698 2472
Q 4747 2281 4747 1959
L 4747 781
Q 4747 544 4762 453
Q 4778 363 4808 313
Q 4838 263 4897 227
Q 4956 191 5097 153
L 5097 0
L 3869 0
L 3869 153
Q 3991 191 4044 219
Q 4097 247 4133 297
Q 4169 347 4189 451
Q 4209 556 4209 769
L 4209 1588
Q 4209 1853 4195 2026
Q 4181 2200 4151 2303
Q 4122 2406 4080 2465
Q 4038 2525 3984 2569
Q 3931 2613 3859 2638
Q 3788 2663 3669 2663
Q 3544 2663 3436 2613
Q 3328 2563 3201 2444
Q 3075 2325 3019 2204
Q 2963 2084 2963 1922
L 2963 781
Q 2963 544 2978 453
Q 2994 363 3023 313
Q 3053 263 3112 227
Q 3172 191 3313 153
L 3313 0
L 2084 0
L 2084 153
Q 2206 191 2259 219
Q 2313 247 2348 297
Q 2384 347 2404 451
Q 2425 556 2425 769
L 2425 1588
Q 2425 1866 2409 2041
Q 2394 2216 2361 2322
Q 2328 2428 2276 2493
Q 2225 2559 2172 2593
Q 2119 2628 2047 2645
Q 1975 2663 1884 2663
Q 1756 2663 1643 2605
Q 1531 2547 1414 2437
Q 1297 2328 1237 2209
Q 1178 2091 1178 1953
L 1178 781
Q 1178 603 1187 509
Q 1197 416 1217 362
Q 1238 309 1269 276
Q 1300 244 1358 214
Q 1416 184 1531 153
L 1531 0
L 306 0
L 306 153
Q 425 191 476 219
Q 528 247 565 297
Q 603 347 622 450
Q 641 553 641 772
L 641 2134
Q 641 2334 634 2456
Q 628 2578 590 2651
Q 553 2725 476 2761
Q 400 2797 259 2822
L 259 2988
L 991 3016
L 1181 3016
L 1147 2506
z
" transform="scale(0.015625)"/>
       <path id="Cambria-2f" d="M 2941 4472
L 684 -1344
L 194 -1344
L 2456 4472
L 2941 4472
z
" transform="scale(0.015625)"/>
       <path id="Cambria-4d" d="M 4841 4113
Q 4703 4078 4642 4043
Q 4581 4009 4545 3957
Q 4509 3906 4492 3803
Q 4475 3700 4475 3484
L 4475 781
Q 4475 572 4489 475
Q 4503 378 4536 322
Q 4569 266 4633 228
Q 4697 191 4841 153
L 4841 0
L 3538 0
L 3538 153
Q 3716 197 3784 253
Q 3853 309 3878 418
Q 3903 528 3903 781
L 3903 1978
Q 3903 2450 3917 2933
Q 3931 3416 3950 3594
L 3897 3594
L 2659 497
L 2300 497
L 1150 3644
L 1097 3644
Q 1113 3453 1127 2953
Q 1141 2453 1141 1925
L 1141 781
Q 1141 572 1155 475
Q 1169 378 1201 322
Q 1234 266 1298 228
Q 1363 191 1506 153
L 1506 0
L 366 0
L 366 153
Q 559 203 625 264
Q 691 325 711 437
Q 731 550 731 781
L 731 3484
Q 731 3700 715 3798
Q 700 3897 664 3951
Q 628 4006 568 4039
Q 509 4072 366 4113
L 366 4266
L 1481 4266
L 2578 1225
L 3784 4266
L 4841 4266
L 4841 4113
z
" transform="scale(0.015625)"/>
       <path id="Cambria-45" d="M 3300 4266
L 3300 3322
L 2994 3322
Q 2947 3475 2897 3590
Q 2847 3706 2794 3784
Q 2741 3863 2677 3909
Q 2613 3956 2525 3973
Q 2438 3991 2316 3991
L 1328 3991
L 1328 2353
L 1997 2353
Q 2134 2353 2212 2392
Q 2291 2431 2342 2525
Q 2394 2619 2441 2819
L 2734 2819
L 2734 1619
L 2441 1619
Q 2397 1806 2344 1901
Q 2291 1997 2217 2037
Q 2144 2078 1997 2078
L 1328 2078
L 1328 275
L 2300 275
Q 2453 275 2548 301
Q 2644 328 2712 392
Q 2781 456 2834 559
Q 2888 663 2923 773
Q 2959 884 3022 1097
L 3331 1097
L 3272 0
L 378 0
L 378 153
Q 572 203 637 264
Q 703 325 723 437
Q 744 550 744 781
L 744 3484
Q 744 3700 728 3798
Q 713 3897 677 3951
Q 641 4006 581 4039
Q 522 4072 378 4113
L 378 4266
L 3300 4266
z
" transform="scale(0.015625)"/>
       <path id="Cambria-41" d="M 2488 0
L 2488 153
Q 2644 184 2720 221
Q 2797 259 2834 326
Q 2872 394 2872 506
Q 2872 613 2847 736
Q 2822 859 2775 1013
L 2659 1416
L 1203 1416
L 1097 1109
Q 1016 878 991 759
Q 966 641 966 544
Q 966 356 1061 268
Q 1156 181 1353 153
L 1353 0
L 19 0
L 19 153
Q 194 181 323 356
Q 453 531 575 856
L 1878 4316
L 2372 4316
L 3434 831
Q 3509 588 3567 459
Q 3625 331 3706 259
Q 3788 188 3928 153
L 3928 0
L 2488 0
z
M 1288 1688
L 2594 1688
L 2000 3703
L 1288 1688
z
" transform="scale(0.015625)"/>
      </defs>
      <use xlink:href="#DejaVuSerif-Italic-43" transform="translate(0 0.78125)"/>
      <use xlink:href="#DejaVuSerif-Italic-4f" transform="translate(76.513672 0.78125)"/>
      <use xlink:href="#DejaVuSerif-32" transform="translate(158.496094 -14.790625) scale(0.7)"/>
      <use xlink:href="#Cambria-20" transform="translate(205.627539 0.78125)"/>
      <use xlink:href="#Cambria-6c" transform="translate(225.274023 0.78125)"/>
      <use xlink:href="#Cambria-6f" transform="translate(252.422461 0.78125)"/>
      <use xlink:href="#Cambria-61" transform="translate(305.498633 0.78125)"/>
      <use xlink:href="#Cambria-64" transform="translate(354.326758 0.78125)"/>
      <use xlink:href="#Cambria-69" transform="translate(409.795508 0.78125)"/>
      <use xlink:href="#Cambria-6e" transform="translate(437.578711 0.78125)"/>
      <use xlink:href="#Cambria-67" transform="translate(493.389258 0.78125)"/>
      <use xlink:href="#Cambria-2c" transform="translate(542.80332 0.78125)"/>
      <use xlink:href="#Cambria-20" transform="translate(563.311133 0.78125)"/>
      <use xlink:href="#Cambria-6d" transform="translate(582.957617 0.78125)"/>
      <use xlink:href="#Cambria-6f" transform="translate(666.160742 0.78125)"/>
      <use xlink:href="#Cambria-6c" transform="translate(719.236914 0.78125)"/>
      <use xlink:href="#Cambria-20" transform="translate(746.385352 0.78125)"/>
      <use xlink:href="#DejaVuSerif-Italic-43" transform="translate(768.406836 0.78125)"/>
      <use xlink:href="#DejaVuSerif-Italic-4f" transform="translate(844.920508 0.78125)"/>
      <use xlink:href="#DejaVuSerif-32" transform="translate(926.90293 -14.790625) scale(0.7)"/>
      <use xlink:href="#Cambria-2f" transform="translate(974.034375 0.78125)"/>
      <use xlink:href="#Cambria-6d" transform="translate(1023.057812 0.78125)"/>
      <use xlink:href="#Cambria-6f" transform="translate(1106.260937 0.78125)"/>
      <use xlink:href="#Cambria-6c" transform="translate(1159.337109 0.78125)"/>
      <use xlink:href="#Cambria-20" transform="translate(1186.485547 0.78125)"/>
      <use xlink:href="#Cambria-4d" transform="translate(1208.507031 0.78125)"/>
      <use xlink:href="#Cambria-45" transform="translate(1290.05 0.78125)"/>
      <use xlink:href="#Cambria-41" transform="translate(1347.569531 0.78125)"/>
     </g>
    </g>
   </g>
   <g id="matplotlib.axis_2">
    <g id="ytick_1">
     <g id="line2d_12">
      <defs>
       <path id="mec54732e2a" d="M 0 0
L -4.5 0
" style="stroke: #000000; stroke-width: 0.9"/>
      </defs>
      <g>
       <use xlink:href="#mec54732e2a" x="53.47875" y="484.196437" style="stroke: #000000; stroke-width: 0.9"/>
      </g>
     </g>
     <g id="text_13">
      <!-- $\mathdefault{10^{-14}}$ -->
      <g transform="translate(21.22375 487.864875) scale(0.105 -0.105)">
       <defs>
        <path id="Cambria-2212" d="M 397 1613
L 397 2047
L 3147 2047
L 3147 1613
L 397 1613
z
" transform="scale(0.015625)"/>
       </defs>
       <use xlink:href="#Cambria-31" transform="translate(0 0.1125)"/>
       <use xlink:href="#Cambria-30" transform="translate(55.371094 0.1125)"/>
       <use xlink:href="#Cambria-2212" transform="translate(111.559219 32.79375) scale(0.7)"/>
       <use xlink:href="#Cambria-31" transform="translate(150.318984 32.79375) scale(0.7)"/>
       <use xlink:href="#Cambria-34" transform="translate(189.07875 32.79375) scale(0.7)"/>
      </g>
     </g>
    </g>
    <g id="ytick_2">
     <g id="line2d_13">
      <g>
       <use xlink:href="#mec54732e2a" x="53.47875" y="450.387295" style="stroke: #000000; stroke-width: 0.9"/>
      </g>
     </g>
     <g id="text_14">
      <!-- $\mathdefault{10^{-13}}$ -->
      <g transform="translate(21.22375 454.055732) scale(0.105 -0.105)">
       <use xlink:href="#Cambria-31" transform="translate(0 0.1125)"/>
       <use xlink:href="#Cambria-30" transform="translate(55.371094 0.1125)"/>
       <use xlink:href="#Cambria-2212" transform="translate(111.559219 32.79375) scale(0.7)"/>
       <use xlink:href="#Cambria-31" transform="translate(150.318984 32.79375) scale(0.7)"/>
       <use xlink:href="#Cambria-33" transform="translate(189.07875 32.79375) scale(0.7)"/>
      </g>
     </g>
    </g>
    <g id="ytick_3">
     <g id="line2d_14">
      <g>
       <use xlink:href="#mec54732e2a" x="53.47875" y="416.578152" style="stroke: #000000; stroke-width: 0.9"/>
      </g>
     </g>
     <g id="text_15">
      <!-- $\mathdefault{10^{-12}}$ -->
      <g transform="translate(21.22375 420.246589) scale(0.105 -0.105)">
       <use xlink:href="#Cambria-31" transform="translate(0 0.1125)"/>
       <use xlink:href="#Cambria-30" transform="translate(55.371094 0.1125)"/>
       <use xlink:href="#Cambria-2212" transform="translate(111.559219 32.79375) scale(0.7)"/>
       <use xlink:href="#Cambria-31" transform="translate(150.318984 32.79375) scale(0.7)"/>
       <use xlink:href="#Cambria-32" transform="translate(189.07875 32.79375) scale(0.7)"/>
      </g>
     </g>
    </g>
    <g id="ytick_4">
     <g id="line2d_15">
      <g>
       <use xlink:href="#mec54732e2a" x="53.47875" y="382.769009" style="stroke: #000000; stroke-width: 0.9"/>
      </g>
     </g>
     <g id="text_16">
      <!-- $\mathdefault{10^{-11}}$ -->
      <g transform="translate(21.22375 386.437446) scale(0.105 -0.105)">
       <use xlink:href="#Cambria-31" transform="translate(0 0.1125)"/>
       <use xlink:href="#Cambria-30" transform="translate(55.371094 0.1125)"/>
       <use xlink:href="#Cambria-2212" transform="translate(111.559219 32.79375) scale(0.7)"/>
       <use xlink:href="#Cambria-31" transform="translate(150.318984 32.79375) scale(0.7)"/>
       <use xlink:href="#Cambria-31" transform="translate(189.07875 32.79375) scale(0.7)"/>
      </g>
     </g>
    </g>
    <g id="ytick_5">
     <g id="line2d_16">
      <g>
       <use xlink:href="#mec54732e2a" x="53.47875" y="348.959866" style="stroke: #000000; stroke-width: 0.9"/>
      </g>
     </g>
     <g id="text_17">
      <!-- $\mathdefault{10^{-10}}$ -->
      <g transform="translate(21.22375 352.628304) scale(0.105 -0.105)">
       <use xlink:href="#Cambria-31" transform="translate(0 0.1125)"/>
       <use xlink:href="#Cambria-30" transform="translate(55.371094 0.1125)"/>
       <use xlink:href="#Cambria-2212" transform="translate(111.559219 32.79375) scale(0.7)"/>
       <use xlink:href="#Cambria-31" transform="translate(150.318984 32.79375) scale(0.7)"/>
       <use xlink:href="#Cambria-30" transform="translate(189.07875 32.79375) scale(0.7)"/>
      </g>
     </g>
    </g>
    <g id="ytick_6">
     <g id="line2d_17">
      <g>
       <use xlink:href="#mec54732e2a" x="53.47875" y="315.150723" style="stroke: #000000; stroke-width: 0.9"/>
      </g>
     </g>
     <g id="text_18">
      <!-- $\mathdefault{10^{-9}}$ -->
      <g transform="translate(25.31875 318.819161) scale(0.105 -0.105)">
       <defs>
        <path id="Cambria-39" d="M 978 122
L 978 275
Q 1416 275 1736 469
Q 2056 663 2251 1042
Q 2447 1422 2513 2038
L 2481 2050
Q 2219 1863 1964 1775
Q 1709 1688 1413 1688
Q 1059 1688 811 1842
Q 563 1997 438 2276
Q 313 2556 313 2931
Q 313 3213 406 3464
Q 500 3716 684 3905
Q 869 4094 1145 4205
Q 1422 4316 1791 4316
Q 2447 4316 2790 3862
Q 3134 3409 3134 2559
Q 3134 1781 2881 1211
Q 2628 641 2172 323
Q 1716 6 1106 -50
L 978 122
z
M 1628 2016
Q 1747 2016 1855 2036
Q 1963 2056 2066 2095
Q 2169 2134 2267 2195
Q 2366 2256 2444 2325
Q 2472 2350 2494 2390
Q 2516 2431 2528 2497
Q 2541 2563 2541 2703
Q 2541 3131 2455 3436
Q 2369 3741 2192 3895
Q 2016 4050 1756 4050
Q 1522 4050 1359 3969
Q 1197 3888 1095 3745
Q 994 3603 947 3411
Q 900 3219 900 2994
Q 900 2528 1090 2272
Q 1281 2016 1628 2016
z
" transform="scale(0.015625)"/>
       </defs>
       <use xlink:href="#Cambria-31" transform="translate(0 0.1125)"/>
       <use xlink:href="#Cambria-30" transform="translate(55.371094 0.1125)"/>
       <use xlink:href="#Cambria-2212" transform="translate(111.559219 32.79375) scale(0.7)"/>
       <use xlink:href="#Cambria-39" transform="translate(150.318984 32.79375) scale(0.7)"/>
      </g>
     </g>
    </g>
    <g id="ytick_7">
     <g id="line2d_18">
      <g>
       <use xlink:href="#mec54732e2a" x="53.47875" y="281.34158" style="stroke: #000000; stroke-width: 0.9"/>
      </g>
     </g>
     <g id="text_19">
      <!-- $\mathdefault{10^{-8}}$ -->
      <g transform="translate(25.31875 285.010018) scale(0.105 -0.105)">
       <use xlink:href="#Cambria-31" transform="translate(0 0.1125)"/>
       <use xlink:href="#Cambria-30" transform="translate(55.371094 0.1125)"/>
       <use xlink:href="#Cambria-2212" transform="translate(111.559219 32.79375) scale(0.7)"/>
       <use xlink:href="#Cambria-38" transform="translate(150.318984 32.79375) scale(0.7)"/>
      </g>
     </g>
    </g>
    <g id="ytick_8">
     <g id="line2d_19">
      <g>
       <use xlink:href="#mec54732e2a" x="53.47875" y="247.532437" style="stroke: #000000; stroke-width: 0.9"/>
      </g>
     </g>
     <g id="text_20">
      <!-- $\mathdefault{10^{-7}}$ -->
      <g transform="translate(25.31875 251.200875) scale(0.105 -0.105)">
       <use xlink:href="#Cambria-31" transform="translate(0 0.659375)"/>
       <use xlink:href="#Cambria-30" transform="translate(55.371094 0.659375)"/>
       <use xlink:href="#Cambria-2212" transform="translate(111.559219 33.340625) scale(0.7)"/>
       <use xlink:href="#Cambria-37" transform="translate(150.318984 33.340625) scale(0.7)"/>
      </g>
     </g>
    </g>
    <g id="ytick_9">
     <g id="line2d_20">
      <g>
       <use xlink:href="#mec54732e2a" x="53.47875" y="213.723295" style="stroke: #000000; stroke-width: 0.9"/>
      </g>
     </g>
     <g id="text_21">
      <!-- $\mathdefault{10^{-6}}$ -->
      <g transform="translate(25.31875 217.391732) scale(0.105 -0.105)">
       <use xlink:href="#Cambria-31" transform="translate(0 0.1125)"/>
       <use xlink:href="#Cambria-30" transform="translate(55.371094 0.1125)"/>
       <use xlink:href="#Cambria-2212" transform="translate(111.559219 32.79375) scale(0.7)"/>
       <use xlink:href="#Cambria-36" transform="translate(150.318984 32.79375) scale(0.7)"/>
      </g>
     </g>
    </g>
    <g id="ytick_10">
     <g id="line2d_21">
      <g>
       <use xlink:href="#mec54732e2a" x="53.47875" y="179.914152" style="stroke: #000000; stroke-width: 0.9"/>
      </g>
     </g>
     <g id="text_22">
      <!-- $\mathdefault{10^{-5}}$ -->
      <g transform="translate(25.31875 183.582589) scale(0.105 -0.105)">
       <use xlink:href="#Cambria-31" transform="translate(0 0.40625)"/>
       <use xlink:href="#Cambria-30" transform="translate(55.371094 0.40625)"/>
       <use xlink:href="#Cambria-2212" transform="translate(111.559219 33.0875) scale(0.7)"/>
       <use xlink:href="#Cambria-35" transform="translate(150.318984 33.0875) scale(0.7)"/>
      </g>
     </g>
    </g>
    <g id="ytick_11">
     <g id="line2d_22">
      <g>
       <use xlink:href="#mec54732e2a" x="53.47875" y="146.105009" style="stroke: #000000; stroke-width: 0.9"/>
      </g>
     </g>
     <g id="text_23">
      <!-- $\mathdefault{10^{-4}}$ -->
      <g transform="translate(25.31875 149.773446) scale(0.105 -0.105)">
       <use xlink:href="#Cambria-31" transform="translate(0 0.41875)"/>
       <use xlink:href="#Cambria-30" transform="translate(55.371094 0.41875)"/>
       <use xlink:href="#Cambria-2212" transform="translate(111.559219 33.1) scale(0.7)"/>
       <use xlink:href="#Cambria-34" transform="translate(150.318984 33.1) scale(0.7)"/>
      </g>
     </g>
    </g>
    <g id="ytick_12">
     <g id="line2d_23">
      <g>
       <use xlink:href="#mec54732e2a" x="53.47875" y="112.295866" style="stroke: #000000; stroke-width: 0.9"/>
      </g>
     </g>
     <g id="text_24">
      <!-- $\mathdefault{10^{-3}}$ -->
      <g transform="translate(25.31875 115.964304) scale(0.105 -0.105)">
       <use xlink:href="#Cambria-31" transform="translate(0 0.1125)"/>
       <use xlink:href="#Cambria-30" transform="translate(55.371094 0.1125)"/>
       <use xlink:href="#Cambria-2212" transform="translate(111.559219 32.79375) scale(0.7)"/>
       <use xlink:href="#Cambria-33" transform="translate(150.318984 32.79375) scale(0.7)"/>
      </g>
     </g>
    </g>
    <g id="ytick_13">
     <g id="line2d_24">
      <g>
       <use xlink:href="#mec54732e2a" x="53.47875" y="78.486723" style="stroke: #000000; stroke-width: 0.9"/>
      </g>
     </g>
     <g id="text_25">
      <!-- $\mathdefault{10^{-2}}$ -->
      <g transform="translate(25.31875 82.155161) scale(0.105 -0.105)">
       <use xlink:href="#Cambria-31" transform="translate(0 0.1125)"/>
       <use xlink:href="#Cambria-30" transform="translate(55.371094 0.1125)"/>
       <use xlink:href="#Cambria-2212" transform="translate(111.559219 32.79375) scale(0.7)"/>
       <use xlink:href="#Cambria-32" transform="translate(150.318984 32.79375) scale(0.7)"/>
      </g>
     </g>
    </g>
    <g id="ytick_14">
     <g id="line2d_25">
      <g>
       <use xlink:href="#mec54732e2a" x="53.47875" y="44.67758" style="stroke: #000000; stroke-width: 0.9"/>
      </g>
     </g>
     <g id="text_26">
      <!-- $\mathdefault{10^{-1}}$ -->
      <g transform="translate(25.31875 48.346018) scale(0.105 -0.105)">
       <use xlink:href="#Cambria-31" transform="translate(0 0.1125)"/>
       <use xlink:href="#Cambria-30" transform="translate(55.371094 0.1125)"/>
       <use xlink:href="#Cambria-2212" transform="translate(111.559219 32.79375) scale(0.7)"/>
       <use xlink:href="#Cambria-31" transform="translate(150.318984 32.79375) scale(0.7)"/>
      </g>
     </g>
    </g>
    <g id="ytick_15">
     <g id="line2d_26">
      <g>
       <use xlink:href="#mec54732e2a" x="53.47875" y="10.868437" style="stroke: #000000; stroke-width: 0.9"/>
      </g>
     </g>
     <g id="text_27">
      <!-- $\mathdefault{10^{0}}$ -->
      <g transform="translate(29.41375 14.536875) scale(0.105 -0.105)">
       <use xlink:href="#Cambria-31" transform="translate(0 0.1125)"/>
       <use xlink:href="#Cambria-30" transform="translate(55.371094 0.1125)"/>
       <use xlink:href="#Cambria-30" transform="translate(111.559219 32.79375) scale(0.7)"/>
      </g>
     </g>
    </g>
    <g id="text_28">
     <!-- True-species mole fraction -->
     <g transform="translate(14.91375 310.055406) rotate(-90) scale(0.11 -0.11)">
      <defs>
       <path id="Cambria-54" d="M 206 4266
L 3588 4266
L 3588 3178
L 3281 3178
Q 3213 3447 3145 3603
Q 3078 3759 3003 3840
Q 2928 3922 2842 3956
Q 2756 3991 2584 3991
L 2188 3991
L 2188 791
Q 2188 606 2208 497
Q 2228 388 2270 323
Q 2313 259 2384 223
Q 2456 188 2609 153
L 2609 0
L 1181 0
L 1181 153
Q 1275 175 1347 200
Q 1419 225 1464 261
Q 1509 297 1539 353
Q 1569 409 1586 506
Q 1603 603 1603 791
L 1603 3991
L 1209 3991
Q 1063 3991 967 3962
Q 872 3934 790 3845
Q 709 3756 642 3592
Q 575 3428 516 3178
L 206 3178
L 206 4266
z
" transform="scale(0.015625)"/>
       <path id="Cambria-72" d="M 1147 2469
L 1191 2459
Q 1363 2669 1509 2789
Q 1656 2909 1826 2975
Q 1997 3041 2213 3041
Q 2394 3041 2541 3022
L 2541 2303
L 2188 2303
Q 2113 2472 2028 2548
Q 1944 2625 1797 2625
Q 1684 2625 1573 2559
Q 1463 2494 1359 2369
Q 1256 2244 1217 2134
Q 1178 2025 1178 1875
L 1178 781
Q 1178 497 1212 389
Q 1247 281 1326 231
Q 1406 181 1566 153
L 1566 0
L 306 0
L 306 153
Q 425 191 476 219
Q 528 247 565 297
Q 603 347 622 450
Q 641 553 641 772
L 641 2134
Q 641 2334 634 2456
Q 628 2578 590 2651
Q 553 2725 476 2761
Q 400 2797 259 2822
L 259 2984
L 991 3016
L 1181 3016
L 1147 2469
z
" transform="scale(0.015625)"/>
       <path id="Cambria-75" d="M 228 2988
L 1119 2988
L 1119 1397
Q 1119 1031 1147 840
Q 1175 650 1231 553
Q 1288 456 1391 390
Q 1494 325 1675 325
Q 1794 325 1903 372
Q 2013 419 2147 536
Q 2281 653 2339 768
Q 2397 884 2397 1038
L 2397 2209
Q 2397 2388 2387 2478
Q 2378 2569 2356 2623
Q 2334 2678 2304 2712
Q 2275 2747 2220 2775
Q 2166 2803 2044 2834
L 2044 2988
L 2934 2988
L 2934 853
Q 2934 613 2943 506
Q 2953 400 2984 337
Q 3016 275 3081 236
Q 3147 197 3316 163
L 3316 0
L 2600 -31
L 2409 -31
L 2428 481
L 2381 494
Q 2122 213 1886 81
Q 1650 -50 1413 -50
Q 1128 -50 943 62
Q 759 175 668 398
Q 578 622 578 1028
L 578 2209
Q 578 2472 558 2570
Q 538 2669 480 2726
Q 422 2784 228 2834
L 228 2988
z
" transform="scale(0.015625)"/>
       <path id="Cambria-65" d="M 2800 531
Q 2600 322 2433 203
Q 2266 84 2066 17
Q 1866 -50 1625 -50
Q 981 -50 653 336
Q 325 722 325 1475
Q 325 1941 492 2297
Q 659 2653 968 2847
Q 1278 3041 1681 3041
Q 1997 3041 2219 2941
Q 2441 2841 2573 2667
Q 2706 2494 2779 2230
Q 2853 1966 2863 1541
L 894 1541
L 894 1484
Q 894 1116 976 864
Q 1059 613 1248 470
Q 1438 328 1741 328
Q 1997 328 2201 423
Q 2406 519 2609 734
L 2800 531
z
M 2275 1800
Q 2256 2138 2190 2352
Q 2125 2566 1994 2680
Q 1863 2794 1650 2794
Q 1328 2794 1136 2536
Q 944 2278 909 1800
L 2275 1800
z
" transform="scale(0.015625)"/>
       <path id="Cambria-2d" d="M 1788 1403
L 338 1403
L 338 1888
L 1788 1888
L 1788 1403
z
" transform="scale(0.015625)"/>
       <path id="Cambria-73" d="M 2397 2303
L 2097 2303
Q 2028 2491 1934 2598
Q 1841 2706 1722 2750
Q 1603 2794 1431 2794
Q 1181 2794 1032 2676
Q 884 2559 884 2356
Q 884 2213 943 2119
Q 1003 2025 1128 1944
Q 1253 1863 1569 1728
Q 1888 1591 2061 1475
Q 2234 1359 2332 1206
Q 2431 1053 2431 841
Q 2431 594 2347 425
Q 2263 256 2109 150
Q 1956 44 1745 -3
Q 1534 -50 1284 -50
Q 1022 -50 775 -11
Q 528 28 294 91
L 294 744
L 600 744
Q 684 456 850 326
Q 1016 197 1306 197
Q 1419 197 1526 220
Q 1634 244 1718 298
Q 1803 353 1853 447
Q 1903 541 1903 681
Q 1903 841 1840 941
Q 1778 1041 1647 1123
Q 1516 1206 1184 1347
Q 900 1466 728 1578
Q 556 1691 457 1844
Q 359 1997 359 2206
Q 359 2463 498 2652
Q 638 2841 900 2941
Q 1163 3041 1516 3041
Q 1722 3041 1914 3020
Q 2106 3000 2397 2941
L 2397 2303
z
" transform="scale(0.015625)"/>
       <path id="Cambria-70" d="M 1150 94
L 1150 -566
Q 1150 -769 1164 -869
Q 1178 -969 1214 -1026
Q 1250 -1084 1317 -1121
Q 1384 -1159 1534 -1191
L 1534 -1344
L 259 -1344
L 259 -1191
Q 372 -1159 442 -1126
Q 513 -1094 550 -1030
Q 588 -966 600 -856
Q 613 -747 613 -566
L 613 2116
Q 613 2341 606 2436
Q 600 2531 581 2593
Q 563 2656 527 2697
Q 491 2738 430 2766
Q 369 2794 228 2822
L 228 2988
L 963 3016
L 1153 3016
L 1113 2506
L 1159 2494
Q 1353 2691 1465 2780
Q 1578 2869 1698 2928
Q 1819 2988 1930 3013
Q 2041 3038 2166 3038
Q 2681 3038 2957 2652
Q 3234 2266 3234 1522
Q 3234 1006 3078 654
Q 2922 303 2623 126
Q 2325 -50 1913 -50
Q 1681 -50 1493 -11
Q 1306 28 1150 94
z
M 1150 1125
Q 1150 825 1187 662
Q 1225 500 1320 398
Q 1416 297 1545 247
Q 1675 197 1888 197
Q 2266 197 2456 511
Q 2647 825 2647 1438
Q 2647 2663 1931 2663
Q 1756 2663 1629 2608
Q 1503 2553 1378 2431
Q 1253 2309 1201 2195
Q 1150 2081 1150 1950
L 1150 1125
z
" transform="scale(0.015625)"/>
       <path id="Cambria-63" d="M 2631 2916
L 2631 2263
L 2234 2263
Q 2181 2466 2103 2583
Q 2025 2700 1922 2747
Q 1819 2794 1666 2794
Q 1447 2794 1278 2653
Q 1109 2513 1011 2225
Q 913 1938 913 1522
Q 913 1256 950 1036
Q 988 816 1078 659
Q 1169 503 1319 415
Q 1469 328 1691 328
Q 1906 328 2092 412
Q 2278 497 2478 709
L 2656 503
Q 2497 328 2375 233
Q 2253 138 2114 73
Q 1975 9 1839 -20
Q 1703 -50 1544 -50
Q 953 -50 640 342
Q 328 734 328 1475
Q 328 1938 503 2295
Q 678 2653 993 2847
Q 1309 3041 1722 3041
Q 1978 3041 2195 3011
Q 2413 2981 2631 2916
z
" transform="scale(0.015625)"/>
       <path id="Cambria-66" d="M 1909 2672
L 1163 2672
L 1163 781
Q 1163 572 1183 465
Q 1203 359 1242 304
Q 1281 250 1345 217
Q 1409 184 1550 153
L 1550 0
L 272 0
L 272 153
Q 409 191 468 225
Q 528 259 561 312
Q 594 366 609 466
Q 625 566 625 781
L 625 2672
L 247 2672
L 247 2831
Q 366 2850 405 2861
Q 444 2872 480 2894
Q 516 2916 542 2956
Q 569 2997 589 3076
Q 609 3156 622 3300
Q 650 3641 745 3853
Q 841 4066 1023 4216
Q 1206 4366 1414 4427
Q 1622 4488 1903 4488
Q 2150 4488 2322 4453
L 2322 3888
L 2013 3888
Q 1953 4072 1873 4148
Q 1794 4225 1650 4225
Q 1547 4225 1476 4197
Q 1406 4169 1347 4109
Q 1288 4050 1245 3950
Q 1203 3850 1183 3701
Q 1163 3553 1163 3316
L 1163 2988
L 1909 2988
L 1909 2672
z
" transform="scale(0.015625)"/>
       <path id="Cambria-74" d="M 116 2831
Q 272 2856 369 2918
Q 466 2981 520 3079
Q 575 3178 606 3326
Q 638 3475 672 3759
L 1116 3759
L 1116 2988
L 2125 2988
L 2125 2672
L 1116 2672
L 1116 1281
Q 1116 978 1141 798
Q 1166 619 1234 517
Q 1303 416 1390 372
Q 1478 328 1616 328
Q 1741 328 1850 379
Q 1959 431 2066 528
L 2206 359
Q 1984 144 1786 47
Q 1588 -50 1375 -50
Q 972 -50 775 189
Q 578 428 578 938
L 578 2672
L 116 2672
L 116 2831
z
" transform="scale(0.015625)"/>
      </defs>
      <use xlink:href="#Cambria-54"/>
      <use xlink:href="#Cambria-72" transform="translate(55.902344 0)"/>
      <use xlink:href="#Cambria-75" transform="translate(97.259766 0)"/>
      <use xlink:href="#Cambria-65" transform="translate(152.484375 0)"/>
      <use xlink:href="#Cambria-2d" transform="translate(201.263672 0)"/>
      <use xlink:href="#Cambria-73" transform="translate(234.466797 0)"/>
      <use xlink:href="#Cambria-70" transform="translate(277.435547 0)"/>
      <use xlink:href="#Cambria-65" transform="translate(333.050781 0)"/>
      <use xlink:href="#Cambria-63" transform="translate(381.830078 0)"/>
      <use xlink:href="#Cambria-69" transform="translate(425.921875 0)"/>
      <use xlink:href="#Cambria-65" transform="translate(453.705078 0)"/>
      <use xlink:href="#Cambria-73" transform="translate(502.484375 0)"/>
      <use xlink:href="#Cambria-20" transform="translate(545.453125 0)"/>
      <use xlink:href="#Cambria-6d" transform="translate(567.474609 0)"/>
      <use xlink:href="#Cambria-6f" transform="translate(650.677734 0)"/>
      <use xlink:href="#Cambria-6c" transform="translate(703.753906 0)"/>
      <use xlink:href="#Cambria-65" transform="translate(730.902344 0)"/>
      <use xlink:href="#Cambria-20" transform="translate(779.681641 0)"/>
      <use xlink:href="#Cambria-66" transform="translate(801.703125 0)"/>
      <use xlink:href="#Cambria-72" transform="translate(831.976562 0)"/>
      <use xlink:href="#Cambria-61" transform="translate(873.333984 0)"/>
      <use xlink:href="#Cambria-63" transform="translate(922.162109 0)"/>
      <use xlink:href="#Cambria-74" transform="translate(966.253906 0)"/>
      <use xlink:href="#Cambria-69" transform="translate(1000.091797 0)"/>
      <use xlink:href="#Cambria-6f" transform="translate(1027.875 0)"/>
      <use xlink:href="#Cambria-6e" transform="translate(1080.951172 0)"/>
     </g>
    </g>
   </g>
   <g id="line2d_27">
    <path d="M 54.1286 524.608312
L 57.928125 405.390419
L 62.3775 386.37734
L 66.826875 374.461198
L 71.27625 365.775953
L 75.725625 358.928585
L 80.175 353.261765
L 84.624375 348.415036
L 89.07375 344.170059
L 93.523125 340.384815
L 97.9725 336.96184
L 102.421875 333.831391
L 106.87125 330.941857
L 111.320625 328.253982
L 115.77 325.737207
L 120.219375 323.367282
L 129.118125 318.993222
L 138.016875 315.013079
L 146.915625 311.343616
L 155.814375 307.924106
L 164.713125 304.708769
L 178.06125 300.193067
L 191.409375 295.967766
L 204.7575 291.965739
L 222.555 286.889265
L 244.801875 280.830967
L 275.9475 272.634172
L 320.44125 260.92187
L 342.688125 254.81313
L 360.485625 249.683522
L 373.83375 245.638063
L 387.181875 241.372336
L 400.53 236.830218
L 409.42875 233.614987
L 418.3275 230.221958
L 427.22625 226.623098
L 436.125 222.786846
L 445.02375 218.678952
L 453.9225 214.264913
L 462.82125 209.515369
L 471.72 204.416051
L 480.61875 198.982899
L 489.5175 193.278768
L 516.21375 175.867085
L 525.1125 170.447139
L 534.01125 165.370053
L 542.91 160.653944
L 551.80875 156.286308
L 560.7075 152.239195
L 569.60625 148.479278
L 578.505 144.973351
L 587.40375 141.690859
L 596.3025 138.60478
L 605.20125 135.691693
L 618.549375 131.603278
L 631.8975 127.803632
L 645.245625 124.248574
L 658.59375 120.903069
L 676.39125 116.720932
L 694.18875 112.810976
L 711.98625 109.134828
L 729.78375 105.663827
L 752.030625 101.581748
L 765.37875 99.257967
L 765.37875 99.257967
" clip-path="url(#p68ecc62898)" style="fill: none; stroke-dasharray: 8.14,3.52; stroke-dashoffset: 0; stroke: #16805a; stroke-width: 2.2"/>
   </g>
   <g id="line2d_28">
    <defs>
     <path id="m8fdea4f5c4" d="M 0 3.4
C 0.901691 3.4 1.766572 3.041755 2.404163 2.404163
C 3.041755 1.766572 3.4 0.901691 3.4 0
C 3.4 -0.901691 3.041755 -1.766572 2.404163 -2.404163
C 1.766572 -3.041755 0.901691 -3.4 0 -3.4
C -0.901691 -3.4 -1.766572 -3.041755 -2.404163 -2.404163
C -3.041755 -1.766572 -3.4 -0.901691 -3.4 0
C -3.4 0.901691 -3.041755 1.766572 -2.404163 2.404163
C -1.766572 3.041755 -0.901691 3.4 0 3.4
z
"/>
    </defs>
    <g clip-path="url(#p68ecc62898)">
     <use xlink:href="#m8fdea4f5c4" x="747.58125" y="122.473432" style="fill: #16805a; fill-opacity: 0.78"/>
     <use xlink:href="#m8fdea4f5c4" x="880.172625" y="89.888592" style="fill: #16805a; fill-opacity: 0.78"/>
     <use xlink:href="#m8fdea4f5c4" x="920.217" y="84.587788" style="fill: #16805a; fill-opacity: 0.78"/>
     <use xlink:href="#m8fdea4f5c4" x="934.455" y="103.665321" style="fill: #16805a; fill-opacity: 0.78"/>
    </g>
   </g>
   <g id="line2d_29">
    <path d="M 53.47875 43.056285
L 71.27625 43.594815
L 115.77 45.193687
L 160.26375 46.996711
L 200.308125 48.832394
L 235.903125 50.679405
L 267.04875 52.507228
L 293.745 54.273286
L 320.44125 56.27348
L 342.688125 58.167711
L 360.485625 59.871102
L 378.283125 61.783495
L 396.080625 63.957995
L 409.42875 65.803697
L 422.776875 67.877493
L 436.125 70.229711
L 445.02375 71.981801
L 453.9225 73.902971
L 462.82125 76.010152
L 471.72 78.313444
L 480.61875 80.808439
L 493.966875 84.841948
L 520.663125 93.1202
L 534.01125 96.915223
L 542.91 99.246846
L 556.258125 102.452471
L 569.60625 105.346019
L 582.954375 107.978041
L 596.3025 110.395212
L 614.1 113.350196
L 631.8975 116.063745
L 654.144375 119.195881
L 676.39125 122.107531
L 703.0875 125.38189
L 734.233125 128.97168
L 765.37875 132.365701
L 765.37875 132.365701
" clip-path="url(#p68ecc62898)" style="fill: none; stroke-dasharray: 8.14,3.52; stroke-dashoffset: 0; stroke: #1f5aa6; stroke-width: 2.2"/>
   </g>
   <g id="line2d_30">
    <defs>
     <path id="mdad9a8bb09" d="M 0 3.4
C 0.901691 3.4 1.766572 3.041755 2.404163 2.404163
C 3.041755 1.766572 3.4 0.901691 3.4 0
C 3.4 -0.901691 3.041755 -1.766572 2.404163 -2.404163
C 1.766572 -3.041755 0.901691 -3.4 0 -3.4
C -0.901691 -3.4 -1.766572 -3.041755 -2.404163 -2.404163
C -3.041755 -1.766572 -3.4 -0.901691 -3.4 0
C -3.4 0.901691 -3.041755 1.766572 -2.404163 2.404163
C -1.766572 3.041755 -0.901691 3.4 0 3.4
z
"/>
    </defs>
    <g clip-path="url(#p68ecc62898)">
     <use xlink:href="#mdad9a8bb09" x="147.8055" y="45.9819" style="fill: #1f5aa6; fill-opacity: 0.78"/>
     <use xlink:href="#mdad9a8bb09" x="151.365" y="44.386816" style="fill: #1f5aa6; fill-opacity: 0.78"/>
     <use xlink:href="#mdad9a8bb09" x="167.38275" y="46.773102" style="fill: #1f5aa6; fill-opacity: 0.78"/>
     <use xlink:href="#mdad9a8bb09" x="186.96" y="47.645277" style="fill: #1f5aa6; fill-opacity: 0.78"/>
     <use xlink:href="#mdad9a8bb09" x="207.427125" y="48.553419" style="fill: #1f5aa6; fill-opacity: 0.78"/>
     <use xlink:href="#mdad9a8bb09" x="227.004375" y="49.54189" style="fill: #1f5aa6; fill-opacity: 0.78"/>
     <use xlink:href="#mdad9a8bb09" x="240.3525" y="49.258345" style="fill: #1f5aa6; fill-opacity: 0.78"/>
     <use xlink:href="#mdad9a8bb09" x="247.4715" y="50.601738" style="fill: #1f5aa6; fill-opacity: 0.78"/>
     <use xlink:href="#mdad9a8bb09" x="267.938625" y="51.744081" style="fill: #1f5aa6; fill-opacity: 0.78"/>
     <use xlink:href="#mdad9a8bb09" x="275.9475" y="52.400012" style="fill: #1f5aa6; fill-opacity: 0.78"/>
     <use xlink:href="#mdad9a8bb09" x="288.40575" y="52.982853" style="fill: #1f5aa6; fill-opacity: 0.78"/>
     <use xlink:href="#mdad9a8bb09" x="308.872875" y="54.335846" style="fill: #1f5aa6; fill-opacity: 0.78"/>
     <use xlink:href="#mdad9a8bb09" x="311.5425" y="53.296383" style="fill: #1f5aa6; fill-opacity: 0.78"/>
     <use xlink:href="#mdad9a8bb09" x="329.34" y="55.794945" style="fill: #1f5aa6; fill-opacity: 0.78"/>
     <use xlink:href="#mdad9a8bb09" x="350.697" y="57.4502" style="fill: #1f5aa6; fill-opacity: 0.78"/>
     <use xlink:href="#mdad9a8bb09" x="372.054" y="59.236679" style="fill: #1f5aa6; fill-opacity: 0.78"/>
     <use xlink:href="#mdad9a8bb09" x="393.411" y="61.316551" style="fill: #1f5aa6; fill-opacity: 0.78"/>
     <use xlink:href="#mdad9a8bb09" x="409.42875" y="60.911784" style="fill: #1f5aa6; fill-opacity: 0.78"/>
     <use xlink:href="#mdad9a8bb09" x="414.768" y="63.686752" style="fill: #1f5aa6; fill-opacity: 0.78"/>
     <use xlink:href="#mdad9a8bb09" x="437.014875" y="66.449794" style="fill: #1f5aa6; fill-opacity: 0.78"/>
     <use xlink:href="#mdad9a8bb09" x="458.371875" y="69.774831" style="fill: #1f5aa6; fill-opacity: 0.78"/>
     <use xlink:href="#mdad9a8bb09" x="480.61875" y="74.08025" style="fill: #1f5aa6; fill-opacity: 0.78"/>
     <use xlink:href="#mdad9a8bb09" x="502.865625" y="80.033745" style="fill: #1f5aa6; fill-opacity: 0.78"/>
     <use xlink:href="#mdad9a8bb09" x="526.002375" y="89.888592" style="fill: #1f5aa6; fill-opacity: 0.78"/>
     <use xlink:href="#mdad9a8bb09" x="587.40375" y="113.842888" style="fill: #1f5aa6; fill-opacity: 0.78"/>
     <use xlink:href="#mdad9a8bb09" x="747.58125" y="129.973948" style="fill: #1f5aa6; fill-opacity: 0.78"/>
     <use xlink:href="#mdad9a8bb09" x="934.455" y="119.796382" style="fill: #1f5aa6; fill-opacity: 0.78"/>
    </g>
   </g>
   <g id="line2d_31">
    <path d="M 53.47875 120.678516
L 57.928125 111.093688
L 62.3775 104.81232
L 66.826875 100.391849
L 71.27625 97.013346
L 75.725625 94.283528
L 80.175 91.993375
L 84.624375 90.020254
L 89.07375 88.286455
L 93.523125 86.739737
L 97.9725 85.343314
L 106.87125 82.900508
L 115.77 80.811334
L 124.66875 78.985619
L 133.5675 77.363926
L 146.915625 75.226861
L 160.26375 73.363406
L 173.611875 71.71114
L 191.409375 69.763829
L 209.206875 68.045611
L 231.45375 66.147699
L 253.700625 64.467812
L 280.396875 62.6773
L 311.5425 60.832227
L 347.1375 58.974035
L 387.181875 57.131919
L 431.675625 55.326032
L 480.61875 53.572568
L 534.01125 51.891982
L 591.853125 50.293912
L 654.144375 48.792919
L 716.435625 47.51139
L 765.37875 46.664614
L 765.37875 46.664614
" clip-path="url(#p68ecc62898)" style="fill: none; stroke-dasharray: 8.14,3.52; stroke-dashoffset: 0; stroke: #bcbd22; stroke-width: 2.2"/>
   </g>
   <g id="line2d_32">
    <defs>
     <path id="m8c50a97675" d="M 0 3.4
C 0.901691 3.4 1.766572 3.041755 2.404163 2.404163
C 3.041755 1.766572 3.4 0.901691 3.4 0
C 3.4 -0.901691 3.041755 -1.766572 2.404163 -2.404163
C 1.766572 -3.041755 0.901691 -3.4 0 -3.4
C -0.901691 -3.4 -1.766572 -3.041755 -2.404163 -2.404163
C -3.041755 -1.766572 -3.4 -0.901691 -3.4 0
C -3.4 0.901691 -3.041755 1.766572 -2.404163 2.404163
C -1.766572 3.041755 -0.901691 3.4 0 3.4
z
"/>
    </defs>
    <g clip-path="url(#p68ecc62898)">
     <use xlink:href="#m8c50a97675" x="147.8055" y="76.434581" style="fill: #bcbd22; fill-opacity: 0.78"/>
     <use xlink:href="#m8c50a97675" x="151.365" y="81.580766" style="fill: #bcbd22; fill-opacity: 0.78"/>
     <use xlink:href="#m8c50a97675" x="167.38275" y="73.651515" style="fill: #bcbd22; fill-opacity: 0.78"/>
     <use xlink:href="#m8c50a97675" x="186.96" y="71.4032" style="fill: #bcbd22; fill-opacity: 0.78"/>
     <use xlink:href="#m8c50a97675" x="207.427125" y="69.374722" style="fill: #bcbd22; fill-opacity: 0.78"/>
     <use xlink:href="#m8c50a97675" x="227.004375" y="67.592765" style="fill: #bcbd22; fill-opacity: 0.78"/>
     <use xlink:href="#m8c50a97675" x="240.3525" y="70.020238" style="fill: #bcbd22; fill-opacity: 0.78"/>
     <use xlink:href="#m8c50a97675" x="247.4715" y="66.003852" style="fill: #bcbd22; fill-opacity: 0.78"/>
     <use xlink:href="#m8c50a97675" x="267.938625" y="64.627236" style="fill: #bcbd22; fill-opacity: 0.78"/>
     <use xlink:href="#m8c50a97675" x="275.9475" y="65.329351" style="fill: #bcbd22; fill-opacity: 0.78"/>
     <use xlink:href="#m8c50a97675" x="288.40575" y="63.316347" style="fill: #bcbd22; fill-opacity: 0.78"/>
     <use xlink:href="#m8c50a97675" x="308.872875" y="62.161181" style="fill: #bcbd22; fill-opacity: 0.78"/>
     <use xlink:href="#m8c50a97675" x="311.5425" y="65.878888" style="fill: #bcbd22; fill-opacity: 0.78"/>
     <use xlink:href="#m8c50a97675" x="329.34" y="61.090305" style="fill: #bcbd22; fill-opacity: 0.78"/>
     <use xlink:href="#m8c50a97675" x="350.697" y="60.134261" style="fill: #bcbd22; fill-opacity: 0.78"/>
     <use xlink:href="#m8c50a97675" x="372.054" y="59.197155" style="fill: #bcbd22; fill-opacity: 0.78"/>
     <use xlink:href="#m8c50a97675" x="393.411" y="58.353506" style="fill: #bcbd22; fill-opacity: 0.78"/>
     <use xlink:href="#m8c50a97675" x="409.42875" y="56.500383" style="fill: #bcbd22; fill-opacity: 0.78"/>
     <use xlink:href="#m8c50a97675" x="414.768" y="57.591047" style="fill: #bcbd22; fill-opacity: 0.78"/>
     <use xlink:href="#m8c50a97675" x="437.014875" y="56.866233" style="fill: #bcbd22; fill-opacity: 0.78"/>
     <use xlink:href="#m8c50a97675" x="458.371875" y="56.175522" style="fill: #bcbd22; fill-opacity: 0.78"/>
     <use xlink:href="#m8c50a97675" x="480.61875" y="55.546598" style="fill: #bcbd22; fill-opacity: 0.78"/>
     <use xlink:href="#m8c50a97675" x="502.865625" y="54.973084" style="fill: #bcbd22; fill-opacity: 0.78"/>
     <use xlink:href="#m8c50a97675" x="526.002375" y="54.421131" style="fill: #bcbd22; fill-opacity: 0.78"/>
     <use xlink:href="#m8c50a97675" x="587.40375" y="51.415165" style="fill: #bcbd22; fill-opacity: 0.78"/>
     <use xlink:href="#m8c50a97675" x="747.58125" y="48.921243" style="fill: #bcbd22; fill-opacity: 0.78"/>
     <use xlink:href="#m8c50a97675" x="934.455" y="47.484414" style="fill: #bcbd22; fill-opacity: 0.78"/>
    </g>
   </g>
   <g id="line2d_33">
    <path d="M 53.47875 258.516063
L 57.928125 128.716208
L 62.3775 116.255017
L 66.826875 109.04658
L 71.27625 104.035542
L 75.725625 100.219455
L 80.175 97.14892
L 84.624375 94.585617
L 89.07375 92.388679
L 93.523125 90.468222
L 97.9725 88.763526
L 102.421875 87.231722
L 106.87125 85.841458
L 115.77 83.396553
L 124.66875 81.296217
L 133.5675 79.456144
L 142.46625 77.81948
L 155.814375 75.661155
L 169.1625 73.779035
L 182.510625 72.110996
L 200.308125 70.146965
L 218.105625 68.416508
L 240.3525 66.508933
L 262.599375 64.825158
L 289.295625 63.037463
L 320.44125 61.207028
L 351.586875 59.598962
L 387.181875 57.991674
L 422.776875 56.618814
L 453.9225 55.652603
L 476.169375 55.174952
L 493.966875 54.995769
L 511.764375 55.043201
L 529.561875 55.30099
L 551.80875 55.83378
L 582.954375 56.818873
L 618.549375 58.160566
L 658.59375 59.880151
L 703.0875 62.025526
L 747.58125 64.400601
L 765.37875 65.40806
L 765.37875 65.40806
" clip-path="url(#p68ecc62898)" style="fill: none; stroke-dasharray: 8.14,3.52; stroke-dashoffset: 0; stroke: #d62728; stroke-width: 2.2"/>
   </g>
   <g id="line2d_34">
    <defs>
     <path id="ma85478bee0" d="M 0 3.4
C 0.901691 3.4 1.766572 3.041755 2.404163 2.404163
C 3.041755 1.766572 3.4 0.901691 3.4 0
C 3.4 -0.901691 3.041755 -1.766572 2.404163 -2.404163
C 1.766572 -3.041755 0.901691 -3.4 0 -3.4
C -0.901691 -3.4 -1.766572 -3.041755 -2.404163 -2.404163
C -3.041755 -1.766572 -3.4 -0.901691 -3.4 0
C -3.4 0.901691 -3.041755 1.766572 -2.404163 2.404163
C -1.766572 3.041755 -0.901691 3.4 0 3.4
z
"/>
    </defs>
    <g clip-path="url(#p68ecc62898)">
     <use xlink:href="#ma85478bee0" x="120.219375" y="80.701274" style="fill: #d62728; fill-opacity: 0.78"/>
     <use xlink:href="#ma85478bee0" x="147.8055" y="78.93396" style="fill: #d62728; fill-opacity: 0.78"/>
     <use xlink:href="#ma85478bee0" x="151.365" y="77.631154" style="fill: #d62728; fill-opacity: 0.78"/>
     <use xlink:href="#ma85478bee0" x="167.38275" y="75.328216" style="fill: #d62728; fill-opacity: 0.78"/>
     <use xlink:href="#ma85478bee0" x="186.96" y="72.435666" style="fill: #d62728; fill-opacity: 0.78"/>
     <use xlink:href="#ma85478bee0" x="186.96" y="70.609324" style="fill: #d62728; fill-opacity: 0.78"/>
     <use xlink:href="#ma85478bee0" x="207.427125" y="70.10296" style="fill: #d62728; fill-opacity: 0.78"/>
     <use xlink:href="#ma85478bee0" x="227.004375" y="68.090546" style="fill: #d62728; fill-opacity: 0.78"/>
     <use xlink:href="#ma85478bee0" x="240.3525" y="67.875142" style="fill: #d62728; fill-opacity: 0.78"/>
     <use xlink:href="#ma85478bee0" x="247.4715" y="66.385253" style="fill: #d62728; fill-opacity: 0.78"/>
     <use xlink:href="#ma85478bee0" x="262.599375" y="64.066743" style="fill: #d62728; fill-opacity: 0.78"/>
     <use xlink:href="#ma85478bee0" x="267.938625" y="64.915715" style="fill: #d62728; fill-opacity: 0.78"/>
     <use xlink:href="#ma85478bee0" x="275.9475" y="63.686752" style="fill: #d62728; fill-opacity: 0.78"/>
     <use xlink:href="#ma85478bee0" x="288.40575" y="63.579965" style="fill: #d62728; fill-opacity: 0.78"/>
     <use xlink:href="#ma85478bee0" x="308.872875" y="62.404688" style="fill: #d62728; fill-opacity: 0.78"/>
     <use xlink:href="#ma85478bee0" x="311.5425" y="62.016992" style="fill: #d62728; fill-opacity: 0.78"/>
     <use xlink:href="#ma85478bee0" x="328.450125" y="60.134261" style="fill: #d62728; fill-opacity: 0.78"/>
     <use xlink:href="#ma85478bee0" x="329.34" y="61.362222" style="fill: #d62728; fill-opacity: 0.78"/>
     <use xlink:href="#ma85478bee0" x="350.697" y="60.431758" style="fill: #d62728; fill-opacity: 0.78"/>
     <use xlink:href="#ma85478bee0" x="372.054" y="59.597265" style="fill: #d62728; fill-opacity: 0.78"/>
     <use xlink:href="#ma85478bee0" x="393.411" y="58.846148" style="fill: #d62728; fill-opacity: 0.78"/>
     <use xlink:href="#ma85478bee0" x="398.75025" y="57.069698" style="fill: #d62728; fill-opacity: 0.78"/>
     <use xlink:href="#ma85478bee0" x="409.42875" y="57.172497" style="fill: #d62728; fill-opacity: 0.78"/>
     <use xlink:href="#ma85478bee0" x="414.768" y="58.131591" style="fill: #d62728; fill-opacity: 0.78"/>
     <use xlink:href="#ma85478bee0" x="437.014875" y="57.520455" style="fill: #d62728; fill-opacity: 0.78"/>
     <use xlink:href="#ma85478bee0" x="458.371875" y="56.967613" style="fill: #d62728; fill-opacity: 0.78"/>
     <use xlink:href="#ma85478bee0" x="475.2795" y="55.062163" style="fill: #d62728; fill-opacity: 0.78"/>
     <use xlink:href="#ma85478bee0" x="480.61875" y="56.467572" style="fill: #d62728; fill-opacity: 0.78"/>
     <use xlink:href="#ma85478bee0" x="502.865625" y="56.015748" style="fill: #d62728; fill-opacity: 0.78"/>
     <use xlink:href="#ma85478bee0" x="519.77325" y="55.857693" style="fill: #d62728; fill-opacity: 0.78"/>
     <use xlink:href="#ma85478bee0" x="526.002375" y="55.608292" style="fill: #d62728; fill-opacity: 0.78"/>
     <use xlink:href="#ma85478bee0" x="587.40375" y="54.307528" style="fill: #d62728; fill-opacity: 0.78"/>
     <use xlink:href="#ma85478bee0" x="595.412625" y="58.131591" style="fill: #d62728; fill-opacity: 0.78"/>
     <use xlink:href="#ma85478bee0" x="679.95075" y="61.225634" style="fill: #d62728; fill-opacity: 0.78"/>
     <use xlink:href="#ma85478bee0" x="747.58125" y="58.692798" style="fill: #d62728; fill-opacity: 0.78"/>
     <use xlink:href="#ma85478bee0" x="793.85475" y="68.456727" style="fill: #d62728; fill-opacity: 0.78"/>
     <use xlink:href="#ma85478bee0" x="880.172625" y="76.056454" style="fill: #d62728; fill-opacity: 0.78"/>
     <use xlink:href="#ma85478bee0" x="920.217" y="76.562819" style="fill: #d62728; fill-opacity: 0.78"/>
     <use xlink:href="#ma85478bee0" x="934.455" y="63.579965" style="fill: #d62728; fill-opacity: 0.78"/>
    </g>
   </g>
   <g id="line2d_35">
    <path d="M 53.47875 332.872675
L 57.928125 202.960379
L 62.3775 190.364277
L 66.826875 183.012666
L 71.27625 177.854177
L 75.725625 173.887704
L 80.175 170.664403
L 84.624375 167.94621
L 89.07375 165.592386
L 93.523125 163.513105
L 97.9725 161.647674
L 102.421875 159.953227
L 111.320625 156.95957
L 120.219375 154.360895
L 129.118125 152.052092
L 138.016875 149.964038
L 151.365 147.144859
L 164.713125 144.607344
L 178.06125 142.279046
L 195.85875 139.414952
L 218.105625 136.107989
L 244.801875 132.396468
L 289.295625 126.495193
L 333.789375 120.536435
L 360.485625 116.731959
L 382.7325 113.310918
L 400.53 110.332436
L 413.878125 107.909286
L 427.22625 105.279661
L 440.574375 102.395628
L 453.9225 99.205401
L 462.82125 96.886608
L 471.72 94.408805
L 485.068125 90.426935
L 516.21375 80.861969
L 525.1125 78.378318
L 534.01125 76.086676
L 542.91 73.991989
L 551.80875 72.084519
L 560.7075 70.34756
L 574.055625 68.021029
L 587.40375 65.976801
L 600.751875 64.164834
L 614.1 62.545137
L 631.8975 60.631329
L 649.695 58.947783
L 671.941875 57.105388
L 694.18875 55.501162
L 720.885 53.833967
L 747.58125 52.402262
L 765.37875 51.561151
L 765.37875 51.561151
" clip-path="url(#p68ecc62898)" style="fill: none; stroke-dasharray: 8.14,3.52; stroke-dashoffset: 0; stroke: #17becf; stroke-width: 2.2"/>
   </g>
   <g id="line2d_36">
    <defs>
     <path id="ma5bb77422a" d="M 0 3.4
C 0.901691 3.4 1.766572 3.041755 2.404163 2.404163
C 3.041755 1.766572 3.4 0.901691 3.4 0
C 3.4 -0.901691 3.041755 -1.766572 2.404163 -2.404163
C 1.766572 -3.041755 0.901691 -3.4 0 -3.4
C -0.901691 -3.4 -1.766572 -3.041755 -2.404163 -2.404163
C -3.041755 -1.766572 -3.4 -0.901691 -3.4 0
C -3.4 0.901691 -3.041755 1.766572 -2.404163 2.404163
C -1.766572 3.041755 -0.901691 3.4 0 3.4
z
"/>
    </defs>
    <g clip-path="url(#p68ecc62898)">
     <use xlink:href="#ma5bb77422a" x="147.8055" y="99.44125" style="fill: #17becf; fill-opacity: 0.78"/>
     <use xlink:href="#ma5bb77422a" x="167.38275" y="100.718849" style="fill: #17becf; fill-opacity: 0.78"/>
     <use xlink:href="#ma5bb77422a" x="186.96" y="102.1183" style="fill: #17becf; fill-opacity: 0.78"/>
     <use xlink:href="#ma5bb77422a" x="207.427125" y="102.1183" style="fill: #17becf; fill-opacity: 0.78"/>
     <use xlink:href="#ma5bb77422a" x="227.004375" y="102.1183" style="fill: #17becf; fill-opacity: 0.78"/>
     <use xlink:href="#ma5bb77422a" x="240.3525" y="146.105009" style="fill: #17becf; fill-opacity: 0.78"/>
     <use xlink:href="#ma5bb77422a" x="247.4715" y="101.401908" style="fill: #17becf; fill-opacity: 0.78"/>
     <use xlink:href="#ma5bb77422a" x="267.938625" y="100.066158" style="fill: #17becf; fill-opacity: 0.78"/>
     <use xlink:href="#ma5bb77422a" x="275.9475" y="135.927443" style="fill: #17becf; fill-opacity: 0.78"/>
     <use xlink:href="#ma5bb77422a" x="288.40575" y="98.265973" style="fill: #17becf; fill-opacity: 0.78"/>
     <use xlink:href="#ma5bb77422a" x="308.872875" y="96.164805" style="fill: #17becf; fill-opacity: 0.78"/>
     <use xlink:href="#ma5bb77422a" x="311.5425" y="135.927443" style="fill: #17becf; fill-opacity: 0.78"/>
     <use xlink:href="#ma5bb77422a" x="329.34" y="94.327019" style="fill: #17becf; fill-opacity: 0.78"/>
     <use xlink:href="#ma5bb77422a" x="350.697" y="91.940734" style="fill: #17becf; fill-opacity: 0.78"/>
     <use xlink:href="#ma5bb77422a" x="372.054" y="89.888592" style="fill: #17becf; fill-opacity: 0.78"/>
     <use xlink:href="#ma5bb77422a" x="393.411" y="87.80872" style="fill: #17becf; fill-opacity: 0.78"/>
     <use xlink:href="#ma5bb77422a" x="409.42875" y="119.796382" style="fill: #17becf; fill-opacity: 0.78"/>
     <use xlink:href="#ma5bb77422a" x="414.768" y="85.744537" style="fill: #17becf; fill-opacity: 0.78"/>
     <use xlink:href="#ma5bb77422a" x="437.014875" y="83.723826" style="fill: #17becf; fill-opacity: 0.78"/>
     <use xlink:href="#ma5bb77422a" x="458.371875" y="81.763168" style="fill: #17becf; fill-opacity: 0.78"/>
     <use xlink:href="#ma5bb77422a" x="480.61875" y="79.871499" style="fill: #17becf; fill-opacity: 0.78"/>
     <use xlink:href="#ma5bb77422a" x="502.865625" y="78.195959" style="fill: #17becf; fill-opacity: 0.78"/>
     <use xlink:href="#ma5bb77422a" x="519.77325" y="77.631154" style="fill: #17becf; fill-opacity: 0.78"/>
     <use xlink:href="#ma5bb77422a" x="526.002375" y="76.562819" style="fill: #17becf; fill-opacity: 0.78"/>
     <use xlink:href="#ma5bb77422a" x="587.40375" y="73.651515" style="fill: #17becf; fill-opacity: 0.78"/>
     <use xlink:href="#ma5bb77422a" x="595.412625" y="64.799642" style="fill: #17becf; fill-opacity: 0.78"/>
     <use xlink:href="#ma5bb77422a" x="679.95075" y="57.769026" style="fill: #17becf; fill-opacity: 0.78"/>
     <use xlink:href="#ma5bb77422a" x="747.58125" y="56.66555" style="fill: #17becf; fill-opacity: 0.78"/>
     <use xlink:href="#ma5bb77422a" x="793.85475" y="51.578702" style="fill: #17becf; fill-opacity: 0.78"/>
     <use xlink:href="#ma5bb77422a" x="880.172625" y="48.231947" style="fill: #17becf; fill-opacity: 0.78"/>
     <use xlink:href="#ma5bb77422a" x="920.217" y="46.621467" style="fill: #17becf; fill-opacity: 0.78"/>
     <use xlink:href="#ma5bb77422a" x="934.455" y="50.535943" style="fill: #17becf; fill-opacity: 0.78"/>
    </g>
   </g>
   <g id="line2d_37">
    <path d="M 53.47875 253.945721
L 57.928125 133.730054
L 62.3775 127.550579
L 66.826875 124.763057
L 71.27625 123.130922
L 75.725625 122.044999
L 80.175 121.264916
L 84.624375 120.674998
L 93.523125 119.838565
L 102.421875 119.271859
L 115.77 118.696148
L 133.5675 118.203702
L 160.26375 117.755501
L 195.85875 117.412083
L 249.25125 117.137961
L 329.34 116.973041
L 404.979375 117.023216
L 449.473125 117.258605
L 476.169375 117.623546
L 493.966875 118.063524
L 511.764375 118.716824
L 534.01125 119.805193
L 560.7075 121.363483
L 600.751875 123.954295
L 654.144375 127.656016
L 711.98625 131.891376
L 765.37875 135.957514
L 765.37875 135.957514
" clip-path="url(#p68ecc62898)" style="fill: none; stroke-dasharray: 8.14,3.52; stroke-dashoffset: 0; stroke: #9467bd; stroke-width: 2.2"/>
   </g>
   <g id="line2d_38">
    <defs>
     <path id="md4660a4777" d="M 0 3.4
C 0.901691 3.4 1.766572 3.041755 2.404163 2.404163
C 3.041755 1.766572 3.4 0.901691 3.4 0
C 3.4 -0.901691 3.041755 -1.766572 2.404163 -2.404163
C 1.766572 -3.041755 0.901691 -3.4 0 -3.4
C -0.901691 -3.4 -1.766572 -3.041755 -2.404163 -2.404163
C -3.041755 -1.766572 -3.4 -0.901691 -3.4 0
C -3.4 0.901691 -3.041755 1.766572 -2.404163 2.404163
C -1.766572 3.041755 -0.901691 3.4 0 3.4
z
"/>
    </defs>
    <g clip-path="url(#p68ecc62898)">
     <use xlink:href="#md4660a4777" x="151.365" y="146.105009" style="fill: #9467bd; fill-opacity: 0.78"/>
     <use xlink:href="#md4660a4777" x="240.3525" y="125.749877" style="fill: #9467bd; fill-opacity: 0.78"/>
     <use xlink:href="#md4660a4777" x="275.9475" y="119.796382" style="fill: #9467bd; fill-opacity: 0.78"/>
     <use xlink:href="#md4660a4777" x="311.5425" y="119.796382" style="fill: #9467bd; fill-opacity: 0.78"/>
     <use xlink:href="#md4660a4777" x="409.42875" y="109.618816" style="fill: #9467bd; fill-opacity: 0.78"/>
     <use xlink:href="#md4660a4777" x="587.40375" y="107.355402" style="fill: #9467bd; fill-opacity: 0.78"/>
     <use xlink:href="#md4660a4777" x="747.58125" y="107.355402" style="fill: #9467bd; fill-opacity: 0.78"/>
     <use xlink:href="#md4660a4777" x="934.455" y="104.504586" style="fill: #9467bd; fill-opacity: 0.78"/>
    </g>
   </g>
   <g id="line2d_39">
    <path d="M 53.47875 501.502362
L 57.928125 491.805093
L 62.3775 485.388813
L 66.826875 480.825169
L 71.27625 477.299215
L 75.725625 474.419011
L 80.175 471.976092
L 84.624375 469.848081
L 89.07375 467.957396
L 93.523125 466.251854
L 97.9725 464.694697
L 106.87125 461.924683
L 115.77 459.500532
L 124.66875 457.33184
L 133.5675 455.358863
L 146.915625 452.678513
L 160.26375 450.250907
L 178.06125 447.299547
L 195.85875 444.583414
L 218.105625 441.415395
L 249.25125 437.24032
L 342.688125 424.919257
L 364.935 421.694397
L 382.7325 418.923701
L 400.53 415.917353
L 413.878125 413.45938
L 427.22625 410.778412
L 440.574375 407.819876
L 449.473125 405.662667
L 458.371875 403.336083
L 467.270625 400.825951
L 476.169375 398.128563
L 489.5175 393.772259
L 525.1125 381.782898
L 534.01125 379.054071
L 542.91 376.492919
L 551.80875 374.095862
L 565.156875 370.780955
L 578.505 367.757042
L 591.853125 364.974541
L 605.20125 362.391193
L 622.99875 359.19831
L 640.79625 356.23669
L 663.043125 352.790734
L 685.29 349.570163
L 711.98625 345.941307
L 738.6825 342.522895
L 765.37875 339.284939
L 765.37875 339.284939
" clip-path="url(#p68ecc62898)" style="fill: none; stroke-dasharray: 8.14,3.52; stroke-dashoffset: 0; stroke: #8c564b; stroke-width: 2.2"/>
   </g>
   <g id="line2d_40">
    <path d="M 53.47875 120.683113
L 57.928125 130.379101
L 62.3775 136.796078
L 66.826875 141.360609
L 71.27625 144.887365
L 75.725625 147.76826
L 80.175 150.211779
L 84.624375 152.340315
L 89.07375 154.231468
L 93.523125 155.937432
L 97.9725 157.494976
L 106.87125 160.265683
L 115.77 162.690452
L 124.66875 164.859714
L 133.5675 166.833232
L 146.915625 169.514359
L 160.26375 171.942728
L 178.06125 174.89512
L 195.85875 177.612334
L 218.105625 180.781818
L 249.25125 184.959269
L 338.23875 196.670676
L 360.485625 199.857579
L 378.283125 202.584619
L 396.080625 205.53168
L 409.42875 207.931941
L 422.776875 210.540953
L 436.125 213.41074
L 445.02375 215.498918
L 453.9225 217.749629
L 462.82125 220.18038
L 471.72 222.801895
L 480.61875 225.610428
L 493.966875 230.106872
L 520.663125 239.289354
L 534.01125 243.525764
L 542.91 246.147186
L 551.80875 248.607352
L 565.156875 252.020856
L 578.505 255.14673
L 591.853125 258.033504
L 605.20125 260.72273
L 622.99875 264.058444
L 640.79625 267.164045
L 663.043125 270.790658
L 685.29 274.191737
L 711.98625 278.035781
L 738.6825 281.666462
L 765.37875 285.112325
L 765.37875 285.112325
" clip-path="url(#p68ecc62898)" style="fill: none; stroke-dasharray: 8.14,3.52; stroke-dashoffset: 0; stroke: #7f7f7f; stroke-width: 2.2"/>
   </g>
   <g id="line2d_41">
    <path d="M 53.47875 42.982184
L 75.725625 43.282998
L 155.814375 44.660316
L 253.700625 46.55765
L 347.1375 48.596258
L 467.270625 51.263527
L 489.5175 51.508862
L 507.315 51.517082
L 529.561875 51.29197
L 560.7075 50.718132
L 738.6825 47.054746
L 765.37875 46.621825
L 765.37875 46.621825
" clip-path="url(#p68ecc62898)" style="fill: none; stroke-dasharray: 8.14,3.52; stroke-dashoffset: 0; stroke: #e377c2; stroke-width: 2.2"/>
   </g>
   <g id="line2d_42">
    <defs>
     <path id="ma5bdcc4343" d="M 0 3.4
C 0.901691 3.4 1.766572 3.041755 2.404163 2.404163
C 3.041755 1.766572 3.4 0.901691 3.4 0
C 3.4 -0.901691 3.041755 -1.766572 2.404163 -2.404163
C 1.766572 -3.041755 0.901691 -3.4 0 -3.4
C -0.901691 -3.4 -1.766572 -3.041755 -2.404163 -2.404163
C -3.041755 -1.766572 -3.4 -0.901691 -3.4 0
C -3.4 0.901691 -3.041755 1.766572 -2.404163 2.404163
C -1.766572 3.041755 -0.901691 3.4 0 3.4
z
"/>
    </defs>
    <g clip-path="url(#p68ecc62898)">
     <use xlink:href="#ma5bdcc4343" x="120.219375" y="43.905359" style="fill: #e377c2; fill-opacity: 0.78"/>
     <use xlink:href="#ma5bdcc4343" x="147.8055" y="44.243565" style="fill: #e377c2; fill-opacity: 0.78"/>
     <use xlink:href="#ma5bdcc4343" x="151.365" y="43.264787" style="fill: #e377c2; fill-opacity: 0.78"/>
     <use xlink:href="#ma5bdcc4343" x="167.38275" y="44.589745" style="fill: #e377c2; fill-opacity: 0.78"/>
     <use xlink:href="#ma5bdcc4343" x="186.96" y="44.98921" style="fill: #e377c2; fill-opacity: 0.78"/>
     <use xlink:href="#ma5bdcc4343" x="186.96" y="45.185491" style="fill: #e377c2; fill-opacity: 0.78"/>
     <use xlink:href="#ma5bdcc4343" x="207.427125" y="45.369032" style="fill: #e377c2; fill-opacity: 0.78"/>
     <use xlink:href="#ma5bdcc4343" x="227.004375" y="45.774755" style="fill: #e377c2; fill-opacity: 0.78"/>
     <use xlink:href="#ma5bdcc4343" x="240.3525" y="46.062356" style="fill: #e377c2; fill-opacity: 0.78"/>
     <use xlink:href="#ma5bdcc4343" x="247.4715" y="46.192009" style="fill: #e377c2; fill-opacity: 0.78"/>
     <use xlink:href="#ma5bdcc4343" x="262.599375" y="46.705515" style="fill: #e377c2; fill-opacity: 0.78"/>
     <use xlink:href="#ma5bdcc4343" x="267.938625" y="46.638238" style="fill: #e377c2; fill-opacity: 0.78"/>
     <use xlink:href="#ma5bdcc4343" x="275.9475" y="47.307719" style="fill: #e377c2; fill-opacity: 0.78"/>
     <use xlink:href="#ma5bdcc4343" x="288.40575" y="47.08115" style="fill: #e377c2; fill-opacity: 0.78"/>
     <use xlink:href="#ma5bdcc4343" x="308.872875" y="47.555691" style="fill: #e377c2; fill-opacity: 0.78"/>
     <use xlink:href="#ma5bdcc4343" x="311.5425" y="48.101595" style="fill: #e377c2; fill-opacity: 0.78"/>
     <use xlink:href="#ma5bdcc4343" x="328.450125" y="48.325769" style="fill: #e377c2; fill-opacity: 0.78"/>
     <use xlink:href="#ma5bdcc4343" x="329.34" y="48.027625" style="fill: #e377c2; fill-opacity: 0.78"/>
     <use xlink:href="#ma5bdcc4343" x="350.697" y="48.553419" style="fill: #e377c2; fill-opacity: 0.78"/>
     <use xlink:href="#ma5bdcc4343" x="372.054" y="49.039338" style="fill: #e377c2; fill-opacity: 0.78"/>
     <use xlink:href="#ma5bdcc4343" x="393.411" y="49.582847" style="fill: #e377c2; fill-opacity: 0.78"/>
     <use xlink:href="#ma5bdcc4343" x="398.75025" y="50.38356" style="fill: #e377c2; fill-opacity: 0.78"/>
     <use xlink:href="#ma5bdcc4343" x="409.42875" y="48.363467" style="fill: #e377c2; fill-opacity: 0.78"/>
     <use xlink:href="#ma5bdcc4343" x="414.768" y="50.14725" style="fill: #e377c2; fill-opacity: 0.78"/>
     <use xlink:href="#ma5bdcc4343" x="437.014875" y="50.712055" style="fill: #e377c2; fill-opacity: 0.78"/>
     <use xlink:href="#ma5bdcc4343" x="458.371875" y="51.276426" style="fill: #e377c2; fill-opacity: 0.78"/>
     <use xlink:href="#ma5bdcc4343" x="475.2795" y="51.696639" style="fill: #e377c2; fill-opacity: 0.78"/>
     <use xlink:href="#ma5bdcc4343" x="480.61875" y="51.887332" style="fill: #e377c2; fill-opacity: 0.78"/>
     <use xlink:href="#ma5bdcc4343" x="502.865625" y="52.524763" style="fill: #e377c2; fill-opacity: 0.78"/>
     <use xlink:href="#ma5bdcc4343" x="519.77325" y="51.299458" style="fill: #e377c2; fill-opacity: 0.78"/>
     <use xlink:href="#ma5bdcc4343" x="526.002375" y="53.164931" style="fill: #e377c2; fill-opacity: 0.78"/>
     <use xlink:href="#ma5bdcc4343" x="587.40375" y="51.207545" style="fill: #e377c2; fill-opacity: 0.78"/>
     <use xlink:href="#ma5bdcc4343" x="595.412625" y="49.998827" style="fill: #e377c2; fill-opacity: 0.78"/>
     <use xlink:href="#ma5bdcc4343" x="679.95075" y="48.960502" style="fill: #e377c2; fill-opacity: 0.78"/>
     <use xlink:href="#ma5bdcc4343" x="747.58125" y="48.862549" style="fill: #e377c2; fill-opacity: 0.78"/>
     <use xlink:href="#ma5bdcc4343" x="793.85475" y="47.325293" style="fill: #e377c2; fill-opacity: 0.78"/>
     <use xlink:href="#ma5bdcc4343" x="880.172625" y="46.504603" style="fill: #e377c2; fill-opacity: 0.78"/>
     <use xlink:href="#ma5bdcc4343" x="920.217" y="46.471383" style="fill: #e377c2; fill-opacity: 0.78"/>
     <use xlink:href="#ma5bdcc4343" x="934.455" y="47.378142" style="fill: #e377c2; fill-opacity: 0.78"/>
    </g>
   </g>
   <g id="patch_3">
    <path d="M 53.47875 484.196437
L 53.47875 10.868437
" style="fill: none; stroke: #000000; stroke-width: 0.9; stroke-linejoin: miter; stroke-linecap: square"/>
   </g>
   <g id="patch_4">
    <path d="M 765.37875 484.196437
L 765.37875 10.868437
" style="fill: none; stroke: #000000; stroke-width: 0.9; stroke-linejoin: miter; stroke-linecap: square"/>
   </g>
   <g id="patch_5">
    <path d="M 53.47875 484.196437
L 765.37875 484.196437
" style="fill: none; stroke: #000000; stroke-width: 0.9; stroke-linejoin: miter; stroke-linecap: square"/>
   </g>
   <g id="patch_6">
    <path d="M 53.47875 10.868437
L 765.37875 10.868437
" style="fill: none; stroke: #000000; stroke-width: 0.9; stroke-linejoin: miter; stroke-linecap: square"/>
   </g>
   <g id="legend_1">
    <g id="patch_7">
     <path d="M 357.22875 479.696437
L 461.62875 479.696437
Q 463.42875 479.696437 463.42875 477.896437
L 463.42875 359.636437
Q 463.42875 357.836437 461.62875 357.836437
L 357.22875 357.836437
Q 355.42875 357.836437 355.42875 359.636437
L 355.42875 477.896437
Q 355.42875 479.696437 357.22875 479.696437
z
" style="fill: #ffffff; opacity: 0.88; stroke: #cccccc; stroke-linejoin: miter"/>
    </g>
    <g id="line2d_43">
     <path d="M 359.47875 365.036437
L 369.82875 365.036437
L 380.17875 365.036437
" style="fill: none; stroke-dasharray: 8.14,3.52; stroke-dashoffset: 0; stroke: #16805a; stroke-width: 2.2"/>
    </g>
    <g id="text_29">
     <!-- $CO_2$ -->
     <g transform="translate(387.37875 368.186437) scale(0.09 -0.09)">
      <use xlink:href="#DejaVuSerif-Italic-43" transform="translate(0 0.78125)"/>
      <use xlink:href="#DejaVuSerif-Italic-4f" transform="translate(76.513672 0.78125)"/>
      <use xlink:href="#DejaVuSerif-32" transform="translate(158.496094 -14.790625) scale(0.7)"/>
     </g>
    </g>
    <g id="line2d_44">
     <path d="M 359.47875 377.726437
L 369.82875 377.726437
L 380.17875 377.726437
" style="fill: none; stroke-dasharray: 8.14,3.52; stroke-dashoffset: 0; stroke: #1f5aa6; stroke-width: 2.2"/>
    </g>
    <g id="text_30">
     <!-- $MEA$ -->
     <g transform="translate(387.37875 380.876437) scale(0.09 -0.09)">
      <defs>
       <path id="DejaVuSerif-Italic-4d" d="M -97 0
L -34 331
L 559 331
L 1338 4331
L 709 4331
L 775 4666
L 2134 4666
L 3125 1344
L 5409 4666
L 6684 4666
L 6619 4331
L 5997 4331
L 5222 331
L 5816 331
L 5753 0
L 3928 0
L 3991 331
L 4584 331
L 5288 3938
L 3053 684
L 2613 684
L 1647 3938
L 944 331
L 1538 331
L 1475 0
L -97 0
z
" transform="scale(0.015625)"/>
       <path id="DejaVuSerif-Italic-45" d="M -97 0
L -34 331
L 559 331
L 1338 4331
L 744 4331
L 809 4666
L 4566 4666
L 4366 3628
L 3981 3628
L 4106 4281
L 1963 4281
L 1659 2719
L 3188 2719
L 3300 3303
L 3684 3303
L 3384 1753
L 3000 1753
L 3113 2338
L 1584 2338
L 1206 384
L 3400 384
L 3525 1038
L 3909 1038
L 3709 0
L -97 0
z
" transform="scale(0.015625)"/>
       <path id="DejaVuSerif-Italic-41" d="M 1159 1691
L 2872 1691
L 2447 3909
L 1159 1691
z
M -488 0
L -425 331
L -16 331
L 2491 4666
L 3016 4666
L 3841 331
L 4297 331
L 4234 0
L 2538 0
L 2600 331
L 3119 331
L 2928 1356
L 966 1356
L 375 331
L 888 331
L 825 0
L -488 0
z
" transform="scale(0.015625)"/>
      </defs>
      <use xlink:href="#DejaVuSerif-Italic-4d" transform="translate(0 0.09375)"/>
      <use xlink:href="#DejaVuSerif-Italic-45" transform="translate(102.392578 0.09375)"/>
      <use xlink:href="#DejaVuSerif-Italic-41" transform="translate(175.390625 0.09375)"/>
     </g>
    </g>
    <g id="line2d_45">
     <path d="M 359.47875 390.416437
L 369.82875 390.416437
L 380.17875 390.416437
" style="fill: none; stroke-dasharray: 8.14,3.52; stroke-dashoffset: 0; stroke: #bcbd22; stroke-width: 2.2"/>
    </g>
    <g id="text_31">
     <!-- $MEAH^+$ -->
     <g transform="translate(387.37875 393.566437) scale(0.09 -0.09)">
      <defs>
       <path id="DejaVuSerif-Italic-48" d="M -97 0
L -34 331
L 559 331
L 1338 4331
L 744 4331
L 809 4666
L 2631 4666
L 2566 4331
L 1972 4331
L 1659 2719
L 4078 2719
L 4391 4331
L 3797 4331
L 3863 4666
L 5684 4666
L 5619 4331
L 5025 4331
L 4247 331
L 4841 331
L 4778 0
L 2956 0
L 3019 331
L 3616 331
L 4003 2338
L 1584 2338
L 1194 331
L 1788 331
L 1725 0
L -97 0
z
" transform="scale(0.015625)"/>
       <path id="DejaVuSerif-2b" d="M 2931 4013
L 2931 2259
L 4684 2259
L 4684 1753
L 2931 1753
L 2931 0
L 2431 0
L 2431 1753
L 678 1753
L 678 2259
L 2431 2259
L 2431 4013
L 2931 4013
z
" transform="scale(0.015625)"/>
      </defs>
      <use xlink:href="#DejaVuSerif-Italic-4d" transform="translate(0 0.773438)"/>
      <use xlink:href="#DejaVuSerif-Italic-45" transform="translate(102.392578 0.773438)"/>
      <use xlink:href="#DejaVuSerif-Italic-41" transform="translate(175.390625 0.773438)"/>
      <use xlink:href="#DejaVuSerif-Italic-48" transform="translate(247.607422 0.773438)"/>
      <use xlink:href="#DejaVuSerif-2b" transform="translate(355.268854 37.107812) scale(0.7)"/>
     </g>
    </g>
    <g id="line2d_46">
     <path d="M 359.47875 403.106437
L 369.82875 403.106437
L 380.17875 403.106437
" style="fill: none; stroke-dasharray: 8.14,3.52; stroke-dashoffset: 0; stroke: #d62728; stroke-width: 2.2"/>
    </g>
    <g id="text_32">
     <!-- $MEACOO^-$ -->
     <g transform="translate(387.37875 406.256437) scale(0.09 -0.09)">
      <defs>
       <path id="DejaVuSerif-2212" d="M 678 2259
L 4684 2259
L 4684 1753
L 678 1753
L 678 2259
z
" transform="scale(0.015625)"/>
      </defs>
      <use xlink:href="#DejaVuSerif-Italic-4d" transform="translate(0 0.78125)"/>
      <use xlink:href="#DejaVuSerif-Italic-45" transform="translate(102.392578 0.78125)"/>
      <use xlink:href="#DejaVuSerif-Italic-41" transform="translate(175.390625 0.78125)"/>
      <use xlink:href="#DejaVuSerif-Italic-43" transform="translate(247.607422 0.78125)"/>
      <use xlink:href="#DejaVuSerif-Italic-4f" transform="translate(324.121094 0.78125)"/>
      <use xlink:href="#DejaVuSerif-Italic-4f" transform="translate(406.103516 0.78125)"/>
      <use xlink:href="#DejaVuSerif-2212" transform="translate(508.724089 37.115625) scale(0.7)"/>
     </g>
    </g>
    <g id="line2d_47">
     <path d="M 359.47875 416.246437
L 369.82875 416.246437
L 380.17875 416.246437
" style="fill: none; stroke-dasharray: 8.14,3.52; stroke-dashoffset: 0; stroke: #17becf; stroke-width: 2.2"/>
    </g>
    <g id="text_33">
     <!-- $HCO_3^-$ -->
     <g transform="translate(387.37875 419.396437) scale(0.09 -0.09)">
      <defs>
       <path id="DejaVuSerif-33" d="M 622 4469
Q 988 4606 1323 4678
Q 1659 4750 1953 4750
Q 2638 4750 3022 4454
Q 3406 4159 3406 3634
Q 3406 3213 3140 2930
Q 2875 2647 2388 2547
Q 2963 2466 3280 2130
Q 3597 1794 3597 1259
Q 3597 606 3158 257
Q 2719 -91 1894 -91
Q 1528 -91 1179 -12
Q 831 66 488 225
L 488 1131
L 838 1131
Q 869 681 1141 450
Q 1413 219 1906 219
Q 2384 219 2661 495
Q 2938 772 2938 1253
Q 2938 1803 2653 2086
Q 2369 2369 1819 2369
L 1522 2369
L 1522 2688
L 1678 2688
Q 2225 2688 2498 2914
Q 2772 3141 2772 3597
Q 2772 4006 2547 4223
Q 2322 4441 1900 4441
Q 1478 4441 1245 4241
Q 1013 4041 972 3647
L 622 3647
L 622 4469
z
" transform="scale(0.015625)"/>
      </defs>
      <use xlink:href="#DejaVuSerif-Italic-48" transform="translate(0 0.78125)"/>
      <use xlink:href="#DejaVuSerif-Italic-43" transform="translate(87.207031 0.78125)"/>
      <use xlink:href="#DejaVuSerif-Italic-4f" transform="translate(163.720703 0.78125)"/>
      <use xlink:href="#DejaVuSerif-2212" transform="translate(266.341276 39.28125) scale(0.7)"/>
      <use xlink:href="#DejaVuSerif-33" transform="translate(245.703125 -25.171875) scale(0.7)"/>
     </g>
    </g>
    <g id="line2d_48">
     <path d="M 359.47875 431.366437
L 369.82875 431.366437
L 380.17875 431.366437
" style="fill: none; stroke-dasharray: 8.14,3.52; stroke-dashoffset: 0; stroke: #9467bd; stroke-width: 2.2"/>
    </g>
    <g id="text_34">
     <!-- $CO_3^{2-}$ -->
     <g transform="translate(387.37875 434.516437) scale(0.09 -0.09)">
      <use xlink:href="#DejaVuSerif-Italic-43" transform="translate(0 0.546875)"/>
      <use xlink:href="#DejaVuSerif-Italic-4f" transform="translate(76.513672 0.546875)"/>
      <use xlink:href="#DejaVuSerif-32" transform="translate(165.858854 39.046875) scale(0.7)"/>
      <use xlink:href="#DejaVuSerif-2212" transform="translate(223.670378 39.046875) scale(0.7)"/>
      <use xlink:href="#DejaVuSerif-33" transform="translate(158.496094 -25.40625) scale(0.7)"/>
     </g>
    </g>
    <g id="line2d_49">
     <path d="M 359.47875 445.226437
L 369.82875 445.226437
L 380.17875 445.226437
" style="fill: none; stroke-dasharray: 8.14,3.52; stroke-dashoffset: 0; stroke: #8c564b; stroke-width: 2.2"/>
    </g>
    <g id="text_35">
     <!-- $H_3O^+$ -->
     <g transform="translate(387.37875 448.376437) scale(0.09 -0.09)">
      <use xlink:href="#DejaVuSerif-Italic-48" transform="translate(0 0.773438)"/>
      <use xlink:href="#DejaVuSerif-33" transform="translate(87.207031 -14.798438) scale(0.7)"/>
      <use xlink:href="#DejaVuSerif-Italic-4f" transform="translate(134.338477 0.773438)"/>
      <use xlink:href="#DejaVuSerif-2b" transform="translate(236.959049 37.107812) scale(0.7)"/>
     </g>
    </g>
    <g id="line2d_50">
     <path d="M 359.47875 457.916437
L 369.82875 457.916437
L 380.17875 457.916437
" style="fill: none; stroke-dasharray: 8.14,3.52; stroke-dashoffset: 0; stroke: #7f7f7f; stroke-width: 2.2"/>
    </g>
    <g id="text_36">
     <!-- $OH^-$ -->
     <g transform="translate(387.37875 461.066437) scale(0.09 -0.09)">
      <use xlink:href="#DejaVuSerif-Italic-4f" transform="translate(0 0.78125)"/>
      <use xlink:href="#DejaVuSerif-Italic-48" transform="translate(81.982422 0.78125)"/>
      <use xlink:href="#DejaVuSerif-2212" transform="translate(189.643854 37.115625) scale(0.7)"/>
     </g>
    </g>
    <g id="line2d_51">
     <path d="M 359.47875 470.606437
L 369.82875 470.606437
L 380.17875 470.606437
" style="fill: none; stroke-dasharray: 8.14,3.52; stroke-dashoffset: 0; stroke: #e377c2; stroke-width: 2.2"/>
    </g>
    <g id="text_37">
     <!-- $MEA + MEAH^+$ -->
     <g transform="translate(387.37875 473.756437) scale(0.09 -0.09)">
      <use xlink:href="#DejaVuSerif-Italic-4d" transform="translate(0 0.773438)"/>
      <use xlink:href="#DejaVuSerif-Italic-45" transform="translate(102.392578 0.773438)"/>
      <use xlink:href="#DejaVuSerif-Italic-41" transform="translate(175.390625 0.773438)"/>
      <use xlink:href="#DejaVuSerif-2b" transform="translate(266.572266 0.773438)"/>
      <use xlink:href="#DejaVuSerif-Italic-4d" transform="translate(369.326172 0.773438)"/>
      <use xlink:href="#DejaVuSerif-Italic-45" transform="translate(471.71875 0.773438)"/>
      <use xlink:href="#DejaVuSerif-Italic-41" transform="translate(544.716797 0.773438)"/>
      <use xlink:href="#DejaVuSerif-Italic-48" transform="translate(616.933594 0.773438)"/>
      <use xlink:href="#DejaVuSerif-2b" transform="translate(724.595026 37.107812) scale(0.7)"/>
     </g>
    </g>
   </g>
  </g>
 </g>
 <defs>
  <clipPath id="p68ecc62898">
   <rect x="53.47875" y="10.868437" width="711.9" height="473.328"/>
  </clipPath>
 </defs>
</svg>
