<?xml version="1.0" encoding="utf-8" standalone="no"?>
<!DOCTYPE svg PUBLIC "-//W3C//DTD SVG 1.1//EN"
  "http://www.w3.org/Graphics/SVG/1.1/DTD/svg11.dtd">
<svg xmlns:xlink="http://www.w3.org/1999/xlink" width="709.779509pt" height="492.688125pt" viewBox="0 0 709.779509 492.688125" xmlns="http://www.w3.org/2000/svg" version="1.1">
 <metadata>
  <rdf:RDF xmlns:dc="http://purl.org/dc/elements/1.1/" xmlns:cc="http://creativecommons.org/ns#" xmlns:rdf="http://www.w3.org/1999/02/22-rdf-syntax-ns#">
   <cc:Work>
    <dc:type rdf:resource="http://purl.org/dc/dcmitype/StillImage"/>
    <dc:format>image/svg+xml</dc:format>
    <dc:creator>
     <cc:Agent>
      <dc:title>Matplotlib v3.10.9, https://matplotlib.org/</dc:title>
     </cc:Agent>
    </dc:creator>
   </cc:Work>
  </rdf:RDF>
 </metadata>
 <defs>
  <style type="text/css">*{stroke-linejoin: round; stroke-linecap: butt}</style>
 </defs>
 <g id="figure_1">
  <g id="patch_1">
   <path d="M -0 492.688125
L 709.779509 492.688125
L 709.779509 0
L -0 0
z
" style="fill: #ffffff"/>
  </g>
  <g id="axes_1">
   <g id="patch_2">
    <path d="M 52.77 453.42
L 694.627946 453.42
L 694.627946 27.08
L 52.77 27.08
z
" style="fill: #ffffff"/>
   </g>
   <g id="matplotlib.axis_1">
    <g id="xtick_1">
     <g id="line2d_1">
      <path d="M 52.77 453.42
L 52.77 27.08
" clip-path="url(#p3df09d6e47)" style="fill: none; stroke: #b0b0b0; stroke-opacity: 0.22; stroke-width: 0.8; stroke-linecap: square"/>
     </g>
     <g id="line2d_2">
      <defs>
       <path id="m4e92a786cb" d="M 0 0
L 0 4
" style="stroke: #000000; stroke-width: 0.8"/>
      </defs>
      <g>
       <use xlink:href="#m4e92a786cb" x="52.77" y="453.42" style="stroke: #000000; stroke-width: 0.8"/>
      </g>
     </g>
     <g id="text_1">
      <!-- 0.0 -->
      <g transform="translate(44.818438 468.518437) scale(0.1 -0.1)">
       <defs>
        <path id="DejaVuSerif-30" d="M 2034 219
Q 2513 219 2750 744
Q 2988 1269 2988 2328
Q 2988 3391 2750 3916
Q 2513 4441 2034 4441
Q 1556 4441 1318 3916
Q 1081 3391 1081 2328
Q 1081 1269 1318 744
Q 1556 219 2034 219
z
M 2034 -91
Q 1275 -91 848 546
Q 422 1184 422 2328
Q 422 3475 848 4112
Q 1275 4750 2034 4750
Q 2797 4750 3222 4112
Q 3647 3475 3647 2328
Q 3647 1184 3222 546
Q 2797 -91 2034 -91
z
" transform="scale(0.015625)"/>
        <path id="DejaVuSerif-2e" d="M 603 325
Q 603 500 722 622
Q 841 744 1019 744
Q 1191 744 1312 622
Q 1434 500 1434 325
Q 1434 153 1312 31
Q 1191 -91 1019 -91
Q 841 -91 722 29
Q 603 150 603 325
z
" transform="scale(0.015625)"/>
       </defs>
       <use xlink:href="#DejaVuSerif-30"/>
       <use xlink:href="#DejaVuSerif-2e" transform="translate(63.623047 0)"/>
       <use xlink:href="#DejaVuSerif-30" transform="translate(95.410156 0)"/>
      </g>
     </g>
    </g>
    <g id="xtick_2">
     <g id="line2d_3">
      <path d="M 133.002243 453.42
L 133.002243 27.08
" clip-path="url(#p3df09d6e47)" style="fill: none; stroke: #b0b0b0; stroke-opacity: 0.22; stroke-width: 0.8; stroke-linecap: square"/>
     </g>
     <g id="line2d_4">
      <g>
       <use xlink:href="#m4e92a786cb" x="133.002243" y="453.42" style="stroke: #000000; stroke-width: 0.8"/>
      </g>
     </g>
     <g id="text_2">
      <!-- 0.1 -->
      <g transform="translate(125.050681 468.518437) scale(0.1 -0.1)">
       <defs>
        <path id="DejaVuSerif-31" d="M 909 0
L 909 331
L 1722 331
L 1722 4213
L 781 3603
L 781 4013
L 1919 4750
L 2350 4750
L 2350 331
L 3163 331
L 3163 0
L 909 0
z
" transform="scale(0.015625)"/>
       </defs>
       <use xlink:href="#DejaVuSerif-30"/>
       <use xlink:href="#DejaVuSerif-2e" transform="translate(63.623047 0)"/>
       <use xlink:href="#DejaVuSerif-31" transform="translate(95.410156 0)"/>
      </g>
     </g>
    </g>
    <g id="xtick_3">
     <g id="line2d_5">
      <path d="M 213.234487 453.42
L 213.234487 27.08
" clip-path="url(#p3df09d6e47)" style="fill: none; stroke: #b0b0b0; stroke-opacity: 0.22; stroke-width: 0.8; stroke-linecap: square"/>
     </g>
     <g id="line2d_6">
      <g>
       <use xlink:href="#m4e92a786cb" x="213.234487" y="453.42" style="stroke: #000000; stroke-width: 0.8"/>
      </g>
     </g>
     <g id="text_3">
      <!-- 0.2 -->
      <g transform="translate(205.282924 468.518437) scale(0.1 -0.1)">
       <defs>
        <path id="DejaVuSerif-32" d="M 819 3553
L 469 3553
L 469 4384
Q 803 4563 1142 4656
Q 1481 4750 1806 4750
Q 2534 4750 2956 4397
Q 3378 4044 3378 3438
Q 3378 2753 2422 1800
Q 2347 1728 2309 1691
L 1131 513
L 3078 513
L 3078 1088
L 3444 1088
L 3444 0
L 434 0
L 434 341
L 1850 1753
Q 2319 2222 2519 2614
Q 2719 3006 2719 3438
Q 2719 3909 2473 4175
Q 2228 4441 1797 4441
Q 1350 4441 1106 4219
Q 863 3997 819 3553
z
" transform="scale(0.015625)"/>
       </defs>
       <use xlink:href="#DejaVuSerif-30"/>
       <use xlink:href="#DejaVuSerif-2e" transform="translate(63.623047 0)"/>
       <use xlink:href="#DejaVuSerif-32" transform="translate(95.410156 0)"/>
      </g>
     </g>
    </g>
    <g id="xtick_4">
     <g id="line2d_7">
      <path d="M 293.46673 453.42
L 293.46673 27.08
" clip-path="url(#p3df09d6e47)" style="fill: none; stroke: #b0b0b0; stroke-opacity: 0.22; stroke-width: 0.8; stroke-linecap: square"/>
     </g>
     <g id="line2d_8">
      <g>
       <use xlink:href="#m4e92a786cb" x="293.46673" y="453.42" style="stroke: #000000; stroke-width: 0.8"/>
      </g>
     </g>
     <g id="text_4">
      <!-- 0.3 -->
      <g transform="translate(285.515167 468.518437) scale(0.1 -0.1)">
       <defs>
        <path id="DejaVuSerif-33" d="M 622 4469
Q 988 4606 1323 4678
Q 1659 4750 1953 4750
Q 2638 4750 3022 4454
Q 3406 4159 3406 3634
Q 3406 3213 3140 2930
Q 2875 2647 2388 2547
Q 2963 2466 3280 2130
Q 3597 1794 3597 1259
Q 3597 606 3158 257
Q 2719 -91 1894 -91
Q 1528 -91 1179 -12
Q 831 66 488 225
L 488 1131
L 838 1131
Q 869 681 1141 450
Q 1413 219 1906 219
Q 2384 219 2661 495
Q 2938 772 2938 1253
Q 2938 1803 2653 2086
Q 2369 2369 1819 2369
L 1522 2369
L 1522 2688
L 1678 2688
Q 2225 2688 2498 2914
Q 2772 3141 2772 3597
Q 2772 4006 2547 4223
Q 2322 4441 1900 4441
Q 1478 4441 1245 4241
Q 1013 4041 972 3647
L 622 3647
L 622 4469
z
" transform="scale(0.015625)"/>
       </defs>
       <use xlink:href="#DejaVuSerif-30"/>
       <use xlink:href="#DejaVuSerif-2e" transform="translate(63.623047 0)"/>
       <use xlink:href="#DejaVuSerif-33" transform="translate(95.410156 0)"/>
      </g>
     </g>
    </g>
    <g id="xtick_5">
     <g id="line2d_9">
      <path d="M 373.698973 453.42
L 373.698973 27.08
" clip-path="url(#p3df09d6e47)" style="fill: none; stroke: #b0b0b0; stroke-opacity: 0.22; stroke-width: 0.8; stroke-linecap: square"/>
     </g>
     <g id="line2d_10">
      <g>
       <use xlink:href="#m4e92a786cb" x="373.698973" y="453.42" style="stroke: #000000; stroke-width: 0.8"/>
      </g>
     </g>
     <g id="text_5">
      <!-- 0.4 -->
      <g transform="translate(365.747411 468.518437) scale(0.1 -0.1)">
       <defs>
        <path id="DejaVuSerif-34" d="M 2234 1581
L 2234 4063
L 641 1581
L 2234 1581
z
M 3609 0
L 1484 0
L 1484 331
L 2234 331
L 2234 1247
L 197 1247
L 197 1588
L 2241 4750
L 2859 4750
L 2859 1581
L 3750 1581
L 3750 1247
L 2859 1247
L 2859 331
L 3609 331
L 3609 0
z
" transform="scale(0.015625)"/>
       </defs>
       <use xlink:href="#DejaVuSerif-30"/>
       <use xlink:href="#DejaVuSerif-2e" transform="translate(63.623047 0)"/>
       <use xlink:href="#DejaVuSerif-34" transform="translate(95.410156 0)"/>
      </g>
     </g>
    </g>
    <g id="xtick_6">
     <g id="line2d_11">
      <path d="M 453.931216 453.42
L 453.931216 27.08
" clip-path="url(#p3df09d6e47)" style="fill: none; stroke: #b0b0b0; stroke-opacity: 0.22; stroke-width: 0.8; stroke-linecap: square"/>
     </g>
     <g id="line2d_12">
      <g>
       <use xlink:href="#m4e92a786cb" x="453.931216" y="453.42" style="stroke: #000000; stroke-width: 0.8"/>
      </g>
     </g>
     <g id="text_6">
      <!-- 0.5 -->
      <g transform="translate(445.979654 468.518437) scale(0.1 -0.1)">
       <defs>
        <path id="DejaVuSerif-35" d="M 3219 4666
L 3219 4153
L 1081 4153
L 1081 2816
Q 1244 2928 1461 2984
Q 1678 3041 1947 3041
Q 2703 3041 3140 2622
Q 3578 2203 3578 1478
Q 3578 738 3136 323
Q 2694 -91 1894 -91
Q 1572 -91 1234 -12
Q 897 66 544 225
L 544 1131
L 897 1131
Q 925 688 1179 453
Q 1434 219 1894 219
Q 2388 219 2653 544
Q 2919 869 2919 1478
Q 2919 2084 2655 2407
Q 2391 2731 1894 2731
Q 1613 2731 1398 2631
Q 1184 2531 1019 2322
L 750 2322
L 750 4666
L 3219 4666
z
" transform="scale(0.015625)"/>
       </defs>
       <use xlink:href="#DejaVuSerif-30"/>
       <use xlink:href="#DejaVuSerif-2e" transform="translate(63.623047 0)"/>
       <use xlink:href="#DejaVuSerif-35" transform="translate(95.410156 0)"/>
      </g>
     </g>
    </g>
    <g id="xtick_7">
     <g id="line2d_13">
      <path d="M 534.16346 453.42
L 534.16346 27.08
" clip-path="url(#p3df09d6e47)" style="fill: none; stroke: #b0b0b0; stroke-opacity: 0.22; stroke-width: 0.8; stroke-linecap: square"/>
     </g>
     <g id="line2d_14">
      <g>
       <use xlink:href="#m4e92a786cb" x="534.16346" y="453.42" style="stroke: #000000; stroke-width: 0.8"/>
      </g>
     </g>
     <g id="text_7">
      <!-- 0.6 -->
      <g transform="translate(526.211897 468.518437) scale(0.1 -0.1)">
       <defs>
        <path id="DejaVuSerif-36" d="M 2094 219
Q 2534 219 2771 542
Q 3009 866 3009 1472
Q 3009 2078 2771 2401
Q 2534 2725 2094 2725
Q 1647 2725 1412 2412
Q 1178 2100 1178 1509
Q 1178 888 1415 553
Q 1653 219 2094 219
z
M 1075 2569
Q 1288 2803 1556 2918
Q 1825 3034 2163 3034
Q 2859 3034 3264 2615
Q 3669 2197 3669 1472
Q 3669 763 3233 336
Q 2797 -91 2069 -91
Q 1278 -91 853 498
Q 428 1088 428 2181
Q 428 3406 931 4078
Q 1434 4750 2350 4750
Q 2597 4750 2869 4703
Q 3141 4656 3425 4563
L 3425 3794
L 3072 3794
Q 3034 4109 2831 4275
Q 2628 4441 2284 4441
Q 1678 4441 1381 3981
Q 1084 3522 1075 2569
z
" transform="scale(0.015625)"/>
       </defs>
       <use xlink:href="#DejaVuSerif-30"/>
       <use xlink:href="#DejaVuSerif-2e" transform="translate(63.623047 0)"/>
       <use xlink:href="#DejaVuSerif-36" transform="translate(95.410156 0)"/>
      </g>
     </g>
    </g>
    <g id="xtick_8">
     <g id="line2d_15">
      <path d="M 614.395703 453.42
L 614.395703 27.08
" clip-path="url(#p3df09d6e47)" style="fill: none; stroke: #b0b0b0; stroke-opacity: 0.22; stroke-width: 0.8; stroke-linecap: square"/>
     </g>
     <g id="line2d_16">
      <g>
       <use xlink:href="#m4e92a786cb" x="614.395703" y="453.42" style="stroke: #000000; stroke-width: 0.8"/>
      </g>
     </g>
     <g id="text_8">
      <!-- 0.7 -->
      <g transform="translate(606.44414 468.518437) scale(0.1 -0.1)">
       <defs>
        <path id="DejaVuSerif-37" d="M 3609 4347
L 1784 0
L 1319 0
L 3059 4153
L 903 4153
L 903 3578
L 538 3578
L 538 4666
L 3609 4666
L 3609 4347
z
" transform="scale(0.015625)"/>
       </defs>
       <use xlink:href="#DejaVuSerif-30"/>
       <use xlink:href="#DejaVuSerif-2e" transform="translate(63.623047 0)"/>
       <use xlink:href="#DejaVuSerif-37" transform="translate(95.410156 0)"/>
      </g>
     </g>
    </g>
    <g id="xtick_9">
     <g id="line2d_17">
      <path d="M 694.627946 453.42
L 694.627946 27.08
" clip-path="url(#p3df09d6e47)" style="fill: none; stroke: #b0b0b0; stroke-opacity: 0.22; stroke-width: 0.8; stroke-linecap: square"/>
     </g>
     <g id="line2d_18">
      <g>
       <use xlink:href="#m4e92a786cb" x="694.627946" y="453.42" style="stroke: #000000; stroke-width: 0.8"/>
      </g>
     </g>
     <g id="text_9">
      <!-- 0.8 -->
      <g transform="translate(686.676384 468.518437) scale(0.1 -0.1)">
       <defs>
        <path id="DejaVuSerif-38" d="M 2981 1275
Q 2981 1775 2732 2051
Q 2484 2328 2034 2328
Q 1584 2328 1336 2051
Q 1088 1775 1088 1275
Q 1088 772 1336 495
Q 1584 219 2034 219
Q 2484 219 2732 495
Q 2981 772 2981 1275
z
M 2853 3541
Q 2853 3966 2637 4203
Q 2422 4441 2034 4441
Q 1650 4441 1433 4203
Q 1216 3966 1216 3541
Q 1216 3113 1433 2875
Q 1650 2638 2034 2638
Q 2422 2638 2637 2875
Q 2853 3113 2853 3541
z
M 2516 2484
Q 3047 2413 3344 2092
Q 3641 1772 3641 1275
Q 3641 619 3225 264
Q 2809 -91 2034 -91
Q 1263 -91 845 264
Q 428 619 428 1275
Q 428 1772 725 2092
Q 1022 2413 1556 2484
Q 1084 2569 832 2842
Q 581 3116 581 3541
Q 581 4103 968 4426
Q 1356 4750 2034 4750
Q 2713 4750 3100 4426
Q 3488 4103 3488 3541
Q 3488 3116 3236 2842
Q 2984 2569 2516 2484
z
" transform="scale(0.015625)"/>
       </defs>
       <use xlink:href="#DejaVuSerif-30"/>
       <use xlink:href="#DejaVuSerif-2e" transform="translate(63.623047 0)"/>
       <use xlink:href="#DejaVuSerif-38" transform="translate(95.410156 0)"/>
      </g>
     </g>
    </g>
    <g id="text_10">
     <!-- $CO_2$ loading, mol $CO_2$/mol MEA -->
     <g transform="translate(285.588973 482.958125) scale(0.11 -0.11)">
      <defs>
       <path id="DejaVuSerif-Italic-43" d="M 4300 1234
Q 3966 581 3414 245
Q 2863 -91 2119 -91
Q 1663 -91 1303 65
Q 944 222 700 525
Q 419 875 334 1320
Q 250 1766 359 2328
Q 572 3416 1330 4083
Q 2088 4750 3116 4750
Q 3497 4750 3908 4650
Q 4319 4550 4775 4347
L 4569 3272
L 4216 3272
Q 4213 3859 3919 4137
Q 3625 4416 2997 4416
Q 2250 4416 1762 3886
Q 1275 3356 1075 2328
Q 875 1303 1156 773
Q 1438 244 2184 244
Q 2706 244 3092 492
Q 3478 741 3725 1234
L 4300 1234
z
" transform="scale(0.015625)"/>
       <path id="DejaVuSerif-Italic-4f" d="M 2219 244
Q 2984 244 3478 770
Q 3972 1297 4172 2328
Q 4372 3363 4084 3889
Q 3797 4416 3031 4416
Q 2263 4416 1769 3889
Q 1275 3363 1075 2328
Q 875 1297 1162 770
Q 1450 244 2219 244
z
M 2153 -91
Q 1678 -91 1311 65
Q 944 222 700 525
Q 419 875 334 1319
Q 250 1763 359 2328
Q 469 2894 725 3339
Q 981 3784 1400 4134
Q 1766 4441 2191 4595
Q 2616 4750 3097 4750
Q 4113 4750 4608 4084
Q 5103 3419 4891 2328
Q 4781 1769 4522 1320
Q 4263 872 3847 525
Q 3481 219 3056 64
Q 2631 -91 2153 -91
z
" transform="scale(0.015625)"/>
       <path id="DejaVuSerif-20" transform="scale(0.015625)"/>
       <path id="DejaVuSerif-6c" d="M 1313 331
L 1856 331
L 1856 0
L 184 0
L 184 331
L 738 331
L 738 4531
L 184 4531
L 184 4863
L 1313 4863
L 1313 331
z
" transform="scale(0.015625)"/>
       <path id="DejaVuSerif-6f" d="M 1925 219
Q 2388 219 2623 584
Q 2859 950 2859 1663
Q 2859 2375 2623 2739
Q 2388 3103 1925 3103
Q 1463 3103 1227 2739
Q 991 2375 991 1663
Q 991 950 1228 584
Q 1466 219 1925 219
z
M 1925 -91
Q 1200 -91 759 389
Q 319 869 319 1663
Q 319 2456 758 2934
Q 1197 3413 1925 3413
Q 2653 3413 3092 2934
Q 3531 2456 3531 1663
Q 3531 869 3092 389
Q 2653 -91 1925 -91
z
" transform="scale(0.015625)"/>
       <path id="DejaVuSerif-61" d="M 2547 1044
L 2547 1747
L 1806 1747
Q 1378 1747 1168 1562
Q 959 1378 959 997
Q 959 650 1171 447
Q 1384 244 1747 244
Q 2106 244 2326 466
Q 2547 688 2547 1044
z
M 3122 2075
L 3122 331
L 3634 331
L 3634 0
L 2547 0
L 2547 359
Q 2356 128 2106 18
Q 1856 -91 1522 -91
Q 969 -91 644 203
Q 319 497 319 997
Q 319 1513 691 1797
Q 1063 2081 1741 2081
L 2547 2081
L 2547 2309
Q 2547 2688 2317 2895
Q 2088 3103 1672 3103
Q 1328 3103 1125 2947
Q 922 2791 872 2484
L 575 2484
L 575 3156
Q 875 3284 1158 3348
Q 1441 3413 1709 3413
Q 2400 3413 2761 3070
Q 3122 2728 3122 2075
z
" transform="scale(0.015625)"/>
       <path id="DejaVuSerif-64" d="M 3359 331
L 3909 331
L 3909 0
L 2784 0
L 2784 519
Q 2616 206 2355 57
Q 2094 -91 1709 -91
Q 1097 -91 708 395
Q 319 881 319 1663
Q 319 2444 706 2928
Q 1094 3413 1709 3413
Q 2094 3413 2355 3264
Q 2616 3116 2784 2803
L 2784 4531
L 2241 4531
L 2241 4863
L 3359 4863
L 3359 331
z
M 2784 1497
L 2784 1825
Q 2784 2422 2554 2737
Q 2325 3053 1888 3053
Q 1444 3053 1217 2703
Q 991 2353 991 1663
Q 991 975 1217 622
Q 1444 269 1888 269
Q 2325 269 2554 583
Q 2784 897 2784 1497
z
" transform="scale(0.015625)"/>
       <path id="DejaVuSerif-69" d="M 622 4353
Q 622 4497 726 4603
Q 831 4709 978 4709
Q 1122 4709 1226 4603
Q 1331 4497 1331 4353
Q 1331 4206 1228 4103
Q 1125 4000 978 4000
Q 831 4000 726 4103
Q 622 4206 622 4353
z
M 1356 331
L 1900 331
L 1900 0
L 231 0
L 231 331
L 781 331
L 781 2988
L 231 2988
L 231 3322
L 1356 3322
L 1356 331
z
" transform="scale(0.015625)"/>
       <path id="DejaVuSerif-6e" d="M 263 0
L 263 331
L 781 331
L 781 2988
L 231 2988
L 231 3322
L 1356 3322
L 1356 2731
Q 1516 3069 1770 3241
Q 2025 3413 2363 3413
Q 2913 3413 3172 3097
Q 3431 2781 3431 2113
L 3431 331
L 3944 331
L 3944 0
L 2356 0
L 2356 331
L 2853 331
L 2853 1931
Q 2853 2541 2703 2767
Q 2553 2994 2175 2994
Q 1775 2994 1565 2701
Q 1356 2409 1356 1850
L 1356 331
L 1856 331
L 1856 0
L 263 0
z
" transform="scale(0.015625)"/>
       <path id="DejaVuSerif-67" d="M 3359 2988
L 3359 72
Q 3359 -644 2965 -1033
Q 2572 -1422 1844 -1422
Q 1516 -1422 1216 -1362
Q 916 -1303 641 -1184
L 641 -488
L 941 -488
Q 997 -813 1206 -963
Q 1416 -1113 1806 -1113
Q 2313 -1113 2548 -827
Q 2784 -541 2784 72
L 2784 519
Q 2616 206 2355 57
Q 2094 -91 1709 -91
Q 1097 -91 708 395
Q 319 881 319 1663
Q 319 2444 706 2928
Q 1094 3413 1709 3413
Q 2094 3413 2355 3264
Q 2616 3116 2784 2803
L 2784 3322
L 3909 3322
L 3909 2988
L 3359 2988
z
M 2784 1825
Q 2784 2422 2554 2737
Q 2325 3053 1888 3053
Q 1444 3053 1217 2703
Q 991 2353 991 1663
Q 991 975 1217 622
Q 1444 269 1888 269
Q 2325 269 2554 583
Q 2784 897 2784 1497
L 2784 1825
z
" transform="scale(0.015625)"/>
       <path id="DejaVuSerif-2c" d="M 231 -622
Q 525 -406 662 -114
Q 800 178 800 594
L 800 709
L 1416 709
Q 1391 175 1164 -208
Q 938 -591 481 -872
L 231 -622
z
" transform="scale(0.015625)"/>
       <path id="DejaVuSerif-6d" d="M 3316 2675
Q 3481 3041 3739 3227
Q 3997 3413 4341 3413
Q 4863 3413 5119 3089
Q 5375 2766 5375 2113
L 5375 331
L 5894 331
L 5894 0
L 4300 0
L 4300 331
L 4800 331
L 4800 2047
Q 4800 2556 4650 2772
Q 4500 2988 4153 2988
Q 3769 2988 3567 2697
Q 3366 2406 3366 1850
L 3366 331
L 3866 331
L 3866 0
L 2291 0
L 2291 331
L 2791 331
L 2791 2069
Q 2791 2566 2641 2777
Q 2491 2988 2144 2988
Q 1759 2988 1557 2697
Q 1356 2406 1356 1850
L 1356 331
L 1856 331
L 1856 0
L 263 0
L 263 331
L 781 331
L 781 2994
L 231 2994
L 231 3322
L 1356 3322
L 1356 2731
Q 1516 3063 1762 3238
Q 2009 3413 2322 3413
Q 2709 3413 2968 3220
Q 3228 3028 3316 2675
z
" transform="scale(0.015625)"/>
       <path id="DejaVuSerif-2f" d="M 1656 4666
L 2156 4666
L 500 -594
L 0 -594
L 1656 4666
z
" transform="scale(0.015625)"/>
       <path id="DejaVuSerif-4d" d="M 353 0
L 353 331
L 947 331
L 947 4331
L 319 4331
L 319 4666
L 1678 4666
L 3316 1344
L 4953 4666
L 6228 4666
L 6228 4331
L 5606 4331
L 5606 331
L 6203 331
L 6203 0
L 4378 0
L 4378 331
L 4972 331
L 4972 3938
L 3372 684
L 2931 684
L 1331 3938
L 1331 331
L 1925 331
L 1925 0
L 353 0
z
" transform="scale(0.015625)"/>
       <path id="DejaVuSerif-45" d="M 353 0
L 353 331
L 947 331
L 947 4331
L 353 4331
L 353 4666
L 4109 4666
L 4109 3628
L 3725 3628
L 3725 4281
L 1581 4281
L 1581 2719
L 3109 2719
L 3109 3303
L 3494 3303
L 3494 1753
L 3109 1753
L 3109 2338
L 1581 2338
L 1581 384
L 3775 384
L 3775 1038
L 4159 1038
L 4159 0
L 353 0
z
" transform="scale(0.015625)"/>
       <path id="DejaVuSerif-41" d="M 1281 1691
L 2994 1691
L 2138 3909
L 1281 1691
z
M -38 0
L -38 331
L 372 331
L 2034 4666
L 2559 4666
L 4225 331
L 4684 331
L 4684 0
L 2988 0
L 2988 331
L 3506 331
L 3116 1356
L 1153 1356
L 763 331
L 1275 331
L 1275 0
L -38 0
z
" transform="scale(0.015625)"/>
      </defs>
      <use xlink:href="#DejaVuSerif-Italic-43" transform="translate(0 0.015625)"/>
      <use xlink:href="#DejaVuSerif-Italic-4f" transform="translate(76.513672 0.015625)"/>
      <use xlink:href="#DejaVuSerif-32" transform="translate(158.496094 -15.55625) scale(0.7)"/>
      <use xlink:href="#DejaVuSerif-20" transform="translate(205.627539 0.015625)"/>
      <use xlink:href="#DejaVuSerif-6c" transform="translate(237.414648 0.015625)"/>
      <use xlink:href="#DejaVuSerif-6f" transform="translate(269.39707 0.015625)"/>
      <use xlink:href="#DejaVuSerif-61" transform="translate(329.602148 0.015625)"/>
      <use xlink:href="#DejaVuSerif-64" transform="translate(389.221289 0.015625)"/>
      <use xlink:href="#DejaVuSerif-69" transform="translate(453.234961 0.015625)"/>
      <use xlink:href="#DejaVuSerif-6e" transform="translate(485.217383 0.015625)"/>
      <use xlink:href="#DejaVuSerif-67" transform="translate(549.62168 0.015625)"/>
      <use xlink:href="#DejaVuSerif-2c" transform="translate(613.635352 0.015625)"/>
      <use xlink:href="#DejaVuSerif-20" transform="translate(645.422461 0.015625)"/>
      <use xlink:href="#DejaVuSerif-6d" transform="translate(677.20957 0.015625)"/>
      <use xlink:href="#DejaVuSerif-6f" transform="translate(772.033789 0.015625)"/>
      <use xlink:href="#DejaVuSerif-6c" transform="translate(832.238867 0.015625)"/>
      <use xlink:href="#DejaVuSerif-20" transform="translate(864.221289 0.015625)"/>
      <use xlink:href="#DejaVuSerif-Italic-43" transform="translate(896.008398 0.015625)"/>
      <use xlink:href="#DejaVuSerif-Italic-4f" transform="translate(972.52207 0.015625)"/>
      <use xlink:href="#DejaVuSerif-32" transform="translate(1054.504492 -15.55625) scale(0.7)"/>
      <use xlink:href="#DejaVuSerif-2f" transform="translate(1101.635937 0.015625)"/>
      <use xlink:href="#DejaVuSerif-6d" transform="translate(1135.327344 0.015625)"/>
      <use xlink:href="#DejaVuSerif-6f" transform="translate(1230.151562 0.015625)"/>
      <use xlink:href="#DejaVuSerif-6c" transform="translate(1290.356641 0.015625)"/>
      <use xlink:href="#DejaVuSerif-20" transform="translate(1322.339062 0.015625)"/>
      <use xlink:href="#DejaVuSerif-4d" transform="translate(1354.126172 0.015625)"/>
      <use xlink:href="#DejaVuSerif-45" transform="translate(1456.51875 0.015625)"/>
      <use xlink:href="#DejaVuSerif-41" transform="translate(1529.516797 0.015625)"/>
     </g>
    </g>
   </g>
   <g id="matplotlib.axis_2">
    <g id="ytick_1">
     <g id="line2d_19">
      <path d="M 52.77 453.42
L 694.627946 453.42
" clip-path="url(#p3df09d6e47)" style="fill: none; stroke: #b0b0b0; stroke-opacity: 0.22; stroke-width: 0.8; stroke-linecap: square"/>
     </g>
     <g id="line2d_20">
      <defs>
       <path id="mc5eb3276a0" d="M 0 0
L -4 0
" style="stroke: #000000; stroke-width: 0.8"/>
      </defs>
      <g>
       <use xlink:href="#mc5eb3276a0" x="52.77" y="453.42" style="stroke: #000000; stroke-width: 0.8"/>
      </g>
     </g>
     <g id="text_11">
      <!-- $\mathdefault{10^{-4}}$ -->
      <g transform="translate(21.87 457.219219) scale(0.1 -0.1)">
       <defs>
        <path id="DejaVuSerif-2212" d="M 678 2259
L 4684 2259
L 4684 1753
L 678 1753
L 678 2259
z
" transform="scale(0.015625)"/>
       </defs>
       <use xlink:href="#DejaVuSerif-31" transform="translate(0 0.7125)"/>
       <use xlink:href="#DejaVuSerif-30" transform="translate(63.623047 0.7125)"/>
       <use xlink:href="#DejaVuSerif-2212" transform="translate(128.154453 37.046875) scale(0.7)"/>
       <use xlink:href="#DejaVuSerif-34" transform="translate(186.806797 37.046875) scale(0.7)"/>
      </g>
     </g>
    </g>
    <g id="ytick_2">
     <g id="line2d_21">
      <path d="M 52.77 398.043761
L 694.627946 398.043761
" clip-path="url(#p3df09d6e47)" style="fill: none; stroke: #b0b0b0; stroke-opacity: 0.22; stroke-width: 0.8; stroke-linecap: square"/>
     </g>
     <g id="line2d_22">
      <g>
       <use xlink:href="#mc5eb3276a0" x="52.77" y="398.043761" style="stroke: #000000; stroke-width: 0.8"/>
      </g>
     </g>
     <g id="text_12">
      <!-- $\mathdefault{10^{-3}}$ -->
      <g transform="translate(21.87 401.84298) scale(0.1 -0.1)">
       <use xlink:href="#DejaVuSerif-31" transform="translate(0 0.7125)"/>
       <use xlink:href="#DejaVuSerif-30" transform="translate(63.623047 0.7125)"/>
       <use xlink:href="#DejaVuSerif-2212" transform="translate(128.154453 37.046875) scale(0.7)"/>
       <use xlink:href="#DejaVuSerif-33" transform="translate(186.806797 37.046875) scale(0.7)"/>
      </g>
     </g>
    </g>
    <g id="ytick_3">
     <g id="line2d_23">
      <path d="M 52.77 342.667523
L 694.627946 342.667523
" clip-path="url(#p3df09d6e47)" style="fill: none; stroke: #b0b0b0; stroke-opacity: 0.22; stroke-width: 0.8; stroke-linecap: square"/>
     </g>
     <g id="line2d_24">
      <g>
       <use xlink:href="#mc5eb3276a0" x="52.77" y="342.667523" style="stroke: #000000; stroke-width: 0.8"/>
      </g>
     </g>
     <g id="text_13">
      <!-- $\mathdefault{10^{-2}}$ -->
      <g transform="translate(21.87 346.466742) scale(0.1 -0.1)">
       <use xlink:href="#DejaVuSerif-31" transform="translate(0 0.7125)"/>
       <use xlink:href="#DejaVuSerif-30" transform="translate(63.623047 0.7125)"/>
       <use xlink:href="#DejaVuSerif-2212" transform="translate(128.154453 37.046875) scale(0.7)"/>
       <use xlink:href="#DejaVuSerif-32" transform="translate(186.806797 37.046875) scale(0.7)"/>
      </g>
     </g>
    </g>
    <g id="ytick_4">
     <g id="line2d_25">
      <path d="M 52.77 287.291284
L 694.627946 287.291284
" clip-path="url(#p3df09d6e47)" style="fill: none; stroke: #b0b0b0; stroke-opacity: 0.22; stroke-width: 0.8; stroke-linecap: square"/>
     </g>
     <g id="line2d_26">
      <g>
       <use xlink:href="#mc5eb3276a0" x="52.77" y="287.291284" style="stroke: #000000; stroke-width: 0.8"/>
      </g>
     </g>
     <g id="text_14">
      <!-- $\mathdefault{10^{-1}}$ -->
      <g transform="translate(21.87 291.090503) scale(0.1 -0.1)">
       <use xlink:href="#DejaVuSerif-31" transform="translate(0 0.7125)"/>
       <use xlink:href="#DejaVuSerif-30" transform="translate(63.623047 0.7125)"/>
       <use xlink:href="#DejaVuSerif-2212" transform="translate(128.154453 37.046875) scale(0.7)"/>
       <use xlink:href="#DejaVuSerif-31" transform="translate(186.806797 37.046875) scale(0.7)"/>
      </g>
     </g>
    </g>
    <g id="ytick_5">
     <g id="line2d_27">
      <path d="M 52.77 231.915046
L 694.627946 231.915046
" clip-path="url(#p3df09d6e47)" style="fill: none; stroke: #b0b0b0; stroke-opacity: 0.22; stroke-width: 0.8; stroke-linecap: square"/>
     </g>
     <g id="line2d_28">
      <g>
       <use xlink:href="#mc5eb3276a0" x="52.77" y="231.915046" style="stroke: #000000; stroke-width: 0.8"/>
      </g>
     </g>
     <g id="text_15">
      <!-- $\mathdefault{10^{0}}$ -->
      <g transform="translate(27.67 235.714264) scale(0.1 -0.1)">
       <use xlink:href="#DejaVuSerif-31" transform="translate(0 0.7125)"/>
       <use xlink:href="#DejaVuSerif-30" transform="translate(63.623047 0.7125)"/>
       <use xlink:href="#DejaVuSerif-30" transform="translate(128.154453 37.046875) scale(0.7)"/>
      </g>
     </g>
    </g>
    <g id="ytick_6">
     <g id="line2d_29">
      <path d="M 52.77 176.538807
L 694.627946 176.538807
" clip-path="url(#p3df09d6e47)" style="fill: none; stroke: #b0b0b0; stroke-opacity: 0.22; stroke-width: 0.8; stroke-linecap: square"/>
     </g>
     <g id="line2d_30">
      <g>
       <use xlink:href="#mc5eb3276a0" x="52.77" y="176.538807" style="stroke: #000000; stroke-width: 0.8"/>
      </g>
     </g>
     <g id="text_16">
      <!-- $\mathdefault{10^{1}}$ -->
      <g transform="translate(27.67 180.338026) scale(0.1 -0.1)">
       <use xlink:href="#DejaVuSerif-31" transform="translate(0 0.7125)"/>
       <use xlink:href="#DejaVuSerif-30" transform="translate(63.623047 0.7125)"/>
       <use xlink:href="#DejaVuSerif-31" transform="translate(128.154453 37.046875) scale(0.7)"/>
      </g>
     </g>
    </g>
    <g id="ytick_7">
     <g id="line2d_31">
      <path d="M 52.77 121.162568
L 694.627946 121.162568
" clip-path="url(#p3df09d6e47)" style="fill: none; stroke: #b0b0b0; stroke-opacity: 0.22; stroke-width: 0.8; stroke-linecap: square"/>
     </g>
     <g id="line2d_32">
      <g>
       <use xlink:href="#mc5eb3276a0" x="52.77" y="121.162568" style="stroke: #000000; stroke-width: 0.8"/>
      </g>
     </g>
     <g id="text_17">
      <!-- $\mathdefault{10^{2}}$ -->
      <g transform="translate(27.67 124.961787) scale(0.1 -0.1)">
       <use xlink:href="#DejaVuSerif-31" transform="translate(0 0.7125)"/>
       <use xlink:href="#DejaVuSerif-30" transform="translate(63.623047 0.7125)"/>
       <use xlink:href="#DejaVuSerif-32" transform="translate(128.154453 37.046875) scale(0.7)"/>
      </g>
     </g>
    </g>
    <g id="ytick_8">
     <g id="line2d_33">
      <path d="M 52.77 65.78633
L 694.627946 65.78633
" clip-path="url(#p3df09d6e47)" style="fill: none; stroke: #b0b0b0; stroke-opacity: 0.22; stroke-width: 0.8; stroke-linecap: square"/>
     </g>
     <g id="line2d_34">
      <g>
       <use xlink:href="#mc5eb3276a0" x="52.77" y="65.78633" style="stroke: #000000; stroke-width: 0.8"/>
      </g>
     </g>
     <g id="text_18">
      <!-- $\mathdefault{10^{3}}$ -->
      <g transform="translate(27.67 69.585548) scale(0.1 -0.1)">
       <use xlink:href="#DejaVuSerif-31" transform="translate(0 0.7125)"/>
       <use xlink:href="#DejaVuSerif-30" transform="translate(63.623047 0.7125)"/>
       <use xlink:href="#DejaVuSerif-33" transform="translate(128.154453 37.046875) scale(0.7)"/>
      </g>
     </g>
    </g>
    <g id="ytick_9">
     <g id="line2d_35">
      <defs>
       <path id="m2a75089604" d="M 0 0
L -2 0
" style="stroke: #000000; stroke-width: 0.6"/>
      </defs>
      <g>
       <use xlink:href="#m2a75089604" x="52.77" y="436.750091" style="stroke: #000000; stroke-width: 0.6"/>
      </g>
     </g>
    </g>
    <g id="ytick_10">
     <g id="line2d_36">
      <g>
       <use xlink:href="#m2a75089604" x="52.77" y="426.99882" style="stroke: #000000; stroke-width: 0.6"/>
      </g>
     </g>
    </g>
    <g id="ytick_11">
     <g id="line2d_37">
      <g>
       <use xlink:href="#m2a75089604" x="52.77" y="420.080182" style="stroke: #000000; stroke-width: 0.6"/>
      </g>
     </g>
    </g>
    <g id="ytick_12">
     <g id="line2d_38">
      <g>
       <use xlink:href="#m2a75089604" x="52.77" y="414.71367" style="stroke: #000000; stroke-width: 0.6"/>
      </g>
     </g>
    </g>
    <g id="ytick_13">
     <g id="line2d_39">
      <g>
       <use xlink:href="#m2a75089604" x="52.77" y="410.328911" style="stroke: #000000; stroke-width: 0.6"/>
      </g>
     </g>
    </g>
    <g id="ytick_14">
     <g id="line2d_40">
      <g>
       <use xlink:href="#m2a75089604" x="52.77" y="406.621649" style="stroke: #000000; stroke-width: 0.6"/>
      </g>
     </g>
    </g>
    <g id="ytick_15">
     <g id="line2d_41">
      <g>
       <use xlink:href="#m2a75089604" x="52.77" y="403.410273" style="stroke: #000000; stroke-width: 0.6"/>
      </g>
     </g>
    </g>
    <g id="ytick_16">
     <g id="line2d_42">
      <g>
       <use xlink:href="#m2a75089604" x="52.77" y="400.577639" style="stroke: #000000; stroke-width: 0.6"/>
      </g>
     </g>
    </g>
    <g id="ytick_17">
     <g id="line2d_43">
      <g>
       <use xlink:href="#m2a75089604" x="52.77" y="381.373853" style="stroke: #000000; stroke-width: 0.6"/>
      </g>
     </g>
    </g>
    <g id="ytick_18">
     <g id="line2d_44">
      <g>
       <use xlink:href="#m2a75089604" x="52.77" y="371.622581" style="stroke: #000000; stroke-width: 0.6"/>
      </g>
     </g>
    </g>
    <g id="ytick_19">
     <g id="line2d_45">
      <g>
       <use xlink:href="#m2a75089604" x="52.77" y="364.703944" style="stroke: #000000; stroke-width: 0.6"/>
      </g>
     </g>
    </g>
    <g id="ytick_20">
     <g id="line2d_46">
      <g>
       <use xlink:href="#m2a75089604" x="52.77" y="359.337432" style="stroke: #000000; stroke-width: 0.6"/>
      </g>
     </g>
    </g>
    <g id="ytick_21">
     <g id="line2d_47">
      <g>
       <use xlink:href="#m2a75089604" x="52.77" y="354.952672" style="stroke: #000000; stroke-width: 0.6"/>
      </g>
     </g>
    </g>
    <g id="ytick_22">
     <g id="line2d_48">
      <g>
       <use xlink:href="#m2a75089604" x="52.77" y="351.245411" style="stroke: #000000; stroke-width: 0.6"/>
      </g>
     </g>
    </g>
    <g id="ytick_23">
     <g id="line2d_49">
      <g>
       <use xlink:href="#m2a75089604" x="52.77" y="348.034035" style="stroke: #000000; stroke-width: 0.6"/>
      </g>
     </g>
    </g>
    <g id="ytick_24">
     <g id="line2d_50">
      <g>
       <use xlink:href="#m2a75089604" x="52.77" y="345.2014" style="stroke: #000000; stroke-width: 0.6"/>
      </g>
     </g>
    </g>
    <g id="ytick_25">
     <g id="line2d_51">
      <g>
       <use xlink:href="#m2a75089604" x="52.77" y="325.997614" style="stroke: #000000; stroke-width: 0.6"/>
      </g>
     </g>
    </g>
    <g id="ytick_26">
     <g id="line2d_52">
      <g>
       <use xlink:href="#m2a75089604" x="52.77" y="316.246342" style="stroke: #000000; stroke-width: 0.6"/>
      </g>
     </g>
    </g>
    <g id="ytick_27">
     <g id="line2d_53">
      <g>
       <use xlink:href="#m2a75089604" x="52.77" y="309.327705" style="stroke: #000000; stroke-width: 0.6"/>
      </g>
     </g>
    </g>
    <g id="ytick_28">
     <g id="line2d_54">
      <g>
       <use xlink:href="#m2a75089604" x="52.77" y="303.961193" style="stroke: #000000; stroke-width: 0.6"/>
      </g>
     </g>
    </g>
    <g id="ytick_29">
     <g id="line2d_55">
      <g>
       <use xlink:href="#m2a75089604" x="52.77" y="299.576433" style="stroke: #000000; stroke-width: 0.6"/>
      </g>
     </g>
    </g>
    <g id="ytick_30">
     <g id="line2d_56">
      <g>
       <use xlink:href="#m2a75089604" x="52.77" y="295.869172" style="stroke: #000000; stroke-width: 0.6"/>
      </g>
     </g>
    </g>
    <g id="ytick_31">
     <g id="line2d_57">
      <g>
       <use xlink:href="#m2a75089604" x="52.77" y="292.657796" style="stroke: #000000; stroke-width: 0.6"/>
      </g>
     </g>
    </g>
    <g id="ytick_32">
     <g id="line2d_58">
      <g>
       <use xlink:href="#m2a75089604" x="52.77" y="289.825162" style="stroke: #000000; stroke-width: 0.6"/>
      </g>
     </g>
    </g>
    <g id="ytick_33">
     <g id="line2d_59">
      <g>
       <use xlink:href="#m2a75089604" x="52.77" y="270.621375" style="stroke: #000000; stroke-width: 0.6"/>
      </g>
     </g>
    </g>
    <g id="ytick_34">
     <g id="line2d_60">
      <g>
       <use xlink:href="#m2a75089604" x="52.77" y="260.870104" style="stroke: #000000; stroke-width: 0.6"/>
      </g>
     </g>
    </g>
    <g id="ytick_35">
     <g id="line2d_61">
      <g>
       <use xlink:href="#m2a75089604" x="52.77" y="253.951466" style="stroke: #000000; stroke-width: 0.6"/>
      </g>
     </g>
    </g>
    <g id="ytick_36">
     <g id="line2d_62">
      <g>
       <use xlink:href="#m2a75089604" x="52.77" y="248.584954" style="stroke: #000000; stroke-width: 0.6"/>
      </g>
     </g>
    </g>
    <g id="ytick_37">
     <g id="line2d_63">
      <g>
       <use xlink:href="#m2a75089604" x="52.77" y="244.200195" style="stroke: #000000; stroke-width: 0.6"/>
      </g>
     </g>
    </g>
    <g id="ytick_38">
     <g id="line2d_64">
      <g>
       <use xlink:href="#m2a75089604" x="52.77" y="240.492933" style="stroke: #000000; stroke-width: 0.6"/>
      </g>
     </g>
    </g>
    <g id="ytick_39">
     <g id="line2d_65">
      <g>
       <use xlink:href="#m2a75089604" x="52.77" y="237.281558" style="stroke: #000000; stroke-width: 0.6"/>
      </g>
     </g>
    </g>
    <g id="ytick_40">
     <g id="line2d_66">
      <g>
       <use xlink:href="#m2a75089604" x="52.77" y="234.448923" style="stroke: #000000; stroke-width: 0.6"/>
      </g>
     </g>
    </g>
    <g id="ytick_41">
     <g id="line2d_67">
      <g>
       <use xlink:href="#m2a75089604" x="52.77" y="215.245137" style="stroke: #000000; stroke-width: 0.6"/>
      </g>
     </g>
    </g>
    <g id="ytick_42">
     <g id="line2d_68">
      <g>
       <use xlink:href="#m2a75089604" x="52.77" y="205.493865" style="stroke: #000000; stroke-width: 0.6"/>
      </g>
     </g>
    </g>
    <g id="ytick_43">
     <g id="line2d_69">
      <g>
       <use xlink:href="#m2a75089604" x="52.77" y="198.575228" style="stroke: #000000; stroke-width: 0.6"/>
      </g>
     </g>
    </g>
    <g id="ytick_44">
     <g id="line2d_70">
      <g>
       <use xlink:href="#m2a75089604" x="52.77" y="193.208716" style="stroke: #000000; stroke-width: 0.6"/>
      </g>
     </g>
    </g>
    <g id="ytick_45">
     <g id="line2d_71">
      <g>
       <use xlink:href="#m2a75089604" x="52.77" y="188.823956" style="stroke: #000000; stroke-width: 0.6"/>
      </g>
     </g>
    </g>
    <g id="ytick_46">
     <g id="line2d_72">
      <g>
       <use xlink:href="#m2a75089604" x="52.77" y="185.116695" style="stroke: #000000; stroke-width: 0.6"/>
      </g>
     </g>
    </g>
    <g id="ytick_47">
     <g id="line2d_73">
      <g>
       <use xlink:href="#m2a75089604" x="52.77" y="181.905319" style="stroke: #000000; stroke-width: 0.6"/>
      </g>
     </g>
    </g>
    <g id="ytick_48">
     <g id="line2d_74">
      <g>
       <use xlink:href="#m2a75089604" x="52.77" y="179.072685" style="stroke: #000000; stroke-width: 0.6"/>
      </g>
     </g>
    </g>
    <g id="ytick_49">
     <g id="line2d_75">
      <g>
       <use xlink:href="#m2a75089604" x="52.77" y="159.868898" style="stroke: #000000; stroke-width: 0.6"/>
      </g>
     </g>
    </g>
    <g id="ytick_50">
     <g id="line2d_76">
      <g>
       <use xlink:href="#m2a75089604" x="52.77" y="150.117627" style="stroke: #000000; stroke-width: 0.6"/>
      </g>
     </g>
    </g>
    <g id="ytick_51">
     <g id="line2d_77">
      <g>
       <use xlink:href="#m2a75089604" x="52.77" y="143.198989" style="stroke: #000000; stroke-width: 0.6"/>
      </g>
     </g>
    </g>
    <g id="ytick_52">
     <g id="line2d_78">
      <g>
       <use xlink:href="#m2a75089604" x="52.77" y="137.832477" style="stroke: #000000; stroke-width: 0.6"/>
      </g>
     </g>
    </g>
    <g id="ytick_53">
     <g id="line2d_79">
      <g>
       <use xlink:href="#m2a75089604" x="52.77" y="133.447718" style="stroke: #000000; stroke-width: 0.6"/>
      </g>
     </g>
    </g>
    <g id="ytick_54">
     <g id="line2d_80">
      <g>
       <use xlink:href="#m2a75089604" x="52.77" y="129.740456" style="stroke: #000000; stroke-width: 0.6"/>
      </g>
     </g>
    </g>
    <g id="ytick_55">
     <g id="line2d_81">
      <g>
       <use xlink:href="#m2a75089604" x="52.77" y="126.52908" style="stroke: #000000; stroke-width: 0.6"/>
      </g>
     </g>
    </g>
    <g id="ytick_56">
     <g id="line2d_82">
      <g>
       <use xlink:href="#m2a75089604" x="52.77" y="123.696446" style="stroke: #000000; stroke-width: 0.6"/>
      </g>
     </g>
    </g>
    <g id="ytick_57">
     <g id="line2d_83">
      <g>
       <use xlink:href="#m2a75089604" x="52.77" y="104.492659" style="stroke: #000000; stroke-width: 0.6"/>
      </g>
     </g>
    </g>
    <g id="ytick_58">
     <g id="line2d_84">
      <g>
       <use xlink:href="#m2a75089604" x="52.77" y="94.741388" style="stroke: #000000; stroke-width: 0.6"/>
      </g>
     </g>
    </g>
    <g id="ytick_59">
     <g id="line2d_85">
      <g>
       <use xlink:href="#m2a75089604" x="52.77" y="87.822751" style="stroke: #000000; stroke-width: 0.6"/>
      </g>
     </g>
    </g>
    <g id="ytick_60">
     <g id="line2d_86">
      <g>
       <use xlink:href="#m2a75089604" x="52.77" y="82.456239" style="stroke: #000000; stroke-width: 0.6"/>
      </g>
     </g>
    </g>
    <g id="ytick_61">
     <g id="line2d_87">
      <g>
       <use xlink:href="#m2a75089604" x="52.77" y="78.071479" style="stroke: #000000; stroke-width: 0.6"/>
      </g>
     </g>
    </g>
    <g id="ytick_62">
     <g id="line2d_88">
      <g>
       <use xlink:href="#m2a75089604" x="52.77" y="74.364218" style="stroke: #000000; stroke-width: 0.6"/>
      </g>
     </g>
    </g>
    <g id="ytick_63">
     <g id="line2d_89">
      <g>
       <use xlink:href="#m2a75089604" x="52.77" y="71.152842" style="stroke: #000000; stroke-width: 0.6"/>
      </g>
     </g>
    </g>
    <g id="ytick_64">
     <g id="line2d_90">
      <g>
       <use xlink:href="#m2a75089604" x="52.77" y="68.320207" style="stroke: #000000; stroke-width: 0.6"/>
      </g>
     </g>
    </g>
    <g id="ytick_65">
     <g id="line2d_91">
      <g>
       <use xlink:href="#m2a75089604" x="52.77" y="49.116421" style="stroke: #000000; stroke-width: 0.6"/>
      </g>
     </g>
    </g>
    <g id="ytick_66">
     <g id="line2d_92">
      <g>
       <use xlink:href="#m2a75089604" x="52.77" y="39.365149" style="stroke: #000000; stroke-width: 0.6"/>
      </g>
     </g>
    </g>
    <g id="ytick_67">
     <g id="line2d_93">
      <g>
       <use xlink:href="#m2a75089604" x="52.77" y="32.446512" style="stroke: #000000; stroke-width: 0.6"/>
      </g>
     </g>
    </g>
    <g id="ytick_68">
     <g id="line2d_94">
      <g>
       <use xlink:href="#m2a75089604" x="52.77" y="27.08" style="stroke: #000000; stroke-width: 0.6"/>
      </g>
     </g>
    </g>
    <g id="text_19">
     <!-- $CO_2$ partial pressure, kPa -->
     <g transform="translate(15.56 311.805) rotate(-90) scale(0.11 -0.11)">
      <defs>
       <path id="DejaVuSerif-70" d="M 1313 1825
L 1313 1497
Q 1313 897 1542 583
Q 1772 269 2209 269
Q 2650 269 2876 622
Q 3103 975 3103 1663
Q 3103 2353 2876 2703
Q 2650 3053 2209 3053
Q 1772 3053 1542 2737
Q 1313 2422 1313 1825
z
M 738 2988
L 184 2988
L 184 3322
L 1313 3322
L 1313 2803
Q 1481 3116 1742 3264
Q 2003 3413 2388 3413
Q 3000 3413 3387 2928
Q 3775 2444 3775 1663
Q 3775 881 3387 395
Q 3000 -91 2388 -91
Q 2003 -91 1742 57
Q 1481 206 1313 519
L 1313 -997
L 1856 -997
L 1856 -1331
L 184 -1331
L 184 -997
L 738 -997
L 738 2988
z
" transform="scale(0.015625)"/>
       <path id="DejaVuSerif-72" d="M 3059 3328
L 3059 2497
L 2728 2497
Q 2713 2744 2591 2866
Q 2469 2988 2234 2988
Q 1809 2988 1582 2694
Q 1356 2400 1356 1850
L 1356 331
L 2022 331
L 2022 0
L 263 0
L 263 331
L 781 331
L 781 2994
L 231 2994
L 231 3322
L 1356 3322
L 1356 2731
Q 1525 3078 1790 3245
Q 2056 3413 2438 3413
Q 2578 3413 2733 3391
Q 2888 3369 3059 3328
z
" transform="scale(0.015625)"/>
       <path id="DejaVuSerif-74" d="M 691 2988
L 184 2988
L 184 3322
L 691 3322
L 691 4353
L 1269 4353
L 1269 3322
L 2350 3322
L 2350 2988
L 1269 2988
L 1269 878
Q 1269 456 1350 337
Q 1431 219 1650 219
Q 1875 219 1978 351
Q 2081 484 2088 781
L 2522 781
Q 2497 328 2275 118
Q 2053 -91 1600 -91
Q 1103 -91 897 129
Q 691 350 691 878
L 691 2988
z
" transform="scale(0.015625)"/>
       <path id="DejaVuSerif-65" d="M 3469 1600
L 991 1600
L 991 1575
Q 991 903 1244 561
Q 1497 219 1991 219
Q 2369 219 2611 417
Q 2853 616 2950 1006
L 3413 1006
Q 3275 459 2904 184
Q 2534 -91 1931 -91
Q 1203 -91 761 389
Q 319 869 319 1663
Q 319 2450 753 2931
Q 1188 3413 1894 3413
Q 2647 3413 3050 2948
Q 3453 2484 3469 1600
z
M 2791 1931
Q 2772 2513 2545 2808
Q 2319 3103 1894 3103
Q 1497 3103 1269 2806
Q 1041 2509 991 1931
L 2791 1931
z
" transform="scale(0.015625)"/>
       <path id="DejaVuSerif-73" d="M 359 184
L 359 959
L 691 959
Q 703 588 923 403
Q 1144 219 1575 219
Q 1963 219 2166 364
Q 2369 509 2369 788
Q 2369 1006 2220 1140
Q 2072 1275 1594 1428
L 1178 1569
Q 750 1706 558 1912
Q 366 2119 366 2438
Q 366 2894 700 3153
Q 1034 3413 1625 3413
Q 1888 3413 2178 3344
Q 2469 3275 2778 3144
L 2778 2419
L 2447 2419
Q 2434 2741 2221 2922
Q 2009 3103 1644 3103
Q 1281 3103 1095 2975
Q 909 2847 909 2591
Q 909 2381 1050 2254
Q 1191 2128 1613 1997
L 2069 1856
Q 2541 1709 2748 1489
Q 2956 1269 2956 922
Q 2956 450 2595 179
Q 2234 -91 1600 -91
Q 1278 -91 972 -22
Q 666 47 359 184
z
" transform="scale(0.015625)"/>
       <path id="DejaVuSerif-75" d="M 2266 3322
L 3341 3322
L 3341 331
L 3884 331
L 3884 0
L 2766 0
L 2766 588
Q 2606 256 2353 82
Q 2100 -91 1766 -91
Q 1213 -91 952 223
Q 691 538 691 1209
L 691 2988
L 172 2988
L 172 3322
L 1269 3322
L 1269 1388
Q 1269 781 1417 556
Q 1566 331 1947 331
Q 2347 331 2556 625
Q 2766 919 2766 1478
L 2766 2988
L 2266 2988
L 2266 3322
z
" transform="scale(0.015625)"/>
       <path id="DejaVuSerif-6b" d="M 1831 0
L 219 0
L 219 331
L 738 331
L 738 4531
L 184 4531
L 184 4863
L 1313 4863
L 1313 1697
L 2713 2988
L 2234 2988
L 2234 3322
L 3738 3322
L 3738 2988
L 3169 2988
L 2181 2075
L 3444 331
L 3922 331
L 3922 0
L 2284 0
L 2284 331
L 2759 331
L 1766 1697
L 1313 1275
L 1313 331
L 1831 331
L 1831 0
z
" transform="scale(0.015625)"/>
       <path id="DejaVuSerif-50" d="M 1581 2375
L 2406 2375
Q 2872 2375 3115 2626
Q 3359 2878 3359 3353
Q 3359 3831 3115 4081
Q 2872 4331 2406 4331
L 1581 4331
L 1581 2375
z
M 353 0
L 353 331
L 947 331
L 947 4331
L 353 4331
L 353 4666
L 2559 4666
Q 3259 4666 3668 4311
Q 4078 3956 4078 3353
Q 4078 2753 3668 2397
Q 3259 2041 2559 2041
L 1581 2041
L 1581 331
L 2303 331
L 2303 0
L 353 0
z
" transform="scale(0.015625)"/>
      </defs>
      <use xlink:href="#DejaVuSerif-Italic-43" transform="translate(0 0.015625)"/>
      <use xlink:href="#DejaVuSerif-Italic-4f" transform="translate(76.513672 0.015625)"/>
      <use xlink:href="#DejaVuSerif-32" transform="translate(158.496094 -15.55625) scale(0.7)"/>
      <use xlink:href="#DejaVuSerif-20" transform="translate(205.627539 0.015625)"/>
      <use xlink:href="#DejaVuSerif-70" transform="translate(237.414648 0.015625)"/>
      <use xlink:href="#DejaVuSerif-61" transform="translate(301.42832 0.015625)"/>
      <use xlink:href="#DejaVuSerif-72" transform="translate(361.047461 0.015625)"/>
      <use xlink:href="#DejaVuSerif-74" transform="translate(408.850195 0.015625)"/>
      <use xlink:href="#DejaVuSerif-69" transform="translate(449.035742 0.015625)"/>
      <use xlink:href="#DejaVuSerif-61" transform="translate(481.018164 0.015625)"/>
      <use xlink:href="#DejaVuSerif-6c" transform="translate(540.637305 0.015625)"/>
      <use xlink:href="#DejaVuSerif-20" transform="translate(572.619727 0.015625)"/>
      <use xlink:href="#DejaVuSerif-70" transform="translate(604.406836 0.015625)"/>
      <use xlink:href="#DejaVuSerif-72" transform="translate(668.420508 0.015625)"/>
      <use xlink:href="#DejaVuSerif-65" transform="translate(716.223242 0.015625)"/>
      <use xlink:href="#DejaVuSerif-73" transform="translate(775.40293 0.015625)"/>
      <use xlink:href="#DejaVuSerif-73" transform="translate(826.721289 0.015625)"/>
      <use xlink:href="#DejaVuSerif-75" transform="translate(878.039648 0.015625)"/>
      <use xlink:href="#DejaVuSerif-72" transform="translate(942.443945 0.015625)"/>
      <use xlink:href="#DejaVuSerif-65" transform="translate(990.24668 0.015625)"/>
      <use xlink:href="#DejaVuSerif-2c" transform="translate(1049.426367 0.015625)"/>
      <use xlink:href="#DejaVuSerif-20" transform="translate(1081.213477 0.015625)"/>
      <use xlink:href="#DejaVuSerif-6b" transform="translate(1113.000586 0.015625)"/>
      <use xlink:href="#DejaVuSerif-50" transform="translate(1173.596289 0.015625)"/>
      <use xlink:href="#DejaVuSerif-61" transform="translate(1240.881445 0.015625)"/>
     </g>
    </g>
   </g>
   <g id="line2d_95">
    <defs>
     <path id="mafb1d34698" d="M -3 3
L 3 -3
M -3 -3
L 3 3
" style="stroke: #1f5aa6; stroke-opacity: 0.9"/>
    </defs>
    <g clip-path="url(#p3df09d6e47)">
     <use xlink:href="#mafb1d34698" x="215.641454" y="345.308526" style="fill: #1f5aa6; fill-opacity: 0.9; stroke: #1f5aa6; stroke-opacity: 0.9"/>
     <use xlink:href="#mafb1d34698" x="345.617688" y="296.672646" style="fill: #1f5aa6; fill-opacity: 0.9; stroke: #1f5aa6; stroke-opacity: 0.9"/>
     <use xlink:href="#mafb1d34698" x="432.669672" y="244.040396" style="fill: #1f5aa6; fill-opacity: 0.9; stroke: #1f5aa6; stroke-opacity: 0.9"/>
     <use xlink:href="#mafb1d34698" x="464.361408" y="209.214491" style="fill: #1f5aa6; fill-opacity: 0.9; stroke: #1f5aa6; stroke-opacity: 0.9"/>
     <use xlink:href="#mafb1d34698" x="499.663595" y="181.636272" style="fill: #1f5aa6; fill-opacity: 0.9; stroke: #1f5aa6; stroke-opacity: 0.9"/>
    </g>
   </g>
   <g id="line2d_96">
    <path d="M 215.641454 366.991496
L 229.842561 359.795409
L 244.043668 352.775204
L 258.244775 345.865759
L 272.445882 338.986023
L 286.646989 331.952817
L 300.848096 324.827456
L 315.049203 317.545231
L 329.25031 310.025992
L 343.451417 301.936058
L 357.652524 293.328684
L 371.853631 284.044811
L 386.054739 273.904068
L 400.255846 261.997372
L 414.456953 248.148169
L 428.65806 231.861786
L 442.859167 213.115378
L 457.060274 191.4196
L 471.261381 170.563563
L 485.462488 152.642659
L 499.663595 137.624778
" clip-path="url(#p3df09d6e47)" style="fill: none; stroke-dasharray: 2.2,3.63; stroke-dashoffset: 0; stroke: #1f5aa6; stroke-width: 2.2"/>
   </g>
   <g id="line2d_97">
    <defs>
     <path id="m9094f5f231" d="M -3 3
L 3 -3
M -3 -3
L 3 3
" style="stroke: #d47a00; stroke-opacity: 0.9"/>
    </defs>
    <g clip-path="url(#p3df09d6e47)">
     <use xlink:href="#m9094f5f231" x="148.246369" y="326.854433" style="fill: #d47a00; fill-opacity: 0.9; stroke: #d47a00; stroke-opacity: 0.9"/>
     <use xlink:href="#m9094f5f231" x="218.048421" y="300.433253" style="fill: #d47a00; fill-opacity: 0.9; stroke: #d47a00; stroke-opacity: 0.9"/>
     <use xlink:href="#m9094f5f231" x="364.873426" y="247.274536" style="fill: #d47a00; fill-opacity: 0.9; stroke: #d47a00; stroke-opacity: 0.9"/>
     <use xlink:href="#m9094f5f231" x="404.187225" y="215.125188" style="fill: #d47a00; fill-opacity: 0.9; stroke: #d47a00; stroke-opacity: 0.9"/>
     <use xlink:href="#m9094f5f231" x="457.140506" y="174.246636" style="fill: #d47a00; fill-opacity: 0.9; stroke: #d47a00; stroke-opacity: 0.9"/>
     <use xlink:href="#m9094f5f231" x="502.872885" y="147.107504" style="fill: #d47a00; fill-opacity: 0.9; stroke: #d47a00; stroke-opacity: 0.9"/>
     <use xlink:href="#m9094f5f231" x="517.314688" y="125.935233" style="fill: #d47a00; fill-opacity: 0.9; stroke: #d47a00; stroke-opacity: 0.9"/>
    </g>
   </g>
   <g id="line2d_98">
    <path d="M 148.246369 357.38836
L 166.699785 345.666579
L 185.153201 334.976896
L 203.606617 325.024723
L 222.060033 315.627124
L 240.513449 306.583015
L 258.966865 297.593514
L 277.420281 288.682473
L 295.873697 279.717613
L 314.327113 270.456203
L 332.780529 260.723779
L 351.233945 250.430803
L 369.687361 239.339256
L 388.140777 226.716458
L 406.594193 212.456411
L 425.047609 196.216796
L 443.501025 177.65877
L 461.954441 157.718024
L 480.407857 138.85035
L 498.861273 122.152269
L 517.314688 107.412542
" clip-path="url(#p3df09d6e47)" style="fill: none; stroke-dasharray: 2.2,3.63; stroke-dashoffset: 0; stroke: #d47a00; stroke-width: 2.2"/>
   </g>
   <g id="line2d_99">
    <defs>
     <path id="m006398da65" d="M -3 3
L 3 -3
M -3 -3
L 3 3
" style="stroke: #16805a; stroke-opacity: 0.9"/>
    </defs>
    <g clip-path="url(#p3df09d6e47)">
     <use xlink:href="#m006398da65" x="147.444047" y="287.484455" style="fill: #16805a; fill-opacity: 0.9; stroke: #16805a; stroke-opacity: 0.9"/>
     <use xlink:href="#m006398da65" x="202.804295" y="262.701754" style="fill: #16805a; fill-opacity: 0.9; stroke: #16805a; stroke-opacity: 0.9"/>
     <use xlink:href="#m006398da65" x="331.978207" y="208.296456" style="fill: #16805a; fill-opacity: 0.9; stroke: #16805a; stroke-opacity: 0.9"/>
     <use xlink:href="#m006398da65" x="421.838319" y="165.23541" style="fill: #16805a; fill-opacity: 0.9; stroke: #16805a; stroke-opacity: 0.9"/>
     <use xlink:href="#m006398da65" x="467.570698" y="135.106968" style="fill: #16805a; fill-opacity: 0.9; stroke: #16805a; stroke-opacity: 0.9"/>
     <use xlink:href="#m006398da65" x="516.913527" y="100.614226" style="fill: #16805a; fill-opacity: 0.9; stroke: #16805a; stroke-opacity: 0.9"/>
    </g>
   </g>
   <g id="line2d_100">
    <path d="M 147.444047 312.181164
L 165.917521 300.441478
L 184.390995 289.828818
L 202.864469 279.912321
L 221.337943 270.577233
L 239.811417 261.630415
L 258.284891 252.804054
L 276.758365 244.054386
L 295.231839 235.303486
L 313.705313 226.391544
L 332.178787 217.07672
L 350.652261 207.37478
L 369.125735 197.140993
L 387.599209 185.984856
L 406.072683 173.869751
L 424.546157 160.854917
L 443.019631 147.011068
L 461.493105 132.507365
L 479.966579 118.389776
L 498.440053 105.126316
L 516.913527 92.738938
" clip-path="url(#p3df09d6e47)" style="fill: none; stroke-dasharray: 2.2,3.63; stroke-dashoffset: 0; stroke: #16805a; stroke-width: 2.2"/>
   </g>
   <g id="line2d_101">
    <defs>
     <path id="m426a7e39ed" d="M -3 3
L 3 -3
M -3 -3
L 3 3
" style="stroke: #b6312c; stroke-opacity: 0.9"/>
    </defs>
    <g clip-path="url(#p3df09d6e47)">
     <use xlink:href="#m426a7e39ed" x="203.606617" y="223.31312" style="fill: #b6312c; fill-opacity: 0.9; stroke: #b6312c; stroke-opacity: 0.9"/>
     <use xlink:href="#m426a7e39ed" x="358.454847" y="161.102481" style="fill: #b6312c; fill-opacity: 0.9; stroke: #b6312c; stroke-opacity: 0.9"/>
     <use xlink:href="#m426a7e39ed" x="391.350067" y="143.807872" style="fill: #b6312c; fill-opacity: 0.9; stroke: #b6312c; stroke-opacity: 0.9"/>
     <use xlink:href="#m426a7e39ed" x="435.4778" y="130.0865" style="fill: #b6312c; fill-opacity: 0.9; stroke: #b6312c; stroke-opacity: 0.9"/>
     <use xlink:href="#m426a7e39ed" x="438.68709" y="119.09003" style="fill: #b6312c; fill-opacity: 0.9; stroke: #b6312c; stroke-opacity: 0.9"/>
     <use xlink:href="#m426a7e39ed" x="510.896109" y="82.027196" style="fill: #b6312c; fill-opacity: 0.9; stroke: #b6312c; stroke-opacity: 0.9"/>
     <use xlink:href="#m426a7e39ed" x="525.337913" y="89.310829" style="fill: #b6312c; fill-opacity: 0.9; stroke: #b6312c; stroke-opacity: 0.9"/>
    </g>
   </g>
   <g id="line2d_102">
    <path d="M 203.606617 236.700769
L 219.693182 228.713078
L 235.779747 221.021017
L 251.866312 213.531552
L 267.952876 206.166522
L 284.039441 198.857247
L 300.126006 191.540895
L 316.212571 184.158117
L 332.299136 176.65178
L 348.3857 168.966951
L 364.472265 161.052583
L 380.55883 152.865603
L 396.645395 144.378074
L 412.731959 135.587301
L 428.818524 126.526959
L 444.905089 117.273694
L 460.991654 107.941249
L 477.078218 98.661271
L 493.164783 89.555559
L 509.251348 80.713094
L 525.337913 72.180154
" clip-path="url(#p3df09d6e47)" style="fill: none; stroke-dasharray: 2.2,3.63; stroke-dashoffset: 0; stroke: #b6312c; stroke-width: 2.2"/>
   </g>
   <g id="line2d_103">
    <defs>
     <path id="meff888fe61" d="M -3 3
L 3 -3
M -3 -3
L 3 3
" style="stroke: #6f4aa8; stroke-opacity: 0.9"/>
    </defs>
    <g clip-path="url(#p3df09d6e47)">
     <use xlink:href="#meff888fe61" x="148.246369" y="211.98871" style="fill: #6f4aa8; fill-opacity: 0.9; stroke: #6f4aa8; stroke-opacity: 0.9"/>
     <use xlink:href="#meff888fe61" x="332.780529" y="139.423113" style="fill: #6f4aa8; fill-opacity: 0.9; stroke: #6f4aa8; stroke-opacity: 0.9"/>
     <use xlink:href="#meff888fe61" x="382.925681" y="116.380286" style="fill: #6f4aa8; fill-opacity: 0.9; stroke: #6f4aa8; stroke-opacity: 0.9"/>
     <use xlink:href="#meff888fe61" x="409.00116" y="101.982843" style="fill: #6f4aa8; fill-opacity: 0.9; stroke: #6f4aa8; stroke-opacity: 0.9"/>
     <use xlink:href="#meff888fe61" x="432.268511" y="86.535117" style="fill: #6f4aa8; fill-opacity: 0.9; stroke: #6f4aa8; stroke-opacity: 0.9"/>
     <use xlink:href="#meff888fe61" x="482.814824" y="70.500408" style="fill: #6f4aa8; fill-opacity: 0.9; stroke: #6f4aa8; stroke-opacity: 0.9"/>
    </g>
   </g>
   <g id="line2d_104">
    <path d="M 148.246369 227.88137
L 164.974792 217.492428
L 181.703215 208.084318
L 198.431638 199.386485
L 215.16006 191.213191
L 231.888483 183.429833
L 248.616906 175.926836
L 265.345329 168.607447
L 282.073751 161.430307
L 298.802174 154.339657
L 315.530597 147.288309
L 332.259019 140.236352
L 348.987442 133.150866
L 365.715865 126.006479
L 382.444288 118.786565
L 399.17271 111.484692
L 415.901133 104.10604
L 432.629556 96.667316
L 449.357978 89.195426
L 466.086401 81.723894
L 482.814824 74.287696
" clip-path="url(#p3df09d6e47)" style="fill: none; stroke-dasharray: 2.2,3.63; stroke-dashoffset: 0; stroke: #6f4aa8; stroke-width: 2.2"/>
   </g>
   <g id="patch_3">
    <path d="M 52.77 453.42
L 52.77 27.08
" style="fill: none; stroke: #000000; stroke-width: 0.8; stroke-linejoin: miter; stroke-linecap: square"/>
   </g>
   <g id="patch_4">
    <path d="M 52.77 453.42
L 694.627946 453.42
" style="fill: none; stroke: #000000; stroke-width: 0.8; stroke-linejoin: miter; stroke-linecap: square"/>
   </g>
   <g id="text_20">
    <!-- Six-species PC-SAFT reproduction against Jou $CO_2$ pressure data -->
    <g transform="translate(137.943973 17.08) scale(0.13 -0.13)">
     <defs>
      <path id="DejaVuSerif-Bold-53" d="M 494 225
L 494 1331
L 891 1331
Q 981 806 1318 547
Q 1656 288 2253 288
Q 2738 288 2991 472
Q 3244 656 3244 1013
Q 3244 1294 3072 1450
Q 2900 1606 2363 1741
L 1663 1913
Q 978 2088 700 2398
Q 422 2709 422 3284
Q 422 3978 883 4364
Q 1344 4750 2175 4750
Q 2584 4750 3026 4681
Q 3469 4613 3944 4475
L 3944 3444
L 3547 3444
Q 3456 3925 3150 4148
Q 2844 4372 2278 4372
Q 1816 4372 1580 4211
Q 1344 4050 1344 3731
Q 1344 3441 1506 3289
Q 1669 3138 2303 2975
L 3003 2803
Q 3653 2641 3945 2297
Q 4238 1953 4238 1350
Q 4238 644 3750 276
Q 3263 -91 2316 -91
Q 1859 -91 1409 -12
Q 959 66 494 225
z
" transform="scale(0.015625)"/>
      <path id="DejaVuSerif-Bold-69" d="M 588 4263
Q 588 4516 763 4689
Q 938 4863 1191 4863
Q 1438 4863 1611 4689
Q 1784 4516 1784 4263
Q 1784 4016 1611 3842
Q 1438 3669 1191 3669
Q 938 3669 763 3841
Q 588 4013 588 4263
z
M 1797 378
L 2272 378
L 2272 0
L 219 0
L 219 378
L 691 378
L 691 2944
L 219 2944
L 219 3322
L 1797 3322
L 1797 378
z
" transform="scale(0.015625)"/>
      <path id="DejaVuSerif-Bold-78" d="M 2247 2119
L 2834 2944
L 2425 2944
L 2425 3322
L 3719 3322
L 3719 2944
L 3278 2944
L 2431 1759
L 3419 378
L 3859 378
L 3859 0
L 1747 0
L 1747 378
L 2175 378
L 1550 1253
L 922 378
L 1369 378
L 1369 0
L 0 0
L 0 378
L 475 378
L 1356 1619
L 403 2944
L 31 2944
L 31 3322
L 2059 3322
L 2059 2944
L 1656 2944
L 2247 2119
z
" transform="scale(0.015625)"/>
      <path id="DejaVuSerif-Bold-2d" d="M 347 2138
L 2309 2138
L 2309 1294
L 347 1294
L 347 2138
z
" transform="scale(0.015625)"/>
      <path id="DejaVuSerif-Bold-73" d="M 300 97
L 300 1025
L 653 1025
Q 697 653 931 458
Q 1166 263 1569 263
Q 1906 263 2086 380
Q 2266 497 2266 716
Q 2266 916 2152 1025
Q 2038 1134 1709 1216
L 1253 1331
Q 738 1459 506 1698
Q 275 1938 275 2344
Q 275 2884 650 3148
Q 1025 3413 1806 3413
Q 2100 3413 2433 3364
Q 2766 3316 3169 3213
L 3169 2375
L 2816 2375
Q 2788 2716 2573 2887
Q 2359 3059 1959 3059
Q 1622 3059 1448 2951
Q 1275 2844 1275 2638
Q 1275 2469 1375 2372
Q 1475 2275 1734 2209
L 2188 2094
Q 2841 1928 3091 1684
Q 3341 1441 3341 1006
Q 3341 444 2939 176
Q 2538 -91 1691 -91
Q 1381 -91 1034 -44
Q 688 3 300 97
z
" transform="scale(0.015625)"/>
      <path id="DejaVuSerif-Bold-70" d="M 1728 1825
L 1728 1497
Q 1728 916 1876 656
Q 2025 397 2356 397
Q 2697 397 2836 672
Q 2975 947 2975 1663
Q 2975 2378 2836 2651
Q 2697 2925 2356 2925
Q 2025 2925 1876 2665
Q 1728 2406 1728 1825
z
M 622 2944
L 147 2944
L 147 3322
L 1728 3322
L 1728 2900
Q 1869 3159 2106 3286
Q 2344 3413 2694 3413
Q 3403 3413 3811 2945
Q 4219 2478 4219 1663
Q 4219 847 3811 378
Q 3403 -91 2694 -91
Q 2344 -91 2106 36
Q 1869 163 1728 422
L 1728 -953
L 2241 -953
L 2241 -1331
L 147 -1331
L 147 -953
L 622 -953
L 622 2944
z
" transform="scale(0.015625)"/>
      <path id="DejaVuSerif-Bold-65" d="M 2566 1875
Q 2566 2531 2444 2795
Q 2322 3059 2028 3059
Q 1744 3059 1620 2800
Q 1497 2541 1497 1931
L 1497 1875
L 2566 1875
z
M 3781 1503
L 1497 1503
L 1497 1478
Q 1497 834 1690 548
Q 1884 263 2316 263
Q 2675 263 2897 453
Q 3119 644 3181 1006
L 3700 1006
Q 3566 441 3166 175
Q 2766 -91 2047 -91
Q 1184 -91 723 364
Q 263 819 263 1663
Q 263 2488 734 2950
Q 1206 3413 2047 3413
Q 2872 3413 3312 2927
Q 3753 2441 3781 1503
z
" transform="scale(0.015625)"/>
      <path id="DejaVuSerif-Bold-63" d="M 3609 1038
Q 3491 469 3123 189
Q 2756 -91 2125 -91
Q 1238 -91 750 368
Q 263 828 263 1663
Q 263 2488 744 2950
Q 1225 3413 2081 3413
Q 2428 3413 2781 3347
Q 3134 3281 3500 3150
L 3500 2228
L 3150 2228
Q 3100 2650 2903 2854
Q 2706 3059 2350 3059
Q 1888 3059 1692 2746
Q 1497 2434 1497 1663
Q 1497 909 1687 586
Q 1878 263 2309 263
Q 2644 263 2845 463
Q 3047 663 3091 1038
L 3609 1038
z
" transform="scale(0.015625)"/>
      <path id="DejaVuSerif-Bold-20" transform="scale(0.015625)"/>
      <path id="DejaVuSerif-Bold-50" d="M 300 0
L 300 378
L 897 378
L 897 4288
L 300 4288
L 300 4666
L 2956 4666
Q 3734 4666 4193 4295
Q 4653 3925 4653 3303
Q 4653 2678 4192 2304
Q 3731 1931 2956 1931
L 2100 1931
L 2100 378
L 2853 378
L 2853 0
L 300 0
z
M 2100 2309
L 2450 2309
Q 2856 2309 3098 2579
Q 3341 2850 3341 3303
Q 3341 3753 3100 4020
Q 2859 4288 2450 4288
L 2100 4288
L 2100 2309
z
" transform="scale(0.015625)"/>
      <path id="DejaVuSerif-Bold-43" d="M 4769 1331
Q 4584 609 4106 259
Q 3628 -91 2822 -91
Q 1641 -91 955 561
Q 269 1213 269 2328
Q 269 3447 955 4098
Q 1641 4750 2822 4750
Q 3238 4750 3688 4650
Q 4138 4550 4641 4347
L 4641 3200
L 4244 3200
Q 4122 3788 3800 4080
Q 3478 4372 2950 4372
Q 2269 4372 1937 3870
Q 1606 3369 1606 2328
Q 1606 1288 1937 788
Q 2269 288 2956 288
Q 3422 288 3717 547
Q 4013 806 4147 1331
L 4769 1331
z
" transform="scale(0.015625)"/>
      <path id="DejaVuSerif-Bold-41" d="M -50 0
L -50 378
L 331 378
L 2088 4666
L 2834 4666
L 4594 378
L 5038 378
L 5038 0
L 2853 0
L 2853 378
L 3309 378
L 2925 1331
L 1172 1331
L 781 378
L 1338 378
L 1338 0
L -50 0
z
M 1325 1709
L 2772 1709
L 2053 3494
L 1325 1709
z
" transform="scale(0.015625)"/>
      <path id="DejaVuSerif-Bold-46" d="M 300 0
L 300 378
L 897 378
L 897 4288
L 300 4288
L 300 4666
L 4459 4666
L 4459 3566
L 4031 3566
L 4031 4238
L 2106 4238
L 2106 2741
L 3291 2741
L 3291 3334
L 3719 3334
L 3719 1722
L 3291 1722
L 3291 2316
L 2106 2316
L 2106 378
L 2841 378
L 2841 0
L 300 0
z
" transform="scale(0.015625)"/>
      <path id="DejaVuSerif-Bold-54" d="M 1159 0
L 1159 378
L 1778 378
L 1778 4238
L 500 4238
L 500 3500
L 72 3500
L 72 4666
L 4697 4666
L 4697 3500
L 4275 3500
L 4275 4238
L 2988 4238
L 2988 378
L 3609 378
L 3609 0
L 1159 0
z
" transform="scale(0.015625)"/>
      <path id="DejaVuSerif-Bold-72" d="M 3438 3359
L 3438 2369
L 3084 2369
Q 3066 2634 2941 2764
Q 2816 2894 2578 2894
Q 2216 2894 2006 2575
Q 1797 2256 1797 1691
L 1797 378
L 2400 378
L 2400 0
L 219 0
L 219 378
L 691 378
L 691 2944
L 184 2944
L 184 3322
L 1797 3322
L 1797 2731
Q 1959 3078 2226 3245
Q 2494 3413 2881 3413
Q 2978 3413 3117 3398
Q 3256 3384 3438 3359
z
" transform="scale(0.015625)"/>
      <path id="DejaVuSerif-Bold-6f" d="M 2138 263
Q 2488 263 2630 563
Q 2772 863 2772 1663
Q 2772 2463 2631 2761
Q 2491 3059 2138 3059
Q 1784 3059 1640 2757
Q 1497 2456 1497 1663
Q 1497 869 1640 566
Q 1784 263 2138 263
z
M 2138 -91
Q 1259 -91 761 376
Q 263 844 263 1663
Q 263 2484 761 2948
Q 1259 3413 2138 3413
Q 3019 3413 3516 2948
Q 4013 2484 4013 1663
Q 4013 844 3514 376
Q 3016 -91 2138 -91
z
" transform="scale(0.015625)"/>
      <path id="DejaVuSerif-Bold-64" d="M 2747 1497
L 2747 1825
Q 2747 2406 2597 2665
Q 2447 2925 2119 2925
Q 1775 2925 1636 2651
Q 1497 2378 1497 1663
Q 1497 947 1637 672
Q 1778 397 2119 397
Q 2447 397 2597 656
Q 2747 916 2747 1497
z
M 3853 378
L 4325 378
L 4325 0
L 2747 0
L 2747 422
Q 2606 163 2367 36
Q 2128 -91 1778 -91
Q 1072 -91 667 378
Q 263 847 263 1663
Q 263 2481 667 2947
Q 1072 3413 1778 3413
Q 2128 3413 2367 3286
Q 2606 3159 2747 2900
L 2747 4488
L 2272 4488
L 2272 4863
L 3853 4863
L 3853 378
z
" transform="scale(0.015625)"/>
      <path id="DejaVuSerif-Bold-75" d="M 3963 3322
L 3963 378
L 4434 378
L 4434 0
L 2853 0
L 2853 469
Q 2656 172 2400 40
Q 2144 -91 1753 -91
Q 1194 -91 908 239
Q 622 569 622 1209
L 622 2944
L 147 2944
L 147 3322
L 1728 3322
L 1728 1381
Q 1728 763 1831 595
Q 1934 428 2209 428
Q 2544 428 2698 675
Q 2853 922 2853 1459
L 2853 2944
L 2450 2944
L 2450 3322
L 3963 3322
z
" transform="scale(0.015625)"/>
      <path id="DejaVuSerif-Bold-74" d="M 634 2944
L 153 2944
L 153 3322
L 634 3322
L 634 4353
L 1741 4353
L 1741 3322
L 2663 3322
L 2663 2944
L 1741 2944
L 1741 909
Q 1741 475 1809 369
Q 1878 263 2059 263
Q 2259 263 2356 397
Q 2453 531 2459 813
L 2925 813
Q 2897 313 2651 111
Q 2406 -91 1806 -91
Q 1122 -91 878 123
Q 634 338 634 909
L 634 2944
z
" transform="scale(0.015625)"/>
      <path id="DejaVuSerif-Bold-6e" d="M 219 0
L 219 378
L 691 378
L 691 2944
L 219 2944
L 219 3322
L 1797 3322
L 1797 2853
Q 1997 3150 2253 3281
Q 2509 3413 2900 3413
Q 3459 3413 3745 3083
Q 4031 2753 4031 2113
L 4031 378
L 4506 378
L 4506 0
L 2522 0
L 2522 378
L 2925 378
L 2925 2144
Q 2925 2566 2817 2730
Q 2709 2894 2444 2894
Q 2109 2894 1953 2648
Q 1797 2403 1797 1869
L 1797 378
L 2203 378
L 2203 0
L 219 0
z
" transform="scale(0.015625)"/>
      <path id="DejaVuSerif-Bold-61" d="M 3525 2041
L 3525 378
L 4000 378
L 4000 0
L 2419 0
L 2419 422
Q 2200 159 1931 34
Q 1663 -91 1319 -91
Q 809 -91 536 182
Q 263 456 263 966
Q 263 1525 655 1803
Q 1047 2081 1838 2081
L 2419 2081
L 2419 2278
Q 2419 2681 2228 2873
Q 2038 3066 1638 3066
Q 1306 3066 1126 2930
Q 947 2794 872 2484
L 519 2484
L 519 3200
Q 816 3306 1134 3359
Q 1453 3413 1806 3413
Q 2697 3413 3111 3081
Q 3525 2750 3525 2041
z
M 2419 1044
L 2419 1709
L 2003 1709
Q 1694 1709 1528 1540
Q 1363 1372 1363 1056
Q 1363 741 1483 584
Q 1603 428 1850 428
Q 2106 428 2262 597
Q 2419 766 2419 1044
z
" transform="scale(0.015625)"/>
      <path id="DejaVuSerif-Bold-67" d="M 3853 2944
L 3853 44
Q 3853 -656 3354 -1039
Q 2856 -1422 1947 -1422
Q 1616 -1422 1275 -1370
Q 934 -1319 575 -1216
L 575 -422
L 928 -422
Q 975 -750 1192 -909
Q 1409 -1069 1813 -1069
Q 2325 -1069 2536 -823
Q 2747 -578 2747 44
L 2747 422
Q 2606 163 2367 36
Q 2128 -91 1778 -91
Q 1072 -91 667 378
Q 263 847 263 1663
Q 263 2481 667 2947
Q 1072 3413 1778 3413
Q 2128 3413 2367 3286
Q 2606 3159 2747 2900
L 2747 3322
L 4325 3322
L 4325 2944
L 3853 2944
z
M 2747 1825
Q 2747 2406 2597 2665
Q 2447 2925 2119 2925
Q 1775 2925 1636 2651
Q 1497 2378 1497 1663
Q 1497 947 1637 672
Q 1778 397 2119 397
Q 2447 397 2597 656
Q 2747 916 2747 1497
L 2747 1825
z
" transform="scale(0.015625)"/>
      <path id="DejaVuSerif-Bold-4a" d="M -469 -1119
L -469 -384
L -63 -384
Q -44 -678 76 -815
Q 197 -953 434 -953
Q 738 -953 858 -720
Q 978 -488 978 153
L 978 4288
L 300 4288
L 300 4666
L 2784 4666
L 2784 4288
L 2188 4288
L 2188 128
Q 2188 -631 1805 -981
Q 1422 -1331 588 -1331
Q 328 -1331 65 -1278
Q -197 -1225 -469 -1119
z
" transform="scale(0.015625)"/>
     </defs>
     <use xlink:href="#DejaVuSerif-Bold-53" transform="translate(0 0.015625)"/>
     <use xlink:href="#DejaVuSerif-Bold-69" transform="translate(72.216797 0.015625)"/>
     <use xlink:href="#DejaVuSerif-Bold-78" transform="translate(110.205078 0.015625)"/>
     <use xlink:href="#DejaVuSerif-Bold-2d" transform="translate(169.824219 0.015625)"/>
     <use xlink:href="#DejaVuSerif-Bold-73" transform="translate(211.328125 0.015625)"/>
     <use xlink:href="#DejaVuSerif-Bold-70" transform="translate(267.626953 0.015625)"/>
     <use xlink:href="#DejaVuSerif-Bold-65" transform="translate(337.548828 0.015625)"/>
     <use xlink:href="#DejaVuSerif-Bold-63" transform="translate(401.171875 0.015625)"/>
     <use xlink:href="#DejaVuSerif-Bold-69" transform="translate(462.060547 0.015625)"/>
     <use xlink:href="#DejaVuSerif-Bold-65" transform="translate(500.048828 0.015625)"/>
     <use xlink:href="#DejaVuSerif-Bold-73" transform="translate(563.671875 0.015625)"/>
     <use xlink:href="#DejaVuSerif-Bold-20" transform="translate(619.970703 0.015625)"/>
     <use xlink:href="#DejaVuSerif-Bold-50" transform="translate(654.785156 0.015625)"/>
     <use xlink:href="#DejaVuSerif-Bold-43" transform="translate(729.980469 0.015625)"/>
     <use xlink:href="#DejaVuSerif-Bold-2d" transform="translate(809.570312 0.015625)"/>
     <use xlink:href="#DejaVuSerif-Bold-53" transform="translate(851.074219 0.015625)"/>
     <use xlink:href="#DejaVuSerif-Bold-41" transform="translate(923.291016 0.015625)"/>
     <use xlink:href="#DejaVuSerif-Bold-46" transform="translate(1000.878906 0.015625)"/>
     <use xlink:href="#DejaVuSerif-Bold-54" transform="translate(1071.875 0.015625)"/>
     <use xlink:href="#DejaVuSerif-Bold-20" transform="translate(1146.289062 0.015625)"/>
     <use xlink:href="#DejaVuSerif-Bold-72" transform="translate(1181.103516 0.015625)"/>
     <use xlink:href="#DejaVuSerif-Bold-65" transform="translate(1233.789062 0.015625)"/>
     <use xlink:href="#DejaVuSerif-Bold-70" transform="translate(1297.412109 0.015625)"/>
     <use xlink:href="#DejaVuSerif-Bold-72" transform="translate(1367.333984 0.015625)"/>
     <use xlink:href="#DejaVuSerif-Bold-6f" transform="translate(1420.019531 0.015625)"/>
     <use xlink:href="#DejaVuSerif-Bold-64" transform="translate(1486.71875 0.015625)"/>
     <use xlink:href="#DejaVuSerif-Bold-75" transform="translate(1556.640625 0.015625)"/>
     <use xlink:href="#DejaVuSerif-Bold-63" transform="translate(1629.345703 0.015625)"/>
     <use xlink:href="#DejaVuSerif-Bold-74" transform="translate(1690.234375 0.015625)"/>
     <use xlink:href="#DejaVuSerif-Bold-69" transform="translate(1736.425781 0.015625)"/>
     <use xlink:href="#DejaVuSerif-Bold-6f" transform="translate(1774.414062 0.015625)"/>
     <use xlink:href="#DejaVuSerif-Bold-6e" transform="translate(1841.113281 0.015625)"/>
     <use xlink:href="#DejaVuSerif-Bold-20" transform="translate(1913.818359 0.015625)"/>
     <use xlink:href="#DejaVuSerif-Bold-61" transform="translate(1948.632812 0.015625)"/>
     <use xlink:href="#DejaVuSerif-Bold-67" transform="translate(2013.427734 0.015625)"/>
     <use xlink:href="#DejaVuSerif-Bold-61" transform="translate(2083.349609 0.015625)"/>
     <use xlink:href="#DejaVuSerif-Bold-69" transform="translate(2148.144531 0.015625)"/>
     <use xlink:href="#DejaVuSerif-Bold-6e" transform="translate(2186.132812 0.015625)"/>
     <use xlink:href="#DejaVuSerif-Bold-73" transform="translate(2258.837891 0.015625)"/>
     <use xlink:href="#DejaVuSerif-Bold-74" transform="translate(2315.136719 0.015625)"/>
     <use xlink:href="#DejaVuSerif-Bold-20" transform="translate(2361.328125 0.015625)"/>
     <use xlink:href="#DejaVuSerif-Bold-4a" transform="translate(2396.142578 0.015625)"/>
     <use xlink:href="#DejaVuSerif-Bold-6f" transform="translate(2443.457031 0.015625)"/>
     <use xlink:href="#DejaVuSerif-Bold-75" transform="translate(2510.15625 0.015625)"/>
     <use xlink:href="#DejaVuSerif-Bold-20" transform="translate(2582.861328 0.015625)"/>
     <use xlink:href="#DejaVuSerif-Italic-43" transform="translate(2617.675781 0.015625)"/>
     <use xlink:href="#DejaVuSerif-Italic-4f" transform="translate(2694.189453 0.015625)"/>
     <use xlink:href="#DejaVuSerif-32" transform="translate(2776.171875 -15.55625) scale(0.7)"/>
     <use xlink:href="#DejaVuSerif-Bold-20" transform="translate(2823.30332 0.015625)"/>
     <use xlink:href="#DejaVuSerif-Bold-70" transform="translate(2858.117773 0.015625)"/>
     <use xlink:href="#DejaVuSerif-Bold-72" transform="translate(2928.039648 0.015625)"/>
     <use xlink:href="#DejaVuSerif-Bold-65" transform="translate(2980.725195 0.015625)"/>
     <use xlink:href="#DejaVuSerif-Bold-73" transform="translate(3044.348242 0.015625)"/>
     <use xlink:href="#DejaVuSerif-Bold-73" transform="translate(3100.64707 0.015625)"/>
     <use xlink:href="#DejaVuSerif-Bold-75" transform="translate(3156.945898 0.015625)"/>
     <use xlink:href="#DejaVuSerif-Bold-72" transform="translate(3229.650977 0.015625)"/>
     <use xlink:href="#DejaVuSerif-Bold-65" transform="translate(3282.336523 0.015625)"/>
     <use xlink:href="#DejaVuSerif-Bold-20" transform="translate(3345.95957 0.015625)"/>
     <use xlink:href="#DejaVuSerif-Bold-64" transform="translate(3380.774023 0.015625)"/>
     <use xlink:href="#DejaVuSerif-Bold-61" transform="translate(3450.695898 0.015625)"/>
     <use xlink:href="#DejaVuSerif-Bold-74" transform="translate(3515.49082 0.015625)"/>
     <use xlink:href="#DejaVuSerif-Bold-61" transform="translate(3561.682227 0.015625)"/>
    </g>
   </g>
   <g id="legend_1">
    <g id="text_21">
     <!-- Temperature and role -->
     <g transform="translate(198.583672 380.4875) scale(0.1 -0.1)">
      <defs>
       <path id="DejaVuSerif-54" d="M 1222 0
L 1222 331
L 1819 331
L 1819 4294
L 447 4294
L 447 3566
L 63 3566
L 63 4666
L 4206 4666
L 4206 3566
L 3822 3566
L 3822 4294
L 2450 4294
L 2450 331
L 3047 331
L 3047 0
L 1222 0
z
" transform="scale(0.015625)"/>
      </defs>
      <use xlink:href="#DejaVuSerif-54"/>
      <use xlink:href="#DejaVuSerif-65" transform="translate(58.949219 0)"/>
      <use xlink:href="#DejaVuSerif-6d" transform="translate(118.128906 0)"/>
      <use xlink:href="#DejaVuSerif-70" transform="translate(212.953125 0)"/>
      <use xlink:href="#DejaVuSerif-65" transform="translate(276.966797 0)"/>
      <use xlink:href="#DejaVuSerif-72" transform="translate(336.146484 0)"/>
      <use xlink:href="#DejaVuSerif-61" transform="translate(383.949219 0)"/>
      <use xlink:href="#DejaVuSerif-74" transform="translate(443.568359 0)"/>
      <use xlink:href="#DejaVuSerif-75" transform="translate(483.753906 0)"/>
      <use xlink:href="#DejaVuSerif-72" transform="translate(548.158203 0)"/>
      <use xlink:href="#DejaVuSerif-65" transform="translate(595.960938 0)"/>
      <use xlink:href="#DejaVuSerif-20" transform="translate(655.140625 0)"/>
      <use xlink:href="#DejaVuSerif-61" transform="translate(686.927734 0)"/>
      <use xlink:href="#DejaVuSerif-6e" transform="translate(746.546875 0)"/>
      <use xlink:href="#DejaVuSerif-64" transform="translate(810.951172 0)"/>
      <use xlink:href="#DejaVuSerif-20" transform="translate(874.964844 0)"/>
      <use xlink:href="#DejaVuSerif-72" transform="translate(906.751953 0)"/>
      <use xlink:href="#DejaVuSerif-6f" transform="translate(954.554688 0)"/>
      <use xlink:href="#DejaVuSerif-6c" transform="translate(1014.759766 0)"/>
      <use xlink:href="#DejaVuSerif-65" transform="translate(1046.742188 0)"/>
     </g>
    </g>
    <g id="line2d_105">
     <g>
      <use xlink:href="#mafb1d34698" x="68.92" y="390.338047" style="fill: #1f5aa6; fill-opacity: 0.9; stroke: #1f5aa6; stroke-opacity: 0.9"/>
     </g>
    </g>
    <g id="text_22">
     <!-- 40 C Jou data -->
     <g transform="translate(84.22 393.313047) scale(0.085 -0.085)">
      <defs>
       <path id="DejaVuSerif-43" d="M 4513 1234
Q 4306 581 3820 245
Q 3334 -91 2591 -91
Q 2134 -91 1743 65
Q 1353 222 1050 525
Q 700 875 529 1320
Q 359 1766 359 2328
Q 359 3416 987 4083
Q 1616 4750 2644 4750
Q 3025 4750 3456 4650
Q 3888 4550 4384 4347
L 4384 3272
L 4031 3272
Q 3916 3859 3567 4137
Q 3219 4416 2591 4416
Q 1844 4416 1459 3886
Q 1075 3356 1075 2328
Q 1075 1303 1459 773
Q 1844 244 2591 244
Q 3113 244 3450 492
Q 3788 741 3938 1234
L 4513 1234
z
" transform="scale(0.015625)"/>
       <path id="DejaVuSerif-4a" d="M -538 -1119
L -538 -384
L -181 -384
Q -172 -694 -34 -845
Q 103 -997 378 -997
Q 750 -997 897 -762
Q 1044 -528 1044 153
L 1044 4331
L 319 4331
L 319 4666
L 2272 4666
L 2272 4331
L 1678 4331
L 1678 128
Q 1678 -644 1368 -987
Q 1059 -1331 372 -1331
Q 150 -1331 -79 -1278
Q -309 -1225 -538 -1119
z
" transform="scale(0.015625)"/>
      </defs>
      <use xlink:href="#DejaVuSerif-34"/>
      <use xlink:href="#DejaVuSerif-30" transform="translate(63.623047 0)"/>
      <use xlink:href="#DejaVuSerif-20" transform="translate(127.246094 0)"/>
      <use xlink:href="#DejaVuSerif-43" transform="translate(159.033203 0)"/>
      <use xlink:href="#DejaVuSerif-20" transform="translate(235.546875 0)"/>
      <use xlink:href="#DejaVuSerif-4a" transform="translate(267.333984 0)"/>
      <use xlink:href="#DejaVuSerif-6f" transform="translate(307.421875 0)"/>
      <use xlink:href="#DejaVuSerif-75" transform="translate(367.626953 0)"/>
      <use xlink:href="#DejaVuSerif-20" transform="translate(432.03125 0)"/>
      <use xlink:href="#DejaVuSerif-64" transform="translate(463.818359 0)"/>
      <use xlink:href="#DejaVuSerif-61" transform="translate(527.832031 0)"/>
      <use xlink:href="#DejaVuSerif-74" transform="translate(587.451172 0)"/>
      <use xlink:href="#DejaVuSerif-61" transform="translate(627.636719 0)"/>
     </g>
    </g>
    <g id="line2d_106">
     <path d="M 60.42 402.851641
L 68.92 402.851641
L 77.42 402.851641
" style="fill: none; stroke-dasharray: 2.2,3.63; stroke-dashoffset: 0; stroke: #1f5aa6; stroke-width: 2.2"/>
    </g>
    <g id="text_23">
     <!-- 40 C PC-SAFT, med |log10 err|=0.39 -->
     <g transform="translate(84.22 405.826641) scale(0.085 -0.085)">
      <defs>
       <path id="DejaVuSerif-2d" d="M 281 1959
L 1881 1959
L 1881 1472
L 281 1472
L 281 1959
z
" transform="scale(0.015625)"/>
       <path id="DejaVuSerif-53" d="M 594 225
L 594 1288
L 953 1284
Q 969 753 1261 498
Q 1553 244 2150 244
Q 2706 244 2998 464
Q 3291 684 3291 1106
Q 3291 1444 3114 1625
Q 2938 1806 2369 1978
L 1753 2163
Q 1084 2366 811 2669
Q 538 2972 538 3500
Q 538 4094 959 4422
Q 1381 4750 2144 4750
Q 2469 4750 2856 4679
Q 3244 4609 3681 4475
L 3681 3481
L 3328 3481
Q 3275 3975 2998 4195
Q 2722 4416 2156 4416
Q 1663 4416 1405 4214
Q 1147 4013 1147 3628
Q 1147 3294 1340 3103
Q 1534 2913 2163 2725
L 2741 2553
Q 3375 2363 3645 2067
Q 3916 1772 3916 1275
Q 3916 597 3481 253
Q 3047 -91 2188 -91
Q 1803 -91 1404 -12
Q 1006 66 594 225
z
" transform="scale(0.015625)"/>
       <path id="DejaVuSerif-46" d="M 353 0
L 353 331
L 947 331
L 947 4331
L 353 4331
L 353 4666
L 4172 4666
L 4172 3628
L 3788 3628
L 3788 4281
L 1581 4281
L 1581 2719
L 3175 2719
L 3175 3303
L 3559 3303
L 3559 1753
L 3175 1753
L 3175 2338
L 1581 2338
L 1581 331
L 2328 331
L 2328 0
L 353 0
z
" transform="scale(0.015625)"/>
       <path id="DejaVuSerif-7c" d="M 1331 4891
L 1331 -1509
L 825 -1509
L 825 4891
L 1331 4891
z
" transform="scale(0.015625)"/>
       <path id="DejaVuSerif-3d" d="M 678 2894
L 4684 2894
L 4684 2394
L 678 2394
L 678 2894
z
M 678 1619
L 4684 1619
L 4684 1119
L 678 1119
L 678 1619
z
" transform="scale(0.015625)"/>
       <path id="DejaVuSerif-39" d="M 2994 2091
Q 2784 1856 2512 1740
Q 2241 1625 1900 1625
Q 1206 1625 804 2044
Q 403 2463 403 3188
Q 403 3897 839 4323
Q 1275 4750 2003 4750
Q 2794 4750 3217 4161
Q 3641 3572 3641 2478
Q 3641 1253 3137 581
Q 2634 -91 1722 -91
Q 1475 -91 1203 -44
Q 931 3 647 97
L 647 872
L 997 872
Q 1038 556 1241 387
Q 1444 219 1784 219
Q 2391 219 2687 676
Q 2984 1134 2994 2091
z
M 1978 4441
Q 1534 4441 1298 4117
Q 1063 3794 1063 3188
Q 1063 2581 1298 2256
Q 1534 1931 1978 1931
Q 2422 1931 2658 2245
Q 2894 2559 2894 3150
Q 2894 3772 2656 4106
Q 2419 4441 1978 4441
z
" transform="scale(0.015625)"/>
      </defs>
      <use xlink:href="#DejaVuSerif-34"/>
      <use xlink:href="#DejaVuSerif-30" transform="translate(63.623047 0)"/>
      <use xlink:href="#DejaVuSerif-20" transform="translate(127.246094 0)"/>
      <use xlink:href="#DejaVuSerif-43" transform="translate(159.033203 0)"/>
      <use xlink:href="#DejaVuSerif-20" transform="translate(235.546875 0)"/>
      <use xlink:href="#DejaVuSerif-50" transform="translate(267.333984 0)"/>
      <use xlink:href="#DejaVuSerif-43" transform="translate(334.619141 0)"/>
      <use xlink:href="#DejaVuSerif-2d" transform="translate(411.132812 0)"/>
      <use xlink:href="#DejaVuSerif-53" transform="translate(444.921875 0)"/>
      <use xlink:href="#DejaVuSerif-41" transform="translate(513.427734 0)"/>
      <use xlink:href="#DejaVuSerif-46" transform="translate(585.644531 0)"/>
      <use xlink:href="#DejaVuSerif-54" transform="translate(655.029297 0)"/>
      <use xlink:href="#DejaVuSerif-2c" transform="translate(706.978516 0)"/>
      <use xlink:href="#DejaVuSerif-20" transform="translate(738.765625 0)"/>
      <use xlink:href="#DejaVuSerif-6d" transform="translate(770.552734 0)"/>
      <use xlink:href="#DejaVuSerif-65" transform="translate(865.376953 0)"/>
      <use xlink:href="#DejaVuSerif-64" transform="translate(924.556641 0)"/>
      <use xlink:href="#DejaVuSerif-20" transform="translate(988.570312 0)"/>
      <use xlink:href="#DejaVuSerif-7c" transform="translate(1020.357422 0)"/>
      <use xlink:href="#DejaVuSerif-6c" transform="translate(1054.048828 0)"/>
      <use xlink:href="#DejaVuSerif-6f" transform="translate(1086.03125 0)"/>
      <use xlink:href="#DejaVuSerif-67" transform="translate(1146.236328 0)"/>
      <use xlink:href="#DejaVuSerif-31" transform="translate(1210.25 0)"/>
      <use xlink:href="#DejaVuSerif-30" transform="translate(1273.873047 0)"/>
      <use xlink:href="#DejaVuSerif-20" transform="translate(1337.496094 0)"/>
      <use xlink:href="#DejaVuSerif-65" transform="translate(1369.283203 0)"/>
      <use xlink:href="#DejaVuSerif-72" transform="translate(1428.462891 0)"/>
      <use xlink:href="#DejaVuSerif-72" transform="translate(1476.265625 0)"/>
      <use xlink:href="#DejaVuSerif-7c" transform="translate(1524.068359 0)"/>
      <use xlink:href="#DejaVuSerif-3d" transform="translate(1557.759766 0)"/>
      <use xlink:href="#DejaVuSerif-30" transform="translate(1641.548828 0)"/>
      <use xlink:href="#DejaVuSerif-2e" transform="translate(1705.171875 0)"/>
      <use xlink:href="#DejaVuSerif-33" transform="translate(1736.958984 0)"/>
      <use xlink:href="#DejaVuSerif-39" transform="translate(1800.582031 0)"/>
     </g>
    </g>
    <g id="line2d_107">
     <g>
      <use xlink:href="#m9094f5f231" x="68.92" y="415.564453" style="fill: #d47a00; fill-opacity: 0.9; stroke: #d47a00; stroke-opacity: 0.9"/>
     </g>
    </g>
    <g id="text_24">
     <!-- 60 C Jou data -->
     <g transform="translate(84.22 418.539453) scale(0.085 -0.085)">
      <use xlink:href="#DejaVuSerif-36"/>
      <use xlink:href="#DejaVuSerif-30" transform="translate(63.623047 0)"/>
      <use xlink:href="#DejaVuSerif-20" transform="translate(127.246094 0)"/>
      <use xlink:href="#DejaVuSerif-43" transform="translate(159.033203 0)"/>
      <use xlink:href="#DejaVuSerif-20" transform="translate(235.546875 0)"/>
      <use xlink:href="#DejaVuSerif-4a" transform="translate(267.333984 0)"/>
      <use xlink:href="#DejaVuSerif-6f" transform="translate(307.421875 0)"/>
      <use xlink:href="#DejaVuSerif-75" transform="translate(367.626953 0)"/>
      <use xlink:href="#DejaVuSerif-20" transform="translate(432.03125 0)"/>
      <use xlink:href="#DejaVuSerif-64" transform="translate(463.818359 0)"/>
      <use xlink:href="#DejaVuSerif-61" transform="translate(527.832031 0)"/>
      <use xlink:href="#DejaVuSerif-74" transform="translate(587.451172 0)"/>
      <use xlink:href="#DejaVuSerif-61" transform="translate(627.636719 0)"/>
     </g>
    </g>
    <g id="line2d_108">
     <path d="M 60.42 428.078047
L 68.92 428.078047
L 77.42 428.078047
" style="fill: none; stroke-dasharray: 2.2,3.63; stroke-dashoffset: 0; stroke: #d47a00; stroke-width: 2.2"/>
    </g>
    <g id="text_25">
     <!-- 60 C PC-SAFT, med |log10 err|=0.31 -->
     <g transform="translate(84.22 431.053047) scale(0.085 -0.085)">
      <use xlink:href="#DejaVuSerif-36"/>
      <use xlink:href="#DejaVuSerif-30" transform="translate(63.623047 0)"/>
      <use xlink:href="#DejaVuSerif-20" transform="translate(127.246094 0)"/>
      <use xlink:href="#DejaVuSerif-43" transform="translate(159.033203 0)"/>
      <use xlink:href="#DejaVuSerif-20" transform="translate(235.546875 0)"/>
      <use xlink:href="#DejaVuSerif-50" transform="translate(267.333984 0)"/>
      <use xlink:href="#DejaVuSerif-43" transform="translate(334.619141 0)"/>
      <use xlink:href="#DejaVuSerif-2d" transform="translate(411.132812 0)"/>
      <use xlink:href="#DejaVuSerif-53" transform="translate(444.921875 0)"/>
      <use xlink:href="#DejaVuSerif-41" transform="translate(513.427734 0)"/>
      <use xlink:href="#DejaVuSerif-46" transform="translate(585.644531 0)"/>
      <use xlink:href="#DejaVuSerif-54" transform="translate(655.029297 0)"/>
      <use xlink:href="#DejaVuSerif-2c" transform="translate(706.978516 0)"/>
      <use xlink:href="#DejaVuSerif-20" transform="translate(738.765625 0)"/>
      <use xlink:href="#DejaVuSerif-6d" transform="translate(770.552734 0)"/>
      <use xlink:href="#DejaVuSerif-65" transform="translate(865.376953 0)"/>
      <use xlink:href="#DejaVuSerif-64" transform="translate(924.556641 0)"/>
      <use xlink:href="#DejaVuSerif-20" transform="translate(988.570312 0)"/>
      <use xlink:href="#DejaVuSerif-7c" transform="translate(1020.357422 0)"/>
      <use xlink:href="#DejaVuSerif-6c" transform="translate(1054.048828 0)"/>
      <use xlink:href="#DejaVuSerif-6f" transform="translate(1086.03125 0)"/>
      <use xlink:href="#DejaVuSerif-67" transform="translate(1146.236328 0)"/>
      <use xlink:href="#DejaVuSerif-31" transform="translate(1210.25 0)"/>
      <use xlink:href="#DejaVuSerif-30" transform="translate(1273.873047 0)"/>
      <use xlink:href="#DejaVuSerif-20" transform="translate(1337.496094 0)"/>
      <use xlink:href="#DejaVuSerif-65" transform="translate(1369.283203 0)"/>
      <use xlink:href="#DejaVuSerif-72" transform="translate(1428.462891 0)"/>
      <use xlink:href="#DejaVuSerif-72" transform="translate(1476.265625 0)"/>
      <use xlink:href="#DejaVuSerif-7c" transform="translate(1524.068359 0)"/>
      <use xlink:href="#DejaVuSerif-3d" transform="translate(1557.759766 0)"/>
      <use xlink:href="#DejaVuSerif-30" transform="translate(1641.548828 0)"/>
      <use xlink:href="#DejaVuSerif-2e" transform="translate(1705.171875 0)"/>
      <use xlink:href="#DejaVuSerif-33" transform="translate(1736.958984 0)"/>
      <use xlink:href="#DejaVuSerif-31" transform="translate(1800.582031 0)"/>
     </g>
    </g>
    <g id="line2d_109">
     <g>
      <use xlink:href="#m006398da65" x="68.92" y="440.790859" style="fill: #16805a; fill-opacity: 0.9; stroke: #16805a; stroke-opacity: 0.9"/>
     </g>
    </g>
    <g id="text_26">
     <!-- 80 C Jou data -->
     <g transform="translate(84.22 443.765859) scale(0.085 -0.085)">
      <use xlink:href="#DejaVuSerif-38"/>
      <use xlink:href="#DejaVuSerif-30" transform="translate(63.623047 0)"/>
      <use xlink:href="#DejaVuSerif-20" transform="translate(127.246094 0)"/>
      <use xlink:href="#DejaVuSerif-43" transform="translate(159.033203 0)"/>
      <use xlink:href="#DejaVuSerif-20" transform="translate(235.546875 0)"/>
      <use xlink:href="#DejaVuSerif-4a" transform="translate(267.333984 0)"/>
      <use xlink:href="#DejaVuSerif-6f" transform="translate(307.421875 0)"/>
      <use xlink:href="#DejaVuSerif-75" transform="translate(367.626953 0)"/>
      <use xlink:href="#DejaVuSerif-20" transform="translate(432.03125 0)"/>
      <use xlink:href="#DejaVuSerif-64" transform="translate(463.818359 0)"/>
      <use xlink:href="#DejaVuSerif-61" transform="translate(527.832031 0)"/>
      <use xlink:href="#DejaVuSerif-74" transform="translate(587.451172 0)"/>
      <use xlink:href="#DejaVuSerif-61" transform="translate(627.636719 0)"/>
     </g>
    </g>
    <g id="line2d_110">
     <path d="M 259.677266 390.338047
L 268.177266 390.338047
L 276.677266 390.338047
" style="fill: none; stroke-dasharray: 2.2,3.63; stroke-dashoffset: 0; stroke: #16805a; stroke-width: 2.2"/>
    </g>
    <g id="text_27">
     <!-- 80 C PC-SAFT, med |log10 err|=0.15 -->
     <g transform="translate(283.477266 393.313047) scale(0.085 -0.085)">
      <use xlink:href="#DejaVuSerif-38"/>
      <use xlink:href="#DejaVuSerif-30" transform="translate(63.623047 0)"/>
      <use xlink:href="#DejaVuSerif-20" transform="translate(127.246094 0)"/>
      <use xlink:href="#DejaVuSerif-43" transform="translate(159.033203 0)"/>
      <use xlink:href="#DejaVuSerif-20" transform="translate(235.546875 0)"/>
      <use xlink:href="#DejaVuSerif-50" transform="translate(267.333984 0)"/>
      <use xlink:href="#DejaVuSerif-43" transform="translate(334.619141 0)"/>
      <use xlink:href="#DejaVuSerif-2d" transform="translate(411.132812 0)"/>
      <use xlink:href="#DejaVuSerif-53" transform="translate(444.921875 0)"/>
      <use xlink:href="#DejaVuSerif-41" transform="translate(513.427734 0)"/>
      <use xlink:href="#DejaVuSerif-46" transform="translate(585.644531 0)"/>
      <use xlink:href="#DejaVuSerif-54" transform="translate(655.029297 0)"/>
      <use xlink:href="#DejaVuSerif-2c" transform="translate(706.978516 0)"/>
      <use xlink:href="#DejaVuSerif-20" transform="translate(738.765625 0)"/>
      <use xlink:href="#DejaVuSerif-6d" transform="translate(770.552734 0)"/>
      <use xlink:href="#DejaVuSerif-65" transform="translate(865.376953 0)"/>
      <use xlink:href="#DejaVuSerif-64" transform="translate(924.556641 0)"/>
      <use xlink:href="#DejaVuSerif-20" transform="translate(988.570312 0)"/>
      <use xlink:href="#DejaVuSerif-7c" transform="translate(1020.357422 0)"/>
      <use xlink:href="#DejaVuSerif-6c" transform="translate(1054.048828 0)"/>
      <use xlink:href="#DejaVuSerif-6f" transform="translate(1086.03125 0)"/>
      <use xlink:href="#DejaVuSerif-67" transform="translate(1146.236328 0)"/>
      <use xlink:href="#DejaVuSerif-31" transform="translate(1210.25 0)"/>
      <use xlink:href="#DejaVuSerif-30" transform="translate(1273.873047 0)"/>
      <use xlink:href="#DejaVuSerif-20" transform="translate(1337.496094 0)"/>
      <use xlink:href="#DejaVuSerif-65" transform="translate(1369.283203 0)"/>
      <use xlink:href="#DejaVuSerif-72" transform="translate(1428.462891 0)"/>
      <use xlink:href="#DejaVuSerif-72" transform="translate(1476.265625 0)"/>
      <use xlink:href="#DejaVuSerif-7c" transform="translate(1524.068359 0)"/>
      <use xlink:href="#DejaVuSerif-3d" transform="translate(1557.759766 0)"/>
      <use xlink:href="#DejaVuSerif-30" transform="translate(1641.548828 0)"/>
      <use xlink:href="#DejaVuSerif-2e" transform="translate(1705.171875 0)"/>
      <use xlink:href="#DejaVuSerif-31" transform="translate(1736.958984 0)"/>
      <use xlink:href="#DejaVuSerif-35" transform="translate(1800.582031 0)"/>
     </g>
    </g>
    <g id="line2d_111">
     <g>
      <use xlink:href="#m426a7e39ed" x="268.177266" y="403.050859" style="fill: #b6312c; fill-opacity: 0.9; stroke: #b6312c; stroke-opacity: 0.9"/>
     </g>
    </g>
    <g id="text_28">
     <!-- 100 C Jou data -->
     <g transform="translate(283.477266 406.025859) scale(0.085 -0.085)">
      <use xlink:href="#DejaVuSerif-31"/>
      <use xlink:href="#DejaVuSerif-30" transform="translate(63.623047 0)"/>
      <use xlink:href="#DejaVuSerif-30" transform="translate(127.246094 0)"/>
      <use xlink:href="#DejaVuSerif-20" transform="translate(190.869141 0)"/>
      <use xlink:href="#DejaVuSerif-43" transform="translate(222.65625 0)"/>
      <use xlink:href="#DejaVuSerif-20" transform="translate(299.169922 0)"/>
      <use xlink:href="#DejaVuSerif-4a" transform="translate(330.957031 0)"/>
      <use xlink:href="#DejaVuSerif-6f" transform="translate(371.044922 0)"/>
      <use xlink:href="#DejaVuSerif-75" transform="translate(431.25 0)"/>
      <use xlink:href="#DejaVuSerif-20" transform="translate(495.654297 0)"/>
      <use xlink:href="#DejaVuSerif-64" transform="translate(527.441406 0)"/>
      <use xlink:href="#DejaVuSerif-61" transform="translate(591.455078 0)"/>
      <use xlink:href="#DejaVuSerif-74" transform="translate(651.074219 0)"/>
      <use xlink:href="#DejaVuSerif-61" transform="translate(691.259766 0)"/>
     </g>
    </g>
    <g id="line2d_112">
     <path d="M 259.677266 415.564453
L 268.177266 415.564453
L 276.677266 415.564453
" style="fill: none; stroke-dasharray: 2.2,3.63; stroke-dashoffset: 0; stroke: #b6312c; stroke-width: 2.2"/>
    </g>
    <g id="text_29">
     <!-- 100 C PC-SAFT, med |log10 err|=0.06 -->
     <g transform="translate(283.477266 418.539453) scale(0.085 -0.085)">
      <use xlink:href="#DejaVuSerif-31"/>
      <use xlink:href="#DejaVuSerif-30" transform="translate(63.623047 0)"/>
      <use xlink:href="#DejaVuSerif-30" transform="translate(127.246094 0)"/>
      <use xlink:href="#DejaVuSerif-20" transform="translate(190.869141 0)"/>
      <use xlink:href="#DejaVuSerif-43" transform="translate(222.65625 0)"/>
      <use xlink:href="#DejaVuSerif-20" transform="translate(299.169922 0)"/>
      <use xlink:href="#DejaVuSerif-50" transform="translate(330.957031 0)"/>
      <use xlink:href="#DejaVuSerif-43" transform="translate(398.242188 0)"/>
      <use xlink:href="#DejaVuSerif-2d" transform="translate(474.755859 0)"/>
      <use xlink:href="#DejaVuSerif-53" transform="translate(508.544922 0)"/>
      <use xlink:href="#DejaVuSerif-41" transform="translate(577.050781 0)"/>
      <use xlink:href="#DejaVuSerif-46" transform="translate(649.267578 0)"/>
      <use xlink:href="#DejaVuSerif-54" transform="translate(718.652344 0)"/>
      <use xlink:href="#DejaVuSerif-2c" transform="translate(770.601562 0)"/>
      <use xlink:href="#DejaVuSerif-20" transform="translate(802.388672 0)"/>
      <use xlink:href="#DejaVuSerif-6d" transform="translate(834.175781 0)"/>
      <use xlink:href="#DejaVuSerif-65" transform="translate(929 0)"/>
      <use xlink:href="#DejaVuSerif-64" transform="translate(988.179688 0)"/>
      <use xlink:href="#DejaVuSerif-20" transform="translate(1052.193359 0)"/>
      <use xlink:href="#DejaVuSerif-7c" transform="translate(1083.980469 0)"/>
      <use xlink:href="#DejaVuSerif-6c" transform="translate(1117.671875 0)"/>
      <use xlink:href="#DejaVuSerif-6f" transform="translate(1149.654297 0)"/>
      <use xlink:href="#DejaVuSerif-67" transform="translate(1209.859375 0)"/>
      <use xlink:href="#DejaVuSerif-31" transform="translate(1273.873047 0)"/>
      <use xlink:href="#DejaVuSerif-30" transform="translate(1337.496094 0)"/>
      <use xlink:href="#DejaVuSerif-20" transform="translate(1401.119141 0)"/>
      <use xlink:href="#DejaVuSerif-65" transform="translate(1432.90625 0)"/>
      <use xlink:href="#DejaVuSerif-72" transform="translate(1492.085938 0)"/>
      <use xlink:href="#DejaVuSerif-72" transform="translate(1539.888672 0)"/>
      <use xlink:href="#DejaVuSerif-7c" transform="translate(1587.691406 0)"/>
      <use xlink:href="#DejaVuSerif-3d" transform="translate(1621.382812 0)"/>
      <use xlink:href="#DejaVuSerif-30" transform="translate(1705.171875 0)"/>
      <use xlink:href="#DejaVuSerif-2e" transform="translate(1768.794922 0)"/>
      <use xlink:href="#DejaVuSerif-30" transform="translate(1800.582031 0)"/>
      <use xlink:href="#DejaVuSerif-36" transform="translate(1864.205078 0)"/>
     </g>
    </g>
    <g id="line2d_113">
     <g>
      <use xlink:href="#meff888fe61" x="268.177266" y="428.277266" style="fill: #6f4aa8; fill-opacity: 0.9; stroke: #6f4aa8; stroke-opacity: 0.9"/>
     </g>
    </g>
    <g id="text_30">
     <!-- 120 C Jou data -->
     <g transform="translate(283.477266 431.252266) scale(0.085 -0.085)">
      <use xlink:href="#DejaVuSerif-31"/>
      <use xlink:href="#DejaVuSerif-32" transform="translate(63.623047 0)"/>
      <use xlink:href="#DejaVuSerif-30" transform="translate(127.246094 0)"/>
      <use xlink:href="#DejaVuSerif-20" transform="translate(190.869141 0)"/>
      <use xlink:href="#DejaVuSerif-43" transform="translate(222.65625 0)"/>
      <use xlink:href="#DejaVuSerif-20" transform="translate(299.169922 0)"/>
      <use xlink:href="#DejaVuSerif-4a" transform="translate(330.957031 0)"/>
      <use xlink:href="#DejaVuSerif-6f" transform="translate(371.044922 0)"/>
      <use xlink:href="#DejaVuSerif-75" transform="translate(431.25 0)"/>
      <use xlink:href="#DejaVuSerif-20" transform="translate(495.654297 0)"/>
      <use xlink:href="#DejaVuSerif-64" transform="translate(527.441406 0)"/>
      <use xlink:href="#DejaVuSerif-61" transform="translate(591.455078 0)"/>
      <use xlink:href="#DejaVuSerif-74" transform="translate(651.074219 0)"/>
      <use xlink:href="#DejaVuSerif-61" transform="translate(691.259766 0)"/>
     </g>
    </g>
    <g id="line2d_114">
     <path d="M 259.677266 440.790859
L 268.177266 440.790859
L 276.677266 440.790859
" style="fill: none; stroke-dasharray: 2.2,3.63; stroke-dashoffset: 0; stroke: #6f4aa8; stroke-width: 2.2"/>
    </g>
    <g id="text_31">
     <!-- 120 C PC-SAFT, med |log10 err|=0.08 -->
     <g transform="translate(283.477266 443.765859) scale(0.085 -0.085)">
      <use xlink:href="#DejaVuSerif-31"/>
      <use xlink:href="#DejaVuSerif-32" transform="translate(63.623047 0)"/>
      <use xlink:href="#DejaVuSerif-30" transform="translate(127.246094 0)"/>
      <use xlink:href="#DejaVuSerif-20" transform="translate(190.869141 0)"/>
      <use xlink:href="#DejaVuSerif-43" transform="translate(222.65625 0)"/>
      <use xlink:href="#DejaVuSerif-20" transform="translate(299.169922 0)"/>
      <use xlink:href="#DejaVuSerif-50" transform="translate(330.957031 0)"/>
      <use xlink:href="#DejaVuSerif-43" transform="translate(398.242188 0)"/>
      <use xlink:href="#DejaVuSerif-2d" transform="translate(474.755859 0)"/>
      <use xlink:href="#DejaVuSerif-53" transform="translate(508.544922 0)"/>
      <use xlink:href="#DejaVuSerif-41" transform="translate(577.050781 0)"/>
      <use xlink:href="#DejaVuSerif-46" transform="translate(649.267578 0)"/>
      <use xlink:href="#DejaVuSerif-54" transform="translate(718.652344 0)"/>
      <use xlink:href="#DejaVuSerif-2c" transform="translate(770.601562 0)"/>
      <use xlink:href="#DejaVuSerif-20" transform="translate(802.388672 0)"/>
      <use xlink:href="#DejaVuSerif-6d" transform="translate(834.175781 0)"/>
      <use xlink:href="#DejaVuSerif-65" transform="translate(929 0)"/>
      <use xlink:href="#DejaVuSerif-64" transform="translate(988.179688 0)"/>
      <use xlink:href="#DejaVuSerif-20" transform="translate(1052.193359 0)"/>
      <use xlink:href="#DejaVuSerif-7c" transform="translate(1083.980469 0)"/>
      <use xlink:href="#DejaVuSerif-6c" transform="translate(1117.671875 0)"/>
      <use xlink:href="#DejaVuSerif-6f" transform="translate(1149.654297 0)"/>
      <use xlink:href="#DejaVuSerif-67" transform="translate(1209.859375 0)"/>
      <use xlink:href="#DejaVuSerif-31" transform="translate(1273.873047 0)"/>
      <use xlink:href="#DejaVuSerif-30" transform="translate(1337.496094 0)"/>
      <use xlink:href="#DejaVuSerif-20" transform="translate(1401.119141 0)"/>
      <use xlink:href="#DejaVuSerif-65" transform="translate(1432.90625 0)"/>
      <use xlink:href="#DejaVuSerif-72" transform="translate(1492.085938 0)"/>
      <use xlink:href="#DejaVuSerif-72" transform="translate(1539.888672 0)"/>
      <use xlink:href="#DejaVuSerif-7c" transform="translate(1587.691406 0)"/>
      <use xlink:href="#DejaVuSerif-3d" transform="translate(1621.382812 0)"/>
      <use xlink:href="#DejaVuSerif-30" transform="translate(1705.171875 0)"/>
      <use xlink:href="#DejaVuSerif-2e" transform="translate(1768.794922 0)"/>
      <use xlink:href="#DejaVuSerif-30" transform="translate(1800.582031 0)"/>
      <use xlink:href="#DejaVuSerif-38" transform="translate(1864.205078 0)"/>
     </g>
    </g>
   </g>
  </g>
 </g>
 <defs>
  <clipPath id="p3df09d6e47">
   <rect x="52.77" y="27.08" width="641.857946" height="426.34"/>
  </clipPath>
 </defs>
</svg>
