<?xml version="1.0" encoding="utf-8" standalone="no"?>
<!DOCTYPE svg PUBLIC "-//W3C//DTD SVG 1.1//EN"
  "http://www.w3.org/Graphics/SVG/1.1/DTD/svg11.dtd">
<svg xmlns:xlink="http://www.w3.org/1999/xlink" width="405pt" height="255.249844pt" viewBox="0 0 405 255.249844" xmlns="http://www.w3.org/2000/svg" version="1.1">
 <metadata>
  <rdf:RDF xmlns:dc="http://purl.org/dc/elements/1.1/" xmlns:cc="http://creativecommons.org/ns#" xmlns:rdf="http://www.w3.org/1999/02/22-rdf-syntax-ns#">
   <cc:Work>
    <dc:type rdf:resource="http://purl.org/dc/dcmitype/StillImage"/>
    <dc:date>2026-06-29T15:25:28.896261</dc:date>
    <dc:format>image/svg+xml</dc:format>
    <dc:creator>
     <cc:Agent>
      <dc:title>Matplotlib v3.10.9, https://matplotlib.org/</dc:title>
     </cc:Agent>
    </dc:creator>
   </cc:Work>
  </rdf:RDF>
 </metadata>
 <defs>
  <style type="text/css">*{stroke-linejoin: round; stroke-linecap: butt}</style>
 </defs>
 <g id="figure_1">
  <g id="patch_1">
   <path d="M 0 255.249844
L 405 255.249844
L 405 0
L 0 0
z
" style="fill: #ffffff"/>
  </g>
  <g id="axes_1">
   <g id="text_1">
    <!-- Pressure parity must be regenerated -->
    <g transform="translate(124.296875 134.314687) scale(0.1 -0.1)">
     <defs>
      <path id="Cambria-50" d="M 1328 791
Q 1328 606 1348 497
Q 1369 388 1411 323
Q 1453 259 1525 223
Q 1597 188 1750 153
L 1750 0
L 378 0
L 378 153
Q 572 203 637 264
Q 703 325 723 437
Q 744 550 744 781
L 744 3484
Q 744 3700 728 3798
Q 713 3897 677 3951
Q 641 4006 581 4039
Q 522 4072 378 4113
L 378 4266
L 1928 4266
Q 2659 4266 3017 3986
Q 3375 3706 3375 3134
Q 3375 2809 3262 2550
Q 3150 2291 2944 2125
Q 2738 1959 2456 1887
Q 2175 1816 1866 1816
Q 1519 1816 1328 1828
L 1328 791
z
M 1328 2088
L 1691 2088
Q 2044 2088 2273 2180
Q 2503 2272 2625 2486
Q 2747 2700 2747 3053
Q 2747 3322 2675 3501
Q 2603 3681 2476 3790
Q 2350 3900 2175 3945
Q 2000 3991 1794 3991
Q 1484 3991 1328 3978
L 1328 2088
z
" transform="scale(0.015625)"/>
      <path id="Cambria-72" d="M 1147 2469
L 1191 2459
Q 1363 2669 1509 2789
Q 1656 2909 1826 2975
Q 1997 3041 2213 3041
Q 2394 3041 2541 3022
L 2541 2303
L 2188 2303
Q 2113 2472 2028 2548
Q 1944 2625 1797 2625
Q 1684 2625 1573 2559
Q 1463 2494 1359 2369
Q 1256 2244 1217 2134
Q 1178 2025 1178 1875
L 1178 781
Q 1178 497 1212 389
Q 1247 281 1326 231
Q 1406 181 1566 153
L 1566 0
L 306 0
L 306 153
Q 425 191 476 219
Q 528 247 565 297
Q 603 347 622 450
Q 641 553 641 772
L 641 2134
Q 641 2334 634 2456
Q 628 2578 590 2651
Q 553 2725 476 2761
Q 400 2797 259 2822
L 259 2984
L 991 3016
L 1181 3016
L 1147 2469
z
" transform="scale(0.015625)"/>
      <path id="Cambria-65" d="M 2800 531
Q 2600 322 2433 203
Q 2266 84 2066 17
Q 1866 -50 1625 -50
Q 981 -50 653 336
Q 325 722 325 1475
Q 325 1941 492 2297
Q 659 2653 968 2847
Q 1278 3041 1681 3041
Q 1997 3041 2219 2941
Q 2441 2841 2573 2667
Q 2706 2494 2779 2230
Q 2853 1966 2863 1541
L 894 1541
L 894 1484
Q 894 1116 976 864
Q 1059 613 1248 470
Q 1438 328 1741 328
Q 1997 328 2201 423
Q 2406 519 2609 734
L 2800 531
z
M 2275 1800
Q 2256 2138 2190 2352
Q 2125 2566 1994 2680
Q 1863 2794 1650 2794
Q 1328 2794 1136 2536
Q 944 2278 909 1800
L 2275 1800
z
" transform="scale(0.015625)"/>
      <path id="Cambria-73" d="M 2397 2303
L 2097 2303
Q 2028 2491 1934 2598
Q 1841 2706 1722 2750
Q 1603 2794 1431 2794
Q 1181 2794 1032 2676
Q 884 2559 884 2356
Q 884 2213 943 2119
Q 1003 2025 1128 1944
Q 1253 1863 1569 1728
Q 1888 1591 2061 1475
Q 2234 1359 2332 1206
Q 2431 1053 2431 841
Q 2431 594 2347 425
Q 2263 256 2109 150
Q 1956 44 1745 -3
Q 1534 -50 1284 -50
Q 1022 -50 775 -11
Q 528 28 294 91
L 294 744
L 600 744
Q 684 456 850 326
Q 1016 197 1306 197
Q 1419 197 1526 220
Q 1634 244 1718 298
Q 1803 353 1853 447
Q 1903 541 1903 681
Q 1903 841 1840 941
Q 1778 1041 1647 1123
Q 1516 1206 1184 1347
Q 900 1466 728 1578
Q 556 1691 457 1844
Q 359 1997 359 2206
Q 359 2463 498 2652
Q 638 2841 900 2941
Q 1163 3041 1516 3041
Q 1722 3041 1914 3020
Q 2106 3000 2397 2941
L 2397 2303
z
" transform="scale(0.015625)"/>
      <path id="Cambria-75" d="M 228 2988
L 1119 2988
L 1119 1397
Q 1119 1031 1147 840
Q 1175 650 1231 553
Q 1288 456 1391 390
Q 1494 325 1675 325
Q 1794 325 1903 372
Q 2013 419 2147 536
Q 2281 653 2339 768
Q 2397 884 2397 1038
L 2397 2209
Q 2397 2388 2387 2478
Q 2378 2569 2356 2623
Q 2334 2678 2304 2712
Q 2275 2747 2220 2775
Q 2166 2803 2044 2834
L 2044 2988
L 2934 2988
L 2934 853
Q 2934 613 2943 506
Q 2953 400 2984 337
Q 3016 275 3081 236
Q 3147 197 3316 163
L 3316 0
L 2600 -31
L 2409 -31
L 2428 481
L 2381 494
Q 2122 213 1886 81
Q 1650 -50 1413 -50
Q 1128 -50 943 62
Q 759 175 668 398
Q 578 622 578 1028
L 578 2209
Q 578 2472 558 2570
Q 538 2669 480 2726
Q 422 2784 228 2834
L 228 2988
z
" transform="scale(0.015625)"/>
      <path id="Cambria-20" transform="scale(0.015625)"/>
      <path id="Cambria-70" d="M 1150 94
L 1150 -566
Q 1150 -769 1164 -869
Q 1178 -969 1214 -1026
Q 1250 -1084 1317 -1121
Q 1384 -1159 1534 -1191
L 1534 -1344
L 259 -1344
L 259 -1191
Q 372 -1159 442 -1126
Q 513 -1094 550 -1030
Q 588 -966 600 -856
Q 613 -747 613 -566
L 613 2116
Q 613 2341 606 2436
Q 600 2531 581 2593
Q 563 2656 527 2697
Q 491 2738 430 2766
Q 369 2794 228 2822
L 228 2988
L 963 3016
L 1153 3016
L 1113 2506
L 1159 2494
Q 1353 2691 1465 2780
Q 1578 2869 1698 2928
Q 1819 2988 1930 3013
Q 2041 3038 2166 3038
Q 2681 3038 2957 2652
Q 3234 2266 3234 1522
Q 3234 1006 3078 654
Q 2922 303 2623 126
Q 2325 -50 1913 -50
Q 1681 -50 1493 -11
Q 1306 28 1150 94
z
M 1150 1125
Q 1150 825 1187 662
Q 1225 500 1320 398
Q 1416 297 1545 247
Q 1675 197 1888 197
Q 2266 197 2456 511
Q 2647 825 2647 1438
Q 2647 2663 1931 2663
Q 1756 2663 1629 2608
Q 1503 2553 1378 2431
Q 1253 2309 1201 2195
Q 1150 2081 1150 1950
L 1150 1125
z
" transform="scale(0.015625)"/>
      <path id="Cambria-61" d="M 2109 447
L 2063 459
Q 1791 181 1552 65
Q 1313 -50 1044 -50
Q 806 -50 625 42
Q 444 134 347 301
Q 250 469 250 688
Q 250 1144 701 1392
Q 1153 1641 2056 1681
L 2056 1884
Q 2056 2209 1993 2396
Q 1931 2584 1797 2671
Q 1663 2759 1438 2759
Q 1194 2759 1045 2631
Q 897 2503 822 2247
L 413 2247
L 413 2653
Q 713 2809 913 2882
Q 1113 2956 1313 2998
Q 1513 3041 1719 3041
Q 2028 3041 2215 2942
Q 2403 2844 2497 2641
Q 2591 2438 2591 2028
L 2591 941
Q 2591 709 2594 614
Q 2597 519 2612 437
Q 2628 356 2659 307
Q 2691 259 2752 225
Q 2813 191 2950 153
L 2950 0
L 2094 0
L 2109 447
z
M 2056 1425
Q 1422 1419 1106 1256
Q 791 1094 791 766
Q 791 588 862 484
Q 934 381 1043 342
Q 1153 303 1303 303
Q 1516 303 1689 406
Q 1863 509 1959 668
Q 2056 828 2056 984
L 2056 1425
z
" transform="scale(0.015625)"/>
      <path id="Cambria-69" d="M 1197 4213
L 1197 3606
L 622 3606
L 622 4213
L 1197 4213
z
M 303 153
Q 425 191 476 219
Q 528 247 564 297
Q 600 347 620 450
Q 641 553 641 772
L 641 2134
Q 641 2334 634 2456
Q 628 2578 590 2651
Q 553 2725 476 2761
Q 400 2797 259 2822
L 259 2988
L 988 3016
L 1178 3016
L 1178 781
Q 1178 513 1203 408
Q 1228 303 1298 248
Q 1369 194 1528 153
L 1528 0
L 303 0
L 303 153
z
" transform="scale(0.015625)"/>
      <path id="Cambria-74" d="M 116 2831
Q 272 2856 369 2918
Q 466 2981 520 3079
Q 575 3178 606 3326
Q 638 3475 672 3759
L 1116 3759
L 1116 2988
L 2125 2988
L 2125 2672
L 1116 2672
L 1116 1281
Q 1116 978 1141 798
Q 1166 619 1234 517
Q 1303 416 1390 372
Q 1478 328 1616 328
Q 1741 328 1850 379
Q 1959 431 2066 528
L 2206 359
Q 1984 144 1786 47
Q 1588 -50 1375 -50
Q 972 -50 775 189
Q 578 428 578 938
L 578 2672
L 116 2672
L 116 2831
z
" transform="scale(0.015625)"/>
      <path id="Cambria-79" d="M 1625 -256
Q 1453 -644 1290 -884
Q 1128 -1125 933 -1247
Q 738 -1369 469 -1369
Q 297 -1369 81 -1328
L 81 -709
L 359 -709
Q 397 -838 453 -888
Q 509 -938 616 -938
Q 709 -938 782 -902
Q 856 -866 936 -778
Q 1016 -691 1123 -509
Q 1231 -328 1366 -50
L 491 2303
Q 406 2531 354 2622
Q 303 2713 243 2759
Q 184 2806 63 2834
L 63 2988
L 1334 2988
L 1334 2834
Q 1188 2800 1128 2767
Q 1069 2734 1041 2682
Q 1013 2631 1013 2550
Q 1013 2466 1033 2375
Q 1053 2284 1097 2163
L 1653 597
L 2278 2097
Q 2331 2222 2361 2326
Q 2391 2431 2391 2522
Q 2391 2656 2317 2725
Q 2244 2794 2063 2834
L 2063 2988
L 3231 2988
L 3231 2834
Q 3109 2809 3043 2757
Q 2978 2706 2912 2595
Q 2847 2484 2756 2284
L 1625 -256
z
" transform="scale(0.015625)"/>
      <path id="Cambria-6d" d="M 1147 2506
L 1191 2494
Q 1378 2681 1498 2776
Q 1619 2872 1731 2930
Q 1844 2988 1942 3013
Q 2041 3038 2144 3038
Q 2456 3038 2653 2894
Q 2850 2750 2925 2453
Q 3159 2691 3304 2803
Q 3450 2916 3601 2977
Q 3753 3038 3928 3038
Q 4138 3038 4289 2977
Q 4441 2916 4545 2789
Q 4650 2663 4698 2472
Q 4747 2281 4747 1959
L 4747 781
Q 4747 544 4762 453
Q 4778 363 4808 313
Q 4838 263 4897 227
Q 4956 191 5097 153
L 5097 0
L 3869 0
L 3869 153
Q 3991 191 4044 219
Q 4097 247 4133 297
Q 4169 347 4189 451
Q 4209 556 4209 769
L 4209 1588
Q 4209 1853 4195 2026
Q 4181 2200 4151 2303
Q 4122 2406 4080 2465
Q 4038 2525 3984 2569
Q 3931 2613 3859 2638
Q 3788 2663 3669 2663
Q 3544 2663 3436 2613
Q 3328 2563 3201 2444
Q 3075 2325 3019 2204
Q 2963 2084 2963 1922
L 2963 781
Q 2963 544 2978 453
Q 2994 363 3023 313
Q 3053 263 3112 227
Q 3172 191 3313 153
L 3313 0
L 2084 0
L 2084 153
Q 2206 191 2259 219
Q 2313 247 2348 297
Q 2384 347 2404 451
Q 2425 556 2425 769
L 2425 1588
Q 2425 1866 2409 2041
Q 2394 2216 2361 2322
Q 2328 2428 2276 2493
Q 2225 2559 2172 2593
Q 2119 2628 2047 2645
Q 1975 2663 1884 2663
Q 1756 2663 1643 2605
Q 1531 2547 1414 2437
Q 1297 2328 1237 2209
Q 1178 2091 1178 1953
L 1178 781
Q 1178 603 1187 509
Q 1197 416 1217 362
Q 1238 309 1269 276
Q 1300 244 1358 214
Q 1416 184 1531 153
L 1531 0
L 306 0
L 306 153
Q 425 191 476 219
Q 528 247 565 297
Q 603 347 622 450
Q 641 553 641 772
L 641 2134
Q 641 2334 634 2456
Q 628 2578 590 2651
Q 553 2725 476 2761
Q 400 2797 259 2822
L 259 2988
L 991 3016
L 1181 3016
L 1147 2506
z
" transform="scale(0.015625)"/>
      <path id="Cambria-62" d="M 1091 2497
L 1103 2494
Q 1322 2722 1467 2825
Q 1613 2928 1767 2983
Q 1922 3038 2106 3038
Q 2441 3038 2680 2867
Q 2919 2697 3048 2356
Q 3178 2016 3178 1522
Q 3178 1013 3023 661
Q 2869 309 2567 129
Q 2266 -50 1853 -50
Q 1622 -50 1417 -8
Q 1213 34 988 141
L 769 -50
L 553 0
L 553 3397
Q 553 3697 548 3815
Q 544 3934 523 4017
Q 503 4100 467 4147
Q 431 4194 370 4222
Q 309 4250 150 4278
L 150 4441
L 906 4472
L 1091 4472
L 1091 2497
z
M 1091 1125
Q 1091 884 1112 742
Q 1134 600 1186 506
Q 1238 413 1336 334
Q 1434 256 1556 226
Q 1678 197 1828 197
Q 2203 197 2397 503
Q 2591 809 2591 1422
Q 2591 2041 2414 2352
Q 2238 2663 1881 2663
Q 1703 2663 1578 2608
Q 1453 2553 1329 2437
Q 1206 2322 1148 2209
Q 1091 2097 1091 1953
L 1091 1125
z
" transform="scale(0.015625)"/>
      <path id="Cambria-67" d="M 3106 2672
L 2528 2694
L 2500 2659
Q 2597 2563 2653 2395
Q 2709 2228 2709 2034
Q 2709 1525 2395 1248
Q 2081 972 1503 972
Q 1244 972 1056 1038
Q 819 856 819 681
Q 819 566 864 506
Q 909 447 1014 422
Q 1119 397 1331 397
L 2081 397
Q 2413 397 2622 294
Q 2831 191 2920 17
Q 3009 -156 3009 -388
Q 3009 -681 2840 -911
Q 2672 -1141 2353 -1269
Q 2034 -1397 1609 -1397
Q 1294 -1397 1033 -1359
Q 772 -1322 586 -1233
Q 400 -1144 298 -998
Q 197 -853 197 -634
Q 197 -438 328 -277
Q 459 -116 700 6
Q 553 66 468 181
Q 384 297 384 453
Q 384 631 484 779
Q 584 928 838 1119
Q 613 1250 495 1475
Q 378 1700 378 1988
Q 378 2256 467 2454
Q 556 2653 714 2783
Q 872 2913 1087 2977
Q 1303 3041 1553 3041
Q 1778 3041 2000 2988
L 3106 2988
L 3106 2672
z
M 938 2038
Q 938 1647 1097 1434
Q 1256 1222 1556 1222
Q 1716 1222 1828 1283
Q 1941 1344 2011 1450
Q 2081 1556 2114 1695
Q 2147 1834 2147 1988
Q 2147 2263 2069 2447
Q 1991 2631 1856 2717
Q 1722 2803 1547 2803
Q 1250 2803 1094 2606
Q 938 2409 938 2038
z
M 1016 -50
Q 856 -169 776 -301
Q 697 -434 697 -603
Q 697 -884 920 -1017
Q 1144 -1150 1603 -1150
Q 1884 -1150 2086 -1075
Q 2288 -1000 2394 -859
Q 2500 -719 2500 -531
Q 2500 -444 2478 -361
Q 2456 -278 2395 -212
Q 2334 -147 2221 -108
Q 2109 -69 1928 -69
L 1463 -69
Q 1209 -69 1016 -50
z
" transform="scale(0.015625)"/>
      <path id="Cambria-6e" d="M 3347 0
L 2116 0
L 2116 153
Q 2238 191 2291 219
Q 2344 247 2380 297
Q 2416 347 2436 451
Q 2456 556 2456 769
L 2456 1588
Q 2456 1806 2443 1984
Q 2431 2163 2401 2277
Q 2372 2391 2330 2455
Q 2288 2519 2230 2564
Q 2172 2609 2097 2636
Q 2022 2663 1900 2663
Q 1778 2663 1668 2614
Q 1559 2566 1428 2447
Q 1297 2328 1237 2212
Q 1178 2097 1178 1947
L 1178 781
Q 1178 513 1203 408
Q 1228 303 1298 248
Q 1369 194 1528 153
L 1528 0
L 303 0
L 303 153
Q 425 191 476 219
Q 528 247 564 297
Q 600 347 620 450
Q 641 553 641 772
L 641 2134
Q 641 2334 634 2456
Q 628 2578 590 2651
Q 553 2725 476 2761
Q 400 2797 259 2822
L 259 2988
L 991 3016
L 1181 3016
L 1147 2506
L 1191 2494
Q 1422 2728 1564 2828
Q 1706 2928 1851 2983
Q 1997 3038 2159 3038
Q 2328 3038 2461 2998
Q 2594 2959 2695 2878
Q 2797 2797 2862 2676
Q 2928 2556 2961 2387
Q 2994 2219 2994 1959
L 2994 781
Q 2994 566 3006 469
Q 3019 372 3050 319
Q 3081 266 3140 230
Q 3200 194 3347 153
L 3347 0
z
" transform="scale(0.015625)"/>
      <path id="Cambria-64" d="M 2413 3397
Q 2413 3697 2408 3815
Q 2403 3934 2383 4017
Q 2363 4100 2327 4147
Q 2291 4194 2230 4222
Q 2169 4250 2009 4278
L 2009 4441
L 2766 4472
L 2950 4472
L 2950 853
Q 2950 609 2959 504
Q 2969 400 3000 337
Q 3031 275 3098 236
Q 3166 197 3334 163
L 3334 0
L 2597 -31
L 2409 -31
L 2447 481
L 2400 494
Q 2203 284 2058 179
Q 1913 75 1748 12
Q 1584 -50 1397 -50
Q 884 -50 606 339
Q 328 728 328 1463
Q 328 1975 509 2333
Q 691 2691 998 2866
Q 1306 3041 1691 3041
Q 1897 3041 2065 3008
Q 2234 2975 2413 2900
L 2413 3397
z
M 2413 1853
Q 2413 2097 2391 2244
Q 2369 2391 2317 2491
Q 2266 2591 2178 2659
Q 2091 2728 1986 2759
Q 1881 2791 1734 2791
Q 1334 2791 1125 2470
Q 916 2150 916 1550
Q 916 950 1087 637
Q 1259 325 1609 325
Q 1747 325 1837 348
Q 1928 372 2015 423
Q 2103 475 2193 565
Q 2284 656 2326 731
Q 2369 806 2391 903
Q 2413 1000 2413 1153
L 2413 1853
z
" transform="scale(0.015625)"/>
     </defs>
     <use xlink:href="#Cambria-50"/>
     <use xlink:href="#Cambria-72" transform="translate(56.787109 0)"/>
     <use xlink:href="#Cambria-65" transform="translate(98.144531 0)"/>
     <use xlink:href="#Cambria-73" transform="translate(146.923828 0)"/>
     <use xlink:href="#Cambria-73" transform="translate(189.892578 0)"/>
     <use xlink:href="#Cambria-75" transform="translate(232.861328 0)"/>
     <use xlink:href="#Cambria-72" transform="translate(288.085938 0)"/>
     <use xlink:href="#Cambria-65" transform="translate(329.443359 0)"/>
     <use xlink:href="#Cambria-20" transform="translate(378.222656 0)"/>
     <use xlink:href="#Cambria-70" transform="translate(400.244141 0)"/>
     <use xlink:href="#Cambria-61" transform="translate(455.859375 0)"/>
     <use xlink:href="#Cambria-72" transform="translate(504.6875 0)"/>
     <use xlink:href="#Cambria-69" transform="translate(546.044922 0)"/>
     <use xlink:href="#Cambria-74" transform="translate(573.828125 0)"/>
     <use xlink:href="#Cambria-79" transform="translate(607.666016 0)"/>
     <use xlink:href="#Cambria-20" transform="translate(658.056641 0)"/>
     <use xlink:href="#Cambria-6d" transform="translate(680.078125 0)"/>
     <use xlink:href="#Cambria-75" transform="translate(763.28125 0)"/>
     <use xlink:href="#Cambria-73" transform="translate(818.505859 0)"/>
     <use xlink:href="#Cambria-74" transform="translate(861.474609 0)"/>
     <use xlink:href="#Cambria-20" transform="translate(895.3125 0)"/>
     <use xlink:href="#Cambria-62" transform="translate(917.333984 0)"/>
     <use xlink:href="#Cambria-65" transform="translate(972.070312 0)"/>
     <use xlink:href="#Cambria-20" transform="translate(1020.849609 0)"/>
     <use xlink:href="#Cambria-72" transform="translate(1042.871094 0)"/>
     <use xlink:href="#Cambria-65" transform="translate(1084.228516 0)"/>
     <use xlink:href="#Cambria-67" transform="translate(1133.007812 0)"/>
     <use xlink:href="#Cambria-65" transform="translate(1182.421875 0)"/>
     <use xlink:href="#Cambria-6e" transform="translate(1231.201172 0)"/>
     <use xlink:href="#Cambria-65" transform="translate(1287.011719 0)"/>
     <use xlink:href="#Cambria-72" transform="translate(1335.791016 0)"/>
     <use xlink:href="#Cambria-61" transform="translate(1377.148438 0)"/>
     <use xlink:href="#Cambria-74" transform="translate(1425.976562 0)"/>
     <use xlink:href="#Cambria-65" transform="translate(1459.814453 0)"/>
     <use xlink:href="#Cambria-64" transform="translate(1508.59375 0)"/>
    </g>
    <!-- with the promoted full ionic VLE workflow. -->
    <g transform="translate(110.439062 144.9125) scale(0.1 -0.1)">
     <defs>
      <path id="Cambria-77" d="M 2494 2334
L 1675 -16
L 1241 -16
L 491 2303
Q 419 2528 370 2620
Q 322 2713 267 2758
Q 213 2803 91 2834
L 91 2988
L 1325 2988
L 1325 2834
Q 1144 2797 1080 2736
Q 1016 2675 1016 2553
Q 1016 2469 1034 2376
Q 1053 2284 1091 2163
L 1581 569
L 2384 2988
L 2825 2988
L 3506 569
L 4056 2097
Q 4100 2216 4128 2323
Q 4156 2431 4156 2525
Q 4156 2656 4086 2728
Q 4016 2800 3847 2834
L 3847 2988
L 4938 2988
L 4938 2834
Q 4850 2813 4806 2789
Q 4763 2766 4720 2720
Q 4678 2675 4626 2579
Q 4575 2484 4497 2284
L 3594 -16
L 3172 -16
L 2494 2334
z
" transform="scale(0.015625)"/>
      <path id="Cambria-68" d="M 1141 2497
L 1153 2494
Q 1397 2741 1539 2839
Q 1681 2938 1820 2988
Q 1959 3038 2119 3038
Q 2291 3038 2425 2997
Q 2559 2956 2661 2873
Q 2763 2791 2827 2670
Q 2891 2550 2922 2383
Q 2953 2216 2953 1959
L 2953 781
Q 2953 509 2976 411
Q 3000 313 3061 258
Q 3122 203 3306 153
L 3306 0
L 2075 0
L 2075 153
Q 2197 191 2250 219
Q 2303 247 2339 297
Q 2375 347 2395 451
Q 2416 556 2416 769
L 2416 1588
Q 2416 2003 2373 2223
Q 2331 2444 2207 2553
Q 2084 2663 1863 2663
Q 1738 2663 1638 2619
Q 1538 2575 1406 2462
Q 1275 2350 1208 2231
Q 1141 2113 1141 1978
L 1141 781
Q 1141 569 1152 478
Q 1163 388 1194 327
Q 1225 266 1289 227
Q 1353 188 1488 153
L 1488 0
L 250 0
L 250 153
Q 388 191 447 225
Q 506 259 539 312
Q 572 366 587 466
Q 603 566 603 781
L 603 3397
Q 603 3697 598 3815
Q 594 3934 573 4017
Q 553 4100 517 4147
Q 481 4194 420 4222
Q 359 4250 200 4278
L 200 4441
L 953 4472
L 1141 4472
L 1141 2497
z
" transform="scale(0.015625)"/>
      <path id="Cambria-6f" d="M 1663 -50
Q 1013 -50 670 333
Q 328 716 328 1466
Q 328 1981 508 2337
Q 688 2694 1000 2867
Q 1313 3041 1713 3041
Q 2381 3041 2725 2652
Q 3069 2263 3069 1534
Q 3069 1016 2897 659
Q 2725 303 2409 126
Q 2094 -50 1663 -50
z
M 919 1531
Q 919 888 1123 542
Q 1328 197 1709 197
Q 1919 197 2066 298
Q 2213 400 2305 572
Q 2397 744 2437 970
Q 2478 1197 2478 1444
Q 2478 1903 2376 2206
Q 2275 2509 2100 2651
Q 1925 2794 1700 2794
Q 1322 2794 1120 2466
Q 919 2138 919 1531
z
" transform="scale(0.015625)"/>
      <path id="Cambria-66" d="M 1909 2672
L 1163 2672
L 1163 781
Q 1163 572 1183 465
Q 1203 359 1242 304
Q 1281 250 1345 217
Q 1409 184 1550 153
L 1550 0
L 272 0
L 272 153
Q 409 191 468 225
Q 528 259 561 312
Q 594 366 609 466
Q 625 566 625 781
L 625 2672
L 247 2672
L 247 2831
Q 366 2850 405 2861
Q 444 2872 480 2894
Q 516 2916 542 2956
Q 569 2997 589 3076
Q 609 3156 622 3300
Q 650 3641 745 3853
Q 841 4066 1023 4216
Q 1206 4366 1414 4427
Q 1622 4488 1903 4488
Q 2150 4488 2322 4453
L 2322 3888
L 2013 3888
Q 1953 4072 1873 4148
Q 1794 4225 1650 4225
Q 1547 4225 1476 4197
Q 1406 4169 1347 4109
Q 1288 4050 1245 3950
Q 1203 3850 1183 3701
Q 1163 3553 1163 3316
L 1163 2988
L 1909 2988
L 1909 2672
z
" transform="scale(0.015625)"/>
      <path id="Cambria-6c" d="M 1138 781
Q 1138 513 1163 408
Q 1188 303 1258 248
Q 1328 194 1488 153
L 1488 0
L 247 0
L 247 153
Q 403 194 464 237
Q 525 281 551 342
Q 578 403 589 508
Q 600 613 600 781
L 600 3397
Q 600 3697 595 3815
Q 591 3934 570 4017
Q 550 4100 514 4147
Q 478 4194 417 4222
Q 356 4250 197 4278
L 197 4441
L 950 4472
L 1138 4472
L 1138 781
z
" transform="scale(0.015625)"/>
      <path id="Cambria-63" d="M 2631 2916
L 2631 2263
L 2234 2263
Q 2181 2466 2103 2583
Q 2025 2700 1922 2747
Q 1819 2794 1666 2794
Q 1447 2794 1278 2653
Q 1109 2513 1011 2225
Q 913 1938 913 1522
Q 913 1256 950 1036
Q 988 816 1078 659
Q 1169 503 1319 415
Q 1469 328 1691 328
Q 1906 328 2092 412
Q 2278 497 2478 709
L 2656 503
Q 2497 328 2375 233
Q 2253 138 2114 73
Q 1975 9 1839 -20
Q 1703 -50 1544 -50
Q 953 -50 640 342
Q 328 734 328 1475
Q 328 1938 503 2295
Q 678 2653 993 2847
Q 1309 3041 1722 3041
Q 1978 3041 2195 3011
Q 2413 2981 2631 2916
z
" transform="scale(0.015625)"/>
      <path id="Cambria-56" d="M 1481 4266
L 1481 4113
Q 1338 4088 1263 4050
Q 1188 4013 1150 3944
Q 1113 3875 1113 3759
Q 1113 3653 1138 3529
Q 1163 3406 1209 3253
L 1941 703
L 2838 3272
Q 2856 3331 2875 3397
Q 2894 3463 2908 3525
Q 2922 3588 2926 3634
Q 2931 3681 2931 3722
Q 2931 3909 2845 3995
Q 2759 4081 2553 4113
L 2553 4266
L 3866 4266
L 3866 4113
Q 3738 4081 3659 4022
Q 3581 3963 3504 3831
Q 3428 3700 3319 3413
L 2022 -50
L 1613 -50
L 559 3434
Q 475 3719 412 3839
Q 350 3959 275 4020
Q 200 4081 69 4113
L 69 4266
L 1481 4266
z
" transform="scale(0.015625)"/>
      <path id="Cambria-4c" d="M 1328 288
L 2147 288
Q 2281 288 2372 303
Q 2463 319 2527 351
Q 2591 384 2642 442
Q 2694 500 2741 594
Q 2788 688 2830 830
Q 2872 972 2934 1256
L 3250 1256
L 3188 0
L 378 0
L 378 153
Q 572 203 637 264
Q 703 325 723 437
Q 744 550 744 781
L 744 3484
Q 744 3700 728 3798
Q 713 3897 677 3951
Q 641 4006 581 4039
Q 522 4072 378 4113
L 378 4266
L 1694 4266
L 1694 4113
Q 1556 4075 1498 4045
Q 1441 4016 1403 3966
Q 1366 3916 1347 3812
Q 1328 3709 1328 3484
L 1328 288
z
" transform="scale(0.015625)"/>
      <path id="Cambria-45" d="M 3300 4266
L 3300 3322
L 2994 3322
Q 2947 3475 2897 3590
Q 2847 3706 2794 3784
Q 2741 3863 2677 3909
Q 2613 3956 2525 3973
Q 2438 3991 2316 3991
L 1328 3991
L 1328 2353
L 1997 2353
Q 2134 2353 2212 2392
Q 2291 2431 2342 2525
Q 2394 2619 2441 2819
L 2734 2819
L 2734 1619
L 2441 1619
Q 2397 1806 2344 1901
Q 2291 1997 2217 2037
Q 2144 2078 1997 2078
L 1328 2078
L 1328 275
L 2300 275
Q 2453 275 2548 301
Q 2644 328 2712 392
Q 2781 456 2834 559
Q 2888 663 2923 773
Q 2959 884 3022 1097
L 3331 1097
L 3272 0
L 378 0
L 378 153
Q 572 203 637 264
Q 703 325 723 437
Q 744 550 744 781
L 744 3484
Q 744 3700 728 3798
Q 713 3897 677 3951
Q 641 4006 581 4039
Q 522 4072 378 4113
L 378 4266
L 3300 4266
z
" transform="scale(0.015625)"/>
      <path id="Cambria-6b" d="M 1138 1741
L 1238 1741
Q 1341 1741 1406 1763
Q 1484 1791 1578 1858
Q 1672 1925 1844 2084
Q 1988 2219 2061 2312
Q 2134 2406 2163 2484
Q 2188 2550 2188 2616
Q 2188 2709 2130 2762
Q 2072 2816 1941 2834
L 1941 2988
L 3288 2988
L 3288 2834
Q 3144 2806 2981 2706
Q 2819 2606 2647 2444
L 1928 1763
L 2828 588
Q 2984 381 3111 282
Q 3238 184 3388 153
L 3388 0
L 2188 0
L 2188 153
Q 2269 163 2308 189
Q 2347 216 2347 278
Q 2347 325 2330 370
Q 2313 416 2259 494
Q 2206 572 2066 766
L 1694 1266
Q 1588 1406 1542 1450
Q 1497 1494 1447 1512
Q 1397 1531 1313 1531
L 1138 1531
L 1138 781
Q 1138 513 1163 408
Q 1188 303 1258 248
Q 1328 194 1488 153
L 1488 0
L 247 0
L 247 153
Q 403 194 464 237
Q 525 281 551 342
Q 578 403 589 508
Q 600 613 600 781
L 600 3397
Q 600 3697 595 3815
Q 591 3934 570 4017
Q 550 4100 514 4147
Q 478 4194 417 4222
Q 356 4250 197 4278
L 197 4441
L 950 4472
L 1138 4472
L 1138 1741
z
" transform="scale(0.015625)"/>
      <path id="Cambria-2e" d="M 972 725
L 972 0
L 341 0
L 341 725
L 972 725
z
" transform="scale(0.015625)"/>
     </defs>
     <use xlink:href="#Cambria-77"/>
     <use xlink:href="#Cambria-69" transform="translate(77.441406 0)"/>
     <use xlink:href="#Cambria-74" transform="translate(105.224609 0)"/>
     <use xlink:href="#Cambria-68" transform="translate(139.0625 0)"/>
     <use xlink:href="#Cambria-20" transform="translate(194.238281 0)"/>
     <use xlink:href="#Cambria-74" transform="translate(216.259766 0)"/>
     <use xlink:href="#Cambria-68" transform="translate(250.097656 0)"/>
     <use xlink:href="#Cambria-65" transform="translate(305.273438 0)"/>
     <use xlink:href="#Cambria-20" transform="translate(354.052734 0)"/>
     <use xlink:href="#Cambria-70" transform="translate(376.074219 0)"/>
     <use xlink:href="#Cambria-72" transform="translate(431.689453 0)"/>
     <use xlink:href="#Cambria-6f" transform="translate(473.046875 0)"/>
     <use xlink:href="#Cambria-6d" transform="translate(526.123047 0)"/>
     <use xlink:href="#Cambria-6f" transform="translate(609.326172 0)"/>
     <use xlink:href="#Cambria-74" transform="translate(662.402344 0)"/>
     <use xlink:href="#Cambria-65" transform="translate(696.240234 0)"/>
     <use xlink:href="#Cambria-64" transform="translate(745.019531 0)"/>
     <use xlink:href="#Cambria-20" transform="translate(800.488281 0)"/>
     <use xlink:href="#Cambria-66" transform="translate(822.509766 0)"/>
     <use xlink:href="#Cambria-75" transform="translate(852.783203 0)"/>
     <use xlink:href="#Cambria-6c" transform="translate(908.007812 0)"/>
     <use xlink:href="#Cambria-6c" transform="translate(935.15625 0)"/>
     <use xlink:href="#Cambria-20" transform="translate(962.304688 0)"/>
     <use xlink:href="#Cambria-69" transform="translate(984.326172 0)"/>
     <use xlink:href="#Cambria-6f" transform="translate(1012.109375 0)"/>
     <use xlink:href="#Cambria-6e" transform="translate(1065.185547 0)"/>
     <use xlink:href="#Cambria-69" transform="translate(1120.996094 0)"/>
     <use xlink:href="#Cambria-63" transform="translate(1148.779297 0)"/>
     <use xlink:href="#Cambria-20" transform="translate(1192.871094 0)"/>
     <use xlink:href="#Cambria-56" transform="translate(1214.892578 0)"/>
     <use xlink:href="#Cambria-4c" transform="translate(1275.244141 0)"/>
     <use xlink:href="#Cambria-45" transform="translate(1328.90625 0)"/>
     <use xlink:href="#Cambria-20" transform="translate(1386.425781 0)"/>
     <use xlink:href="#Cambria-77" transform="translate(1408.447266 0)"/>
     <use xlink:href="#Cambria-6f" transform="translate(1485.888672 0)"/>
     <use xlink:href="#Cambria-72" transform="translate(1538.964844 0)"/>
     <use xlink:href="#Cambria-6b" transform="translate(1580.322266 0)"/>
     <use xlink:href="#Cambria-66" transform="translate(1632.763672 0)"/>
     <use xlink:href="#Cambria-6c" transform="translate(1663.037109 0)"/>
     <use xlink:href="#Cambria-6f" transform="translate(1690.185547 0)"/>
     <use xlink:href="#Cambria-77" transform="translate(1743.261719 0)"/>
     <use xlink:href="#Cambria-2e" transform="translate(1820.703125 0)"/>
    </g>
   </g>
   <g id="text_2">
    <!-- Ion-parameter pressure parity placeholder -->
    <g transform="translate(73.590781 16.289844) scale(0.13 -0.13)">
     <defs>
      <path id="Cambria-Bold-49" d="M 1603 784
Q 1603 675 1609 581
Q 1616 488 1634 428
Q 1653 369 1689 328
Q 1725 288 1787 258
Q 1850 228 1941 206
L 1941 0
L 300 0
L 300 206
Q 416 238 483 273
Q 550 309 583 373
Q 616 438 625 536
Q 634 634 634 784
L 634 3481
Q 634 3631 626 3728
Q 619 3825 586 3889
Q 553 3953 486 3990
Q 419 4028 300 4059
L 300 4266
L 1941 4266
L 1941 4059
Q 1813 4025 1752 3986
Q 1691 3947 1659 3890
Q 1628 3834 1615 3743
Q 1603 3653 1603 3478
L 1603 784
z
" transform="scale(0.015625)"/>
      <path id="Cambria-Bold-6f" d="M 1784 -50
Q 1325 -50 992 111
Q 659 272 471 626
Q 284 981 284 1528
Q 284 1947 400 2253
Q 516 2559 722 2759
Q 928 2959 1214 3054
Q 1500 3150 1834 3150
Q 2591 3150 2975 2751
Q 3359 2353 3359 1584
Q 3359 1041 3168 673
Q 2978 306 2625 128
Q 2272 -50 1784 -50
z
M 1234 1597
Q 1234 934 1382 604
Q 1531 275 1831 275
Q 1997 275 2108 359
Q 2219 444 2286 603
Q 2353 763 2381 986
Q 2409 1209 2409 1488
Q 2409 2159 2261 2492
Q 2113 2825 1822 2825
Q 1609 2825 1481 2690
Q 1353 2556 1293 2287
Q 1234 2019 1234 1597
z
" transform="scale(0.015625)"/>
      <path id="Cambria-Bold-6e" d="M 3666 0
L 2150 0
L 2150 206
Q 2294 241 2350 308
Q 2406 375 2426 489
Q 2447 603 2447 900
L 2447 1734
Q 2447 1956 2437 2098
Q 2428 2241 2408 2331
Q 2388 2422 2352 2483
Q 2316 2544 2272 2583
Q 2228 2622 2172 2640
Q 2116 2659 2028 2659
Q 1909 2659 1781 2586
Q 1653 2513 1565 2383
Q 1478 2253 1478 2106
L 1478 903
Q 1478 606 1497 490
Q 1516 375 1573 308
Q 1631 241 1778 206
L 1778 0
L 269 0
L 269 206
Q 419 247 476 312
Q 534 378 554 490
Q 575 603 575 900
L 575 2184
Q 575 2416 567 2527
Q 559 2638 529 2705
Q 500 2772 439 2814
Q 378 2856 228 2888
L 228 3100
L 1084 3125
L 1478 3125
L 1431 2675
L 1469 2666
Q 1663 2838 1809 2936
Q 1956 3034 2117 3092
Q 2278 3150 2456 3150
Q 2713 3150 2881 3076
Q 3050 3003 3154 2862
Q 3259 2722 3304 2519
Q 3350 2316 3350 2047
L 3350 903
Q 3350 766 3354 645
Q 3359 525 3378 453
Q 3397 381 3430 336
Q 3463 291 3522 259
Q 3581 228 3666 206
L 3666 0
z
" transform="scale(0.015625)"/>
      <path id="Cambria-Bold-2d" d="M 1819 1378
L 338 1378
L 338 2034
L 1819 2034
L 1819 1378
z
" transform="scale(0.015625)"/>
      <path id="Cambria-Bold-70" d="M 1438 -559
Q 1438 -794 1463 -891
Q 1488 -988 1552 -1044
Q 1616 -1100 1778 -1138
L 1778 -1344
L 222 -1344
L 222 -1138
Q 369 -1094 426 -1041
Q 484 -988 509 -892
Q 534 -797 534 -559
L 534 2175
Q 534 2397 529 2490
Q 525 2584 508 2650
Q 491 2716 459 2758
Q 428 2800 367 2831
Q 306 2863 188 2888
L 188 3100
L 1053 3125
L 1438 3125
L 1391 2672
L 1428 2663
Q 1697 2922 1930 3036
Q 2163 3150 2409 3150
Q 2966 3150 3244 2758
Q 3522 2366 3522 1584
Q 3522 1044 3358 680
Q 3194 316 2869 133
Q 2544 -50 2069 -50
Q 1747 -50 1438 31
L 1438 -559
z
M 1438 1025
Q 1438 641 1570 458
Q 1703 275 1981 275
Q 2269 275 2420 576
Q 2572 878 2572 1438
Q 2572 2059 2436 2359
Q 2300 2659 2013 2659
Q 1872 2659 1739 2587
Q 1606 2516 1522 2383
Q 1438 2250 1438 2084
L 1438 1025
z
" transform="scale(0.015625)"/>
      <path id="Cambria-Bold-61" d="M 2116 409
L 2069 425
Q 1813 175 1570 62
Q 1328 -50 1056 -50
Q 788 -50 589 48
Q 391 147 289 322
Q 188 497 188 725
Q 188 1184 639 1448
Q 1091 1713 2009 1781
L 2009 2078
Q 2009 2369 1943 2526
Q 1878 2684 1775 2748
Q 1672 2813 1528 2813
Q 1384 2813 1279 2763
Q 1175 2713 1090 2573
Q 1006 2434 966 2188
L 375 2188
L 375 2756
Q 663 2884 853 2953
Q 1044 3022 1230 3067
Q 1416 3113 1562 3131
Q 1709 3150 1856 3150
Q 2234 3150 2461 3050
Q 2688 2950 2800 2725
Q 2913 2500 2913 2103
L 2913 884
Q 2913 678 2922 565
Q 2931 453 2951 398
Q 2972 344 3003 311
Q 3034 278 3079 258
Q 3125 238 3250 206
L 3250 0
L 2088 0
L 2116 409
z
M 2013 1475
Q 1528 1463 1295 1294
Q 1063 1125 1063 800
Q 1063 606 1169 504
Q 1275 403 1463 403
Q 1606 403 1734 479
Q 1863 556 1938 684
Q 2013 813 2013 956
L 2013 1475
z
" transform="scale(0.015625)"/>
      <path id="Cambria-Bold-72" d="M 1434 2653
L 1475 2644
Q 1703 2913 1943 3031
Q 2184 3150 2466 3150
Q 2656 3150 2866 3109
L 2866 2247
L 2300 2247
Q 2247 2428 2161 2525
Q 2075 2622 1931 2622
Q 1863 2622 1780 2580
Q 1697 2538 1626 2461
Q 1556 2384 1526 2304
Q 1497 2225 1487 2144
Q 1478 2063 1478 1900
L 1478 903
Q 1478 606 1500 487
Q 1522 369 1587 301
Q 1653 234 1809 206
L 1809 0
L 269 0
L 269 206
Q 419 247 476 312
Q 534 378 554 490
Q 575 603 575 900
L 575 2184
Q 575 2416 567 2527
Q 559 2638 529 2705
Q 500 2772 439 2814
Q 378 2856 228 2888
L 228 3100
L 1084 3125
L 1478 3125
L 1434 2653
z
" transform="scale(0.015625)"/>
      <path id="Cambria-Bold-6d" d="M 1431 2675
L 1469 2666
Q 1753 2931 1981 3040
Q 2209 3150 2447 3150
Q 2678 3150 2831 3090
Q 2984 3031 3090 2917
Q 3197 2803 3263 2619
Q 3578 2913 3811 3031
Q 4044 3150 4297 3150
Q 4547 3150 4711 3084
Q 4875 3019 4981 2881
Q 5088 2744 5136 2537
Q 5184 2331 5184 2044
L 5184 903
Q 5184 766 5189 645
Q 5194 525 5212 453
Q 5231 381 5264 336
Q 5297 291 5356 259
Q 5416 228 5500 206
L 5500 0
L 3994 0
L 3994 206
Q 4134 241 4187 306
Q 4241 372 4261 487
Q 4281 603 4281 900
L 4281 1738
Q 4281 2019 4262 2195
Q 4244 2372 4191 2472
Q 4138 2572 4064 2615
Q 3991 2659 3872 2659
Q 3791 2659 3722 2634
Q 3653 2609 3583 2557
Q 3513 2506 3463 2453
Q 3413 2400 3383 2334
Q 3353 2269 3342 2187
Q 3331 2106 3331 1922
L 3331 903
Q 3331 691 3339 578
Q 3347 466 3372 397
Q 3397 328 3451 283
Q 3506 238 3622 206
L 3622 0
L 2134 0
L 2134 206
Q 2278 241 2333 306
Q 2388 372 2406 486
Q 2425 600 2425 900
L 2425 1738
Q 2425 1944 2417 2086
Q 2409 2228 2390 2315
Q 2372 2403 2339 2468
Q 2306 2534 2264 2575
Q 2222 2616 2164 2637
Q 2106 2659 2019 2659
Q 1903 2659 1776 2587
Q 1650 2516 1564 2387
Q 1478 2259 1478 2113
L 1478 903
Q 1478 609 1495 492
Q 1513 375 1569 308
Q 1625 241 1766 206
L 1766 0
L 269 0
L 269 206
Q 419 247 476 312
Q 534 378 554 490
Q 575 603 575 900
L 575 2184
Q 575 2416 567 2527
Q 559 2638 529 2705
Q 500 2772 439 2814
Q 378 2856 228 2888
L 228 3100
L 1084 3125
L 1478 3125
L 1431 2675
z
" transform="scale(0.015625)"/>
      <path id="Cambria-Bold-65" d="M 3097 569
Q 2778 231 2465 90
Q 2153 -50 1747 -50
Q 1019 -50 651 348
Q 284 747 284 1531
Q 284 2038 473 2405
Q 663 2772 1009 2961
Q 1356 3150 1816 3150
Q 2100 3150 2314 3084
Q 2528 3019 2681 2901
Q 2834 2784 2934 2619
Q 3053 2422 3113 2169
Q 3175 1909 3178 1541
L 1197 1541
Q 1200 975 1398 708
Q 1597 441 2003 441
Q 2241 441 2431 530
Q 2622 619 2844 844
L 3097 569
z
M 2253 1878
Q 2241 2356 2128 2590
Q 2016 2825 1766 2825
Q 1525 2825 1383 2581
Q 1241 2338 1213 1878
L 2253 1878
z
" transform="scale(0.015625)"/>
      <path id="Cambria-Bold-74" d="M 2406 375
Q 2131 141 1906 45
Q 1681 -50 1431 -50
Q 966 -50 736 201
Q 506 453 506 963
L 506 2709
L 116 2709
L 116 2925
Q 306 2956 397 3018
Q 488 3081 538 3186
Q 588 3291 617 3459
Q 647 3628 663 3881
L 1409 3881
L 1409 3100
L 2300 3100
L 2300 2709
L 1409 2709
L 1409 1300
Q 1409 947 1442 778
Q 1475 609 1553 529
Q 1631 450 1747 450
Q 1834 450 1903 465
Q 1972 481 2048 522
Q 2125 563 2209 638
L 2406 375
z
" transform="scale(0.015625)"/>
      <path id="Cambria-Bold-20" transform="scale(0.015625)"/>
      <path id="Cambria-Bold-73" d="M 672 844
Q 747 559 909 417
Q 1072 275 1344 275
Q 1578 275 1698 381
Q 1819 488 1819 691
Q 1819 819 1764 909
Q 1709 1000 1582 1083
Q 1456 1166 1150 1300
Q 978 1375 826 1465
Q 675 1556 562 1670
Q 450 1784 384 1925
Q 319 2066 319 2238
Q 319 2519 481 2725
Q 644 2931 945 3040
Q 1247 3150 1634 3150
Q 1863 3150 2081 3131
Q 2300 3113 2647 3050
L 2647 2322
L 2234 2322
Q 2163 2522 2077 2631
Q 1991 2741 1887 2783
Q 1784 2825 1641 2825
Q 1434 2825 1312 2731
Q 1191 2638 1191 2469
Q 1191 2350 1234 2265
Q 1278 2181 1390 2101
Q 1503 2022 1825 1888
Q 2119 1766 2303 1633
Q 2488 1500 2584 1326
Q 2681 1153 2681 922
Q 2681 669 2587 486
Q 2494 303 2325 184
Q 2156 66 1920 8
Q 1684 -50 1400 -50
Q 884 -50 253 97
L 253 844
L 672 844
z
" transform="scale(0.015625)"/>
      <path id="Cambria-Bold-75" d="M 200 3100
L 1416 3100
L 1416 1366
Q 1416 1066 1434 897
Q 1453 728 1506 629
Q 1559 531 1636 486
Q 1713 441 1831 441
Q 1947 441 2075 512
Q 2203 584 2292 714
Q 2381 844 2381 991
L 2381 2197
Q 2381 2425 2372 2536
Q 2363 2647 2336 2709
Q 2309 2772 2253 2814
Q 2197 2856 2069 2894
L 2069 3100
L 3288 3100
L 3288 913
Q 3288 675 3295 565
Q 3303 456 3331 390
Q 3359 325 3421 283
Q 3484 241 3631 209
L 3631 0
L 2781 -28
L 2403 -28
L 2431 422
L 2394 431
Q 2103 163 1875 56
Q 1647 -50 1416 -50
Q 1084 -50 886 73
Q 688 197 600 436
Q 513 675 513 1053
L 513 2197
Q 513 2372 508 2465
Q 503 2559 493 2611
Q 484 2663 467 2705
Q 450 2747 420 2781
Q 391 2816 339 2844
Q 288 2872 200 2894
L 200 3100
z
" transform="scale(0.015625)"/>
      <path id="Cambria-Bold-69" d="M 1453 4347
L 1453 3581
L 597 3581
L 597 4347
L 1453 4347
z
M 266 206
Q 419 247 476 312
Q 534 378 554 490
Q 575 603 575 900
L 575 2353
Q 575 2506 561 2600
Q 547 2694 508 2750
Q 469 2806 401 2836
Q 334 2866 228 2888
L 228 3100
L 1088 3125
L 1478 3125
L 1478 903
Q 1478 728 1483 633
Q 1488 538 1497 486
Q 1506 434 1523 393
Q 1541 353 1569 318
Q 1597 284 1650 256
Q 1703 228 1791 206
L 1791 0
L 266 0
L 266 206
z
" transform="scale(0.015625)"/>
      <path id="Cambria-Bold-79" d="M 1844 -141
Q 1641 -594 1461 -851
Q 1281 -1109 1073 -1237
Q 866 -1366 556 -1366
Q 322 -1366 119 -1306
L 119 -591
L 469 -591
Q 509 -738 570 -792
Q 631 -847 741 -847
Q 859 -847 954 -781
Q 1050 -716 1170 -536
Q 1291 -356 1466 0
L 1288 0
L 472 2347
Q 384 2594 332 2686
Q 281 2778 217 2826
Q 153 2875 59 2894
L 59 3100
L 1619 3100
L 1619 2894
Q 1472 2866 1403 2809
Q 1334 2753 1334 2641
Q 1334 2491 1416 2250
L 1866 884
L 2363 2081
Q 2425 2231 2456 2345
Q 2488 2459 2488 2569
Q 2488 2700 2413 2786
Q 2338 2872 2200 2894
L 2200 3100
L 3416 3100
L 3416 2891
Q 3325 2863 3270 2822
Q 3216 2781 3167 2715
Q 3119 2650 3050 2520
Q 2981 2391 2863 2128
L 1844 -141
z
" transform="scale(0.015625)"/>
      <path id="Cambria-Bold-6c" d="M 1438 903
Q 1438 606 1456 493
Q 1475 381 1533 314
Q 1591 247 1750 206
L 1750 0
L 219 0
L 219 206
Q 313 228 366 258
Q 419 288 448 327
Q 478 366 500 427
Q 522 488 528 595
Q 534 703 534 903
L 534 3341
Q 534 3609 529 3736
Q 525 3863 511 3948
Q 497 4034 464 4086
Q 431 4138 372 4169
Q 313 4200 181 4225
L 181 4431
L 1047 4475
L 1438 4475
L 1438 903
z
" transform="scale(0.015625)"/>
      <path id="Cambria-Bold-63" d="M 2650 800
L 2891 509
Q 2584 209 2298 79
Q 2013 -50 1675 -50
Q 997 -50 640 348
Q 284 747 284 1506
Q 284 2019 479 2392
Q 675 2766 1040 2958
Q 1406 3150 1878 3150
Q 2131 3150 2382 3114
Q 2634 3078 2841 3016
L 2841 2263
L 2222 2263
Q 2175 2556 2081 2690
Q 1988 2825 1813 2825
Q 1697 2825 1592 2767
Q 1488 2709 1408 2567
Q 1328 2425 1281 2186
Q 1234 1947 1234 1581
Q 1234 1216 1303 964
Q 1372 713 1525 577
Q 1678 441 1928 441
Q 2109 441 2270 519
Q 2431 597 2650 800
z
" transform="scale(0.015625)"/>
      <path id="Cambria-Bold-68" d="M 1450 2688
Q 1734 2941 1957 3045
Q 2181 3150 2416 3150
Q 2759 3150 2946 3023
Q 3134 2897 3220 2659
Q 3306 2422 3306 2044
L 3306 903
Q 3306 766 3311 645
Q 3316 525 3334 453
Q 3353 381 3386 336
Q 3419 291 3478 259
Q 3538 228 3622 206
L 3622 0
L 2106 0
L 2106 206
Q 2253 241 2308 306
Q 2363 372 2383 487
Q 2403 603 2403 900
L 2403 1716
Q 2403 2028 2383 2201
Q 2363 2375 2314 2470
Q 2266 2566 2189 2612
Q 2113 2659 1988 2659
Q 1869 2659 1739 2586
Q 1609 2513 1523 2386
Q 1438 2259 1438 2116
L 1438 903
Q 1438 728 1442 633
Q 1447 538 1456 486
Q 1466 434 1483 393
Q 1500 353 1528 318
Q 1556 284 1609 256
Q 1663 228 1750 206
L 1750 0
L 219 0
L 219 206
Q 313 228 366 258
Q 419 288 448 327
Q 478 366 500 427
Q 522 488 528 595
Q 534 703 534 903
L 534 3341
Q 534 3609 529 3736
Q 525 3863 509 3948
Q 494 4034 462 4086
Q 431 4138 372 4169
Q 313 4200 181 4225
L 181 4431
L 1047 4475
L 1438 4475
L 1438 2691
L 1450 2688
z
" transform="scale(0.015625)"/>
      <path id="Cambria-Bold-64" d="M 3288 913
Q 3288 675 3295 565
Q 3303 456 3331 390
Q 3359 325 3421 283
Q 3484 241 3631 209
L 3631 0
L 2781 -28
L 2403 -28
L 2431 422
L 2384 425
Q 2159 197 1911 73
Q 1663 -50 1434 -50
Q 866 -50 583 340
Q 300 731 300 1516
Q 300 2047 472 2411
Q 644 2775 983 2962
Q 1322 3150 1800 3150
Q 1938 3150 2070 3133
Q 2203 3116 2384 3066
L 2384 3350
Q 2384 3684 2375 3823
Q 2366 3963 2336 4036
Q 2306 4109 2247 4150
Q 2188 4191 2031 4222
L 2031 4431
L 2897 4475
L 3288 4475
L 3288 913
z
M 2384 2075
Q 2384 2456 2256 2640
Q 2128 2825 1863 2825
Q 1669 2825 1530 2686
Q 1391 2547 1320 2284
Q 1250 2022 1250 1663
Q 1250 1047 1384 744
Q 1519 441 1803 441
Q 1938 441 2070 508
Q 2203 575 2293 714
Q 2384 853 2384 1034
L 2384 2075
z
" transform="scale(0.015625)"/>
     </defs>
     <use xlink:href="#Cambria-Bold-49"/>
     <use xlink:href="#Cambria-Bold-6f" transform="translate(34.960938 0)"/>
     <use xlink:href="#Cambria-Bold-6e" transform="translate(91.894531 0)"/>
     <use xlink:href="#Cambria-Bold-2d" transform="translate(152.246094 0)"/>
     <use xlink:href="#Cambria-Bold-70" transform="translate(185.9375 0)"/>
     <use xlink:href="#Cambria-Bold-61" transform="translate(245.654297 0)"/>
     <use xlink:href="#Cambria-Bold-72" transform="translate(299.169922 0)"/>
     <use xlink:href="#Cambria-Bold-61" transform="translate(345.3125 0)"/>
     <use xlink:href="#Cambria-Bold-6d" transform="translate(398.828125 0)"/>
     <use xlink:href="#Cambria-Bold-65" transform="translate(487.841797 0)"/>
     <use xlink:href="#Cambria-Bold-74" transform="translate(540.917969 0)"/>
     <use xlink:href="#Cambria-Bold-65" transform="translate(577.441406 0)"/>
     <use xlink:href="#Cambria-Bold-72" transform="translate(630.517578 0)"/>
     <use xlink:href="#Cambria-Bold-20" transform="translate(676.660156 0)"/>
     <use xlink:href="#Cambria-Bold-70" transform="translate(698.681641 0)"/>
     <use xlink:href="#Cambria-Bold-72" transform="translate(758.398438 0)"/>
     <use xlink:href="#Cambria-Bold-65" transform="translate(804.541016 0)"/>
     <use xlink:href="#Cambria-Bold-73" transform="translate(857.617188 0)"/>
     <use xlink:href="#Cambria-Bold-73" transform="translate(903.515625 0)"/>
     <use xlink:href="#Cambria-Bold-75" transform="translate(949.414062 0)"/>
     <use xlink:href="#Cambria-Bold-72" transform="translate(1009.130859 0)"/>
     <use xlink:href="#Cambria-Bold-65" transform="translate(1055.273438 0)"/>
     <use xlink:href="#Cambria-Bold-20" transform="translate(1108.349609 0)"/>
     <use xlink:href="#Cambria-Bold-70" transform="translate(1130.371094 0)"/>
     <use xlink:href="#Cambria-Bold-61" transform="translate(1190.087891 0)"/>
     <use xlink:href="#Cambria-Bold-72" transform="translate(1243.603516 0)"/>
     <use xlink:href="#Cambria-Bold-69" transform="translate(1289.746094 0)"/>
     <use xlink:href="#Cambria-Bold-74" transform="translate(1321.191406 0)"/>
     <use xlink:href="#Cambria-Bold-79" transform="translate(1357.714844 0)"/>
     <use xlink:href="#Cambria-Bold-20" transform="translate(1410.791016 0)"/>
     <use xlink:href="#Cambria-Bold-70" transform="translate(1432.8125 0)"/>
     <use xlink:href="#Cambria-Bold-6c" transform="translate(1492.529297 0)"/>
     <use xlink:href="#Cambria-Bold-61" transform="translate(1523.339844 0)"/>
     <use xlink:href="#Cambria-Bold-63" transform="translate(1576.855469 0)"/>
     <use xlink:href="#Cambria-Bold-65" transform="translate(1623.730469 0)"/>
     <use xlink:href="#Cambria-Bold-68" transform="translate(1676.806641 0)"/>
     <use xlink:href="#Cambria-Bold-6f" transform="translate(1736.474609 0)"/>
     <use xlink:href="#Cambria-Bold-6c" transform="translate(1793.408203 0)"/>
     <use xlink:href="#Cambria-Bold-64" transform="translate(1824.21875 0)"/>
     <use xlink:href="#Cambria-Bold-65" transform="translate(1883.935547 0)"/>
     <use xlink:href="#Cambria-Bold-72" transform="translate(1937.011719 0)"/>
    </g>
   </g>
  </g>
 </g>
</svg>
