<?xml version="1.0" encoding="utf-8" standalone="no"?>
<!DOCTYPE svg PUBLIC "-//W3C//DTD SVG 1.1//EN"
  "http://www.w3.org/Graphics/SVG/1.1/DTD/svg11.dtd">
<svg xmlns:xlink="http://www.w3.org/1999/xlink" width="640.544055pt" height="421.99375pt" viewBox="0 0 640.544055 421.99375" xmlns="http://www.w3.org/2000/svg" version="1.1">
 <metadata>
  <rdf:RDF xmlns:dc="http://purl.org/dc/elements/1.1/" xmlns:cc="http://creativecommons.org/ns#" xmlns:rdf="http://www.w3.org/1999/02/22-rdf-syntax-ns#">
   <cc:Work>
    <dc:type rdf:resource="http://purl.org/dc/dcmitype/StillImage"/>
    <dc:date>2026-06-29T15:25:27.954137</dc:date>
    <dc:format>image/svg+xml</dc:format>
    <dc:creator>
     <cc:Agent>
      <dc:title>Matplotlib v3.10.9, https://matplotlib.org/</dc:title>
     </cc:Agent>
    </dc:creator>
   </cc:Work>
  </rdf:RDF>
 </metadata>
 <defs>
  <style type="text/css">*{stroke-linejoin: round; stroke-linecap: butt}</style>
 </defs>
 <g id="figure_1">
  <g id="patch_1">
   <path d="M 0 421.99375
L 640.544055 421.99375
L 640.544055 0
L 0 0
z
" style="fill: #ffffff"/>
  </g>
  <g id="axes_1">
   <g id="patch_2">
    <path d="M 47.92375 383.53625
L 633.344055 383.53625
L 633.344055 26.31625
L 47.92375 26.31625
z
" style="fill: #ffffff"/>
   </g>
   <g id="matplotlib.axis_1">
    <g id="xtick_1">
     <g id="line2d_1">
      <path d="M 152.431931 383.53625
L 152.431931 26.31625
" clip-path="url(#pe6eca4bac8)" style="fill: none; stroke: #b0b0b0; stroke-opacity: 0.22; stroke-width: 0.8; stroke-linecap: square"/>
     </g>
     <g id="line2d_2">
      <defs>
       <path id="mce92909158" d="M 0 0
L 0 4
" style="stroke: #000000; stroke-width: 0.8"/>
      </defs>
      <g>
       <use xlink:href="#mce92909158" x="152.431931" y="383.53625" style="stroke: #000000; stroke-width: 0.8"/>
      </g>
     </g>
     <g id="text_1">
      <!-- 0.2 -->
      <g transform="translate(145.86865 398.02375) scale(0.1 -0.1)">
       <defs>
        <path id="Cambria-30" d="M 1738 -50
Q 1063 -50 733 481
Q 403 1013 403 2094
Q 403 2669 504 3087
Q 606 3506 789 3779
Q 972 4053 1228 4184
Q 1484 4316 1788 4316
Q 2472 4316 2806 3787
Q 3141 3259 3141 2191
Q 3141 1084 2783 517
Q 2425 -50 1738 -50
z
M 1013 2188
Q 1013 1169 1202 692
Q 1391 216 1788 216
Q 2166 216 2348 664
Q 2531 1113 2531 2053
Q 2531 2772 2437 3217
Q 2344 3663 2176 3856
Q 2009 4050 1772 4050
Q 1556 4050 1411 3922
Q 1266 3794 1177 3553
Q 1088 3313 1050 2967
Q 1013 2622 1013 2188
z
" transform="scale(0.015625)"/>
        <path id="Cambria-2e" d="M 972 725
L 972 0
L 341 0
L 341 725
L 972 725
z
" transform="scale(0.015625)"/>
        <path id="Cambria-32" d="M 2194 500
Q 2347 500 2440 519
Q 2534 538 2590 581
Q 2647 625 2680 695
Q 2713 766 2763 913
L 3028 913
L 2975 0
L 403 0
L 403 150
Q 538 478 766 822
Q 994 1166 1413 1631
Q 1775 2031 1934 2238
Q 2109 2463 2195 2627
Q 2281 2791 2318 2936
Q 2356 3081 2356 3228
Q 2356 3463 2281 3642
Q 2206 3822 2051 3925
Q 1897 4028 1663 4028
Q 1078 4028 875 3378
L 497 3378
L 497 3978
Q 875 4156 1204 4236
Q 1534 4316 1797 4316
Q 2378 4316 2675 4061
Q 2972 3806 2972 3322
Q 2972 3156 2939 3017
Q 2906 2878 2836 2742
Q 2766 2606 2647 2450
Q 2528 2294 2384 2133
Q 2241 1972 1888 1597
Q 1294 969 1016 500
L 2194 500
z
" transform="scale(0.015625)"/>
       </defs>
       <use xlink:href="#Cambria-30"/>
       <use xlink:href="#Cambria-2e" transform="translate(55.371094 0)"/>
       <use xlink:href="#Cambria-32" transform="translate(75.878906 0)"/>
      </g>
     </g>
    </g>
    <g id="xtick_2">
     <g id="line2d_3">
      <path d="M 277.068998 383.53625
L 277.068998 26.31625
" clip-path="url(#pe6eca4bac8)" style="fill: none; stroke: #b0b0b0; stroke-opacity: 0.22; stroke-width: 0.8; stroke-linecap: square"/>
     </g>
     <g id="line2d_4">
      <g>
       <use xlink:href="#mce92909158" x="277.068998" y="383.53625" style="stroke: #000000; stroke-width: 0.8"/>
      </g>
     </g>
     <g id="text_2">
      <!-- 0.4 -->
      <g transform="translate(270.505717 398.02375) scale(0.1 -0.1)">
       <defs>
        <path id="Cambria-34" d="M 1613 153
Q 1806 203 1872 264
Q 1938 325 1958 437
Q 1978 550 1978 781
L 1978 1294
L 241 1294
L 241 1528
L 2069 4288
L 2516 4288
L 2516 1597
L 2581 1597
Q 2763 1597 2841 1623
Q 2919 1650 2970 1717
Q 3022 1784 3066 1938
L 3303 1938
L 3266 1294
L 2516 1294
L 2516 781
Q 2516 572 2530 475
Q 2544 378 2576 322
Q 2609 266 2673 228
Q 2738 191 2881 153
L 2881 0
L 1613 0
L 1613 153
z
M 756 1597
L 1978 1597
L 1978 2375
Q 1978 2669 1987 3033
Q 1997 3397 2009 3581
L 1978 3581
L 756 1641
L 756 1597
z
" transform="scale(0.015625)"/>
       </defs>
       <use xlink:href="#Cambria-30"/>
       <use xlink:href="#Cambria-2e" transform="translate(55.371094 0)"/>
       <use xlink:href="#Cambria-34" transform="translate(75.878906 0)"/>
      </g>
     </g>
    </g>
    <g id="xtick_3">
     <g id="line2d_5">
      <path d="M 401.706065 383.53625
L 401.706065 26.31625
" clip-path="url(#pe6eca4bac8)" style="fill: none; stroke: #b0b0b0; stroke-opacity: 0.22; stroke-width: 0.8; stroke-linecap: square"/>
     </g>
     <g id="line2d_6">
      <g>
       <use xlink:href="#mce92909158" x="401.706065" y="383.53625" style="stroke: #000000; stroke-width: 0.8"/>
      </g>
     </g>
     <g id="text_3">
      <!-- 0.6 -->
      <g transform="translate(395.142784 398.02375) scale(0.1 -0.1)">
       <defs>
        <path id="Cambria-36" d="M 2847 4144
L 2847 3991
Q 2366 3991 1994 3784
Q 1622 3578 1376 3178
Q 1131 2778 1031 2228
L 1063 2216
Q 1325 2403 1579 2490
Q 1834 2578 2131 2578
Q 2484 2578 2732 2423
Q 2981 2269 3106 1989
Q 3231 1709 3231 1334
Q 3231 928 3075 617
Q 2919 306 2592 128
Q 2266 -50 1788 -50
Q 1103 -50 754 375
Q 406 800 406 1628
Q 406 2184 581 2668
Q 756 3153 1078 3514
Q 1400 3875 1825 4083
Q 2250 4291 2719 4316
L 2847 4144
z
M 1916 2250
Q 1763 2250 1620 2215
Q 1478 2181 1353 2115
Q 1228 2050 1109 1950
Q 1072 1916 1053 1878
Q 1022 1819 1012 1731
Q 1003 1644 1003 1438
Q 1003 841 1203 528
Q 1403 216 1809 216
Q 2044 216 2203 297
Q 2363 378 2461 520
Q 2559 663 2601 855
Q 2644 1047 2644 1272
Q 2644 1734 2453 1992
Q 2263 2250 1916 2250
z
" transform="scale(0.015625)"/>
       </defs>
       <use xlink:href="#Cambria-30"/>
       <use xlink:href="#Cambria-2e" transform="translate(55.371094 0)"/>
       <use xlink:href="#Cambria-36" transform="translate(75.878906 0)"/>
      </g>
     </g>
    </g>
    <g id="xtick_4">
     <g id="line2d_7">
      <path d="M 526.343133 383.53625
L 526.343133 26.31625
" clip-path="url(#pe6eca4bac8)" style="fill: none; stroke: #b0b0b0; stroke-opacity: 0.22; stroke-width: 0.8; stroke-linecap: square"/>
     </g>
     <g id="line2d_8">
      <g>
       <use xlink:href="#mce92909158" x="526.343133" y="383.53625" style="stroke: #000000; stroke-width: 0.8"/>
      </g>
     </g>
     <g id="text_4">
      <!-- 0.8 -->
      <g transform="translate(519.779851 398.02375) scale(0.1 -0.1)">
       <defs>
        <path id="Cambria-38" d="M 2475 2253
L 2481 2213
Q 2834 2075 3015 1811
Q 3197 1547 3197 1175
Q 3197 809 3022 531
Q 2847 253 2514 101
Q 2181 -50 1738 -50
Q 1322 -50 1008 89
Q 694 228 520 495
Q 347 763 347 1125
Q 347 1397 440 1597
Q 534 1797 686 1926
Q 838 2056 1069 2163
L 1063 2203
Q 391 2494 391 3200
Q 391 3522 567 3775
Q 744 4028 1070 4172
Q 1397 4316 1794 4316
Q 2244 4316 2550 4189
Q 2856 4063 3011 3823
Q 3166 3584 3166 3250
Q 3166 2906 2997 2657
Q 2828 2409 2475 2253
z
M 978 3228
Q 978 3044 1022 2881
Q 1066 2719 1162 2600
Q 1259 2481 1414 2411
Q 1569 2341 1794 2341
Q 2053 2341 2229 2442
Q 2406 2544 2492 2739
Q 2578 2934 2578 3191
Q 2578 3472 2476 3667
Q 2375 3863 2197 3956
Q 2019 4050 1788 4050
Q 1394 4050 1186 3836
Q 978 3622 978 3228
z
M 944 1178
Q 944 975 991 798
Q 1038 622 1139 494
Q 1241 366 1400 291
Q 1559 216 1788 216
Q 2044 216 2226 320
Q 2409 425 2504 631
Q 2600 838 2600 1119
Q 2600 1419 2497 1636
Q 2394 1853 2206 1967
Q 2019 2081 1772 2081
Q 1541 2081 1383 2009
Q 1225 1938 1126 1816
Q 1028 1694 986 1530
Q 944 1366 944 1178
z
" transform="scale(0.015625)"/>
       </defs>
       <use xlink:href="#Cambria-30"/>
       <use xlink:href="#Cambria-2e" transform="translate(55.371094 0)"/>
       <use xlink:href="#Cambria-38" transform="translate(75.878906 0)"/>
      </g>
     </g>
    </g>
    <g id="text_5">
     <!-- $CO_2$ loading, mol $CO_2$/mol MEA -->
     <g transform="translate(263.083902 412.37375) scale(0.11 -0.11)">
      <defs>
       <path id="DejaVuSerif-Italic-43" d="M 4300 1234
Q 3966 581 3414 245
Q 2863 -91 2119 -91
Q 1663 -91 1303 65
Q 944 222 700 525
Q 419 875 334 1320
Q 250 1766 359 2328
Q 572 3416 1330 4083
Q 2088 4750 3116 4750
Q 3497 4750 3908 4650
Q 4319 4550 4775 4347
L 4569 3272
L 4216 3272
Q 4213 3859 3919 4137
Q 3625 4416 2997 4416
Q 2250 4416 1762 3886
Q 1275 3356 1075 2328
Q 875 1303 1156 773
Q 1438 244 2184 244
Q 2706 244 3092 492
Q 3478 741 3725 1234
L 4300 1234
z
" transform="scale(0.015625)"/>
       <path id="DejaVuSerif-Italic-4f" d="M 2219 244
Q 2984 244 3478 770
Q 3972 1297 4172 2328
Q 4372 3363 4084 3889
Q 3797 4416 3031 4416
Q 2263 4416 1769 3889
Q 1275 3363 1075 2328
Q 875 1297 1162 770
Q 1450 244 2219 244
z
M 2153 -91
Q 1678 -91 1311 65
Q 944 222 700 525
Q 419 875 334 1319
Q 250 1763 359 2328
Q 469 2894 725 3339
Q 981 3784 1400 4134
Q 1766 4441 2191 4595
Q 2616 4750 3097 4750
Q 4113 4750 4608 4084
Q 5103 3419 4891 2328
Q 4781 1769 4522 1320
Q 4263 872 3847 525
Q 3481 219 3056 64
Q 2631 -91 2153 -91
z
" transform="scale(0.015625)"/>
       <path id="DejaVuSerif-32" d="M 819 3553
L 469 3553
L 469 4384
Q 803 4563 1142 4656
Q 1481 4750 1806 4750
Q 2534 4750 2956 4397
Q 3378 4044 3378 3438
Q 3378 2753 2422 1800
Q 2347 1728 2309 1691
L 1131 513
L 3078 513
L 3078 1088
L 3444 1088
L 3444 0
L 434 0
L 434 341
L 1850 1753
Q 2319 2222 2519 2614
Q 2719 3006 2719 3438
Q 2719 3909 2473 4175
Q 2228 4441 1797 4441
Q 1350 4441 1106 4219
Q 863 3997 819 3553
z
" transform="scale(0.015625)"/>
       <path id="Cambria-20" transform="scale(0.015625)"/>
       <path id="Cambria-6c" d="M 1138 781
Q 1138 513 1163 408
Q 1188 303 1258 248
Q 1328 194 1488 153
L 1488 0
L 247 0
L 247 153
Q 403 194 464 237
Q 525 281 551 342
Q 578 403 589 508
Q 600 613 600 781
L 600 3397
Q 600 3697 595 3815
Q 591 3934 570 4017
Q 550 4100 514 4147
Q 478 4194 417 4222
Q 356 4250 197 4278
L 197 4441
L 950 4472
L 1138 4472
L 1138 781
z
" transform="scale(0.015625)"/>
       <path id="Cambria-6f" d="M 1663 -50
Q 1013 -50 670 333
Q 328 716 328 1466
Q 328 1981 508 2337
Q 688 2694 1000 2867
Q 1313 3041 1713 3041
Q 2381 3041 2725 2652
Q 3069 2263 3069 1534
Q 3069 1016 2897 659
Q 2725 303 2409 126
Q 2094 -50 1663 -50
z
M 919 1531
Q 919 888 1123 542
Q 1328 197 1709 197
Q 1919 197 2066 298
Q 2213 400 2305 572
Q 2397 744 2437 970
Q 2478 1197 2478 1444
Q 2478 1903 2376 2206
Q 2275 2509 2100 2651
Q 1925 2794 1700 2794
Q 1322 2794 1120 2466
Q 919 2138 919 1531
z
" transform="scale(0.015625)"/>
       <path id="Cambria-61" d="M 2109 447
L 2063 459
Q 1791 181 1552 65
Q 1313 -50 1044 -50
Q 806 -50 625 42
Q 444 134 347 301
Q 250 469 250 688
Q 250 1144 701 1392
Q 1153 1641 2056 1681
L 2056 1884
Q 2056 2209 1993 2396
Q 1931 2584 1797 2671
Q 1663 2759 1438 2759
Q 1194 2759 1045 2631
Q 897 2503 822 2247
L 413 2247
L 413 2653
Q 713 2809 913 2882
Q 1113 2956 1313 2998
Q 1513 3041 1719 3041
Q 2028 3041 2215 2942
Q 2403 2844 2497 2641
Q 2591 2438 2591 2028
L 2591 941
Q 2591 709 2594 614
Q 2597 519 2612 437
Q 2628 356 2659 307
Q 2691 259 2752 225
Q 2813 191 2950 153
L 2950 0
L 2094 0
L 2109 447
z
M 2056 1425
Q 1422 1419 1106 1256
Q 791 1094 791 766
Q 791 588 862 484
Q 934 381 1043 342
Q 1153 303 1303 303
Q 1516 303 1689 406
Q 1863 509 1959 668
Q 2056 828 2056 984
L 2056 1425
z
" transform="scale(0.015625)"/>
       <path id="Cambria-64" d="M 2413 3397
Q 2413 3697 2408 3815
Q 2403 3934 2383 4017
Q 2363 4100 2327 4147
Q 2291 4194 2230 4222
Q 2169 4250 2009 4278
L 2009 4441
L 2766 4472
L 2950 4472
L 2950 853
Q 2950 609 2959 504
Q 2969 400 3000 337
Q 3031 275 3098 236
Q 3166 197 3334 163
L 3334 0
L 2597 -31
L 2409 -31
L 2447 481
L 2400 494
Q 2203 284 2058 179
Q 1913 75 1748 12
Q 1584 -50 1397 -50
Q 884 -50 606 339
Q 328 728 328 1463
Q 328 1975 509 2333
Q 691 2691 998 2866
Q 1306 3041 1691 3041
Q 1897 3041 2065 3008
Q 2234 2975 2413 2900
L 2413 3397
z
M 2413 1853
Q 2413 2097 2391 2244
Q 2369 2391 2317 2491
Q 2266 2591 2178 2659
Q 2091 2728 1986 2759
Q 1881 2791 1734 2791
Q 1334 2791 1125 2470
Q 916 2150 916 1550
Q 916 950 1087 637
Q 1259 325 1609 325
Q 1747 325 1837 348
Q 1928 372 2015 423
Q 2103 475 2193 565
Q 2284 656 2326 731
Q 2369 806 2391 903
Q 2413 1000 2413 1153
L 2413 1853
z
" transform="scale(0.015625)"/>
       <path id="Cambria-69" d="M 1197 4213
L 1197 3606
L 622 3606
L 622 4213
L 1197 4213
z
M 303 153
Q 425 191 476 219
Q 528 247 564 297
Q 600 347 620 450
Q 641 553 641 772
L 641 2134
Q 641 2334 634 2456
Q 628 2578 590 2651
Q 553 2725 476 2761
Q 400 2797 259 2822
L 259 2988
L 988 3016
L 1178 3016
L 1178 781
Q 1178 513 1203 408
Q 1228 303 1298 248
Q 1369 194 1528 153
L 1528 0
L 303 0
L 303 153
z
" transform="scale(0.015625)"/>
       <path id="Cambria-6e" d="M 3347 0
L 2116 0
L 2116 153
Q 2238 191 2291 219
Q 2344 247 2380 297
Q 2416 347 2436 451
Q 2456 556 2456 769
L 2456 1588
Q 2456 1806 2443 1984
Q 2431 2163 2401 2277
Q 2372 2391 2330 2455
Q 2288 2519 2230 2564
Q 2172 2609 2097 2636
Q 2022 2663 1900 2663
Q 1778 2663 1668 2614
Q 1559 2566 1428 2447
Q 1297 2328 1237 2212
Q 1178 2097 1178 1947
L 1178 781
Q 1178 513 1203 408
Q 1228 303 1298 248
Q 1369 194 1528 153
L 1528 0
L 303 0
L 303 153
Q 425 191 476 219
Q 528 247 564 297
Q 600 347 620 450
Q 641 553 641 772
L 641 2134
Q 641 2334 634 2456
Q 628 2578 590 2651
Q 553 2725 476 2761
Q 400 2797 259 2822
L 259 2988
L 991 3016
L 1181 3016
L 1147 2506
L 1191 2494
Q 1422 2728 1564 2828
Q 1706 2928 1851 2983
Q 1997 3038 2159 3038
Q 2328 3038 2461 2998
Q 2594 2959 2695 2878
Q 2797 2797 2862 2676
Q 2928 2556 2961 2387
Q 2994 2219 2994 1959
L 2994 781
Q 2994 566 3006 469
Q 3019 372 3050 319
Q 3081 266 3140 230
Q 3200 194 3347 153
L 3347 0
z
" transform="scale(0.015625)"/>
       <path id="Cambria-67" d="M 3106 2672
L 2528 2694
L 2500 2659
Q 2597 2563 2653 2395
Q 2709 2228 2709 2034
Q 2709 1525 2395 1248
Q 2081 972 1503 972
Q 1244 972 1056 1038
Q 819 856 819 681
Q 819 566 864 506
Q 909 447 1014 422
Q 1119 397 1331 397
L 2081 397
Q 2413 397 2622 294
Q 2831 191 2920 17
Q 3009 -156 3009 -388
Q 3009 -681 2840 -911
Q 2672 -1141 2353 -1269
Q 2034 -1397 1609 -1397
Q 1294 -1397 1033 -1359
Q 772 -1322 586 -1233
Q 400 -1144 298 -998
Q 197 -853 197 -634
Q 197 -438 328 -277
Q 459 -116 700 6
Q 553 66 468 181
Q 384 297 384 453
Q 384 631 484 779
Q 584 928 838 1119
Q 613 1250 495 1475
Q 378 1700 378 1988
Q 378 2256 467 2454
Q 556 2653 714 2783
Q 872 2913 1087 2977
Q 1303 3041 1553 3041
Q 1778 3041 2000 2988
L 3106 2988
L 3106 2672
z
M 938 2038
Q 938 1647 1097 1434
Q 1256 1222 1556 1222
Q 1716 1222 1828 1283
Q 1941 1344 2011 1450
Q 2081 1556 2114 1695
Q 2147 1834 2147 1988
Q 2147 2263 2069 2447
Q 1991 2631 1856 2717
Q 1722 2803 1547 2803
Q 1250 2803 1094 2606
Q 938 2409 938 2038
z
M 1016 -50
Q 856 -169 776 -301
Q 697 -434 697 -603
Q 697 -884 920 -1017
Q 1144 -1150 1603 -1150
Q 1884 -1150 2086 -1075
Q 2288 -1000 2394 -859
Q 2500 -719 2500 -531
Q 2500 -444 2478 -361
Q 2456 -278 2395 -212
Q 2334 -147 2221 -108
Q 2109 -69 1928 -69
L 1463 -69
Q 1209 -69 1016 -50
z
" transform="scale(0.015625)"/>
       <path id="Cambria-2c" d="M 966 725
Q 1009 506 1009 294
Q 1009 75 934 -106
Q 859 -288 695 -467
Q 531 -647 244 -863
L 75 -672
Q 234 -522 306 -401
Q 378 -281 409 -128
Q 441 25 441 256
Q 441 494 419 725
L 966 725
z
" transform="scale(0.015625)"/>
       <path id="Cambria-6d" d="M 1147 2506
L 1191 2494
Q 1378 2681 1498 2776
Q 1619 2872 1731 2930
Q 1844 2988 1942 3013
Q 2041 3038 2144 3038
Q 2456 3038 2653 2894
Q 2850 2750 2925 2453
Q 3159 2691 3304 2803
Q 3450 2916 3601 2977
Q 3753 3038 3928 3038
Q 4138 3038 4289 2977
Q 4441 2916 4545 2789
Q 4650 2663 4698 2472
Q 4747 2281 4747 1959
L 4747 781
Q 4747 544 4762 453
Q 4778 363 4808 313
Q 4838 263 4897 227
Q 4956 191 5097 153
L 5097 0
L 3869 0
L 3869 153
Q 3991 191 4044 219
Q 4097 247 4133 297
Q 4169 347 4189 451
Q 4209 556 4209 769
L 4209 1588
Q 4209 1853 4195 2026
Q 4181 2200 4151 2303
Q 4122 2406 4080 2465
Q 4038 2525 3984 2569
Q 3931 2613 3859 2638
Q 3788 2663 3669 2663
Q 3544 2663 3436 2613
Q 3328 2563 3201 2444
Q 3075 2325 3019 2204
Q 2963 2084 2963 1922
L 2963 781
Q 2963 544 2978 453
Q 2994 363 3023 313
Q 3053 263 3112 227
Q 3172 191 3313 153
L 3313 0
L 2084 0
L 2084 153
Q 2206 191 2259 219
Q 2313 247 2348 297
Q 2384 347 2404 451
Q 2425 556 2425 769
L 2425 1588
Q 2425 1866 2409 2041
Q 2394 2216 2361 2322
Q 2328 2428 2276 2493
Q 2225 2559 2172 2593
Q 2119 2628 2047 2645
Q 1975 2663 1884 2663
Q 1756 2663 1643 2605
Q 1531 2547 1414 2437
Q 1297 2328 1237 2209
Q 1178 2091 1178 1953
L 1178 781
Q 1178 603 1187 509
Q 1197 416 1217 362
Q 1238 309 1269 276
Q 1300 244 1358 214
Q 1416 184 1531 153
L 1531 0
L 306 0
L 306 153
Q 425 191 476 219
Q 528 247 565 297
Q 603 347 622 450
Q 641 553 641 772
L 641 2134
Q 641 2334 634 2456
Q 628 2578 590 2651
Q 553 2725 476 2761
Q 400 2797 259 2822
L 259 2988
L 991 3016
L 1181 3016
L 1147 2506
z
" transform="scale(0.015625)"/>
       <path id="Cambria-2f" d="M 2941 4472
L 684 -1344
L 194 -1344
L 2456 4472
L 2941 4472
z
" transform="scale(0.015625)"/>
       <path id="Cambria-4d" d="M 4841 4113
Q 4703 4078 4642 4043
Q 4581 4009 4545 3957
Q 4509 3906 4492 3803
Q 4475 3700 4475 3484
L 4475 781
Q 4475 572 4489 475
Q 4503 378 4536 322
Q 4569 266 4633 228
Q 4697 191 4841 153
L 4841 0
L 3538 0
L 3538 153
Q 3716 197 3784 253
Q 3853 309 3878 418
Q 3903 528 3903 781
L 3903 1978
Q 3903 2450 3917 2933
Q 3931 3416 3950 3594
L 3897 3594
L 2659 497
L 2300 497
L 1150 3644
L 1097 3644
Q 1113 3453 1127 2953
Q 1141 2453 1141 1925
L 1141 781
Q 1141 572 1155 475
Q 1169 378 1201 322
Q 1234 266 1298 228
Q 1363 191 1506 153
L 1506 0
L 366 0
L 366 153
Q 559 203 625 264
Q 691 325 711 437
Q 731 550 731 781
L 731 3484
Q 731 3700 715 3798
Q 700 3897 664 3951
Q 628 4006 568 4039
Q 509 4072 366 4113
L 366 4266
L 1481 4266
L 2578 1225
L 3784 4266
L 4841 4266
L 4841 4113
z
" transform="scale(0.015625)"/>
       <path id="Cambria-45" d="M 3300 4266
L 3300 3322
L 2994 3322
Q 2947 3475 2897 3590
Q 2847 3706 2794 3784
Q 2741 3863 2677 3909
Q 2613 3956 2525 3973
Q 2438 3991 2316 3991
L 1328 3991
L 1328 2353
L 1997 2353
Q 2134 2353 2212 2392
Q 2291 2431 2342 2525
Q 2394 2619 2441 2819
L 2734 2819
L 2734 1619
L 2441 1619
Q 2397 1806 2344 1901
Q 2291 1997 2217 2037
Q 2144 2078 1997 2078
L 1328 2078
L 1328 275
L 2300 275
Q 2453 275 2548 301
Q 2644 328 2712 392
Q 2781 456 2834 559
Q 2888 663 2923 773
Q 2959 884 3022 1097
L 3331 1097
L 3272 0
L 378 0
L 378 153
Q 572 203 637 264
Q 703 325 723 437
Q 744 550 744 781
L 744 3484
Q 744 3700 728 3798
Q 713 3897 677 3951
Q 641 4006 581 4039
Q 522 4072 378 4113
L 378 4266
L 3300 4266
z
" transform="scale(0.015625)"/>
       <path id="Cambria-41" d="M 2488 0
L 2488 153
Q 2644 184 2720 221
Q 2797 259 2834 326
Q 2872 394 2872 506
Q 2872 613 2847 736
Q 2822 859 2775 1013
L 2659 1416
L 1203 1416
L 1097 1109
Q 1016 878 991 759
Q 966 641 966 544
Q 966 356 1061 268
Q 1156 181 1353 153
L 1353 0
L 19 0
L 19 153
Q 194 181 323 356
Q 453 531 575 856
L 1878 4316
L 2372 4316
L 3434 831
Q 3509 588 3567 459
Q 3625 331 3706 259
Q 3788 188 3928 153
L 3928 0
L 2488 0
z
M 1288 1688
L 2594 1688
L 2000 3703
L 1288 1688
z
" transform="scale(0.015625)"/>
      </defs>
      <use xlink:href="#DejaVuSerif-Italic-43" transform="translate(0 0.78125)"/>
      <use xlink:href="#DejaVuSerif-Italic-4f" transform="translate(76.513672 0.78125)"/>
      <use xlink:href="#DejaVuSerif-32" transform="translate(158.496094 -14.790625) scale(0.7)"/>
      <use xlink:href="#Cambria-20" transform="translate(205.627539 0.78125)"/>
      <use xlink:href="#Cambria-6c" transform="translate(225.274023 0.78125)"/>
      <use xlink:href="#Cambria-6f" transform="translate(252.422461 0.78125)"/>
      <use xlink:href="#Cambria-61" transform="translate(305.498633 0.78125)"/>
      <use xlink:href="#Cambria-64" transform="translate(354.326758 0.78125)"/>
      <use xlink:href="#Cambria-69" transform="translate(409.795508 0.78125)"/>
      <use xlink:href="#Cambria-6e" transform="translate(437.578711 0.78125)"/>
      <use xlink:href="#Cambria-67" transform="translate(493.389258 0.78125)"/>
      <use xlink:href="#Cambria-2c" transform="translate(542.80332 0.78125)"/>
      <use xlink:href="#Cambria-20" transform="translate(563.311133 0.78125)"/>
      <use xlink:href="#Cambria-6d" transform="translate(582.957617 0.78125)"/>
      <use xlink:href="#Cambria-6f" transform="translate(666.160742 0.78125)"/>
      <use xlink:href="#Cambria-6c" transform="translate(719.236914 0.78125)"/>
      <use xlink:href="#Cambria-20" transform="translate(746.385352 0.78125)"/>
      <use xlink:href="#DejaVuSerif-Italic-43" transform="translate(768.406836 0.78125)"/>
      <use xlink:href="#DejaVuSerif-Italic-4f" transform="translate(844.920508 0.78125)"/>
      <use xlink:href="#DejaVuSerif-32" transform="translate(926.90293 -14.790625) scale(0.7)"/>
      <use xlink:href="#Cambria-2f" transform="translate(974.034375 0.78125)"/>
      <use xlink:href="#Cambria-6d" transform="translate(1023.057812 0.78125)"/>
      <use xlink:href="#Cambria-6f" transform="translate(1106.260937 0.78125)"/>
      <use xlink:href="#Cambria-6c" transform="translate(1159.337109 0.78125)"/>
      <use xlink:href="#Cambria-20" transform="translate(1186.485547 0.78125)"/>
      <use xlink:href="#Cambria-4d" transform="translate(1208.507031 0.78125)"/>
      <use xlink:href="#Cambria-45" transform="translate(1290.05 0.78125)"/>
      <use xlink:href="#Cambria-41" transform="translate(1347.569531 0.78125)"/>
     </g>
    </g>
   </g>
   <g id="matplotlib.axis_2">
    <g id="ytick_1">
     <g id="line2d_9">
      <path d="M 47.92375 383.53625
L 633.344055 383.53625
" clip-path="url(#pe6eca4bac8)" style="fill: none; stroke: #b0b0b0; stroke-opacity: 0.22; stroke-width: 0.8; stroke-linecap: square"/>
     </g>
     <g id="line2d_10">
      <defs>
       <path id="m5f94f3c027" d="M 0 0
L -4 0
" style="stroke: #000000; stroke-width: 0.8"/>
      </defs>
      <g>
       <use xlink:href="#m5f94f3c027" x="47.92375" y="383.53625" style="stroke: #000000; stroke-width: 0.8"/>
      </g>
     </g>
     <g id="text_6">
      <!-- $\mathdefault{10^{-5}}$ -->
      <g transform="translate(21.22375 387.03) scale(0.1 -0.1)">
       <defs>
        <path id="Cambria-31" d="M 2172 816
Q 2172 634 2192 542
Q 2213 450 2264 392
Q 2316 334 2412 301
Q 2509 269 2656 251
Q 2803 234 3044 228
L 3044 0
L 734 0
L 734 228
Q 1081 244 1229 270
Q 1378 297 1456 350
Q 1534 403 1570 500
Q 1606 597 1606 816
L 1606 3350
Q 1606 3475 1562 3533
Q 1519 3591 1434 3591
Q 1334 3591 1150 3487
Q 966 3384 694 3203
L 556 3444
L 2019 4316
L 2191 4316
Q 2172 4016 2172 3484
L 2172 816
z
" transform="scale(0.015625)"/>
        <path id="Cambria-2212" d="M 397 1613
L 397 2047
L 3147 2047
L 3147 1613
L 397 1613
z
" transform="scale(0.015625)"/>
        <path id="Cambria-35" d="M 469 172
L 469 834
L 847 834
Q 941 516 1130 366
Q 1319 216 1619 216
Q 2034 216 2246 466
Q 2459 716 2459 1213
Q 2459 1544 2346 1761
Q 2234 1978 2043 2075
Q 1853 2172 1600 2172
Q 1388 2172 1234 2145
Q 1081 2119 906 2063
L 656 2209
L 656 4266
L 2378 4266
Q 2484 4266 2531 4283
Q 2578 4300 2606 4336
Q 2634 4372 2672 4472
L 2916 4472
L 2869 3747
L 1072 3747
L 1072 2375
Q 1234 2444 1425 2478
Q 1616 2513 1806 2513
Q 2178 2513 2465 2361
Q 2753 2209 2909 1929
Q 3066 1650 3066 1281
Q 3066 863 2891 563
Q 2716 263 2384 106
Q 2053 -50 1600 -50
Q 1059 -50 469 172
z
" transform="scale(0.015625)"/>
       </defs>
       <use xlink:href="#Cambria-31" transform="translate(0 0.40625)"/>
       <use xlink:href="#Cambria-30" transform="translate(55.371094 0.40625)"/>
       <use xlink:href="#Cambria-2212" transform="translate(111.559219 33.0875) scale(0.7)"/>
       <use xlink:href="#Cambria-35" transform="translate(150.318984 33.0875) scale(0.7)"/>
      </g>
     </g>
    </g>
    <g id="ytick_2">
     <g id="line2d_11">
      <path d="M 47.92375 303.748373
L 633.344055 303.748373
" clip-path="url(#pe6eca4bac8)" style="fill: none; stroke: #b0b0b0; stroke-opacity: 0.22; stroke-width: 0.8; stroke-linecap: square"/>
     </g>
     <g id="line2d_12">
      <g>
       <use xlink:href="#m5f94f3c027" x="47.92375" y="303.748373" style="stroke: #000000; stroke-width: 0.8"/>
      </g>
     </g>
     <g id="text_7">
      <!-- $\mathdefault{10^{-4}}$ -->
      <g transform="translate(21.22375 307.242123) scale(0.1 -0.1)">
       <use xlink:href="#Cambria-31" transform="translate(0 0.41875)"/>
       <use xlink:href="#Cambria-30" transform="translate(55.371094 0.41875)"/>
       <use xlink:href="#Cambria-2212" transform="translate(111.559219 33.1) scale(0.7)"/>
       <use xlink:href="#Cambria-34" transform="translate(150.318984 33.1) scale(0.7)"/>
      </g>
     </g>
    </g>
    <g id="ytick_3">
     <g id="line2d_13">
      <path d="M 47.92375 223.960496
L 633.344055 223.960496
" clip-path="url(#pe6eca4bac8)" style="fill: none; stroke: #b0b0b0; stroke-opacity: 0.22; stroke-width: 0.8; stroke-linecap: square"/>
     </g>
     <g id="line2d_14">
      <g>
       <use xlink:href="#m5f94f3c027" x="47.92375" y="223.960496" style="stroke: #000000; stroke-width: 0.8"/>
      </g>
     </g>
     <g id="text_8">
      <!-- $\mathdefault{10^{-3}}$ -->
      <g transform="translate(21.22375 227.454246) scale(0.1 -0.1)">
       <defs>
        <path id="Cambria-33" d="M 497 3381
L 497 3975
Q 859 4147 1175 4231
Q 1491 4316 1784 4316
Q 2138 4316 2403 4206
Q 2669 4097 2809 3892
Q 2950 3688 2950 3403
Q 2950 3138 2844 2936
Q 2738 2734 2545 2584
Q 2353 2434 2047 2291
L 2047 2263
Q 2238 2228 2414 2145
Q 2591 2063 2728 1931
Q 2866 1800 2948 1617
Q 3031 1434 3031 1200
Q 3031 838 2873 556
Q 2716 275 2391 112
Q 2066 -50 1600 -50
Q 1331 -50 1020 11
Q 709 72 450 172
L 450 834
L 825 834
Q 934 509 1114 362
Q 1294 216 1603 216
Q 2009 216 2217 437
Q 2425 659 2425 1094
Q 2425 1550 2150 1790
Q 1875 2031 1344 2031
L 1063 2031
L 1063 2306
Q 1484 2331 1773 2468
Q 2063 2606 2203 2822
Q 2344 3038 2344 3306
Q 2344 3653 2159 3840
Q 1975 4028 1622 4028
Q 1328 4028 1143 3868
Q 959 3709 872 3381
L 497 3381
z
" transform="scale(0.015625)"/>
       </defs>
       <use xlink:href="#Cambria-31" transform="translate(0 0.1125)"/>
       <use xlink:href="#Cambria-30" transform="translate(55.371094 0.1125)"/>
       <use xlink:href="#Cambria-2212" transform="translate(111.559219 32.79375) scale(0.7)"/>
       <use xlink:href="#Cambria-33" transform="translate(150.318984 32.79375) scale(0.7)"/>
      </g>
     </g>
    </g>
    <g id="ytick_4">
     <g id="line2d_15">
      <path d="M 47.92375 144.172619
L 633.344055 144.172619
" clip-path="url(#pe6eca4bac8)" style="fill: none; stroke: #b0b0b0; stroke-opacity: 0.22; stroke-width: 0.8; stroke-linecap: square"/>
     </g>
     <g id="line2d_16">
      <g>
       <use xlink:href="#m5f94f3c027" x="47.92375" y="144.172619" style="stroke: #000000; stroke-width: 0.8"/>
      </g>
     </g>
     <g id="text_9">
      <!-- $\mathdefault{10^{-2}}$ -->
      <g transform="translate(21.22375 147.666369) scale(0.1 -0.1)">
       <use xlink:href="#Cambria-31" transform="translate(0 0.1125)"/>
       <use xlink:href="#Cambria-30" transform="translate(55.371094 0.1125)"/>
       <use xlink:href="#Cambria-2212" transform="translate(111.559219 32.79375) scale(0.7)"/>
       <use xlink:href="#Cambria-32" transform="translate(150.318984 32.79375) scale(0.7)"/>
      </g>
     </g>
    </g>
    <g id="ytick_5">
     <g id="line2d_17">
      <path d="M 47.92375 64.384742
L 633.344055 64.384742
" clip-path="url(#pe6eca4bac8)" style="fill: none; stroke: #b0b0b0; stroke-opacity: 0.22; stroke-width: 0.8; stroke-linecap: square"/>
     </g>
     <g id="line2d_18">
      <g>
       <use xlink:href="#m5f94f3c027" x="47.92375" y="64.384742" style="stroke: #000000; stroke-width: 0.8"/>
      </g>
     </g>
     <g id="text_10">
      <!-- $\mathdefault{10^{-1}}$ -->
      <g transform="translate(21.22375 67.878492) scale(0.1 -0.1)">
       <use xlink:href="#Cambria-31" transform="translate(0 0.1125)"/>
       <use xlink:href="#Cambria-30" transform="translate(55.371094 0.1125)"/>
       <use xlink:href="#Cambria-2212" transform="translate(111.559219 32.79375) scale(0.7)"/>
       <use xlink:href="#Cambria-31" transform="translate(150.318984 32.79375) scale(0.7)"/>
      </g>
     </g>
    </g>
    <g id="ytick_6">
     <g id="line2d_19">
      <defs>
       <path id="m2007c1e9f1" d="M 0 0
L -2 0
" style="stroke: #000000; stroke-width: 0.6"/>
      </defs>
      <g>
       <use xlink:href="#m2007c1e9f1" x="47.92375" y="359.517706" style="stroke: #000000; stroke-width: 0.6"/>
      </g>
     </g>
    </g>
    <g id="ytick_7">
     <g id="line2d_20">
      <g>
       <use xlink:href="#m2007c1e9f1" x="47.92375" y="345.467758" style="stroke: #000000; stroke-width: 0.6"/>
      </g>
     </g>
    </g>
    <g id="ytick_8">
     <g id="line2d_21">
      <g>
       <use xlink:href="#m2007c1e9f1" x="47.92375" y="335.499161" style="stroke: #000000; stroke-width: 0.6"/>
      </g>
     </g>
    </g>
    <g id="ytick_9">
     <g id="line2d_22">
      <g>
       <use xlink:href="#m2007c1e9f1" x="47.92375" y="327.766917" style="stroke: #000000; stroke-width: 0.6"/>
      </g>
     </g>
    </g>
    <g id="ytick_10">
     <g id="line2d_23">
      <g>
       <use xlink:href="#m2007c1e9f1" x="47.92375" y="321.449214" style="stroke: #000000; stroke-width: 0.6"/>
      </g>
     </g>
    </g>
    <g id="ytick_11">
     <g id="line2d_24">
      <g>
       <use xlink:href="#m2007c1e9f1" x="47.92375" y="316.107672" style="stroke: #000000; stroke-width: 0.6"/>
      </g>
     </g>
    </g>
    <g id="ytick_12">
     <g id="line2d_25">
      <g>
       <use xlink:href="#m2007c1e9f1" x="47.92375" y="311.480617" style="stroke: #000000; stroke-width: 0.6"/>
      </g>
     </g>
    </g>
    <g id="ytick_13">
     <g id="line2d_26">
      <g>
       <use xlink:href="#m2007c1e9f1" x="47.92375" y="307.399266" style="stroke: #000000; stroke-width: 0.6"/>
      </g>
     </g>
    </g>
    <g id="ytick_14">
     <g id="line2d_27">
      <g>
       <use xlink:href="#m2007c1e9f1" x="47.92375" y="279.729829" style="stroke: #000000; stroke-width: 0.6"/>
      </g>
     </g>
    </g>
    <g id="ytick_15">
     <g id="line2d_28">
      <g>
       <use xlink:href="#m2007c1e9f1" x="47.92375" y="265.679881" style="stroke: #000000; stroke-width: 0.6"/>
      </g>
     </g>
    </g>
    <g id="ytick_16">
     <g id="line2d_29">
      <g>
       <use xlink:href="#m2007c1e9f1" x="47.92375" y="255.711284" style="stroke: #000000; stroke-width: 0.6"/>
      </g>
     </g>
    </g>
    <g id="ytick_17">
     <g id="line2d_30">
      <g>
       <use xlink:href="#m2007c1e9f1" x="47.92375" y="247.97904" style="stroke: #000000; stroke-width: 0.6"/>
      </g>
     </g>
    </g>
    <g id="ytick_18">
     <g id="line2d_31">
      <g>
       <use xlink:href="#m2007c1e9f1" x="47.92375" y="241.661337" style="stroke: #000000; stroke-width: 0.6"/>
      </g>
     </g>
    </g>
    <g id="ytick_19">
     <g id="line2d_32">
      <g>
       <use xlink:href="#m2007c1e9f1" x="47.92375" y="236.319795" style="stroke: #000000; stroke-width: 0.6"/>
      </g>
     </g>
    </g>
    <g id="ytick_20">
     <g id="line2d_33">
      <g>
       <use xlink:href="#m2007c1e9f1" x="47.92375" y="231.69274" style="stroke: #000000; stroke-width: 0.6"/>
      </g>
     </g>
    </g>
    <g id="ytick_21">
     <g id="line2d_34">
      <g>
       <use xlink:href="#m2007c1e9f1" x="47.92375" y="227.611389" style="stroke: #000000; stroke-width: 0.6"/>
      </g>
     </g>
    </g>
    <g id="ytick_22">
     <g id="line2d_35">
      <g>
       <use xlink:href="#m2007c1e9f1" x="47.92375" y="199.941952" style="stroke: #000000; stroke-width: 0.6"/>
      </g>
     </g>
    </g>
    <g id="ytick_23">
     <g id="line2d_36">
      <g>
       <use xlink:href="#m2007c1e9f1" x="47.92375" y="185.892004" style="stroke: #000000; stroke-width: 0.6"/>
      </g>
     </g>
    </g>
    <g id="ytick_24">
     <g id="line2d_37">
      <g>
       <use xlink:href="#m2007c1e9f1" x="47.92375" y="175.923407" style="stroke: #000000; stroke-width: 0.6"/>
      </g>
     </g>
    </g>
    <g id="ytick_25">
     <g id="line2d_38">
      <g>
       <use xlink:href="#m2007c1e9f1" x="47.92375" y="168.191163" style="stroke: #000000; stroke-width: 0.6"/>
      </g>
     </g>
    </g>
    <g id="ytick_26">
     <g id="line2d_39">
      <g>
       <use xlink:href="#m2007c1e9f1" x="47.92375" y="161.87346" style="stroke: #000000; stroke-width: 0.6"/>
      </g>
     </g>
    </g>
    <g id="ytick_27">
     <g id="line2d_40">
      <g>
       <use xlink:href="#m2007c1e9f1" x="47.92375" y="156.531918" style="stroke: #000000; stroke-width: 0.6"/>
      </g>
     </g>
    </g>
    <g id="ytick_28">
     <g id="line2d_41">
      <g>
       <use xlink:href="#m2007c1e9f1" x="47.92375" y="151.904863" style="stroke: #000000; stroke-width: 0.6"/>
      </g>
     </g>
    </g>
    <g id="ytick_29">
     <g id="line2d_42">
      <g>
       <use xlink:href="#m2007c1e9f1" x="47.92375" y="147.823512" style="stroke: #000000; stroke-width: 0.6"/>
      </g>
     </g>
    </g>
    <g id="ytick_30">
     <g id="line2d_43">
      <g>
       <use xlink:href="#m2007c1e9f1" x="47.92375" y="120.154075" style="stroke: #000000; stroke-width: 0.6"/>
      </g>
     </g>
    </g>
    <g id="ytick_31">
     <g id="line2d_44">
      <g>
       <use xlink:href="#m2007c1e9f1" x="47.92375" y="106.104127" style="stroke: #000000; stroke-width: 0.6"/>
      </g>
     </g>
    </g>
    <g id="ytick_32">
     <g id="line2d_45">
      <g>
       <use xlink:href="#m2007c1e9f1" x="47.92375" y="96.13553" style="stroke: #000000; stroke-width: 0.6"/>
      </g>
     </g>
    </g>
    <g id="ytick_33">
     <g id="line2d_46">
      <g>
       <use xlink:href="#m2007c1e9f1" x="47.92375" y="88.403286" style="stroke: #000000; stroke-width: 0.6"/>
      </g>
     </g>
    </g>
    <g id="ytick_34">
     <g id="line2d_47">
      <g>
       <use xlink:href="#m2007c1e9f1" x="47.92375" y="82.085583" style="stroke: #000000; stroke-width: 0.6"/>
      </g>
     </g>
    </g>
    <g id="ytick_35">
     <g id="line2d_48">
      <g>
       <use xlink:href="#m2007c1e9f1" x="47.92375" y="76.744041" style="stroke: #000000; stroke-width: 0.6"/>
      </g>
     </g>
    </g>
    <g id="ytick_36">
     <g id="line2d_49">
      <g>
       <use xlink:href="#m2007c1e9f1" x="47.92375" y="72.116986" style="stroke: #000000; stroke-width: 0.6"/>
      </g>
     </g>
    </g>
    <g id="ytick_37">
     <g id="line2d_50">
      <g>
       <use xlink:href="#m2007c1e9f1" x="47.92375" y="68.035635" style="stroke: #000000; stroke-width: 0.6"/>
      </g>
     </g>
    </g>
    <g id="ytick_38">
     <g id="line2d_51">
      <g>
       <use xlink:href="#m2007c1e9f1" x="47.92375" y="40.366198" style="stroke: #000000; stroke-width: 0.6"/>
      </g>
     </g>
    </g>
    <g id="ytick_39">
     <g id="line2d_52">
      <g>
       <use xlink:href="#m2007c1e9f1" x="47.92375" y="26.31625" style="stroke: #000000; stroke-width: 0.6"/>
      </g>
     </g>
    </g>
    <g id="text_11">
     <!-- True-species mole fraction -->
     <g transform="translate(14.91375 267.449219) rotate(-90) scale(0.11 -0.11)">
      <defs>
       <path id="Cambria-54" d="M 206 4266
L 3588 4266
L 3588 3178
L 3281 3178
Q 3213 3447 3145 3603
Q 3078 3759 3003 3840
Q 2928 3922 2842 3956
Q 2756 3991 2584 3991
L 2188 3991
L 2188 791
Q 2188 606 2208 497
Q 2228 388 2270 323
Q 2313 259 2384 223
Q 2456 188 2609 153
L 2609 0
L 1181 0
L 1181 153
Q 1275 175 1347 200
Q 1419 225 1464 261
Q 1509 297 1539 353
Q 1569 409 1586 506
Q 1603 603 1603 791
L 1603 3991
L 1209 3991
Q 1063 3991 967 3962
Q 872 3934 790 3845
Q 709 3756 642 3592
Q 575 3428 516 3178
L 206 3178
L 206 4266
z
" transform="scale(0.015625)"/>
       <path id="Cambria-72" d="M 1147 2469
L 1191 2459
Q 1363 2669 1509 2789
Q 1656 2909 1826 2975
Q 1997 3041 2213 3041
Q 2394 3041 2541 3022
L 2541 2303
L 2188 2303
Q 2113 2472 2028 2548
Q 1944 2625 1797 2625
Q 1684 2625 1573 2559
Q 1463 2494 1359 2369
Q 1256 2244 1217 2134
Q 1178 2025 1178 1875
L 1178 781
Q 1178 497 1212 389
Q 1247 281 1326 231
Q 1406 181 1566 153
L 1566 0
L 306 0
L 306 153
Q 425 191 476 219
Q 528 247 565 297
Q 603 347 622 450
Q 641 553 641 772
L 641 2134
Q 641 2334 634 2456
Q 628 2578 590 2651
Q 553 2725 476 2761
Q 400 2797 259 2822
L 259 2984
L 991 3016
L 1181 3016
L 1147 2469
z
" transform="scale(0.015625)"/>
       <path id="Cambria-75" d="M 228 2988
L 1119 2988
L 1119 1397
Q 1119 1031 1147 840
Q 1175 650 1231 553
Q 1288 456 1391 390
Q 1494 325 1675 325
Q 1794 325 1903 372
Q 2013 419 2147 536
Q 2281 653 2339 768
Q 2397 884 2397 1038
L 2397 2209
Q 2397 2388 2387 2478
Q 2378 2569 2356 2623
Q 2334 2678 2304 2712
Q 2275 2747 2220 2775
Q 2166 2803 2044 2834
L 2044 2988
L 2934 2988
L 2934 853
Q 2934 613 2943 506
Q 2953 400 2984 337
Q 3016 275 3081 236
Q 3147 197 3316 163
L 3316 0
L 2600 -31
L 2409 -31
L 2428 481
L 2381 494
Q 2122 213 1886 81
Q 1650 -50 1413 -50
Q 1128 -50 943 62
Q 759 175 668 398
Q 578 622 578 1028
L 578 2209
Q 578 2472 558 2570
Q 538 2669 480 2726
Q 422 2784 228 2834
L 228 2988
z
" transform="scale(0.015625)"/>
       <path id="Cambria-65" d="M 2800 531
Q 2600 322 2433 203
Q 2266 84 2066 17
Q 1866 -50 1625 -50
Q 981 -50 653 336
Q 325 722 325 1475
Q 325 1941 492 2297
Q 659 2653 968 2847
Q 1278 3041 1681 3041
Q 1997 3041 2219 2941
Q 2441 2841 2573 2667
Q 2706 2494 2779 2230
Q 2853 1966 2863 1541
L 894 1541
L 894 1484
Q 894 1116 976 864
Q 1059 613 1248 470
Q 1438 328 1741 328
Q 1997 328 2201 423
Q 2406 519 2609 734
L 2800 531
z
M 2275 1800
Q 2256 2138 2190 2352
Q 2125 2566 1994 2680
Q 1863 2794 1650 2794
Q 1328 2794 1136 2536
Q 944 2278 909 1800
L 2275 1800
z
" transform="scale(0.015625)"/>
       <path id="Cambria-2d" d="M 1788 1403
L 338 1403
L 338 1888
L 1788 1888
L 1788 1403
z
" transform="scale(0.015625)"/>
       <path id="Cambria-73" d="M 2397 2303
L 2097 2303
Q 2028 2491 1934 2598
Q 1841 2706 1722 2750
Q 1603 2794 1431 2794
Q 1181 2794 1032 2676
Q 884 2559 884 2356
Q 884 2213 943 2119
Q 1003 2025 1128 1944
Q 1253 1863 1569 1728
Q 1888 1591 2061 1475
Q 2234 1359 2332 1206
Q 2431 1053 2431 841
Q 2431 594 2347 425
Q 2263 256 2109 150
Q 1956 44 1745 -3
Q 1534 -50 1284 -50
Q 1022 -50 775 -11
Q 528 28 294 91
L 294 744
L 600 744
Q 684 456 850 326
Q 1016 197 1306 197
Q 1419 197 1526 220
Q 1634 244 1718 298
Q 1803 353 1853 447
Q 1903 541 1903 681
Q 1903 841 1840 941
Q 1778 1041 1647 1123
Q 1516 1206 1184 1347
Q 900 1466 728 1578
Q 556 1691 457 1844
Q 359 1997 359 2206
Q 359 2463 498 2652
Q 638 2841 900 2941
Q 1163 3041 1516 3041
Q 1722 3041 1914 3020
Q 2106 3000 2397 2941
L 2397 2303
z
" transform="scale(0.015625)"/>
       <path id="Cambria-70" d="M 1150 94
L 1150 -566
Q 1150 -769 1164 -869
Q 1178 -969 1214 -1026
Q 1250 -1084 1317 -1121
Q 1384 -1159 1534 -1191
L 1534 -1344
L 259 -1344
L 259 -1191
Q 372 -1159 442 -1126
Q 513 -1094 550 -1030
Q 588 -966 600 -856
Q 613 -747 613 -566
L 613 2116
Q 613 2341 606 2436
Q 600 2531 581 2593
Q 563 2656 527 2697
Q 491 2738 430 2766
Q 369 2794 228 2822
L 228 2988
L 963 3016
L 1153 3016
L 1113 2506
L 1159 2494
Q 1353 2691 1465 2780
Q 1578 2869 1698 2928
Q 1819 2988 1930 3013
Q 2041 3038 2166 3038
Q 2681 3038 2957 2652
Q 3234 2266 3234 1522
Q 3234 1006 3078 654
Q 2922 303 2623 126
Q 2325 -50 1913 -50
Q 1681 -50 1493 -11
Q 1306 28 1150 94
z
M 1150 1125
Q 1150 825 1187 662
Q 1225 500 1320 398
Q 1416 297 1545 247
Q 1675 197 1888 197
Q 2266 197 2456 511
Q 2647 825 2647 1438
Q 2647 2663 1931 2663
Q 1756 2663 1629 2608
Q 1503 2553 1378 2431
Q 1253 2309 1201 2195
Q 1150 2081 1150 1950
L 1150 1125
z
" transform="scale(0.015625)"/>
       <path id="Cambria-63" d="M 2631 2916
L 2631 2263
L 2234 2263
Q 2181 2466 2103 2583
Q 2025 2700 1922 2747
Q 1819 2794 1666 2794
Q 1447 2794 1278 2653
Q 1109 2513 1011 2225
Q 913 1938 913 1522
Q 913 1256 950 1036
Q 988 816 1078 659
Q 1169 503 1319 415
Q 1469 328 1691 328
Q 1906 328 2092 412
Q 2278 497 2478 709
L 2656 503
Q 2497 328 2375 233
Q 2253 138 2114 73
Q 1975 9 1839 -20
Q 1703 -50 1544 -50
Q 953 -50 640 342
Q 328 734 328 1475
Q 328 1938 503 2295
Q 678 2653 993 2847
Q 1309 3041 1722 3041
Q 1978 3041 2195 3011
Q 2413 2981 2631 2916
z
" transform="scale(0.015625)"/>
       <path id="Cambria-66" d="M 1909 2672
L 1163 2672
L 1163 781
Q 1163 572 1183 465
Q 1203 359 1242 304
Q 1281 250 1345 217
Q 1409 184 1550 153
L 1550 0
L 272 0
L 272 153
Q 409 191 468 225
Q 528 259 561 312
Q 594 366 609 466
Q 625 566 625 781
L 625 2672
L 247 2672
L 247 2831
Q 366 2850 405 2861
Q 444 2872 480 2894
Q 516 2916 542 2956
Q 569 2997 589 3076
Q 609 3156 622 3300
Q 650 3641 745 3853
Q 841 4066 1023 4216
Q 1206 4366 1414 4427
Q 1622 4488 1903 4488
Q 2150 4488 2322 4453
L 2322 3888
L 2013 3888
Q 1953 4072 1873 4148
Q 1794 4225 1650 4225
Q 1547 4225 1476 4197
Q 1406 4169 1347 4109
Q 1288 4050 1245 3950
Q 1203 3850 1183 3701
Q 1163 3553 1163 3316
L 1163 2988
L 1909 2988
L 1909 2672
z
" transform="scale(0.015625)"/>
       <path id="Cambria-74" d="M 116 2831
Q 272 2856 369 2918
Q 466 2981 520 3079
Q 575 3178 606 3326
Q 638 3475 672 3759
L 1116 3759
L 1116 2988
L 2125 2988
L 2125 2672
L 1116 2672
L 1116 1281
Q 1116 978 1141 798
Q 1166 619 1234 517
Q 1303 416 1390 372
Q 1478 328 1616 328
Q 1741 328 1850 379
Q 1959 431 2066 528
L 2206 359
Q 1984 144 1786 47
Q 1588 -50 1375 -50
Q 972 -50 775 189
Q 578 428 578 938
L 578 2672
L 116 2672
L 116 2831
z
" transform="scale(0.015625)"/>
      </defs>
      <use xlink:href="#Cambria-54"/>
      <use xlink:href="#Cambria-72" transform="translate(55.902344 0)"/>
      <use xlink:href="#Cambria-75" transform="translate(97.259766 0)"/>
      <use xlink:href="#Cambria-65" transform="translate(152.484375 0)"/>
      <use xlink:href="#Cambria-2d" transform="translate(201.263672 0)"/>
      <use xlink:href="#Cambria-73" transform="translate(234.466797 0)"/>
      <use xlink:href="#Cambria-70" transform="translate(277.435547 0)"/>
      <use xlink:href="#Cambria-65" transform="translate(333.050781 0)"/>
      <use xlink:href="#Cambria-63" transform="translate(381.830078 0)"/>
      <use xlink:href="#Cambria-69" transform="translate(425.921875 0)"/>
      <use xlink:href="#Cambria-65" transform="translate(453.705078 0)"/>
      <use xlink:href="#Cambria-73" transform="translate(502.484375 0)"/>
      <use xlink:href="#Cambria-20" transform="translate(545.453125 0)"/>
      <use xlink:href="#Cambria-6d" transform="translate(567.474609 0)"/>
      <use xlink:href="#Cambria-6f" transform="translate(650.677734 0)"/>
      <use xlink:href="#Cambria-6c" transform="translate(703.753906 0)"/>
      <use xlink:href="#Cambria-65" transform="translate(730.902344 0)"/>
      <use xlink:href="#Cambria-20" transform="translate(779.681641 0)"/>
      <use xlink:href="#Cambria-66" transform="translate(801.703125 0)"/>
      <use xlink:href="#Cambria-72" transform="translate(831.976562 0)"/>
      <use xlink:href="#Cambria-61" transform="translate(873.333984 0)"/>
      <use xlink:href="#Cambria-63" transform="translate(922.162109 0)"/>
      <use xlink:href="#Cambria-74" transform="translate(966.253906 0)"/>
      <use xlink:href="#Cambria-69" transform="translate(1000.091797 0)"/>
      <use xlink:href="#Cambria-6f" transform="translate(1027.875 0)"/>
      <use xlink:href="#Cambria-6e" transform="translate(1080.951172 0)"/>
     </g>
    </g>
   </g>
   <g id="line2d_53">
    <defs>
     <path id="m696aa220eb" d="M 0 3
C 0.795609 3 1.55874 2.683901 2.12132 2.12132
C 2.683901 1.55874 3 0.795609 3 0
C 3 -0.795609 2.683901 -1.55874 2.12132 -2.12132
C 1.55874 -2.683901 0.795609 -3 0 -3
C -0.795609 -3 -1.55874 -2.683901 -2.12132 -2.12132
C -2.683901 -1.55874 -3 -0.795609 -3 0
C -3 0.795609 -2.683901 1.55874 -2.12132 2.12132
C -1.55874 2.683901 -0.795609 3 0 3
z
" style="stroke: #e377c2; stroke-opacity: 0.6"/>
    </defs>
    <g clip-path="url(#pe6eca4bac8)">
     <use xlink:href="#m696aa220eb" x="74.533764" y="49.057476" style="fill: #e377c2; fill-opacity: 0.6; stroke: #e377c2; stroke-opacity: 0.6"/>
     <use xlink:href="#m696aa220eb" x="344.373014" y="69.312492" style="fill: #e377c2; fill-opacity: 0.6; stroke: #e377c2; stroke-opacity: 0.6"/>
     <use xlink:href="#m696aa220eb" x="409.807475" y="66.656427" style="fill: #e377c2; fill-opacity: 0.6; stroke: #e377c2; stroke-opacity: 0.6"/>
     <use xlink:href="#m696aa220eb" x="606.734041" y="60.776919" style="fill: #e377c2; fill-opacity: 0.6; stroke: #e377c2; stroke-opacity: 0.6"/>
    </g>
   </g>
   <g id="line2d_54">
    <path d="M 74.533764 62.134684
L 344.373014 77.358922
L 409.807475 74.57296
L 606.734041 63.661749
" clip-path="url(#pe6eca4bac8)" style="fill: none; stroke: #e377c2; stroke-width: 1.5; stroke-linecap: square"/>
   </g>
   <g id="line2d_55">
    <defs>
     <path id="mb97561a229" d="M 0 3
C 0.795609 3 1.55874 2.683901 2.12132 2.12132
C 2.683901 1.55874 3 0.795609 3 0
C 3 -0.795609 2.683901 -1.55874 2.12132 -2.12132
C 1.55874 -2.683901 0.795609 -3 0 -3
C -0.795609 -3 -1.55874 -2.683901 -2.12132 -2.12132
C -2.683901 -1.55874 -3 -0.795609 -3 0
C -3 0.795609 -2.683901 1.55874 -2.12132 2.12132
C -1.55874 2.683901 -0.795609 3 0 3
z
" style="stroke: #d62728; stroke-opacity: 0.6"/>
    </defs>
    <g clip-path="url(#pe6eca4bac8)">
     <use xlink:href="#mb97561a229" x="74.533764" y="149.567608" style="fill: #d62728; fill-opacity: 0.6; stroke: #d62728; stroke-opacity: 0.6"/>
     <use xlink:href="#mb97561a229" x="206.649055" y="107.353868" style="fill: #d62728; fill-opacity: 0.6; stroke: #d62728; stroke-opacity: 0.6"/>
     <use xlink:href="#mb97561a229" x="208.518611" y="106.262847" style="fill: #d62728; fill-opacity: 0.6; stroke: #d62728; stroke-opacity: 0.6"/>
     <use xlink:href="#mb97561a229" x="344.373014" y="89.606857" style="fill: #d62728; fill-opacity: 0.6; stroke: #d62728; stroke-opacity: 0.6"/>
     <use xlink:href="#mb97561a229" x="358.706277" y="92.371418" style="fill: #d62728; fill-opacity: 0.6; stroke: #d62728; stroke-opacity: 0.6"/>
     <use xlink:href="#mb97561a229" x="401.706065" y="89.205405" style="fill: #d62728; fill-opacity: 0.6; stroke: #d62728; stroke-opacity: 0.6"/>
     <use xlink:href="#mb97561a229" x="409.807475" y="98.40143" style="fill: #d62728; fill-opacity: 0.6; stroke: #d62728; stroke-opacity: 0.6"/>
     <use xlink:href="#mb97561a229" x="606.734041" y="138.439985" style="fill: #d62728; fill-opacity: 0.6; stroke: #d62728; stroke-opacity: 0.6"/>
    </g>
   </g>
   <g id="line2d_56">
    <path d="M 74.533764 164.654285
L 206.649055 108.580257
L 208.518611 108.187526
L 344.373014 93.249545
L 358.706277 93.784473
L 401.706065 97.062254
L 409.807475 98.239622
L 606.734041 144.726956
" clip-path="url(#pe6eca4bac8)" style="fill: none; stroke: #d62728; stroke-width: 1.5; stroke-linecap: square"/>
   </g>
   <g id="line2d_57">
    <defs>
     <path id="m77239a279e" d="M 0 3
C 0.795609 3 1.55874 2.683901 2.12132 2.12132
C 2.683901 1.55874 3 0.795609 3 0
C 3 -0.795609 2.683901 -1.55874 2.12132 -2.12132
C 1.55874 -2.683901 0.795609 -3 0 -3
C -0.795609 -3 -1.55874 -2.683901 -2.12132 -2.12132
C -2.683901 -1.55874 -3 -0.795609 -3 0
C -3 0.795609 -2.683901 1.55874 -2.12132 2.12132
C -1.55874 2.683901 -0.795609 3 0 3
z
" style="stroke: #bcbd22; stroke-opacity: 0.6"/>
    </defs>
    <g clip-path="url(#pe6eca4bac8)">
     <use xlink:href="#m77239a279e" x="206.649055" y="105.191443" style="fill: #bcbd22; fill-opacity: 0.6; stroke: #bcbd22; stroke-opacity: 0.6"/>
     <use xlink:href="#m77239a279e" x="208.518611" y="114.123368" style="fill: #bcbd22; fill-opacity: 0.6; stroke: #bcbd22; stroke-opacity: 0.6"/>
     <use xlink:href="#m77239a279e" x="358.706277" y="84.858615" style="fill: #bcbd22; fill-opacity: 0.6; stroke: #bcbd22; stroke-opacity: 0.6"/>
     <use xlink:href="#m77239a279e" x="401.706065" y="80.812539" style="fill: #bcbd22; fill-opacity: 0.6; stroke: #bcbd22; stroke-opacity: 0.6"/>
    </g>
   </g>
   <g id="line2d_58">
    <path d="M 206.649055 100.054077
L 208.518611 99.735891
L 358.706277 81.005648
L 401.706065 77.878808
" clip-path="url(#pe6eca4bac8)" style="fill: none; stroke: #bcbd22; stroke-width: 1.5; stroke-linecap: square"/>
   </g>
   <g id="patch_3">
    <path d="M 47.92375 383.53625
L 47.92375 26.31625
" style="fill: none; stroke: #000000; stroke-width: 0.8; stroke-linejoin: miter; stroke-linecap: square"/>
   </g>
   <g id="patch_4">
    <path d="M 47.92375 383.53625
L 633.344055 383.53625
" style="fill: none; stroke: #000000; stroke-width: 0.8; stroke-linejoin: miter; stroke-linecap: square"/>
   </g>
   <g id="text_12">
    <!-- MEAH+/MEACOO- loading curves from Tier-A speciation evidence -->
    <g transform="translate(145.083434 16.31625) scale(0.13 -0.13)">
     <defs>
      <path id="Cambria-Bold-4d" d="M 5113 4059
Q 4947 4013 4887 3958
Q 4828 3903 4804 3811
Q 4781 3719 4781 3484
L 4781 781
Q 4781 591 4800 480
Q 4819 369 4876 311
Q 4934 253 5113 206
L 5113 0
L 3509 0
L 3509 206
Q 3647 244 3700 272
Q 3753 300 3783 345
Q 3813 391 3827 483
Q 3841 575 3841 788
L 3841 2319
Q 3841 2572 3850 2915
Q 3859 3259 3869 3403
L 3803 3403
Q 3766 3278 3723 3158
Q 3681 3038 3566 2728
L 2728 472
L 2178 472
L 1297 3006
Q 1219 3222 1159 3434
L 1103 3434
Q 1134 2919 1134 2216
L 1134 778
Q 1134 547 1156 456
Q 1178 366 1243 306
Q 1309 247 1472 206
L 1472 0
L 291 0
L 291 206
Q 406 238 473 275
Q 541 313 575 375
Q 609 438 617 534
Q 625 631 625 781
L 625 3484
Q 625 3722 604 3809
Q 584 3897 525 3953
Q 466 4009 291 4059
L 291 4266
L 1844 4266
L 2709 1700
L 3647 4266
L 5113 4266
L 5113 4059
z
" transform="scale(0.015625)"/>
      <path id="Cambria-Bold-45" d="M 3400 4266
L 3400 3272
L 2972 3272
Q 2869 3569 2797 3673
Q 2725 3778 2625 3839
Q 2525 3900 2284 3900
L 1603 3900
L 1603 2400
L 2016 2400
Q 2153 2400 2231 2439
Q 2309 2478 2361 2568
Q 2413 2659 2459 2850
L 2813 2850
L 2813 1581
L 2459 1581
Q 2416 1763 2362 1858
Q 2309 1953 2236 1993
Q 2163 2034 2016 2034
L 1603 2034
L 1603 366
L 2281 366
Q 2391 366 2466 380
Q 2541 394 2600 428
Q 2659 463 2714 522
Q 2769 581 2811 650
Q 2853 719 2900 831
Q 2947 944 3003 1141
L 3431 1141
L 3372 0
L 300 0
L 300 206
Q 416 238 483 273
Q 550 309 583 373
Q 616 438 625 536
Q 634 634 634 784
L 634 3478
Q 634 3625 626 3725
Q 619 3825 586 3887
Q 553 3950 486 3989
Q 419 4028 300 4059
L 300 4266
L 3400 4266
z
" transform="scale(0.015625)"/>
      <path id="Cambria-Bold-41" d="M 2522 1322
L 1188 1322
L 1084 1025
Q 1041 900 1012 783
Q 984 666 984 534
Q 984 228 1309 206
L 1309 0
L -25 0
L -25 206
Q 91 219 178 287
Q 266 356 337 475
Q 409 594 491 816
L 1794 4288
L 2628 4288
L 3659 788
Q 3728 553 3775 454
Q 3822 356 3897 295
Q 3972 234 4106 206
L 4106 0
L 2381 0
L 2381 206
Q 2544 225 2622 297
Q 2700 369 2700 500
Q 2700 597 2678 715
Q 2656 834 2606 1016
L 2522 1322
z
M 1306 1688
L 2431 1688
L 1931 3447
L 1306 1688
z
" transform="scale(0.015625)"/>
      <path id="Cambria-Bold-48" d="M 3984 784
Q 3984 544 4004 455
Q 4025 366 4087 306
Q 4150 247 4316 206
L 4316 0
L 2684 0
L 2684 206
Q 2866 253 2919 300
Q 2972 347 2994 433
Q 3016 519 3016 784
L 3016 2038
L 1603 2038
L 1603 784
Q 1603 675 1609 581
Q 1616 488 1634 428
Q 1653 369 1689 328
Q 1725 288 1787 258
Q 1850 228 1941 206
L 1941 0
L 300 0
L 300 206
Q 416 238 483 273
Q 550 309 583 373
Q 616 438 625 536
Q 634 634 634 784
L 634 3478
Q 634 3625 626 3725
Q 619 3825 586 3887
Q 553 3950 486 3989
Q 419 4028 300 4059
L 300 4266
L 1941 4266
L 1941 4059
Q 1775 4013 1714 3956
Q 1653 3900 1628 3808
Q 1603 3716 1603 3475
L 1603 2431
L 3016 2431
L 3016 3475
Q 3016 3713 2995 3805
Q 2975 3897 2914 3955
Q 2853 4013 2684 4059
L 2684 4266
L 4316 4266
L 4316 4059
Q 4178 4022 4115 3980
Q 4053 3938 4026 3872
Q 4000 3806 3992 3725
Q 3984 3644 3984 3475
L 3984 784
z
" transform="scale(0.015625)"/>
      <path id="Cambria-Bold-2b" d="M 2228 1509
L 2228 309
L 1563 309
L 1563 1509
L 375 1509
L 375 2147
L 1563 2147
L 1563 3350
L 2228 3350
L 2228 2147
L 3416 2147
L 3416 1509
L 2228 1509
z
" transform="scale(0.015625)"/>
      <path id="Cambria-Bold-2f" d="M 3053 4472
L 797 -1344
L 181 -1344
L 2444 4472
L 3053 4472
z
" transform="scale(0.015625)"/>
      <path id="Cambria-Bold-43" d="M 3403 4169
L 3403 3263
L 2978 3263
Q 2903 3616 2740 3783
Q 2578 3950 2316 3950
Q 1822 3950 1569 3476
Q 1316 3003 1316 2072
Q 1316 1206 1547 761
Q 1778 316 2225 316
Q 2453 316 2597 392
Q 2741 469 2827 622
Q 2913 775 2975 1053
L 3403 1053
L 3403 106
Q 3059 25 2775 -12
Q 2491 -50 2184 -50
Q 1534 -50 1123 184
Q 713 419 517 892
Q 322 1366 322 2091
Q 322 2769 551 3270
Q 781 3772 1228 4044
Q 1675 4316 2297 4316
Q 2613 4316 2869 4281
Q 3125 4247 3403 4169
z
" transform="scale(0.015625)"/>
      <path id="Cambria-Bold-4f" d="M 2172 -50
Q 1253 -50 792 487
Q 331 1025 331 2097
Q 331 2800 554 3298
Q 778 3797 1212 4056
Q 1647 4316 2247 4316
Q 3181 4316 3650 3780
Q 4119 3244 4119 2188
Q 4119 1597 3980 1173
Q 3841 750 3584 478
Q 3328 206 2970 78
Q 2613 -50 2172 -50
z
M 1325 2181
Q 1325 1238 1551 777
Q 1778 316 2244 316
Q 2484 316 2653 445
Q 2822 575 2926 808
Q 3031 1041 3076 1359
Q 3122 1678 3122 2059
Q 3122 2681 3023 3101
Q 2925 3522 2726 3736
Q 2528 3950 2219 3950
Q 1766 3950 1545 3517
Q 1325 3084 1325 2181
z
" transform="scale(0.015625)"/>
      <path id="Cambria-Bold-2d" d="M 1819 1378
L 338 1378
L 338 2034
L 1819 2034
L 1819 1378
z
" transform="scale(0.015625)"/>
      <path id="Cambria-Bold-20" transform="scale(0.015625)"/>
      <path id="Cambria-Bold-6c" d="M 1438 903
Q 1438 606 1456 493
Q 1475 381 1533 314
Q 1591 247 1750 206
L 1750 0
L 219 0
L 219 206
Q 313 228 366 258
Q 419 288 448 327
Q 478 366 500 427
Q 522 488 528 595
Q 534 703 534 903
L 534 3341
Q 534 3609 529 3736
Q 525 3863 511 3948
Q 497 4034 464 4086
Q 431 4138 372 4169
Q 313 4200 181 4225
L 181 4431
L 1047 4475
L 1438 4475
L 1438 903
z
" transform="scale(0.015625)"/>
      <path id="Cambria-Bold-6f" d="M 1784 -50
Q 1325 -50 992 111
Q 659 272 471 626
Q 284 981 284 1528
Q 284 1947 400 2253
Q 516 2559 722 2759
Q 928 2959 1214 3054
Q 1500 3150 1834 3150
Q 2591 3150 2975 2751
Q 3359 2353 3359 1584
Q 3359 1041 3168 673
Q 2978 306 2625 128
Q 2272 -50 1784 -50
z
M 1234 1597
Q 1234 934 1382 604
Q 1531 275 1831 275
Q 1997 275 2108 359
Q 2219 444 2286 603
Q 2353 763 2381 986
Q 2409 1209 2409 1488
Q 2409 2159 2261 2492
Q 2113 2825 1822 2825
Q 1609 2825 1481 2690
Q 1353 2556 1293 2287
Q 1234 2019 1234 1597
z
" transform="scale(0.015625)"/>
      <path id="Cambria-Bold-61" d="M 2116 409
L 2069 425
Q 1813 175 1570 62
Q 1328 -50 1056 -50
Q 788 -50 589 48
Q 391 147 289 322
Q 188 497 188 725
Q 188 1184 639 1448
Q 1091 1713 2009 1781
L 2009 2078
Q 2009 2369 1943 2526
Q 1878 2684 1775 2748
Q 1672 2813 1528 2813
Q 1384 2813 1279 2763
Q 1175 2713 1090 2573
Q 1006 2434 966 2188
L 375 2188
L 375 2756
Q 663 2884 853 2953
Q 1044 3022 1230 3067
Q 1416 3113 1562 3131
Q 1709 3150 1856 3150
Q 2234 3150 2461 3050
Q 2688 2950 2800 2725
Q 2913 2500 2913 2103
L 2913 884
Q 2913 678 2922 565
Q 2931 453 2951 398
Q 2972 344 3003 311
Q 3034 278 3079 258
Q 3125 238 3250 206
L 3250 0
L 2088 0
L 2116 409
z
M 2013 1475
Q 1528 1463 1295 1294
Q 1063 1125 1063 800
Q 1063 606 1169 504
Q 1275 403 1463 403
Q 1606 403 1734 479
Q 1863 556 1938 684
Q 2013 813 2013 956
L 2013 1475
z
" transform="scale(0.015625)"/>
      <path id="Cambria-Bold-64" d="M 3288 913
Q 3288 675 3295 565
Q 3303 456 3331 390
Q 3359 325 3421 283
Q 3484 241 3631 209
L 3631 0
L 2781 -28
L 2403 -28
L 2431 422
L 2384 425
Q 2159 197 1911 73
Q 1663 -50 1434 -50
Q 866 -50 583 340
Q 300 731 300 1516
Q 300 2047 472 2411
Q 644 2775 983 2962
Q 1322 3150 1800 3150
Q 1938 3150 2070 3133
Q 2203 3116 2384 3066
L 2384 3350
Q 2384 3684 2375 3823
Q 2366 3963 2336 4036
Q 2306 4109 2247 4150
Q 2188 4191 2031 4222
L 2031 4431
L 2897 4475
L 3288 4475
L 3288 913
z
M 2384 2075
Q 2384 2456 2256 2640
Q 2128 2825 1863 2825
Q 1669 2825 1530 2686
Q 1391 2547 1320 2284
Q 1250 2022 1250 1663
Q 1250 1047 1384 744
Q 1519 441 1803 441
Q 1938 441 2070 508
Q 2203 575 2293 714
Q 2384 853 2384 1034
L 2384 2075
z
" transform="scale(0.015625)"/>
      <path id="Cambria-Bold-69" d="M 1453 4347
L 1453 3581
L 597 3581
L 597 4347
L 1453 4347
z
M 266 206
Q 419 247 476 312
Q 534 378 554 490
Q 575 603 575 900
L 575 2353
Q 575 2506 561 2600
Q 547 2694 508 2750
Q 469 2806 401 2836
Q 334 2866 228 2888
L 228 3100
L 1088 3125
L 1478 3125
L 1478 903
Q 1478 728 1483 633
Q 1488 538 1497 486
Q 1506 434 1523 393
Q 1541 353 1569 318
Q 1597 284 1650 256
Q 1703 228 1791 206
L 1791 0
L 266 0
L 266 206
z
" transform="scale(0.015625)"/>
      <path id="Cambria-Bold-6e" d="M 3666 0
L 2150 0
L 2150 206
Q 2294 241 2350 308
Q 2406 375 2426 489
Q 2447 603 2447 900
L 2447 1734
Q 2447 1956 2437 2098
Q 2428 2241 2408 2331
Q 2388 2422 2352 2483
Q 2316 2544 2272 2583
Q 2228 2622 2172 2640
Q 2116 2659 2028 2659
Q 1909 2659 1781 2586
Q 1653 2513 1565 2383
Q 1478 2253 1478 2106
L 1478 903
Q 1478 606 1497 490
Q 1516 375 1573 308
Q 1631 241 1778 206
L 1778 0
L 269 0
L 269 206
Q 419 247 476 312
Q 534 378 554 490
Q 575 603 575 900
L 575 2184
Q 575 2416 567 2527
Q 559 2638 529 2705
Q 500 2772 439 2814
Q 378 2856 228 2888
L 228 3100
L 1084 3125
L 1478 3125
L 1431 2675
L 1469 2666
Q 1663 2838 1809 2936
Q 1956 3034 2117 3092
Q 2278 3150 2456 3150
Q 2713 3150 2881 3076
Q 3050 3003 3154 2862
Q 3259 2722 3304 2519
Q 3350 2316 3350 2047
L 3350 903
Q 3350 766 3354 645
Q 3359 525 3378 453
Q 3397 381 3430 336
Q 3463 291 3522 259
Q 3581 228 3666 206
L 3666 0
z
" transform="scale(0.015625)"/>
      <path id="Cambria-Bold-67" d="M 3291 2681
L 2756 2741
L 2744 2706
Q 2831 2619 2889 2467
Q 2947 2316 2947 2103
Q 2947 1559 2617 1278
Q 2288 997 1647 997
Q 1338 997 1141 1053
Q 984 913 984 750
Q 984 656 1023 606
Q 1063 556 1156 529
Q 1250 503 1422 503
L 2197 503
Q 2719 503 2978 300
Q 3238 97 3238 -331
Q 3238 -666 3048 -906
Q 2859 -1147 2506 -1273
Q 2153 -1400 1669 -1400
Q 1316 -1400 1028 -1369
Q 741 -1338 537 -1255
Q 334 -1172 223 -1028
Q 113 -884 113 -663
Q 113 -484 225 -334
Q 338 -184 541 -78
Q 409 16 350 137
Q 291 259 291 438
Q 291 584 352 712
Q 413 841 514 945
Q 616 1050 778 1175
Q 534 1313 409 1536
Q 284 1759 284 2059
Q 284 2350 389 2558
Q 494 2766 676 2897
Q 859 3028 1107 3089
Q 1356 3150 1644 3150
Q 1803 3150 1925 3134
Q 2047 3119 2163 3100
L 3291 3100
L 3291 2681
z
M 1181 2097
Q 1181 1703 1292 1511
Q 1403 1319 1641 1319
Q 1856 1319 1970 1497
Q 2084 1675 2084 2041
Q 2084 2425 1973 2626
Q 1863 2828 1634 2828
Q 1403 2828 1292 2648
Q 1181 2469 1181 2097
z
M 1069 -200
Q 956 -288 898 -391
Q 841 -494 841 -628
Q 841 -853 1036 -961
Q 1231 -1069 1653 -1069
Q 2047 -1069 2251 -937
Q 2456 -806 2456 -569
Q 2456 -463 2418 -388
Q 2381 -313 2272 -263
Q 2163 -213 1963 -213
L 1425 -213
Q 1197 -213 1069 -200
z
" transform="scale(0.015625)"/>
      <path id="Cambria-Bold-63" d="M 2650 800
L 2891 509
Q 2584 209 2298 79
Q 2013 -50 1675 -50
Q 997 -50 640 348
Q 284 747 284 1506
Q 284 2019 479 2392
Q 675 2766 1040 2958
Q 1406 3150 1878 3150
Q 2131 3150 2382 3114
Q 2634 3078 2841 3016
L 2841 2263
L 2222 2263
Q 2175 2556 2081 2690
Q 1988 2825 1813 2825
Q 1697 2825 1592 2767
Q 1488 2709 1408 2567
Q 1328 2425 1281 2186
Q 1234 1947 1234 1581
Q 1234 1216 1303 964
Q 1372 713 1525 577
Q 1678 441 1928 441
Q 2109 441 2270 519
Q 2431 597 2650 800
z
" transform="scale(0.015625)"/>
      <path id="Cambria-Bold-75" d="M 200 3100
L 1416 3100
L 1416 1366
Q 1416 1066 1434 897
Q 1453 728 1506 629
Q 1559 531 1636 486
Q 1713 441 1831 441
Q 1947 441 2075 512
Q 2203 584 2292 714
Q 2381 844 2381 991
L 2381 2197
Q 2381 2425 2372 2536
Q 2363 2647 2336 2709
Q 2309 2772 2253 2814
Q 2197 2856 2069 2894
L 2069 3100
L 3288 3100
L 3288 913
Q 3288 675 3295 565
Q 3303 456 3331 390
Q 3359 325 3421 283
Q 3484 241 3631 209
L 3631 0
L 2781 -28
L 2403 -28
L 2431 422
L 2394 431
Q 2103 163 1875 56
Q 1647 -50 1416 -50
Q 1084 -50 886 73
Q 688 197 600 436
Q 513 675 513 1053
L 513 2197
Q 513 2372 508 2465
Q 503 2559 493 2611
Q 484 2663 467 2705
Q 450 2747 420 2781
Q 391 2816 339 2844
Q 288 2872 200 2894
L 200 3100
z
" transform="scale(0.015625)"/>
      <path id="Cambria-Bold-72" d="M 1434 2653
L 1475 2644
Q 1703 2913 1943 3031
Q 2184 3150 2466 3150
Q 2656 3150 2866 3109
L 2866 2247
L 2300 2247
Q 2247 2428 2161 2525
Q 2075 2622 1931 2622
Q 1863 2622 1780 2580
Q 1697 2538 1626 2461
Q 1556 2384 1526 2304
Q 1497 2225 1487 2144
Q 1478 2063 1478 1900
L 1478 903
Q 1478 606 1500 487
Q 1522 369 1587 301
Q 1653 234 1809 206
L 1809 0
L 269 0
L 269 206
Q 419 247 476 312
Q 534 378 554 490
Q 575 603 575 900
L 575 2184
Q 575 2416 567 2527
Q 559 2638 529 2705
Q 500 2772 439 2814
Q 378 2856 228 2888
L 228 3100
L 1084 3125
L 1478 3125
L 1434 2653
z
" transform="scale(0.015625)"/>
      <path id="Cambria-Bold-76" d="M 1619 3100
L 1619 2894
Q 1472 2866 1403 2809
Q 1334 2753 1334 2641
Q 1334 2491 1416 2250
L 1866 884
L 2363 2081
Q 2425 2231 2456 2345
Q 2488 2459 2488 2569
Q 2488 2700 2413 2786
Q 2338 2872 2200 2894
L 2200 3100
L 3416 3100
L 3416 2891
Q 3325 2863 3270 2822
Q 3216 2781 3167 2715
Q 3119 2650 3050 2520
Q 2981 2391 2863 2128
L 1888 -31
L 1297 -31
L 472 2347
Q 388 2594 334 2686
Q 281 2778 217 2826
Q 153 2875 59 2894
L 59 3100
L 1619 3100
z
" transform="scale(0.015625)"/>
      <path id="Cambria-Bold-65" d="M 3097 569
Q 2778 231 2465 90
Q 2153 -50 1747 -50
Q 1019 -50 651 348
Q 284 747 284 1531
Q 284 2038 473 2405
Q 663 2772 1009 2961
Q 1356 3150 1816 3150
Q 2100 3150 2314 3084
Q 2528 3019 2681 2901
Q 2834 2784 2934 2619
Q 3053 2422 3113 2169
Q 3175 1909 3178 1541
L 1197 1541
Q 1200 975 1398 708
Q 1597 441 2003 441
Q 2241 441 2431 530
Q 2622 619 2844 844
L 3097 569
z
M 2253 1878
Q 2241 2356 2128 2590
Q 2016 2825 1766 2825
Q 1525 2825 1383 2581
Q 1241 2338 1213 1878
L 2253 1878
z
" transform="scale(0.015625)"/>
      <path id="Cambria-Bold-73" d="M 672 844
Q 747 559 909 417
Q 1072 275 1344 275
Q 1578 275 1698 381
Q 1819 488 1819 691
Q 1819 819 1764 909
Q 1709 1000 1582 1083
Q 1456 1166 1150 1300
Q 978 1375 826 1465
Q 675 1556 562 1670
Q 450 1784 384 1925
Q 319 2066 319 2238
Q 319 2519 481 2725
Q 644 2931 945 3040
Q 1247 3150 1634 3150
Q 1863 3150 2081 3131
Q 2300 3113 2647 3050
L 2647 2322
L 2234 2322
Q 2163 2522 2077 2631
Q 1991 2741 1887 2783
Q 1784 2825 1641 2825
Q 1434 2825 1312 2731
Q 1191 2638 1191 2469
Q 1191 2350 1234 2265
Q 1278 2181 1390 2101
Q 1503 2022 1825 1888
Q 2119 1766 2303 1633
Q 2488 1500 2584 1326
Q 2681 1153 2681 922
Q 2681 669 2587 486
Q 2494 303 2325 184
Q 2156 66 1920 8
Q 1684 -50 1400 -50
Q 884 -50 253 97
L 253 844
L 672 844
z
" transform="scale(0.015625)"/>
      <path id="Cambria-Bold-66" d="M 263 206
Q 409 250 467 303
Q 525 356 550 451
Q 575 547 575 784
L 575 2709
L 194 2709
L 194 2925
Q 341 2947 398 2973
Q 456 3000 493 3045
Q 531 3091 553 3162
Q 575 3234 584 3347
Q 634 3909 1001 4198
Q 1369 4488 2041 4488
Q 2309 4488 2519 4444
L 2519 3806
L 2094 3806
Q 2041 3978 1977 4059
Q 1913 4141 1809 4141
Q 1675 4141 1603 4052
Q 1531 3963 1504 3798
Q 1478 3634 1478 3338
L 1478 3100
L 2081 3100
L 2081 2709
L 1478 2709
L 1478 784
Q 1478 550 1503 453
Q 1528 356 1592 300
Q 1656 244 1819 206
L 1819 0
L 263 0
L 263 206
z
" transform="scale(0.015625)"/>
      <path id="Cambria-Bold-6d" d="M 1431 2675
L 1469 2666
Q 1753 2931 1981 3040
Q 2209 3150 2447 3150
Q 2678 3150 2831 3090
Q 2984 3031 3090 2917
Q 3197 2803 3263 2619
Q 3578 2913 3811 3031
Q 4044 3150 4297 3150
Q 4547 3150 4711 3084
Q 4875 3019 4981 2881
Q 5088 2744 5136 2537
Q 5184 2331 5184 2044
L 5184 903
Q 5184 766 5189 645
Q 5194 525 5212 453
Q 5231 381 5264 336
Q 5297 291 5356 259
Q 5416 228 5500 206
L 5500 0
L 3994 0
L 3994 206
Q 4134 241 4187 306
Q 4241 372 4261 487
Q 4281 603 4281 900
L 4281 1738
Q 4281 2019 4262 2195
Q 4244 2372 4191 2472
Q 4138 2572 4064 2615
Q 3991 2659 3872 2659
Q 3791 2659 3722 2634
Q 3653 2609 3583 2557
Q 3513 2506 3463 2453
Q 3413 2400 3383 2334
Q 3353 2269 3342 2187
Q 3331 2106 3331 1922
L 3331 903
Q 3331 691 3339 578
Q 3347 466 3372 397
Q 3397 328 3451 283
Q 3506 238 3622 206
L 3622 0
L 2134 0
L 2134 206
Q 2278 241 2333 306
Q 2388 372 2406 486
Q 2425 600 2425 900
L 2425 1738
Q 2425 1944 2417 2086
Q 2409 2228 2390 2315
Q 2372 2403 2339 2468
Q 2306 2534 2264 2575
Q 2222 2616 2164 2637
Q 2106 2659 2019 2659
Q 1903 2659 1776 2587
Q 1650 2516 1564 2387
Q 1478 2259 1478 2113
L 1478 903
Q 1478 609 1495 492
Q 1513 375 1569 308
Q 1625 241 1766 206
L 1766 0
L 269 0
L 269 206
Q 419 247 476 312
Q 534 378 554 490
Q 575 603 575 900
L 575 2184
Q 575 2416 567 2527
Q 559 2638 529 2705
Q 500 2772 439 2814
Q 378 2856 228 2888
L 228 3100
L 1084 3125
L 1478 3125
L 1431 2675
z
" transform="scale(0.015625)"/>
      <path id="Cambria-Bold-54" d="M 1184 0
L 1184 206
Q 1316 228 1392 264
Q 1469 300 1506 365
Q 1544 431 1553 532
Q 1563 634 1563 784
L 1563 3900
L 1309 3900
Q 1122 3900 1022 3856
Q 922 3813 848 3719
Q 775 3625 722 3467
Q 669 3309 634 3169
L 206 3169
L 206 4266
L 3884 4266
L 3884 3169
L 3456 3169
Q 3397 3381 3362 3481
Q 3328 3581 3286 3651
Q 3244 3722 3197 3769
Q 3150 3816 3097 3844
Q 3044 3872 2964 3886
Q 2884 3900 2756 3900
L 2531 3900
L 2531 784
Q 2531 619 2540 533
Q 2550 447 2575 394
Q 2600 341 2636 308
Q 2672 275 2736 248
Q 2800 222 2909 206
L 2909 0
L 1184 0
z
" transform="scale(0.015625)"/>
      <path id="Cambria-Bold-70" d="M 1438 -559
Q 1438 -794 1463 -891
Q 1488 -988 1552 -1044
Q 1616 -1100 1778 -1138
L 1778 -1344
L 222 -1344
L 222 -1138
Q 369 -1094 426 -1041
Q 484 -988 509 -892
Q 534 -797 534 -559
L 534 2175
Q 534 2397 529 2490
Q 525 2584 508 2650
Q 491 2716 459 2758
Q 428 2800 367 2831
Q 306 2863 188 2888
L 188 3100
L 1053 3125
L 1438 3125
L 1391 2672
L 1428 2663
Q 1697 2922 1930 3036
Q 2163 3150 2409 3150
Q 2966 3150 3244 2758
Q 3522 2366 3522 1584
Q 3522 1044 3358 680
Q 3194 316 2869 133
Q 2544 -50 2069 -50
Q 1747 -50 1438 31
L 1438 -559
z
M 1438 1025
Q 1438 641 1570 458
Q 1703 275 1981 275
Q 2269 275 2420 576
Q 2572 878 2572 1438
Q 2572 2059 2436 2359
Q 2300 2659 2013 2659
Q 1872 2659 1739 2587
Q 1606 2516 1522 2383
Q 1438 2250 1438 2084
L 1438 1025
z
" transform="scale(0.015625)"/>
      <path id="Cambria-Bold-74" d="M 2406 375
Q 2131 141 1906 45
Q 1681 -50 1431 -50
Q 966 -50 736 201
Q 506 453 506 963
L 506 2709
L 116 2709
L 116 2925
Q 306 2956 397 3018
Q 488 3081 538 3186
Q 588 3291 617 3459
Q 647 3628 663 3881
L 1409 3881
L 1409 3100
L 2300 3100
L 2300 2709
L 1409 2709
L 1409 1300
Q 1409 947 1442 778
Q 1475 609 1553 529
Q 1631 450 1747 450
Q 1834 450 1903 465
Q 1972 481 2048 522
Q 2125 563 2209 638
L 2406 375
z
" transform="scale(0.015625)"/>
     </defs>
     <use xlink:href="#Cambria-Bold-4d"/>
     <use xlink:href="#Cambria-Bold-45" transform="translate(84.619141 0)"/>
     <use xlink:href="#Cambria-Bold-41" transform="translate(141.632812 0)"/>
     <use xlink:href="#Cambria-Bold-48" transform="translate(206.818359 0)"/>
     <use xlink:href="#Cambria-Bold-2b" transform="translate(278.986328 0)"/>
     <use xlink:href="#Cambria-Bold-2f" transform="translate(338.214844 0)"/>
     <use xlink:href="#Cambria-Bold-4d" transform="translate(388.751953 0)"/>
     <use xlink:href="#Cambria-Bold-45" transform="translate(473.371094 0)"/>
     <use xlink:href="#Cambria-Bold-41" transform="translate(530.384766 0)"/>
     <use xlink:href="#Cambria-Bold-43" transform="translate(593.445312 0)"/>
     <use xlink:href="#Cambria-Bold-4f" transform="translate(649.269531 0)"/>
     <use xlink:href="#Cambria-Bold-4f" transform="translate(718.800781 0)"/>
     <use xlink:href="#Cambria-Bold-2d" transform="translate(788.332031 0)"/>
     <use xlink:href="#Cambria-Bold-20" transform="translate(822.023438 0)"/>
     <use xlink:href="#Cambria-Bold-6c" transform="translate(844.044922 0)"/>
     <use xlink:href="#Cambria-Bold-6f" transform="translate(874.855469 0)"/>
     <use xlink:href="#Cambria-Bold-61" transform="translate(931.789062 0)"/>
     <use xlink:href="#Cambria-Bold-64" transform="translate(985.304688 0)"/>
     <use xlink:href="#Cambria-Bold-69" transform="translate(1045.021484 0)"/>
     <use xlink:href="#Cambria-Bold-6e" transform="translate(1076.466797 0)"/>
     <use xlink:href="#Cambria-Bold-67" transform="translate(1136.818359 0)"/>
     <use xlink:href="#Cambria-Bold-20" transform="translate(1188.820312 0)"/>
     <use xlink:href="#Cambria-Bold-63" transform="translate(1210.841797 0)"/>
     <use xlink:href="#Cambria-Bold-75" transform="translate(1257.716797 0)"/>
     <use xlink:href="#Cambria-Bold-72" transform="translate(1317.433594 0)"/>
     <use xlink:href="#Cambria-Bold-76" transform="translate(1363.576172 0)"/>
     <use xlink:href="#Cambria-Bold-65" transform="translate(1416.652344 0)"/>
     <use xlink:href="#Cambria-Bold-73" transform="translate(1469.728516 0)"/>
     <use xlink:href="#Cambria-Bold-20" transform="translate(1515.626953 0)"/>
     <use xlink:href="#Cambria-Bold-66" transform="translate(1537.648438 0)"/>
     <use xlink:href="#Cambria-Bold-72" transform="translate(1570.265625 0)"/>
     <use xlink:href="#Cambria-Bold-6f" transform="translate(1616.408203 0)"/>
     <use xlink:href="#Cambria-Bold-6d" transform="translate(1673.341797 0)"/>
     <use xlink:href="#Cambria-Bold-20" transform="translate(1762.355469 0)"/>
     <use xlink:href="#Cambria-Bold-54" transform="translate(1784.376953 0)"/>
     <use xlink:href="#Cambria-Bold-69" transform="translate(1848.292969 0)"/>
     <use xlink:href="#Cambria-Bold-65" transform="translate(1879.738281 0)"/>
     <use xlink:href="#Cambria-Bold-72" transform="translate(1932.814453 0)"/>
     <use xlink:href="#Cambria-Bold-2d" transform="translate(1978.957031 0)"/>
     <use xlink:href="#Cambria-Bold-41" transform="translate(2012.648438 0)"/>
     <use xlink:href="#Cambria-Bold-20" transform="translate(2077.833984 0)"/>
     <use xlink:href="#Cambria-Bold-73" transform="translate(2099.855469 0)"/>
     <use xlink:href="#Cambria-Bold-70" transform="translate(2145.753906 0)"/>
     <use xlink:href="#Cambria-Bold-65" transform="translate(2205.470703 0)"/>
     <use xlink:href="#Cambria-Bold-63" transform="translate(2258.546875 0)"/>
     <use xlink:href="#Cambria-Bold-69" transform="translate(2305.421875 0)"/>
     <use xlink:href="#Cambria-Bold-61" transform="translate(2336.867188 0)"/>
     <use xlink:href="#Cambria-Bold-74" transform="translate(2390.382812 0)"/>
     <use xlink:href="#Cambria-Bold-69" transform="translate(2426.90625 0)"/>
     <use xlink:href="#Cambria-Bold-6f" transform="translate(2458.351562 0)"/>
     <use xlink:href="#Cambria-Bold-6e" transform="translate(2515.285156 0)"/>
     <use xlink:href="#Cambria-Bold-20" transform="translate(2575.636719 0)"/>
     <use xlink:href="#Cambria-Bold-65" transform="translate(2597.658203 0)"/>
     <use xlink:href="#Cambria-Bold-76" transform="translate(2650.734375 0)"/>
     <use xlink:href="#Cambria-Bold-69" transform="translate(2703.810547 0)"/>
     <use xlink:href="#Cambria-Bold-64" transform="translate(2735.255859 0)"/>
     <use xlink:href="#Cambria-Bold-65" transform="translate(2794.972656 0)"/>
     <use xlink:href="#Cambria-Bold-6e" transform="translate(2848.048828 0)"/>
     <use xlink:href="#Cambria-Bold-63" transform="translate(2908.400391 0)"/>
     <use xlink:href="#Cambria-Bold-65" transform="translate(2955.275391 0)"/>
    </g>
   </g>
   <g id="legend_1">
    <g id="text_13">
     <!-- Species and role -->
     <g transform="translate(73.716719 306.55625) scale(0.1 -0.1)">
      <defs>
       <path id="Cambria-53" d="M 663 972
Q 725 697 831 537
Q 938 378 1106 301
Q 1275 225 1541 225
Q 1906 225 2101 415
Q 2297 606 2297 972
Q 2297 1206 2215 1365
Q 2134 1525 1950 1665
Q 1766 1806 1388 1994
Q 1022 2175 809 2348
Q 597 2522 492 2725
Q 388 2928 388 3169
Q 388 3519 552 3776
Q 716 4034 1033 4175
Q 1350 4316 1759 4316
Q 1997 4316 2223 4291
Q 2450 4266 2791 4178
L 2791 3334
L 2481 3334
Q 2409 3609 2300 3762
Q 2191 3916 2044 3977
Q 1897 4038 1663 4038
Q 1459 4038 1298 3963
Q 1138 3888 1044 3736
Q 950 3584 950 3375
Q 950 3153 1029 3000
Q 1109 2847 1278 2715
Q 1447 2584 1778 2422
Q 2178 2222 2398 2050
Q 2619 1878 2742 1658
Q 2866 1438 2866 1144
Q 2866 816 2762 589
Q 2659 363 2476 220
Q 2294 78 2039 14
Q 1784 -50 1481 -50
Q 991 -50 350 116
L 350 972
L 663 972
z
" transform="scale(0.015625)"/>
      </defs>
      <use xlink:href="#Cambria-53"/>
      <use xlink:href="#Cambria-70" transform="translate(49.609375 0)"/>
      <use xlink:href="#Cambria-65" transform="translate(105.224609 0)"/>
      <use xlink:href="#Cambria-63" transform="translate(154.003906 0)"/>
      <use xlink:href="#Cambria-69" transform="translate(198.095703 0)"/>
      <use xlink:href="#Cambria-65" transform="translate(225.878906 0)"/>
      <use xlink:href="#Cambria-73" transform="translate(274.658203 0)"/>
      <use xlink:href="#Cambria-20" transform="translate(317.626953 0)"/>
      <use xlink:href="#Cambria-61" transform="translate(339.648438 0)"/>
      <use xlink:href="#Cambria-6e" transform="translate(388.476562 0)"/>
      <use xlink:href="#Cambria-64" transform="translate(444.287109 0)"/>
      <use xlink:href="#Cambria-20" transform="translate(499.755859 0)"/>
      <use xlink:href="#Cambria-72" transform="translate(521.777344 0)"/>
      <use xlink:href="#Cambria-6f" transform="translate(563.134766 0)"/>
      <use xlink:href="#Cambria-6c" transform="translate(616.210938 0)"/>
      <use xlink:href="#Cambria-65" transform="translate(643.359375 0)"/>
     </g>
    </g>
    <g id="line2d_59">
     <g>
      <use xlink:href="#m696aa220eb" x="63.12375" y="315.45625" style="fill: #e377c2; fill-opacity: 0.6; stroke: #e377c2; stroke-opacity: 0.6"/>
     </g>
    </g>
    <g id="text_14">
     <!-- $MEA + MEAH^+$ data -->
     <g transform="translate(77.52375 318.25625) scale(0.08 -0.08)">
      <defs>
       <path id="DejaVuSerif-Italic-4d" d="M -97 0
L -34 331
L 559 331
L 1338 4331
L 709 4331
L 775 4666
L 2134 4666
L 3125 1344
L 5409 4666
L 6684 4666
L 6619 4331
L 5997 4331
L 5222 331
L 5816 331
L 5753 0
L 3928 0
L 3991 331
L 4584 331
L 5288 3938
L 3053 684
L 2613 684
L 1647 3938
L 944 331
L 1538 331
L 1475 0
L -97 0
z
" transform="scale(0.015625)"/>
       <path id="DejaVuSerif-Italic-45" d="M -97 0
L -34 331
L 559 331
L 1338 4331
L 744 4331
L 809 4666
L 4566 4666
L 4366 3628
L 3981 3628
L 4106 4281
L 1963 4281
L 1659 2719
L 3188 2719
L 3300 3303
L 3684 3303
L 3384 1753
L 3000 1753
L 3113 2338
L 1584 2338
L 1206 384
L 3400 384
L 3525 1038
L 3909 1038
L 3709 0
L -97 0
z
" transform="scale(0.015625)"/>
       <path id="DejaVuSerif-Italic-41" d="M 1159 1691
L 2872 1691
L 2447 3909
L 1159 1691
z
M -488 0
L -425 331
L -16 331
L 2491 4666
L 3016 4666
L 3841 331
L 4297 331
L 4234 0
L 2538 0
L 2600 331
L 3119 331
L 2928 1356
L 966 1356
L 375 331
L 888 331
L 825 0
L -488 0
z
" transform="scale(0.015625)"/>
       <path id="DejaVuSerif-2b" d="M 2931 4013
L 2931 2259
L 4684 2259
L 4684 1753
L 2931 1753
L 2931 0
L 2431 0
L 2431 1753
L 678 1753
L 678 2259
L 2431 2259
L 2431 4013
L 2931 4013
z
" transform="scale(0.015625)"/>
       <path id="DejaVuSerif-Italic-48" d="M -97 0
L -34 331
L 559 331
L 1338 4331
L 744 4331
L 809 4666
L 2631 4666
L 2566 4331
L 1972 4331
L 1659 2719
L 4078 2719
L 4391 4331
L 3797 4331
L 3863 4666
L 5684 4666
L 5619 4331
L 5025 4331
L 4247 331
L 4841 331
L 4778 0
L 2956 0
L 3019 331
L 3616 331
L 4003 2338
L 1584 2338
L 1194 331
L 1788 331
L 1725 0
L -97 0
z
" transform="scale(0.015625)"/>
      </defs>
      <use xlink:href="#DejaVuSerif-Italic-4d" transform="translate(0 0.773438)"/>
      <use xlink:href="#DejaVuSerif-Italic-45" transform="translate(102.392578 0.773438)"/>
      <use xlink:href="#DejaVuSerif-Italic-41" transform="translate(175.390625 0.773438)"/>
      <use xlink:href="#DejaVuSerif-2b" transform="translate(266.572266 0.773438)"/>
      <use xlink:href="#DejaVuSerif-Italic-4d" transform="translate(369.326172 0.773438)"/>
      <use xlink:href="#DejaVuSerif-Italic-45" transform="translate(471.71875 0.773438)"/>
      <use xlink:href="#DejaVuSerif-Italic-41" transform="translate(544.716797 0.773438)"/>
      <use xlink:href="#DejaVuSerif-Italic-48" transform="translate(616.933594 0.773438)"/>
      <use xlink:href="#DejaVuSerif-2b" transform="translate(724.595026 37.107812) scale(0.7)"/>
      <use xlink:href="#Cambria-20" transform="translate(799.118073 0.773438)"/>
      <use xlink:href="#Cambria-64" transform="translate(819.639557 0.773438)"/>
      <use xlink:href="#Cambria-61" transform="translate(875.108307 0.773438)"/>
      <use xlink:href="#Cambria-74" transform="translate(923.936432 0.773438)"/>
      <use xlink:href="#Cambria-61" transform="translate(957.774323 0.773438)"/>
     </g>
    </g>
    <g id="line2d_60">
     <path d="M 55.12375 326.73625
L 63.12375 326.73625
L 71.12375 326.73625
" style="fill: none; stroke: #e377c2; stroke-width: 1.5; stroke-linecap: square"/>
    </g>
    <g id="text_15">
     <!-- $MEA + MEAH^+$ fitted -->
     <g transform="translate(77.52375 329.53625) scale(0.08 -0.08)">
      <use xlink:href="#DejaVuSerif-Italic-4d" transform="translate(0 0.773438)"/>
      <use xlink:href="#DejaVuSerif-Italic-45" transform="translate(102.392578 0.773438)"/>
      <use xlink:href="#DejaVuSerif-Italic-41" transform="translate(175.390625 0.773438)"/>
      <use xlink:href="#DejaVuSerif-2b" transform="translate(266.572266 0.773438)"/>
      <use xlink:href="#DejaVuSerif-Italic-4d" transform="translate(369.326172 0.773438)"/>
      <use xlink:href="#DejaVuSerif-Italic-45" transform="translate(471.71875 0.773438)"/>
      <use xlink:href="#DejaVuSerif-Italic-41" transform="translate(544.716797 0.773438)"/>
      <use xlink:href="#DejaVuSerif-Italic-48" transform="translate(616.933594 0.773438)"/>
      <use xlink:href="#DejaVuSerif-2b" transform="translate(724.595026 37.107812) scale(0.7)"/>
      <use xlink:href="#Cambria-20" transform="translate(799.118073 0.773438)"/>
      <use xlink:href="#Cambria-66" transform="translate(819.639557 0.773438)"/>
      <use xlink:href="#Cambria-69" transform="translate(849.912995 0.773438)"/>
      <use xlink:href="#Cambria-74" transform="translate(877.696198 0.773438)"/>
      <use xlink:href="#Cambria-74" transform="translate(911.534089 0.773438)"/>
      <use xlink:href="#Cambria-65" transform="translate(945.371979 0.773438)"/>
      <use xlink:href="#Cambria-64" transform="translate(994.151276 0.773438)"/>
     </g>
    </g>
    <g id="line2d_61">
     <g>
      <use xlink:href="#mb97561a229" x="63.12375" y="338.01625" style="fill: #d62728; fill-opacity: 0.6; stroke: #d62728; stroke-opacity: 0.6"/>
     </g>
    </g>
    <g id="text_16">
     <!-- $MEACOO^-$ data -->
     <g transform="translate(77.52375 340.81625) scale(0.08 -0.08)">
      <defs>
       <path id="DejaVuSerif-2212" d="M 678 2259
L 4684 2259
L 4684 1753
L 678 1753
L 678 2259
z
" transform="scale(0.015625)"/>
      </defs>
      <use xlink:href="#DejaVuSerif-Italic-4d" transform="translate(0 0.78125)"/>
      <use xlink:href="#DejaVuSerif-Italic-45" transform="translate(102.392578 0.78125)"/>
      <use xlink:href="#DejaVuSerif-Italic-41" transform="translate(175.390625 0.78125)"/>
      <use xlink:href="#DejaVuSerif-Italic-43" transform="translate(247.607422 0.78125)"/>
      <use xlink:href="#DejaVuSerif-Italic-4f" transform="translate(324.121094 0.78125)"/>
      <use xlink:href="#DejaVuSerif-Italic-4f" transform="translate(406.103516 0.78125)"/>
      <use xlink:href="#DejaVuSerif-2212" transform="translate(508.724089 37.115625) scale(0.7)"/>
      <use xlink:href="#Cambria-20" transform="translate(583.247135 0.78125)"/>
      <use xlink:href="#Cambria-64" transform="translate(603.76862 0.78125)"/>
      <use xlink:href="#Cambria-61" transform="translate(659.23737 0.78125)"/>
      <use xlink:href="#Cambria-74" transform="translate(708.065495 0.78125)"/>
      <use xlink:href="#Cambria-61" transform="translate(741.903385 0.78125)"/>
     </g>
    </g>
    <g id="line2d_62">
     <path d="M 55.12375 349.29625
L 63.12375 349.29625
L 71.12375 349.29625
" style="fill: none; stroke: #d62728; stroke-width: 1.5; stroke-linecap: square"/>
    </g>
    <g id="text_17">
     <!-- $MEACOO^-$ fitted -->
     <g transform="translate(77.52375 352.09625) scale(0.08 -0.08)">
      <use xlink:href="#DejaVuSerif-Italic-4d" transform="translate(0 0.78125)"/>
      <use xlink:href="#DejaVuSerif-Italic-45" transform="translate(102.392578 0.78125)"/>
      <use xlink:href="#DejaVuSerif-Italic-41" transform="translate(175.390625 0.78125)"/>
      <use xlink:href="#DejaVuSerif-Italic-43" transform="translate(247.607422 0.78125)"/>
      <use xlink:href="#DejaVuSerif-Italic-4f" transform="translate(324.121094 0.78125)"/>
      <use xlink:href="#DejaVuSerif-Italic-4f" transform="translate(406.103516 0.78125)"/>
      <use xlink:href="#DejaVuSerif-2212" transform="translate(508.724089 37.115625) scale(0.7)"/>
      <use xlink:href="#Cambria-20" transform="translate(583.247135 0.78125)"/>
      <use xlink:href="#Cambria-66" transform="translate(603.76862 0.78125)"/>
      <use xlink:href="#Cambria-69" transform="translate(634.042057 0.78125)"/>
      <use xlink:href="#Cambria-74" transform="translate(661.82526 0.78125)"/>
      <use xlink:href="#Cambria-74" transform="translate(695.663151 0.78125)"/>
      <use xlink:href="#Cambria-65" transform="translate(729.501042 0.78125)"/>
      <use xlink:href="#Cambria-64" transform="translate(778.280339 0.78125)"/>
     </g>
    </g>
    <g id="line2d_63">
     <g>
      <use xlink:href="#m77239a279e" x="63.12375" y="360.57625" style="fill: #bcbd22; fill-opacity: 0.6; stroke: #bcbd22; stroke-opacity: 0.6"/>
     </g>
    </g>
    <g id="text_18">
     <!-- $MEAH^+$ data -->
     <g transform="translate(77.52375 363.37625) scale(0.08 -0.08)">
      <use xlink:href="#DejaVuSerif-Italic-4d" transform="translate(0 0.773438)"/>
      <use xlink:href="#DejaVuSerif-Italic-45" transform="translate(102.392578 0.773438)"/>
      <use xlink:href="#DejaVuSerif-Italic-41" transform="translate(175.390625 0.773438)"/>
      <use xlink:href="#DejaVuSerif-Italic-48" transform="translate(247.607422 0.773438)"/>
      <use xlink:href="#DejaVuSerif-2b" transform="translate(355.268854 37.107812) scale(0.7)"/>
      <use xlink:href="#Cambria-20" transform="translate(429.791901 0.773438)"/>
      <use xlink:href="#Cambria-64" transform="translate(450.313385 0.773438)"/>
      <use xlink:href="#Cambria-61" transform="translate(505.782135 0.773438)"/>
      <use xlink:href="#Cambria-74" transform="translate(554.61026 0.773438)"/>
      <use xlink:href="#Cambria-61" transform="translate(588.448151 0.773438)"/>
     </g>
    </g>
    <g id="line2d_64">
     <path d="M 55.12375 371.85625
L 63.12375 371.85625
L 71.12375 371.85625
" style="fill: none; stroke: #bcbd22; stroke-width: 1.5; stroke-linecap: square"/>
    </g>
    <g id="text_19">
     <!-- $MEAH^+$ fitted -->
     <g transform="translate(77.52375 374.65625) scale(0.08 -0.08)">
      <use xlink:href="#DejaVuSerif-Italic-4d" transform="translate(0 0.773438)"/>
      <use xlink:href="#DejaVuSerif-Italic-45" transform="translate(102.392578 0.773438)"/>
      <use xlink:href="#DejaVuSerif-Italic-41" transform="translate(175.390625 0.773438)"/>
      <use xlink:href="#DejaVuSerif-Italic-48" transform="translate(247.607422 0.773438)"/>
      <use xlink:href="#DejaVuSerif-2b" transform="translate(355.268854 37.107812) scale(0.7)"/>
      <use xlink:href="#Cambria-20" transform="translate(429.791901 0.773438)"/>
      <use xlink:href="#Cambria-66" transform="translate(450.313385 0.773438)"/>
      <use xlink:href="#Cambria-69" transform="translate(480.586823 0.773438)"/>
      <use xlink:href="#Cambria-74" transform="translate(508.370026 0.773438)"/>
      <use xlink:href="#Cambria-74" transform="translate(542.207917 0.773438)"/>
      <use xlink:href="#Cambria-65" transform="translate(576.045807 0.773438)"/>
      <use xlink:href="#Cambria-64" transform="translate(624.825104 0.773438)"/>
     </g>
    </g>
   </g>
  </g>
 </g>
 <defs>
  <clipPath id="pe6eca4bac8">
   <rect x="47.92375" y="26.31625" width="585.420305" height="357.22"/>
  </clipPath>
 </defs>
</svg>
