<?xml version="1.0" encoding="utf-8" standalone="no"?>
<!DOCTYPE svg PUBLIC "-//W3C//DTD SVG 1.1//EN"
  "http://www.w3.org/Graphics/SVG/1.1/DTD/svg11.dtd">
<svg xmlns:xlink="http://www.w3.org/1999/xlink" width="496.802805pt" height="494.827pt" viewBox="0 0 496.802805 494.827" xmlns="http://www.w3.org/2000/svg" version="1.1">
 <metadata>
  <rdf:RDF xmlns:dc="http://purl.org/dc/elements/1.1/" xmlns:cc="http://creativecommons.org/ns#" xmlns:rdf="http://www.w3.org/1999/02/22-rdf-syntax-ns#">
   <cc:Work>
    <dc:type rdf:resource="http://purl.org/dc/dcmitype/StillImage"/>
    <dc:date>2026-06-29T15:25:26.389274</dc:date>
    <dc:format>image/svg+xml</dc:format>
    <dc:creator>
     <cc:Agent>
      <dc:title>Matplotlib v3.10.9, https://matplotlib.org/</dc:title>
     </cc:Agent>
    </dc:creator>
   </cc:Work>
  </rdf:RDF>
 </metadata>
 <defs>
  <style type="text/css">*{stroke-linejoin: round; stroke-linecap: butt}</style>
 </defs>
 <g id="figure_1">
  <g id="patch_1">
   <path d="M 0 494.827
L 496.802805 494.827
L 496.802805 0
L 0 0
z
" style="fill: #ffffff"/>
  </g>
  <g id="axes_1">
   <g id="patch_2">
    <path d="M 47.92375 457.01575
L 489.602805 457.01575
L 489.602805 26.28375
L 47.92375 26.28375
z
" style="fill: #ffffff"/>
   </g>
   <g id="PathCollection_1">
    <defs>
     <path id="m914954789c" d="M 0 3
C 0.795609 3 1.55874 2.683901 2.12132 2.12132
C 2.683901 1.55874 3 0.795609 3 0
C 3 -0.795609 2.683901 -1.55874 2.12132 -2.12132
C 1.55874 -2.683901 0.795609 -3 0 -3
C -0.795609 -3 -1.55874 -2.683901 -2.12132 -2.12132
C -2.683901 -1.55874 -3 -0.795609 -3 0
C -3 0.795609 -2.683901 1.55874 -2.12132 2.12132
C -1.55874 2.683901 -0.795609 3 0 3
z
" style="stroke: #000000; stroke-opacity: 0.75; stroke-width: 0.3"/>
    </defs>
    <g clip-path="url(#pf0a04aedc6)">
     <use xlink:href="#m914954789c" x="460.303192" y="95.958073" style="fill: #e377c2; fill-opacity: 0.75; stroke: #000000; stroke-opacity: 0.75; stroke-width: 0.3"/>
     <use xlink:href="#m914954789c" x="422.533541" y="100.757547" style="fill: #e377c2; fill-opacity: 0.75; stroke: #000000; stroke-opacity: 0.75; stroke-width: 0.3"/>
     <use xlink:href="#m914954789c" x="395.024931" y="143.806963" style="fill: #e377c2; fill-opacity: 0.75; stroke: #000000; stroke-opacity: 0.75; stroke-width: 0.3"/>
     <use xlink:href="#m914954789c" x="403.584949" y="135.050846" style="fill: #e377c2; fill-opacity: 0.75; stroke: #000000; stroke-opacity: 0.75; stroke-width: 0.3"/>
    </g>
   </g>
   <g id="PathCollection_2">
    <defs>
     <path id="mf537498391" d="M 0 3
C 0.795609 3 1.55874 2.683901 2.12132 2.12132
C 2.683901 1.55874 3 0.795609 3 0
C 3 -0.795609 2.683901 -1.55874 2.12132 -2.12132
C 1.55874 -2.683901 0.795609 -3 0 -3
C -0.795609 -3 -1.55874 -2.683901 -2.12132 -2.12132
C -2.683901 -1.55874 -3 -0.795609 -3 0
C -3 0.795609 -2.683901 1.55874 -2.12132 2.12132
C -1.55874 2.683901 -0.795609 3 0 3
z
" style="stroke: #000000; stroke-opacity: 0.75; stroke-width: 0.3"/>
    </defs>
    <g clip-path="url(#pf0a04aedc6)">
     <use xlink:href="#mf537498391" x="136.377178" y="418.171196" style="fill: #d62728; fill-opacity: 0.75; stroke: #000000; stroke-opacity: 0.75; stroke-width: 0.3"/>
     <use xlink:href="#mf537498391" x="172.239496" y="355.540763" style="fill: #d62728; fill-opacity: 0.75; stroke: #000000; stroke-opacity: 0.75; stroke-width: 0.3"/>
     <use xlink:href="#mf537498391" x="329.619853" y="193.750263" style="fill: #d62728; fill-opacity: 0.75; stroke: #000000; stroke-opacity: 0.75; stroke-width: 0.3"/>
     <use xlink:href="#mf537498391" x="301.276532" y="209.433784" style="fill: #d62728; fill-opacity: 0.75; stroke: #000000; stroke-opacity: 0.75; stroke-width: 0.3"/>
    </g>
   </g>
   <g id="PathCollection_3">
    <g clip-path="url(#pf0a04aedc6)">
     <use xlink:href="#mf537498391" x="275.940605" y="240.699466" style="fill: #d62728; fill-opacity: 0.75; stroke: #000000; stroke-opacity: 0.75; stroke-width: 0.3"/>
     <use xlink:href="#mf537498391" x="330.913662" y="205.733386" style="fill: #d62728; fill-opacity: 0.75; stroke: #000000; stroke-opacity: 0.75; stroke-width: 0.3"/>
    </g>
   </g>
   <g id="PathCollection_4">
    <g clip-path="url(#pf0a04aedc6)">
     <use xlink:href="#mf537498391" x="272.424442" y="241.933798" style="fill: #d62728; fill-opacity: 0.75; stroke: #000000; stroke-opacity: 0.75; stroke-width: 0.3"/>
     <use xlink:href="#mf537498391" x="320.710174" y="195.431511" style="fill: #d62728; fill-opacity: 0.75; stroke: #000000; stroke-opacity: 0.75; stroke-width: 0.3"/>
    </g>
   </g>
   <g id="PathCollection_5">
    <defs>
     <path id="m9e08133eb5" d="M 0 3
C 0.795609 3 1.55874 2.683901 2.12132 2.12132
C 2.683901 1.55874 3 0.795609 3 0
C 3 -0.795609 2.683901 -1.55874 2.12132 -2.12132
C 1.55874 -2.683901 0.795609 -3 0 -3
C -0.795609 -3 -1.55874 -2.683901 -2.12132 -2.12132
C -2.683901 -1.55874 -3 -0.795609 -3 0
C -3 0.795609 -2.683901 1.55874 -2.12132 2.12132
C -1.55874 2.683901 -0.795609 3 0 3
z
" style="stroke: #000000; stroke-opacity: 0.75; stroke-width: 0.3"/>
    </defs>
    <g clip-path="url(#pf0a04aedc6)">
     <use xlink:href="#m9e08133eb5" x="250.607564" y="214.136472" style="fill: #bcbd22; fill-opacity: 0.75; stroke: #000000; stroke-opacity: 0.75; stroke-width: 0.3"/>
     <use xlink:href="#m9e08133eb5" x="357.962355" y="145.440934" style="fill: #bcbd22; fill-opacity: 0.75; stroke: #000000; stroke-opacity: 0.75; stroke-width: 0.3"/>
    </g>
   </g>
   <g id="PathCollection_6">
    <g clip-path="url(#pf0a04aedc6)">
     <use xlink:href="#m9e08133eb5" x="279.393548" y="215.13651" style="fill: #bcbd22; fill-opacity: 0.75; stroke: #000000; stroke-opacity: 0.75; stroke-width: 0.3"/>
     <use xlink:href="#m9e08133eb5" x="344.922583" y="155.26841" style="fill: #bcbd22; fill-opacity: 0.75; stroke: #000000; stroke-opacity: 0.75; stroke-width: 0.3"/>
    </g>
   </g>
   <g id="matplotlib.axis_1">
    <g id="xtick_1">
     <g id="line2d_1">
      <path d="M 153.764252 457.01575
L 153.764252 26.28375
" clip-path="url(#pf0a04aedc6)" style="fill: none; stroke: #b0b0b0; stroke-opacity: 0.22; stroke-width: 0.8; stroke-linecap: square"/>
     </g>
     <g id="line2d_2">
      <defs>
       <path id="m2650a51be0" d="M 0 0
L 0 4
" style="stroke: #000000; stroke-width: 0.8"/>
      </defs>
      <g>
       <use xlink:href="#m2650a51be0" x="153.764252" y="457.01575" style="stroke: #000000; stroke-width: 0.8"/>
      </g>
     </g>
     <g id="text_1">
      <!-- $\mathdefault{10^{-2}}$ -->
      <g transform="translate(144.164252 471.50325) scale(0.1 -0.1)">
       <defs>
        <path id="Cambria-31" d="M 2172 816
Q 2172 634 2192 542
Q 2213 450 2264 392
Q 2316 334 2412 301
Q 2509 269 2656 251
Q 2803 234 3044 228
L 3044 0
L 734 0
L 734 228
Q 1081 244 1229 270
Q 1378 297 1456 350
Q 1534 403 1570 500
Q 1606 597 1606 816
L 1606 3350
Q 1606 3475 1562 3533
Q 1519 3591 1434 3591
Q 1334 3591 1150 3487
Q 966 3384 694 3203
L 556 3444
L 2019 4316
L 2191 4316
Q 2172 4016 2172 3484
L 2172 816
z
" transform="scale(0.015625)"/>
        <path id="Cambria-30" d="M 1738 -50
Q 1063 -50 733 481
Q 403 1013 403 2094
Q 403 2669 504 3087
Q 606 3506 789 3779
Q 972 4053 1228 4184
Q 1484 4316 1788 4316
Q 2472 4316 2806 3787
Q 3141 3259 3141 2191
Q 3141 1084 2783 517
Q 2425 -50 1738 -50
z
M 1013 2188
Q 1013 1169 1202 692
Q 1391 216 1788 216
Q 2166 216 2348 664
Q 2531 1113 2531 2053
Q 2531 2772 2437 3217
Q 2344 3663 2176 3856
Q 2009 4050 1772 4050
Q 1556 4050 1411 3922
Q 1266 3794 1177 3553
Q 1088 3313 1050 2967
Q 1013 2622 1013 2188
z
" transform="scale(0.015625)"/>
        <path id="Cambria-2212" d="M 397 1613
L 397 2047
L 3147 2047
L 3147 1613
L 397 1613
z
" transform="scale(0.015625)"/>
        <path id="Cambria-32" d="M 2194 500
Q 2347 500 2440 519
Q 2534 538 2590 581
Q 2647 625 2680 695
Q 2713 766 2763 913
L 3028 913
L 2975 0
L 403 0
L 403 150
Q 538 478 766 822
Q 994 1166 1413 1631
Q 1775 2031 1934 2238
Q 2109 2463 2195 2627
Q 2281 2791 2318 2936
Q 2356 3081 2356 3228
Q 2356 3463 2281 3642
Q 2206 3822 2051 3925
Q 1897 4028 1663 4028
Q 1078 4028 875 3378
L 497 3378
L 497 3978
Q 875 4156 1204 4236
Q 1534 4316 1797 4316
Q 2378 4316 2675 4061
Q 2972 3806 2972 3322
Q 2972 3156 2939 3017
Q 2906 2878 2836 2742
Q 2766 2606 2647 2450
Q 2528 2294 2384 2133
Q 2241 1972 1888 1597
Q 1294 969 1016 500
L 2194 500
z
" transform="scale(0.015625)"/>
       </defs>
       <use xlink:href="#Cambria-31" transform="translate(0 0.1125)"/>
       <use xlink:href="#Cambria-30" transform="translate(55.371094 0.1125)"/>
       <use xlink:href="#Cambria-2212" transform="translate(111.559219 32.79375) scale(0.7)"/>
       <use xlink:href="#Cambria-32" transform="translate(150.318984 32.79375) scale(0.7)"/>
      </g>
     </g>
    </g>
    <g id="xtick_2">
     <g id="line2d_3">
      <path d="M 410.906179 457.01575
L 410.906179 26.28375
" clip-path="url(#pf0a04aedc6)" style="fill: none; stroke: #b0b0b0; stroke-opacity: 0.22; stroke-width: 0.8; stroke-linecap: square"/>
     </g>
     <g id="line2d_4">
      <g>
       <use xlink:href="#m2650a51be0" x="410.906179" y="457.01575" style="stroke: #000000; stroke-width: 0.8"/>
      </g>
     </g>
     <g id="text_2">
      <!-- $\mathdefault{10^{-1}}$ -->
      <g transform="translate(401.306179 471.50325) scale(0.1 -0.1)">
       <use xlink:href="#Cambria-31" transform="translate(0 0.1125)"/>
       <use xlink:href="#Cambria-30" transform="translate(55.371094 0.1125)"/>
       <use xlink:href="#Cambria-2212" transform="translate(111.559219 32.79375) scale(0.7)"/>
       <use xlink:href="#Cambria-31" transform="translate(150.318984 32.79375) scale(0.7)"/>
      </g>
     </g>
    </g>
    <g id="xtick_3">
     <g id="line2d_5">
      <defs>
       <path id="mbab9197711" d="M 0 0
L 0 2
" style="stroke: #000000; stroke-width: 0.6"/>
      </defs>
      <g>
       <use xlink:href="#mbab9197711" x="51.437191" y="457.01575" style="stroke: #000000; stroke-width: 0.6"/>
      </g>
     </g>
    </g>
    <g id="xtick_4">
     <g id="line2d_6">
      <g>
       <use xlink:href="#mbab9197711" x="76.356819" y="457.01575" style="stroke: #000000; stroke-width: 0.6"/>
      </g>
     </g>
    </g>
    <g id="xtick_5">
     <g id="line2d_7">
      <g>
       <use xlink:href="#mbab9197711" x="96.717637" y="457.01575" style="stroke: #000000; stroke-width: 0.6"/>
      </g>
     </g>
    </g>
    <g id="xtick_6">
     <g id="line2d_8">
      <g>
       <use xlink:href="#mbab9197711" x="113.932464" y="457.01575" style="stroke: #000000; stroke-width: 0.6"/>
      </g>
     </g>
    </g>
    <g id="xtick_7">
     <g id="line2d_9">
      <g>
       <use xlink:href="#mbab9197711" x="128.844625" y="457.01575" style="stroke: #000000; stroke-width: 0.6"/>
      </g>
     </g>
    </g>
    <g id="xtick_8">
     <g id="line2d_10">
      <g>
       <use xlink:href="#mbab9197711" x="141.998083" y="457.01575" style="stroke: #000000; stroke-width: 0.6"/>
      </g>
     </g>
    </g>
    <g id="xtick_9">
     <g id="line2d_11">
      <g>
       <use xlink:href="#mbab9197711" x="231.171685" y="457.01575" style="stroke: #000000; stroke-width: 0.6"/>
      </g>
     </g>
    </g>
    <g id="xtick_10">
     <g id="line2d_12">
      <g>
       <use xlink:href="#mbab9197711" x="276.452131" y="457.01575" style="stroke: #000000; stroke-width: 0.6"/>
      </g>
     </g>
    </g>
    <g id="xtick_11">
     <g id="line2d_13">
      <g>
       <use xlink:href="#mbab9197711" x="308.579119" y="457.01575" style="stroke: #000000; stroke-width: 0.6"/>
      </g>
     </g>
    </g>
    <g id="xtick_12">
     <g id="line2d_14">
      <g>
       <use xlink:href="#mbab9197711" x="333.498746" y="457.01575" style="stroke: #000000; stroke-width: 0.6"/>
      </g>
     </g>
    </g>
    <g id="xtick_13">
     <g id="line2d_15">
      <g>
       <use xlink:href="#mbab9197711" x="353.859564" y="457.01575" style="stroke: #000000; stroke-width: 0.6"/>
      </g>
     </g>
    </g>
    <g id="xtick_14">
     <g id="line2d_16">
      <g>
       <use xlink:href="#mbab9197711" x="371.074391" y="457.01575" style="stroke: #000000; stroke-width: 0.6"/>
      </g>
     </g>
    </g>
    <g id="xtick_15">
     <g id="line2d_17">
      <g>
       <use xlink:href="#mbab9197711" x="385.986552" y="457.01575" style="stroke: #000000; stroke-width: 0.6"/>
      </g>
     </g>
    </g>
    <g id="xtick_16">
     <g id="line2d_18">
      <g>
       <use xlink:href="#mbab9197711" x="399.14001" y="457.01575" style="stroke: #000000; stroke-width: 0.6"/>
      </g>
     </g>
    </g>
    <g id="xtick_17">
     <g id="line2d_19">
      <g>
       <use xlink:href="#mbab9197711" x="488.313612" y="457.01575" style="stroke: #000000; stroke-width: 0.6"/>
      </g>
     </g>
    </g>
    <g id="text_3">
     <!-- Observed true-species mole fraction -->
     <g transform="translate(183.813199 485.317) scale(0.11 -0.11)">
      <defs>
       <path id="Cambria-4f" d="M 2044 -50
Q 1669 -50 1361 73
Q 1053 197 833 458
Q 613 719 492 1125
Q 372 1531 372 2097
Q 372 2794 584 3294
Q 797 3794 1192 4055
Q 1588 4316 2109 4316
Q 2666 4316 3045 4070
Q 3425 3825 3617 3348
Q 3809 2872 3809 2188
Q 3809 1456 3590 953
Q 3372 450 2973 200
Q 2575 -50 2044 -50
z
M 1016 2184
Q 1016 1225 1295 725
Q 1575 225 2113 225
Q 2453 225 2690 442
Q 2928 659 3047 1078
Q 3166 1497 3166 2056
Q 3166 2738 3027 3186
Q 2888 3634 2647 3837
Q 2406 4041 2088 4041
Q 1806 4041 1604 3909
Q 1403 3778 1270 3536
Q 1138 3294 1077 2950
Q 1016 2606 1016 2184
z
" transform="scale(0.015625)"/>
       <path id="Cambria-62" d="M 1091 2497
L 1103 2494
Q 1322 2722 1467 2825
Q 1613 2928 1767 2983
Q 1922 3038 2106 3038
Q 2441 3038 2680 2867
Q 2919 2697 3048 2356
Q 3178 2016 3178 1522
Q 3178 1013 3023 661
Q 2869 309 2567 129
Q 2266 -50 1853 -50
Q 1622 -50 1417 -8
Q 1213 34 988 141
L 769 -50
L 553 0
L 553 3397
Q 553 3697 548 3815
Q 544 3934 523 4017
Q 503 4100 467 4147
Q 431 4194 370 4222
Q 309 4250 150 4278
L 150 4441
L 906 4472
L 1091 4472
L 1091 2497
z
M 1091 1125
Q 1091 884 1112 742
Q 1134 600 1186 506
Q 1238 413 1336 334
Q 1434 256 1556 226
Q 1678 197 1828 197
Q 2203 197 2397 503
Q 2591 809 2591 1422
Q 2591 2041 2414 2352
Q 2238 2663 1881 2663
Q 1703 2663 1578 2608
Q 1453 2553 1329 2437
Q 1206 2322 1148 2209
Q 1091 2097 1091 1953
L 1091 1125
z
" transform="scale(0.015625)"/>
       <path id="Cambria-73" d="M 2397 2303
L 2097 2303
Q 2028 2491 1934 2598
Q 1841 2706 1722 2750
Q 1603 2794 1431 2794
Q 1181 2794 1032 2676
Q 884 2559 884 2356
Q 884 2213 943 2119
Q 1003 2025 1128 1944
Q 1253 1863 1569 1728
Q 1888 1591 2061 1475
Q 2234 1359 2332 1206
Q 2431 1053 2431 841
Q 2431 594 2347 425
Q 2263 256 2109 150
Q 1956 44 1745 -3
Q 1534 -50 1284 -50
Q 1022 -50 775 -11
Q 528 28 294 91
L 294 744
L 600 744
Q 684 456 850 326
Q 1016 197 1306 197
Q 1419 197 1526 220
Q 1634 244 1718 298
Q 1803 353 1853 447
Q 1903 541 1903 681
Q 1903 841 1840 941
Q 1778 1041 1647 1123
Q 1516 1206 1184 1347
Q 900 1466 728 1578
Q 556 1691 457 1844
Q 359 1997 359 2206
Q 359 2463 498 2652
Q 638 2841 900 2941
Q 1163 3041 1516 3041
Q 1722 3041 1914 3020
Q 2106 3000 2397 2941
L 2397 2303
z
" transform="scale(0.015625)"/>
       <path id="Cambria-65" d="M 2800 531
Q 2600 322 2433 203
Q 2266 84 2066 17
Q 1866 -50 1625 -50
Q 981 -50 653 336
Q 325 722 325 1475
Q 325 1941 492 2297
Q 659 2653 968 2847
Q 1278 3041 1681 3041
Q 1997 3041 2219 2941
Q 2441 2841 2573 2667
Q 2706 2494 2779 2230
Q 2853 1966 2863 1541
L 894 1541
L 894 1484
Q 894 1116 976 864
Q 1059 613 1248 470
Q 1438 328 1741 328
Q 1997 328 2201 423
Q 2406 519 2609 734
L 2800 531
z
M 2275 1800
Q 2256 2138 2190 2352
Q 2125 2566 1994 2680
Q 1863 2794 1650 2794
Q 1328 2794 1136 2536
Q 944 2278 909 1800
L 2275 1800
z
" transform="scale(0.015625)"/>
       <path id="Cambria-72" d="M 1147 2469
L 1191 2459
Q 1363 2669 1509 2789
Q 1656 2909 1826 2975
Q 1997 3041 2213 3041
Q 2394 3041 2541 3022
L 2541 2303
L 2188 2303
Q 2113 2472 2028 2548
Q 1944 2625 1797 2625
Q 1684 2625 1573 2559
Q 1463 2494 1359 2369
Q 1256 2244 1217 2134
Q 1178 2025 1178 1875
L 1178 781
Q 1178 497 1212 389
Q 1247 281 1326 231
Q 1406 181 1566 153
L 1566 0
L 306 0
L 306 153
Q 425 191 476 219
Q 528 247 565 297
Q 603 347 622 450
Q 641 553 641 772
L 641 2134
Q 641 2334 634 2456
Q 628 2578 590 2651
Q 553 2725 476 2761
Q 400 2797 259 2822
L 259 2984
L 991 3016
L 1181 3016
L 1147 2469
z
" transform="scale(0.015625)"/>
       <path id="Cambria-76" d="M 1334 2988
L 1334 2834
Q 1191 2800 1131 2769
Q 1072 2738 1042 2688
Q 1013 2638 1013 2553
Q 1013 2469 1033 2376
Q 1053 2284 1097 2163
L 1641 581
L 2278 2097
Q 2341 2247 2366 2344
Q 2391 2441 2391 2525
Q 2391 2656 2320 2725
Q 2250 2794 2063 2834
L 2063 2988
L 3231 2988
L 3231 2834
Q 3109 2809 3043 2757
Q 2978 2706 2912 2595
Q 2847 2484 2756 2284
L 1703 -31
L 1334 -31
L 488 2303
Q 400 2544 348 2633
Q 297 2722 236 2765
Q 175 2809 59 2834
L 59 2988
L 1334 2988
z
" transform="scale(0.015625)"/>
       <path id="Cambria-64" d="M 2413 3397
Q 2413 3697 2408 3815
Q 2403 3934 2383 4017
Q 2363 4100 2327 4147
Q 2291 4194 2230 4222
Q 2169 4250 2009 4278
L 2009 4441
L 2766 4472
L 2950 4472
L 2950 853
Q 2950 609 2959 504
Q 2969 400 3000 337
Q 3031 275 3098 236
Q 3166 197 3334 163
L 3334 0
L 2597 -31
L 2409 -31
L 2447 481
L 2400 494
Q 2203 284 2058 179
Q 1913 75 1748 12
Q 1584 -50 1397 -50
Q 884 -50 606 339
Q 328 728 328 1463
Q 328 1975 509 2333
Q 691 2691 998 2866
Q 1306 3041 1691 3041
Q 1897 3041 2065 3008
Q 2234 2975 2413 2900
L 2413 3397
z
M 2413 1853
Q 2413 2097 2391 2244
Q 2369 2391 2317 2491
Q 2266 2591 2178 2659
Q 2091 2728 1986 2759
Q 1881 2791 1734 2791
Q 1334 2791 1125 2470
Q 916 2150 916 1550
Q 916 950 1087 637
Q 1259 325 1609 325
Q 1747 325 1837 348
Q 1928 372 2015 423
Q 2103 475 2193 565
Q 2284 656 2326 731
Q 2369 806 2391 903
Q 2413 1000 2413 1153
L 2413 1853
z
" transform="scale(0.015625)"/>
       <path id="Cambria-20" transform="scale(0.015625)"/>
       <path id="Cambria-74" d="M 116 2831
Q 272 2856 369 2918
Q 466 2981 520 3079
Q 575 3178 606 3326
Q 638 3475 672 3759
L 1116 3759
L 1116 2988
L 2125 2988
L 2125 2672
L 1116 2672
L 1116 1281
Q 1116 978 1141 798
Q 1166 619 1234 517
Q 1303 416 1390 372
Q 1478 328 1616 328
Q 1741 328 1850 379
Q 1959 431 2066 528
L 2206 359
Q 1984 144 1786 47
Q 1588 -50 1375 -50
Q 972 -50 775 189
Q 578 428 578 938
L 578 2672
L 116 2672
L 116 2831
z
" transform="scale(0.015625)"/>
       <path id="Cambria-75" d="M 228 2988
L 1119 2988
L 1119 1397
Q 1119 1031 1147 840
Q 1175 650 1231 553
Q 1288 456 1391 390
Q 1494 325 1675 325
Q 1794 325 1903 372
Q 2013 419 2147 536
Q 2281 653 2339 768
Q 2397 884 2397 1038
L 2397 2209
Q 2397 2388 2387 2478
Q 2378 2569 2356 2623
Q 2334 2678 2304 2712
Q 2275 2747 2220 2775
Q 2166 2803 2044 2834
L 2044 2988
L 2934 2988
L 2934 853
Q 2934 613 2943 506
Q 2953 400 2984 337
Q 3016 275 3081 236
Q 3147 197 3316 163
L 3316 0
L 2600 -31
L 2409 -31
L 2428 481
L 2381 494
Q 2122 213 1886 81
Q 1650 -50 1413 -50
Q 1128 -50 943 62
Q 759 175 668 398
Q 578 622 578 1028
L 578 2209
Q 578 2472 558 2570
Q 538 2669 480 2726
Q 422 2784 228 2834
L 228 2988
z
" transform="scale(0.015625)"/>
       <path id="Cambria-2d" d="M 1788 1403
L 338 1403
L 338 1888
L 1788 1888
L 1788 1403
z
" transform="scale(0.015625)"/>
       <path id="Cambria-70" d="M 1150 94
L 1150 -566
Q 1150 -769 1164 -869
Q 1178 -969 1214 -1026
Q 1250 -1084 1317 -1121
Q 1384 -1159 1534 -1191
L 1534 -1344
L 259 -1344
L 259 -1191
Q 372 -1159 442 -1126
Q 513 -1094 550 -1030
Q 588 -966 600 -856
Q 613 -747 613 -566
L 613 2116
Q 613 2341 606 2436
Q 600 2531 581 2593
Q 563 2656 527 2697
Q 491 2738 430 2766
Q 369 2794 228 2822
L 228 2988
L 963 3016
L 1153 3016
L 1113 2506
L 1159 2494
Q 1353 2691 1465 2780
Q 1578 2869 1698 2928
Q 1819 2988 1930 3013
Q 2041 3038 2166 3038
Q 2681 3038 2957 2652
Q 3234 2266 3234 1522
Q 3234 1006 3078 654
Q 2922 303 2623 126
Q 2325 -50 1913 -50
Q 1681 -50 1493 -11
Q 1306 28 1150 94
z
M 1150 1125
Q 1150 825 1187 662
Q 1225 500 1320 398
Q 1416 297 1545 247
Q 1675 197 1888 197
Q 2266 197 2456 511
Q 2647 825 2647 1438
Q 2647 2663 1931 2663
Q 1756 2663 1629 2608
Q 1503 2553 1378 2431
Q 1253 2309 1201 2195
Q 1150 2081 1150 1950
L 1150 1125
z
" transform="scale(0.015625)"/>
       <path id="Cambria-63" d="M 2631 2916
L 2631 2263
L 2234 2263
Q 2181 2466 2103 2583
Q 2025 2700 1922 2747
Q 1819 2794 1666 2794
Q 1447 2794 1278 2653
Q 1109 2513 1011 2225
Q 913 1938 913 1522
Q 913 1256 950 1036
Q 988 816 1078 659
Q 1169 503 1319 415
Q 1469 328 1691 328
Q 1906 328 2092 412
Q 2278 497 2478 709
L 2656 503
Q 2497 328 2375 233
Q 2253 138 2114 73
Q 1975 9 1839 -20
Q 1703 -50 1544 -50
Q 953 -50 640 342
Q 328 734 328 1475
Q 328 1938 503 2295
Q 678 2653 993 2847
Q 1309 3041 1722 3041
Q 1978 3041 2195 3011
Q 2413 2981 2631 2916
z
" transform="scale(0.015625)"/>
       <path id="Cambria-69" d="M 1197 4213
L 1197 3606
L 622 3606
L 622 4213
L 1197 4213
z
M 303 153
Q 425 191 476 219
Q 528 247 564 297
Q 600 347 620 450
Q 641 553 641 772
L 641 2134
Q 641 2334 634 2456
Q 628 2578 590 2651
Q 553 2725 476 2761
Q 400 2797 259 2822
L 259 2988
L 988 3016
L 1178 3016
L 1178 781
Q 1178 513 1203 408
Q 1228 303 1298 248
Q 1369 194 1528 153
L 1528 0
L 303 0
L 303 153
z
" transform="scale(0.015625)"/>
       <path id="Cambria-6d" d="M 1147 2506
L 1191 2494
Q 1378 2681 1498 2776
Q 1619 2872 1731 2930
Q 1844 2988 1942 3013
Q 2041 3038 2144 3038
Q 2456 3038 2653 2894
Q 2850 2750 2925 2453
Q 3159 2691 3304 2803
Q 3450 2916 3601 2977
Q 3753 3038 3928 3038
Q 4138 3038 4289 2977
Q 4441 2916 4545 2789
Q 4650 2663 4698 2472
Q 4747 2281 4747 1959
L 4747 781
Q 4747 544 4762 453
Q 4778 363 4808 313
Q 4838 263 4897 227
Q 4956 191 5097 153
L 5097 0
L 3869 0
L 3869 153
Q 3991 191 4044 219
Q 4097 247 4133 297
Q 4169 347 4189 451
Q 4209 556 4209 769
L 4209 1588
Q 4209 1853 4195 2026
Q 4181 2200 4151 2303
Q 4122 2406 4080 2465
Q 4038 2525 3984 2569
Q 3931 2613 3859 2638
Q 3788 2663 3669 2663
Q 3544 2663 3436 2613
Q 3328 2563 3201 2444
Q 3075 2325 3019 2204
Q 2963 2084 2963 1922
L 2963 781
Q 2963 544 2978 453
Q 2994 363 3023 313
Q 3053 263 3112 227
Q 3172 191 3313 153
L 3313 0
L 2084 0
L 2084 153
Q 2206 191 2259 219
Q 2313 247 2348 297
Q 2384 347 2404 451
Q 2425 556 2425 769
L 2425 1588
Q 2425 1866 2409 2041
Q 2394 2216 2361 2322
Q 2328 2428 2276 2493
Q 2225 2559 2172 2593
Q 2119 2628 2047 2645
Q 1975 2663 1884 2663
Q 1756 2663 1643 2605
Q 1531 2547 1414 2437
Q 1297 2328 1237 2209
Q 1178 2091 1178 1953
L 1178 781
Q 1178 603 1187 509
Q 1197 416 1217 362
Q 1238 309 1269 276
Q 1300 244 1358 214
Q 1416 184 1531 153
L 1531 0
L 306 0
L 306 153
Q 425 191 476 219
Q 528 247 565 297
Q 603 347 622 450
Q 641 553 641 772
L 641 2134
Q 641 2334 634 2456
Q 628 2578 590 2651
Q 553 2725 476 2761
Q 400 2797 259 2822
L 259 2988
L 991 3016
L 1181 3016
L 1147 2506
z
" transform="scale(0.015625)"/>
       <path id="Cambria-6f" d="M 1663 -50
Q 1013 -50 670 333
Q 328 716 328 1466
Q 328 1981 508 2337
Q 688 2694 1000 2867
Q 1313 3041 1713 3041
Q 2381 3041 2725 2652
Q 3069 2263 3069 1534
Q 3069 1016 2897 659
Q 2725 303 2409 126
Q 2094 -50 1663 -50
z
M 919 1531
Q 919 888 1123 542
Q 1328 197 1709 197
Q 1919 197 2066 298
Q 2213 400 2305 572
Q 2397 744 2437 970
Q 2478 1197 2478 1444
Q 2478 1903 2376 2206
Q 2275 2509 2100 2651
Q 1925 2794 1700 2794
Q 1322 2794 1120 2466
Q 919 2138 919 1531
z
" transform="scale(0.015625)"/>
       <path id="Cambria-6c" d="M 1138 781
Q 1138 513 1163 408
Q 1188 303 1258 248
Q 1328 194 1488 153
L 1488 0
L 247 0
L 247 153
Q 403 194 464 237
Q 525 281 551 342
Q 578 403 589 508
Q 600 613 600 781
L 600 3397
Q 600 3697 595 3815
Q 591 3934 570 4017
Q 550 4100 514 4147
Q 478 4194 417 4222
Q 356 4250 197 4278
L 197 4441
L 950 4472
L 1138 4472
L 1138 781
z
" transform="scale(0.015625)"/>
       <path id="Cambria-66" d="M 1909 2672
L 1163 2672
L 1163 781
Q 1163 572 1183 465
Q 1203 359 1242 304
Q 1281 250 1345 217
Q 1409 184 1550 153
L 1550 0
L 272 0
L 272 153
Q 409 191 468 225
Q 528 259 561 312
Q 594 366 609 466
Q 625 566 625 781
L 625 2672
L 247 2672
L 247 2831
Q 366 2850 405 2861
Q 444 2872 480 2894
Q 516 2916 542 2956
Q 569 2997 589 3076
Q 609 3156 622 3300
Q 650 3641 745 3853
Q 841 4066 1023 4216
Q 1206 4366 1414 4427
Q 1622 4488 1903 4488
Q 2150 4488 2322 4453
L 2322 3888
L 2013 3888
Q 1953 4072 1873 4148
Q 1794 4225 1650 4225
Q 1547 4225 1476 4197
Q 1406 4169 1347 4109
Q 1288 4050 1245 3950
Q 1203 3850 1183 3701
Q 1163 3553 1163 3316
L 1163 2988
L 1909 2988
L 1909 2672
z
" transform="scale(0.015625)"/>
       <path id="Cambria-61" d="M 2109 447
L 2063 459
Q 1791 181 1552 65
Q 1313 -50 1044 -50
Q 806 -50 625 42
Q 444 134 347 301
Q 250 469 250 688
Q 250 1144 701 1392
Q 1153 1641 2056 1681
L 2056 1884
Q 2056 2209 1993 2396
Q 1931 2584 1797 2671
Q 1663 2759 1438 2759
Q 1194 2759 1045 2631
Q 897 2503 822 2247
L 413 2247
L 413 2653
Q 713 2809 913 2882
Q 1113 2956 1313 2998
Q 1513 3041 1719 3041
Q 2028 3041 2215 2942
Q 2403 2844 2497 2641
Q 2591 2438 2591 2028
L 2591 941
Q 2591 709 2594 614
Q 2597 519 2612 437
Q 2628 356 2659 307
Q 2691 259 2752 225
Q 2813 191 2950 153
L 2950 0
L 2094 0
L 2109 447
z
M 2056 1425
Q 1422 1419 1106 1256
Q 791 1094 791 766
Q 791 588 862 484
Q 934 381 1043 342
Q 1153 303 1303 303
Q 1516 303 1689 406
Q 1863 509 1959 668
Q 2056 828 2056 984
L 2056 1425
z
" transform="scale(0.015625)"/>
       <path id="Cambria-6e" d="M 3347 0
L 2116 0
L 2116 153
Q 2238 191 2291 219
Q 2344 247 2380 297
Q 2416 347 2436 451
Q 2456 556 2456 769
L 2456 1588
Q 2456 1806 2443 1984
Q 2431 2163 2401 2277
Q 2372 2391 2330 2455
Q 2288 2519 2230 2564
Q 2172 2609 2097 2636
Q 2022 2663 1900 2663
Q 1778 2663 1668 2614
Q 1559 2566 1428 2447
Q 1297 2328 1237 2212
Q 1178 2097 1178 1947
L 1178 781
Q 1178 513 1203 408
Q 1228 303 1298 248
Q 1369 194 1528 153
L 1528 0
L 303 0
L 303 153
Q 425 191 476 219
Q 528 247 564 297
Q 600 347 620 450
Q 641 553 641 772
L 641 2134
Q 641 2334 634 2456
Q 628 2578 590 2651
Q 553 2725 476 2761
Q 400 2797 259 2822
L 259 2988
L 991 3016
L 1181 3016
L 1147 2506
L 1191 2494
Q 1422 2728 1564 2828
Q 1706 2928 1851 2983
Q 1997 3038 2159 3038
Q 2328 3038 2461 2998
Q 2594 2959 2695 2878
Q 2797 2797 2862 2676
Q 2928 2556 2961 2387
Q 2994 2219 2994 1959
L 2994 781
Q 2994 566 3006 469
Q 3019 372 3050 319
Q 3081 266 3140 230
Q 3200 194 3347 153
L 3347 0
z
" transform="scale(0.015625)"/>
      </defs>
      <use xlink:href="#Cambria-4f"/>
      <use xlink:href="#Cambria-62" transform="translate(65.332031 0)"/>
      <use xlink:href="#Cambria-73" transform="translate(120.068359 0)"/>
      <use xlink:href="#Cambria-65" transform="translate(163.037109 0)"/>
      <use xlink:href="#Cambria-72" transform="translate(211.816406 0)"/>
      <use xlink:href="#Cambria-76" transform="translate(253.173828 0)"/>
      <use xlink:href="#Cambria-65" transform="translate(303.564453 0)"/>
      <use xlink:href="#Cambria-64" transform="translate(352.34375 0)"/>
      <use xlink:href="#Cambria-20" transform="translate(407.8125 0)"/>
      <use xlink:href="#Cambria-74" transform="translate(429.833984 0)"/>
      <use xlink:href="#Cambria-72" transform="translate(463.671875 0)"/>
      <use xlink:href="#Cambria-75" transform="translate(505.029297 0)"/>
      <use xlink:href="#Cambria-65" transform="translate(560.253906 0)"/>
      <use xlink:href="#Cambria-2d" transform="translate(609.033203 0)"/>
      <use xlink:href="#Cambria-73" transform="translate(642.236328 0)"/>
      <use xlink:href="#Cambria-70" transform="translate(685.205078 0)"/>
      <use xlink:href="#Cambria-65" transform="translate(740.820312 0)"/>
      <use xlink:href="#Cambria-63" transform="translate(789.599609 0)"/>
      <use xlink:href="#Cambria-69" transform="translate(833.691406 0)"/>
      <use xlink:href="#Cambria-65" transform="translate(861.474609 0)"/>
      <use xlink:href="#Cambria-73" transform="translate(910.253906 0)"/>
      <use xlink:href="#Cambria-20" transform="translate(953.222656 0)"/>
      <use xlink:href="#Cambria-6d" transform="translate(975.244141 0)"/>
      <use xlink:href="#Cambria-6f" transform="translate(1058.447266 0)"/>
      <use xlink:href="#Cambria-6c" transform="translate(1111.523438 0)"/>
      <use xlink:href="#Cambria-65" transform="translate(1138.671875 0)"/>
      <use xlink:href="#Cambria-20" transform="translate(1187.451172 0)"/>
      <use xlink:href="#Cambria-66" transform="translate(1209.472656 0)"/>
      <use xlink:href="#Cambria-72" transform="translate(1239.746094 0)"/>
      <use xlink:href="#Cambria-61" transform="translate(1281.103516 0)"/>
      <use xlink:href="#Cambria-63" transform="translate(1329.931641 0)"/>
      <use xlink:href="#Cambria-74" transform="translate(1374.023438 0)"/>
      <use xlink:href="#Cambria-69" transform="translate(1407.861328 0)"/>
      <use xlink:href="#Cambria-6f" transform="translate(1435.644531 0)"/>
      <use xlink:href="#Cambria-6e" transform="translate(1488.720703 0)"/>
     </g>
    </g>
   </g>
   <g id="matplotlib.axis_2">
    <g id="ytick_1">
     <g id="line2d_20">
      <path d="M 47.92375 353.798514
L 489.602805 353.798514
" clip-path="url(#pf0a04aedc6)" style="fill: none; stroke: #b0b0b0; stroke-opacity: 0.22; stroke-width: 0.8; stroke-linecap: square"/>
     </g>
     <g id="line2d_21">
      <defs>
       <path id="mb1ca1c78a8" d="M 0 0
L -4 0
" style="stroke: #000000; stroke-width: 0.8"/>
      </defs>
      <g>
       <use xlink:href="#mb1ca1c78a8" x="47.92375" y="353.798514" style="stroke: #000000; stroke-width: 0.8"/>
      </g>
     </g>
     <g id="text_4">
      <!-- $\mathdefault{10^{-2}}$ -->
      <g transform="translate(21.22375 357.292264) scale(0.1 -0.1)">
       <use xlink:href="#Cambria-31" transform="translate(0 0.1125)"/>
       <use xlink:href="#Cambria-30" transform="translate(55.371094 0.1125)"/>
       <use xlink:href="#Cambria-2212" transform="translate(111.559219 32.79375) scale(0.7)"/>
       <use xlink:href="#Cambria-32" transform="translate(150.318984 32.79375) scale(0.7)"/>
      </g>
     </g>
    </g>
    <g id="ytick_2">
     <g id="line2d_22">
      <path d="M 47.92375 103.029873
L 489.602805 103.029873
" clip-path="url(#pf0a04aedc6)" style="fill: none; stroke: #b0b0b0; stroke-opacity: 0.22; stroke-width: 0.8; stroke-linecap: square"/>
     </g>
     <g id="line2d_23">
      <g>
       <use xlink:href="#mb1ca1c78a8" x="47.92375" y="103.029873" style="stroke: #000000; stroke-width: 0.8"/>
      </g>
     </g>
     <g id="text_5">
      <!-- $\mathdefault{10^{-1}}$ -->
      <g transform="translate(21.22375 106.523623) scale(0.1 -0.1)">
       <use xlink:href="#Cambria-31" transform="translate(0 0.1125)"/>
       <use xlink:href="#Cambria-30" transform="translate(55.371094 0.1125)"/>
       <use xlink:href="#Cambria-2212" transform="translate(111.559219 32.79375) scale(0.7)"/>
       <use xlink:href="#Cambria-31" transform="translate(150.318984 32.79375) scale(0.7)"/>
      </g>
     </g>
    </g>
    <g id="ytick_3">
     <g id="line2d_24">
      <defs>
       <path id="macae95c9a7" d="M 0 0
L -2 0
" style="stroke: #000000; stroke-width: 0.6"/>
      </defs>
      <g>
       <use xlink:href="#macae95c9a7" x="47.92375" y="453.58939" style="stroke: #000000; stroke-width: 0.6"/>
      </g>
     </g>
    </g>
    <g id="ytick_4">
     <g id="line2d_25">
      <g>
       <use xlink:href="#macae95c9a7" x="47.92375" y="429.287397" style="stroke: #000000; stroke-width: 0.6"/>
      </g>
     </g>
    </g>
    <g id="ytick_5">
     <g id="line2d_26">
      <g>
       <use xlink:href="#macae95c9a7" x="47.92375" y="409.431224" style="stroke: #000000; stroke-width: 0.6"/>
      </g>
     </g>
    </g>
    <g id="ytick_6">
     <g id="line2d_27">
      <g>
       <use xlink:href="#macae95c9a7" x="47.92375" y="392.643068" style="stroke: #000000; stroke-width: 0.6"/>
      </g>
     </g>
    </g>
    <g id="ytick_7">
     <g id="line2d_28">
      <g>
       <use xlink:href="#macae95c9a7" x="47.92375" y="378.100507" style="stroke: #000000; stroke-width: 0.6"/>
      </g>
     </g>
    </g>
    <g id="ytick_8">
     <g id="line2d_29">
      <g>
       <use xlink:href="#macae95c9a7" x="47.92375" y="365.273058" style="stroke: #000000; stroke-width: 0.6"/>
      </g>
     </g>
    </g>
    <g id="ytick_9">
     <g id="line2d_30">
      <g>
       <use xlink:href="#macae95c9a7" x="47.92375" y="278.309631" style="stroke: #000000; stroke-width: 0.6"/>
      </g>
     </g>
    </g>
    <g id="ytick_10">
     <g id="line2d_31">
      <g>
       <use xlink:href="#macae95c9a7" x="47.92375" y="234.151465" style="stroke: #000000; stroke-width: 0.6"/>
      </g>
     </g>
    </g>
    <g id="ytick_11">
     <g id="line2d_32">
      <g>
       <use xlink:href="#macae95c9a7" x="47.92375" y="202.820748" style="stroke: #000000; stroke-width: 0.6"/>
      </g>
     </g>
    </g>
    <g id="ytick_12">
     <g id="line2d_33">
      <g>
       <use xlink:href="#macae95c9a7" x="47.92375" y="178.518756" style="stroke: #000000; stroke-width: 0.6"/>
      </g>
     </g>
    </g>
    <g id="ytick_13">
     <g id="line2d_34">
      <g>
       <use xlink:href="#macae95c9a7" x="47.92375" y="158.662582" style="stroke: #000000; stroke-width: 0.6"/>
      </g>
     </g>
    </g>
    <g id="ytick_14">
     <g id="line2d_35">
      <g>
       <use xlink:href="#macae95c9a7" x="47.92375" y="141.874427" style="stroke: #000000; stroke-width: 0.6"/>
      </g>
     </g>
    </g>
    <g id="ytick_15">
     <g id="line2d_36">
      <g>
       <use xlink:href="#macae95c9a7" x="47.92375" y="127.331865" style="stroke: #000000; stroke-width: 0.6"/>
      </g>
     </g>
    </g>
    <g id="ytick_16">
     <g id="line2d_37">
      <g>
       <use xlink:href="#macae95c9a7" x="47.92375" y="114.504417" style="stroke: #000000; stroke-width: 0.6"/>
      </g>
     </g>
    </g>
    <g id="ytick_17">
     <g id="line2d_38">
      <g>
       <use xlink:href="#macae95c9a7" x="47.92375" y="27.54099" style="stroke: #000000; stroke-width: 0.6"/>
      </g>
     </g>
    </g>
    <g id="text_6">
     <!-- Model true-species mole fraction -->
     <g transform="translate(14.91375 318.801859) rotate(-90) scale(0.11 -0.11)">
      <defs>
       <path id="Cambria-4d" d="M 4841 4113
Q 4703 4078 4642 4043
Q 4581 4009 4545 3957
Q 4509 3906 4492 3803
Q 4475 3700 4475 3484
L 4475 781
Q 4475 572 4489 475
Q 4503 378 4536 322
Q 4569 266 4633 228
Q 4697 191 4841 153
L 4841 0
L 3538 0
L 3538 153
Q 3716 197 3784 253
Q 3853 309 3878 418
Q 3903 528 3903 781
L 3903 1978
Q 3903 2450 3917 2933
Q 3931 3416 3950 3594
L 3897 3594
L 2659 497
L 2300 497
L 1150 3644
L 1097 3644
Q 1113 3453 1127 2953
Q 1141 2453 1141 1925
L 1141 781
Q 1141 572 1155 475
Q 1169 378 1201 322
Q 1234 266 1298 228
Q 1363 191 1506 153
L 1506 0
L 366 0
L 366 153
Q 559 203 625 264
Q 691 325 711 437
Q 731 550 731 781
L 731 3484
Q 731 3700 715 3798
Q 700 3897 664 3951
Q 628 4006 568 4039
Q 509 4072 366 4113
L 366 4266
L 1481 4266
L 2578 1225
L 3784 4266
L 4841 4266
L 4841 4113
z
" transform="scale(0.015625)"/>
      </defs>
      <use xlink:href="#Cambria-4d"/>
      <use xlink:href="#Cambria-6f" transform="translate(81.542969 0)"/>
      <use xlink:href="#Cambria-64" transform="translate(134.619141 0)"/>
      <use xlink:href="#Cambria-65" transform="translate(190.087891 0)"/>
      <use xlink:href="#Cambria-6c" transform="translate(238.867188 0)"/>
      <use xlink:href="#Cambria-20" transform="translate(266.015625 0)"/>
      <use xlink:href="#Cambria-74" transform="translate(288.037109 0)"/>
      <use xlink:href="#Cambria-72" transform="translate(321.875 0)"/>
      <use xlink:href="#Cambria-75" transform="translate(363.232422 0)"/>
      <use xlink:href="#Cambria-65" transform="translate(418.457031 0)"/>
      <use xlink:href="#Cambria-2d" transform="translate(467.236328 0)"/>
      <use xlink:href="#Cambria-73" transform="translate(500.439453 0)"/>
      <use xlink:href="#Cambria-70" transform="translate(543.408203 0)"/>
      <use xlink:href="#Cambria-65" transform="translate(599.023438 0)"/>
      <use xlink:href="#Cambria-63" transform="translate(647.802734 0)"/>
      <use xlink:href="#Cambria-69" transform="translate(691.894531 0)"/>
      <use xlink:href="#Cambria-65" transform="translate(719.677734 0)"/>
      <use xlink:href="#Cambria-73" transform="translate(768.457031 0)"/>
      <use xlink:href="#Cambria-20" transform="translate(811.425781 0)"/>
      <use xlink:href="#Cambria-6d" transform="translate(833.447266 0)"/>
      <use xlink:href="#Cambria-6f" transform="translate(916.650391 0)"/>
      <use xlink:href="#Cambria-6c" transform="translate(969.726562 0)"/>
      <use xlink:href="#Cambria-65" transform="translate(996.875 0)"/>
      <use xlink:href="#Cambria-20" transform="translate(1045.654297 0)"/>
      <use xlink:href="#Cambria-66" transform="translate(1067.675781 0)"/>
      <use xlink:href="#Cambria-72" transform="translate(1097.949219 0)"/>
      <use xlink:href="#Cambria-61" transform="translate(1139.306641 0)"/>
      <use xlink:href="#Cambria-63" transform="translate(1188.134766 0)"/>
      <use xlink:href="#Cambria-74" transform="translate(1232.226562 0)"/>
      <use xlink:href="#Cambria-69" transform="translate(1266.064453 0)"/>
      <use xlink:href="#Cambria-6f" transform="translate(1293.847656 0)"/>
      <use xlink:href="#Cambria-6e" transform="translate(1346.923828 0)"/>
     </g>
    </g>
   </g>
   <g id="line2d_39">
    <path d="M 47.92375 457.01575
L 489.602805 26.28375
" clip-path="url(#pf0a04aedc6)" style="fill: none; stroke-dasharray: 1.5,2.475; stroke-dashoffset: 0; stroke: #000000; stroke-width: 1.5"/>
   </g>
   <g id="patch_3">
    <path d="M 47.92375 457.01575
L 47.92375 26.28375
" style="fill: none; stroke: #000000; stroke-width: 0.8; stroke-linejoin: miter; stroke-linecap: square"/>
   </g>
   <g id="patch_4">
    <path d="M 47.92375 457.01575
L 489.602805 457.01575
" style="fill: none; stroke: #000000; stroke-width: 0.8; stroke-linejoin: miter; stroke-linecap: square"/>
   </g>
   <g id="text_7">
    <!-- MEAH+/MEACOO- ion-parameter speciation parity -->
    <g transform="translate(118.123746 16.28375) scale(0.13 -0.13)">
     <defs>
      <path id="Cambria-Bold-4d" d="M 5113 4059
Q 4947 4013 4887 3958
Q 4828 3903 4804 3811
Q 4781 3719 4781 3484
L 4781 781
Q 4781 591 4800 480
Q 4819 369 4876 311
Q 4934 253 5113 206
L 5113 0
L 3509 0
L 3509 206
Q 3647 244 3700 272
Q 3753 300 3783 345
Q 3813 391 3827 483
Q 3841 575 3841 788
L 3841 2319
Q 3841 2572 3850 2915
Q 3859 3259 3869 3403
L 3803 3403
Q 3766 3278 3723 3158
Q 3681 3038 3566 2728
L 2728 472
L 2178 472
L 1297 3006
Q 1219 3222 1159 3434
L 1103 3434
Q 1134 2919 1134 2216
L 1134 778
Q 1134 547 1156 456
Q 1178 366 1243 306
Q 1309 247 1472 206
L 1472 0
L 291 0
L 291 206
Q 406 238 473 275
Q 541 313 575 375
Q 609 438 617 534
Q 625 631 625 781
L 625 3484
Q 625 3722 604 3809
Q 584 3897 525 3953
Q 466 4009 291 4059
L 291 4266
L 1844 4266
L 2709 1700
L 3647 4266
L 5113 4266
L 5113 4059
z
" transform="scale(0.015625)"/>
      <path id="Cambria-Bold-45" d="M 3400 4266
L 3400 3272
L 2972 3272
Q 2869 3569 2797 3673
Q 2725 3778 2625 3839
Q 2525 3900 2284 3900
L 1603 3900
L 1603 2400
L 2016 2400
Q 2153 2400 2231 2439
Q 2309 2478 2361 2568
Q 2413 2659 2459 2850
L 2813 2850
L 2813 1581
L 2459 1581
Q 2416 1763 2362 1858
Q 2309 1953 2236 1993
Q 2163 2034 2016 2034
L 1603 2034
L 1603 366
L 2281 366
Q 2391 366 2466 380
Q 2541 394 2600 428
Q 2659 463 2714 522
Q 2769 581 2811 650
Q 2853 719 2900 831
Q 2947 944 3003 1141
L 3431 1141
L 3372 0
L 300 0
L 300 206
Q 416 238 483 273
Q 550 309 583 373
Q 616 438 625 536
Q 634 634 634 784
L 634 3478
Q 634 3625 626 3725
Q 619 3825 586 3887
Q 553 3950 486 3989
Q 419 4028 300 4059
L 300 4266
L 3400 4266
z
" transform="scale(0.015625)"/>
      <path id="Cambria-Bold-41" d="M 2522 1322
L 1188 1322
L 1084 1025
Q 1041 900 1012 783
Q 984 666 984 534
Q 984 228 1309 206
L 1309 0
L -25 0
L -25 206
Q 91 219 178 287
Q 266 356 337 475
Q 409 594 491 816
L 1794 4288
L 2628 4288
L 3659 788
Q 3728 553 3775 454
Q 3822 356 3897 295
Q 3972 234 4106 206
L 4106 0
L 2381 0
L 2381 206
Q 2544 225 2622 297
Q 2700 369 2700 500
Q 2700 597 2678 715
Q 2656 834 2606 1016
L 2522 1322
z
M 1306 1688
L 2431 1688
L 1931 3447
L 1306 1688
z
" transform="scale(0.015625)"/>
      <path id="Cambria-Bold-48" d="M 3984 784
Q 3984 544 4004 455
Q 4025 366 4087 306
Q 4150 247 4316 206
L 4316 0
L 2684 0
L 2684 206
Q 2866 253 2919 300
Q 2972 347 2994 433
Q 3016 519 3016 784
L 3016 2038
L 1603 2038
L 1603 784
Q 1603 675 1609 581
Q 1616 488 1634 428
Q 1653 369 1689 328
Q 1725 288 1787 258
Q 1850 228 1941 206
L 1941 0
L 300 0
L 300 206
Q 416 238 483 273
Q 550 309 583 373
Q 616 438 625 536
Q 634 634 634 784
L 634 3478
Q 634 3625 626 3725
Q 619 3825 586 3887
Q 553 3950 486 3989
Q 419 4028 300 4059
L 300 4266
L 1941 4266
L 1941 4059
Q 1775 4013 1714 3956
Q 1653 3900 1628 3808
Q 1603 3716 1603 3475
L 1603 2431
L 3016 2431
L 3016 3475
Q 3016 3713 2995 3805
Q 2975 3897 2914 3955
Q 2853 4013 2684 4059
L 2684 4266
L 4316 4266
L 4316 4059
Q 4178 4022 4115 3980
Q 4053 3938 4026 3872
Q 4000 3806 3992 3725
Q 3984 3644 3984 3475
L 3984 784
z
" transform="scale(0.015625)"/>
      <path id="Cambria-Bold-2b" d="M 2228 1509
L 2228 309
L 1563 309
L 1563 1509
L 375 1509
L 375 2147
L 1563 2147
L 1563 3350
L 2228 3350
L 2228 2147
L 3416 2147
L 3416 1509
L 2228 1509
z
" transform="scale(0.015625)"/>
      <path id="Cambria-Bold-2f" d="M 3053 4472
L 797 -1344
L 181 -1344
L 2444 4472
L 3053 4472
z
" transform="scale(0.015625)"/>
      <path id="Cambria-Bold-43" d="M 3403 4169
L 3403 3263
L 2978 3263
Q 2903 3616 2740 3783
Q 2578 3950 2316 3950
Q 1822 3950 1569 3476
Q 1316 3003 1316 2072
Q 1316 1206 1547 761
Q 1778 316 2225 316
Q 2453 316 2597 392
Q 2741 469 2827 622
Q 2913 775 2975 1053
L 3403 1053
L 3403 106
Q 3059 25 2775 -12
Q 2491 -50 2184 -50
Q 1534 -50 1123 184
Q 713 419 517 892
Q 322 1366 322 2091
Q 322 2769 551 3270
Q 781 3772 1228 4044
Q 1675 4316 2297 4316
Q 2613 4316 2869 4281
Q 3125 4247 3403 4169
z
" transform="scale(0.015625)"/>
      <path id="Cambria-Bold-4f" d="M 2172 -50
Q 1253 -50 792 487
Q 331 1025 331 2097
Q 331 2800 554 3298
Q 778 3797 1212 4056
Q 1647 4316 2247 4316
Q 3181 4316 3650 3780
Q 4119 3244 4119 2188
Q 4119 1597 3980 1173
Q 3841 750 3584 478
Q 3328 206 2970 78
Q 2613 -50 2172 -50
z
M 1325 2181
Q 1325 1238 1551 777
Q 1778 316 2244 316
Q 2484 316 2653 445
Q 2822 575 2926 808
Q 3031 1041 3076 1359
Q 3122 1678 3122 2059
Q 3122 2681 3023 3101
Q 2925 3522 2726 3736
Q 2528 3950 2219 3950
Q 1766 3950 1545 3517
Q 1325 3084 1325 2181
z
" transform="scale(0.015625)"/>
      <path id="Cambria-Bold-2d" d="M 1819 1378
L 338 1378
L 338 2034
L 1819 2034
L 1819 1378
z
" transform="scale(0.015625)"/>
      <path id="Cambria-Bold-20" transform="scale(0.015625)"/>
      <path id="Cambria-Bold-69" d="M 1453 4347
L 1453 3581
L 597 3581
L 597 4347
L 1453 4347
z
M 266 206
Q 419 247 476 312
Q 534 378 554 490
Q 575 603 575 900
L 575 2353
Q 575 2506 561 2600
Q 547 2694 508 2750
Q 469 2806 401 2836
Q 334 2866 228 2888
L 228 3100
L 1088 3125
L 1478 3125
L 1478 903
Q 1478 728 1483 633
Q 1488 538 1497 486
Q 1506 434 1523 393
Q 1541 353 1569 318
Q 1597 284 1650 256
Q 1703 228 1791 206
L 1791 0
L 266 0
L 266 206
z
" transform="scale(0.015625)"/>
      <path id="Cambria-Bold-6f" d="M 1784 -50
Q 1325 -50 992 111
Q 659 272 471 626
Q 284 981 284 1528
Q 284 1947 400 2253
Q 516 2559 722 2759
Q 928 2959 1214 3054
Q 1500 3150 1834 3150
Q 2591 3150 2975 2751
Q 3359 2353 3359 1584
Q 3359 1041 3168 673
Q 2978 306 2625 128
Q 2272 -50 1784 -50
z
M 1234 1597
Q 1234 934 1382 604
Q 1531 275 1831 275
Q 1997 275 2108 359
Q 2219 444 2286 603
Q 2353 763 2381 986
Q 2409 1209 2409 1488
Q 2409 2159 2261 2492
Q 2113 2825 1822 2825
Q 1609 2825 1481 2690
Q 1353 2556 1293 2287
Q 1234 2019 1234 1597
z
" transform="scale(0.015625)"/>
      <path id="Cambria-Bold-6e" d="M 3666 0
L 2150 0
L 2150 206
Q 2294 241 2350 308
Q 2406 375 2426 489
Q 2447 603 2447 900
L 2447 1734
Q 2447 1956 2437 2098
Q 2428 2241 2408 2331
Q 2388 2422 2352 2483
Q 2316 2544 2272 2583
Q 2228 2622 2172 2640
Q 2116 2659 2028 2659
Q 1909 2659 1781 2586
Q 1653 2513 1565 2383
Q 1478 2253 1478 2106
L 1478 903
Q 1478 606 1497 490
Q 1516 375 1573 308
Q 1631 241 1778 206
L 1778 0
L 269 0
L 269 206
Q 419 247 476 312
Q 534 378 554 490
Q 575 603 575 900
L 575 2184
Q 575 2416 567 2527
Q 559 2638 529 2705
Q 500 2772 439 2814
Q 378 2856 228 2888
L 228 3100
L 1084 3125
L 1478 3125
L 1431 2675
L 1469 2666
Q 1663 2838 1809 2936
Q 1956 3034 2117 3092
Q 2278 3150 2456 3150
Q 2713 3150 2881 3076
Q 3050 3003 3154 2862
Q 3259 2722 3304 2519
Q 3350 2316 3350 2047
L 3350 903
Q 3350 766 3354 645
Q 3359 525 3378 453
Q 3397 381 3430 336
Q 3463 291 3522 259
Q 3581 228 3666 206
L 3666 0
z
" transform="scale(0.015625)"/>
      <path id="Cambria-Bold-70" d="M 1438 -559
Q 1438 -794 1463 -891
Q 1488 -988 1552 -1044
Q 1616 -1100 1778 -1138
L 1778 -1344
L 222 -1344
L 222 -1138
Q 369 -1094 426 -1041
Q 484 -988 509 -892
Q 534 -797 534 -559
L 534 2175
Q 534 2397 529 2490
Q 525 2584 508 2650
Q 491 2716 459 2758
Q 428 2800 367 2831
Q 306 2863 188 2888
L 188 3100
L 1053 3125
L 1438 3125
L 1391 2672
L 1428 2663
Q 1697 2922 1930 3036
Q 2163 3150 2409 3150
Q 2966 3150 3244 2758
Q 3522 2366 3522 1584
Q 3522 1044 3358 680
Q 3194 316 2869 133
Q 2544 -50 2069 -50
Q 1747 -50 1438 31
L 1438 -559
z
M 1438 1025
Q 1438 641 1570 458
Q 1703 275 1981 275
Q 2269 275 2420 576
Q 2572 878 2572 1438
Q 2572 2059 2436 2359
Q 2300 2659 2013 2659
Q 1872 2659 1739 2587
Q 1606 2516 1522 2383
Q 1438 2250 1438 2084
L 1438 1025
z
" transform="scale(0.015625)"/>
      <path id="Cambria-Bold-61" d="M 2116 409
L 2069 425
Q 1813 175 1570 62
Q 1328 -50 1056 -50
Q 788 -50 589 48
Q 391 147 289 322
Q 188 497 188 725
Q 188 1184 639 1448
Q 1091 1713 2009 1781
L 2009 2078
Q 2009 2369 1943 2526
Q 1878 2684 1775 2748
Q 1672 2813 1528 2813
Q 1384 2813 1279 2763
Q 1175 2713 1090 2573
Q 1006 2434 966 2188
L 375 2188
L 375 2756
Q 663 2884 853 2953
Q 1044 3022 1230 3067
Q 1416 3113 1562 3131
Q 1709 3150 1856 3150
Q 2234 3150 2461 3050
Q 2688 2950 2800 2725
Q 2913 2500 2913 2103
L 2913 884
Q 2913 678 2922 565
Q 2931 453 2951 398
Q 2972 344 3003 311
Q 3034 278 3079 258
Q 3125 238 3250 206
L 3250 0
L 2088 0
L 2116 409
z
M 2013 1475
Q 1528 1463 1295 1294
Q 1063 1125 1063 800
Q 1063 606 1169 504
Q 1275 403 1463 403
Q 1606 403 1734 479
Q 1863 556 1938 684
Q 2013 813 2013 956
L 2013 1475
z
" transform="scale(0.015625)"/>
      <path id="Cambria-Bold-72" d="M 1434 2653
L 1475 2644
Q 1703 2913 1943 3031
Q 2184 3150 2466 3150
Q 2656 3150 2866 3109
L 2866 2247
L 2300 2247
Q 2247 2428 2161 2525
Q 2075 2622 1931 2622
Q 1863 2622 1780 2580
Q 1697 2538 1626 2461
Q 1556 2384 1526 2304
Q 1497 2225 1487 2144
Q 1478 2063 1478 1900
L 1478 903
Q 1478 606 1500 487
Q 1522 369 1587 301
Q 1653 234 1809 206
L 1809 0
L 269 0
L 269 206
Q 419 247 476 312
Q 534 378 554 490
Q 575 603 575 900
L 575 2184
Q 575 2416 567 2527
Q 559 2638 529 2705
Q 500 2772 439 2814
Q 378 2856 228 2888
L 228 3100
L 1084 3125
L 1478 3125
L 1434 2653
z
" transform="scale(0.015625)"/>
      <path id="Cambria-Bold-6d" d="M 1431 2675
L 1469 2666
Q 1753 2931 1981 3040
Q 2209 3150 2447 3150
Q 2678 3150 2831 3090
Q 2984 3031 3090 2917
Q 3197 2803 3263 2619
Q 3578 2913 3811 3031
Q 4044 3150 4297 3150
Q 4547 3150 4711 3084
Q 4875 3019 4981 2881
Q 5088 2744 5136 2537
Q 5184 2331 5184 2044
L 5184 903
Q 5184 766 5189 645
Q 5194 525 5212 453
Q 5231 381 5264 336
Q 5297 291 5356 259
Q 5416 228 5500 206
L 5500 0
L 3994 0
L 3994 206
Q 4134 241 4187 306
Q 4241 372 4261 487
Q 4281 603 4281 900
L 4281 1738
Q 4281 2019 4262 2195
Q 4244 2372 4191 2472
Q 4138 2572 4064 2615
Q 3991 2659 3872 2659
Q 3791 2659 3722 2634
Q 3653 2609 3583 2557
Q 3513 2506 3463 2453
Q 3413 2400 3383 2334
Q 3353 2269 3342 2187
Q 3331 2106 3331 1922
L 3331 903
Q 3331 691 3339 578
Q 3347 466 3372 397
Q 3397 328 3451 283
Q 3506 238 3622 206
L 3622 0
L 2134 0
L 2134 206
Q 2278 241 2333 306
Q 2388 372 2406 486
Q 2425 600 2425 900
L 2425 1738
Q 2425 1944 2417 2086
Q 2409 2228 2390 2315
Q 2372 2403 2339 2468
Q 2306 2534 2264 2575
Q 2222 2616 2164 2637
Q 2106 2659 2019 2659
Q 1903 2659 1776 2587
Q 1650 2516 1564 2387
Q 1478 2259 1478 2113
L 1478 903
Q 1478 609 1495 492
Q 1513 375 1569 308
Q 1625 241 1766 206
L 1766 0
L 269 0
L 269 206
Q 419 247 476 312
Q 534 378 554 490
Q 575 603 575 900
L 575 2184
Q 575 2416 567 2527
Q 559 2638 529 2705
Q 500 2772 439 2814
Q 378 2856 228 2888
L 228 3100
L 1084 3125
L 1478 3125
L 1431 2675
z
" transform="scale(0.015625)"/>
      <path id="Cambria-Bold-65" d="M 3097 569
Q 2778 231 2465 90
Q 2153 -50 1747 -50
Q 1019 -50 651 348
Q 284 747 284 1531
Q 284 2038 473 2405
Q 663 2772 1009 2961
Q 1356 3150 1816 3150
Q 2100 3150 2314 3084
Q 2528 3019 2681 2901
Q 2834 2784 2934 2619
Q 3053 2422 3113 2169
Q 3175 1909 3178 1541
L 1197 1541
Q 1200 975 1398 708
Q 1597 441 2003 441
Q 2241 441 2431 530
Q 2622 619 2844 844
L 3097 569
z
M 2253 1878
Q 2241 2356 2128 2590
Q 2016 2825 1766 2825
Q 1525 2825 1383 2581
Q 1241 2338 1213 1878
L 2253 1878
z
" transform="scale(0.015625)"/>
      <path id="Cambria-Bold-74" d="M 2406 375
Q 2131 141 1906 45
Q 1681 -50 1431 -50
Q 966 -50 736 201
Q 506 453 506 963
L 506 2709
L 116 2709
L 116 2925
Q 306 2956 397 3018
Q 488 3081 538 3186
Q 588 3291 617 3459
Q 647 3628 663 3881
L 1409 3881
L 1409 3100
L 2300 3100
L 2300 2709
L 1409 2709
L 1409 1300
Q 1409 947 1442 778
Q 1475 609 1553 529
Q 1631 450 1747 450
Q 1834 450 1903 465
Q 1972 481 2048 522
Q 2125 563 2209 638
L 2406 375
z
" transform="scale(0.015625)"/>
      <path id="Cambria-Bold-73" d="M 672 844
Q 747 559 909 417
Q 1072 275 1344 275
Q 1578 275 1698 381
Q 1819 488 1819 691
Q 1819 819 1764 909
Q 1709 1000 1582 1083
Q 1456 1166 1150 1300
Q 978 1375 826 1465
Q 675 1556 562 1670
Q 450 1784 384 1925
Q 319 2066 319 2238
Q 319 2519 481 2725
Q 644 2931 945 3040
Q 1247 3150 1634 3150
Q 1863 3150 2081 3131
Q 2300 3113 2647 3050
L 2647 2322
L 2234 2322
Q 2163 2522 2077 2631
Q 1991 2741 1887 2783
Q 1784 2825 1641 2825
Q 1434 2825 1312 2731
Q 1191 2638 1191 2469
Q 1191 2350 1234 2265
Q 1278 2181 1390 2101
Q 1503 2022 1825 1888
Q 2119 1766 2303 1633
Q 2488 1500 2584 1326
Q 2681 1153 2681 922
Q 2681 669 2587 486
Q 2494 303 2325 184
Q 2156 66 1920 8
Q 1684 -50 1400 -50
Q 884 -50 253 97
L 253 844
L 672 844
z
" transform="scale(0.015625)"/>
      <path id="Cambria-Bold-63" d="M 2650 800
L 2891 509
Q 2584 209 2298 79
Q 2013 -50 1675 -50
Q 997 -50 640 348
Q 284 747 284 1506
Q 284 2019 479 2392
Q 675 2766 1040 2958
Q 1406 3150 1878 3150
Q 2131 3150 2382 3114
Q 2634 3078 2841 3016
L 2841 2263
L 2222 2263
Q 2175 2556 2081 2690
Q 1988 2825 1813 2825
Q 1697 2825 1592 2767
Q 1488 2709 1408 2567
Q 1328 2425 1281 2186
Q 1234 1947 1234 1581
Q 1234 1216 1303 964
Q 1372 713 1525 577
Q 1678 441 1928 441
Q 2109 441 2270 519
Q 2431 597 2650 800
z
" transform="scale(0.015625)"/>
      <path id="Cambria-Bold-79" d="M 1844 -141
Q 1641 -594 1461 -851
Q 1281 -1109 1073 -1237
Q 866 -1366 556 -1366
Q 322 -1366 119 -1306
L 119 -591
L 469 -591
Q 509 -738 570 -792
Q 631 -847 741 -847
Q 859 -847 954 -781
Q 1050 -716 1170 -536
Q 1291 -356 1466 0
L 1288 0
L 472 2347
Q 384 2594 332 2686
Q 281 2778 217 2826
Q 153 2875 59 2894
L 59 3100
L 1619 3100
L 1619 2894
Q 1472 2866 1403 2809
Q 1334 2753 1334 2641
Q 1334 2491 1416 2250
L 1866 884
L 2363 2081
Q 2425 2231 2456 2345
Q 2488 2459 2488 2569
Q 2488 2700 2413 2786
Q 2338 2872 2200 2894
L 2200 3100
L 3416 3100
L 3416 2891
Q 3325 2863 3270 2822
Q 3216 2781 3167 2715
Q 3119 2650 3050 2520
Q 2981 2391 2863 2128
L 1844 -141
z
" transform="scale(0.015625)"/>
     </defs>
     <use xlink:href="#Cambria-Bold-4d"/>
     <use xlink:href="#Cambria-Bold-45" transform="translate(84.619141 0)"/>
     <use xlink:href="#Cambria-Bold-41" transform="translate(141.632812 0)"/>
     <use xlink:href="#Cambria-Bold-48" transform="translate(206.818359 0)"/>
     <use xlink:href="#Cambria-Bold-2b" transform="translate(278.986328 0)"/>
     <use xlink:href="#Cambria-Bold-2f" transform="translate(338.214844 0)"/>
     <use xlink:href="#Cambria-Bold-4d" transform="translate(388.751953 0)"/>
     <use xlink:href="#Cambria-Bold-45" transform="translate(473.371094 0)"/>
     <use xlink:href="#Cambria-Bold-41" transform="translate(530.384766 0)"/>
     <use xlink:href="#Cambria-Bold-43" transform="translate(593.445312 0)"/>
     <use xlink:href="#Cambria-Bold-4f" transform="translate(649.269531 0)"/>
     <use xlink:href="#Cambria-Bold-4f" transform="translate(718.800781 0)"/>
     <use xlink:href="#Cambria-Bold-2d" transform="translate(788.332031 0)"/>
     <use xlink:href="#Cambria-Bold-20" transform="translate(822.023438 0)"/>
     <use xlink:href="#Cambria-Bold-69" transform="translate(844.044922 0)"/>
     <use xlink:href="#Cambria-Bold-6f" transform="translate(875.490234 0)"/>
     <use xlink:href="#Cambria-Bold-6e" transform="translate(932.423828 0)"/>
     <use xlink:href="#Cambria-Bold-2d" transform="translate(992.775391 0)"/>
     <use xlink:href="#Cambria-Bold-70" transform="translate(1026.466797 0)"/>
     <use xlink:href="#Cambria-Bold-61" transform="translate(1086.183594 0)"/>
     <use xlink:href="#Cambria-Bold-72" transform="translate(1139.699219 0)"/>
     <use xlink:href="#Cambria-Bold-61" transform="translate(1185.841797 0)"/>
     <use xlink:href="#Cambria-Bold-6d" transform="translate(1239.357422 0)"/>
     <use xlink:href="#Cambria-Bold-65" transform="translate(1328.371094 0)"/>
     <use xlink:href="#Cambria-Bold-74" transform="translate(1381.447266 0)"/>
     <use xlink:href="#Cambria-Bold-65" transform="translate(1417.970703 0)"/>
     <use xlink:href="#Cambria-Bold-72" transform="translate(1471.046875 0)"/>
     <use xlink:href="#Cambria-Bold-20" transform="translate(1517.189453 0)"/>
     <use xlink:href="#Cambria-Bold-73" transform="translate(1539.210938 0)"/>
     <use xlink:href="#Cambria-Bold-70" transform="translate(1585.109375 0)"/>
     <use xlink:href="#Cambria-Bold-65" transform="translate(1644.826172 0)"/>
     <use xlink:href="#Cambria-Bold-63" transform="translate(1697.902344 0)"/>
     <use xlink:href="#Cambria-Bold-69" transform="translate(1744.777344 0)"/>
     <use xlink:href="#Cambria-Bold-61" transform="translate(1776.222656 0)"/>
     <use xlink:href="#Cambria-Bold-74" transform="translate(1829.738281 0)"/>
     <use xlink:href="#Cambria-Bold-69" transform="translate(1866.261719 0)"/>
     <use xlink:href="#Cambria-Bold-6f" transform="translate(1897.707031 0)"/>
     <use xlink:href="#Cambria-Bold-6e" transform="translate(1954.640625 0)"/>
     <use xlink:href="#Cambria-Bold-20" transform="translate(2014.992188 0)"/>
     <use xlink:href="#Cambria-Bold-70" transform="translate(2037.013672 0)"/>
     <use xlink:href="#Cambria-Bold-61" transform="translate(2096.730469 0)"/>
     <use xlink:href="#Cambria-Bold-72" transform="translate(2150.246094 0)"/>
     <use xlink:href="#Cambria-Bold-69" transform="translate(2196.388672 0)"/>
     <use xlink:href="#Cambria-Bold-74" transform="translate(2227.833984 0)"/>
     <use xlink:href="#Cambria-Bold-79" transform="translate(2264.357422 0)"/>
    </g>
   </g>
   <g id="legend_1">
    <g id="text_8">
     <!-- Species and source -->
     <g transform="translate(75.040469 40.47125) scale(0.1 -0.1)">
      <defs>
       <path id="Cambria-53" d="M 663 972
Q 725 697 831 537
Q 938 378 1106 301
Q 1275 225 1541 225
Q 1906 225 2101 415
Q 2297 606 2297 972
Q 2297 1206 2215 1365
Q 2134 1525 1950 1665
Q 1766 1806 1388 1994
Q 1022 2175 809 2348
Q 597 2522 492 2725
Q 388 2928 388 3169
Q 388 3519 552 3776
Q 716 4034 1033 4175
Q 1350 4316 1759 4316
Q 1997 4316 2223 4291
Q 2450 4266 2791 4178
L 2791 3334
L 2481 3334
Q 2409 3609 2300 3762
Q 2191 3916 2044 3977
Q 1897 4038 1663 4038
Q 1459 4038 1298 3963
Q 1138 3888 1044 3736
Q 950 3584 950 3375
Q 950 3153 1029 3000
Q 1109 2847 1278 2715
Q 1447 2584 1778 2422
Q 2178 2222 2398 2050
Q 2619 1878 2742 1658
Q 2866 1438 2866 1144
Q 2866 816 2762 589
Q 2659 363 2476 220
Q 2294 78 2039 14
Q 1784 -50 1481 -50
Q 991 -50 350 116
L 350 972
L 663 972
z
" transform="scale(0.015625)"/>
      </defs>
      <use xlink:href="#Cambria-53"/>
      <use xlink:href="#Cambria-70" transform="translate(49.609375 0)"/>
      <use xlink:href="#Cambria-65" transform="translate(105.224609 0)"/>
      <use xlink:href="#Cambria-63" transform="translate(154.003906 0)"/>
      <use xlink:href="#Cambria-69" transform="translate(198.095703 0)"/>
      <use xlink:href="#Cambria-65" transform="translate(225.878906 0)"/>
      <use xlink:href="#Cambria-73" transform="translate(274.658203 0)"/>
      <use xlink:href="#Cambria-20" transform="translate(317.626953 0)"/>
      <use xlink:href="#Cambria-61" transform="translate(339.648438 0)"/>
      <use xlink:href="#Cambria-6e" transform="translate(388.476562 0)"/>
      <use xlink:href="#Cambria-64" transform="translate(444.287109 0)"/>
      <use xlink:href="#Cambria-20" transform="translate(499.755859 0)"/>
      <use xlink:href="#Cambria-73" transform="translate(521.777344 0)"/>
      <use xlink:href="#Cambria-6f" transform="translate(564.746094 0)"/>
      <use xlink:href="#Cambria-75" transform="translate(617.822266 0)"/>
      <use xlink:href="#Cambria-72" transform="translate(673.046875 0)"/>
      <use xlink:href="#Cambria-63" transform="translate(714.404297 0)"/>
      <use xlink:href="#Cambria-65" transform="translate(758.496094 0)"/>
     </g>
    </g>
    <g id="PathCollection_7">
     <g>
      <use xlink:href="#m914954789c" x="63.12375" y="50.95125" style="fill: #e377c2; fill-opacity: 0.75; stroke: #000000; stroke-opacity: 0.75; stroke-width: 0.3"/>
     </g>
    </g>
    <g id="text_9">
     <!-- $MEA + MEAH^+$ Bottinger -->
     <g transform="translate(77.52375 53.05125) scale(0.08 -0.08)">
      <defs>
       <path id="DejaVuSerif-Italic-4d" d="M -97 0
L -34 331
L 559 331
L 1338 4331
L 709 4331
L 775 4666
L 2134 4666
L 3125 1344
L 5409 4666
L 6684 4666
L 6619 4331
L 5997 4331
L 5222 331
L 5816 331
L 5753 0
L 3928 0
L 3991 331
L 4584 331
L 5288 3938
L 3053 684
L 2613 684
L 1647 3938
L 944 331
L 1538 331
L 1475 0
L -97 0
z
" transform="scale(0.015625)"/>
       <path id="DejaVuSerif-Italic-45" d="M -97 0
L -34 331
L 559 331
L 1338 4331
L 744 4331
L 809 4666
L 4566 4666
L 4366 3628
L 3981 3628
L 4106 4281
L 1963 4281
L 1659 2719
L 3188 2719
L 3300 3303
L 3684 3303
L 3384 1753
L 3000 1753
L 3113 2338
L 1584 2338
L 1206 384
L 3400 384
L 3525 1038
L 3909 1038
L 3709 0
L -97 0
z
" transform="scale(0.015625)"/>
       <path id="DejaVuSerif-Italic-41" d="M 1159 1691
L 2872 1691
L 2447 3909
L 1159 1691
z
M -488 0
L -425 331
L -16 331
L 2491 4666
L 3016 4666
L 3841 331
L 4297 331
L 4234 0
L 2538 0
L 2600 331
L 3119 331
L 2928 1356
L 966 1356
L 375 331
L 888 331
L 825 0
L -488 0
z
" transform="scale(0.015625)"/>
       <path id="DejaVuSerif-2b" d="M 2931 4013
L 2931 2259
L 4684 2259
L 4684 1753
L 2931 1753
L 2931 0
L 2431 0
L 2431 1753
L 678 1753
L 678 2259
L 2431 2259
L 2431 4013
L 2931 4013
z
" transform="scale(0.015625)"/>
       <path id="DejaVuSerif-Italic-48" d="M -97 0
L -34 331
L 559 331
L 1338 4331
L 744 4331
L 809 4666
L 2631 4666
L 2566 4331
L 1972 4331
L 1659 2719
L 4078 2719
L 4391 4331
L 3797 4331
L 3863 4666
L 5684 4666
L 5619 4331
L 5025 4331
L 4247 331
L 4841 331
L 4778 0
L 2956 0
L 3019 331
L 3616 331
L 4003 2338
L 1584 2338
L 1194 331
L 1788 331
L 1725 0
L -97 0
z
" transform="scale(0.015625)"/>
       <path id="Cambria-42" d="M 378 0
L 378 153
Q 572 203 637 264
Q 703 325 723 437
Q 744 550 744 781
L 744 3484
Q 744 3700 728 3798
Q 713 3897 677 3951
Q 641 4006 581 4039
Q 522 4072 378 4113
L 378 4266
L 2088 4266
Q 2584 4266 2886 4159
Q 3188 4053 3334 3845
Q 3481 3638 3481 3309
Q 3481 3038 3376 2838
Q 3272 2638 3103 2506
Q 2934 2375 2669 2263
L 2669 2234
Q 3094 2106 3312 1839
Q 3531 1572 3531 1203
Q 3531 778 3342 509
Q 3153 241 2812 120
Q 2472 0 1988 0
L 378 0
z
M 1875 2353
Q 2350 2353 2601 2583
Q 2853 2813 2853 3250
Q 2853 3466 2783 3608
Q 2713 3750 2589 3834
Q 2466 3919 2297 3955
Q 2128 3991 1931 3991
Q 1813 3991 1619 3984
Q 1425 3978 1328 3972
L 1328 2353
L 1875 2353
z
M 1328 297
Q 1556 275 1838 275
Q 2247 275 2473 378
Q 2700 481 2801 682
Q 2903 884 2903 1188
Q 2903 1491 2792 1687
Q 2681 1884 2450 1981
Q 2219 2078 1813 2078
L 1328 2078
L 1328 297
z
" transform="scale(0.015625)"/>
       <path id="Cambria-67" d="M 3106 2672
L 2528 2694
L 2500 2659
Q 2597 2563 2653 2395
Q 2709 2228 2709 2034
Q 2709 1525 2395 1248
Q 2081 972 1503 972
Q 1244 972 1056 1038
Q 819 856 819 681
Q 819 566 864 506
Q 909 447 1014 422
Q 1119 397 1331 397
L 2081 397
Q 2413 397 2622 294
Q 2831 191 2920 17
Q 3009 -156 3009 -388
Q 3009 -681 2840 -911
Q 2672 -1141 2353 -1269
Q 2034 -1397 1609 -1397
Q 1294 -1397 1033 -1359
Q 772 -1322 586 -1233
Q 400 -1144 298 -998
Q 197 -853 197 -634
Q 197 -438 328 -277
Q 459 -116 700 6
Q 553 66 468 181
Q 384 297 384 453
Q 384 631 484 779
Q 584 928 838 1119
Q 613 1250 495 1475
Q 378 1700 378 1988
Q 378 2256 467 2454
Q 556 2653 714 2783
Q 872 2913 1087 2977
Q 1303 3041 1553 3041
Q 1778 3041 2000 2988
L 3106 2988
L 3106 2672
z
M 938 2038
Q 938 1647 1097 1434
Q 1256 1222 1556 1222
Q 1716 1222 1828 1283
Q 1941 1344 2011 1450
Q 2081 1556 2114 1695
Q 2147 1834 2147 1988
Q 2147 2263 2069 2447
Q 1991 2631 1856 2717
Q 1722 2803 1547 2803
Q 1250 2803 1094 2606
Q 938 2409 938 2038
z
M 1016 -50
Q 856 -169 776 -301
Q 697 -434 697 -603
Q 697 -884 920 -1017
Q 1144 -1150 1603 -1150
Q 1884 -1150 2086 -1075
Q 2288 -1000 2394 -859
Q 2500 -719 2500 -531
Q 2500 -444 2478 -361
Q 2456 -278 2395 -212
Q 2334 -147 2221 -108
Q 2109 -69 1928 -69
L 1463 -69
Q 1209 -69 1016 -50
z
" transform="scale(0.015625)"/>
      </defs>
      <use xlink:href="#DejaVuSerif-Italic-4d" transform="translate(0 0.773438)"/>
      <use xlink:href="#DejaVuSerif-Italic-45" transform="translate(102.392578 0.773438)"/>
      <use xlink:href="#DejaVuSerif-Italic-41" transform="translate(175.390625 0.773438)"/>
      <use xlink:href="#DejaVuSerif-2b" transform="translate(266.572266 0.773438)"/>
      <use xlink:href="#DejaVuSerif-Italic-4d" transform="translate(369.326172 0.773438)"/>
      <use xlink:href="#DejaVuSerif-Italic-45" transform="translate(471.71875 0.773438)"/>
      <use xlink:href="#DejaVuSerif-Italic-41" transform="translate(544.716797 0.773438)"/>
      <use xlink:href="#DejaVuSerif-Italic-48" transform="translate(616.933594 0.773438)"/>
      <use xlink:href="#DejaVuSerif-2b" transform="translate(724.595026 37.107812) scale(0.7)"/>
      <use xlink:href="#Cambria-20" transform="translate(799.118073 0.773438)"/>
      <use xlink:href="#Cambria-42" transform="translate(821.139557 0.773438)"/>
      <use xlink:href="#Cambria-6f" transform="translate(882.27237 0.773438)"/>
      <use xlink:href="#Cambria-74" transform="translate(935.348542 0.773438)"/>
      <use xlink:href="#Cambria-74" transform="translate(969.186432 0.773438)"/>
      <use xlink:href="#Cambria-69" transform="translate(1003.024323 0.773438)"/>
      <use xlink:href="#Cambria-6e" transform="translate(1030.807526 0.773438)"/>
      <use xlink:href="#Cambria-67" transform="translate(1086.618073 0.773438)"/>
      <use xlink:href="#Cambria-65" transform="translate(1136.032135 0.773438)"/>
      <use xlink:href="#Cambria-72" transform="translate(1184.811432 0.773438)"/>
     </g>
    </g>
    <g id="PathCollection_8">
     <g>
      <use xlink:href="#mf537498391" x="63.12375" y="62.71125" style="fill: #d62728; fill-opacity: 0.75; stroke: #000000; stroke-opacity: 0.75; stroke-width: 0.3"/>
     </g>
    </g>
    <g id="text_10">
     <!-- $MEACOO^-$ Bottinger -->
     <g transform="translate(77.52375 64.81125) scale(0.08 -0.08)">
      <defs>
       <path id="DejaVuSerif-Italic-43" d="M 4300 1234
Q 3966 581 3414 245
Q 2863 -91 2119 -91
Q 1663 -91 1303 65
Q 944 222 700 525
Q 419 875 334 1320
Q 250 1766 359 2328
Q 572 3416 1330 4083
Q 2088 4750 3116 4750
Q 3497 4750 3908 4650
Q 4319 4550 4775 4347
L 4569 3272
L 4216 3272
Q 4213 3859 3919 4137
Q 3625 4416 2997 4416
Q 2250 4416 1762 3886
Q 1275 3356 1075 2328
Q 875 1303 1156 773
Q 1438 244 2184 244
Q 2706 244 3092 492
Q 3478 741 3725 1234
L 4300 1234
z
" transform="scale(0.015625)"/>
       <path id="DejaVuSerif-Italic-4f" d="M 2219 244
Q 2984 244 3478 770
Q 3972 1297 4172 2328
Q 4372 3363 4084 3889
Q 3797 4416 3031 4416
Q 2263 4416 1769 3889
Q 1275 3363 1075 2328
Q 875 1297 1162 770
Q 1450 244 2219 244
z
M 2153 -91
Q 1678 -91 1311 65
Q 944 222 700 525
Q 419 875 334 1319
Q 250 1763 359 2328
Q 469 2894 725 3339
Q 981 3784 1400 4134
Q 1766 4441 2191 4595
Q 2616 4750 3097 4750
Q 4113 4750 4608 4084
Q 5103 3419 4891 2328
Q 4781 1769 4522 1320
Q 4263 872 3847 525
Q 3481 219 3056 64
Q 2631 -91 2153 -91
z
" transform="scale(0.015625)"/>
       <path id="DejaVuSerif-2212" d="M 678 2259
L 4684 2259
L 4684 1753
L 678 1753
L 678 2259
z
" transform="scale(0.015625)"/>
      </defs>
      <use xlink:href="#DejaVuSerif-Italic-4d" transform="translate(0 0.78125)"/>
      <use xlink:href="#DejaVuSerif-Italic-45" transform="translate(102.392578 0.78125)"/>
      <use xlink:href="#DejaVuSerif-Italic-41" transform="translate(175.390625 0.78125)"/>
      <use xlink:href="#DejaVuSerif-Italic-43" transform="translate(247.607422 0.78125)"/>
      <use xlink:href="#DejaVuSerif-Italic-4f" transform="translate(324.121094 0.78125)"/>
      <use xlink:href="#DejaVuSerif-Italic-4f" transform="translate(406.103516 0.78125)"/>
      <use xlink:href="#DejaVuSerif-2212" transform="translate(508.724089 37.115625) scale(0.7)"/>
      <use xlink:href="#Cambria-20" transform="translate(583.247135 0.78125)"/>
      <use xlink:href="#Cambria-42" transform="translate(605.26862 0.78125)"/>
      <use xlink:href="#Cambria-6f" transform="translate(666.401432 0.78125)"/>
      <use xlink:href="#Cambria-74" transform="translate(719.477604 0.78125)"/>
      <use xlink:href="#Cambria-74" transform="translate(753.315495 0.78125)"/>
      <use xlink:href="#Cambria-69" transform="translate(787.153385 0.78125)"/>
      <use xlink:href="#Cambria-6e" transform="translate(814.936589 0.78125)"/>
      <use xlink:href="#Cambria-67" transform="translate(870.747135 0.78125)"/>
      <use xlink:href="#Cambria-65" transform="translate(920.161198 0.78125)"/>
      <use xlink:href="#Cambria-72" transform="translate(968.940495 0.78125)"/>
     </g>
    </g>
    <g id="PathCollection_9">
     <g>
      <use xlink:href="#mf537498391" x="63.12375" y="74.39125" style="fill: #d62728; fill-opacity: 0.75; stroke: #000000; stroke-opacity: 0.75; stroke-width: 0.3"/>
     </g>
    </g>
    <g id="text_11">
     <!-- $MEACOO^-$ Jakobsen -->
     <g transform="translate(77.52375 76.49125) scale(0.08 -0.08)">
      <defs>
       <path id="Cambria-4a" d="M 1275 213
Q 1275 -209 1176 -471
Q 1078 -734 845 -915
Q 613 -1097 194 -1225
L 91 -950
Q 366 -844 481 -736
Q 597 -628 642 -465
Q 688 -303 688 -28
L 688 3484
Q 688 3756 661 3856
Q 634 3956 573 4009
Q 513 4063 322 4113
L 322 4266
L 1641 4266
L 1641 4113
Q 1503 4078 1442 4043
Q 1381 4009 1345 3957
Q 1309 3906 1292 3803
Q 1275 3700 1275 3484
L 1275 213
z
" transform="scale(0.015625)"/>
       <path id="Cambria-6b" d="M 1138 1741
L 1238 1741
Q 1341 1741 1406 1763
Q 1484 1791 1578 1858
Q 1672 1925 1844 2084
Q 1988 2219 2061 2312
Q 2134 2406 2163 2484
Q 2188 2550 2188 2616
Q 2188 2709 2130 2762
Q 2072 2816 1941 2834
L 1941 2988
L 3288 2988
L 3288 2834
Q 3144 2806 2981 2706
Q 2819 2606 2647 2444
L 1928 1763
L 2828 588
Q 2984 381 3111 282
Q 3238 184 3388 153
L 3388 0
L 2188 0
L 2188 153
Q 2269 163 2308 189
Q 2347 216 2347 278
Q 2347 325 2330 370
Q 2313 416 2259 494
Q 2206 572 2066 766
L 1694 1266
Q 1588 1406 1542 1450
Q 1497 1494 1447 1512
Q 1397 1531 1313 1531
L 1138 1531
L 1138 781
Q 1138 513 1163 408
Q 1188 303 1258 248
Q 1328 194 1488 153
L 1488 0
L 247 0
L 247 153
Q 403 194 464 237
Q 525 281 551 342
Q 578 403 589 508
Q 600 613 600 781
L 600 3397
Q 600 3697 595 3815
Q 591 3934 570 4017
Q 550 4100 514 4147
Q 478 4194 417 4222
Q 356 4250 197 4278
L 197 4441
L 950 4472
L 1138 4472
L 1138 1741
z
" transform="scale(0.015625)"/>
      </defs>
      <use xlink:href="#DejaVuSerif-Italic-4d" transform="translate(0 0.78125)"/>
      <use xlink:href="#DejaVuSerif-Italic-45" transform="translate(102.392578 0.78125)"/>
      <use xlink:href="#DejaVuSerif-Italic-41" transform="translate(175.390625 0.78125)"/>
      <use xlink:href="#DejaVuSerif-Italic-43" transform="translate(247.607422 0.78125)"/>
      <use xlink:href="#DejaVuSerif-Italic-4f" transform="translate(324.121094 0.78125)"/>
      <use xlink:href="#DejaVuSerif-Italic-4f" transform="translate(406.103516 0.78125)"/>
      <use xlink:href="#DejaVuSerif-2212" transform="translate(508.724089 37.115625) scale(0.7)"/>
      <use xlink:href="#Cambria-20" transform="translate(583.247135 0.78125)"/>
      <use xlink:href="#Cambria-4a" transform="translate(604.39362 0.78125)"/>
      <use xlink:href="#Cambria-61" transform="translate(635.057682 0.78125)"/>
      <use xlink:href="#Cambria-6b" transform="translate(683.885807 0.78125)"/>
      <use xlink:href="#Cambria-6f" transform="translate(736.327214 0.78125)"/>
      <use xlink:href="#Cambria-62" transform="translate(789.403385 0.78125)"/>
      <use xlink:href="#Cambria-73" transform="translate(844.139714 0.78125)"/>
      <use xlink:href="#Cambria-65" transform="translate(887.108464 0.78125)"/>
      <use xlink:href="#Cambria-6e" transform="translate(935.88776 0.78125)"/>
     </g>
    </g>
    <g id="PathCollection_10">
     <g>
      <use xlink:href="#mf537498391" x="63.12375" y="85.67125" style="fill: #d62728; fill-opacity: 0.75; stroke: #000000; stroke-opacity: 0.75; stroke-width: 0.3"/>
     </g>
    </g>
    <g id="text_12">
     <!-- $MEACOO^-$ Matin -->
     <g transform="translate(77.52375 87.77125) scale(0.08 -0.08)">
      <use xlink:href="#DejaVuSerif-Italic-4d" transform="translate(0 0.78125)"/>
      <use xlink:href="#DejaVuSerif-Italic-45" transform="translate(102.392578 0.78125)"/>
      <use xlink:href="#DejaVuSerif-Italic-41" transform="translate(175.390625 0.78125)"/>
      <use xlink:href="#DejaVuSerif-Italic-43" transform="translate(247.607422 0.78125)"/>
      <use xlink:href="#DejaVuSerif-Italic-4f" transform="translate(324.121094 0.78125)"/>
      <use xlink:href="#DejaVuSerif-Italic-4f" transform="translate(406.103516 0.78125)"/>
      <use xlink:href="#DejaVuSerif-2212" transform="translate(508.724089 37.115625) scale(0.7)"/>
      <use xlink:href="#Cambria-20" transform="translate(583.247135 0.78125)"/>
      <use xlink:href="#Cambria-4d" transform="translate(605.26862 0.78125)"/>
      <use xlink:href="#Cambria-61" transform="translate(686.811589 0.78125)"/>
      <use xlink:href="#Cambria-74" transform="translate(735.639714 0.78125)"/>
      <use xlink:href="#Cambria-69" transform="translate(769.477604 0.78125)"/>
      <use xlink:href="#Cambria-6e" transform="translate(797.260807 0.78125)"/>
     </g>
    </g>
    <g id="PathCollection_11">
     <g>
      <use xlink:href="#m9e08133eb5" x="63.12375" y="97.75125" style="fill: #bcbd22; fill-opacity: 0.75; stroke: #000000; stroke-opacity: 0.75; stroke-width: 0.3"/>
     </g>
    </g>
    <g id="text_13">
     <!-- $MEAH^+$ Jakobsen -->
     <g transform="translate(77.52375 99.85125) scale(0.08 -0.08)">
      <use xlink:href="#DejaVuSerif-Italic-4d" transform="translate(0 0.773438)"/>
      <use xlink:href="#DejaVuSerif-Italic-45" transform="translate(102.392578 0.773438)"/>
      <use xlink:href="#DejaVuSerif-Italic-41" transform="translate(175.390625 0.773438)"/>
      <use xlink:href="#DejaVuSerif-Italic-48" transform="translate(247.607422 0.773438)"/>
      <use xlink:href="#DejaVuSerif-2b" transform="translate(355.268854 37.107812) scale(0.7)"/>
      <use xlink:href="#Cambria-20" transform="translate(429.791901 0.773438)"/>
      <use xlink:href="#Cambria-4a" transform="translate(450.938385 0.773438)"/>
      <use xlink:href="#Cambria-61" transform="translate(481.602448 0.773438)"/>
      <use xlink:href="#Cambria-6b" transform="translate(530.430573 0.773438)"/>
      <use xlink:href="#Cambria-6f" transform="translate(582.871979 0.773438)"/>
      <use xlink:href="#Cambria-62" transform="translate(635.948151 0.773438)"/>
      <use xlink:href="#Cambria-73" transform="translate(690.684479 0.773438)"/>
      <use xlink:href="#Cambria-65" transform="translate(733.653229 0.773438)"/>
      <use xlink:href="#Cambria-6e" transform="translate(782.432526 0.773438)"/>
     </g>
    </g>
    <g id="PathCollection_12">
     <g>
      <use xlink:href="#m9e08133eb5" x="63.12375" y="109.03125" style="fill: #bcbd22; fill-opacity: 0.75; stroke: #000000; stroke-opacity: 0.75; stroke-width: 0.3"/>
     </g>
    </g>
    <g id="text_14">
     <!-- $MEAH^+$ Matin -->
     <g transform="translate(77.52375 111.13125) scale(0.08 -0.08)">
      <use xlink:href="#DejaVuSerif-Italic-4d" transform="translate(0 0.773438)"/>
      <use xlink:href="#DejaVuSerif-Italic-45" transform="translate(102.392578 0.773438)"/>
      <use xlink:href="#DejaVuSerif-Italic-41" transform="translate(175.390625 0.773438)"/>
      <use xlink:href="#DejaVuSerif-Italic-48" transform="translate(247.607422 0.773438)"/>
      <use xlink:href="#DejaVuSerif-2b" transform="translate(355.268854 37.107812) scale(0.7)"/>
      <use xlink:href="#Cambria-20" transform="translate(429.791901 0.773438)"/>
      <use xlink:href="#Cambria-4d" transform="translate(451.813385 0.773438)"/>
      <use xlink:href="#Cambria-61" transform="translate(533.356354 0.773438)"/>
      <use xlink:href="#Cambria-74" transform="translate(582.184479 0.773438)"/>
      <use xlink:href="#Cambria-69" transform="translate(616.02237 0.773438)"/>
      <use xlink:href="#Cambria-6e" transform="translate(643.805573 0.773438)"/>
     </g>
    </g>
    <g id="line2d_40">
     <path d="M 55.12375 119.61125
L 63.12375 119.61125
L 71.12375 119.61125
" style="fill: none; stroke-dasharray: 1.5,2.475; stroke-dashoffset: 0; stroke: #000000; stroke-width: 1.5"/>
    </g>
    <g id="text_15">
     <!-- 1:1 -->
     <g transform="translate(77.52375 122.41125) scale(0.08 -0.08)">
      <defs>
       <path id="Cambria-3a" d="M 1156 2822
L 1156 2091
L 531 2091
L 531 2822
L 1156 2822
z
M 1156 725
L 1156 0
L 531 0
L 531 725
L 1156 725
z
" transform="scale(0.015625)"/>
      </defs>
      <use xlink:href="#Cambria-31"/>
      <use xlink:href="#Cambria-3a" transform="translate(55.371094 0)"/>
      <use xlink:href="#Cambria-31" transform="translate(81.738281 0)"/>
     </g>
    </g>
   </g>
  </g>
 </g>
 <defs>
  <clipPath id="pf0a04aedc6">
   <rect x="47.92375" y="26.28375" width="441.679055" height="430.732"/>
  </clipPath>
 </defs>
</svg>
