<?xml version="1.0" encoding="utf-8" standalone="no"?>
<!DOCTYPE svg PUBLIC "-//W3C//DTD SVG 1.1//EN"
  "http://www.w3.org/Graphics/SVG/1.1/DTD/svg11.dtd">
<svg xmlns:xlink="http://www.w3.org/1999/xlink" width="789.930391pt" height="524.769211pt" viewBox="0 0 789.930391 524.769211" xmlns="http://www.w3.org/2000/svg" version="1.1">
 <metadata>
  <rdf:RDF xmlns:dc="http://purl.org/dc/elements/1.1/" xmlns:cc="http://creativecommons.org/ns#" xmlns:rdf="http://www.w3.org/1999/02/22-rdf-syntax-ns#">
   <cc:Work>
    <dc:type rdf:resource="http://purl.org/dc/dcmitype/StillImage"/>
    <dc:date>2026-07-09T17:06:27.016231</dc:date>
    <dc:format>image/svg+xml</dc:format>
    <dc:creator>
     <cc:Agent>
      <dc:title>Matplotlib v3.10.9, https://matplotlib.org/</dc:title>
     </cc:Agent>
    </dc:creator>
   </cc:Work>
  </rdf:RDF>
 </metadata>
 <defs>
  <style type="text/css">*{stroke-linejoin: round; stroke-linecap: butt}</style>
 </defs>
 <g id="figure_1">
  <g id="patch_1">
   <path d="M 0 524.769211
L 789.930391 524.769211
L 789.930391 0
L 0 0
z
" style="fill: #ffffff"/>
  </g>
  <g id="axes_1">
   <g id="patch_2">
    <path d="M 59.140938 484.51718
L 771.040937 484.51718
L 771.040937 11.18918
L 59.140938 11.18918
z
" style="fill: #ffffff"/>
   </g>
   <g id="matplotlib.axis_1">
    <g id="xtick_1">
     <g id="line2d_1">
      <defs>
       <path id="m302d7e7ef7" d="M 0 0
L 0 4.5
" style="stroke: #000000; stroke-width: 0.9"/>
      </defs>
      <g>
       <use xlink:href="#m302d7e7ef7" x="59.140938" y="484.51718" style="stroke: #000000; stroke-width: 0.9"/>
      </g>
     </g>
     <g id="text_1">
      <!-- 0.00 -->
      <g transform="translate(47.451484 500.495539) scale(0.105 -0.105)">
       <defs>
        <path id="DejaVuSerif-30" d="M 2034 219
Q 2513 219 2750 744
Q 2988 1269 2988 2328
Q 2988 3391 2750 3916
Q 2513 4441 2034 4441
Q 1556 4441 1318 3916
Q 1081 3391 1081 2328
Q 1081 1269 1318 744
Q 1556 219 2034 219
z
M 2034 -91
Q 1275 -91 848 546
Q 422 1184 422 2328
Q 422 3475 848 4112
Q 1275 4750 2034 4750
Q 2797 4750 3222 4112
Q 3647 3475 3647 2328
Q 3647 1184 3222 546
Q 2797 -91 2034 -91
z
" transform="scale(0.015625)"/>
        <path id="DejaVuSerif-2e" d="M 603 325
Q 603 500 722 622
Q 841 744 1019 744
Q 1191 744 1312 622
Q 1434 500 1434 325
Q 1434 153 1312 31
Q 1191 -91 1019 -91
Q 841 -91 722 29
Q 603 150 603 325
z
" transform="scale(0.015625)"/>
       </defs>
       <use xlink:href="#DejaVuSerif-30"/>
       <use xlink:href="#DejaVuSerif-2e" transform="translate(63.623047 0)"/>
       <use xlink:href="#DejaVuSerif-30" transform="translate(95.410156 0)"/>
       <use xlink:href="#DejaVuSerif-30" transform="translate(159.033203 0)"/>
      </g>
     </g>
    </g>
    <g id="xtick_2">
     <g id="line2d_2">
      <g>
       <use xlink:href="#m302d7e7ef7" x="130.330938" y="484.51718" style="stroke: #000000; stroke-width: 0.9"/>
      </g>
     </g>
     <g id="text_2">
      <!-- 0.08 -->
      <g transform="translate(118.641484 500.495539) scale(0.105 -0.105)">
       <defs>
        <path id="DejaVuSerif-38" d="M 2981 1275
Q 2981 1775 2732 2051
Q 2484 2328 2034 2328
Q 1584 2328 1336 2051
Q 1088 1775 1088 1275
Q 1088 772 1336 495
Q 1584 219 2034 219
Q 2484 219 2732 495
Q 2981 772 2981 1275
z
M 2853 3541
Q 2853 3966 2637 4203
Q 2422 4441 2034 4441
Q 1650 4441 1433 4203
Q 1216 3966 1216 3541
Q 1216 3113 1433 2875
Q 1650 2638 2034 2638
Q 2422 2638 2637 2875
Q 2853 3113 2853 3541
z
M 2516 2484
Q 3047 2413 3344 2092
Q 3641 1772 3641 1275
Q 3641 619 3225 264
Q 2809 -91 2034 -91
Q 1263 -91 845 264
Q 428 619 428 1275
Q 428 1772 725 2092
Q 1022 2413 1556 2484
Q 1084 2569 832 2842
Q 581 3116 581 3541
Q 581 4103 968 4426
Q 1356 4750 2034 4750
Q 2713 4750 3100 4426
Q 3488 4103 3488 3541
Q 3488 3116 3236 2842
Q 2984 2569 2516 2484
z
" transform="scale(0.015625)"/>
       </defs>
       <use xlink:href="#DejaVuSerif-30"/>
       <use xlink:href="#DejaVuSerif-2e" transform="translate(63.623047 0)"/>
       <use xlink:href="#DejaVuSerif-30" transform="translate(95.410156 0)"/>
       <use xlink:href="#DejaVuSerif-38" transform="translate(159.033203 0)"/>
      </g>
     </g>
    </g>
    <g id="xtick_3">
     <g id="line2d_3">
      <g>
       <use xlink:href="#m302d7e7ef7" x="201.520937" y="484.51718" style="stroke: #000000; stroke-width: 0.9"/>
      </g>
     </g>
     <g id="text_3">
      <!-- 0.16 -->
      <g transform="translate(189.831484 500.495539) scale(0.105 -0.105)">
       <defs>
        <path id="DejaVuSerif-31" d="M 909 0
L 909 331
L 1722 331
L 1722 4213
L 781 3603
L 781 4013
L 1919 4750
L 2350 4750
L 2350 331
L 3163 331
L 3163 0
L 909 0
z
" transform="scale(0.015625)"/>
        <path id="DejaVuSerif-36" d="M 2094 219
Q 2534 219 2771 542
Q 3009 866 3009 1472
Q 3009 2078 2771 2401
Q 2534 2725 2094 2725
Q 1647 2725 1412 2412
Q 1178 2100 1178 1509
Q 1178 888 1415 553
Q 1653 219 2094 219
z
M 1075 2569
Q 1288 2803 1556 2918
Q 1825 3034 2163 3034
Q 2859 3034 3264 2615
Q 3669 2197 3669 1472
Q 3669 763 3233 336
Q 2797 -91 2069 -91
Q 1278 -91 853 498
Q 428 1088 428 2181
Q 428 3406 931 4078
Q 1434 4750 2350 4750
Q 2597 4750 2869 4703
Q 3141 4656 3425 4563
L 3425 3794
L 3072 3794
Q 3034 4109 2831 4275
Q 2628 4441 2284 4441
Q 1678 4441 1381 3981
Q 1084 3522 1075 2569
z
" transform="scale(0.015625)"/>
       </defs>
       <use xlink:href="#DejaVuSerif-30"/>
       <use xlink:href="#DejaVuSerif-2e" transform="translate(63.623047 0)"/>
       <use xlink:href="#DejaVuSerif-31" transform="translate(95.410156 0)"/>
       <use xlink:href="#DejaVuSerif-36" transform="translate(159.033203 0)"/>
      </g>
     </g>
    </g>
    <g id="xtick_4">
     <g id="line2d_4">
      <g>
       <use xlink:href="#m302d7e7ef7" x="272.710937" y="484.51718" style="stroke: #000000; stroke-width: 0.9"/>
      </g>
     </g>
     <g id="text_4">
      <!-- 0.24 -->
      <g transform="translate(261.021484 500.495539) scale(0.105 -0.105)">
       <defs>
        <path id="DejaVuSerif-32" d="M 819 3553
L 469 3553
L 469 4384
Q 803 4563 1142 4656
Q 1481 4750 1806 4750
Q 2534 4750 2956 4397
Q 3378 4044 3378 3438
Q 3378 2753 2422 1800
Q 2347 1728 2309 1691
L 1131 513
L 3078 513
L 3078 1088
L 3444 1088
L 3444 0
L 434 0
L 434 341
L 1850 1753
Q 2319 2222 2519 2614
Q 2719 3006 2719 3438
Q 2719 3909 2473 4175
Q 2228 4441 1797 4441
Q 1350 4441 1106 4219
Q 863 3997 819 3553
z
" transform="scale(0.015625)"/>
        <path id="DejaVuSerif-34" d="M 2234 1581
L 2234 4063
L 641 1581
L 2234 1581
z
M 3609 0
L 1484 0
L 1484 331
L 2234 331
L 2234 1247
L 197 1247
L 197 1588
L 2241 4750
L 2859 4750
L 2859 1581
L 3750 1581
L 3750 1247
L 2859 1247
L 2859 331
L 3609 331
L 3609 0
z
" transform="scale(0.015625)"/>
       </defs>
       <use xlink:href="#DejaVuSerif-30"/>
       <use xlink:href="#DejaVuSerif-2e" transform="translate(63.623047 0)"/>
       <use xlink:href="#DejaVuSerif-32" transform="translate(95.410156 0)"/>
       <use xlink:href="#DejaVuSerif-34" transform="translate(159.033203 0)"/>
      </g>
     </g>
    </g>
    <g id="xtick_5">
     <g id="line2d_5">
      <g>
       <use xlink:href="#m302d7e7ef7" x="343.900937" y="484.51718" style="stroke: #000000; stroke-width: 0.9"/>
      </g>
     </g>
     <g id="text_5">
      <!-- 0.32 -->
      <g transform="translate(332.211484 500.495539) scale(0.105 -0.105)">
       <defs>
        <path id="DejaVuSerif-33" d="M 622 4469
Q 988 4606 1323 4678
Q 1659 4750 1953 4750
Q 2638 4750 3022 4454
Q 3406 4159 3406 3634
Q 3406 3213 3140 2930
Q 2875 2647 2388 2547
Q 2963 2466 3280 2130
Q 3597 1794 3597 1259
Q 3597 606 3158 257
Q 2719 -91 1894 -91
Q 1528 -91 1179 -12
Q 831 66 488 225
L 488 1131
L 838 1131
Q 869 681 1141 450
Q 1413 219 1906 219
Q 2384 219 2661 495
Q 2938 772 2938 1253
Q 2938 1803 2653 2086
Q 2369 2369 1819 2369
L 1522 2369
L 1522 2688
L 1678 2688
Q 2225 2688 2498 2914
Q 2772 3141 2772 3597
Q 2772 4006 2547 4223
Q 2322 4441 1900 4441
Q 1478 4441 1245 4241
Q 1013 4041 972 3647
L 622 3647
L 622 4469
z
" transform="scale(0.015625)"/>
       </defs>
       <use xlink:href="#DejaVuSerif-30"/>
       <use xlink:href="#DejaVuSerif-2e" transform="translate(63.623047 0)"/>
       <use xlink:href="#DejaVuSerif-33" transform="translate(95.410156 0)"/>
       <use xlink:href="#DejaVuSerif-32" transform="translate(159.033203 0)"/>
      </g>
     </g>
    </g>
    <g id="xtick_6">
     <g id="line2d_6">
      <g>
       <use xlink:href="#m302d7e7ef7" x="415.090937" y="484.51718" style="stroke: #000000; stroke-width: 0.9"/>
      </g>
     </g>
     <g id="text_6">
      <!-- 0.40 -->
      <g transform="translate(403.401484 500.495539) scale(0.105 -0.105)">
       <use xlink:href="#DejaVuSerif-30"/>
       <use xlink:href="#DejaVuSerif-2e" transform="translate(63.623047 0)"/>
       <use xlink:href="#DejaVuSerif-34" transform="translate(95.410156 0)"/>
       <use xlink:href="#DejaVuSerif-30" transform="translate(159.033203 0)"/>
      </g>
     </g>
    </g>
    <g id="xtick_7">
     <g id="line2d_7">
      <g>
       <use xlink:href="#m302d7e7ef7" x="486.280937" y="484.51718" style="stroke: #000000; stroke-width: 0.9"/>
      </g>
     </g>
     <g id="text_7">
      <!-- 0.48 -->
      <g transform="translate(474.591484 500.495539) scale(0.105 -0.105)">
       <use xlink:href="#DejaVuSerif-30"/>
       <use xlink:href="#DejaVuSerif-2e" transform="translate(63.623047 0)"/>
       <use xlink:href="#DejaVuSerif-34" transform="translate(95.410156 0)"/>
       <use xlink:href="#DejaVuSerif-38" transform="translate(159.033203 0)"/>
      </g>
     </g>
    </g>
    <g id="xtick_8">
     <g id="line2d_8">
      <g>
       <use xlink:href="#m302d7e7ef7" x="557.470937" y="484.51718" style="stroke: #000000; stroke-width: 0.9"/>
      </g>
     </g>
     <g id="text_8">
      <!-- 0.56 -->
      <g transform="translate(545.781484 500.495539) scale(0.105 -0.105)">
       <defs>
        <path id="DejaVuSerif-35" d="M 3219 4666
L 3219 4153
L 1081 4153
L 1081 2816
Q 1244 2928 1461 2984
Q 1678 3041 1947 3041
Q 2703 3041 3140 2622
Q 3578 2203 3578 1478
Q 3578 738 3136 323
Q 2694 -91 1894 -91
Q 1572 -91 1234 -12
Q 897 66 544 225
L 544 1131
L 897 1131
Q 925 688 1179 453
Q 1434 219 1894 219
Q 2388 219 2653 544
Q 2919 869 2919 1478
Q 2919 2084 2655 2407
Q 2391 2731 1894 2731
Q 1613 2731 1398 2631
Q 1184 2531 1019 2322
L 750 2322
L 750 4666
L 3219 4666
z
" transform="scale(0.015625)"/>
       </defs>
       <use xlink:href="#DejaVuSerif-30"/>
       <use xlink:href="#DejaVuSerif-2e" transform="translate(63.623047 0)"/>
       <use xlink:href="#DejaVuSerif-35" transform="translate(95.410156 0)"/>
       <use xlink:href="#DejaVuSerif-36" transform="translate(159.033203 0)"/>
      </g>
     </g>
    </g>
    <g id="xtick_9">
     <g id="line2d_9">
      <g>
       <use xlink:href="#m302d7e7ef7" x="628.660937" y="484.51718" style="stroke: #000000; stroke-width: 0.9"/>
      </g>
     </g>
     <g id="text_9">
      <!-- 0.64 -->
      <g transform="translate(616.971484 500.495539) scale(0.105 -0.105)">
       <use xlink:href="#DejaVuSerif-30"/>
       <use xlink:href="#DejaVuSerif-2e" transform="translate(63.623047 0)"/>
       <use xlink:href="#DejaVuSerif-36" transform="translate(95.410156 0)"/>
       <use xlink:href="#DejaVuSerif-34" transform="translate(159.033203 0)"/>
      </g>
     </g>
    </g>
    <g id="xtick_10">
     <g id="line2d_10">
      <g>
       <use xlink:href="#m302d7e7ef7" x="699.850937" y="484.51718" style="stroke: #000000; stroke-width: 0.9"/>
      </g>
     </g>
     <g id="text_10">
      <!-- 0.72 -->
      <g transform="translate(688.161484 500.495539) scale(0.105 -0.105)">
       <defs>
        <path id="DejaVuSerif-37" d="M 3609 4347
L 1784 0
L 1319 0
L 3059 4153
L 903 4153
L 903 3578
L 538 3578
L 538 4666
L 3609 4666
L 3609 4347
z
" transform="scale(0.015625)"/>
       </defs>
       <use xlink:href="#DejaVuSerif-30"/>
       <use xlink:href="#DejaVuSerif-2e" transform="translate(63.623047 0)"/>
       <use xlink:href="#DejaVuSerif-37" transform="translate(95.410156 0)"/>
       <use xlink:href="#DejaVuSerif-32" transform="translate(159.033203 0)"/>
      </g>
     </g>
    </g>
    <g id="xtick_11">
     <g id="line2d_11">
      <g>
       <use xlink:href="#m302d7e7ef7" x="771.040937" y="484.51718" style="stroke: #000000; stroke-width: 0.9"/>
      </g>
     </g>
     <g id="text_11">
      <!-- 0.80 -->
      <g transform="translate(759.351484 500.495539) scale(0.105 -0.105)">
       <use xlink:href="#DejaVuSerif-30"/>
       <use xlink:href="#DejaVuSerif-2e" transform="translate(63.623047 0)"/>
       <use xlink:href="#DejaVuSerif-38" transform="translate(95.410156 0)"/>
       <use xlink:href="#DejaVuSerif-30" transform="translate(159.033203 0)"/>
      </g>
     </g>
    </g>
    <g id="text_12">
     <!-- $CO_2$ loading, mol $CO_2$/mol MEA -->
     <g transform="translate(326.980937 515.039211) scale(0.11 -0.11)">
      <defs>
       <path id="DejaVuSerif-Italic-43" d="M 4300 1234
Q 3966 581 3414 245
Q 2863 -91 2119 -91
Q 1663 -91 1303 65
Q 944 222 700 525
Q 419 875 334 1320
Q 250 1766 359 2328
Q 572 3416 1330 4083
Q 2088 4750 3116 4750
Q 3497 4750 3908 4650
Q 4319 4550 4775 4347
L 4569 3272
L 4216 3272
Q 4213 3859 3919 4137
Q 3625 4416 2997 4416
Q 2250 4416 1762 3886
Q 1275 3356 1075 2328
Q 875 1303 1156 773
Q 1438 244 2184 244
Q 2706 244 3092 492
Q 3478 741 3725 1234
L 4300 1234
z
" transform="scale(0.015625)"/>
       <path id="DejaVuSerif-Italic-4f" d="M 2219 244
Q 2984 244 3478 770
Q 3972 1297 4172 2328
Q 4372 3363 4084 3889
Q 3797 4416 3031 4416
Q 2263 4416 1769 3889
Q 1275 3363 1075 2328
Q 875 1297 1162 770
Q 1450 244 2219 244
z
M 2153 -91
Q 1678 -91 1311 65
Q 944 222 700 525
Q 419 875 334 1319
Q 250 1763 359 2328
Q 469 2894 725 3339
Q 981 3784 1400 4134
Q 1766 4441 2191 4595
Q 2616 4750 3097 4750
Q 4113 4750 4608 4084
Q 5103 3419 4891 2328
Q 4781 1769 4522 1320
Q 4263 872 3847 525
Q 3481 219 3056 64
Q 2631 -91 2153 -91
z
" transform="scale(0.015625)"/>
       <path id="DejaVuSerif-20" transform="scale(0.015625)"/>
       <path id="DejaVuSerif-6c" d="M 1313 331
L 1856 331
L 1856 0
L 184 0
L 184 331
L 738 331
L 738 4531
L 184 4531
L 184 4863
L 1313 4863
L 1313 331
z
" transform="scale(0.015625)"/>
       <path id="DejaVuSerif-6f" d="M 1925 219
Q 2388 219 2623 584
Q 2859 950 2859 1663
Q 2859 2375 2623 2739
Q 2388 3103 1925 3103
Q 1463 3103 1227 2739
Q 991 2375 991 1663
Q 991 950 1228 584
Q 1466 219 1925 219
z
M 1925 -91
Q 1200 -91 759 389
Q 319 869 319 1663
Q 319 2456 758 2934
Q 1197 3413 1925 3413
Q 2653 3413 3092 2934
Q 3531 2456 3531 1663
Q 3531 869 3092 389
Q 2653 -91 1925 -91
z
" transform="scale(0.015625)"/>
       <path id="DejaVuSerif-61" d="M 2547 1044
L 2547 1747
L 1806 1747
Q 1378 1747 1168 1562
Q 959 1378 959 997
Q 959 650 1171 447
Q 1384 244 1747 244
Q 2106 244 2326 466
Q 2547 688 2547 1044
z
M 3122 2075
L 3122 331
L 3634 331
L 3634 0
L 2547 0
L 2547 359
Q 2356 128 2106 18
Q 1856 -91 1522 -91
Q 969 -91 644 203
Q 319 497 319 997
Q 319 1513 691 1797
Q 1063 2081 1741 2081
L 2547 2081
L 2547 2309
Q 2547 2688 2317 2895
Q 2088 3103 1672 3103
Q 1328 3103 1125 2947
Q 922 2791 872 2484
L 575 2484
L 575 3156
Q 875 3284 1158 3348
Q 1441 3413 1709 3413
Q 2400 3413 2761 3070
Q 3122 2728 3122 2075
z
" transform="scale(0.015625)"/>
       <path id="DejaVuSerif-64" d="M 3359 331
L 3909 331
L 3909 0
L 2784 0
L 2784 519
Q 2616 206 2355 57
Q 2094 -91 1709 -91
Q 1097 -91 708 395
Q 319 881 319 1663
Q 319 2444 706 2928
Q 1094 3413 1709 3413
Q 2094 3413 2355 3264
Q 2616 3116 2784 2803
L 2784 4531
L 2241 4531
L 2241 4863
L 3359 4863
L 3359 331
z
M 2784 1497
L 2784 1825
Q 2784 2422 2554 2737
Q 2325 3053 1888 3053
Q 1444 3053 1217 2703
Q 991 2353 991 1663
Q 991 975 1217 622
Q 1444 269 1888 269
Q 2325 269 2554 583
Q 2784 897 2784 1497
z
" transform="scale(0.015625)"/>
       <path id="DejaVuSerif-69" d="M 622 4353
Q 622 4497 726 4603
Q 831 4709 978 4709
Q 1122 4709 1226 4603
Q 1331 4497 1331 4353
Q 1331 4206 1228 4103
Q 1125 4000 978 4000
Q 831 4000 726 4103
Q 622 4206 622 4353
z
M 1356 331
L 1900 331
L 1900 0
L 231 0
L 231 331
L 781 331
L 781 2988
L 231 2988
L 231 3322
L 1356 3322
L 1356 331
z
" transform="scale(0.015625)"/>
       <path id="DejaVuSerif-6e" d="M 263 0
L 263 331
L 781 331
L 781 2988
L 231 2988
L 231 3322
L 1356 3322
L 1356 2731
Q 1516 3069 1770 3241
Q 2025 3413 2363 3413
Q 2913 3413 3172 3097
Q 3431 2781 3431 2113
L 3431 331
L 3944 331
L 3944 0
L 2356 0
L 2356 331
L 2853 331
L 2853 1931
Q 2853 2541 2703 2767
Q 2553 2994 2175 2994
Q 1775 2994 1565 2701
Q 1356 2409 1356 1850
L 1356 331
L 1856 331
L 1856 0
L 263 0
z
" transform="scale(0.015625)"/>
       <path id="DejaVuSerif-67" d="M 3359 2988
L 3359 72
Q 3359 -644 2965 -1033
Q 2572 -1422 1844 -1422
Q 1516 -1422 1216 -1362
Q 916 -1303 641 -1184
L 641 -488
L 941 -488
Q 997 -813 1206 -963
Q 1416 -1113 1806 -1113
Q 2313 -1113 2548 -827
Q 2784 -541 2784 72
L 2784 519
Q 2616 206 2355 57
Q 2094 -91 1709 -91
Q 1097 -91 708 395
Q 319 881 319 1663
Q 319 2444 706 2928
Q 1094 3413 1709 3413
Q 2094 3413 2355 3264
Q 2616 3116 2784 2803
L 2784 3322
L 3909 3322
L 3909 2988
L 3359 2988
z
M 2784 1825
Q 2784 2422 2554 2737
Q 2325 3053 1888 3053
Q 1444 3053 1217 2703
Q 991 2353 991 1663
Q 991 975 1217 622
Q 1444 269 1888 269
Q 2325 269 2554 583
Q 2784 897 2784 1497
L 2784 1825
z
" transform="scale(0.015625)"/>
       <path id="DejaVuSerif-2c" d="M 231 -622
Q 525 -406 662 -114
Q 800 178 800 594
L 800 709
L 1416 709
Q 1391 175 1164 -208
Q 938 -591 481 -872
L 231 -622
z
" transform="scale(0.015625)"/>
       <path id="DejaVuSerif-6d" d="M 3316 2675
Q 3481 3041 3739 3227
Q 3997 3413 4341 3413
Q 4863 3413 5119 3089
Q 5375 2766 5375 2113
L 5375 331
L 5894 331
L 5894 0
L 4300 0
L 4300 331
L 4800 331
L 4800 2047
Q 4800 2556 4650 2772
Q 4500 2988 4153 2988
Q 3769 2988 3567 2697
Q 3366 2406 3366 1850
L 3366 331
L 3866 331
L 3866 0
L 2291 0
L 2291 331
L 2791 331
L 2791 2069
Q 2791 2566 2641 2777
Q 2491 2988 2144 2988
Q 1759 2988 1557 2697
Q 1356 2406 1356 1850
L 1356 331
L 1856 331
L 1856 0
L 263 0
L 263 331
L 781 331
L 781 2994
L 231 2994
L 231 3322
L 1356 3322
L 1356 2731
Q 1516 3063 1762 3238
Q 2009 3413 2322 3413
Q 2709 3413 2968 3220
Q 3228 3028 3316 2675
z
" transform="scale(0.015625)"/>
       <path id="DejaVuSerif-2f" d="M 1656 4666
L 2156 4666
L 500 -594
L 0 -594
L 1656 4666
z
" transform="scale(0.015625)"/>
       <path id="DejaVuSerif-4d" d="M 353 0
L 353 331
L 947 331
L 947 4331
L 319 4331
L 319 4666
L 1678 4666
L 3316 1344
L 4953 4666
L 6228 4666
L 6228 4331
L 5606 4331
L 5606 331
L 6203 331
L 6203 0
L 4378 0
L 4378 331
L 4972 331
L 4972 3938
L 3372 684
L 2931 684
L 1331 3938
L 1331 331
L 1925 331
L 1925 0
L 353 0
z
" transform="scale(0.015625)"/>
       <path id="DejaVuSerif-45" d="M 353 0
L 353 331
L 947 331
L 947 4331
L 353 4331
L 353 4666
L 4109 4666
L 4109 3628
L 3725 3628
L 3725 4281
L 1581 4281
L 1581 2719
L 3109 2719
L 3109 3303
L 3494 3303
L 3494 1753
L 3109 1753
L 3109 2338
L 1581 2338
L 1581 384
L 3775 384
L 3775 1038
L 4159 1038
L 4159 0
L 353 0
z
" transform="scale(0.015625)"/>
       <path id="DejaVuSerif-41" d="M 1281 1691
L 2994 1691
L 2138 3909
L 1281 1691
z
M -38 0
L -38 331
L 372 331
L 2034 4666
L 2559 4666
L 4225 331
L 4684 331
L 4684 0
L 2988 0
L 2988 331
L 3506 331
L 3116 1356
L 1153 1356
L 763 331
L 1275 331
L 1275 0
L -38 0
z
" transform="scale(0.015625)"/>
      </defs>
      <use xlink:href="#DejaVuSerif-Italic-43" transform="translate(0 0.015625)"/>
      <use xlink:href="#DejaVuSerif-Italic-4f" transform="translate(76.513672 0.015625)"/>
      <use xlink:href="#DejaVuSerif-32" transform="translate(158.496094 -15.55625) scale(0.7)"/>
      <use xlink:href="#DejaVuSerif-20" transform="translate(205.627539 0.015625)"/>
      <use xlink:href="#DejaVuSerif-6c" transform="translate(237.414648 0.015625)"/>
      <use xlink:href="#DejaVuSerif-6f" transform="translate(269.39707 0.015625)"/>
      <use xlink:href="#DejaVuSerif-61" transform="translate(329.602148 0.015625)"/>
      <use xlink:href="#DejaVuSerif-64" transform="translate(389.221289 0.015625)"/>
      <use xlink:href="#DejaVuSerif-69" transform="translate(453.234961 0.015625)"/>
      <use xlink:href="#DejaVuSerif-6e" transform="translate(485.217383 0.015625)"/>
      <use xlink:href="#DejaVuSerif-67" transform="translate(549.62168 0.015625)"/>
      <use xlink:href="#DejaVuSerif-2c" transform="translate(613.635352 0.015625)"/>
      <use xlink:href="#DejaVuSerif-20" transform="translate(645.422461 0.015625)"/>
      <use xlink:href="#DejaVuSerif-6d" transform="translate(677.20957 0.015625)"/>
      <use xlink:href="#DejaVuSerif-6f" transform="translate(772.033789 0.015625)"/>
      <use xlink:href="#DejaVuSerif-6c" transform="translate(832.238867 0.015625)"/>
      <use xlink:href="#DejaVuSerif-20" transform="translate(864.221289 0.015625)"/>
      <use xlink:href="#DejaVuSerif-Italic-43" transform="translate(896.008398 0.015625)"/>
      <use xlink:href="#DejaVuSerif-Italic-4f" transform="translate(972.52207 0.015625)"/>
      <use xlink:href="#DejaVuSerif-32" transform="translate(1054.504492 -15.55625) scale(0.7)"/>
      <use xlink:href="#DejaVuSerif-2f" transform="translate(1101.635937 0.015625)"/>
      <use xlink:href="#DejaVuSerif-6d" transform="translate(1135.327344 0.015625)"/>
      <use xlink:href="#DejaVuSerif-6f" transform="translate(1230.151562 0.015625)"/>
      <use xlink:href="#DejaVuSerif-6c" transform="translate(1290.356641 0.015625)"/>
      <use xlink:href="#DejaVuSerif-20" transform="translate(1322.339062 0.015625)"/>
      <use xlink:href="#DejaVuSerif-4d" transform="translate(1354.126172 0.015625)"/>
      <use xlink:href="#DejaVuSerif-45" transform="translate(1456.51875 0.015625)"/>
      <use xlink:href="#DejaVuSerif-41" transform="translate(1529.516797 0.015625)"/>
     </g>
    </g>
   </g>
   <g id="matplotlib.axis_2">
    <g id="ytick_1">
     <g id="line2d_12">
      <defs>
       <path id="mfb0a0b7029" d="M 0 0
L -4.5 0
" style="stroke: #000000; stroke-width: 0.9"/>
      </defs>
      <g>
       <use xlink:href="#mfb0a0b7029" x="59.140938" y="484.51718" style="stroke: #000000; stroke-width: 0.9"/>
      </g>
     </g>
     <g id="text_13">
      <!-- $\mathdefault{10^{-14}}$ -->
      <g transform="translate(21.845938 488.506359) scale(0.105 -0.105)">
       <defs>
        <path id="DejaVuSerif-2212" d="M 678 2259
L 4684 2259
L 4684 1753
L 678 1753
L 678 2259
z
" transform="scale(0.015625)"/>
       </defs>
       <use xlink:href="#DejaVuSerif-31" transform="translate(0 0.7125)"/>
       <use xlink:href="#DejaVuSerif-30" transform="translate(63.623047 0.7125)"/>
       <use xlink:href="#DejaVuSerif-2212" transform="translate(128.154453 37.046875) scale(0.7)"/>
       <use xlink:href="#DejaVuSerif-31" transform="translate(186.806797 37.046875) scale(0.7)"/>
       <use xlink:href="#DejaVuSerif-34" transform="translate(231.34293 37.046875) scale(0.7)"/>
      </g>
     </g>
    </g>
    <g id="ytick_2">
     <g id="line2d_13">
      <g>
       <use xlink:href="#mfb0a0b7029" x="59.140938" y="450.708037" style="stroke: #000000; stroke-width: 0.9"/>
      </g>
     </g>
     <g id="text_14">
      <!-- $\mathdefault{10^{-13}}$ -->
      <g transform="translate(21.845938 454.697217) scale(0.105 -0.105)">
       <use xlink:href="#DejaVuSerif-31" transform="translate(0 0.7125)"/>
       <use xlink:href="#DejaVuSerif-30" transform="translate(63.623047 0.7125)"/>
       <use xlink:href="#DejaVuSerif-2212" transform="translate(128.154453 37.046875) scale(0.7)"/>
       <use xlink:href="#DejaVuSerif-31" transform="translate(186.806797 37.046875) scale(0.7)"/>
       <use xlink:href="#DejaVuSerif-33" transform="translate(231.34293 37.046875) scale(0.7)"/>
      </g>
     </g>
    </g>
    <g id="ytick_3">
     <g id="line2d_14">
      <g>
       <use xlink:href="#mfb0a0b7029" x="59.140938" y="416.898894" style="stroke: #000000; stroke-width: 0.9"/>
      </g>
     </g>
     <g id="text_15">
      <!-- $\mathdefault{10^{-12}}$ -->
      <g transform="translate(21.845938 420.888074) scale(0.105 -0.105)">
       <use xlink:href="#DejaVuSerif-31" transform="translate(0 0.7125)"/>
       <use xlink:href="#DejaVuSerif-30" transform="translate(63.623047 0.7125)"/>
       <use xlink:href="#DejaVuSerif-2212" transform="translate(128.154453 37.046875) scale(0.7)"/>
       <use xlink:href="#DejaVuSerif-31" transform="translate(186.806797 37.046875) scale(0.7)"/>
       <use xlink:href="#DejaVuSerif-32" transform="translate(231.34293 37.046875) scale(0.7)"/>
      </g>
     </g>
    </g>
    <g id="ytick_4">
     <g id="line2d_15">
      <g>
       <use xlink:href="#mfb0a0b7029" x="59.140938" y="383.089751" style="stroke: #000000; stroke-width: 0.9"/>
      </g>
     </g>
     <g id="text_16">
      <!-- $\mathdefault{10^{-11}}$ -->
      <g transform="translate(21.845938 387.078931) scale(0.105 -0.105)">
       <use xlink:href="#DejaVuSerif-31" transform="translate(0 0.7125)"/>
       <use xlink:href="#DejaVuSerif-30" transform="translate(63.623047 0.7125)"/>
       <use xlink:href="#DejaVuSerif-2212" transform="translate(128.154453 37.046875) scale(0.7)"/>
       <use xlink:href="#DejaVuSerif-31" transform="translate(186.806797 37.046875) scale(0.7)"/>
       <use xlink:href="#DejaVuSerif-31" transform="translate(231.34293 37.046875) scale(0.7)"/>
      </g>
     </g>
    </g>
    <g id="ytick_5">
     <g id="line2d_16">
      <g>
       <use xlink:href="#mfb0a0b7029" x="59.140938" y="349.280608" style="stroke: #000000; stroke-width: 0.9"/>
      </g>
     </g>
     <g id="text_17">
      <!-- $\mathdefault{10^{-10}}$ -->
      <g transform="translate(21.845938 353.269788) scale(0.105 -0.105)">
       <use xlink:href="#DejaVuSerif-31" transform="translate(0 0.7125)"/>
       <use xlink:href="#DejaVuSerif-30" transform="translate(63.623047 0.7125)"/>
       <use xlink:href="#DejaVuSerif-2212" transform="translate(128.154453 37.046875) scale(0.7)"/>
       <use xlink:href="#DejaVuSerif-31" transform="translate(186.806797 37.046875) scale(0.7)"/>
       <use xlink:href="#DejaVuSerif-30" transform="translate(231.34293 37.046875) scale(0.7)"/>
      </g>
     </g>
    </g>
    <g id="ytick_6">
     <g id="line2d_17">
      <g>
       <use xlink:href="#mfb0a0b7029" x="59.140938" y="315.471465" style="stroke: #000000; stroke-width: 0.9"/>
      </g>
     </g>
     <g id="text_18">
      <!-- $\mathdefault{10^{-9}}$ -->
      <g transform="translate(26.570938 319.460645) scale(0.105 -0.105)">
       <defs>
        <path id="DejaVuSerif-39" d="M 2994 2091
Q 2784 1856 2512 1740
Q 2241 1625 1900 1625
Q 1206 1625 804 2044
Q 403 2463 403 3188
Q 403 3897 839 4323
Q 1275 4750 2003 4750
Q 2794 4750 3217 4161
Q 3641 3572 3641 2478
Q 3641 1253 3137 581
Q 2634 -91 1722 -91
Q 1475 -91 1203 -44
Q 931 3 647 97
L 647 872
L 997 872
Q 1038 556 1241 387
Q 1444 219 1784 219
Q 2391 219 2687 676
Q 2984 1134 2994 2091
z
M 1978 4441
Q 1534 4441 1298 4117
Q 1063 3794 1063 3188
Q 1063 2581 1298 2256
Q 1534 1931 1978 1931
Q 2422 1931 2658 2245
Q 2894 2559 2894 3150
Q 2894 3772 2656 4106
Q 2419 4441 1978 4441
z
" transform="scale(0.015625)"/>
       </defs>
       <use xlink:href="#DejaVuSerif-31" transform="translate(0 0.7125)"/>
       <use xlink:href="#DejaVuSerif-30" transform="translate(63.623047 0.7125)"/>
       <use xlink:href="#DejaVuSerif-2212" transform="translate(128.154453 37.046875) scale(0.7)"/>
       <use xlink:href="#DejaVuSerif-39" transform="translate(186.806797 37.046875) scale(0.7)"/>
      </g>
     </g>
    </g>
    <g id="ytick_7">
     <g id="line2d_18">
      <g>
       <use xlink:href="#mfb0a0b7029" x="59.140938" y="281.662323" style="stroke: #000000; stroke-width: 0.9"/>
      </g>
     </g>
     <g id="text_19">
      <!-- $\mathdefault{10^{-8}}$ -->
      <g transform="translate(26.570938 285.651502) scale(0.105 -0.105)">
       <use xlink:href="#DejaVuSerif-31" transform="translate(0 0.7125)"/>
       <use xlink:href="#DejaVuSerif-30" transform="translate(63.623047 0.7125)"/>
       <use xlink:href="#DejaVuSerif-2212" transform="translate(128.154453 37.046875) scale(0.7)"/>
       <use xlink:href="#DejaVuSerif-38" transform="translate(186.806797 37.046875) scale(0.7)"/>
      </g>
     </g>
    </g>
    <g id="ytick_8">
     <g id="line2d_19">
      <g>
       <use xlink:href="#mfb0a0b7029" x="59.140938" y="247.85318" style="stroke: #000000; stroke-width: 0.9"/>
      </g>
     </g>
     <g id="text_20">
      <!-- $\mathdefault{10^{-7}}$ -->
      <g transform="translate(26.570938 251.842359) scale(0.105 -0.105)">
       <use xlink:href="#DejaVuSerif-31" transform="translate(0 0.63125)"/>
       <use xlink:href="#DejaVuSerif-30" transform="translate(63.623047 0.63125)"/>
       <use xlink:href="#DejaVuSerif-2212" transform="translate(128.154453 36.965625) scale(0.7)"/>
       <use xlink:href="#DejaVuSerif-37" transform="translate(186.806797 36.965625) scale(0.7)"/>
      </g>
     </g>
    </g>
    <g id="ytick_9">
     <g id="line2d_20">
      <g>
       <use xlink:href="#mfb0a0b7029" x="59.140938" y="214.044037" style="stroke: #000000; stroke-width: 0.9"/>
      </g>
     </g>
     <g id="text_21">
      <!-- $\mathdefault{10^{-6}}$ -->
      <g transform="translate(26.570938 218.033217) scale(0.105 -0.105)">
       <use xlink:href="#DejaVuSerif-31" transform="translate(0 0.7125)"/>
       <use xlink:href="#DejaVuSerif-30" transform="translate(63.623047 0.7125)"/>
       <use xlink:href="#DejaVuSerif-2212" transform="translate(128.154453 37.046875) scale(0.7)"/>
       <use xlink:href="#DejaVuSerif-36" transform="translate(186.806797 37.046875) scale(0.7)"/>
      </g>
     </g>
    </g>
    <g id="ytick_10">
     <g id="line2d_21">
      <g>
       <use xlink:href="#mfb0a0b7029" x="59.140938" y="180.234894" style="stroke: #000000; stroke-width: 0.9"/>
      </g>
     </g>
     <g id="text_22">
      <!-- $\mathdefault{10^{-5}}$ -->
      <g transform="translate(26.570938 184.224074) scale(0.105 -0.105)">
       <use xlink:href="#DejaVuSerif-31" transform="translate(0 0.63125)"/>
       <use xlink:href="#DejaVuSerif-30" transform="translate(63.623047 0.63125)"/>
       <use xlink:href="#DejaVuSerif-2212" transform="translate(128.154453 36.965625) scale(0.7)"/>
       <use xlink:href="#DejaVuSerif-35" transform="translate(186.806797 36.965625) scale(0.7)"/>
      </g>
     </g>
    </g>
    <g id="ytick_11">
     <g id="line2d_22">
      <g>
       <use xlink:href="#mfb0a0b7029" x="59.140938" y="146.425751" style="stroke: #000000; stroke-width: 0.9"/>
      </g>
     </g>
     <g id="text_23">
      <!-- $\mathdefault{10^{-4}}$ -->
      <g transform="translate(26.570938 150.414931) scale(0.105 -0.105)">
       <use xlink:href="#DejaVuSerif-31" transform="translate(0 0.7125)"/>
       <use xlink:href="#DejaVuSerif-30" transform="translate(63.623047 0.7125)"/>
       <use xlink:href="#DejaVuSerif-2212" transform="translate(128.154453 37.046875) scale(0.7)"/>
       <use xlink:href="#DejaVuSerif-34" transform="translate(186.806797 37.046875) scale(0.7)"/>
      </g>
     </g>
    </g>
    <g id="ytick_12">
     <g id="line2d_23">
      <g>
       <use xlink:href="#mfb0a0b7029" x="59.140938" y="112.616608" style="stroke: #000000; stroke-width: 0.9"/>
      </g>
     </g>
     <g id="text_24">
      <!-- $\mathdefault{10^{-3}}$ -->
      <g transform="translate(26.570938 116.605788) scale(0.105 -0.105)">
       <use xlink:href="#DejaVuSerif-31" transform="translate(0 0.7125)"/>
       <use xlink:href="#DejaVuSerif-30" transform="translate(63.623047 0.7125)"/>
       <use xlink:href="#DejaVuSerif-2212" transform="translate(128.154453 37.046875) scale(0.7)"/>
       <use xlink:href="#DejaVuSerif-33" transform="translate(186.806797 37.046875) scale(0.7)"/>
      </g>
     </g>
    </g>
    <g id="ytick_13">
     <g id="line2d_24">
      <g>
       <use xlink:href="#mfb0a0b7029" x="59.140938" y="78.807465" style="stroke: #000000; stroke-width: 0.9"/>
      </g>
     </g>
     <g id="text_25">
      <!-- $\mathdefault{10^{-2}}$ -->
      <g transform="translate(26.570938 82.796645) scale(0.105 -0.105)">
       <use xlink:href="#DejaVuSerif-31" transform="translate(0 0.7125)"/>
       <use xlink:href="#DejaVuSerif-30" transform="translate(63.623047 0.7125)"/>
       <use xlink:href="#DejaVuSerif-2212" transform="translate(128.154453 37.046875) scale(0.7)"/>
       <use xlink:href="#DejaVuSerif-32" transform="translate(186.806797 37.046875) scale(0.7)"/>
      </g>
     </g>
    </g>
    <g id="ytick_14">
     <g id="line2d_25">
      <g>
       <use xlink:href="#mfb0a0b7029" x="59.140938" y="44.998323" style="stroke: #000000; stroke-width: 0.9"/>
      </g>
     </g>
     <g id="text_26">
      <!-- $\mathdefault{10^{-1}}$ -->
      <g transform="translate(26.570938 48.987502) scale(0.105 -0.105)">
       <use xlink:href="#DejaVuSerif-31" transform="translate(0 0.7125)"/>
       <use xlink:href="#DejaVuSerif-30" transform="translate(63.623047 0.7125)"/>
       <use xlink:href="#DejaVuSerif-2212" transform="translate(128.154453 37.046875) scale(0.7)"/>
       <use xlink:href="#DejaVuSerif-31" transform="translate(186.806797 37.046875) scale(0.7)"/>
      </g>
     </g>
    </g>
    <g id="ytick_15">
     <g id="line2d_26">
      <g>
       <use xlink:href="#mfb0a0b7029" x="59.140938" y="11.18918" style="stroke: #000000; stroke-width: 0.9"/>
      </g>
     </g>
     <g id="text_27">
      <!-- $\mathdefault{10^{0}}$ -->
      <g transform="translate(32.660938 15.178359) scale(0.105 -0.105)">
       <use xlink:href="#DejaVuSerif-31" transform="translate(0 0.7125)"/>
       <use xlink:href="#DejaVuSerif-30" transform="translate(63.623047 0.7125)"/>
       <use xlink:href="#DejaVuSerif-30" transform="translate(128.154453 37.046875) scale(0.7)"/>
      </g>
     </g>
    </g>
    <g id="text_28">
     <!-- True-species mole fraction -->
     <g transform="translate(15.558281 322.206305) rotate(-90) scale(0.11 -0.11)">
      <defs>
       <path id="DejaVuSerif-54" d="M 1222 0
L 1222 331
L 1819 331
L 1819 4294
L 447 4294
L 447 3566
L 63 3566
L 63 4666
L 4206 4666
L 4206 3566
L 3822 3566
L 3822 4294
L 2450 4294
L 2450 331
L 3047 331
L 3047 0
L 1222 0
z
" transform="scale(0.015625)"/>
       <path id="DejaVuSerif-72" d="M 3059 3328
L 3059 2497
L 2728 2497
Q 2713 2744 2591 2866
Q 2469 2988 2234 2988
Q 1809 2988 1582 2694
Q 1356 2400 1356 1850
L 1356 331
L 2022 331
L 2022 0
L 263 0
L 263 331
L 781 331
L 781 2994
L 231 2994
L 231 3322
L 1356 3322
L 1356 2731
Q 1525 3078 1790 3245
Q 2056 3413 2438 3413
Q 2578 3413 2733 3391
Q 2888 3369 3059 3328
z
" transform="scale(0.015625)"/>
       <path id="DejaVuSerif-75" d="M 2266 3322
L 3341 3322
L 3341 331
L 3884 331
L 3884 0
L 2766 0
L 2766 588
Q 2606 256 2353 82
Q 2100 -91 1766 -91
Q 1213 -91 952 223
Q 691 538 691 1209
L 691 2988
L 172 2988
L 172 3322
L 1269 3322
L 1269 1388
Q 1269 781 1417 556
Q 1566 331 1947 331
Q 2347 331 2556 625
Q 2766 919 2766 1478
L 2766 2988
L 2266 2988
L 2266 3322
z
" transform="scale(0.015625)"/>
       <path id="DejaVuSerif-65" d="M 3469 1600
L 991 1600
L 991 1575
Q 991 903 1244 561
Q 1497 219 1991 219
Q 2369 219 2611 417
Q 2853 616 2950 1006
L 3413 1006
Q 3275 459 2904 184
Q 2534 -91 1931 -91
Q 1203 -91 761 389
Q 319 869 319 1663
Q 319 2450 753 2931
Q 1188 3413 1894 3413
Q 2647 3413 3050 2948
Q 3453 2484 3469 1600
z
M 2791 1931
Q 2772 2513 2545 2808
Q 2319 3103 1894 3103
Q 1497 3103 1269 2806
Q 1041 2509 991 1931
L 2791 1931
z
" transform="scale(0.015625)"/>
       <path id="DejaVuSerif-2d" d="M 281 1959
L 1881 1959
L 1881 1472
L 281 1472
L 281 1959
z
" transform="scale(0.015625)"/>
       <path id="DejaVuSerif-73" d="M 359 184
L 359 959
L 691 959
Q 703 588 923 403
Q 1144 219 1575 219
Q 1963 219 2166 364
Q 2369 509 2369 788
Q 2369 1006 2220 1140
Q 2072 1275 1594 1428
L 1178 1569
Q 750 1706 558 1912
Q 366 2119 366 2438
Q 366 2894 700 3153
Q 1034 3413 1625 3413
Q 1888 3413 2178 3344
Q 2469 3275 2778 3144
L 2778 2419
L 2447 2419
Q 2434 2741 2221 2922
Q 2009 3103 1644 3103
Q 1281 3103 1095 2975
Q 909 2847 909 2591
Q 909 2381 1050 2254
Q 1191 2128 1613 1997
L 2069 1856
Q 2541 1709 2748 1489
Q 2956 1269 2956 922
Q 2956 450 2595 179
Q 2234 -91 1600 -91
Q 1278 -91 972 -22
Q 666 47 359 184
z
" transform="scale(0.015625)"/>
       <path id="DejaVuSerif-70" d="M 1313 1825
L 1313 1497
Q 1313 897 1542 583
Q 1772 269 2209 269
Q 2650 269 2876 622
Q 3103 975 3103 1663
Q 3103 2353 2876 2703
Q 2650 3053 2209 3053
Q 1772 3053 1542 2737
Q 1313 2422 1313 1825
z
M 738 2988
L 184 2988
L 184 3322
L 1313 3322
L 1313 2803
Q 1481 3116 1742 3264
Q 2003 3413 2388 3413
Q 3000 3413 3387 2928
Q 3775 2444 3775 1663
Q 3775 881 3387 395
Q 3000 -91 2388 -91
Q 2003 -91 1742 57
Q 1481 206 1313 519
L 1313 -997
L 1856 -997
L 1856 -1331
L 184 -1331
L 184 -997
L 738 -997
L 738 2988
z
" transform="scale(0.015625)"/>
       <path id="DejaVuSerif-63" d="M 3291 997
Q 3169 466 2822 187
Q 2475 -91 1925 -91
Q 1200 -91 759 389
Q 319 869 319 1663
Q 319 2459 759 2936
Q 1200 3413 1925 3413
Q 2241 3413 2553 3339
Q 2866 3266 3181 3116
L 3181 2266
L 2847 2266
Q 2781 2703 2561 2903
Q 2341 3103 1931 3103
Q 1466 3103 1228 2742
Q 991 2381 991 1663
Q 991 944 1227 581
Q 1463 219 1931 219
Q 2303 219 2525 412
Q 2747 606 2828 997
L 3291 997
z
" transform="scale(0.015625)"/>
       <path id="DejaVuSerif-66" d="M 2753 4078
L 2450 4078
Q 2447 4313 2317 4434
Q 2188 4556 1941 4556
Q 1619 4556 1487 4379
Q 1356 4203 1356 3750
L 1356 3322
L 2284 3322
L 2284 2988
L 1356 2988
L 1356 331
L 2094 331
L 2094 0
L 231 0
L 231 331
L 781 331
L 781 2988
L 231 2988
L 231 3322
L 781 3322
L 781 3738
Q 781 4294 1070 4578
Q 1359 4863 1919 4863
Q 2128 4863 2337 4825
Q 2547 4788 2753 4709
L 2753 4078
z
" transform="scale(0.015625)"/>
       <path id="DejaVuSerif-74" d="M 691 2988
L 184 2988
L 184 3322
L 691 3322
L 691 4353
L 1269 4353
L 1269 3322
L 2350 3322
L 2350 2988
L 1269 2988
L 1269 878
Q 1269 456 1350 337
Q 1431 219 1650 219
Q 1875 219 1978 351
Q 2081 484 2088 781
L 2522 781
Q 2497 328 2275 118
Q 2053 -91 1600 -91
Q 1103 -91 897 129
Q 691 350 691 878
L 691 2988
z
" transform="scale(0.015625)"/>
      </defs>
      <use xlink:href="#DejaVuSerif-54"/>
      <use xlink:href="#DejaVuSerif-72" transform="translate(66.699219 0)"/>
      <use xlink:href="#DejaVuSerif-75" transform="translate(114.501953 0)"/>
      <use xlink:href="#DejaVuSerif-65" transform="translate(178.90625 0)"/>
      <use xlink:href="#DejaVuSerif-2d" transform="translate(238.085938 0)"/>
      <use xlink:href="#DejaVuSerif-73" transform="translate(271.875 0)"/>
      <use xlink:href="#DejaVuSerif-70" transform="translate(323.193359 0)"/>
      <use xlink:href="#DejaVuSerif-65" transform="translate(387.207031 0)"/>
      <use xlink:href="#DejaVuSerif-63" transform="translate(446.386719 0)"/>
      <use xlink:href="#DejaVuSerif-69" transform="translate(502.392578 0)"/>
      <use xlink:href="#DejaVuSerif-65" transform="translate(534.375 0)"/>
      <use xlink:href="#DejaVuSerif-73" transform="translate(593.554688 0)"/>
      <use xlink:href="#DejaVuSerif-20" transform="translate(644.873047 0)"/>
      <use xlink:href="#DejaVuSerif-6d" transform="translate(676.660156 0)"/>
      <use xlink:href="#DejaVuSerif-6f" transform="translate(771.484375 0)"/>
      <use xlink:href="#DejaVuSerif-6c" transform="translate(831.689453 0)"/>
      <use xlink:href="#DejaVuSerif-65" transform="translate(863.671875 0)"/>
      <use xlink:href="#DejaVuSerif-20" transform="translate(922.851562 0)"/>
      <use xlink:href="#DejaVuSerif-66" transform="translate(954.638672 0)"/>
      <use xlink:href="#DejaVuSerif-72" transform="translate(991.650391 0)"/>
      <use xlink:href="#DejaVuSerif-61" transform="translate(1039.453125 0)"/>
      <use xlink:href="#DejaVuSerif-63" transform="translate(1099.072266 0)"/>
      <use xlink:href="#DejaVuSerif-74" transform="translate(1155.078125 0)"/>
      <use xlink:href="#DejaVuSerif-69" transform="translate(1195.263672 0)"/>
      <use xlink:href="#DejaVuSerif-6f" transform="translate(1227.246094 0)"/>
      <use xlink:href="#DejaVuSerif-6e" transform="translate(1287.451172 0)"/>
     </g>
    </g>
   </g>
   <g id="line2d_27">
    <path d="M 60.030813 380.53098
L 64.474626 346.273352
L 68.918439 331.579677
L 73.362252 321.734926
L 77.806066 314.291017
L 82.249879 308.280646
L 86.693692 303.21928
L 91.137505 298.830405
L 95.581319 294.942195
L 100.025132 291.440122
L 104.468945 288.244864
L 108.912759 285.298539
L 113.356572 282.558433
L 117.800385 279.991417
L 122.244198 277.571567
L 131.131825 273.09488
L 140.019452 269.004995
L 148.907078 265.21634
L 157.794705 261.6676
L 166.682331 258.312622
L 180.013771 253.568191
L 193.345211 249.091738
L 211.120464 243.427768
L 228.895717 238.006996
L 255.558597 230.144417
L 317.771983 211.938875
L 339.991049 205.137136
L 357.766302 199.453614
L 371.097742 195.002391
L 384.429182 190.349976
L 397.760622 185.455031
L 411.092062 180.269895
L 419.979688 176.625864
L 428.867315 172.812553
L 437.754941 168.813803
L 446.642568 164.61549
L 455.530195 160.20927
L 464.417821 155.597083
L 477.749261 148.340181
L 508.855954 130.958166
L 517.74358 126.294768
L 526.631207 121.913048
L 535.518834 117.848964
L 544.40646 114.110876
L 553.294087 110.687982
L 562.181713 107.558344
L 571.06934 104.695445
L 579.956966 102.071844
L 588.844593 99.661355
L 597.73222 97.440025
L 606.619846 95.386698
L 619.951286 92.581268
L 633.282726 90.058749
L 646.614166 87.775825
L 659.945605 85.697263
L 677.720859 83.194848
L 695.496112 80.95088
L 713.271365 78.92299
L 735.490431 76.641738
L 757.709498 74.595458
L 771.040937 73.463794
L 771.040937 73.463794
" clip-path="url(#pa8dd8d32b1)" style="fill: none; stroke-dasharray: 8.14,3.52; stroke-dashoffset: 0; stroke: #16805a; stroke-width: 2.2"/>
   </g>
   <g id="line2d_28">
    <path d="M 60.030813 43.385168
L 86.693692 44.248201
L 135.575638 46.06436
L 180.013771 47.939411
L 220.008091 49.857215
L 255.558597 51.796888
L 286.66529 53.727017
L 313.32817 55.602371
L 335.547236 57.361689
L 357.766302 59.34533
L 375.541555 61.132717
L 393.316809 63.141004
L 411.092062 65.421519
L 424.423502 67.348549
L 437.754941 69.494927
L 451.086381 71.889821
L 464.417821 74.550736
L 477.749261 77.463877
L 499.968327 82.660321
L 517.74358 86.73544
L 531.07502 89.528056
L 544.40646 92.023792
L 557.7379 94.222265
L 571.06934 96.152798
L 584.40078 97.853901
L 597.73222 99.36294
L 615.507473 101.131546
L 633.282726 102.677692
L 655.501792 104.367875
L 682.164672 106.125835
L 708.827552 107.663181
L 739.934245 109.249309
L 771.040937 110.667099
L 771.040937 110.667099
" clip-path="url(#pa8dd8d32b1)" style="fill: none; stroke-dasharray: 8.14,3.52; stroke-dashoffset: 0; stroke: #1f5aa6; stroke-width: 2.2"/>
   </g>
   <g id="line2d_29">
    <path d="M 60.030813 122.016961
L 64.474626 113.542926
L 68.918439 107.358168
L 73.362252 102.771448
L 77.806066 99.195152
L 82.249879 96.285411
L 86.693692 93.840649
L 91.137505 91.736178
L 95.581319 89.890538
L 100.025132 88.24794
L 104.468945 86.768664
L 113.356572 84.190306
L 122.244198 81.995232
L 131.131825 80.084669
L 140.019452 78.393547
L 148.907078 76.876769
L 162.238518 74.859704
L 175.569958 73.08621
L 188.901398 71.503825
L 206.676651 69.628507
L 224.451904 67.965681
L 246.67097 66.121256
L 273.33385 64.175972
L 299.99673 62.458491
L 331.103423 60.679802
L 366.653929 58.880551
L 406.648248 57.090565
L 451.086381 55.334234
L 495.524514 53.79884
L 535.518834 52.647672
L 575.513153 51.741999
L 619.951286 50.970084
L 673.277045 50.272462
L 739.934245 49.630682
L 771.040937 49.391955
L 771.040937 49.391955
" clip-path="url(#pa8dd8d32b1)" style="fill: none; stroke-dasharray: 8.14,3.52; stroke-dashoffset: 0; stroke: #bcbd22; stroke-width: 2.2"/>
   </g>
   <g id="line2d_30">
    <path d="M 60.030813 145.528106
L 64.474626 118.989628
L 68.918439 109.969417
L 73.362252 104.399999
L 77.806066 100.364091
L 82.249879 97.198265
L 86.693692 94.59359
L 91.137505 92.381006
L 95.581319 90.457904
L 100.025132 88.757321
L 104.468945 87.233123
L 108.912759 85.852195
L 117.800385 83.427604
L 126.688012 81.347162
L 135.575638 79.525408
L 144.463265 77.905237
L 157.794705 75.768435
L 171.126145 73.904542
L 184.457584 72.252084
L 202.232837 70.305657
L 220.008091 68.5901
L 242.227157 66.698505
L 264.446223 65.028804
L 291.109103 63.25673
L 322.215796 61.4445
L 353.322489 59.856914
L 388.872995 58.280199
L 419.979688 57.104485
L 451.086381 56.159364
L 473.305448 55.687156
L 495.524514 55.458095
L 517.74358 55.504759
L 544.40646 55.842311
L 588.844593 56.70314
L 722.158991 59.388154
L 771.040937 60.266848
L 771.040937 60.266848
" clip-path="url(#pa8dd8d32b1)" style="fill: none; stroke-dasharray: 8.14,3.52; stroke-dashoffset: 0; stroke: #d62728; stroke-width: 2.2"/>
   </g>
   <g id="line2d_31">
    <defs>
     <path id="m86968a3851" d="M 0 3.4
C 0.901691 3.4 1.766572 3.041755 2.404163 2.404163
C 3.041755 1.766572 3.4 0.901691 3.4 0
C 3.4 -0.901691 3.041755 -1.766572 2.404163 -2.404163
C 1.766572 -3.041755 0.901691 -3.4 0 -3.4
C -0.901691 -3.4 -1.766572 -3.041755 -2.404163 -2.404163
C -3.041755 -1.766572 -3.4 -0.901691 -3.4 0
C -3.4 0.901691 -3.041755 1.766572 -2.404163 2.404163
C -1.766572 3.041755 -0.901691 3.4 0 3.4
z
"/>
    </defs>
    <g clip-path="url(#pa8dd8d32b1)">
     <use xlink:href="#m86968a3851" x="116.092937" y="84.485936" style="fill: #d62728; fill-opacity: 0.78"/>
     <use xlink:href="#m86968a3851" x="184.613312" y="73.871268" style="fill: #d62728; fill-opacity: 0.78"/>
     <use xlink:href="#m86968a3851" x="277.160312" y="66.954639" style="fill: #d62728; fill-opacity: 0.78"/>
     <use xlink:href="#m86968a3851" x="358.138937" y="60.958951" style="fill: #d62728; fill-opacity: 0.78"/>
     <use xlink:href="#m86968a3851" x="413.311187" y="61.002257" style="fill: #d62728; fill-opacity: 0.78"/>
     <use xlink:href="#m86968a3851" x="512.977187" y="55.117612" style="fill: #d62728; fill-opacity: 0.78"/>
    </g>
   </g>
   <g id="line2d_32">
    <path d="M 60.030813 223.841995
L 64.474626 197.117337
L 68.918439 187.910162
L 73.362252 182.152439
L 77.806066 177.926606
L 82.249879 174.568776
L 86.693692 171.769983
L 91.137505 169.360946
L 95.581319 167.239065
L 100.025132 165.3371
L 104.468945 163.608991
L 113.356572 160.549967
L 122.244198 157.883638
L 131.131825 155.502421
L 140.019452 153.336567
L 153.350891 150.390181
L 166.682331 147.713094
L 184.457584 144.441401
L 202.232837 141.408793
L 224.451904 137.840763
L 255.558597 133.083701
L 331.103423 121.63973
L 357.766302 117.326491
L 379.985369 113.494568
L 397.760622 110.214908
L 415.535875 106.690157
L 428.867315 103.851306
L 442.198755 100.819042
L 455.530195 97.578101
L 468.861634 94.135642
L 495.524514 86.913006
L 508.855954 83.407672
L 522.187394 80.179737
L 531.07502 78.228633
L 539.962647 76.448404
L 548.850273 74.834539
L 562.181713 72.699833
L 575.513153 70.864002
L 588.844593 69.277443
L 602.176033 67.896609
L 619.951286 66.314291
L 637.726539 64.967788
L 659.945605 63.541946
L 682.164672 62.337533
L 708.827552 61.115564
L 739.934245 59.923628
L 771.040937 58.9219
L 771.040937 58.9219
" clip-path="url(#pa8dd8d32b1)" style="fill: none; stroke-dasharray: 8.14,3.52; stroke-dashoffset: 0; stroke: #17becf; stroke-width: 2.2"/>
   </g>
   <g id="line2d_33">
    <defs>
     <path id="m4f4b7a8f98" d="M 0 3.4
C 0.901691 3.4 1.766572 3.041755 2.404163 2.404163
C 3.041755 1.766572 3.4 0.901691 3.4 0
C 3.4 -0.901691 3.041755 -1.766572 2.404163 -2.404163
C 1.766572 -3.041755 0.901691 -3.4 0 -3.4
C -0.901691 -3.4 -1.766572 -3.041755 -2.404163 -2.404163
C -3.041755 -1.766572 -3.4 -0.901691 -3.4 0
C -3.4 0.901691 -3.041755 1.766572 -2.404163 2.404163
C -1.766572 3.041755 -0.901691 3.4 0 3.4
z
"/>
    </defs>
    <g clip-path="url(#pa8dd8d32b1)">
     <use xlink:href="#m4f4b7a8f98" x="413.311187" y="90.207053" style="fill: #17becf; fill-opacity: 0.78"/>
     <use xlink:href="#m4f4b7a8f98" x="512.977187" y="71.385694" style="fill: #17becf; fill-opacity: 0.78"/>
    </g>
   </g>
   <g id="line2d_34">
    <path d="M 60.030813 189.204115
L 64.474626 168.845768
L 68.918439 164.195566
L 73.362252 161.801362
L 77.806066 160.219884
L 82.249879 159.050657
L 86.693692 158.1326
L 91.137505 157.385293
L 100.025132 156.233492
L 108.912759 155.386723
L 117.800385 154.743074
L 131.131825 154.035572
L 144.463265 153.540695
L 162.238518 153.100603
L 184.457584 152.78094
L 215.564277 152.593427
L 255.558597 152.596845
L 317.771983 152.848487
L 397.760622 153.379063
L 442.198755 153.869227
L 468.861634 154.376033
L 491.080701 155.040736
L 513.299767 155.98284
L 539.962647 157.380171
L 606.619846 160.980937
L 646.614166 162.866989
L 686.608485 164.529588
L 731.046618 166.157192
L 771.040937 167.46189
L 771.040937 167.46189
" clip-path="url(#pa8dd8d32b1)" style="fill: none; stroke-dasharray: 8.14,3.52; stroke-dashoffset: 0; stroke: #9467bd; stroke-width: 2.2"/>
   </g>
   <g id="line2d_35">
    <path d="M 60.030813 440.035367
L 64.474626 431.619469
L 68.918439 425.527743
L 73.362252 421.046006
L 77.806066 417.57811
L 82.249879 414.776696
L 86.693692 412.438697
L 91.137505 410.438546
L 95.581319 408.694494
L 100.025132 407.150415
L 104.468945 405.766343
L 113.356572 403.368027
L 122.244198 401.338582
L 131.131825 399.57859
L 140.019452 398.022459
L 153.350891 395.974362
L 166.682331 394.179717
L 184.457584 392.06422
L 206.676651 389.71793
L 233.33953 387.161134
L 331.103423 378.071429
L 353.322489 375.711594
L 375.541555 373.106665
L 393.316809 370.788643
L 411.092062 368.203878
L 424.423502 366.051287
L 437.754941 363.682239
L 451.086381 361.069663
L 464.417821 358.200151
L 477.749261 355.094064
L 522.187394 344.434835
L 535.518834 341.691551
L 548.850273 339.28455
L 562.181713 337.196913
L 575.513153 335.39038
L 588.844593 333.822538
L 602.176033 332.454739
L 619.951286 330.886229
L 637.726539 329.553306
L 659.945605 328.147878
L 682.164672 326.970046
L 708.827552 325.789438
L 739.934245 324.659421
L 771.040937 323.733909
L 771.040937 323.733909
" clip-path="url(#pa8dd8d32b1)" style="fill: none; stroke-dasharray: 8.14,3.52; stroke-dashoffset: 0; stroke: #8c564b; stroke-width: 2.2"/>
   </g>
   <g id="line2d_36">
    <path d="M 60.030813 125.725822
L 64.474626 133.306423
L 68.918439 138.849248
L 73.362252 142.996823
L 77.806066 146.277174
L 82.249879 148.993407
L 86.693692 151.320384
L 91.137505 153.364881
L 95.581319 155.196481
L 100.025132 156.862119
L 108.912759 159.819735
L 117.800385 162.413238
L 126.688012 164.745881
L 135.575638 166.883386
L 148.907078 169.817434
L 162.238518 172.50961
L 180.013771 175.832914
L 202.232837 179.694816
L 228.895717 184.064408
L 273.33385 191.069585
L 317.771983 198.140539
L 344.434862 202.5968
L 366.653929 206.528734
L 384.429182 209.873034
L 402.204435 213.447701
L 415.535875 216.315863
L 428.867315 219.376218
L 442.198755 222.657997
L 455.530195 226.184512
L 468.861634 229.958945
L 486.636887 235.297426
L 508.855954 242.042115
L 522.187394 245.830789
L 531.07502 248.171353
L 539.962647 250.346181
L 548.850273 252.354504
L 557.7379 254.203382
L 571.06934 256.703898
L 584.40078 258.916508
L 597.73222 260.883803
L 611.063659 262.643684
L 628.838912 264.720659
L 646.614166 266.54383
L 664.389419 268.15904
L 686.608485 269.939002
L 708.827552 271.502144
L 735.490431 273.146958
L 766.597124 274.810282
L 771.040937 275.028895
L 771.040937 275.028895
" clip-path="url(#pa8dd8d32b1)" style="fill: none; stroke-dasharray: 8.14,3.52; stroke-dashoffset: 0; stroke: #7f7f7f; stroke-width: 2.2"/>
   </g>
   <g id="line2d_37">
    <path d="M 60.030813 43.315979
L 148.907078 44.843925
L 246.67097 46.728529
L 339.991049 48.744403
L 459.974008 51.369928
L 486.636887 51.694274
L 508.855954 51.74648
L 535.518834 51.565572
L 588.844593 50.897379
L 664.389419 50.023257
L 739.934245 49.379659
L 771.040937 49.167509
L 771.040937 49.167509
" clip-path="url(#pa8dd8d32b1)" style="fill: none; stroke-dasharray: 8.14,3.52; stroke-dashoffset: 0; stroke: #e377c2; stroke-width: 2.2"/>
   </g>
   <g id="line2d_38">
    <defs>
     <path id="m4b3e59d990" d="M 0 3.4
C 0.901691 3.4 1.766572 3.041755 2.404163 2.404163
C 3.041755 1.766572 3.4 0.901691 3.4 0
C 3.4 -0.901691 3.041755 -1.766572 2.404163 -2.404163
C 1.766572 -3.041755 0.901691 -3.4 0 -3.4
C -0.901691 -3.4 -1.766572 -3.041755 -2.404163 -2.404163
C -3.041755 -1.766572 -3.4 -0.901691 -3.4 0
C -3.4 0.901691 -3.041755 1.766572 -2.404163 2.404163
C -1.766572 3.041755 -0.901691 3.4 0 3.4
z
"/>
    </defs>
    <g clip-path="url(#pa8dd8d32b1)">
     <use xlink:href="#m4b3e59d990" x="116.092937" y="42.367395" style="fill: #e377c2; fill-opacity: 0.78"/>
     <use xlink:href="#m4b3e59d990" x="184.613312" y="43.947755" style="fill: #e377c2; fill-opacity: 0.78"/>
     <use xlink:href="#m4b3e59d990" x="277.160312" y="46.224692" style="fill: #e377c2; fill-opacity: 0.78"/>
     <use xlink:href="#m4b3e59d990" x="358.138937" y="46.640843" style="fill: #e377c2; fill-opacity: 0.78"/>
     <use xlink:href="#m4b3e59d990" x="413.311187" y="47.329441" style="fill: #e377c2; fill-opacity: 0.78"/>
     <use xlink:href="#m4b3e59d990" x="512.977187" y="44.853212" style="fill: #e377c2; fill-opacity: 0.78"/>
    </g>
   </g>
   <g id="patch_3">
    <path d="M 59.140938 484.51718
L 59.140938 11.18918
" style="fill: none; stroke: #000000; stroke-width: 0.9; stroke-linejoin: miter; stroke-linecap: square"/>
   </g>
   <g id="patch_4">
    <path d="M 771.040937 484.51718
L 771.040937 11.18918
" style="fill: none; stroke: #000000; stroke-width: 0.9; stroke-linejoin: miter; stroke-linecap: square"/>
   </g>
   <g id="patch_5">
    <path d="M 59.140938 484.51718
L 771.040937 484.51718
" style="fill: none; stroke: #000000; stroke-width: 0.9; stroke-linejoin: miter; stroke-linecap: square"/>
   </g>
   <g id="patch_6">
    <path d="M 59.140938 11.18918
L 771.040937 11.18918
" style="fill: none; stroke: #000000; stroke-width: 0.9; stroke-linejoin: miter; stroke-linecap: square"/>
   </g>
   <g id="legend_1">
    <g id="patch_7">
     <path d="M 362.890937 480.01718
L 467.290937 480.01718
Q 469.090937 480.01718 469.090937 478.21718
L 469.090937 356.746711
Q 469.090937 354.946711 467.290937 354.946711
L 362.890937 354.946711
Q 361.090937 354.946711 361.090937 356.746711
L 361.090937 478.21718
Q 361.090937 480.01718 362.890937 480.01718
z
" style="fill: #ffffff; opacity: 0.88; stroke: #cccccc; stroke-linejoin: miter"/>
    </g>
    <g id="line2d_39">
     <path d="M 365.140937 362.685305
L 375.490937 362.685305
L 385.840937 362.685305
" style="fill: none; stroke-dasharray: 8.14,3.52; stroke-dashoffset: 0; stroke: #16805a; stroke-width: 2.2"/>
    </g>
    <g id="text_29">
     <!-- $CO_2$ -->
     <g transform="translate(393.040937 365.835305) scale(0.09 -0.09)">
      <use xlink:href="#DejaVuSerif-Italic-43" transform="translate(0 0.78125)"/>
      <use xlink:href="#DejaVuSerif-Italic-4f" transform="translate(76.513672 0.78125)"/>
      <use xlink:href="#DejaVuSerif-32" transform="translate(158.496094 -14.790625) scale(0.7)"/>
     </g>
    </g>
    <g id="line2d_40">
     <path d="M 365.140937 375.895617
L 375.490937 375.895617
L 385.840937 375.895617
" style="fill: none; stroke-dasharray: 8.14,3.52; stroke-dashoffset: 0; stroke: #1f5aa6; stroke-width: 2.2"/>
    </g>
    <g id="text_30">
     <!-- $MEA$ -->
     <g transform="translate(393.040937 379.045617) scale(0.09 -0.09)">
      <defs>
       <path id="DejaVuSerif-Italic-4d" d="M -97 0
L -34 331
L 559 331
L 1338 4331
L 709 4331
L 775 4666
L 2134 4666
L 3125 1344
L 5409 4666
L 6684 4666
L 6619 4331
L 5997 4331
L 5222 331
L 5816 331
L 5753 0
L 3928 0
L 3991 331
L 4584 331
L 5288 3938
L 3053 684
L 2613 684
L 1647 3938
L 944 331
L 1538 331
L 1475 0
L -97 0
z
" transform="scale(0.015625)"/>
       <path id="DejaVuSerif-Italic-45" d="M -97 0
L -34 331
L 559 331
L 1338 4331
L 744 4331
L 809 4666
L 4566 4666
L 4366 3628
L 3981 3628
L 4106 4281
L 1963 4281
L 1659 2719
L 3188 2719
L 3300 3303
L 3684 3303
L 3384 1753
L 3000 1753
L 3113 2338
L 1584 2338
L 1206 384
L 3400 384
L 3525 1038
L 3909 1038
L 3709 0
L -97 0
z
" transform="scale(0.015625)"/>
       <path id="DejaVuSerif-Italic-41" d="M 1159 1691
L 2872 1691
L 2447 3909
L 1159 1691
z
M -488 0
L -425 331
L -16 331
L 2491 4666
L 3016 4666
L 3841 331
L 4297 331
L 4234 0
L 2538 0
L 2600 331
L 3119 331
L 2928 1356
L 966 1356
L 375 331
L 888 331
L 825 0
L -488 0
z
" transform="scale(0.015625)"/>
      </defs>
      <use xlink:href="#DejaVuSerif-Italic-4d" transform="translate(0 0.09375)"/>
      <use xlink:href="#DejaVuSerif-Italic-45" transform="translate(102.392578 0.09375)"/>
      <use xlink:href="#DejaVuSerif-Italic-41" transform="translate(175.390625 0.09375)"/>
     </g>
    </g>
    <g id="line2d_41">
     <path d="M 365.140937 389.10593
L 375.490937 389.10593
L 385.840937 389.10593
" style="fill: none; stroke-dasharray: 8.14,3.52; stroke-dashoffset: 0; stroke: #bcbd22; stroke-width: 2.2"/>
    </g>
    <g id="text_31">
     <!-- $MEAH^+$ -->
     <g transform="translate(393.040937 392.25593) scale(0.09 -0.09)">
      <defs>
       <path id="DejaVuSerif-Italic-48" d="M -97 0
L -34 331
L 559 331
L 1338 4331
L 744 4331
L 809 4666
L 2631 4666
L 2566 4331
L 1972 4331
L 1659 2719
L 4078 2719
L 4391 4331
L 3797 4331
L 3863 4666
L 5684 4666
L 5619 4331
L 5025 4331
L 4247 331
L 4841 331
L 4778 0
L 2956 0
L 3019 331
L 3616 331
L 4003 2338
L 1584 2338
L 1194 331
L 1788 331
L 1725 0
L -97 0
z
" transform="scale(0.015625)"/>
       <path id="DejaVuSerif-2b" d="M 2931 4013
L 2931 2259
L 4684 2259
L 4684 1753
L 2931 1753
L 2931 0
L 2431 0
L 2431 1753
L 678 1753
L 678 2259
L 2431 2259
L 2431 4013
L 2931 4013
z
" transform="scale(0.015625)"/>
      </defs>
      <use xlink:href="#DejaVuSerif-Italic-4d" transform="translate(0 0.773438)"/>
      <use xlink:href="#DejaVuSerif-Italic-45" transform="translate(102.392578 0.773438)"/>
      <use xlink:href="#DejaVuSerif-Italic-41" transform="translate(175.390625 0.773438)"/>
      <use xlink:href="#DejaVuSerif-Italic-48" transform="translate(247.607422 0.773438)"/>
      <use xlink:href="#DejaVuSerif-2b" transform="translate(355.268854 37.107812) scale(0.7)"/>
     </g>
    </g>
    <g id="line2d_42">
     <path d="M 365.140937 402.316242
L 375.490937 402.316242
L 385.840937 402.316242
" style="fill: none; stroke-dasharray: 8.14,3.52; stroke-dashoffset: 0; stroke: #d62728; stroke-width: 2.2"/>
    </g>
    <g id="text_32">
     <!-- $MEACOO^-$ -->
     <g transform="translate(393.040937 405.466242) scale(0.09 -0.09)">
      <use xlink:href="#DejaVuSerif-Italic-4d" transform="translate(0 0.78125)"/>
      <use xlink:href="#DejaVuSerif-Italic-45" transform="translate(102.392578 0.78125)"/>
      <use xlink:href="#DejaVuSerif-Italic-41" transform="translate(175.390625 0.78125)"/>
      <use xlink:href="#DejaVuSerif-Italic-43" transform="translate(247.607422 0.78125)"/>
      <use xlink:href="#DejaVuSerif-Italic-4f" transform="translate(324.121094 0.78125)"/>
      <use xlink:href="#DejaVuSerif-Italic-4f" transform="translate(406.103516 0.78125)"/>
      <use xlink:href="#DejaVuSerif-2212" transform="translate(508.724089 37.115625) scale(0.7)"/>
     </g>
    </g>
    <g id="line2d_43">
     <path d="M 365.140937 415.526555
L 375.490937 415.526555
L 385.840937 415.526555
" style="fill: none; stroke-dasharray: 8.14,3.52; stroke-dashoffset: 0; stroke: #17becf; stroke-width: 2.2"/>
    </g>
    <g id="text_33">
     <!-- $HCO_3^-$ -->
     <g transform="translate(393.040937 418.676555) scale(0.09 -0.09)">
      <use xlink:href="#DejaVuSerif-Italic-48" transform="translate(0 0.78125)"/>
      <use xlink:href="#DejaVuSerif-Italic-43" transform="translate(87.207031 0.78125)"/>
      <use xlink:href="#DejaVuSerif-Italic-4f" transform="translate(163.720703 0.78125)"/>
      <use xlink:href="#DejaVuSerif-2212" transform="translate(266.341276 39.28125) scale(0.7)"/>
      <use xlink:href="#DejaVuSerif-33" transform="translate(245.703125 -25.171875) scale(0.7)"/>
     </g>
    </g>
    <g id="line2d_44">
     <path d="M 365.140937 430.646555
L 375.490937 430.646555
L 385.840937 430.646555
" style="fill: none; stroke-dasharray: 8.14,3.52; stroke-dashoffset: 0; stroke: #9467bd; stroke-width: 2.2"/>
    </g>
    <g id="text_34">
     <!-- $CO_3^{2-}$ -->
     <g transform="translate(393.040937 433.796555) scale(0.09 -0.09)">
      <use xlink:href="#DejaVuSerif-Italic-43" transform="translate(0 0.546875)"/>
      <use xlink:href="#DejaVuSerif-Italic-4f" transform="translate(76.513672 0.546875)"/>
      <use xlink:href="#DejaVuSerif-32" transform="translate(165.858854 39.046875) scale(0.7)"/>
      <use xlink:href="#DejaVuSerif-2212" transform="translate(223.670378 39.046875) scale(0.7)"/>
      <use xlink:href="#DejaVuSerif-33" transform="translate(158.496094 -25.40625) scale(0.7)"/>
     </g>
    </g>
    <g id="line2d_45">
     <path d="M 365.140937 444.524836
L 375.490937 444.524836
L 385.840937 444.524836
" style="fill: none; stroke-dasharray: 8.14,3.52; stroke-dashoffset: 0; stroke: #8c564b; stroke-width: 2.2"/>
    </g>
    <g id="text_35">
     <!-- $H_3O^+$ -->
     <g transform="translate(393.040937 447.674836) scale(0.09 -0.09)">
      <use xlink:href="#DejaVuSerif-Italic-48" transform="translate(0 0.773438)"/>
      <use xlink:href="#DejaVuSerif-33" transform="translate(87.207031 -14.798438) scale(0.7)"/>
      <use xlink:href="#DejaVuSerif-Italic-4f" transform="translate(134.338477 0.773438)"/>
      <use xlink:href="#DejaVuSerif-2b" transform="translate(236.959049 37.107812) scale(0.7)"/>
     </g>
    </g>
    <g id="line2d_46">
     <path d="M 365.140937 457.735148
L 375.490937 457.735148
L 385.840937 457.735148
" style="fill: none; stroke-dasharray: 8.14,3.52; stroke-dashoffset: 0; stroke: #7f7f7f; stroke-width: 2.2"/>
    </g>
    <g id="text_36">
     <!-- $OH^-$ -->
     <g transform="translate(393.040937 460.885148) scale(0.09 -0.09)">
      <use xlink:href="#DejaVuSerif-Italic-4f" transform="translate(0 0.78125)"/>
      <use xlink:href="#DejaVuSerif-Italic-48" transform="translate(81.982422 0.78125)"/>
      <use xlink:href="#DejaVuSerif-2212" transform="translate(189.643854 37.115625) scale(0.7)"/>
     </g>
    </g>
    <g id="line2d_47">
     <path d="M 365.140937 470.945461
L 375.490937 470.945461
L 385.840937 470.945461
" style="fill: none; stroke-dasharray: 8.14,3.52; stroke-dashoffset: 0; stroke: #e377c2; stroke-width: 2.2"/>
    </g>
    <g id="text_37">
     <!-- $MEA + MEAH^+$ -->
     <g transform="translate(393.040937 474.095461) scale(0.09 -0.09)">
      <use xlink:href="#DejaVuSerif-Italic-4d" transform="translate(0 0.773438)"/>
      <use xlink:href="#DejaVuSerif-Italic-45" transform="translate(102.392578 0.773438)"/>
      <use xlink:href="#DejaVuSerif-Italic-41" transform="translate(175.390625 0.773438)"/>
      <use xlink:href="#DejaVuSerif-2b" transform="translate(266.572266 0.773438)"/>
      <use xlink:href="#DejaVuSerif-Italic-4d" transform="translate(369.326172 0.773438)"/>
      <use xlink:href="#DejaVuSerif-Italic-45" transform="translate(471.71875 0.773438)"/>
      <use xlink:href="#DejaVuSerif-Italic-41" transform="translate(544.716797 0.773438)"/>
      <use xlink:href="#DejaVuSerif-Italic-48" transform="translate(616.933594 0.773438)"/>
      <use xlink:href="#DejaVuSerif-2b" transform="translate(724.595026 37.107812) scale(0.7)"/>
     </g>
    </g>
   </g>
  </g>
 </g>
 <defs>
  <clipPath id="pa8dd8d32b1">
   <rect x="59.140938" y="11.18918" width="711.9" height="473.328"/>
  </clipPath>
 </defs>
</svg>
