<?xml version="1.0" encoding="utf-8" standalone="no"?>
<!DOCTYPE svg PUBLIC "-//W3C//DTD SVG 1.1//EN"
  "http://www.w3.org/Graphics/SVG/1.1/DTD/svg11.dtd">
<svg xmlns:xlink="http://www.w3.org/1999/xlink" width="789.930391pt" height="524.769211pt" viewBox="0 0 789.930391 524.769211" xmlns="http://www.w3.org/2000/svg" version="1.1">
 <metadata>
  <rdf:RDF xmlns:dc="http://purl.org/dc/elements/1.1/" xmlns:cc="http://creativecommons.org/ns#" xmlns:rdf="http://www.w3.org/1999/02/22-rdf-syntax-ns#">
   <cc:Work>
    <dc:type rdf:resource="http://purl.org/dc/dcmitype/StillImage"/>
    <dc:date>2026-07-09T17:06:24.421762</dc:date>
    <dc:format>image/svg+xml</dc:format>
    <dc:creator>
     <cc:Agent>
      <dc:title>Matplotlib v3.10.9, https://matplotlib.org/</dc:title>
     </cc:Agent>
    </dc:creator>
   </cc:Work>
  </rdf:RDF>
 </metadata>
 <defs>
  <style type="text/css">*{stroke-linejoin: round; stroke-linecap: butt}</style>
 </defs>
 <g id="figure_1">
  <g id="patch_1">
   <path d="M 0 524.769211
L 789.930391 524.769211
L 789.930391 0
L 0 0
z
" style="fill: #ffffff"/>
  </g>
  <g id="axes_1">
   <g id="patch_2">
    <path d="M 59.140938 484.51718
L 771.040937 484.51718
L 771.040937 11.18918
L 59.140938 11.18918
z
" style="fill: #ffffff"/>
   </g>
   <g id="matplotlib.axis_1">
    <g id="xtick_1">
     <g id="line2d_1">
      <defs>
       <path id="m4f924c1809" d="M 0 0
L 0 4.5
" style="stroke: #000000; stroke-width: 0.9"/>
      </defs>
      <g>
       <use xlink:href="#m4f924c1809" x="59.140938" y="484.51718" style="stroke: #000000; stroke-width: 0.9"/>
      </g>
     </g>
     <g id="text_1">
      <!-- 0.00 -->
      <g transform="translate(47.451484 500.495539) scale(0.105 -0.105)">
       <defs>
        <path id="DejaVuSerif-30" d="M 2034 219
Q 2513 219 2750 744
Q 2988 1269 2988 2328
Q 2988 3391 2750 3916
Q 2513 4441 2034 4441
Q 1556 4441 1318 3916
Q 1081 3391 1081 2328
Q 1081 1269 1318 744
Q 1556 219 2034 219
z
M 2034 -91
Q 1275 -91 848 546
Q 422 1184 422 2328
Q 422 3475 848 4112
Q 1275 4750 2034 4750
Q 2797 4750 3222 4112
Q 3647 3475 3647 2328
Q 3647 1184 3222 546
Q 2797 -91 2034 -91
z
" transform="scale(0.015625)"/>
        <path id="DejaVuSerif-2e" d="M 603 325
Q 603 500 722 622
Q 841 744 1019 744
Q 1191 744 1312 622
Q 1434 500 1434 325
Q 1434 153 1312 31
Q 1191 -91 1019 -91
Q 841 -91 722 29
Q 603 150 603 325
z
" transform="scale(0.015625)"/>
       </defs>
       <use xlink:href="#DejaVuSerif-30"/>
       <use xlink:href="#DejaVuSerif-2e" transform="translate(63.623047 0)"/>
       <use xlink:href="#DejaVuSerif-30" transform="translate(95.410156 0)"/>
       <use xlink:href="#DejaVuSerif-30" transform="translate(159.033203 0)"/>
      </g>
     </g>
    </g>
    <g id="xtick_2">
     <g id="line2d_2">
      <g>
       <use xlink:href="#m4f924c1809" x="130.330938" y="484.51718" style="stroke: #000000; stroke-width: 0.9"/>
      </g>
     </g>
     <g id="text_2">
      <!-- 0.08 -->
      <g transform="translate(118.641484 500.495539) scale(0.105 -0.105)">
       <defs>
        <path id="DejaVuSerif-38" d="M 2981 1275
Q 2981 1775 2732 2051
Q 2484 2328 2034 2328
Q 1584 2328 1336 2051
Q 1088 1775 1088 1275
Q 1088 772 1336 495
Q 1584 219 2034 219
Q 2484 219 2732 495
Q 2981 772 2981 1275
z
M 2853 3541
Q 2853 3966 2637 4203
Q 2422 4441 2034 4441
Q 1650 4441 1433 4203
Q 1216 3966 1216 3541
Q 1216 3113 1433 2875
Q 1650 2638 2034 2638
Q 2422 2638 2637 2875
Q 2853 3113 2853 3541
z
M 2516 2484
Q 3047 2413 3344 2092
Q 3641 1772 3641 1275
Q 3641 619 3225 264
Q 2809 -91 2034 -91
Q 1263 -91 845 264
Q 428 619 428 1275
Q 428 1772 725 2092
Q 1022 2413 1556 2484
Q 1084 2569 832 2842
Q 581 3116 581 3541
Q 581 4103 968 4426
Q 1356 4750 2034 4750
Q 2713 4750 3100 4426
Q 3488 4103 3488 3541
Q 3488 3116 3236 2842
Q 2984 2569 2516 2484
z
" transform="scale(0.015625)"/>
       </defs>
       <use xlink:href="#DejaVuSerif-30"/>
       <use xlink:href="#DejaVuSerif-2e" transform="translate(63.623047 0)"/>
       <use xlink:href="#DejaVuSerif-30" transform="translate(95.410156 0)"/>
       <use xlink:href="#DejaVuSerif-38" transform="translate(159.033203 0)"/>
      </g>
     </g>
    </g>
    <g id="xtick_3">
     <g id="line2d_3">
      <g>
       <use xlink:href="#m4f924c1809" x="201.520937" y="484.51718" style="stroke: #000000; stroke-width: 0.9"/>
      </g>
     </g>
     <g id="text_3">
      <!-- 0.16 -->
      <g transform="translate(189.831484 500.495539) scale(0.105 -0.105)">
       <defs>
        <path id="DejaVuSerif-31" d="M 909 0
L 909 331
L 1722 331
L 1722 4213
L 781 3603
L 781 4013
L 1919 4750
L 2350 4750
L 2350 331
L 3163 331
L 3163 0
L 909 0
z
" transform="scale(0.015625)"/>
        <path id="DejaVuSerif-36" d="M 2094 219
Q 2534 219 2771 542
Q 3009 866 3009 1472
Q 3009 2078 2771 2401
Q 2534 2725 2094 2725
Q 1647 2725 1412 2412
Q 1178 2100 1178 1509
Q 1178 888 1415 553
Q 1653 219 2094 219
z
M 1075 2569
Q 1288 2803 1556 2918
Q 1825 3034 2163 3034
Q 2859 3034 3264 2615
Q 3669 2197 3669 1472
Q 3669 763 3233 336
Q 2797 -91 2069 -91
Q 1278 -91 853 498
Q 428 1088 428 2181
Q 428 3406 931 4078
Q 1434 4750 2350 4750
Q 2597 4750 2869 4703
Q 3141 4656 3425 4563
L 3425 3794
L 3072 3794
Q 3034 4109 2831 4275
Q 2628 4441 2284 4441
Q 1678 4441 1381 3981
Q 1084 3522 1075 2569
z
" transform="scale(0.015625)"/>
       </defs>
       <use xlink:href="#DejaVuSerif-30"/>
       <use xlink:href="#DejaVuSerif-2e" transform="translate(63.623047 0)"/>
       <use xlink:href="#DejaVuSerif-31" transform="translate(95.410156 0)"/>
       <use xlink:href="#DejaVuSerif-36" transform="translate(159.033203 0)"/>
      </g>
     </g>
    </g>
    <g id="xtick_4">
     <g id="line2d_4">
      <g>
       <use xlink:href="#m4f924c1809" x="272.710937" y="484.51718" style="stroke: #000000; stroke-width: 0.9"/>
      </g>
     </g>
     <g id="text_4">
      <!-- 0.24 -->
      <g transform="translate(261.021484 500.495539) scale(0.105 -0.105)">
       <defs>
        <path id="DejaVuSerif-32" d="M 819 3553
L 469 3553
L 469 4384
Q 803 4563 1142 4656
Q 1481 4750 1806 4750
Q 2534 4750 2956 4397
Q 3378 4044 3378 3438
Q 3378 2753 2422 1800
Q 2347 1728 2309 1691
L 1131 513
L 3078 513
L 3078 1088
L 3444 1088
L 3444 0
L 434 0
L 434 341
L 1850 1753
Q 2319 2222 2519 2614
Q 2719 3006 2719 3438
Q 2719 3909 2473 4175
Q 2228 4441 1797 4441
Q 1350 4441 1106 4219
Q 863 3997 819 3553
z
" transform="scale(0.015625)"/>
        <path id="DejaVuSerif-34" d="M 2234 1581
L 2234 4063
L 641 1581
L 2234 1581
z
M 3609 0
L 1484 0
L 1484 331
L 2234 331
L 2234 1247
L 197 1247
L 197 1588
L 2241 4750
L 2859 4750
L 2859 1581
L 3750 1581
L 3750 1247
L 2859 1247
L 2859 331
L 3609 331
L 3609 0
z
" transform="scale(0.015625)"/>
       </defs>
       <use xlink:href="#DejaVuSerif-30"/>
       <use xlink:href="#DejaVuSerif-2e" transform="translate(63.623047 0)"/>
       <use xlink:href="#DejaVuSerif-32" transform="translate(95.410156 0)"/>
       <use xlink:href="#DejaVuSerif-34" transform="translate(159.033203 0)"/>
      </g>
     </g>
    </g>
    <g id="xtick_5">
     <g id="line2d_5">
      <g>
       <use xlink:href="#m4f924c1809" x="343.900937" y="484.51718" style="stroke: #000000; stroke-width: 0.9"/>
      </g>
     </g>
     <g id="text_5">
      <!-- 0.32 -->
      <g transform="translate(332.211484 500.495539) scale(0.105 -0.105)">
       <defs>
        <path id="DejaVuSerif-33" d="M 622 4469
Q 988 4606 1323 4678
Q 1659 4750 1953 4750
Q 2638 4750 3022 4454
Q 3406 4159 3406 3634
Q 3406 3213 3140 2930
Q 2875 2647 2388 2547
Q 2963 2466 3280 2130
Q 3597 1794 3597 1259
Q 3597 606 3158 257
Q 2719 -91 1894 -91
Q 1528 -91 1179 -12
Q 831 66 488 225
L 488 1131
L 838 1131
Q 869 681 1141 450
Q 1413 219 1906 219
Q 2384 219 2661 495
Q 2938 772 2938 1253
Q 2938 1803 2653 2086
Q 2369 2369 1819 2369
L 1522 2369
L 1522 2688
L 1678 2688
Q 2225 2688 2498 2914
Q 2772 3141 2772 3597
Q 2772 4006 2547 4223
Q 2322 4441 1900 4441
Q 1478 4441 1245 4241
Q 1013 4041 972 3647
L 622 3647
L 622 4469
z
" transform="scale(0.015625)"/>
       </defs>
       <use xlink:href="#DejaVuSerif-30"/>
       <use xlink:href="#DejaVuSerif-2e" transform="translate(63.623047 0)"/>
       <use xlink:href="#DejaVuSerif-33" transform="translate(95.410156 0)"/>
       <use xlink:href="#DejaVuSerif-32" transform="translate(159.033203 0)"/>
      </g>
     </g>
    </g>
    <g id="xtick_6">
     <g id="line2d_6">
      <g>
       <use xlink:href="#m4f924c1809" x="415.090937" y="484.51718" style="stroke: #000000; stroke-width: 0.9"/>
      </g>
     </g>
     <g id="text_6">
      <!-- 0.40 -->
      <g transform="translate(403.401484 500.495539) scale(0.105 -0.105)">
       <use xlink:href="#DejaVuSerif-30"/>
       <use xlink:href="#DejaVuSerif-2e" transform="translate(63.623047 0)"/>
       <use xlink:href="#DejaVuSerif-34" transform="translate(95.410156 0)"/>
       <use xlink:href="#DejaVuSerif-30" transform="translate(159.033203 0)"/>
      </g>
     </g>
    </g>
    <g id="xtick_7">
     <g id="line2d_7">
      <g>
       <use xlink:href="#m4f924c1809" x="486.280937" y="484.51718" style="stroke: #000000; stroke-width: 0.9"/>
      </g>
     </g>
     <g id="text_7">
      <!-- 0.48 -->
      <g transform="translate(474.591484 500.495539) scale(0.105 -0.105)">
       <use xlink:href="#DejaVuSerif-30"/>
       <use xlink:href="#DejaVuSerif-2e" transform="translate(63.623047 0)"/>
       <use xlink:href="#DejaVuSerif-34" transform="translate(95.410156 0)"/>
       <use xlink:href="#DejaVuSerif-38" transform="translate(159.033203 0)"/>
      </g>
     </g>
    </g>
    <g id="xtick_8">
     <g id="line2d_8">
      <g>
       <use xlink:href="#m4f924c1809" x="557.470937" y="484.51718" style="stroke: #000000; stroke-width: 0.9"/>
      </g>
     </g>
     <g id="text_8">
      <!-- 0.56 -->
      <g transform="translate(545.781484 500.495539) scale(0.105 -0.105)">
       <defs>
        <path id="DejaVuSerif-35" d="M 3219 4666
L 3219 4153
L 1081 4153
L 1081 2816
Q 1244 2928 1461 2984
Q 1678 3041 1947 3041
Q 2703 3041 3140 2622
Q 3578 2203 3578 1478
Q 3578 738 3136 323
Q 2694 -91 1894 -91
Q 1572 -91 1234 -12
Q 897 66 544 225
L 544 1131
L 897 1131
Q 925 688 1179 453
Q 1434 219 1894 219
Q 2388 219 2653 544
Q 2919 869 2919 1478
Q 2919 2084 2655 2407
Q 2391 2731 1894 2731
Q 1613 2731 1398 2631
Q 1184 2531 1019 2322
L 750 2322
L 750 4666
L 3219 4666
z
" transform="scale(0.015625)"/>
       </defs>
       <use xlink:href="#DejaVuSerif-30"/>
       <use xlink:href="#DejaVuSerif-2e" transform="translate(63.623047 0)"/>
       <use xlink:href="#DejaVuSerif-35" transform="translate(95.410156 0)"/>
       <use xlink:href="#DejaVuSerif-36" transform="translate(159.033203 0)"/>
      </g>
     </g>
    </g>
    <g id="xtick_9">
     <g id="line2d_9">
      <g>
       <use xlink:href="#m4f924c1809" x="628.660937" y="484.51718" style="stroke: #000000; stroke-width: 0.9"/>
      </g>
     </g>
     <g id="text_9">
      <!-- 0.64 -->
      <g transform="translate(616.971484 500.495539) scale(0.105 -0.105)">
       <use xlink:href="#DejaVuSerif-30"/>
       <use xlink:href="#DejaVuSerif-2e" transform="translate(63.623047 0)"/>
       <use xlink:href="#DejaVuSerif-36" transform="translate(95.410156 0)"/>
       <use xlink:href="#DejaVuSerif-34" transform="translate(159.033203 0)"/>
      </g>
     </g>
    </g>
    <g id="xtick_10">
     <g id="line2d_10">
      <g>
       <use xlink:href="#m4f924c1809" x="699.850937" y="484.51718" style="stroke: #000000; stroke-width: 0.9"/>
      </g>
     </g>
     <g id="text_10">
      <!-- 0.72 -->
      <g transform="translate(688.161484 500.495539) scale(0.105 -0.105)">
       <defs>
        <path id="DejaVuSerif-37" d="M 3609 4347
L 1784 0
L 1319 0
L 3059 4153
L 903 4153
L 903 3578
L 538 3578
L 538 4666
L 3609 4666
L 3609 4347
z
" transform="scale(0.015625)"/>
       </defs>
       <use xlink:href="#DejaVuSerif-30"/>
       <use xlink:href="#DejaVuSerif-2e" transform="translate(63.623047 0)"/>
       <use xlink:href="#DejaVuSerif-37" transform="translate(95.410156 0)"/>
       <use xlink:href="#DejaVuSerif-32" transform="translate(159.033203 0)"/>
      </g>
     </g>
    </g>
    <g id="xtick_11">
     <g id="line2d_11">
      <g>
       <use xlink:href="#m4f924c1809" x="771.040937" y="484.51718" style="stroke: #000000; stroke-width: 0.9"/>
      </g>
     </g>
     <g id="text_11">
      <!-- 0.80 -->
      <g transform="translate(759.351484 500.495539) scale(0.105 -0.105)">
       <use xlink:href="#DejaVuSerif-30"/>
       <use xlink:href="#DejaVuSerif-2e" transform="translate(63.623047 0)"/>
       <use xlink:href="#DejaVuSerif-38" transform="translate(95.410156 0)"/>
       <use xlink:href="#DejaVuSerif-30" transform="translate(159.033203 0)"/>
      </g>
     </g>
    </g>
    <g id="text_12">
     <!-- $CO_2$ loading, mol $CO_2$/mol MEA -->
     <g transform="translate(326.980937 515.039211) scale(0.11 -0.11)">
      <defs>
       <path id="DejaVuSerif-Italic-43" d="M 4300 1234
Q 3966 581 3414 245
Q 2863 -91 2119 -91
Q 1663 -91 1303 65
Q 944 222 700 525
Q 419 875 334 1320
Q 250 1766 359 2328
Q 572 3416 1330 4083
Q 2088 4750 3116 4750
Q 3497 4750 3908 4650
Q 4319 4550 4775 4347
L 4569 3272
L 4216 3272
Q 4213 3859 3919 4137
Q 3625 4416 2997 4416
Q 2250 4416 1762 3886
Q 1275 3356 1075 2328
Q 875 1303 1156 773
Q 1438 244 2184 244
Q 2706 244 3092 492
Q 3478 741 3725 1234
L 4300 1234
z
" transform="scale(0.015625)"/>
       <path id="DejaVuSerif-Italic-4f" d="M 2219 244
Q 2984 244 3478 770
Q 3972 1297 4172 2328
Q 4372 3363 4084 3889
Q 3797 4416 3031 4416
Q 2263 4416 1769 3889
Q 1275 3363 1075 2328
Q 875 1297 1162 770
Q 1450 244 2219 244
z
M 2153 -91
Q 1678 -91 1311 65
Q 944 222 700 525
Q 419 875 334 1319
Q 250 1763 359 2328
Q 469 2894 725 3339
Q 981 3784 1400 4134
Q 1766 4441 2191 4595
Q 2616 4750 3097 4750
Q 4113 4750 4608 4084
Q 5103 3419 4891 2328
Q 4781 1769 4522 1320
Q 4263 872 3847 525
Q 3481 219 3056 64
Q 2631 -91 2153 -91
z
" transform="scale(0.015625)"/>
       <path id="DejaVuSerif-20" transform="scale(0.015625)"/>
       <path id="DejaVuSerif-6c" d="M 1313 331
L 1856 331
L 1856 0
L 184 0
L 184 331
L 738 331
L 738 4531
L 184 4531
L 184 4863
L 1313 4863
L 1313 331
z
" transform="scale(0.015625)"/>
       <path id="DejaVuSerif-6f" d="M 1925 219
Q 2388 219 2623 584
Q 2859 950 2859 1663
Q 2859 2375 2623 2739
Q 2388 3103 1925 3103
Q 1463 3103 1227 2739
Q 991 2375 991 1663
Q 991 950 1228 584
Q 1466 219 1925 219
z
M 1925 -91
Q 1200 -91 759 389
Q 319 869 319 1663
Q 319 2456 758 2934
Q 1197 3413 1925 3413
Q 2653 3413 3092 2934
Q 3531 2456 3531 1663
Q 3531 869 3092 389
Q 2653 -91 1925 -91
z
" transform="scale(0.015625)"/>
       <path id="DejaVuSerif-61" d="M 2547 1044
L 2547 1747
L 1806 1747
Q 1378 1747 1168 1562
Q 959 1378 959 997
Q 959 650 1171 447
Q 1384 244 1747 244
Q 2106 244 2326 466
Q 2547 688 2547 1044
z
M 3122 2075
L 3122 331
L 3634 331
L 3634 0
L 2547 0
L 2547 359
Q 2356 128 2106 18
Q 1856 -91 1522 -91
Q 969 -91 644 203
Q 319 497 319 997
Q 319 1513 691 1797
Q 1063 2081 1741 2081
L 2547 2081
L 2547 2309
Q 2547 2688 2317 2895
Q 2088 3103 1672 3103
Q 1328 3103 1125 2947
Q 922 2791 872 2484
L 575 2484
L 575 3156
Q 875 3284 1158 3348
Q 1441 3413 1709 3413
Q 2400 3413 2761 3070
Q 3122 2728 3122 2075
z
" transform="scale(0.015625)"/>
       <path id="DejaVuSerif-64" d="M 3359 331
L 3909 331
L 3909 0
L 2784 0
L 2784 519
Q 2616 206 2355 57
Q 2094 -91 1709 -91
Q 1097 -91 708 395
Q 319 881 319 1663
Q 319 2444 706 2928
Q 1094 3413 1709 3413
Q 2094 3413 2355 3264
Q 2616 3116 2784 2803
L 2784 4531
L 2241 4531
L 2241 4863
L 3359 4863
L 3359 331
z
M 2784 1497
L 2784 1825
Q 2784 2422 2554 2737
Q 2325 3053 1888 3053
Q 1444 3053 1217 2703
Q 991 2353 991 1663
Q 991 975 1217 622
Q 1444 269 1888 269
Q 2325 269 2554 583
Q 2784 897 2784 1497
z
" transform="scale(0.015625)"/>
       <path id="DejaVuSerif-69" d="M 622 4353
Q 622 4497 726 4603
Q 831 4709 978 4709
Q 1122 4709 1226 4603
Q 1331 4497 1331 4353
Q 1331 4206 1228 4103
Q 1125 4000 978 4000
Q 831 4000 726 4103
Q 622 4206 622 4353
z
M 1356 331
L 1900 331
L 1900 0
L 231 0
L 231 331
L 781 331
L 781 2988
L 231 2988
L 231 3322
L 1356 3322
L 1356 331
z
" transform="scale(0.015625)"/>
       <path id="DejaVuSerif-6e" d="M 263 0
L 263 331
L 781 331
L 781 2988
L 231 2988
L 231 3322
L 1356 3322
L 1356 2731
Q 1516 3069 1770 3241
Q 2025 3413 2363 3413
Q 2913 3413 3172 3097
Q 3431 2781 3431 2113
L 3431 331
L 3944 331
L 3944 0
L 2356 0
L 2356 331
L 2853 331
L 2853 1931
Q 2853 2541 2703 2767
Q 2553 2994 2175 2994
Q 1775 2994 1565 2701
Q 1356 2409 1356 1850
L 1356 331
L 1856 331
L 1856 0
L 263 0
z
" transform="scale(0.015625)"/>
       <path id="DejaVuSerif-67" d="M 3359 2988
L 3359 72
Q 3359 -644 2965 -1033
Q 2572 -1422 1844 -1422
Q 1516 -1422 1216 -1362
Q 916 -1303 641 -1184
L 641 -488
L 941 -488
Q 997 -813 1206 -963
Q 1416 -1113 1806 -1113
Q 2313 -1113 2548 -827
Q 2784 -541 2784 72
L 2784 519
Q 2616 206 2355 57
Q 2094 -91 1709 -91
Q 1097 -91 708 395
Q 319 881 319 1663
Q 319 2444 706 2928
Q 1094 3413 1709 3413
Q 2094 3413 2355 3264
Q 2616 3116 2784 2803
L 2784 3322
L 3909 3322
L 3909 2988
L 3359 2988
z
M 2784 1825
Q 2784 2422 2554 2737
Q 2325 3053 1888 3053
Q 1444 3053 1217 2703
Q 991 2353 991 1663
Q 991 975 1217 622
Q 1444 269 1888 269
Q 2325 269 2554 583
Q 2784 897 2784 1497
L 2784 1825
z
" transform="scale(0.015625)"/>
       <path id="DejaVuSerif-2c" d="M 231 -622
Q 525 -406 662 -114
Q 800 178 800 594
L 800 709
L 1416 709
Q 1391 175 1164 -208
Q 938 -591 481 -872
L 231 -622
z
" transform="scale(0.015625)"/>
       <path id="DejaVuSerif-6d" d="M 3316 2675
Q 3481 3041 3739 3227
Q 3997 3413 4341 3413
Q 4863 3413 5119 3089
Q 5375 2766 5375 2113
L 5375 331
L 5894 331
L 5894 0
L 4300 0
L 4300 331
L 4800 331
L 4800 2047
Q 4800 2556 4650 2772
Q 4500 2988 4153 2988
Q 3769 2988 3567 2697
Q 3366 2406 3366 1850
L 3366 331
L 3866 331
L 3866 0
L 2291 0
L 2291 331
L 2791 331
L 2791 2069
Q 2791 2566 2641 2777
Q 2491 2988 2144 2988
Q 1759 2988 1557 2697
Q 1356 2406 1356 1850
L 1356 331
L 1856 331
L 1856 0
L 263 0
L 263 331
L 781 331
L 781 2994
L 231 2994
L 231 3322
L 1356 3322
L 1356 2731
Q 1516 3063 1762 3238
Q 2009 3413 2322 3413
Q 2709 3413 2968 3220
Q 3228 3028 3316 2675
z
" transform="scale(0.015625)"/>
       <path id="DejaVuSerif-2f" d="M 1656 4666
L 2156 4666
L 500 -594
L 0 -594
L 1656 4666
z
" transform="scale(0.015625)"/>
       <path id="DejaVuSerif-4d" d="M 353 0
L 353 331
L 947 331
L 947 4331
L 319 4331
L 319 4666
L 1678 4666
L 3316 1344
L 4953 4666
L 6228 4666
L 6228 4331
L 5606 4331
L 5606 331
L 6203 331
L 6203 0
L 4378 0
L 4378 331
L 4972 331
L 4972 3938
L 3372 684
L 2931 684
L 1331 3938
L 1331 331
L 1925 331
L 1925 0
L 353 0
z
" transform="scale(0.015625)"/>
       <path id="DejaVuSerif-45" d="M 353 0
L 353 331
L 947 331
L 947 4331
L 353 4331
L 353 4666
L 4109 4666
L 4109 3628
L 3725 3628
L 3725 4281
L 1581 4281
L 1581 2719
L 3109 2719
L 3109 3303
L 3494 3303
L 3494 1753
L 3109 1753
L 3109 2338
L 1581 2338
L 1581 384
L 3775 384
L 3775 1038
L 4159 1038
L 4159 0
L 353 0
z
" transform="scale(0.015625)"/>
       <path id="DejaVuSerif-41" d="M 1281 1691
L 2994 1691
L 2138 3909
L 1281 1691
z
M -38 0
L -38 331
L 372 331
L 2034 4666
L 2559 4666
L 4225 331
L 4684 331
L 4684 0
L 2988 0
L 2988 331
L 3506 331
L 3116 1356
L 1153 1356
L 763 331
L 1275 331
L 1275 0
L -38 0
z
" transform="scale(0.015625)"/>
      </defs>
      <use xlink:href="#DejaVuSerif-Italic-43" transform="translate(0 0.015625)"/>
      <use xlink:href="#DejaVuSerif-Italic-4f" transform="translate(76.513672 0.015625)"/>
      <use xlink:href="#DejaVuSerif-32" transform="translate(158.496094 -15.55625) scale(0.7)"/>
      <use xlink:href="#DejaVuSerif-20" transform="translate(205.627539 0.015625)"/>
      <use xlink:href="#DejaVuSerif-6c" transform="translate(237.414648 0.015625)"/>
      <use xlink:href="#DejaVuSerif-6f" transform="translate(269.39707 0.015625)"/>
      <use xlink:href="#DejaVuSerif-61" transform="translate(329.602148 0.015625)"/>
      <use xlink:href="#DejaVuSerif-64" transform="translate(389.221289 0.015625)"/>
      <use xlink:href="#DejaVuSerif-69" transform="translate(453.234961 0.015625)"/>
      <use xlink:href="#DejaVuSerif-6e" transform="translate(485.217383 0.015625)"/>
      <use xlink:href="#DejaVuSerif-67" transform="translate(549.62168 0.015625)"/>
      <use xlink:href="#DejaVuSerif-2c" transform="translate(613.635352 0.015625)"/>
      <use xlink:href="#DejaVuSerif-20" transform="translate(645.422461 0.015625)"/>
      <use xlink:href="#DejaVuSerif-6d" transform="translate(677.20957 0.015625)"/>
      <use xlink:href="#DejaVuSerif-6f" transform="translate(772.033789 0.015625)"/>
      <use xlink:href="#DejaVuSerif-6c" transform="translate(832.238867 0.015625)"/>
      <use xlink:href="#DejaVuSerif-20" transform="translate(864.221289 0.015625)"/>
      <use xlink:href="#DejaVuSerif-Italic-43" transform="translate(896.008398 0.015625)"/>
      <use xlink:href="#DejaVuSerif-Italic-4f" transform="translate(972.52207 0.015625)"/>
      <use xlink:href="#DejaVuSerif-32" transform="translate(1054.504492 -15.55625) scale(0.7)"/>
      <use xlink:href="#DejaVuSerif-2f" transform="translate(1101.635937 0.015625)"/>
      <use xlink:href="#DejaVuSerif-6d" transform="translate(1135.327344 0.015625)"/>
      <use xlink:href="#DejaVuSerif-6f" transform="translate(1230.151562 0.015625)"/>
      <use xlink:href="#DejaVuSerif-6c" transform="translate(1290.356641 0.015625)"/>
      <use xlink:href="#DejaVuSerif-20" transform="translate(1322.339062 0.015625)"/>
      <use xlink:href="#DejaVuSerif-4d" transform="translate(1354.126172 0.015625)"/>
      <use xlink:href="#DejaVuSerif-45" transform="translate(1456.51875 0.015625)"/>
      <use xlink:href="#DejaVuSerif-41" transform="translate(1529.516797 0.015625)"/>
     </g>
    </g>
   </g>
   <g id="matplotlib.axis_2">
    <g id="ytick_1">
     <g id="line2d_12">
      <defs>
       <path id="mc88920de2d" d="M 0 0
L -4.5 0
" style="stroke: #000000; stroke-width: 0.9"/>
      </defs>
      <g>
       <use xlink:href="#mc88920de2d" x="59.140938" y="484.51718" style="stroke: #000000; stroke-width: 0.9"/>
      </g>
     </g>
     <g id="text_13">
      <!-- $\mathdefault{10^{-14}}$ -->
      <g transform="translate(21.845938 488.506359) scale(0.105 -0.105)">
       <defs>
        <path id="DejaVuSerif-2212" d="M 678 2259
L 4684 2259
L 4684 1753
L 678 1753
L 678 2259
z
" transform="scale(0.015625)"/>
       </defs>
       <use xlink:href="#DejaVuSerif-31" transform="translate(0 0.7125)"/>
       <use xlink:href="#DejaVuSerif-30" transform="translate(63.623047 0.7125)"/>
       <use xlink:href="#DejaVuSerif-2212" transform="translate(128.154453 37.046875) scale(0.7)"/>
       <use xlink:href="#DejaVuSerif-31" transform="translate(186.806797 37.046875) scale(0.7)"/>
       <use xlink:href="#DejaVuSerif-34" transform="translate(231.34293 37.046875) scale(0.7)"/>
      </g>
     </g>
    </g>
    <g id="ytick_2">
     <g id="line2d_13">
      <g>
       <use xlink:href="#mc88920de2d" x="59.140938" y="450.708037" style="stroke: #000000; stroke-width: 0.9"/>
      </g>
     </g>
     <g id="text_14">
      <!-- $\mathdefault{10^{-13}}$ -->
      <g transform="translate(21.845938 454.697217) scale(0.105 -0.105)">
       <use xlink:href="#DejaVuSerif-31" transform="translate(0 0.7125)"/>
       <use xlink:href="#DejaVuSerif-30" transform="translate(63.623047 0.7125)"/>
       <use xlink:href="#DejaVuSerif-2212" transform="translate(128.154453 37.046875) scale(0.7)"/>
       <use xlink:href="#DejaVuSerif-31" transform="translate(186.806797 37.046875) scale(0.7)"/>
       <use xlink:href="#DejaVuSerif-33" transform="translate(231.34293 37.046875) scale(0.7)"/>
      </g>
     </g>
    </g>
    <g id="ytick_3">
     <g id="line2d_14">
      <g>
       <use xlink:href="#mc88920de2d" x="59.140938" y="416.898894" style="stroke: #000000; stroke-width: 0.9"/>
      </g>
     </g>
     <g id="text_15">
      <!-- $\mathdefault{10^{-12}}$ -->
      <g transform="translate(21.845938 420.888074) scale(0.105 -0.105)">
       <use xlink:href="#DejaVuSerif-31" transform="translate(0 0.7125)"/>
       <use xlink:href="#DejaVuSerif-30" transform="translate(63.623047 0.7125)"/>
       <use xlink:href="#DejaVuSerif-2212" transform="translate(128.154453 37.046875) scale(0.7)"/>
       <use xlink:href="#DejaVuSerif-31" transform="translate(186.806797 37.046875) scale(0.7)"/>
       <use xlink:href="#DejaVuSerif-32" transform="translate(231.34293 37.046875) scale(0.7)"/>
      </g>
     </g>
    </g>
    <g id="ytick_4">
     <g id="line2d_15">
      <g>
       <use xlink:href="#mc88920de2d" x="59.140938" y="383.089751" style="stroke: #000000; stroke-width: 0.9"/>
      </g>
     </g>
     <g id="text_16">
      <!-- $\mathdefault{10^{-11}}$ -->
      <g transform="translate(21.845938 387.078931) scale(0.105 -0.105)">
       <use xlink:href="#DejaVuSerif-31" transform="translate(0 0.7125)"/>
       <use xlink:href="#DejaVuSerif-30" transform="translate(63.623047 0.7125)"/>
       <use xlink:href="#DejaVuSerif-2212" transform="translate(128.154453 37.046875) scale(0.7)"/>
       <use xlink:href="#DejaVuSerif-31" transform="translate(186.806797 37.046875) scale(0.7)"/>
       <use xlink:href="#DejaVuSerif-31" transform="translate(231.34293 37.046875) scale(0.7)"/>
      </g>
     </g>
    </g>
    <g id="ytick_5">
     <g id="line2d_16">
      <g>
       <use xlink:href="#mc88920de2d" x="59.140938" y="349.280608" style="stroke: #000000; stroke-width: 0.9"/>
      </g>
     </g>
     <g id="text_17">
      <!-- $\mathdefault{10^{-10}}$ -->
      <g transform="translate(21.845938 353.269788) scale(0.105 -0.105)">
       <use xlink:href="#DejaVuSerif-31" transform="translate(0 0.7125)"/>
       <use xlink:href="#DejaVuSerif-30" transform="translate(63.623047 0.7125)"/>
       <use xlink:href="#DejaVuSerif-2212" transform="translate(128.154453 37.046875) scale(0.7)"/>
       <use xlink:href="#DejaVuSerif-31" transform="translate(186.806797 37.046875) scale(0.7)"/>
       <use xlink:href="#DejaVuSerif-30" transform="translate(231.34293 37.046875) scale(0.7)"/>
      </g>
     </g>
    </g>
    <g id="ytick_6">
     <g id="line2d_17">
      <g>
       <use xlink:href="#mc88920de2d" x="59.140938" y="315.471465" style="stroke: #000000; stroke-width: 0.9"/>
      </g>
     </g>
     <g id="text_18">
      <!-- $\mathdefault{10^{-9}}$ -->
      <g transform="translate(26.570938 319.460645) scale(0.105 -0.105)">
       <defs>
        <path id="DejaVuSerif-39" d="M 2994 2091
Q 2784 1856 2512 1740
Q 2241 1625 1900 1625
Q 1206 1625 804 2044
Q 403 2463 403 3188
Q 403 3897 839 4323
Q 1275 4750 2003 4750
Q 2794 4750 3217 4161
Q 3641 3572 3641 2478
Q 3641 1253 3137 581
Q 2634 -91 1722 -91
Q 1475 -91 1203 -44
Q 931 3 647 97
L 647 872
L 997 872
Q 1038 556 1241 387
Q 1444 219 1784 219
Q 2391 219 2687 676
Q 2984 1134 2994 2091
z
M 1978 4441
Q 1534 4441 1298 4117
Q 1063 3794 1063 3188
Q 1063 2581 1298 2256
Q 1534 1931 1978 1931
Q 2422 1931 2658 2245
Q 2894 2559 2894 3150
Q 2894 3772 2656 4106
Q 2419 4441 1978 4441
z
" transform="scale(0.015625)"/>
       </defs>
       <use xlink:href="#DejaVuSerif-31" transform="translate(0 0.7125)"/>
       <use xlink:href="#DejaVuSerif-30" transform="translate(63.623047 0.7125)"/>
       <use xlink:href="#DejaVuSerif-2212" transform="translate(128.154453 37.046875) scale(0.7)"/>
       <use xlink:href="#DejaVuSerif-39" transform="translate(186.806797 37.046875) scale(0.7)"/>
      </g>
     </g>
    </g>
    <g id="ytick_7">
     <g id="line2d_18">
      <g>
       <use xlink:href="#mc88920de2d" x="59.140938" y="281.662323" style="stroke: #000000; stroke-width: 0.9"/>
      </g>
     </g>
     <g id="text_19">
      <!-- $\mathdefault{10^{-8}}$ -->
      <g transform="translate(26.570938 285.651502) scale(0.105 -0.105)">
       <use xlink:href="#DejaVuSerif-31" transform="translate(0 0.7125)"/>
       <use xlink:href="#DejaVuSerif-30" transform="translate(63.623047 0.7125)"/>
       <use xlink:href="#DejaVuSerif-2212" transform="translate(128.154453 37.046875) scale(0.7)"/>
       <use xlink:href="#DejaVuSerif-38" transform="translate(186.806797 37.046875) scale(0.7)"/>
      </g>
     </g>
    </g>
    <g id="ytick_8">
     <g id="line2d_19">
      <g>
       <use xlink:href="#mc88920de2d" x="59.140938" y="247.85318" style="stroke: #000000; stroke-width: 0.9"/>
      </g>
     </g>
     <g id="text_20">
      <!-- $\mathdefault{10^{-7}}$ -->
      <g transform="translate(26.570938 251.842359) scale(0.105 -0.105)">
       <use xlink:href="#DejaVuSerif-31" transform="translate(0 0.63125)"/>
       <use xlink:href="#DejaVuSerif-30" transform="translate(63.623047 0.63125)"/>
       <use xlink:href="#DejaVuSerif-2212" transform="translate(128.154453 36.965625) scale(0.7)"/>
       <use xlink:href="#DejaVuSerif-37" transform="translate(186.806797 36.965625) scale(0.7)"/>
      </g>
     </g>
    </g>
    <g id="ytick_9">
     <g id="line2d_20">
      <g>
       <use xlink:href="#mc88920de2d" x="59.140938" y="214.044037" style="stroke: #000000; stroke-width: 0.9"/>
      </g>
     </g>
     <g id="text_21">
      <!-- $\mathdefault{10^{-6}}$ -->
      <g transform="translate(26.570938 218.033217) scale(0.105 -0.105)">
       <use xlink:href="#DejaVuSerif-31" transform="translate(0 0.7125)"/>
       <use xlink:href="#DejaVuSerif-30" transform="translate(63.623047 0.7125)"/>
       <use xlink:href="#DejaVuSerif-2212" transform="translate(128.154453 37.046875) scale(0.7)"/>
       <use xlink:href="#DejaVuSerif-36" transform="translate(186.806797 37.046875) scale(0.7)"/>
      </g>
     </g>
    </g>
    <g id="ytick_10">
     <g id="line2d_21">
      <g>
       <use xlink:href="#mc88920de2d" x="59.140938" y="180.234894" style="stroke: #000000; stroke-width: 0.9"/>
      </g>
     </g>
     <g id="text_22">
      <!-- $\mathdefault{10^{-5}}$ -->
      <g transform="translate(26.570938 184.224074) scale(0.105 -0.105)">
       <use xlink:href="#DejaVuSerif-31" transform="translate(0 0.63125)"/>
       <use xlink:href="#DejaVuSerif-30" transform="translate(63.623047 0.63125)"/>
       <use xlink:href="#DejaVuSerif-2212" transform="translate(128.154453 36.965625) scale(0.7)"/>
       <use xlink:href="#DejaVuSerif-35" transform="translate(186.806797 36.965625) scale(0.7)"/>
      </g>
     </g>
    </g>
    <g id="ytick_11">
     <g id="line2d_22">
      <g>
       <use xlink:href="#mc88920de2d" x="59.140938" y="146.425751" style="stroke: #000000; stroke-width: 0.9"/>
      </g>
     </g>
     <g id="text_23">
      <!-- $\mathdefault{10^{-4}}$ -->
      <g transform="translate(26.570938 150.414931) scale(0.105 -0.105)">
       <use xlink:href="#DejaVuSerif-31" transform="translate(0 0.7125)"/>
       <use xlink:href="#DejaVuSerif-30" transform="translate(63.623047 0.7125)"/>
       <use xlink:href="#DejaVuSerif-2212" transform="translate(128.154453 37.046875) scale(0.7)"/>
       <use xlink:href="#DejaVuSerif-34" transform="translate(186.806797 37.046875) scale(0.7)"/>
      </g>
     </g>
    </g>
    <g id="ytick_12">
     <g id="line2d_23">
      <g>
       <use xlink:href="#mc88920de2d" x="59.140938" y="112.616608" style="stroke: #000000; stroke-width: 0.9"/>
      </g>
     </g>
     <g id="text_24">
      <!-- $\mathdefault{10^{-3}}$ -->
      <g transform="translate(26.570938 116.605788) scale(0.105 -0.105)">
       <use xlink:href="#DejaVuSerif-31" transform="translate(0 0.7125)"/>
       <use xlink:href="#DejaVuSerif-30" transform="translate(63.623047 0.7125)"/>
       <use xlink:href="#DejaVuSerif-2212" transform="translate(128.154453 37.046875) scale(0.7)"/>
       <use xlink:href="#DejaVuSerif-33" transform="translate(186.806797 37.046875) scale(0.7)"/>
      </g>
     </g>
    </g>
    <g id="ytick_13">
     <g id="line2d_24">
      <g>
       <use xlink:href="#mc88920de2d" x="59.140938" y="78.807465" style="stroke: #000000; stroke-width: 0.9"/>
      </g>
     </g>
     <g id="text_25">
      <!-- $\mathdefault{10^{-2}}$ -->
      <g transform="translate(26.570938 82.796645) scale(0.105 -0.105)">
       <use xlink:href="#DejaVuSerif-31" transform="translate(0 0.7125)"/>
       <use xlink:href="#DejaVuSerif-30" transform="translate(63.623047 0.7125)"/>
       <use xlink:href="#DejaVuSerif-2212" transform="translate(128.154453 37.046875) scale(0.7)"/>
       <use xlink:href="#DejaVuSerif-32" transform="translate(186.806797 37.046875) scale(0.7)"/>
      </g>
     </g>
    </g>
    <g id="ytick_14">
     <g id="line2d_25">
      <g>
       <use xlink:href="#mc88920de2d" x="59.140938" y="44.998323" style="stroke: #000000; stroke-width: 0.9"/>
      </g>
     </g>
     <g id="text_26">
      <!-- $\mathdefault{10^{-1}}$ -->
      <g transform="translate(26.570938 48.987502) scale(0.105 -0.105)">
       <use xlink:href="#DejaVuSerif-31" transform="translate(0 0.7125)"/>
       <use xlink:href="#DejaVuSerif-30" transform="translate(63.623047 0.7125)"/>
       <use xlink:href="#DejaVuSerif-2212" transform="translate(128.154453 37.046875) scale(0.7)"/>
       <use xlink:href="#DejaVuSerif-31" transform="translate(186.806797 37.046875) scale(0.7)"/>
      </g>
     </g>
    </g>
    <g id="ytick_15">
     <g id="line2d_26">
      <g>
       <use xlink:href="#mc88920de2d" x="59.140938" y="11.18918" style="stroke: #000000; stroke-width: 0.9"/>
      </g>
     </g>
     <g id="text_27">
      <!-- $\mathdefault{10^{0}}$ -->
      <g transform="translate(32.660938 15.178359) scale(0.105 -0.105)">
       <use xlink:href="#DejaVuSerif-31" transform="translate(0 0.7125)"/>
       <use xlink:href="#DejaVuSerif-30" transform="translate(63.623047 0.7125)"/>
       <use xlink:href="#DejaVuSerif-30" transform="translate(128.154453 37.046875) scale(0.7)"/>
      </g>
     </g>
    </g>
    <g id="text_28">
     <!-- True-species mole fraction -->
     <g transform="translate(15.558281 322.206305) rotate(-90) scale(0.11 -0.11)">
      <defs>
       <path id="DejaVuSerif-54" d="M 1222 0
L 1222 331
L 1819 331
L 1819 4294
L 447 4294
L 447 3566
L 63 3566
L 63 4666
L 4206 4666
L 4206 3566
L 3822 3566
L 3822 4294
L 2450 4294
L 2450 331
L 3047 331
L 3047 0
L 1222 0
z
" transform="scale(0.015625)"/>
       <path id="DejaVuSerif-72" d="M 3059 3328
L 3059 2497
L 2728 2497
Q 2713 2744 2591 2866
Q 2469 2988 2234 2988
Q 1809 2988 1582 2694
Q 1356 2400 1356 1850
L 1356 331
L 2022 331
L 2022 0
L 263 0
L 263 331
L 781 331
L 781 2994
L 231 2994
L 231 3322
L 1356 3322
L 1356 2731
Q 1525 3078 1790 3245
Q 2056 3413 2438 3413
Q 2578 3413 2733 3391
Q 2888 3369 3059 3328
z
" transform="scale(0.015625)"/>
       <path id="DejaVuSerif-75" d="M 2266 3322
L 3341 3322
L 3341 331
L 3884 331
L 3884 0
L 2766 0
L 2766 588
Q 2606 256 2353 82
Q 2100 -91 1766 -91
Q 1213 -91 952 223
Q 691 538 691 1209
L 691 2988
L 172 2988
L 172 3322
L 1269 3322
L 1269 1388
Q 1269 781 1417 556
Q 1566 331 1947 331
Q 2347 331 2556 625
Q 2766 919 2766 1478
L 2766 2988
L 2266 2988
L 2266 3322
z
" transform="scale(0.015625)"/>
       <path id="DejaVuSerif-65" d="M 3469 1600
L 991 1600
L 991 1575
Q 991 903 1244 561
Q 1497 219 1991 219
Q 2369 219 2611 417
Q 2853 616 2950 1006
L 3413 1006
Q 3275 459 2904 184
Q 2534 -91 1931 -91
Q 1203 -91 761 389
Q 319 869 319 1663
Q 319 2450 753 2931
Q 1188 3413 1894 3413
Q 2647 3413 3050 2948
Q 3453 2484 3469 1600
z
M 2791 1931
Q 2772 2513 2545 2808
Q 2319 3103 1894 3103
Q 1497 3103 1269 2806
Q 1041 2509 991 1931
L 2791 1931
z
" transform="scale(0.015625)"/>
       <path id="DejaVuSerif-2d" d="M 281 1959
L 1881 1959
L 1881 1472
L 281 1472
L 281 1959
z
" transform="scale(0.015625)"/>
       <path id="DejaVuSerif-73" d="M 359 184
L 359 959
L 691 959
Q 703 588 923 403
Q 1144 219 1575 219
Q 1963 219 2166 364
Q 2369 509 2369 788
Q 2369 1006 2220 1140
Q 2072 1275 1594 1428
L 1178 1569
Q 750 1706 558 1912
Q 366 2119 366 2438
Q 366 2894 700 3153
Q 1034 3413 1625 3413
Q 1888 3413 2178 3344
Q 2469 3275 2778 3144
L 2778 2419
L 2447 2419
Q 2434 2741 2221 2922
Q 2009 3103 1644 3103
Q 1281 3103 1095 2975
Q 909 2847 909 2591
Q 909 2381 1050 2254
Q 1191 2128 1613 1997
L 2069 1856
Q 2541 1709 2748 1489
Q 2956 1269 2956 922
Q 2956 450 2595 179
Q 2234 -91 1600 -91
Q 1278 -91 972 -22
Q 666 47 359 184
z
" transform="scale(0.015625)"/>
       <path id="DejaVuSerif-70" d="M 1313 1825
L 1313 1497
Q 1313 897 1542 583
Q 1772 269 2209 269
Q 2650 269 2876 622
Q 3103 975 3103 1663
Q 3103 2353 2876 2703
Q 2650 3053 2209 3053
Q 1772 3053 1542 2737
Q 1313 2422 1313 1825
z
M 738 2988
L 184 2988
L 184 3322
L 1313 3322
L 1313 2803
Q 1481 3116 1742 3264
Q 2003 3413 2388 3413
Q 3000 3413 3387 2928
Q 3775 2444 3775 1663
Q 3775 881 3387 395
Q 3000 -91 2388 -91
Q 2003 -91 1742 57
Q 1481 206 1313 519
L 1313 -997
L 1856 -997
L 1856 -1331
L 184 -1331
L 184 -997
L 738 -997
L 738 2988
z
" transform="scale(0.015625)"/>
       <path id="DejaVuSerif-63" d="M 3291 997
Q 3169 466 2822 187
Q 2475 -91 1925 -91
Q 1200 -91 759 389
Q 319 869 319 1663
Q 319 2459 759 2936
Q 1200 3413 1925 3413
Q 2241 3413 2553 3339
Q 2866 3266 3181 3116
L 3181 2266
L 2847 2266
Q 2781 2703 2561 2903
Q 2341 3103 1931 3103
Q 1466 3103 1228 2742
Q 991 2381 991 1663
Q 991 944 1227 581
Q 1463 219 1931 219
Q 2303 219 2525 412
Q 2747 606 2828 997
L 3291 997
z
" transform="scale(0.015625)"/>
       <path id="DejaVuSerif-66" d="M 2753 4078
L 2450 4078
Q 2447 4313 2317 4434
Q 2188 4556 1941 4556
Q 1619 4556 1487 4379
Q 1356 4203 1356 3750
L 1356 3322
L 2284 3322
L 2284 2988
L 1356 2988
L 1356 331
L 2094 331
L 2094 0
L 231 0
L 231 331
L 781 331
L 781 2988
L 231 2988
L 231 3322
L 781 3322
L 781 3738
Q 781 4294 1070 4578
Q 1359 4863 1919 4863
Q 2128 4863 2337 4825
Q 2547 4788 2753 4709
L 2753 4078
z
" transform="scale(0.015625)"/>
       <path id="DejaVuSerif-74" d="M 691 2988
L 184 2988
L 184 3322
L 691 3322
L 691 4353
L 1269 4353
L 1269 3322
L 2350 3322
L 2350 2988
L 1269 2988
L 1269 878
Q 1269 456 1350 337
Q 1431 219 1650 219
Q 1875 219 1978 351
Q 2081 484 2088 781
L 2522 781
Q 2497 328 2275 118
Q 2053 -91 1600 -91
Q 1103 -91 897 129
Q 691 350 691 878
L 691 2988
z
" transform="scale(0.015625)"/>
      </defs>
      <use xlink:href="#DejaVuSerif-54"/>
      <use xlink:href="#DejaVuSerif-72" transform="translate(66.699219 0)"/>
      <use xlink:href="#DejaVuSerif-75" transform="translate(114.501953 0)"/>
      <use xlink:href="#DejaVuSerif-65" transform="translate(178.90625 0)"/>
      <use xlink:href="#DejaVuSerif-2d" transform="translate(238.085938 0)"/>
      <use xlink:href="#DejaVuSerif-73" transform="translate(271.875 0)"/>
      <use xlink:href="#DejaVuSerif-70" transform="translate(323.193359 0)"/>
      <use xlink:href="#DejaVuSerif-65" transform="translate(387.207031 0)"/>
      <use xlink:href="#DejaVuSerif-63" transform="translate(446.386719 0)"/>
      <use xlink:href="#DejaVuSerif-69" transform="translate(502.392578 0)"/>
      <use xlink:href="#DejaVuSerif-65" transform="translate(534.375 0)"/>
      <use xlink:href="#DejaVuSerif-73" transform="translate(593.554688 0)"/>
      <use xlink:href="#DejaVuSerif-20" transform="translate(644.873047 0)"/>
      <use xlink:href="#DejaVuSerif-6d" transform="translate(676.660156 0)"/>
      <use xlink:href="#DejaVuSerif-6f" transform="translate(771.484375 0)"/>
      <use xlink:href="#DejaVuSerif-6c" transform="translate(831.689453 0)"/>
      <use xlink:href="#DejaVuSerif-65" transform="translate(863.671875 0)"/>
      <use xlink:href="#DejaVuSerif-20" transform="translate(922.851562 0)"/>
      <use xlink:href="#DejaVuSerif-66" transform="translate(954.638672 0)"/>
      <use xlink:href="#DejaVuSerif-72" transform="translate(991.650391 0)"/>
      <use xlink:href="#DejaVuSerif-61" transform="translate(1039.453125 0)"/>
      <use xlink:href="#DejaVuSerif-63" transform="translate(1099.072266 0)"/>
      <use xlink:href="#DejaVuSerif-74" transform="translate(1155.078125 0)"/>
      <use xlink:href="#DejaVuSerif-69" transform="translate(1195.263672 0)"/>
      <use xlink:href="#DejaVuSerif-6f" transform="translate(1227.246094 0)"/>
      <use xlink:href="#DejaVuSerif-6e" transform="translate(1287.451172 0)"/>
     </g>
    </g>
   </g>
   <g id="line2d_27">
    <path d="M 76.938438 410.156699
L 81.24877 404.338849
L 85.559102 399.422867
L 89.869434 395.149873
L 94.179766 391.357383
L 98.490098 387.936829
L 102.80043 384.812331
L 107.110762 381.928596
L 111.421094 379.244328
L 115.731426 376.727745
L 124.35209 372.102646
L 132.972754 367.906739
L 141.593418 364.041019
L 150.214082 360.435599
L 158.834746 357.03896
L 171.765742 352.252537
L 184.696738 347.751912
L 197.627734 343.466172
L 214.869062 337.994509
L 236.420723 331.412457
L 279.524043 318.58546
L 309.696367 309.483552
L 331.248027 302.72967
L 348.489355 297.079269
L 361.420352 292.645759
L 374.351348 287.998564
L 387.282344 283.085271
L 395.903008 279.629227
L 404.523672 276.000094
L 413.144336 272.166634
L 421.765 268.089652
L 430.385664 263.719134
L 439.006328 258.989451
L 447.626992 253.813098
L 451.937324 251.021607
L 456.247656 248.070234
L 460.557988 244.936477
L 464.86832 241.594141
L 469.178652 238.011743
L 473.488984 234.152949
L 477.799316 229.976806
L 482.109648 225.439797
L 486.41998 220.501871
L 490.730312 215.139409
L 495.040645 209.366456
L 503.661309 196.98728
L 507.971641 190.756923
L 512.281973 184.780762
L 516.592305 179.202084
L 520.902637 174.082164
L 525.212969 169.420059
L 529.523301 165.181236
L 533.833633 161.318854
L 538.143965 157.784671
L 542.454297 154.534947
L 546.764629 151.531196
L 551.074961 148.741177
L 555.385293 146.1373
L 559.695625 143.696766
L 564.005957 141.400335
L 572.626621 137.176966
L 581.247285 133.364012
L 589.867949 129.886143
L 598.488613 126.68673
L 607.109277 123.722458
L 615.729941 120.959579
L 624.350605 118.371573
L 637.281602 114.771283
L 650.212598 111.460203
L 663.143594 108.395788
L 676.07459 105.545199
L 689.005586 102.882467
L 706.246914 99.589233
L 723.488242 96.555003
L 740.72957 93.748899
L 757.970898 91.146496
L 766.591562 89.915143
L 766.591562 89.915143
" clip-path="url(#p4cb9aa954d)" style="fill: none; stroke-dasharray: 8.14,3.52; stroke-dashoffset: 0; stroke: #16805a; stroke-width: 2.2"/>
   </g>
   <g id="line2d_28">
    <defs>
     <path id="m3421edcbf8" d="M 0 3.4
C 0.901691 3.4 1.766572 3.041755 2.404163 2.404163
C 3.041755 1.766572 3.4 0.901691 3.4 0
C 3.4 -0.901691 3.041755 -1.766572 2.404163 -2.404163
C 1.766572 -3.041755 0.901691 -3.4 0 -3.4
C -0.901691 -3.4 -1.766572 -3.041755 -2.404163 -2.404163
C -3.041755 -1.766572 -3.4 -0.901691 -3.4 0
C -3.4 0.901691 -3.041755 1.766572 -2.404163 2.404163
C -1.766572 3.041755 -0.901691 3.4 0 3.4
z
"/>
    </defs>
    <g clip-path="url(#p4cb9aa954d)">
     <use xlink:href="#m3421edcbf8" x="753.243437" y="85.186692" style="fill: #16805a; fill-opacity: 0.78"/>
     <use xlink:href="#m3421edcbf8" x="885.834812" y="66.241718" style="fill: #16805a; fill-opacity: 0.78"/>
     <use xlink:href="#m3421edcbf8" x="925.879187" y="65.800498" style="fill: #16805a; fill-opacity: 0.78"/>
     <use xlink:href="#m3421edcbf8" x="940.117187" y="72.819137" style="fill: #16805a; fill-opacity: 0.78"/>
    </g>
   </g>
   <g id="line2d_29">
    <path d="M 76.938438 43.932807
L 120.041758 45.474632
L 163.145078 47.216845
L 201.938066 48.986904
L 236.420723 50.762924
L 266.593047 52.515335
L 292.455039 54.203777
L 318.317031 56.110968
L 339.868691 57.913144
L 361.420352 59.965629
L 378.66168 61.840164
L 391.592676 63.419259
L 404.523672 65.185086
L 417.454668 67.186414
L 426.075332 68.684776
L 434.695996 70.346624
L 443.31666 72.209822
L 451.937324 74.325891
L 460.557988 76.766389
L 464.86832 78.138333
L 469.178652 79.631992
L 473.488984 81.266157
L 477.799316 83.062232
L 482.109648 85.043207
L 486.41998 87.230848
L 490.730312 89.639429
L 495.040645 92.264831
L 503.661309 97.979579
L 512.281973 103.68117
L 516.592305 106.294307
L 520.902637 108.690704
L 525.212969 110.868103
L 529.523301 112.84154
L 533.833633 114.632799
L 538.143965 116.264787
L 542.454297 117.758521
L 551.074961 120.402672
L 559.695625 122.682432
L 568.316289 124.681199
L 576.936953 126.458738
L 585.557617 128.058508
L 598.488613 130.193363
L 611.419609 132.078228
L 624.350605 133.767439
L 641.591934 135.7816
L 658.833262 137.582556
L 680.384922 139.603283
L 706.246914 141.771359
L 736.419238 144.039071
L 766.591562 146.100124
L 766.591562 146.100124
" clip-path="url(#p4cb9aa954d)" style="fill: none; stroke-dasharray: 8.14,3.52; stroke-dashoffset: 0; stroke: #1f5aa6; stroke-width: 2.2"/>
   </g>
   <g id="line2d_30">
    <defs>
     <path id="m5a1b5a9f84" d="M 0 3.4
C 0.901691 3.4 1.766572 3.041755 2.404163 2.404163
C 3.041755 1.766572 3.4 0.901691 3.4 0
C 3.4 -0.901691 3.041755 -1.766572 2.404163 -2.404163
C 1.766572 -3.041755 0.901691 -3.4 0 -3.4
C -0.901691 -3.4 -1.766572 -3.041755 -2.404163 -2.404163
C -3.041755 -1.766572 -3.4 -0.901691 -3.4 0
C -3.4 0.901691 -3.041755 1.766572 -2.404163 2.404163
C -1.766572 3.041755 -0.901691 3.4 0 3.4
z
"/>
    </defs>
    <g clip-path="url(#p4cb9aa954d)">
     <use xlink:href="#m5a1b5a9f84" x="153.467687" y="45.815303" style="fill: #1f5aa6; fill-opacity: 0.78"/>
     <use xlink:href="#m5a1b5a9f84" x="157.027187" y="44.457214" style="fill: #1f5aa6; fill-opacity: 0.78"/>
     <use xlink:href="#m5a1b5a9f84" x="173.044937" y="46.635078" style="fill: #1f5aa6; fill-opacity: 0.78"/>
     <use xlink:href="#m5a1b5a9f84" x="192.622187" y="47.529257" style="fill: #1f5aa6; fill-opacity: 0.78"/>
     <use xlink:href="#m5a1b5a9f84" x="213.089312" y="48.461215" style="fill: #1f5aa6; fill-opacity: 0.78"/>
     <use xlink:href="#m5a1b5a9f84" x="232.666562" y="49.462217" style="fill: #1f5aa6; fill-opacity: 0.78"/>
     <use xlink:href="#m5a1b5a9f84" x="246.014687" y="49.39172" style="fill: #1f5aa6; fill-opacity: 0.78"/>
     <use xlink:href="#m5a1b5a9f84" x="253.133687" y="50.544108" style="fill: #1f5aa6; fill-opacity: 0.78"/>
     <use xlink:href="#m5a1b5a9f84" x="273.600812" y="51.705701" style="fill: #1f5aa6; fill-opacity: 0.78"/>
     <use xlink:href="#m5a1b5a9f84" x="281.609687" y="52.371793" style="fill: #1f5aa6; fill-opacity: 0.78"/>
     <use xlink:href="#m5a1b5a9f84" x="294.067937" y="52.961019" style="fill: #1f5aa6; fill-opacity: 0.78"/>
     <use xlink:href="#m5a1b5a9f84" x="314.535062" y="54.33048" style="fill: #1f5aa6; fill-opacity: 0.78"/>
     <use xlink:href="#m5a1b5a9f84" x="317.204687" y="53.32388" style="fill: #1f5aa6; fill-opacity: 0.78"/>
     <use xlink:href="#m5a1b5a9f84" x="335.002187" y="55.812407" style="fill: #1f5aa6; fill-opacity: 0.78"/>
     <use xlink:href="#m5a1b5a9f84" x="356.359187" y="57.489629" style="fill: #1f5aa6; fill-opacity: 0.78"/>
     <use xlink:href="#m5a1b5a9f84" x="377.716187" y="59.299645" style="fill: #1f5aa6; fill-opacity: 0.78"/>
     <use xlink:href="#m5a1b5a9f84" x="399.073187" y="61.363749" style="fill: #1f5aa6; fill-opacity: 0.78"/>
     <use xlink:href="#m5a1b5a9f84" x="415.090937" y="61.122981" style="fill: #1f5aa6; fill-opacity: 0.78"/>
     <use xlink:href="#m5a1b5a9f84" x="420.430187" y="63.71089" style="fill: #1f5aa6; fill-opacity: 0.78"/>
     <use xlink:href="#m5a1b5a9f84" x="442.677062" y="66.487537" style="fill: #1f5aa6; fill-opacity: 0.78"/>
     <use xlink:href="#m5a1b5a9f84" x="464.034062" y="69.82646" style="fill: #1f5aa6; fill-opacity: 0.78"/>
     <use xlink:href="#m5a1b5a9f84" x="486.280937" y="74.166706" style="fill: #1f5aa6; fill-opacity: 0.78"/>
     <use xlink:href="#m5a1b5a9f84" x="508.527812" y="80.177411" style="fill: #1f5aa6; fill-opacity: 0.78"/>
     <use xlink:href="#m5a1b5a9f84" x="531.664562" y="90.110741" style="fill: #1f5aa6; fill-opacity: 0.78"/>
     <use xlink:href="#m5a1b5a9f84" x="593.065937" y="114.141791" style="fill: #1f5aa6; fill-opacity: 0.78"/>
     <use xlink:href="#m5a1b5a9f84" x="753.243437" y="130.24292" style="fill: #1f5aa6; fill-opacity: 0.78"/>
     <use xlink:href="#m5a1b5a9f84" x="940.117187" y="120.102393" style="fill: #1f5aa6; fill-opacity: 0.78"/>
    </g>
   </g>
   <g id="line2d_31">
    <path d="M 76.938438 97.933957
L 81.24877 95.266932
L 85.559102 92.993234
L 89.869434 91.016378
L 94.179766 89.270279
L 98.490098 87.708062
L 102.80043 86.29551
L 111.421094 83.822716
L 120.041758 81.708649
L 128.662422 79.863117
L 137.283086 78.225918
L 150.214082 76.071836
L 163.145078 74.19676
L 176.076074 72.536595
L 193.317402 70.582552
L 210.55873 68.860369
L 232.110391 66.959783
L 253.662051 65.278605
L 279.524043 63.48743
L 309.696367 61.641988
L 344.179023 59.78331
L 382.972012 57.94007
L 426.075332 56.131521
L 473.488984 54.370859
L 520.902637 52.816336
L 572.626621 51.339813
L 628.660937 49.964345
L 684.695254 48.813972
L 740.72957 47.879467
L 766.591562 47.516151
L 766.591562 47.516151
" clip-path="url(#p4cb9aa954d)" style="fill: none; stroke-dasharray: 8.14,3.52; stroke-dashoffset: 0; stroke: #bcbd22; stroke-width: 2.2"/>
   </g>
   <g id="line2d_32">
    <defs>
     <path id="m706c400604" d="M 0 3.4
C 0.901691 3.4 1.766572 3.041755 2.404163 2.404163
C 3.041755 1.766572 3.4 0.901691 3.4 0
C 3.4 -0.901691 3.041755 -1.766572 2.404163 -2.404163
C 1.766572 -3.041755 0.901691 -3.4 0 -3.4
C -0.901691 -3.4 -1.766572 -3.041755 -2.404163 -2.404163
C -3.041755 -1.766572 -3.4 -0.901691 -3.4 0
C -3.4 0.901691 -3.041755 1.766572 -2.404163 2.404163
C -1.766572 3.041755 -0.901691 3.4 0 3.4
z
"/>
    </defs>
    <g clip-path="url(#p4cb9aa954d)">
     <use xlink:href="#m706c400604" x="153.467687" y="76.693181" style="fill: #bcbd22; fill-opacity: 0.78"/>
     <use xlink:href="#m706c400604" x="157.027187" y="81.881471" style="fill: #bcbd22; fill-opacity: 0.78"/>
     <use xlink:href="#m706c400604" x="173.044937" y="73.897743" style="fill: #bcbd22; fill-opacity: 0.78"/>
     <use xlink:href="#m706c400604" x="192.622187" y="71.636306" style="fill: #bcbd22; fill-opacity: 0.78"/>
     <use xlink:href="#m706c400604" x="213.089312" y="69.594387" style="fill: #bcbd22; fill-opacity: 0.78"/>
     <use xlink:href="#m706c400604" x="232.666562" y="67.795271" style="fill: #bcbd22; fill-opacity: 0.78"/>
     <use xlink:href="#m706c400604" x="246.014687" y="70.295203" style="fill: #bcbd22; fill-opacity: 0.78"/>
     <use xlink:href="#m706c400604" x="253.133687" y="66.190924" style="fill: #bcbd22; fill-opacity: 0.78"/>
     <use xlink:href="#m706c400604" x="273.600812" y="64.79757" style="fill: #bcbd22; fill-opacity: 0.78"/>
     <use xlink:href="#m706c400604" x="281.609687" y="65.50447" style="fill: #bcbd22; fill-opacity: 0.78"/>
     <use xlink:href="#m706c400604" x="294.067937" y="63.466515" style="fill: #bcbd22; fill-opacity: 0.78"/>
     <use xlink:href="#m706c400604" x="314.535062" y="62.289666" style="fill: #bcbd22; fill-opacity: 0.78"/>
     <use xlink:href="#m706c400604" x="317.204687" y="66.074461" style="fill: #bcbd22; fill-opacity: 0.78"/>
     <use xlink:href="#m706c400604" x="335.002187" y="61.198956" style="fill: #bcbd22; fill-opacity: 0.78"/>
     <use xlink:href="#m706c400604" x="356.359187" y="60.220315" style="fill: #bcbd22; fill-opacity: 0.78"/>
     <use xlink:href="#m706c400604" x="377.716187" y="59.259434" style="fill: #bcbd22; fill-opacity: 0.78"/>
     <use xlink:href="#m706c400604" x="399.073187" y="58.340241" style="fill: #bcbd22; fill-opacity: 0.78"/>
     <use xlink:href="#m706c400604" x="415.090937" y="56.673381" style="fill: #bcbd22; fill-opacity: 0.78"/>
     <use xlink:href="#m706c400604" x="420.430187" y="57.464853" style="fill: #bcbd22; fill-opacity: 0.78"/>
     <use xlink:href="#m706c400604" x="442.677062" y="56.648146" style="fill: #bcbd22; fill-opacity: 0.78"/>
     <use xlink:href="#m706c400604" x="464.034062" y="55.826039" style="fill: #bcbd22; fill-opacity: 0.78"/>
     <use xlink:href="#m706c400604" x="486.280937" y="55.05571" style="fill: #bcbd22; fill-opacity: 0.78"/>
     <use xlink:href="#m706c400604" x="508.527812" y="54.343424" style="fill: #bcbd22; fill-opacity: 0.78"/>
     <use xlink:href="#m706c400604" x="531.664562" y="53.673877" style="fill: #bcbd22; fill-opacity: 0.78"/>
     <use xlink:href="#m706c400604" x="593.065937" y="51.426735" style="fill: #bcbd22; fill-opacity: 0.78"/>
     <use xlink:href="#m706c400604" x="753.243437" y="48.951497" style="fill: #bcbd22; fill-opacity: 0.78"/>
     <use xlink:href="#m706c400604" x="940.117187" y="47.621431" style="fill: #bcbd22; fill-opacity: 0.78"/>
    </g>
   </g>
   <g id="line2d_33">
    <path d="M 76.938438 102.428399
L 81.24877 99.087596
L 85.559102 96.348234
L 89.869434 94.027468
L 94.179766 92.014672
L 98.490098 90.237942
L 102.80043 88.647873
L 107.110762 87.209104
L 115.731426 84.686872
L 124.35209 82.526364
L 132.972754 80.637138
L 141.593418 78.958907
L 154.524414 76.748161
L 167.45541 74.822064
L 180.386406 73.116044
L 197.627734 71.108135
L 214.869062 69.339395
L 236.420723 67.389374
L 257.972383 65.66701
L 283.834375 63.83547
L 314.006699 61.953439
L 344.179023 60.287845
L 378.66168 58.595898
L 417.454668 56.914566
L 456.247656 55.45128
L 482.109648 54.655
L 499.350977 54.35219
L 512.281973 54.390007
L 529.523301 54.744634
L 559.695625 55.674589
L 607.109277 57.387295
L 667.453926 59.791134
L 757.970898 63.647662
L 766.591562 64.020767
L 766.591562 64.020767
" clip-path="url(#p4cb9aa954d)" style="fill: none; stroke-dasharray: 8.14,3.52; stroke-dashoffset: 0; stroke: #d62728; stroke-width: 2.2"/>
   </g>
   <g id="line2d_34">
    <defs>
     <path id="me9525f4943" d="M 0 3.4
C 0.901691 3.4 1.766572 3.041755 2.404163 2.404163
C 3.041755 1.766572 3.4 0.901691 3.4 0
C 3.4 -0.901691 3.041755 -1.766572 2.404163 -2.404163
C 1.766572 -3.041755 0.901691 -3.4 0 -3.4
C -0.901691 -3.4 -1.766572 -3.041755 -2.404163 -2.404163
C -3.041755 -1.766572 -3.4 -0.901691 -3.4 0
C -3.4 0.901691 -3.041755 1.766572 -2.404163 2.404163
C -1.766572 3.041755 -0.901691 3.4 0 3.4
z
"/>
    </defs>
    <g clip-path="url(#p4cb9aa954d)">
     <use xlink:href="#me9525f4943" x="125.881562" y="81.093526" style="fill: #d62728; fill-opacity: 0.78"/>
     <use xlink:href="#me9525f4943" x="153.467687" y="79.705002" style="fill: #d62728; fill-opacity: 0.78"/>
     <use xlink:href="#me9525f4943" x="157.027187" y="78.16627" style="fill: #d62728; fill-opacity: 0.78"/>
     <use xlink:href="#me9525f4943" x="173.044937" y="76.11051" style="fill: #d62728; fill-opacity: 0.78"/>
     <use xlink:href="#me9525f4943" x="192.622187" y="71.002043" style="fill: #d62728; fill-opacity: 0.78"/>
     <use xlink:href="#me9525f4943" x="192.622187" y="73.22829" style="fill: #d62728; fill-opacity: 0.78"/>
     <use xlink:href="#me9525f4943" x="213.089312" y="70.892692" style="fill: #d62728; fill-opacity: 0.78"/>
     <use xlink:href="#me9525f4943" x="232.666562" y="68.892988" style="fill: #d62728; fill-opacity: 0.78"/>
     <use xlink:href="#me9525f4943" x="246.014687" y="68.397162" style="fill: #d62728; fill-opacity: 0.78"/>
     <use xlink:href="#me9525f4943" x="253.133687" y="67.182982" style="fill: #d62728; fill-opacity: 0.78"/>
     <use xlink:href="#me9525f4943" x="268.261562" y="64.457951" style="fill: #d62728; fill-opacity: 0.78"/>
     <use xlink:href="#me9525f4943" x="273.600812" y="65.710915" style="fill: #d62728; fill-opacity: 0.78"/>
     <use xlink:href="#me9525f4943" x="281.609687" y="64.506994" style="fill: #d62728; fill-opacity: 0.78"/>
     <use xlink:href="#me9525f4943" x="294.067937" y="64.37786" style="fill: #d62728; fill-opacity: 0.78"/>
     <use xlink:href="#me9525f4943" x="314.535062" y="63.205967" style="fill: #d62728; fill-opacity: 0.78"/>
     <use xlink:href="#me9525f4943" x="317.204687" y="62.74366" style="fill: #d62728; fill-opacity: 0.78"/>
     <use xlink:href="#me9525f4943" x="334.112312" y="60.521176" style="fill: #d62728; fill-opacity: 0.78"/>
     <use xlink:href="#me9525f4943" x="335.002187" y="62.157137" style="fill: #d62728; fill-opacity: 0.78"/>
     <use xlink:href="#me9525f4943" x="356.359187" y="61.222024" style="fill: #d62728; fill-opacity: 0.78"/>
     <use xlink:href="#me9525f4943" x="377.716187" y="60.380027" style="fill: #d62728; fill-opacity: 0.78"/>
     <use xlink:href="#me9525f4943" x="399.073187" y="59.704742" style="fill: #d62728; fill-opacity: 0.78"/>
     <use xlink:href="#me9525f4943" x="404.412437" y="57.447146" style="fill: #d62728; fill-opacity: 0.78"/>
     <use xlink:href="#me9525f4943" x="415.090937" y="57.707597" style="fill: #d62728; fill-opacity: 0.78"/>
     <use xlink:href="#me9525f4943" x="420.430187" y="59.105878" style="fill: #d62728; fill-opacity: 0.78"/>
     <use xlink:href="#me9525f4943" x="442.677062" y="58.550012" style="fill: #d62728; fill-opacity: 0.78"/>
     <use xlink:href="#me9525f4943" x="464.034062" y="58.086423" style="fill: #d62728; fill-opacity: 0.78"/>
     <use xlink:href="#me9525f4943" x="480.941687" y="55.421742" style="fill: #d62728; fill-opacity: 0.78"/>
     <use xlink:href="#me9525f4943" x="486.280937" y="57.660807" style="fill: #d62728; fill-opacity: 0.78"/>
     <use xlink:href="#me9525f4943" x="508.527812" y="57.258755" style="fill: #d62728; fill-opacity: 0.78"/>
     <use xlink:href="#me9525f4943" x="525.435437" y="56.178409" style="fill: #d62728; fill-opacity: 0.78"/>
     <use xlink:href="#me9525f4943" x="531.664562" y="56.857336" style="fill: #d62728; fill-opacity: 0.78"/>
     <use xlink:href="#me9525f4943" x="593.065937" y="54.800209" style="fill: #d62728; fill-opacity: 0.78"/>
     <use xlink:href="#me9525f4943" x="601.074812" y="58.460539" style="fill: #d62728; fill-opacity: 0.78"/>
     <use xlink:href="#me9525f4943" x="685.612937" y="61.554166" style="fill: #d62728; fill-opacity: 0.78"/>
     <use xlink:href="#me9525f4943" x="753.243437" y="59.05609" style="fill: #d62728; fill-opacity: 0.78"/>
     <use xlink:href="#me9525f4943" x="799.516937" y="68.781423" style="fill: #d62728; fill-opacity: 0.78"/>
     <use xlink:href="#me9525f4943" x="885.834812" y="76.378332" style="fill: #d62728; fill-opacity: 0.78"/>
     <use xlink:href="#me9525f4943" x="925.879187" y="76.883966" style="fill: #d62728; fill-opacity: 0.78"/>
     <use xlink:href="#me9525f4943" x="940.117187" y="63.901325" style="fill: #d62728; fill-opacity: 0.78"/>
    </g>
   </g>
   <g id="line2d_35">
    <path d="M 76.938438 210.996041
L 81.24877 207.469378
L 85.559102 204.541544
L 89.869434 202.029611
L 94.179766 199.823006
L 98.490098 197.849563
L 102.80043 196.059915
L 107.110762 194.418697
L 115.731426 191.48263
L 124.35209 188.896026
L 132.972754 186.568146
L 141.593418 184.43833
L 154.524414 181.524994
L 167.45541 178.864894
L 184.696738 175.600364
L 201.938066 172.564064
L 223.489727 168.981613
L 257.972383 163.520079
L 318.317031 154.031524
L 344.179023 149.731806
L 365.730684 145.917697
L 382.972012 142.646317
L 395.903008 140.019837
L 408.834004 137.201017
L 421.765 134.13418
L 430.385664 131.913891
L 439.006328 129.516499
L 447.626992 126.89872
L 456.247656 124.0018
L 464.86832 120.744113
L 469.178652 118.946165
L 473.488984 117.012775
L 477.799316 114.924354
L 482.109648 112.660184
L 486.41998 110.201928
L 490.730312 107.539698
L 495.040645 104.6831
L 512.281973 92.660718
L 516.592305 89.976085
L 520.902637 87.531157
L 525.212969 85.32296
L 529.523301 83.332204
L 533.833633 81.533828
L 538.143965 79.902719
L 542.454297 78.416094
L 551.074961 75.800555
L 559.695625 73.563832
L 568.316289 71.619033
L 576.936953 69.904511
L 585.557617 68.375636
L 598.488613 66.360366
L 611.419609 64.610178
L 624.350605 63.070065
L 641.591934 61.27715
L 658.833262 59.723216
L 680.384922 58.048141
L 701.936582 56.612308
L 727.798574 55.143061
L 753.660566 53.898649
L 766.591562 53.347479
L 766.591562 53.347479
" clip-path="url(#p4cb9aa954d)" style="fill: none; stroke-dasharray: 8.14,3.52; stroke-dashoffset: 0; stroke: #17becf; stroke-width: 2.2"/>
   </g>
   <g id="line2d_36">
    <defs>
     <path id="m3a89e959ab" d="M 0 3.4
C 0.901691 3.4 1.766572 3.041755 2.404163 2.404163
C 3.041755 1.766572 3.4 0.901691 3.4 0
C 3.4 -0.901691 3.041755 -1.766572 2.404163 -2.404163
C 1.766572 -3.041755 0.901691 -3.4 0 -3.4
C -0.901691 -3.4 -1.766572 -3.041755 -2.404163 -2.404163
C -3.041755 -1.766572 -3.4 -0.901691 -3.4 0
C -3.4 0.901691 -3.041755 1.766572 -2.404163 2.404163
C -1.766572 3.041755 -0.901691 3.4 0 3.4
z
"/>
    </defs>
    <g clip-path="url(#p4cb9aa954d)">
     <use xlink:href="#m3a89e959ab" x="153.467687" y="99.885303" style="fill: #17becf; fill-opacity: 0.78"/>
     <use xlink:href="#m3a89e959ab" x="173.044937" y="101.132399" style="fill: #17becf; fill-opacity: 0.78"/>
     <use xlink:href="#m3a89e959ab" x="192.622187" y="102.511638" style="fill: #17becf; fill-opacity: 0.78"/>
     <use xlink:href="#m3a89e959ab" x="213.089312" y="102.502313" style="fill: #17becf; fill-opacity: 0.78"/>
     <use xlink:href="#m3a89e959ab" x="232.666562" y="102.49722" style="fill: #17becf; fill-opacity: 0.78"/>
     <use xlink:href="#m3a89e959ab" x="246.014687" y="146.926827" style="fill: #17becf; fill-opacity: 0.78"/>
     <use xlink:href="#m3a89e959ab" x="253.133687" y="101.778095" style="fill: #17becf; fill-opacity: 0.78"/>
     <use xlink:href="#m3a89e959ab" x="273.600812" y="100.443212" style="fill: #17becf; fill-opacity: 0.78"/>
     <use xlink:href="#m3a89e959ab" x="281.609687" y="136.734234" style="fill: #17becf; fill-opacity: 0.78"/>
     <use xlink:href="#m3a89e959ab" x="294.067937" y="98.646986" style="fill: #17becf; fill-opacity: 0.78"/>
     <use xlink:href="#m3a89e959ab" x="314.535062" y="96.552298" style="fill: #17becf; fill-opacity: 0.78"/>
     <use xlink:href="#m3a89e959ab" x="317.204687" y="136.620919" style="fill: #17becf; fill-opacity: 0.78"/>
     <use xlink:href="#m3a89e959ab" x="335.002187" y="94.719634" style="fill: #17becf; fill-opacity: 0.78"/>
     <use xlink:href="#m3a89e959ab" x="356.359187" y="92.34291" style="fill: #17becf; fill-opacity: 0.78"/>
     <use xlink:href="#m3a89e959ab" x="377.716187" y="90.299699" style="fill: #17becf; fill-opacity: 0.78"/>
     <use xlink:href="#m3a89e959ab" x="399.073187" y="88.248906" style="fill: #17becf; fill-opacity: 0.78"/>
     <use xlink:href="#m3a89e959ab" x="415.090937" y="120.172819" style="fill: #17becf; fill-opacity: 0.78"/>
     <use xlink:href="#m3a89e959ab" x="420.430187" y="86.230431" style="fill: #17becf; fill-opacity: 0.78"/>
     <use xlink:href="#m3a89e959ab" x="442.677062" y="84.250324" style="fill: #17becf; fill-opacity: 0.78"/>
     <use xlink:href="#m3a89e959ab" x="464.034062" y="82.349917" style="fill: #17becf; fill-opacity: 0.78"/>
     <use xlink:href="#m3a89e959ab" x="486.280937" y="80.527347" style="fill: #17becf; fill-opacity: 0.78"/>
     <use xlink:href="#m3a89e959ab" x="508.527812" y="78.921552" style="fill: #17becf; fill-opacity: 0.78"/>
     <use xlink:href="#m3a89e959ab" x="525.435437" y="77.951792" style="fill: #17becf; fill-opacity: 0.78"/>
     <use xlink:href="#m3a89e959ab" x="531.664562" y="77.352127" style="fill: #17becf; fill-opacity: 0.78"/>
     <use xlink:href="#m3a89e959ab" x="593.065937" y="74.087251" style="fill: #17becf; fill-opacity: 0.78"/>
     <use xlink:href="#m3a89e959ab" x="601.074812" y="65.133731" style="fill: #17becf; fill-opacity: 0.78"/>
     <use xlink:href="#m3a89e959ab" x="685.612937" y="58.123134" style="fill: #17becf; fill-opacity: 0.78"/>
     <use xlink:href="#m3a89e959ab" x="753.243437" y="57.209989" style="fill: #17becf; fill-opacity: 0.78"/>
     <use xlink:href="#m3a89e959ab" x="799.516937" y="51.973882" style="fill: #17becf; fill-opacity: 0.78"/>
     <use xlink:href="#m3a89e959ab" x="885.834812" y="48.658424" style="fill: #17becf; fill-opacity: 0.78"/>
     <use xlink:href="#m3a89e959ab" x="925.879187" y="47.065759" style="fill: #17becf; fill-opacity: 0.78"/>
     <use xlink:href="#m3a89e959ab" x="940.117187" y="51.009272" style="fill: #17becf; fill-opacity: 0.78"/>
    </g>
   </g>
   <g id="line2d_37">
    <path d="M 76.938438 133.434583
L 81.24877 131.612489
L 85.559102 130.186875
L 89.869434 129.028316
L 94.179766 128.062524
L 98.490098 127.242113
L 107.110762 125.920148
L 115.731426 124.902711
L 124.35209 124.099528
L 137.283086 123.178452
L 150.214082 122.499643
L 167.45541 121.852161
L 189.00707 121.322114
L 214.869062 120.948708
L 249.351719 120.717557
L 296.765371 120.666286
L 374.351348 120.845788
L 464.86832 121.235661
L 486.41998 121.499575
L 499.350977 121.866126
L 507.971641 122.284948
L 520.902637 123.17124
L 542.454297 124.978912
L 697.62625 138.596474
L 740.72957 142.03328
L 766.591562 143.985222
L 766.591562 143.985222
" clip-path="url(#p4cb9aa954d)" style="fill: none; stroke-dasharray: 8.14,3.52; stroke-dashoffset: 0; stroke: #9467bd; stroke-width: 2.2"/>
   </g>
   <g id="line2d_38">
    <defs>
     <path id="m24c5c95552" d="M 0 3.4
C 0.901691 3.4 1.766572 3.041755 2.404163 2.404163
C 3.041755 1.766572 3.4 0.901691 3.4 0
C 3.4 -0.901691 3.041755 -1.766572 2.404163 -2.404163
C 1.766572 -3.041755 0.901691 -3.4 0 -3.4
C -0.901691 -3.4 -1.766572 -3.041755 -2.404163 -2.404163
C -3.041755 -1.766572 -3.4 -0.901691 -3.4 0
C -3.4 0.901691 -3.041755 1.766572 -2.404163 2.404163
C -1.766572 3.041755 -0.901691 3.4 0 3.4
z
"/>
    </defs>
    <g clip-path="url(#p4cb9aa954d)">
     <use xlink:href="#m24c5c95552" x="157.027187" y="147.358188" style="fill: #9467bd; fill-opacity: 0.78"/>
     <use xlink:href="#m24c5c95552" x="246.014687" y="126.194293" style="fill: #9467bd; fill-opacity: 0.78"/>
     <use xlink:href="#m24c5c95552" x="281.609687" y="120.277521" style="fill: #9467bd; fill-opacity: 0.78"/>
     <use xlink:href="#m24c5c95552" x="317.204687" y="120.240432" style="fill: #9467bd; fill-opacity: 0.78"/>
     <use xlink:href="#m24c5c95552" x="415.090937" y="109.967373" style="fill: #9467bd; fill-opacity: 0.78"/>
     <use xlink:href="#m24c5c95552" x="593.065937" y="107.699785" style="fill: #9467bd; fill-opacity: 0.78"/>
     <use xlink:href="#m24c5c95552" x="753.243437" y="107.69058" style="fill: #9467bd; fill-opacity: 0.78"/>
     <use xlink:href="#m24c5c95552" x="940.117187" y="104.830715" style="fill: #9467bd; fill-opacity: 0.78"/>
    </g>
   </g>
   <g id="line2d_39">
    <path d="M 76.938438 479.848767
L 81.24877 477.348663
L 85.559102 475.240907
L 89.869434 473.427848
L 94.179766 471.842629
L 98.490098 470.437933
L 102.80043 469.17935
L 111.421094 467.002769
L 120.041758 465.168805
L 128.662422 463.586614
L 137.283086 462.195568
L 150.214082 460.377615
L 163.145078 458.797711
L 180.386406 456.951165
L 201.938066 454.920695
L 227.800059 452.722102
L 318.317031 445.242632
L 339.868691 443.188327
L 361.420352 440.897694
L 378.66168 438.833677
L 391.592676 437.109173
L 404.523672 435.192791
L 417.454668 433.033881
L 426.075332 431.425823
L 434.695996 429.650243
L 443.31666 427.668953
L 451.937324 425.430564
L 460.557988 422.863951
L 464.86832 421.4278
L 469.178652 419.86951
L 473.488984 418.170604
L 477.799316 416.310212
L 482.109648 414.266095
L 486.41998 412.017538
L 490.730312 409.55177
L 495.040645 406.874733
L 503.661309 401.081568
L 512.281973 395.342419
L 516.592305 392.724745
L 520.902637 390.331354
L 525.212969 388.162932
L 529.523301 386.203148
L 533.833633 384.429312
L 538.143965 382.81774
L 542.454297 381.346941
L 551.074961 378.754733
L 559.695625 376.533452
L 568.316289 374.59849
L 576.936953 372.889456
L 585.557617 371.362348
L 598.488613 369.343714
L 611.419609 367.583264
L 624.350605 366.026323
L 641.591934 364.200596
L 658.833262 362.601932
L 680.384922 360.854188
L 701.936582 359.327305
L 727.798574 357.725886
L 757.970898 356.110322
L 766.591562 355.690692
L 766.591562 355.690692
" clip-path="url(#p4cb9aa954d)" style="fill: none; stroke-dasharray: 8.14,3.52; stroke-dashoffset: 0; stroke: #8c564b; stroke-width: 2.2"/>
   </g>
   <g id="line2d_40">
    <path d="M 76.938438 134.130525
L 81.24877 136.489264
L 85.559102 138.546625
L 89.869434 140.378095
L 94.179766 142.035127
L 102.80043 144.961477
L 111.421094 147.515311
L 120.041758 149.805982
L 128.662422 151.902368
L 141.593418 154.778375
L 154.524414 157.419128
L 171.765742 160.683113
L 193.317402 164.484164
L 219.179395 168.796244
L 270.903379 177.108811
L 309.696367 183.450982
L 335.558359 187.900915
L 357.11002 191.837629
L 374.351348 195.198076
L 391.592676 198.81068
L 404.523672 201.736093
L 417.454668 204.901802
L 426.075332 207.179823
L 434.695996 209.624578
L 443.31666 212.274404
L 451.937324 215.180629
L 460.557988 218.414211
L 464.86832 220.183615
L 469.178652 222.074713
L 473.488984 224.106216
L 477.799316 226.29885
L 482.109648 228.674599
L 486.41998 231.254026
L 490.730312 234.049676
L 495.040645 237.055311
L 503.661309 243.499842
L 512.281973 249.880746
L 516.592305 252.815699
L 520.902637 255.524117
L 525.212969 258.005453
L 529.523301 260.27645
L 533.833633 262.35982
L 538.143965 264.279056
L 542.454297 266.056238
L 551.074961 269.256339
L 559.695625 272.079345
L 568.316289 274.609735
L 576.936953 276.907843
L 585.557617 279.017358
L 598.488613 281.896451
L 611.419609 284.500917
L 624.350605 286.884409
L 641.591934 289.783366
L 658.833262 292.42008
L 676.07459 294.838635
L 697.62625 297.6021
L 719.17791 300.117447
L 740.72957 302.416818
L 766.591562 304.924882
L 766.591562 304.924882
" clip-path="url(#p4cb9aa954d)" style="fill: none; stroke-dasharray: 8.14,3.52; stroke-dashoffset: 0; stroke: #7f7f7f; stroke-width: 2.2"/>
   </g>
   <g id="line2d_41">
    <path d="M 76.938438 43.566242
L 158.834746 44.968484
L 249.351719 46.73285
L 331.248027 48.539991
L 408.834004 50.469953
L 490.730312 52.556878
L 503.661309 52.670462
L 516.592305 52.565907
L 538.143965 52.114042
L 654.52293 49.368586
L 710.557246 48.331976
L 766.591562 47.498342
L 766.591562 47.498342
" clip-path="url(#p4cb9aa954d)" style="fill: none; stroke-dasharray: 8.14,3.52; stroke-dashoffset: 0; stroke: #e377c2; stroke-width: 2.2"/>
   </g>
   <g id="line2d_42">
    <defs>
     <path id="m0800228086" d="M 0 3.4
C 0.901691 3.4 1.766572 3.041755 2.404163 2.404163
C 3.041755 1.766572 3.4 0.901691 3.4 0
C 3.4 -0.901691 3.041755 -1.766572 2.404163 -2.404163
C 1.766572 -3.041755 0.901691 -3.4 0 -3.4
C -0.901691 -3.4 -1.766572 -3.041755 -2.404163 -2.404163
C -3.041755 -1.766572 -3.4 -0.901691 -3.4 0
C -3.4 0.901691 -3.041755 1.766572 -2.404163 2.404163
C -1.766572 3.041755 -0.901691 3.4 0 3.4
z
"/>
    </defs>
    <g clip-path="url(#p4cb9aa954d)">
     <use xlink:href="#m0800228086" x="125.881562" y="38.50358" style="fill: #e377c2; fill-opacity: 0.78"/>
     <use xlink:href="#m0800228086" x="153.467687" y="44.123835" style="fill: #e377c2; fill-opacity: 0.78"/>
     <use xlink:href="#m0800228086" x="157.027187" y="43.352006" style="fill: #e377c2; fill-opacity: 0.78"/>
     <use xlink:href="#m0800228086" x="173.044937" y="44.504218" style="fill: #e377c2; fill-opacity: 0.78"/>
     <use xlink:href="#m0800228086" x="192.622187" y="39.350345" style="fill: #e377c2; fill-opacity: 0.78"/>
     <use xlink:href="#m0800228086" x="192.622187" y="44.93039" style="fill: #e377c2; fill-opacity: 0.78"/>
     <use xlink:href="#m0800228086" x="213.089312" y="45.337115" style="fill: #e377c2; fill-opacity: 0.78"/>
     <use xlink:href="#m0800228086" x="232.666562" y="45.758464" style="fill: #e377c2; fill-opacity: 0.78"/>
     <use xlink:href="#m0800228086" x="246.014687" y="46.22332" style="fill: #e377c2; fill-opacity: 0.78"/>
     <use xlink:href="#m0800228086" x="253.133687" y="46.19747" style="fill: #e377c2; fill-opacity: 0.78"/>
     <use xlink:href="#m0800228086" x="268.261562" y="40.430665" style="fill: #e377c2; fill-opacity: 0.78"/>
     <use xlink:href="#m0800228086" x="273.600812" y="46.660854" style="fill: #e377c2; fill-opacity: 0.78"/>
     <use xlink:href="#m0800228086" x="281.609687" y="47.3388" style="fill: #e377c2; fill-opacity: 0.78"/>
     <use xlink:href="#m0800228086" x="294.067937" y="47.116023" style="fill: #e377c2; fill-opacity: 0.78"/>
     <use xlink:href="#m0800228086" x="314.535062" y="47.599685" style="fill: #e377c2; fill-opacity: 0.78"/>
     <use xlink:href="#m0800228086" x="317.204687" y="48.178975" style="fill: #e377c2; fill-opacity: 0.78"/>
     <use xlink:href="#m0800228086" x="334.112312" y="41.456891" style="fill: #e377c2; fill-opacity: 0.78"/>
     <use xlink:href="#m0800228086" x="335.002187" y="48.082479" style="fill: #e377c2; fill-opacity: 0.78"/>
     <use xlink:href="#m0800228086" x="356.359187" y="48.614018" style="fill: #e377c2; fill-opacity: 0.78"/>
     <use xlink:href="#m0800228086" x="377.716187" y="49.10196" style="fill: #e377c2; fill-opacity: 0.78"/>
     <use xlink:href="#m0800228086" x="399.073187" y="49.596742" style="fill: #e377c2; fill-opacity: 0.78"/>
     <use xlink:href="#m0800228086" x="404.412437" y="42.651947" style="fill: #e377c2; fill-opacity: 0.78"/>
     <use xlink:href="#m0800228086" x="415.090937" y="48.552704" style="fill: #e377c2; fill-opacity: 0.78"/>
     <use xlink:href="#m0800228086" x="420.430187" y="50.080655" style="fill: #e377c2; fill-opacity: 0.78"/>
     <use xlink:href="#m0800228086" x="442.677062" y="50.581059" style="fill: #e377c2; fill-opacity: 0.78"/>
     <use xlink:href="#m0800228086" x="464.034062" y="51.039629" style="fill: #e377c2; fill-opacity: 0.78"/>
     <use xlink:href="#m0800228086" x="480.941687" y="44.140979" style="fill: #e377c2; fill-opacity: 0.78"/>
     <use xlink:href="#m0800228086" x="486.280937" y="51.521862" style="fill: #e377c2; fill-opacity: 0.78"/>
     <use xlink:href="#m0800228086" x="508.527812" y="52.011258" style="fill: #e377c2; fill-opacity: 0.78"/>
     <use xlink:href="#m0800228086" x="525.435437" y="47.41214" style="fill: #e377c2; fill-opacity: 0.78"/>
     <use xlink:href="#m0800228086" x="531.664562" y="52.4948" style="fill: #e377c2; fill-opacity: 0.78"/>
     <use xlink:href="#m0800228086" x="593.065937" y="51.22311" style="fill: #e377c2; fill-opacity: 0.78"/>
     <use xlink:href="#m0800228086" x="601.074812" y="46.793432" style="fill: #e377c2; fill-opacity: 0.78"/>
     <use xlink:href="#m0800228086" x="685.612937" y="46.21315" style="fill: #e377c2; fill-opacity: 0.78"/>
     <use xlink:href="#m0800228086" x="753.243437" y="48.893748" style="fill: #e377c2; fill-opacity: 0.78"/>
     <use xlink:href="#m0800228086" x="799.516937" y="44.50753" style="fill: #e377c2; fill-opacity: 0.78"/>
     <use xlink:href="#m0800228086" x="885.834812" y="43.469552" style="fill: #e377c2; fill-opacity: 0.78"/>
     <use xlink:href="#m0800228086" x="925.879187" y="42.918758" style="fill: #e377c2; fill-opacity: 0.78"/>
     <use xlink:href="#m0800228086" x="940.117187" y="47.516372" style="fill: #e377c2; fill-opacity: 0.78"/>
    </g>
   </g>
   <g id="patch_3">
    <path d="M 59.140938 484.51718
L 59.140938 11.18918
" style="fill: none; stroke: #000000; stroke-width: 0.9; stroke-linejoin: miter; stroke-linecap: square"/>
   </g>
   <g id="patch_4">
    <path d="M 771.040937 484.51718
L 771.040937 11.18918
" style="fill: none; stroke: #000000; stroke-width: 0.9; stroke-linejoin: miter; stroke-linecap: square"/>
   </g>
   <g id="patch_5">
    <path d="M 59.140938 484.51718
L 771.040937 484.51718
" style="fill: none; stroke: #000000; stroke-width: 0.9; stroke-linejoin: miter; stroke-linecap: square"/>
   </g>
   <g id="patch_6">
    <path d="M 59.140938 11.18918
L 771.040937 11.18918
" style="fill: none; stroke: #000000; stroke-width: 0.9; stroke-linejoin: miter; stroke-linecap: square"/>
   </g>
   <g id="legend_1">
    <g id="patch_7">
     <path d="M 362.890937 480.01718
L 467.290937 480.01718
Q 469.090937 480.01718 469.090937 478.21718
L 469.090937 356.746711
Q 469.090937 354.946711 467.290937 354.946711
L 362.890937 354.946711
Q 361.090937 354.946711 361.090937 356.746711
L 361.090937 478.21718
Q 361.090937 480.01718 362.890937 480.01718
z
" style="fill: #ffffff; opacity: 0.88; stroke: #cccccc; stroke-linejoin: miter"/>
    </g>
    <g id="line2d_43">
     <path d="M 365.140937 362.685305
L 375.490937 362.685305
L 385.840937 362.685305
" style="fill: none; stroke-dasharray: 8.14,3.52; stroke-dashoffset: 0; stroke: #16805a; stroke-width: 2.2"/>
    </g>
    <g id="text_29">
     <!-- $CO_2$ -->
     <g transform="translate(393.040937 365.835305) scale(0.09 -0.09)">
      <use xlink:href="#DejaVuSerif-Italic-43" transform="translate(0 0.78125)"/>
      <use xlink:href="#DejaVuSerif-Italic-4f" transform="translate(76.513672 0.78125)"/>
      <use xlink:href="#DejaVuSerif-32" transform="translate(158.496094 -14.790625) scale(0.7)"/>
     </g>
    </g>
    <g id="line2d_44">
     <path d="M 365.140937 375.895617
L 375.490937 375.895617
L 385.840937 375.895617
" style="fill: none; stroke-dasharray: 8.14,3.52; stroke-dashoffset: 0; stroke: #1f5aa6; stroke-width: 2.2"/>
    </g>
    <g id="text_30">
     <!-- $MEA$ -->
     <g transform="translate(393.040937 379.045617) scale(0.09 -0.09)">
      <defs>
       <path id="DejaVuSerif-Italic-4d" d="M -97 0
L -34 331
L 559 331
L 1338 4331
L 709 4331
L 775 4666
L 2134 4666
L 3125 1344
L 5409 4666
L 6684 4666
L 6619 4331
L 5997 4331
L 5222 331
L 5816 331
L 5753 0
L 3928 0
L 3991 331
L 4584 331
L 5288 3938
L 3053 684
L 2613 684
L 1647 3938
L 944 331
L 1538 331
L 1475 0
L -97 0
z
" transform="scale(0.015625)"/>
       <path id="DejaVuSerif-Italic-45" d="M -97 0
L -34 331
L 559 331
L 1338 4331
L 744 4331
L 809 4666
L 4566 4666
L 4366 3628
L 3981 3628
L 4106 4281
L 1963 4281
L 1659 2719
L 3188 2719
L 3300 3303
L 3684 3303
L 3384 1753
L 3000 1753
L 3113 2338
L 1584 2338
L 1206 384
L 3400 384
L 3525 1038
L 3909 1038
L 3709 0
L -97 0
z
" transform="scale(0.015625)"/>
       <path id="DejaVuSerif-Italic-41" d="M 1159 1691
L 2872 1691
L 2447 3909
L 1159 1691
z
M -488 0
L -425 331
L -16 331
L 2491 4666
L 3016 4666
L 3841 331
L 4297 331
L 4234 0
L 2538 0
L 2600 331
L 3119 331
L 2928 1356
L 966 1356
L 375 331
L 888 331
L 825 0
L -488 0
z
" transform="scale(0.015625)"/>
      </defs>
      <use xlink:href="#DejaVuSerif-Italic-4d" transform="translate(0 0.09375)"/>
      <use xlink:href="#DejaVuSerif-Italic-45" transform="translate(102.392578 0.09375)"/>
      <use xlink:href="#DejaVuSerif-Italic-41" transform="translate(175.390625 0.09375)"/>
     </g>
    </g>
    <g id="line2d_45">
     <path d="M 365.140937 389.10593
L 375.490937 389.10593
L 385.840937 389.10593
" style="fill: none; stroke-dasharray: 8.14,3.52; stroke-dashoffset: 0; stroke: #bcbd22; stroke-width: 2.2"/>
    </g>
    <g id="text_31">
     <!-- $MEAH^+$ -->
     <g transform="translate(393.040937 392.25593) scale(0.09 -0.09)">
      <defs>
       <path id="DejaVuSerif-Italic-48" d="M -97 0
L -34 331
L 559 331
L 1338 4331
L 744 4331
L 809 4666
L 2631 4666
L 2566 4331
L 1972 4331
L 1659 2719
L 4078 2719
L 4391 4331
L 3797 4331
L 3863 4666
L 5684 4666
L 5619 4331
L 5025 4331
L 4247 331
L 4841 331
L 4778 0
L 2956 0
L 3019 331
L 3616 331
L 4003 2338
L 1584 2338
L 1194 331
L 1788 331
L 1725 0
L -97 0
z
" transform="scale(0.015625)"/>
       <path id="DejaVuSerif-2b" d="M 2931 4013
L 2931 2259
L 4684 2259
L 4684 1753
L 2931 1753
L 2931 0
L 2431 0
L 2431 1753
L 678 1753
L 678 2259
L 2431 2259
L 2431 4013
L 2931 4013
z
" transform="scale(0.015625)"/>
      </defs>
      <use xlink:href="#DejaVuSerif-Italic-4d" transform="translate(0 0.773438)"/>
      <use xlink:href="#DejaVuSerif-Italic-45" transform="translate(102.392578 0.773438)"/>
      <use xlink:href="#DejaVuSerif-Italic-41" transform="translate(175.390625 0.773438)"/>
      <use xlink:href="#DejaVuSerif-Italic-48" transform="translate(247.607422 0.773438)"/>
      <use xlink:href="#DejaVuSerif-2b" transform="translate(355.268854 37.107812) scale(0.7)"/>
     </g>
    </g>
    <g id="line2d_46">
     <path d="M 365.140937 402.316242
L 375.490937 402.316242
L 385.840937 402.316242
" style="fill: none; stroke-dasharray: 8.14,3.52; stroke-dashoffset: 0; stroke: #d62728; stroke-width: 2.2"/>
    </g>
    <g id="text_32">
     <!-- $MEACOO^-$ -->
     <g transform="translate(393.040937 405.466242) scale(0.09 -0.09)">
      <use xlink:href="#DejaVuSerif-Italic-4d" transform="translate(0 0.78125)"/>
      <use xlink:href="#DejaVuSerif-Italic-45" transform="translate(102.392578 0.78125)"/>
      <use xlink:href="#DejaVuSerif-Italic-41" transform="translate(175.390625 0.78125)"/>
      <use xlink:href="#DejaVuSerif-Italic-43" transform="translate(247.607422 0.78125)"/>
      <use xlink:href="#DejaVuSerif-Italic-4f" transform="translate(324.121094 0.78125)"/>
      <use xlink:href="#DejaVuSerif-Italic-4f" transform="translate(406.103516 0.78125)"/>
      <use xlink:href="#DejaVuSerif-2212" transform="translate(508.724089 37.115625) scale(0.7)"/>
     </g>
    </g>
    <g id="line2d_47">
     <path d="M 365.140937 415.526555
L 375.490937 415.526555
L 385.840937 415.526555
" style="fill: none; stroke-dasharray: 8.14,3.52; stroke-dashoffset: 0; stroke: #17becf; stroke-width: 2.2"/>
    </g>
    <g id="text_33">
     <!-- $HCO_3^-$ -->
     <g transform="translate(393.040937 418.676555) scale(0.09 -0.09)">
      <use xlink:href="#DejaVuSerif-Italic-48" transform="translate(0 0.78125)"/>
      <use xlink:href="#DejaVuSerif-Italic-43" transform="translate(87.207031 0.78125)"/>
      <use xlink:href="#DejaVuSerif-Italic-4f" transform="translate(163.720703 0.78125)"/>
      <use xlink:href="#DejaVuSerif-2212" transform="translate(266.341276 39.28125) scale(0.7)"/>
      <use xlink:href="#DejaVuSerif-33" transform="translate(245.703125 -25.171875) scale(0.7)"/>
     </g>
    </g>
    <g id="line2d_48">
     <path d="M 365.140937 430.646555
L 375.490937 430.646555
L 385.840937 430.646555
" style="fill: none; stroke-dasharray: 8.14,3.52; stroke-dashoffset: 0; stroke: #9467bd; stroke-width: 2.2"/>
    </g>
    <g id="text_34">
     <!-- $CO_3^{2-}$ -->
     <g transform="translate(393.040937 433.796555) scale(0.09 -0.09)">
      <use xlink:href="#DejaVuSerif-Italic-43" transform="translate(0 0.546875)"/>
      <use xlink:href="#DejaVuSerif-Italic-4f" transform="translate(76.513672 0.546875)"/>
      <use xlink:href="#DejaVuSerif-32" transform="translate(165.858854 39.046875) scale(0.7)"/>
      <use xlink:href="#DejaVuSerif-2212" transform="translate(223.670378 39.046875) scale(0.7)"/>
      <use xlink:href="#DejaVuSerif-33" transform="translate(158.496094 -25.40625) scale(0.7)"/>
     </g>
    </g>
    <g id="line2d_49">
     <path d="M 365.140937 444.524836
L 375.490937 444.524836
L 385.840937 444.524836
" style="fill: none; stroke-dasharray: 8.14,3.52; stroke-dashoffset: 0; stroke: #8c564b; stroke-width: 2.2"/>
    </g>
    <g id="text_35">
     <!-- $H_3O^+$ -->
     <g transform="translate(393.040937 447.674836) scale(0.09 -0.09)">
      <use xlink:href="#DejaVuSerif-Italic-48" transform="translate(0 0.773438)"/>
      <use xlink:href="#DejaVuSerif-33" transform="translate(87.207031 -14.798438) scale(0.7)"/>
      <use xlink:href="#DejaVuSerif-Italic-4f" transform="translate(134.338477 0.773438)"/>
      <use xlink:href="#DejaVuSerif-2b" transform="translate(236.959049 37.107812) scale(0.7)"/>
     </g>
    </g>
    <g id="line2d_50">
     <path d="M 365.140937 457.735148
L 375.490937 457.735148
L 385.840937 457.735148
" style="fill: none; stroke-dasharray: 8.14,3.52; stroke-dashoffset: 0; stroke: #7f7f7f; stroke-width: 2.2"/>
    </g>
    <g id="text_36">
     <!-- $OH^-$ -->
     <g transform="translate(393.040937 460.885148) scale(0.09 -0.09)">
      <use xlink:href="#DejaVuSerif-Italic-4f" transform="translate(0 0.78125)"/>
      <use xlink:href="#DejaVuSerif-Italic-48" transform="translate(81.982422 0.78125)"/>
      <use xlink:href="#DejaVuSerif-2212" transform="translate(189.643854 37.115625) scale(0.7)"/>
     </g>
    </g>
    <g id="line2d_51">
     <path d="M 365.140937 470.945461
L 375.490937 470.945461
L 385.840937 470.945461
" style="fill: none; stroke-dasharray: 8.14,3.52; stroke-dashoffset: 0; stroke: #e377c2; stroke-width: 2.2"/>
    </g>
    <g id="text_37">
     <!-- $MEA + MEAH^+$ -->
     <g transform="translate(393.040937 474.095461) scale(0.09 -0.09)">
      <use xlink:href="#DejaVuSerif-Italic-4d" transform="translate(0 0.773438)"/>
      <use xlink:href="#DejaVuSerif-Italic-45" transform="translate(102.392578 0.773438)"/>
      <use xlink:href="#DejaVuSerif-Italic-41" transform="translate(175.390625 0.773438)"/>
      <use xlink:href="#DejaVuSerif-2b" transform="translate(266.572266 0.773438)"/>
      <use xlink:href="#DejaVuSerif-Italic-4d" transform="translate(369.326172 0.773438)"/>
      <use xlink:href="#DejaVuSerif-Italic-45" transform="translate(471.71875 0.773438)"/>
      <use xlink:href="#DejaVuSerif-Italic-41" transform="translate(544.716797 0.773438)"/>
      <use xlink:href="#DejaVuSerif-Italic-48" transform="translate(616.933594 0.773438)"/>
      <use xlink:href="#DejaVuSerif-2b" transform="translate(724.595026 37.107812) scale(0.7)"/>
     </g>
    </g>
   </g>
  </g>
 </g>
 <defs>
  <clipPath id="p4cb9aa954d">
   <rect x="59.140938" y="11.18918" width="711.9" height="473.328"/>
  </clipPath>
 </defs>
</svg>
