<?xml version="1.0" encoding="utf-8" standalone="no"?>
<!DOCTYPE svg PUBLIC "-//W3C//DTD SVG 1.1//EN"
  "http://www.w3.org/Graphics/SVG/1.1/DTD/svg11.dtd">
<svg xmlns:xlink="http://www.w3.org/1999/xlink" width="581.268529pt" height="364.123344pt" viewBox="0 0 581.268529 364.123344" xmlns="http://www.w3.org/2000/svg" version="1.1">
 <metadata>
  <rdf:RDF xmlns:dc="http://purl.org/dc/elements/1.1/" xmlns:cc="http://creativecommons.org/ns#" xmlns:rdf="http://www.w3.org/1999/02/22-rdf-syntax-ns#">
   <cc:Work>
    <dc:type rdf:resource="http://purl.org/dc/dcmitype/StillImage"/>
    <dc:date>2026-05-14T23:24:18.673249</dc:date>
    <dc:format>image/svg+xml</dc:format>
    <dc:creator>
     <cc:Agent>
      <dc:title>Matplotlib v3.10.9, https://matplotlib.org/</dc:title>
     </cc:Agent>
    </dc:creator>
   </cc:Work>
  </rdf:RDF>
 </metadata>
 <defs>
  <style type="text/css">*{stroke-linejoin: round; stroke-linecap: butt}</style>
 </defs>
 <g id="figure_1">
  <g id="patch_1">
   <path d="M 0 364.123344
L 581.268529 364.123344
L 581.268529 0
L 0 0
z
" style="fill: #ffffff"/>
  </g>
  <g id="axes_1">
   <g id="patch_2">
    <path d="M 48.46 325.665844
L 442.588 325.665844
L 442.588 26.289844
L 48.46 26.289844
z
" style="fill: #ffffff"/>
   </g>
   <g id="matplotlib.axis_1">
    <g id="xtick_1">
     <g id="line2d_1">
      <path d="M 60.844799 325.665844
L 60.844799 26.289844
" clip-path="url(#pffe29043f1)" style="fill: none; stroke: #b0b0b0; stroke-opacity: 0.22; stroke-width: 0.8; stroke-linecap: square"/>
     </g>
     <g id="line2d_2">
      <defs>
       <path id="ma58c5799a4" d="M 0 0
L 0 4
" style="stroke: #000000; stroke-width: 0.8"/>
      </defs>
      <g>
       <use xlink:href="#ma58c5799a4" x="60.844799" y="325.665844" style="stroke: #000000; stroke-width: 0.8"/>
      </g>
     </g>
     <g id="text_1">
      <!-- 0.1 -->
      <g transform="translate(54.281517 340.153344) scale(0.1 -0.1)">
       <defs>
        <path id="Cambria-30" d="M 1738 -50
Q 1063 -50 733 481
Q 403 1013 403 2094
Q 403 2669 504 3087
Q 606 3506 789 3779
Q 972 4053 1228 4184
Q 1484 4316 1788 4316
Q 2472 4316 2806 3787
Q 3141 3259 3141 2191
Q 3141 1084 2783 517
Q 2425 -50 1738 -50
z
M 1013 2188
Q 1013 1169 1202 692
Q 1391 216 1788 216
Q 2166 216 2348 664
Q 2531 1113 2531 2053
Q 2531 2772 2437 3217
Q 2344 3663 2176 3856
Q 2009 4050 1772 4050
Q 1556 4050 1411 3922
Q 1266 3794 1177 3553
Q 1088 3313 1050 2967
Q 1013 2622 1013 2188
z
" transform="scale(0.015625)"/>
        <path id="Cambria-2e" d="M 972 725
L 972 0
L 341 0
L 341 725
L 972 725
z
" transform="scale(0.015625)"/>
        <path id="Cambria-31" d="M 2172 816
Q 2172 634 2192 542
Q 2213 450 2264 392
Q 2316 334 2412 301
Q 2509 269 2656 251
Q 2803 234 3044 228
L 3044 0
L 734 0
L 734 228
Q 1081 244 1229 270
Q 1378 297 1456 350
Q 1534 403 1570 500
Q 1606 597 1606 816
L 1606 3350
Q 1606 3475 1562 3533
Q 1519 3591 1434 3591
Q 1334 3591 1150 3487
Q 966 3384 694 3203
L 556 3444
L 2019 4316
L 2191 4316
Q 2172 4016 2172 3484
L 2172 816
z
" transform="scale(0.015625)"/>
       </defs>
       <use xlink:href="#Cambria-30"/>
       <use xlink:href="#Cambria-2e" transform="translate(55.371094 0)"/>
       <use xlink:href="#Cambria-31" transform="translate(75.878906 0)"/>
      </g>
     </g>
    </g>
    <g id="xtick_2">
     <g id="line2d_3">
      <path d="M 133.696555 325.665844
L 133.696555 26.289844
" clip-path="url(#pffe29043f1)" style="fill: none; stroke: #b0b0b0; stroke-opacity: 0.22; stroke-width: 0.8; stroke-linecap: square"/>
     </g>
     <g id="line2d_4">
      <g>
       <use xlink:href="#ma58c5799a4" x="133.696555" y="325.665844" style="stroke: #000000; stroke-width: 0.8"/>
      </g>
     </g>
     <g id="text_2">
      <!-- 0.2 -->
      <g transform="translate(127.133273 340.153344) scale(0.1 -0.1)">
       <defs>
        <path id="Cambria-32" d="M 2194 500
Q 2347 500 2440 519
Q 2534 538 2590 581
Q 2647 625 2680 695
Q 2713 766 2763 913
L 3028 913
L 2975 0
L 403 0
L 403 150
Q 538 478 766 822
Q 994 1166 1413 1631
Q 1775 2031 1934 2238
Q 2109 2463 2195 2627
Q 2281 2791 2318 2936
Q 2356 3081 2356 3228
Q 2356 3463 2281 3642
Q 2206 3822 2051 3925
Q 1897 4028 1663 4028
Q 1078 4028 875 3378
L 497 3378
L 497 3978
Q 875 4156 1204 4236
Q 1534 4316 1797 4316
Q 2378 4316 2675 4061
Q 2972 3806 2972 3322
Q 2972 3156 2939 3017
Q 2906 2878 2836 2742
Q 2766 2606 2647 2450
Q 2528 2294 2384 2133
Q 2241 1972 1888 1597
Q 1294 969 1016 500
L 2194 500
z
" transform="scale(0.015625)"/>
       </defs>
       <use xlink:href="#Cambria-30"/>
       <use xlink:href="#Cambria-2e" transform="translate(55.371094 0)"/>
       <use xlink:href="#Cambria-32" transform="translate(75.878906 0)"/>
      </g>
     </g>
    </g>
    <g id="xtick_3">
     <g id="line2d_5">
      <path d="M 206.548311 325.665844
L 206.548311 26.289844
" clip-path="url(#pffe29043f1)" style="fill: none; stroke: #b0b0b0; stroke-opacity: 0.22; stroke-width: 0.8; stroke-linecap: square"/>
     </g>
     <g id="line2d_6">
      <g>
       <use xlink:href="#ma58c5799a4" x="206.548311" y="325.665844" style="stroke: #000000; stroke-width: 0.8"/>
      </g>
     </g>
     <g id="text_3">
      <!-- 0.3 -->
      <g transform="translate(199.985029 340.153344) scale(0.1 -0.1)">
       <defs>
        <path id="Cambria-33" d="M 497 3381
L 497 3975
Q 859 4147 1175 4231
Q 1491 4316 1784 4316
Q 2138 4316 2403 4206
Q 2669 4097 2809 3892
Q 2950 3688 2950 3403
Q 2950 3138 2844 2936
Q 2738 2734 2545 2584
Q 2353 2434 2047 2291
L 2047 2263
Q 2238 2228 2414 2145
Q 2591 2063 2728 1931
Q 2866 1800 2948 1617
Q 3031 1434 3031 1200
Q 3031 838 2873 556
Q 2716 275 2391 112
Q 2066 -50 1600 -50
Q 1331 -50 1020 11
Q 709 72 450 172
L 450 834
L 825 834
Q 934 509 1114 362
Q 1294 216 1603 216
Q 2009 216 2217 437
Q 2425 659 2425 1094
Q 2425 1550 2150 1790
Q 1875 2031 1344 2031
L 1063 2031
L 1063 2306
Q 1484 2331 1773 2468
Q 2063 2606 2203 2822
Q 2344 3038 2344 3306
Q 2344 3653 2159 3840
Q 1975 4028 1622 4028
Q 1328 4028 1143 3868
Q 959 3709 872 3381
L 497 3381
z
" transform="scale(0.015625)"/>
       </defs>
       <use xlink:href="#Cambria-30"/>
       <use xlink:href="#Cambria-2e" transform="translate(55.371094 0)"/>
       <use xlink:href="#Cambria-33" transform="translate(75.878906 0)"/>
      </g>
     </g>
    </g>
    <g id="xtick_4">
     <g id="line2d_7">
      <path d="M 279.400067 325.665844
L 279.400067 26.289844
" clip-path="url(#pffe29043f1)" style="fill: none; stroke: #b0b0b0; stroke-opacity: 0.22; stroke-width: 0.8; stroke-linecap: square"/>
     </g>
     <g id="line2d_8">
      <g>
       <use xlink:href="#ma58c5799a4" x="279.400067" y="325.665844" style="stroke: #000000; stroke-width: 0.8"/>
      </g>
     </g>
     <g id="text_4">
      <!-- 0.4 -->
      <g transform="translate(272.836785 340.153344) scale(0.1 -0.1)">
       <defs>
        <path id="Cambria-34" d="M 1613 153
Q 1806 203 1872 264
Q 1938 325 1958 437
Q 1978 550 1978 781
L 1978 1294
L 241 1294
L 241 1528
L 2069 4288
L 2516 4288
L 2516 1597
L 2581 1597
Q 2763 1597 2841 1623
Q 2919 1650 2970 1717
Q 3022 1784 3066 1938
L 3303 1938
L 3266 1294
L 2516 1294
L 2516 781
Q 2516 572 2530 475
Q 2544 378 2576 322
Q 2609 266 2673 228
Q 2738 191 2881 153
L 2881 0
L 1613 0
L 1613 153
z
M 756 1597
L 1978 1597
L 1978 2375
Q 1978 2669 1987 3033
Q 1997 3397 2009 3581
L 1978 3581
L 756 1641
L 756 1597
z
" transform="scale(0.015625)"/>
       </defs>
       <use xlink:href="#Cambria-30"/>
       <use xlink:href="#Cambria-2e" transform="translate(55.371094 0)"/>
       <use xlink:href="#Cambria-34" transform="translate(75.878906 0)"/>
      </g>
     </g>
    </g>
    <g id="xtick_5">
     <g id="line2d_9">
      <path d="M 352.251823 325.665844
L 352.251823 26.289844
" clip-path="url(#pffe29043f1)" style="fill: none; stroke: #b0b0b0; stroke-opacity: 0.22; stroke-width: 0.8; stroke-linecap: square"/>
     </g>
     <g id="line2d_10">
      <g>
       <use xlink:href="#ma58c5799a4" x="352.251823" y="325.665844" style="stroke: #000000; stroke-width: 0.8"/>
      </g>
     </g>
     <g id="text_5">
      <!-- 0.5 -->
      <g transform="translate(345.688541 340.153344) scale(0.1 -0.1)">
       <defs>
        <path id="Cambria-35" d="M 469 172
L 469 834
L 847 834
Q 941 516 1130 366
Q 1319 216 1619 216
Q 2034 216 2246 466
Q 2459 716 2459 1213
Q 2459 1544 2346 1761
Q 2234 1978 2043 2075
Q 1853 2172 1600 2172
Q 1388 2172 1234 2145
Q 1081 2119 906 2063
L 656 2209
L 656 4266
L 2378 4266
Q 2484 4266 2531 4283
Q 2578 4300 2606 4336
Q 2634 4372 2672 4472
L 2916 4472
L 2869 3747
L 1072 3747
L 1072 2375
Q 1234 2444 1425 2478
Q 1616 2513 1806 2513
Q 2178 2513 2465 2361
Q 2753 2209 2909 1929
Q 3066 1650 3066 1281
Q 3066 863 2891 563
Q 2716 263 2384 106
Q 2053 -50 1600 -50
Q 1059 -50 469 172
z
" transform="scale(0.015625)"/>
       </defs>
       <use xlink:href="#Cambria-30"/>
       <use xlink:href="#Cambria-2e" transform="translate(55.371094 0)"/>
       <use xlink:href="#Cambria-35" transform="translate(75.878906 0)"/>
      </g>
     </g>
    </g>
    <g id="xtick_6">
     <g id="line2d_11">
      <path d="M 425.103579 325.665844
L 425.103579 26.289844
" clip-path="url(#pffe29043f1)" style="fill: none; stroke: #b0b0b0; stroke-opacity: 0.22; stroke-width: 0.8; stroke-linecap: square"/>
     </g>
     <g id="line2d_12">
      <g>
       <use xlink:href="#ma58c5799a4" x="425.103579" y="325.665844" style="stroke: #000000; stroke-width: 0.8"/>
      </g>
     </g>
     <g id="text_6">
      <!-- 0.6 -->
      <g transform="translate(418.540297 340.153344) scale(0.1 -0.1)">
       <defs>
        <path id="Cambria-36" d="M 2847 4144
L 2847 3991
Q 2366 3991 1994 3784
Q 1622 3578 1376 3178
Q 1131 2778 1031 2228
L 1063 2216
Q 1325 2403 1579 2490
Q 1834 2578 2131 2578
Q 2484 2578 2732 2423
Q 2981 2269 3106 1989
Q 3231 1709 3231 1334
Q 3231 928 3075 617
Q 2919 306 2592 128
Q 2266 -50 1788 -50
Q 1103 -50 754 375
Q 406 800 406 1628
Q 406 2184 581 2668
Q 756 3153 1078 3514
Q 1400 3875 1825 4083
Q 2250 4291 2719 4316
L 2847 4144
z
M 1916 2250
Q 1763 2250 1620 2215
Q 1478 2181 1353 2115
Q 1228 2050 1109 1950
Q 1072 1916 1053 1878
Q 1022 1819 1012 1731
Q 1003 1644 1003 1438
Q 1003 841 1203 528
Q 1403 216 1809 216
Q 2044 216 2203 297
Q 2363 378 2461 520
Q 2559 663 2601 855
Q 2644 1047 2644 1272
Q 2644 1734 2453 1992
Q 2263 2250 1916 2250
z
" transform="scale(0.015625)"/>
       </defs>
       <use xlink:href="#Cambria-30"/>
       <use xlink:href="#Cambria-2e" transform="translate(55.371094 0)"/>
       <use xlink:href="#Cambria-36" transform="translate(75.878906 0)"/>
      </g>
     </g>
    </g>
    <g id="text_7">
     <!-- $CO_2$ loading, mol $CO_2$/mol MEA -->
     <g transform="translate(167.974 354.503344) scale(0.11 -0.11)">
      <defs>
       <path id="DejaVuSerif-Italic-43" d="M 4300 1234
Q 3966 581 3414 245
Q 2863 -91 2119 -91
Q 1663 -91 1303 65
Q 944 222 700 525
Q 419 875 334 1320
Q 250 1766 359 2328
Q 572 3416 1330 4083
Q 2088 4750 3116 4750
Q 3497 4750 3908 4650
Q 4319 4550 4775 4347
L 4569 3272
L 4216 3272
Q 4213 3859 3919 4137
Q 3625 4416 2997 4416
Q 2250 4416 1762 3886
Q 1275 3356 1075 2328
Q 875 1303 1156 773
Q 1438 244 2184 244
Q 2706 244 3092 492
Q 3478 741 3725 1234
L 4300 1234
z
" transform="scale(0.015625)"/>
       <path id="DejaVuSerif-Italic-4f" d="M 2219 244
Q 2984 244 3478 770
Q 3972 1297 4172 2328
Q 4372 3363 4084 3889
Q 3797 4416 3031 4416
Q 2263 4416 1769 3889
Q 1275 3363 1075 2328
Q 875 1297 1162 770
Q 1450 244 2219 244
z
M 2153 -91
Q 1678 -91 1311 65
Q 944 222 700 525
Q 419 875 334 1319
Q 250 1763 359 2328
Q 469 2894 725 3339
Q 981 3784 1400 4134
Q 1766 4441 2191 4595
Q 2616 4750 3097 4750
Q 4113 4750 4608 4084
Q 5103 3419 4891 2328
Q 4781 1769 4522 1320
Q 4263 872 3847 525
Q 3481 219 3056 64
Q 2631 -91 2153 -91
z
" transform="scale(0.015625)"/>
       <path id="DejaVuSerif-32" d="M 819 3553
L 469 3553
L 469 4384
Q 803 4563 1142 4656
Q 1481 4750 1806 4750
Q 2534 4750 2956 4397
Q 3378 4044 3378 3438
Q 3378 2753 2422 1800
Q 2347 1728 2309 1691
L 1131 513
L 3078 513
L 3078 1088
L 3444 1088
L 3444 0
L 434 0
L 434 341
L 1850 1753
Q 2319 2222 2519 2614
Q 2719 3006 2719 3438
Q 2719 3909 2473 4175
Q 2228 4441 1797 4441
Q 1350 4441 1106 4219
Q 863 3997 819 3553
z
" transform="scale(0.015625)"/>
       <path id="Cambria-20" transform="scale(0.015625)"/>
       <path id="Cambria-6c" d="M 1138 781
Q 1138 513 1163 408
Q 1188 303 1258 248
Q 1328 194 1488 153
L 1488 0
L 247 0
L 247 153
Q 403 194 464 237
Q 525 281 551 342
Q 578 403 589 508
Q 600 613 600 781
L 600 3397
Q 600 3697 595 3815
Q 591 3934 570 4017
Q 550 4100 514 4147
Q 478 4194 417 4222
Q 356 4250 197 4278
L 197 4441
L 950 4472
L 1138 4472
L 1138 781
z
" transform="scale(0.015625)"/>
       <path id="Cambria-6f" d="M 1663 -50
Q 1013 -50 670 333
Q 328 716 328 1466
Q 328 1981 508 2337
Q 688 2694 1000 2867
Q 1313 3041 1713 3041
Q 2381 3041 2725 2652
Q 3069 2263 3069 1534
Q 3069 1016 2897 659
Q 2725 303 2409 126
Q 2094 -50 1663 -50
z
M 919 1531
Q 919 888 1123 542
Q 1328 197 1709 197
Q 1919 197 2066 298
Q 2213 400 2305 572
Q 2397 744 2437 970
Q 2478 1197 2478 1444
Q 2478 1903 2376 2206
Q 2275 2509 2100 2651
Q 1925 2794 1700 2794
Q 1322 2794 1120 2466
Q 919 2138 919 1531
z
" transform="scale(0.015625)"/>
       <path id="Cambria-61" d="M 2109 447
L 2063 459
Q 1791 181 1552 65
Q 1313 -50 1044 -50
Q 806 -50 625 42
Q 444 134 347 301
Q 250 469 250 688
Q 250 1144 701 1392
Q 1153 1641 2056 1681
L 2056 1884
Q 2056 2209 1993 2396
Q 1931 2584 1797 2671
Q 1663 2759 1438 2759
Q 1194 2759 1045 2631
Q 897 2503 822 2247
L 413 2247
L 413 2653
Q 713 2809 913 2882
Q 1113 2956 1313 2998
Q 1513 3041 1719 3041
Q 2028 3041 2215 2942
Q 2403 2844 2497 2641
Q 2591 2438 2591 2028
L 2591 941
Q 2591 709 2594 614
Q 2597 519 2612 437
Q 2628 356 2659 307
Q 2691 259 2752 225
Q 2813 191 2950 153
L 2950 0
L 2094 0
L 2109 447
z
M 2056 1425
Q 1422 1419 1106 1256
Q 791 1094 791 766
Q 791 588 862 484
Q 934 381 1043 342
Q 1153 303 1303 303
Q 1516 303 1689 406
Q 1863 509 1959 668
Q 2056 828 2056 984
L 2056 1425
z
" transform="scale(0.015625)"/>
       <path id="Cambria-64" d="M 2413 3397
Q 2413 3697 2408 3815
Q 2403 3934 2383 4017
Q 2363 4100 2327 4147
Q 2291 4194 2230 4222
Q 2169 4250 2009 4278
L 2009 4441
L 2766 4472
L 2950 4472
L 2950 853
Q 2950 609 2959 504
Q 2969 400 3000 337
Q 3031 275 3098 236
Q 3166 197 3334 163
L 3334 0
L 2597 -31
L 2409 -31
L 2447 481
L 2400 494
Q 2203 284 2058 179
Q 1913 75 1748 12
Q 1584 -50 1397 -50
Q 884 -50 606 339
Q 328 728 328 1463
Q 328 1975 509 2333
Q 691 2691 998 2866
Q 1306 3041 1691 3041
Q 1897 3041 2065 3008
Q 2234 2975 2413 2900
L 2413 3397
z
M 2413 1853
Q 2413 2097 2391 2244
Q 2369 2391 2317 2491
Q 2266 2591 2178 2659
Q 2091 2728 1986 2759
Q 1881 2791 1734 2791
Q 1334 2791 1125 2470
Q 916 2150 916 1550
Q 916 950 1087 637
Q 1259 325 1609 325
Q 1747 325 1837 348
Q 1928 372 2015 423
Q 2103 475 2193 565
Q 2284 656 2326 731
Q 2369 806 2391 903
Q 2413 1000 2413 1153
L 2413 1853
z
" transform="scale(0.015625)"/>
       <path id="Cambria-69" d="M 1197 4213
L 1197 3606
L 622 3606
L 622 4213
L 1197 4213
z
M 303 153
Q 425 191 476 219
Q 528 247 564 297
Q 600 347 620 450
Q 641 553 641 772
L 641 2134
Q 641 2334 634 2456
Q 628 2578 590 2651
Q 553 2725 476 2761
Q 400 2797 259 2822
L 259 2988
L 988 3016
L 1178 3016
L 1178 781
Q 1178 513 1203 408
Q 1228 303 1298 248
Q 1369 194 1528 153
L 1528 0
L 303 0
L 303 153
z
" transform="scale(0.015625)"/>
       <path id="Cambria-6e" d="M 3347 0
L 2116 0
L 2116 153
Q 2238 191 2291 219
Q 2344 247 2380 297
Q 2416 347 2436 451
Q 2456 556 2456 769
L 2456 1588
Q 2456 1806 2443 1984
Q 2431 2163 2401 2277
Q 2372 2391 2330 2455
Q 2288 2519 2230 2564
Q 2172 2609 2097 2636
Q 2022 2663 1900 2663
Q 1778 2663 1668 2614
Q 1559 2566 1428 2447
Q 1297 2328 1237 2212
Q 1178 2097 1178 1947
L 1178 781
Q 1178 513 1203 408
Q 1228 303 1298 248
Q 1369 194 1528 153
L 1528 0
L 303 0
L 303 153
Q 425 191 476 219
Q 528 247 564 297
Q 600 347 620 450
Q 641 553 641 772
L 641 2134
Q 641 2334 634 2456
Q 628 2578 590 2651
Q 553 2725 476 2761
Q 400 2797 259 2822
L 259 2988
L 991 3016
L 1181 3016
L 1147 2506
L 1191 2494
Q 1422 2728 1564 2828
Q 1706 2928 1851 2983
Q 1997 3038 2159 3038
Q 2328 3038 2461 2998
Q 2594 2959 2695 2878
Q 2797 2797 2862 2676
Q 2928 2556 2961 2387
Q 2994 2219 2994 1959
L 2994 781
Q 2994 566 3006 469
Q 3019 372 3050 319
Q 3081 266 3140 230
Q 3200 194 3347 153
L 3347 0
z
" transform="scale(0.015625)"/>
       <path id="Cambria-67" d="M 3106 2672
L 2528 2694
L 2500 2659
Q 2597 2563 2653 2395
Q 2709 2228 2709 2034
Q 2709 1525 2395 1248
Q 2081 972 1503 972
Q 1244 972 1056 1038
Q 819 856 819 681
Q 819 566 864 506
Q 909 447 1014 422
Q 1119 397 1331 397
L 2081 397
Q 2413 397 2622 294
Q 2831 191 2920 17
Q 3009 -156 3009 -388
Q 3009 -681 2840 -911
Q 2672 -1141 2353 -1269
Q 2034 -1397 1609 -1397
Q 1294 -1397 1033 -1359
Q 772 -1322 586 -1233
Q 400 -1144 298 -998
Q 197 -853 197 -634
Q 197 -438 328 -277
Q 459 -116 700 6
Q 553 66 468 181
Q 384 297 384 453
Q 384 631 484 779
Q 584 928 838 1119
Q 613 1250 495 1475
Q 378 1700 378 1988
Q 378 2256 467 2454
Q 556 2653 714 2783
Q 872 2913 1087 2977
Q 1303 3041 1553 3041
Q 1778 3041 2000 2988
L 3106 2988
L 3106 2672
z
M 938 2038
Q 938 1647 1097 1434
Q 1256 1222 1556 1222
Q 1716 1222 1828 1283
Q 1941 1344 2011 1450
Q 2081 1556 2114 1695
Q 2147 1834 2147 1988
Q 2147 2263 2069 2447
Q 1991 2631 1856 2717
Q 1722 2803 1547 2803
Q 1250 2803 1094 2606
Q 938 2409 938 2038
z
M 1016 -50
Q 856 -169 776 -301
Q 697 -434 697 -603
Q 697 -884 920 -1017
Q 1144 -1150 1603 -1150
Q 1884 -1150 2086 -1075
Q 2288 -1000 2394 -859
Q 2500 -719 2500 -531
Q 2500 -444 2478 -361
Q 2456 -278 2395 -212
Q 2334 -147 2221 -108
Q 2109 -69 1928 -69
L 1463 -69
Q 1209 -69 1016 -50
z
" transform="scale(0.015625)"/>
       <path id="Cambria-2c" d="M 966 725
Q 1009 506 1009 294
Q 1009 75 934 -106
Q 859 -288 695 -467
Q 531 -647 244 -863
L 75 -672
Q 234 -522 306 -401
Q 378 -281 409 -128
Q 441 25 441 256
Q 441 494 419 725
L 966 725
z
" transform="scale(0.015625)"/>
       <path id="Cambria-6d" d="M 1147 2506
L 1191 2494
Q 1378 2681 1498 2776
Q 1619 2872 1731 2930
Q 1844 2988 1942 3013
Q 2041 3038 2144 3038
Q 2456 3038 2653 2894
Q 2850 2750 2925 2453
Q 3159 2691 3304 2803
Q 3450 2916 3601 2977
Q 3753 3038 3928 3038
Q 4138 3038 4289 2977
Q 4441 2916 4545 2789
Q 4650 2663 4698 2472
Q 4747 2281 4747 1959
L 4747 781
Q 4747 544 4762 453
Q 4778 363 4808 313
Q 4838 263 4897 227
Q 4956 191 5097 153
L 5097 0
L 3869 0
L 3869 153
Q 3991 191 4044 219
Q 4097 247 4133 297
Q 4169 347 4189 451
Q 4209 556 4209 769
L 4209 1588
Q 4209 1853 4195 2026
Q 4181 2200 4151 2303
Q 4122 2406 4080 2465
Q 4038 2525 3984 2569
Q 3931 2613 3859 2638
Q 3788 2663 3669 2663
Q 3544 2663 3436 2613
Q 3328 2563 3201 2444
Q 3075 2325 3019 2204
Q 2963 2084 2963 1922
L 2963 781
Q 2963 544 2978 453
Q 2994 363 3023 313
Q 3053 263 3112 227
Q 3172 191 3313 153
L 3313 0
L 2084 0
L 2084 153
Q 2206 191 2259 219
Q 2313 247 2348 297
Q 2384 347 2404 451
Q 2425 556 2425 769
L 2425 1588
Q 2425 1866 2409 2041
Q 2394 2216 2361 2322
Q 2328 2428 2276 2493
Q 2225 2559 2172 2593
Q 2119 2628 2047 2645
Q 1975 2663 1884 2663
Q 1756 2663 1643 2605
Q 1531 2547 1414 2437
Q 1297 2328 1237 2209
Q 1178 2091 1178 1953
L 1178 781
Q 1178 603 1187 509
Q 1197 416 1217 362
Q 1238 309 1269 276
Q 1300 244 1358 214
Q 1416 184 1531 153
L 1531 0
L 306 0
L 306 153
Q 425 191 476 219
Q 528 247 565 297
Q 603 347 622 450
Q 641 553 641 772
L 641 2134
Q 641 2334 634 2456
Q 628 2578 590 2651
Q 553 2725 476 2761
Q 400 2797 259 2822
L 259 2988
L 991 3016
L 1181 3016
L 1147 2506
z
" transform="scale(0.015625)"/>
       <path id="Cambria-2f" d="M 2941 4472
L 684 -1344
L 194 -1344
L 2456 4472
L 2941 4472
z
" transform="scale(0.015625)"/>
       <path id="Cambria-4d" d="M 4841 4113
Q 4703 4078 4642 4043
Q 4581 4009 4545 3957
Q 4509 3906 4492 3803
Q 4475 3700 4475 3484
L 4475 781
Q 4475 572 4489 475
Q 4503 378 4536 322
Q 4569 266 4633 228
Q 4697 191 4841 153
L 4841 0
L 3538 0
L 3538 153
Q 3716 197 3784 253
Q 3853 309 3878 418
Q 3903 528 3903 781
L 3903 1978
Q 3903 2450 3917 2933
Q 3931 3416 3950 3594
L 3897 3594
L 2659 497
L 2300 497
L 1150 3644
L 1097 3644
Q 1113 3453 1127 2953
Q 1141 2453 1141 1925
L 1141 781
Q 1141 572 1155 475
Q 1169 378 1201 322
Q 1234 266 1298 228
Q 1363 191 1506 153
L 1506 0
L 366 0
L 366 153
Q 559 203 625 264
Q 691 325 711 437
Q 731 550 731 781
L 731 3484
Q 731 3700 715 3798
Q 700 3897 664 3951
Q 628 4006 568 4039
Q 509 4072 366 4113
L 366 4266
L 1481 4266
L 2578 1225
L 3784 4266
L 4841 4266
L 4841 4113
z
" transform="scale(0.015625)"/>
       <path id="Cambria-45" d="M 3300 4266
L 3300 3322
L 2994 3322
Q 2947 3475 2897 3590
Q 2847 3706 2794 3784
Q 2741 3863 2677 3909
Q 2613 3956 2525 3973
Q 2438 3991 2316 3991
L 1328 3991
L 1328 2353
L 1997 2353
Q 2134 2353 2212 2392
Q 2291 2431 2342 2525
Q 2394 2619 2441 2819
L 2734 2819
L 2734 1619
L 2441 1619
Q 2397 1806 2344 1901
Q 2291 1997 2217 2037
Q 2144 2078 1997 2078
L 1328 2078
L 1328 275
L 2300 275
Q 2453 275 2548 301
Q 2644 328 2712 392
Q 2781 456 2834 559
Q 2888 663 2923 773
Q 2959 884 3022 1097
L 3331 1097
L 3272 0
L 378 0
L 378 153
Q 572 203 637 264
Q 703 325 723 437
Q 744 550 744 781
L 744 3484
Q 744 3700 728 3798
Q 713 3897 677 3951
Q 641 4006 581 4039
Q 522 4072 378 4113
L 378 4266
L 3300 4266
z
" transform="scale(0.015625)"/>
       <path id="Cambria-41" d="M 2488 0
L 2488 153
Q 2644 184 2720 221
Q 2797 259 2834 326
Q 2872 394 2872 506
Q 2872 613 2847 736
Q 2822 859 2775 1013
L 2659 1416
L 1203 1416
L 1097 1109
Q 1016 878 991 759
Q 966 641 966 544
Q 966 356 1061 268
Q 1156 181 1353 153
L 1353 0
L 19 0
L 19 153
Q 194 181 323 356
Q 453 531 575 856
L 1878 4316
L 2372 4316
L 3434 831
Q 3509 588 3567 459
Q 3625 331 3706 259
Q 3788 188 3928 153
L 3928 0
L 2488 0
z
M 1288 1688
L 2594 1688
L 2000 3703
L 1288 1688
z
" transform="scale(0.015625)"/>
      </defs>
      <use xlink:href="#DejaVuSerif-Italic-43" transform="translate(0 0.78125)"/>
      <use xlink:href="#DejaVuSerif-Italic-4f" transform="translate(76.513672 0.78125)"/>
      <use xlink:href="#DejaVuSerif-32" transform="translate(158.496094 -14.790625) scale(0.7)"/>
      <use xlink:href="#Cambria-20" transform="translate(205.627539 0.78125)"/>
      <use xlink:href="#Cambria-6c" transform="translate(225.274023 0.78125)"/>
      <use xlink:href="#Cambria-6f" transform="translate(252.422461 0.78125)"/>
      <use xlink:href="#Cambria-61" transform="translate(305.498633 0.78125)"/>
      <use xlink:href="#Cambria-64" transform="translate(354.326758 0.78125)"/>
      <use xlink:href="#Cambria-69" transform="translate(409.795508 0.78125)"/>
      <use xlink:href="#Cambria-6e" transform="translate(437.578711 0.78125)"/>
      <use xlink:href="#Cambria-67" transform="translate(493.389258 0.78125)"/>
      <use xlink:href="#Cambria-2c" transform="translate(542.80332 0.78125)"/>
      <use xlink:href="#Cambria-20" transform="translate(563.311133 0.78125)"/>
      <use xlink:href="#Cambria-6d" transform="translate(582.957617 0.78125)"/>
      <use xlink:href="#Cambria-6f" transform="translate(666.160742 0.78125)"/>
      <use xlink:href="#Cambria-6c" transform="translate(719.236914 0.78125)"/>
      <use xlink:href="#Cambria-20" transform="translate(746.385352 0.78125)"/>
      <use xlink:href="#DejaVuSerif-Italic-43" transform="translate(768.406836 0.78125)"/>
      <use xlink:href="#DejaVuSerif-Italic-4f" transform="translate(844.920508 0.78125)"/>
      <use xlink:href="#DejaVuSerif-32" transform="translate(926.90293 -14.790625) scale(0.7)"/>
      <use xlink:href="#Cambria-2f" transform="translate(974.034375 0.78125)"/>
      <use xlink:href="#Cambria-6d" transform="translate(1023.057812 0.78125)"/>
      <use xlink:href="#Cambria-6f" transform="translate(1106.260937 0.78125)"/>
      <use xlink:href="#Cambria-6c" transform="translate(1159.337109 0.78125)"/>
      <use xlink:href="#Cambria-20" transform="translate(1186.485547 0.78125)"/>
      <use xlink:href="#Cambria-4d" transform="translate(1208.507031 0.78125)"/>
      <use xlink:href="#Cambria-45" transform="translate(1290.05 0.78125)"/>
      <use xlink:href="#Cambria-41" transform="translate(1347.569531 0.78125)"/>
     </g>
    </g>
   </g>
   <g id="matplotlib.axis_2">
    <g id="ytick_1">
     <g id="line2d_13">
      <path d="M 48.46 325.665844
L 442.588 325.665844
" clip-path="url(#pffe29043f1)" style="fill: none; stroke: #b0b0b0; stroke-opacity: 0.22; stroke-width: 0.8; stroke-linecap: square"/>
     </g>
     <g id="line2d_14">
      <defs>
       <path id="m99265d4fa0" d="M 0 0
L -4 0
" style="stroke: #000000; stroke-width: 0.8"/>
      </defs>
      <g>
       <use xlink:href="#m99265d4fa0" x="48.46" y="325.665844" style="stroke: #000000; stroke-width: 0.8"/>
      </g>
     </g>
     <g id="text_8">
      <!-- $\mathdefault{10^{-3}}$ -->
      <g transform="translate(21.76 329.159594) scale(0.1 -0.1)">
       <defs>
        <path id="Cambria-2212" d="M 397 1613
L 397 2047
L 3147 2047
L 3147 1613
L 397 1613
z
" transform="scale(0.015625)"/>
       </defs>
       <use xlink:href="#Cambria-31" transform="translate(0 0.1125)"/>
       <use xlink:href="#Cambria-30" transform="translate(55.371094 0.1125)"/>
       <use xlink:href="#Cambria-2212" transform="translate(111.559219 32.79375) scale(0.7)"/>
       <use xlink:href="#Cambria-33" transform="translate(150.318984 32.79375) scale(0.7)"/>
      </g>
     </g>
    </g>
    <g id="ytick_2">
     <g id="line2d_15">
      <path d="M 48.46 278.153612
L 442.588 278.153612
" clip-path="url(#pffe29043f1)" style="fill: none; stroke: #b0b0b0; stroke-opacity: 0.22; stroke-width: 0.8; stroke-linecap: square"/>
     </g>
     <g id="line2d_16">
      <g>
       <use xlink:href="#m99265d4fa0" x="48.46" y="278.153612" style="stroke: #000000; stroke-width: 0.8"/>
      </g>
     </g>
     <g id="text_9">
      <!-- $\mathdefault{10^{-2}}$ -->
      <g transform="translate(21.76 281.647362) scale(0.1 -0.1)">
       <use xlink:href="#Cambria-31" transform="translate(0 0.1125)"/>
       <use xlink:href="#Cambria-30" transform="translate(55.371094 0.1125)"/>
       <use xlink:href="#Cambria-2212" transform="translate(111.559219 32.79375) scale(0.7)"/>
       <use xlink:href="#Cambria-32" transform="translate(150.318984 32.79375) scale(0.7)"/>
      </g>
     </g>
    </g>
    <g id="ytick_3">
     <g id="line2d_17">
      <path d="M 48.46 230.641379
L 442.588 230.641379
" clip-path="url(#pffe29043f1)" style="fill: none; stroke: #b0b0b0; stroke-opacity: 0.22; stroke-width: 0.8; stroke-linecap: square"/>
     </g>
     <g id="line2d_18">
      <g>
       <use xlink:href="#m99265d4fa0" x="48.46" y="230.641379" style="stroke: #000000; stroke-width: 0.8"/>
      </g>
     </g>
     <g id="text_10">
      <!-- $\mathdefault{10^{-1}}$ -->
      <g transform="translate(21.76 234.135129) scale(0.1 -0.1)">
       <use xlink:href="#Cambria-31" transform="translate(0 0.1125)"/>
       <use xlink:href="#Cambria-30" transform="translate(55.371094 0.1125)"/>
       <use xlink:href="#Cambria-2212" transform="translate(111.559219 32.79375) scale(0.7)"/>
       <use xlink:href="#Cambria-31" transform="translate(150.318984 32.79375) scale(0.7)"/>
      </g>
     </g>
    </g>
    <g id="ytick_4">
     <g id="line2d_19">
      <path d="M 48.46 183.129147
L 442.588 183.129147
" clip-path="url(#pffe29043f1)" style="fill: none; stroke: #b0b0b0; stroke-opacity: 0.22; stroke-width: 0.8; stroke-linecap: square"/>
     </g>
     <g id="line2d_20">
      <g>
       <use xlink:href="#m99265d4fa0" x="48.46" y="183.129147" style="stroke: #000000; stroke-width: 0.8"/>
      </g>
     </g>
     <g id="text_11">
      <!-- $\mathdefault{10^{0}}$ -->
      <g transform="translate(25.66 186.622897) scale(0.1 -0.1)">
       <use xlink:href="#Cambria-31" transform="translate(0 0.1125)"/>
       <use xlink:href="#Cambria-30" transform="translate(55.371094 0.1125)"/>
       <use xlink:href="#Cambria-30" transform="translate(111.559219 32.79375) scale(0.7)"/>
      </g>
     </g>
    </g>
    <g id="ytick_5">
     <g id="line2d_21">
      <path d="M 48.46 135.616915
L 442.588 135.616915
" clip-path="url(#pffe29043f1)" style="fill: none; stroke: #b0b0b0; stroke-opacity: 0.22; stroke-width: 0.8; stroke-linecap: square"/>
     </g>
     <g id="line2d_22">
      <g>
       <use xlink:href="#m99265d4fa0" x="48.46" y="135.616915" style="stroke: #000000; stroke-width: 0.8"/>
      </g>
     </g>
     <g id="text_12">
      <!-- $\mathdefault{10^{1}}$ -->
      <g transform="translate(25.66 139.110665) scale(0.1 -0.1)">
       <use xlink:href="#Cambria-31" transform="translate(0 0.1125)"/>
       <use xlink:href="#Cambria-30" transform="translate(55.371094 0.1125)"/>
       <use xlink:href="#Cambria-31" transform="translate(111.559219 32.79375) scale(0.7)"/>
      </g>
     </g>
    </g>
    <g id="ytick_6">
     <g id="line2d_23">
      <path d="M 48.46 88.104683
L 442.588 88.104683
" clip-path="url(#pffe29043f1)" style="fill: none; stroke: #b0b0b0; stroke-opacity: 0.22; stroke-width: 0.8; stroke-linecap: square"/>
     </g>
     <g id="line2d_24">
      <g>
       <use xlink:href="#m99265d4fa0" x="48.46" y="88.104683" style="stroke: #000000; stroke-width: 0.8"/>
      </g>
     </g>
     <g id="text_13">
      <!-- $\mathdefault{10^{2}}$ -->
      <g transform="translate(25.66 91.598433) scale(0.1 -0.1)">
       <use xlink:href="#Cambria-31" transform="translate(0 0.1125)"/>
       <use xlink:href="#Cambria-30" transform="translate(55.371094 0.1125)"/>
       <use xlink:href="#Cambria-32" transform="translate(111.559219 32.79375) scale(0.7)"/>
      </g>
     </g>
    </g>
    <g id="ytick_7">
     <g id="line2d_25">
      <path d="M 48.46 40.592451
L 442.588 40.592451
" clip-path="url(#pffe29043f1)" style="fill: none; stroke: #b0b0b0; stroke-opacity: 0.22; stroke-width: 0.8; stroke-linecap: square"/>
     </g>
     <g id="line2d_26">
      <g>
       <use xlink:href="#m99265d4fa0" x="48.46" y="40.592451" style="stroke: #000000; stroke-width: 0.8"/>
      </g>
     </g>
     <g id="text_14">
      <!-- $\mathdefault{10^{3}}$ -->
      <g transform="translate(25.66 44.086201) scale(0.1 -0.1)">
       <use xlink:href="#Cambria-31" transform="translate(0 0.1125)"/>
       <use xlink:href="#Cambria-30" transform="translate(55.371094 0.1125)"/>
       <use xlink:href="#Cambria-33" transform="translate(111.559219 32.79375) scale(0.7)"/>
      </g>
     </g>
    </g>
    <g id="ytick_8">
     <g id="line2d_27">
      <defs>
       <path id="m1c25c3c394" d="M 0 0
L -2 0
" style="stroke: #000000; stroke-width: 0.6"/>
      </defs>
      <g>
       <use xlink:href="#m1c25c3c394" x="48.46" y="311.363237" style="stroke: #000000; stroke-width: 0.6"/>
      </g>
     </g>
    </g>
    <g id="ytick_9">
     <g id="line2d_28">
      <g>
       <use xlink:href="#m1c25c3c394" x="48.46" y="302.996748" style="stroke: #000000; stroke-width: 0.6"/>
      </g>
     </g>
    </g>
    <g id="ytick_10">
     <g id="line2d_29">
      <g>
       <use xlink:href="#m1c25c3c394" x="48.46" y="297.06063" style="stroke: #000000; stroke-width: 0.6"/>
      </g>
     </g>
    </g>
    <g id="ytick_11">
     <g id="line2d_30">
      <g>
       <use xlink:href="#m1c25c3c394" x="48.46" y="292.456219" style="stroke: #000000; stroke-width: 0.6"/>
      </g>
     </g>
    </g>
    <g id="ytick_12">
     <g id="line2d_31">
      <g>
       <use xlink:href="#m1c25c3c394" x="48.46" y="288.694141" style="stroke: #000000; stroke-width: 0.6"/>
      </g>
     </g>
    </g>
    <g id="ytick_13">
     <g id="line2d_32">
      <g>
       <use xlink:href="#m1c25c3c394" x="48.46" y="285.513349" style="stroke: #000000; stroke-width: 0.6"/>
      </g>
     </g>
    </g>
    <g id="ytick_14">
     <g id="line2d_33">
      <g>
       <use xlink:href="#m1c25c3c394" x="48.46" y="282.758023" style="stroke: #000000; stroke-width: 0.6"/>
      </g>
     </g>
    </g>
    <g id="ytick_15">
     <g id="line2d_34">
      <g>
       <use xlink:href="#m1c25c3c394" x="48.46" y="280.327652" style="stroke: #000000; stroke-width: 0.6"/>
      </g>
     </g>
    </g>
    <g id="ytick_16">
     <g id="line2d_35">
      <g>
       <use xlink:href="#m1c25c3c394" x="48.46" y="263.851005" style="stroke: #000000; stroke-width: 0.6"/>
      </g>
     </g>
    </g>
    <g id="ytick_17">
     <g id="line2d_36">
      <g>
       <use xlink:href="#m1c25c3c394" x="48.46" y="255.484516" style="stroke: #000000; stroke-width: 0.6"/>
      </g>
     </g>
    </g>
    <g id="ytick_18">
     <g id="line2d_37">
      <g>
       <use xlink:href="#m1c25c3c394" x="48.46" y="249.548398" style="stroke: #000000; stroke-width: 0.6"/>
      </g>
     </g>
    </g>
    <g id="ytick_19">
     <g id="line2d_38">
      <g>
       <use xlink:href="#m1c25c3c394" x="48.46" y="244.943986" style="stroke: #000000; stroke-width: 0.6"/>
      </g>
     </g>
    </g>
    <g id="ytick_20">
     <g id="line2d_39">
      <g>
       <use xlink:href="#m1c25c3c394" x="48.46" y="241.181909" style="stroke: #000000; stroke-width: 0.6"/>
      </g>
     </g>
    </g>
    <g id="ytick_21">
     <g id="line2d_40">
      <g>
       <use xlink:href="#m1c25c3c394" x="48.46" y="238.001117" style="stroke: #000000; stroke-width: 0.6"/>
      </g>
     </g>
    </g>
    <g id="ytick_22">
     <g id="line2d_41">
      <g>
       <use xlink:href="#m1c25c3c394" x="48.46" y="235.24579" style="stroke: #000000; stroke-width: 0.6"/>
      </g>
     </g>
    </g>
    <g id="ytick_23">
     <g id="line2d_42">
      <g>
       <use xlink:href="#m1c25c3c394" x="48.46" y="232.81542" style="stroke: #000000; stroke-width: 0.6"/>
      </g>
     </g>
    </g>
    <g id="ytick_24">
     <g id="line2d_43">
      <g>
       <use xlink:href="#m1c25c3c394" x="48.46" y="216.338772" style="stroke: #000000; stroke-width: 0.6"/>
      </g>
     </g>
    </g>
    <g id="ytick_25">
     <g id="line2d_44">
      <g>
       <use xlink:href="#m1c25c3c394" x="48.46" y="207.972284" style="stroke: #000000; stroke-width: 0.6"/>
      </g>
     </g>
    </g>
    <g id="ytick_26">
     <g id="line2d_45">
      <g>
       <use xlink:href="#m1c25c3c394" x="48.46" y="202.036165" style="stroke: #000000; stroke-width: 0.6"/>
      </g>
     </g>
    </g>
    <g id="ytick_27">
     <g id="line2d_46">
      <g>
       <use xlink:href="#m1c25c3c394" x="48.46" y="197.431754" style="stroke: #000000; stroke-width: 0.6"/>
      </g>
     </g>
    </g>
    <g id="ytick_28">
     <g id="line2d_47">
      <g>
       <use xlink:href="#m1c25c3c394" x="48.46" y="193.669677" style="stroke: #000000; stroke-width: 0.6"/>
      </g>
     </g>
    </g>
    <g id="ytick_29">
     <g id="line2d_48">
      <g>
       <use xlink:href="#m1c25c3c394" x="48.46" y="190.488885" style="stroke: #000000; stroke-width: 0.6"/>
      </g>
     </g>
    </g>
    <g id="ytick_30">
     <g id="line2d_49">
      <g>
       <use xlink:href="#m1c25c3c394" x="48.46" y="187.733558" style="stroke: #000000; stroke-width: 0.6"/>
      </g>
     </g>
    </g>
    <g id="ytick_31">
     <g id="line2d_50">
      <g>
       <use xlink:href="#m1c25c3c394" x="48.46" y="185.303188" style="stroke: #000000; stroke-width: 0.6"/>
      </g>
     </g>
    </g>
    <g id="ytick_32">
     <g id="line2d_51">
      <g>
       <use xlink:href="#m1c25c3c394" x="48.46" y="168.82654" style="stroke: #000000; stroke-width: 0.6"/>
      </g>
     </g>
    </g>
    <g id="ytick_33">
     <g id="line2d_52">
      <g>
       <use xlink:href="#m1c25c3c394" x="48.46" y="160.460051" style="stroke: #000000; stroke-width: 0.6"/>
      </g>
     </g>
    </g>
    <g id="ytick_34">
     <g id="line2d_53">
      <g>
       <use xlink:href="#m1c25c3c394" x="48.46" y="154.523933" style="stroke: #000000; stroke-width: 0.6"/>
      </g>
     </g>
    </g>
    <g id="ytick_35">
     <g id="line2d_54">
      <g>
       <use xlink:href="#m1c25c3c394" x="48.46" y="149.919522" style="stroke: #000000; stroke-width: 0.6"/>
      </g>
     </g>
    </g>
    <g id="ytick_36">
     <g id="line2d_55">
      <g>
       <use xlink:href="#m1c25c3c394" x="48.46" y="146.157444" style="stroke: #000000; stroke-width: 0.6"/>
      </g>
     </g>
    </g>
    <g id="ytick_37">
     <g id="line2d_56">
      <g>
       <use xlink:href="#m1c25c3c394" x="48.46" y="142.976653" style="stroke: #000000; stroke-width: 0.6"/>
      </g>
     </g>
    </g>
    <g id="ytick_38">
     <g id="line2d_57">
      <g>
       <use xlink:href="#m1c25c3c394" x="48.46" y="140.221326" style="stroke: #000000; stroke-width: 0.6"/>
      </g>
     </g>
    </g>
    <g id="ytick_39">
     <g id="line2d_58">
      <g>
       <use xlink:href="#m1c25c3c394" x="48.46" y="137.790956" style="stroke: #000000; stroke-width: 0.6"/>
      </g>
     </g>
    </g>
    <g id="ytick_40">
     <g id="line2d_59">
      <g>
       <use xlink:href="#m1c25c3c394" x="48.46" y="121.314308" style="stroke: #000000; stroke-width: 0.6"/>
      </g>
     </g>
    </g>
    <g id="ytick_41">
     <g id="line2d_60">
      <g>
       <use xlink:href="#m1c25c3c394" x="48.46" y="112.947819" style="stroke: #000000; stroke-width: 0.6"/>
      </g>
     </g>
    </g>
    <g id="ytick_42">
     <g id="line2d_61">
      <g>
       <use xlink:href="#m1c25c3c394" x="48.46" y="107.011701" style="stroke: #000000; stroke-width: 0.6"/>
      </g>
     </g>
    </g>
    <g id="ytick_43">
     <g id="line2d_62">
      <g>
       <use xlink:href="#m1c25c3c394" x="48.46" y="102.40729" style="stroke: #000000; stroke-width: 0.6"/>
      </g>
     </g>
    </g>
    <g id="ytick_44">
     <g id="line2d_63">
      <g>
       <use xlink:href="#m1c25c3c394" x="48.46" y="98.645212" style="stroke: #000000; stroke-width: 0.6"/>
      </g>
     </g>
    </g>
    <g id="ytick_45">
     <g id="line2d_64">
      <g>
       <use xlink:href="#m1c25c3c394" x="48.46" y="95.464421" style="stroke: #000000; stroke-width: 0.6"/>
      </g>
     </g>
    </g>
    <g id="ytick_46">
     <g id="line2d_65">
      <g>
       <use xlink:href="#m1c25c3c394" x="48.46" y="92.709094" style="stroke: #000000; stroke-width: 0.6"/>
      </g>
     </g>
    </g>
    <g id="ytick_47">
     <g id="line2d_66">
      <g>
       <use xlink:href="#m1c25c3c394" x="48.46" y="90.278723" style="stroke: #000000; stroke-width: 0.6"/>
      </g>
     </g>
    </g>
    <g id="ytick_48">
     <g id="line2d_67">
      <g>
       <use xlink:href="#m1c25c3c394" x="48.46" y="73.802076" style="stroke: #000000; stroke-width: 0.6"/>
      </g>
     </g>
    </g>
    <g id="ytick_49">
     <g id="line2d_68">
      <g>
       <use xlink:href="#m1c25c3c394" x="48.46" y="65.435587" style="stroke: #000000; stroke-width: 0.6"/>
      </g>
     </g>
    </g>
    <g id="ytick_50">
     <g id="line2d_69">
      <g>
       <use xlink:href="#m1c25c3c394" x="48.46" y="59.499469" style="stroke: #000000; stroke-width: 0.6"/>
      </g>
     </g>
    </g>
    <g id="ytick_51">
     <g id="line2d_70">
      <g>
       <use xlink:href="#m1c25c3c394" x="48.46" y="54.895058" style="stroke: #000000; stroke-width: 0.6"/>
      </g>
     </g>
    </g>
    <g id="ytick_52">
     <g id="line2d_71">
      <g>
       <use xlink:href="#m1c25c3c394" x="48.46" y="51.13298" style="stroke: #000000; stroke-width: 0.6"/>
      </g>
     </g>
    </g>
    <g id="ytick_53">
     <g id="line2d_72">
      <g>
       <use xlink:href="#m1c25c3c394" x="48.46" y="47.952189" style="stroke: #000000; stroke-width: 0.6"/>
      </g>
     </g>
    </g>
    <g id="ytick_54">
     <g id="line2d_73">
      <g>
       <use xlink:href="#m1c25c3c394" x="48.46" y="45.196862" style="stroke: #000000; stroke-width: 0.6"/>
      </g>
     </g>
    </g>
    <g id="ytick_55">
     <g id="line2d_74">
      <g>
       <use xlink:href="#m1c25c3c394" x="48.46" y="42.766491" style="stroke: #000000; stroke-width: 0.6"/>
      </g>
     </g>
    </g>
    <g id="ytick_56">
     <g id="line2d_75">
      <g>
       <use xlink:href="#m1c25c3c394" x="48.46" y="26.289844" style="stroke: #000000; stroke-width: 0.6"/>
      </g>
     </g>
    </g>
    <g id="text_15">
     <!-- $CO_2$ partial pressure, kPa -->
     <g transform="translate(15.45 236.697844) rotate(-90) scale(0.11 -0.11)">
      <defs>
       <path id="Cambria-70" d="M 1150 94
L 1150 -566
Q 1150 -769 1164 -869
Q 1178 -969 1214 -1026
Q 1250 -1084 1317 -1121
Q 1384 -1159 1534 -1191
L 1534 -1344
L 259 -1344
L 259 -1191
Q 372 -1159 442 -1126
Q 513 -1094 550 -1030
Q 588 -966 600 -856
Q 613 -747 613 -566
L 613 2116
Q 613 2341 606 2436
Q 600 2531 581 2593
Q 563 2656 527 2697
Q 491 2738 430 2766
Q 369 2794 228 2822
L 228 2988
L 963 3016
L 1153 3016
L 1113 2506
L 1159 2494
Q 1353 2691 1465 2780
Q 1578 2869 1698 2928
Q 1819 2988 1930 3013
Q 2041 3038 2166 3038
Q 2681 3038 2957 2652
Q 3234 2266 3234 1522
Q 3234 1006 3078 654
Q 2922 303 2623 126
Q 2325 -50 1913 -50
Q 1681 -50 1493 -11
Q 1306 28 1150 94
z
M 1150 1125
Q 1150 825 1187 662
Q 1225 500 1320 398
Q 1416 297 1545 247
Q 1675 197 1888 197
Q 2266 197 2456 511
Q 2647 825 2647 1438
Q 2647 2663 1931 2663
Q 1756 2663 1629 2608
Q 1503 2553 1378 2431
Q 1253 2309 1201 2195
Q 1150 2081 1150 1950
L 1150 1125
z
" transform="scale(0.015625)"/>
       <path id="Cambria-72" d="M 1147 2469
L 1191 2459
Q 1363 2669 1509 2789
Q 1656 2909 1826 2975
Q 1997 3041 2213 3041
Q 2394 3041 2541 3022
L 2541 2303
L 2188 2303
Q 2113 2472 2028 2548
Q 1944 2625 1797 2625
Q 1684 2625 1573 2559
Q 1463 2494 1359 2369
Q 1256 2244 1217 2134
Q 1178 2025 1178 1875
L 1178 781
Q 1178 497 1212 389
Q 1247 281 1326 231
Q 1406 181 1566 153
L 1566 0
L 306 0
L 306 153
Q 425 191 476 219
Q 528 247 565 297
Q 603 347 622 450
Q 641 553 641 772
L 641 2134
Q 641 2334 634 2456
Q 628 2578 590 2651
Q 553 2725 476 2761
Q 400 2797 259 2822
L 259 2984
L 991 3016
L 1181 3016
L 1147 2469
z
" transform="scale(0.015625)"/>
       <path id="Cambria-74" d="M 116 2831
Q 272 2856 369 2918
Q 466 2981 520 3079
Q 575 3178 606 3326
Q 638 3475 672 3759
L 1116 3759
L 1116 2988
L 2125 2988
L 2125 2672
L 1116 2672
L 1116 1281
Q 1116 978 1141 798
Q 1166 619 1234 517
Q 1303 416 1390 372
Q 1478 328 1616 328
Q 1741 328 1850 379
Q 1959 431 2066 528
L 2206 359
Q 1984 144 1786 47
Q 1588 -50 1375 -50
Q 972 -50 775 189
Q 578 428 578 938
L 578 2672
L 116 2672
L 116 2831
z
" transform="scale(0.015625)"/>
       <path id="Cambria-65" d="M 2800 531
Q 2600 322 2433 203
Q 2266 84 2066 17
Q 1866 -50 1625 -50
Q 981 -50 653 336
Q 325 722 325 1475
Q 325 1941 492 2297
Q 659 2653 968 2847
Q 1278 3041 1681 3041
Q 1997 3041 2219 2941
Q 2441 2841 2573 2667
Q 2706 2494 2779 2230
Q 2853 1966 2863 1541
L 894 1541
L 894 1484
Q 894 1116 976 864
Q 1059 613 1248 470
Q 1438 328 1741 328
Q 1997 328 2201 423
Q 2406 519 2609 734
L 2800 531
z
M 2275 1800
Q 2256 2138 2190 2352
Q 2125 2566 1994 2680
Q 1863 2794 1650 2794
Q 1328 2794 1136 2536
Q 944 2278 909 1800
L 2275 1800
z
" transform="scale(0.015625)"/>
       <path id="Cambria-73" d="M 2397 2303
L 2097 2303
Q 2028 2491 1934 2598
Q 1841 2706 1722 2750
Q 1603 2794 1431 2794
Q 1181 2794 1032 2676
Q 884 2559 884 2356
Q 884 2213 943 2119
Q 1003 2025 1128 1944
Q 1253 1863 1569 1728
Q 1888 1591 2061 1475
Q 2234 1359 2332 1206
Q 2431 1053 2431 841
Q 2431 594 2347 425
Q 2263 256 2109 150
Q 1956 44 1745 -3
Q 1534 -50 1284 -50
Q 1022 -50 775 -11
Q 528 28 294 91
L 294 744
L 600 744
Q 684 456 850 326
Q 1016 197 1306 197
Q 1419 197 1526 220
Q 1634 244 1718 298
Q 1803 353 1853 447
Q 1903 541 1903 681
Q 1903 841 1840 941
Q 1778 1041 1647 1123
Q 1516 1206 1184 1347
Q 900 1466 728 1578
Q 556 1691 457 1844
Q 359 1997 359 2206
Q 359 2463 498 2652
Q 638 2841 900 2941
Q 1163 3041 1516 3041
Q 1722 3041 1914 3020
Q 2106 3000 2397 2941
L 2397 2303
z
" transform="scale(0.015625)"/>
       <path id="Cambria-75" d="M 228 2988
L 1119 2988
L 1119 1397
Q 1119 1031 1147 840
Q 1175 650 1231 553
Q 1288 456 1391 390
Q 1494 325 1675 325
Q 1794 325 1903 372
Q 2013 419 2147 536
Q 2281 653 2339 768
Q 2397 884 2397 1038
L 2397 2209
Q 2397 2388 2387 2478
Q 2378 2569 2356 2623
Q 2334 2678 2304 2712
Q 2275 2747 2220 2775
Q 2166 2803 2044 2834
L 2044 2988
L 2934 2988
L 2934 853
Q 2934 613 2943 506
Q 2953 400 2984 337
Q 3016 275 3081 236
Q 3147 197 3316 163
L 3316 0
L 2600 -31
L 2409 -31
L 2428 481
L 2381 494
Q 2122 213 1886 81
Q 1650 -50 1413 -50
Q 1128 -50 943 62
Q 759 175 668 398
Q 578 622 578 1028
L 578 2209
Q 578 2472 558 2570
Q 538 2669 480 2726
Q 422 2784 228 2834
L 228 2988
z
" transform="scale(0.015625)"/>
       <path id="Cambria-6b" d="M 1138 1741
L 1238 1741
Q 1341 1741 1406 1763
Q 1484 1791 1578 1858
Q 1672 1925 1844 2084
Q 1988 2219 2061 2312
Q 2134 2406 2163 2484
Q 2188 2550 2188 2616
Q 2188 2709 2130 2762
Q 2072 2816 1941 2834
L 1941 2988
L 3288 2988
L 3288 2834
Q 3144 2806 2981 2706
Q 2819 2606 2647 2444
L 1928 1763
L 2828 588
Q 2984 381 3111 282
Q 3238 184 3388 153
L 3388 0
L 2188 0
L 2188 153
Q 2269 163 2308 189
Q 2347 216 2347 278
Q 2347 325 2330 370
Q 2313 416 2259 494
Q 2206 572 2066 766
L 1694 1266
Q 1588 1406 1542 1450
Q 1497 1494 1447 1512
Q 1397 1531 1313 1531
L 1138 1531
L 1138 781
Q 1138 513 1163 408
Q 1188 303 1258 248
Q 1328 194 1488 153
L 1488 0
L 247 0
L 247 153
Q 403 194 464 237
Q 525 281 551 342
Q 578 403 589 508
Q 600 613 600 781
L 600 3397
Q 600 3697 595 3815
Q 591 3934 570 4017
Q 550 4100 514 4147
Q 478 4194 417 4222
Q 356 4250 197 4278
L 197 4441
L 950 4472
L 1138 4472
L 1138 1741
z
" transform="scale(0.015625)"/>
       <path id="Cambria-50" d="M 1328 791
Q 1328 606 1348 497
Q 1369 388 1411 323
Q 1453 259 1525 223
Q 1597 188 1750 153
L 1750 0
L 378 0
L 378 153
Q 572 203 637 264
Q 703 325 723 437
Q 744 550 744 781
L 744 3484
Q 744 3700 728 3798
Q 713 3897 677 3951
Q 641 4006 581 4039
Q 522 4072 378 4113
L 378 4266
L 1928 4266
Q 2659 4266 3017 3986
Q 3375 3706 3375 3134
Q 3375 2809 3262 2550
Q 3150 2291 2944 2125
Q 2738 1959 2456 1887
Q 2175 1816 1866 1816
Q 1519 1816 1328 1828
L 1328 791
z
M 1328 2088
L 1691 2088
Q 2044 2088 2273 2180
Q 2503 2272 2625 2486
Q 2747 2700 2747 3053
Q 2747 3322 2675 3501
Q 2603 3681 2476 3790
Q 2350 3900 2175 3945
Q 2000 3991 1794 3991
Q 1484 3991 1328 3978
L 1328 2088
z
" transform="scale(0.015625)"/>
      </defs>
      <use xlink:href="#DejaVuSerif-Italic-43" transform="translate(0 0.78125)"/>
      <use xlink:href="#DejaVuSerif-Italic-4f" transform="translate(76.513672 0.78125)"/>
      <use xlink:href="#DejaVuSerif-32" transform="translate(158.496094 -14.790625) scale(0.7)"/>
      <use xlink:href="#Cambria-20" transform="translate(205.627539 0.78125)"/>
      <use xlink:href="#Cambria-70" transform="translate(225.274023 0.78125)"/>
      <use xlink:href="#Cambria-61" transform="translate(280.889258 0.78125)"/>
      <use xlink:href="#Cambria-72" transform="translate(329.717383 0.78125)"/>
      <use xlink:href="#Cambria-74" transform="translate(371.074805 0.78125)"/>
      <use xlink:href="#Cambria-69" transform="translate(404.912695 0.78125)"/>
      <use xlink:href="#Cambria-61" transform="translate(432.695898 0.78125)"/>
      <use xlink:href="#Cambria-6c" transform="translate(481.524023 0.78125)"/>
      <use xlink:href="#Cambria-20" transform="translate(508.672461 0.78125)"/>
      <use xlink:href="#Cambria-70" transform="translate(528.318945 0.78125)"/>
      <use xlink:href="#Cambria-72" transform="translate(583.93418 0.78125)"/>
      <use xlink:href="#Cambria-65" transform="translate(625.291602 0.78125)"/>
      <use xlink:href="#Cambria-73" transform="translate(674.070898 0.78125)"/>
      <use xlink:href="#Cambria-73" transform="translate(717.039648 0.78125)"/>
      <use xlink:href="#Cambria-75" transform="translate(760.008398 0.78125)"/>
      <use xlink:href="#Cambria-72" transform="translate(815.233008 0.78125)"/>
      <use xlink:href="#Cambria-65" transform="translate(856.59043 0.78125)"/>
      <use xlink:href="#Cambria-2c" transform="translate(905.369727 0.78125)"/>
      <use xlink:href="#Cambria-20" transform="translate(925.877539 0.78125)"/>
      <use xlink:href="#Cambria-6b" transform="translate(945.524023 0.78125)"/>
      <use xlink:href="#Cambria-50" transform="translate(997.96543 0.78125)"/>
      <use xlink:href="#Cambria-61" transform="translate(1054.752539 0.78125)"/>
     </g>
    </g>
   </g>
   <g id="line2d_76">
    <defs>
     <path id="m33e935e66a" d="M -3 3
L 3 -3
M -3 -3
L 3 3
" style="stroke: #1f5aa6; stroke-opacity: 0.9"/>
    </defs>
    <g clip-path="url(#pffe29043f1)">
     <use xlink:href="#m33e935e66a" x="135.882107" y="280.419565" style="fill: #1f5aa6; fill-opacity: 0.9; stroke: #1f5aa6; stroke-opacity: 0.9"/>
     <use xlink:href="#m33e935e66a" x="253.901952" y="238.69049" style="fill: #1f5aa6; fill-opacity: 0.9; stroke: #1f5aa6; stroke-opacity: 0.9"/>
     <use xlink:href="#m33e935e66a" x="332.946107" y="193.532571" style="fill: #1f5aa6; fill-opacity: 0.9; stroke: #1f5aa6; stroke-opacity: 0.9"/>
     <use xlink:href="#m33e935e66a" x="361.722551" y="163.65231" style="fill: #1f5aa6; fill-opacity: 0.9; stroke: #1f5aa6; stroke-opacity: 0.9"/>
     <use xlink:href="#m33e935e66a" x="393.777323" y="139.990486" style="fill: #1f5aa6; fill-opacity: 0.9; stroke: #1f5aa6; stroke-opacity: 0.9"/>
    </g>
   </g>
   <g id="line2d_77">
    <path d="M 135.882107 299.023325
L 253.901952 241.894553
L 332.946107 177.145763
L 361.722551 137.318841
L 393.777323 102.229086
" clip-path="url(#pffe29043f1)" style="fill: none; stroke-dasharray: 1.7,2.805; stroke-dashoffset: 0; stroke: #1f5aa6; stroke-opacity: 0.65; stroke-width: 1.7"/>
   </g>
   <g id="line2d_78">
    <path d="M 135.882107 299.023326
L 253.901952 241.894553
L 332.946107 177.145763
L 361.722551 137.318841
L 393.777323 102.229107
" clip-path="url(#pffe29043f1)" style="fill: none; stroke: #1f5aa6; stroke-opacity: 0.9; stroke-width: 2.2; stroke-linecap: square"/>
   </g>
   <g id="line2d_79">
    <defs>
     <path id="m3d9b698c73" d="M -3 3
L 3 -3
M -3 -3
L 3 3
" style="stroke: #d47a00; stroke-opacity: 0.9"/>
    </defs>
    <g clip-path="url(#pffe29043f1)">
     <use xlink:href="#m3d9b698c73" x="74.686632" y="264.586146" style="fill: #d47a00; fill-opacity: 0.9; stroke: #d47a00; stroke-opacity: 0.9"/>
     <use xlink:href="#m3d9b698c73" x="138.06766" y="241.917051" style="fill: #d47a00; fill-opacity: 0.9; stroke: #d47a00; stroke-opacity: 0.9"/>
     <use xlink:href="#m3d9b698c73" x="271.386373" y="196.307429" style="fill: #d47a00; fill-opacity: 0.9; stroke: #d47a00; stroke-opacity: 0.9"/>
     <use xlink:href="#m3d9b698c73" x="307.083734" y="168.723626" style="fill: #d47a00; fill-opacity: 0.9; stroke: #d47a00; stroke-opacity: 0.9"/>
     <use xlink:href="#m3d9b698c73" x="355.165893" y="133.650256" style="fill: #d47a00; fill-opacity: 0.9; stroke: #d47a00; stroke-opacity: 0.9"/>
     <use xlink:href="#m3d9b698c73" x="396.691394" y="110.365165" style="fill: #d47a00; fill-opacity: 0.9; stroke: #d47a00; stroke-opacity: 0.9"/>
     <use xlink:href="#m3d9b698c73" x="409.80471" y="92.199579" style="fill: #d47a00; fill-opacity: 0.9; stroke: #d47a00; stroke-opacity: 0.9"/>
    </g>
   </g>
   <g id="line2d_80">
    <path d="M 74.686632 290.783935
L 138.06766 256.457707
L 271.386373 191.590333
L 307.083734 167.674273
L 355.165893 122.750153
L 396.691394 85.471174
L 409.80471 76.307305
" clip-path="url(#pffe29043f1)" style="fill: none; stroke-dasharray: 1.7,2.805; stroke-dashoffset: 0; stroke: #d47a00; stroke-opacity: 0.65; stroke-width: 1.7"/>
   </g>
   <g id="line2d_81">
    <path d="M 74.686632 290.783935
L 138.06766 256.457707
L 271.386373 191.590333
L 307.083734 167.674273
L 355.165893 122.750153
L 396.691394 85.471174
L 409.80471 76.307305
" clip-path="url(#pffe29043f1)" style="fill: none; stroke: #d47a00; stroke-opacity: 0.9; stroke-width: 2.2; stroke-linecap: square"/>
   </g>
   <g id="line2d_82">
    <defs>
     <path id="m540db7dff7" d="M -3 3
L 3 -3
M -3 -3
L 3 3
" style="stroke: #16805a; stroke-opacity: 0.9"/>
    </defs>
    <g clip-path="url(#pffe29043f1)">
     <use xlink:href="#m540db7dff7" x="73.958115" y="230.807118" style="fill: #16805a; fill-opacity: 0.9; stroke: #16805a; stroke-opacity: 0.9"/>
     <use xlink:href="#m540db7dff7" x="124.225826" y="209.54382" style="fill: #16805a; fill-opacity: 0.9; stroke: #16805a; stroke-opacity: 0.9"/>
     <use xlink:href="#m540db7dff7" x="241.517153" y="162.864645" style="fill: #16805a; fill-opacity: 0.9; stroke: #16805a; stroke-opacity: 0.9"/>
     <use xlink:href="#m540db7dff7" x="323.11112" y="125.918719" style="fill: #16805a; fill-opacity: 0.9; stroke: #16805a; stroke-opacity: 0.9"/>
     <use xlink:href="#m540db7dff7" x="364.636621" y="100.068832" style="fill: #16805a; fill-opacity: 0.9; stroke: #16805a; stroke-opacity: 0.9"/>
     <use xlink:href="#m540db7dff7" x="409.440451" y="70.474421" style="fill: #16805a; fill-opacity: 0.9; stroke: #16805a; stroke-opacity: 0.9"/>
    </g>
   </g>
   <g id="line2d_83">
    <path d="M 73.958115 251.996635
L 124.225826 224.33303
L 241.517153 170.47009
L 323.11112 123.464741
L 364.636621 93.024777
L 409.440451 63.717506
" clip-path="url(#pffe29043f1)" style="fill: none; stroke-dasharray: 1.7,2.805; stroke-dashoffset: 0; stroke: #16805a; stroke-opacity: 0.65; stroke-width: 1.7"/>
   </g>
   <g id="line2d_84">
    <path d="M 73.958115 251.996635
L 124.225826 224.33303
L 241.517153 170.47009
L 323.11112 123.464741
L 364.636621 93.024777
L 409.440451 63.717506
" clip-path="url(#pffe29043f1)" style="fill: none; stroke: #16805a; stroke-opacity: 0.9; stroke-width: 2.2; stroke-linecap: square"/>
   </g>
   <g id="line2d_85">
    <defs>
     <path id="m3351abe134" d="M -3 3
L 3 -3
M -3 -3
L 3 3
" style="stroke: #b6312c; stroke-opacity: 0.9"/>
    </defs>
    <g clip-path="url(#pffe29043f1)">
     <use xlink:href="#m3351abe134" x="124.954344" y="175.748785" style="fill: #b6312c; fill-opacity: 0.9; stroke: #b6312c; stroke-opacity: 0.9"/>
     <use xlink:href="#m3351abe134" x="265.558233" y="122.372709" style="fill: #b6312c; fill-opacity: 0.9; stroke: #b6312c; stroke-opacity: 0.9"/>
     <use xlink:href="#m3351abe134" x="295.427453" y="107.534116" style="fill: #b6312c; fill-opacity: 0.9; stroke: #b6312c; stroke-opacity: 0.9"/>
     <use xlink:href="#m3351abe134" x="335.495919" y="95.761322" style="fill: #b6312c; fill-opacity: 0.9; stroke: #b6312c; stroke-opacity: 0.9"/>
     <use xlink:href="#m3351abe134" x="338.409989" y="86.326466" style="fill: #b6312c; fill-opacity: 0.9; stroke: #b6312c; stroke-opacity: 0.9"/>
     <use xlink:href="#m3351abe134" x="403.976569" y="54.526944" style="fill: #b6312c; fill-opacity: 0.9; stroke: #b6312c; stroke-opacity: 0.9"/>
     <use xlink:href="#m3351abe134" x="417.089885" y="60.776225" style="fill: #b6312c; fill-opacity: 0.9; stroke: #b6312c; stroke-opacity: 0.9"/>
    </g>
   </g>
   <g id="line2d_86">
    <path d="M 124.954344 187.235247
L 265.558233 124.616464
L 295.427453 110.148967
L 335.495919 89.044194
L 338.409989 87.486943
L 403.976569 52.519925
L 417.089885 46.078285
" clip-path="url(#pffe29043f1)" style="fill: none; stroke-dasharray: 1.7,2.805; stroke-dashoffset: 0; stroke: #b6312c; stroke-opacity: 0.65; stroke-width: 1.7"/>
   </g>
   <g id="line2d_87">
    <path d="M 124.954344 187.235247
L 265.558233 124.616464
L 295.427453 110.148967
L 335.495919 89.044194
L 338.409989 87.486943
L 403.976569 52.519925
L 417.089885 46.078285
" clip-path="url(#pffe29043f1)" style="fill: none; stroke: #b6312c; stroke-opacity: 0.9; stroke-width: 2.2; stroke-linecap: square"/>
   </g>
   <g id="line2d_88">
    <defs>
     <path id="m13315e831b" d="M -3 3
L 3 -3
M -3 -3
L 3 3
" style="stroke: #6f4aa8; stroke-opacity: 0.9"/>
    </defs>
    <g clip-path="url(#pffe29043f1)">
     <use xlink:href="#m13315e831b" x="74.686632" y="166.03256" style="fill: #6f4aa8; fill-opacity: 0.9; stroke: #6f4aa8; stroke-opacity: 0.9"/>
     <use xlink:href="#m13315e831b" x="242.245671" y="103.772039" style="fill: #6f4aa8; fill-opacity: 0.9; stroke: #6f4aa8; stroke-opacity: 0.9"/>
     <use xlink:href="#m13315e831b" x="287.778018" y="84.001535" style="fill: #6f4aa8; fill-opacity: 0.9; stroke: #6f4aa8; stroke-opacity: 0.9"/>
     <use xlink:href="#m13315e831b" x="311.454839" y="71.64868" style="fill: #6f4aa8; fill-opacity: 0.9; stroke: #6f4aa8; stroke-opacity: 0.9"/>
     <use xlink:href="#m13315e831b" x="332.581848" y="58.394693" style="fill: #6f4aa8; fill-opacity: 0.9; stroke: #6f4aa8; stroke-opacity: 0.9"/>
     <use xlink:href="#m13315e831b" x="378.478455" y="44.637081" style="fill: #6f4aa8; fill-opacity: 0.9; stroke: #6f4aa8; stroke-opacity: 0.9"/>
    </g>
   </g>
   <g id="line2d_89">
    <path d="M 74.686632 179.668296
L 242.245671 104.250562
L 287.778018 85.856517
L 311.454839 75.851285
L 332.581848 67.206836
L 378.478455 47.886534
" clip-path="url(#pffe29043f1)" style="fill: none; stroke-dasharray: 1.7,2.805; stroke-dashoffset: 0; stroke: #6f4aa8; stroke-opacity: 0.65; stroke-width: 1.7"/>
   </g>
   <g id="line2d_90">
    <path d="M 74.686632 179.668296
L 242.245671 104.250562
L 287.778018 85.856517
L 311.454839 75.851285
L 332.581848 67.206836
L 378.478455 47.886534
" clip-path="url(#pffe29043f1)" style="fill: none; stroke: #6f4aa8; stroke-opacity: 0.9; stroke-width: 2.2; stroke-linecap: square"/>
   </g>
   <g id="patch_3">
    <path d="M 48.46 325.665844
L 48.46 26.289844
" style="fill: none; stroke: #000000; stroke-width: 0.8; stroke-linejoin: miter; stroke-linecap: square"/>
   </g>
   <g id="patch_4">
    <path d="M 48.46 325.665844
L 442.588 325.665844
" style="fill: none; stroke: #000000; stroke-width: 0.8; stroke-linejoin: miter; stroke-linecap: square"/>
   </g>
   <g id="text_16">
    <!-- Phase 1 Smith-Missen baseline pressure reproduction -->
    <g transform="translate(84.552516 16.289844) scale(0.13 -0.13)">
     <defs>
      <path id="Cambria-Bold-50" d="M 1603 781
Q 1603 575 1618 489
Q 1634 403 1670 351
Q 1706 300 1773 265
Q 1841 231 1981 206
L 1981 0
L 300 0
L 300 206
Q 416 238 483 273
Q 550 309 583 373
Q 616 438 625 536
Q 634 634 634 784
L 634 3478
Q 634 3625 626 3725
Q 619 3825 586 3887
Q 553 3950 486 3989
Q 419 4028 300 4059
L 300 4266
L 2116 4266
Q 2906 4266 3300 3983
Q 3694 3700 3694 3113
Q 3694 2697 3509 2390
Q 3325 2084 2975 1926
Q 2625 1769 2100 1769
Q 1797 1769 1603 1781
L 1603 781
z
M 1603 2134
L 1872 2134
Q 2184 2134 2368 2223
Q 2553 2313 2642 2506
Q 2731 2700 2731 3028
Q 2731 3353 2642 3545
Q 2553 3738 2381 3819
Q 2209 3900 1941 3900
Q 1722 3900 1603 3894
L 1603 2134
z
" transform="scale(0.015625)"/>
      <path id="Cambria-Bold-68" d="M 1450 2688
Q 1734 2941 1957 3045
Q 2181 3150 2416 3150
Q 2759 3150 2946 3023
Q 3134 2897 3220 2659
Q 3306 2422 3306 2044
L 3306 903
Q 3306 766 3311 645
Q 3316 525 3334 453
Q 3353 381 3386 336
Q 3419 291 3478 259
Q 3538 228 3622 206
L 3622 0
L 2106 0
L 2106 206
Q 2253 241 2308 306
Q 2363 372 2383 487
Q 2403 603 2403 900
L 2403 1716
Q 2403 2028 2383 2201
Q 2363 2375 2314 2470
Q 2266 2566 2189 2612
Q 2113 2659 1988 2659
Q 1869 2659 1739 2586
Q 1609 2513 1523 2386
Q 1438 2259 1438 2116
L 1438 903
Q 1438 728 1442 633
Q 1447 538 1456 486
Q 1466 434 1483 393
Q 1500 353 1528 318
Q 1556 284 1609 256
Q 1663 228 1750 206
L 1750 0
L 219 0
L 219 206
Q 313 228 366 258
Q 419 288 448 327
Q 478 366 500 427
Q 522 488 528 595
Q 534 703 534 903
L 534 3341
Q 534 3609 529 3736
Q 525 3863 509 3948
Q 494 4034 462 4086
Q 431 4138 372 4169
Q 313 4200 181 4225
L 181 4431
L 1047 4475
L 1438 4475
L 1438 2691
L 1450 2688
z
" transform="scale(0.015625)"/>
      <path id="Cambria-Bold-61" d="M 2116 409
L 2069 425
Q 1813 175 1570 62
Q 1328 -50 1056 -50
Q 788 -50 589 48
Q 391 147 289 322
Q 188 497 188 725
Q 188 1184 639 1448
Q 1091 1713 2009 1781
L 2009 2078
Q 2009 2369 1943 2526
Q 1878 2684 1775 2748
Q 1672 2813 1528 2813
Q 1384 2813 1279 2763
Q 1175 2713 1090 2573
Q 1006 2434 966 2188
L 375 2188
L 375 2756
Q 663 2884 853 2953
Q 1044 3022 1230 3067
Q 1416 3113 1562 3131
Q 1709 3150 1856 3150
Q 2234 3150 2461 3050
Q 2688 2950 2800 2725
Q 2913 2500 2913 2103
L 2913 884
Q 2913 678 2922 565
Q 2931 453 2951 398
Q 2972 344 3003 311
Q 3034 278 3079 258
Q 3125 238 3250 206
L 3250 0
L 2088 0
L 2116 409
z
M 2013 1475
Q 1528 1463 1295 1294
Q 1063 1125 1063 800
Q 1063 606 1169 504
Q 1275 403 1463 403
Q 1606 403 1734 479
Q 1863 556 1938 684
Q 2013 813 2013 956
L 2013 1475
z
" transform="scale(0.015625)"/>
      <path id="Cambria-Bold-73" d="M 672 844
Q 747 559 909 417
Q 1072 275 1344 275
Q 1578 275 1698 381
Q 1819 488 1819 691
Q 1819 819 1764 909
Q 1709 1000 1582 1083
Q 1456 1166 1150 1300
Q 978 1375 826 1465
Q 675 1556 562 1670
Q 450 1784 384 1925
Q 319 2066 319 2238
Q 319 2519 481 2725
Q 644 2931 945 3040
Q 1247 3150 1634 3150
Q 1863 3150 2081 3131
Q 2300 3113 2647 3050
L 2647 2322
L 2234 2322
Q 2163 2522 2077 2631
Q 1991 2741 1887 2783
Q 1784 2825 1641 2825
Q 1434 2825 1312 2731
Q 1191 2638 1191 2469
Q 1191 2350 1234 2265
Q 1278 2181 1390 2101
Q 1503 2022 1825 1888
Q 2119 1766 2303 1633
Q 2488 1500 2584 1326
Q 2681 1153 2681 922
Q 2681 669 2587 486
Q 2494 303 2325 184
Q 2156 66 1920 8
Q 1684 -50 1400 -50
Q 884 -50 253 97
L 253 844
L 672 844
z
" transform="scale(0.015625)"/>
      <path id="Cambria-Bold-65" d="M 3097 569
Q 2778 231 2465 90
Q 2153 -50 1747 -50
Q 1019 -50 651 348
Q 284 747 284 1531
Q 284 2038 473 2405
Q 663 2772 1009 2961
Q 1356 3150 1816 3150
Q 2100 3150 2314 3084
Q 2528 3019 2681 2901
Q 2834 2784 2934 2619
Q 3053 2422 3113 2169
Q 3175 1909 3178 1541
L 1197 1541
Q 1200 975 1398 708
Q 1597 441 2003 441
Q 2241 441 2431 530
Q 2622 619 2844 844
L 3097 569
z
M 2253 1878
Q 2241 2356 2128 2590
Q 2016 2825 1766 2825
Q 1525 2825 1383 2581
Q 1241 2338 1213 1878
L 2253 1878
z
" transform="scale(0.015625)"/>
      <path id="Cambria-Bold-20" transform="scale(0.015625)"/>
      <path id="Cambria-Bold-31" d="M 2506 872
Q 2506 691 2526 598
Q 2547 506 2598 448
Q 2650 391 2747 358
Q 2844 325 2991 308
Q 3138 291 3378 284
L 3378 0
L 681 0
L 681 284
Q 1028 300 1176 326
Q 1325 353 1403 406
Q 1481 459 1517 556
Q 1553 653 1553 872
L 1553 3131
Q 1553 3259 1504 3315
Q 1456 3372 1372 3372
Q 1294 3372 1151 3300
Q 1009 3228 684 3006
L 494 3338
L 2125 4316
L 2525 4316
Q 2506 4016 2506 3484
L 2506 872
z
" transform="scale(0.015625)"/>
      <path id="Cambria-Bold-53" d="M 691 1053
Q 769 681 951 498
Q 1134 316 1488 316
Q 1672 316 1819 378
Q 1966 441 2055 580
Q 2144 719 2144 928
Q 2144 1122 2072 1264
Q 2000 1406 1840 1534
Q 1681 1663 1397 1806
Q 1153 1928 956 2059
Q 759 2191 620 2348
Q 481 2506 404 2693
Q 328 2881 328 3116
Q 328 3500 518 3769
Q 709 4038 1070 4177
Q 1431 4316 1906 4316
Q 2184 4316 2437 4286
Q 2691 4256 3016 4181
L 3016 3275
L 2588 3275
Q 2528 3522 2436 3667
Q 2344 3813 2206 3881
Q 2069 3950 1859 3950
Q 1681 3950 1540 3887
Q 1400 3825 1319 3701
Q 1238 3578 1238 3403
Q 1238 3222 1308 3089
Q 1378 2956 1543 2829
Q 1709 2703 2025 2541
Q 2409 2341 2629 2148
Q 2850 1956 2954 1729
Q 3059 1503 3059 1203
Q 3059 819 2881 536
Q 2703 253 2362 101
Q 2022 -50 1575 -50
Q 1256 -50 911 -14
Q 566 22 263 91
L 263 1053
L 691 1053
z
" transform="scale(0.015625)"/>
      <path id="Cambria-Bold-6d" d="M 1431 2675
L 1469 2666
Q 1753 2931 1981 3040
Q 2209 3150 2447 3150
Q 2678 3150 2831 3090
Q 2984 3031 3090 2917
Q 3197 2803 3263 2619
Q 3578 2913 3811 3031
Q 4044 3150 4297 3150
Q 4547 3150 4711 3084
Q 4875 3019 4981 2881
Q 5088 2744 5136 2537
Q 5184 2331 5184 2044
L 5184 903
Q 5184 766 5189 645
Q 5194 525 5212 453
Q 5231 381 5264 336
Q 5297 291 5356 259
Q 5416 228 5500 206
L 5500 0
L 3994 0
L 3994 206
Q 4134 241 4187 306
Q 4241 372 4261 487
Q 4281 603 4281 900
L 4281 1738
Q 4281 2019 4262 2195
Q 4244 2372 4191 2472
Q 4138 2572 4064 2615
Q 3991 2659 3872 2659
Q 3791 2659 3722 2634
Q 3653 2609 3583 2557
Q 3513 2506 3463 2453
Q 3413 2400 3383 2334
Q 3353 2269 3342 2187
Q 3331 2106 3331 1922
L 3331 903
Q 3331 691 3339 578
Q 3347 466 3372 397
Q 3397 328 3451 283
Q 3506 238 3622 206
L 3622 0
L 2134 0
L 2134 206
Q 2278 241 2333 306
Q 2388 372 2406 486
Q 2425 600 2425 900
L 2425 1738
Q 2425 1944 2417 2086
Q 2409 2228 2390 2315
Q 2372 2403 2339 2468
Q 2306 2534 2264 2575
Q 2222 2616 2164 2637
Q 2106 2659 2019 2659
Q 1903 2659 1776 2587
Q 1650 2516 1564 2387
Q 1478 2259 1478 2113
L 1478 903
Q 1478 609 1495 492
Q 1513 375 1569 308
Q 1625 241 1766 206
L 1766 0
L 269 0
L 269 206
Q 419 247 476 312
Q 534 378 554 490
Q 575 603 575 900
L 575 2184
Q 575 2416 567 2527
Q 559 2638 529 2705
Q 500 2772 439 2814
Q 378 2856 228 2888
L 228 3100
L 1084 3125
L 1478 3125
L 1431 2675
z
" transform="scale(0.015625)"/>
      <path id="Cambria-Bold-69" d="M 1453 4347
L 1453 3581
L 597 3581
L 597 4347
L 1453 4347
z
M 266 206
Q 419 247 476 312
Q 534 378 554 490
Q 575 603 575 900
L 575 2353
Q 575 2506 561 2600
Q 547 2694 508 2750
Q 469 2806 401 2836
Q 334 2866 228 2888
L 228 3100
L 1088 3125
L 1478 3125
L 1478 903
Q 1478 728 1483 633
Q 1488 538 1497 486
Q 1506 434 1523 393
Q 1541 353 1569 318
Q 1597 284 1650 256
Q 1703 228 1791 206
L 1791 0
L 266 0
L 266 206
z
" transform="scale(0.015625)"/>
      <path id="Cambria-Bold-74" d="M 2406 375
Q 2131 141 1906 45
Q 1681 -50 1431 -50
Q 966 -50 736 201
Q 506 453 506 963
L 506 2709
L 116 2709
L 116 2925
Q 306 2956 397 3018
Q 488 3081 538 3186
Q 588 3291 617 3459
Q 647 3628 663 3881
L 1409 3881
L 1409 3100
L 2300 3100
L 2300 2709
L 1409 2709
L 1409 1300
Q 1409 947 1442 778
Q 1475 609 1553 529
Q 1631 450 1747 450
Q 1834 450 1903 465
Q 1972 481 2048 522
Q 2125 563 2209 638
L 2406 375
z
" transform="scale(0.015625)"/>
      <path id="Cambria-Bold-2d" d="M 1819 1378
L 338 1378
L 338 2034
L 1819 2034
L 1819 1378
z
" transform="scale(0.015625)"/>
      <path id="Cambria-Bold-4d" d="M 5113 4059
Q 4947 4013 4887 3958
Q 4828 3903 4804 3811
Q 4781 3719 4781 3484
L 4781 781
Q 4781 591 4800 480
Q 4819 369 4876 311
Q 4934 253 5113 206
L 5113 0
L 3509 0
L 3509 206
Q 3647 244 3700 272
Q 3753 300 3783 345
Q 3813 391 3827 483
Q 3841 575 3841 788
L 3841 2319
Q 3841 2572 3850 2915
Q 3859 3259 3869 3403
L 3803 3403
Q 3766 3278 3723 3158
Q 3681 3038 3566 2728
L 2728 472
L 2178 472
L 1297 3006
Q 1219 3222 1159 3434
L 1103 3434
Q 1134 2919 1134 2216
L 1134 778
Q 1134 547 1156 456
Q 1178 366 1243 306
Q 1309 247 1472 206
L 1472 0
L 291 0
L 291 206
Q 406 238 473 275
Q 541 313 575 375
Q 609 438 617 534
Q 625 631 625 781
L 625 3484
Q 625 3722 604 3809
Q 584 3897 525 3953
Q 466 4009 291 4059
L 291 4266
L 1844 4266
L 2709 1700
L 3647 4266
L 5113 4266
L 5113 4059
z
" transform="scale(0.015625)"/>
      <path id="Cambria-Bold-6e" d="M 3666 0
L 2150 0
L 2150 206
Q 2294 241 2350 308
Q 2406 375 2426 489
Q 2447 603 2447 900
L 2447 1734
Q 2447 1956 2437 2098
Q 2428 2241 2408 2331
Q 2388 2422 2352 2483
Q 2316 2544 2272 2583
Q 2228 2622 2172 2640
Q 2116 2659 2028 2659
Q 1909 2659 1781 2586
Q 1653 2513 1565 2383
Q 1478 2253 1478 2106
L 1478 903
Q 1478 606 1497 490
Q 1516 375 1573 308
Q 1631 241 1778 206
L 1778 0
L 269 0
L 269 206
Q 419 247 476 312
Q 534 378 554 490
Q 575 603 575 900
L 575 2184
Q 575 2416 567 2527
Q 559 2638 529 2705
Q 500 2772 439 2814
Q 378 2856 228 2888
L 228 3100
L 1084 3125
L 1478 3125
L 1431 2675
L 1469 2666
Q 1663 2838 1809 2936
Q 1956 3034 2117 3092
Q 2278 3150 2456 3150
Q 2713 3150 2881 3076
Q 3050 3003 3154 2862
Q 3259 2722 3304 2519
Q 3350 2316 3350 2047
L 3350 903
Q 3350 766 3354 645
Q 3359 525 3378 453
Q 3397 381 3430 336
Q 3463 291 3522 259
Q 3581 228 3666 206
L 3666 0
z
" transform="scale(0.015625)"/>
      <path id="Cambria-Bold-62" d="M 497 3397
Q 497 3622 494 3740
Q 491 3859 475 3946
Q 459 4034 425 4084
Q 391 4134 333 4165
Q 275 4197 144 4225
L 144 4431
L 1016 4475
L 1400 4475
L 1400 2684
L 1403 2681
Q 1591 2853 1731 2947
Q 1872 3041 2031 3095
Q 2191 3150 2372 3150
Q 2928 3150 3206 2758
Q 3484 2366 3484 1584
Q 3484 1044 3320 680
Q 3156 316 2831 133
Q 2506 -50 2031 -50
Q 1538 -50 1128 128
L 897 -50
L 497 6
L 497 3397
z
M 1400 1025
Q 1400 641 1533 458
Q 1666 275 1944 275
Q 2231 275 2382 576
Q 2534 878 2534 1438
Q 2534 2053 2400 2356
Q 2266 2659 1981 2659
Q 1844 2659 1709 2587
Q 1575 2516 1487 2383
Q 1400 2250 1400 2091
L 1400 1025
z
" transform="scale(0.015625)"/>
      <path id="Cambria-Bold-6c" d="M 1438 903
Q 1438 606 1456 493
Q 1475 381 1533 314
Q 1591 247 1750 206
L 1750 0
L 219 0
L 219 206
Q 313 228 366 258
Q 419 288 448 327
Q 478 366 500 427
Q 522 488 528 595
Q 534 703 534 903
L 534 3341
Q 534 3609 529 3736
Q 525 3863 511 3948
Q 497 4034 464 4086
Q 431 4138 372 4169
Q 313 4200 181 4225
L 181 4431
L 1047 4475
L 1438 4475
L 1438 903
z
" transform="scale(0.015625)"/>
      <path id="Cambria-Bold-70" d="M 1438 -559
Q 1438 -794 1463 -891
Q 1488 -988 1552 -1044
Q 1616 -1100 1778 -1138
L 1778 -1344
L 222 -1344
L 222 -1138
Q 369 -1094 426 -1041
Q 484 -988 509 -892
Q 534 -797 534 -559
L 534 2175
Q 534 2397 529 2490
Q 525 2584 508 2650
Q 491 2716 459 2758
Q 428 2800 367 2831
Q 306 2863 188 2888
L 188 3100
L 1053 3125
L 1438 3125
L 1391 2672
L 1428 2663
Q 1697 2922 1930 3036
Q 2163 3150 2409 3150
Q 2966 3150 3244 2758
Q 3522 2366 3522 1584
Q 3522 1044 3358 680
Q 3194 316 2869 133
Q 2544 -50 2069 -50
Q 1747 -50 1438 31
L 1438 -559
z
M 1438 1025
Q 1438 641 1570 458
Q 1703 275 1981 275
Q 2269 275 2420 576
Q 2572 878 2572 1438
Q 2572 2059 2436 2359
Q 2300 2659 2013 2659
Q 1872 2659 1739 2587
Q 1606 2516 1522 2383
Q 1438 2250 1438 2084
L 1438 1025
z
" transform="scale(0.015625)"/>
      <path id="Cambria-Bold-72" d="M 1434 2653
L 1475 2644
Q 1703 2913 1943 3031
Q 2184 3150 2466 3150
Q 2656 3150 2866 3109
L 2866 2247
L 2300 2247
Q 2247 2428 2161 2525
Q 2075 2622 1931 2622
Q 1863 2622 1780 2580
Q 1697 2538 1626 2461
Q 1556 2384 1526 2304
Q 1497 2225 1487 2144
Q 1478 2063 1478 1900
L 1478 903
Q 1478 606 1500 487
Q 1522 369 1587 301
Q 1653 234 1809 206
L 1809 0
L 269 0
L 269 206
Q 419 247 476 312
Q 534 378 554 490
Q 575 603 575 900
L 575 2184
Q 575 2416 567 2527
Q 559 2638 529 2705
Q 500 2772 439 2814
Q 378 2856 228 2888
L 228 3100
L 1084 3125
L 1478 3125
L 1434 2653
z
" transform="scale(0.015625)"/>
      <path id="Cambria-Bold-75" d="M 200 3100
L 1416 3100
L 1416 1366
Q 1416 1066 1434 897
Q 1453 728 1506 629
Q 1559 531 1636 486
Q 1713 441 1831 441
Q 1947 441 2075 512
Q 2203 584 2292 714
Q 2381 844 2381 991
L 2381 2197
Q 2381 2425 2372 2536
Q 2363 2647 2336 2709
Q 2309 2772 2253 2814
Q 2197 2856 2069 2894
L 2069 3100
L 3288 3100
L 3288 913
Q 3288 675 3295 565
Q 3303 456 3331 390
Q 3359 325 3421 283
Q 3484 241 3631 209
L 3631 0
L 2781 -28
L 2403 -28
L 2431 422
L 2394 431
Q 2103 163 1875 56
Q 1647 -50 1416 -50
Q 1084 -50 886 73
Q 688 197 600 436
Q 513 675 513 1053
L 513 2197
Q 513 2372 508 2465
Q 503 2559 493 2611
Q 484 2663 467 2705
Q 450 2747 420 2781
Q 391 2816 339 2844
Q 288 2872 200 2894
L 200 3100
z
" transform="scale(0.015625)"/>
      <path id="Cambria-Bold-6f" d="M 1784 -50
Q 1325 -50 992 111
Q 659 272 471 626
Q 284 981 284 1528
Q 284 1947 400 2253
Q 516 2559 722 2759
Q 928 2959 1214 3054
Q 1500 3150 1834 3150
Q 2591 3150 2975 2751
Q 3359 2353 3359 1584
Q 3359 1041 3168 673
Q 2978 306 2625 128
Q 2272 -50 1784 -50
z
M 1234 1597
Q 1234 934 1382 604
Q 1531 275 1831 275
Q 1997 275 2108 359
Q 2219 444 2286 603
Q 2353 763 2381 986
Q 2409 1209 2409 1488
Q 2409 2159 2261 2492
Q 2113 2825 1822 2825
Q 1609 2825 1481 2690
Q 1353 2556 1293 2287
Q 1234 2019 1234 1597
z
" transform="scale(0.015625)"/>
      <path id="Cambria-Bold-64" d="M 3288 913
Q 3288 675 3295 565
Q 3303 456 3331 390
Q 3359 325 3421 283
Q 3484 241 3631 209
L 3631 0
L 2781 -28
L 2403 -28
L 2431 422
L 2384 425
Q 2159 197 1911 73
Q 1663 -50 1434 -50
Q 866 -50 583 340
Q 300 731 300 1516
Q 300 2047 472 2411
Q 644 2775 983 2962
Q 1322 3150 1800 3150
Q 1938 3150 2070 3133
Q 2203 3116 2384 3066
L 2384 3350
Q 2384 3684 2375 3823
Q 2366 3963 2336 4036
Q 2306 4109 2247 4150
Q 2188 4191 2031 4222
L 2031 4431
L 2897 4475
L 3288 4475
L 3288 913
z
M 2384 2075
Q 2384 2456 2256 2640
Q 2128 2825 1863 2825
Q 1669 2825 1530 2686
Q 1391 2547 1320 2284
Q 1250 2022 1250 1663
Q 1250 1047 1384 744
Q 1519 441 1803 441
Q 1938 441 2070 508
Q 2203 575 2293 714
Q 2384 853 2384 1034
L 2384 2075
z
" transform="scale(0.015625)"/>
      <path id="Cambria-Bold-63" d="M 2650 800
L 2891 509
Q 2584 209 2298 79
Q 2013 -50 1675 -50
Q 997 -50 640 348
Q 284 747 284 1506
Q 284 2019 479 2392
Q 675 2766 1040 2958
Q 1406 3150 1878 3150
Q 2131 3150 2382 3114
Q 2634 3078 2841 3016
L 2841 2263
L 2222 2263
Q 2175 2556 2081 2690
Q 1988 2825 1813 2825
Q 1697 2825 1592 2767
Q 1488 2709 1408 2567
Q 1328 2425 1281 2186
Q 1234 1947 1234 1581
Q 1234 1216 1303 964
Q 1372 713 1525 577
Q 1678 441 1928 441
Q 2109 441 2270 519
Q 2431 597 2650 800
z
" transform="scale(0.015625)"/>
     </defs>
     <use xlink:href="#Cambria-Bold-50"/>
     <use xlink:href="#Cambria-Bold-68" transform="translate(61.376953 0)"/>
     <use xlink:href="#Cambria-Bold-61" transform="translate(121.044922 0)"/>
     <use xlink:href="#Cambria-Bold-73" transform="translate(174.560547 0)"/>
     <use xlink:href="#Cambria-Bold-65" transform="translate(220.458984 0)"/>
     <use xlink:href="#Cambria-Bold-20" transform="translate(273.535156 0)"/>
     <use xlink:href="#Cambria-Bold-31" transform="translate(295.556641 0)"/>
     <use xlink:href="#Cambria-Bold-20" transform="translate(354.785156 0)"/>
     <use xlink:href="#Cambria-Bold-53" transform="translate(376.806641 0)"/>
     <use xlink:href="#Cambria-Bold-6d" transform="translate(428.125 0)"/>
     <use xlink:href="#Cambria-Bold-69" transform="translate(517.138672 0)"/>
     <use xlink:href="#Cambria-Bold-74" transform="translate(548.583984 0)"/>
     <use xlink:href="#Cambria-Bold-68" transform="translate(585.107422 0)"/>
     <use xlink:href="#Cambria-Bold-2d" transform="translate(644.775391 0)"/>
     <use xlink:href="#Cambria-Bold-4d" transform="translate(678.466797 0)"/>
     <use xlink:href="#Cambria-Bold-69" transform="translate(763.085938 0)"/>
     <use xlink:href="#Cambria-Bold-73" transform="translate(794.53125 0)"/>
     <use xlink:href="#Cambria-Bold-73" transform="translate(840.429688 0)"/>
     <use xlink:href="#Cambria-Bold-65" transform="translate(886.328125 0)"/>
     <use xlink:href="#Cambria-Bold-6e" transform="translate(939.404297 0)"/>
     <use xlink:href="#Cambria-Bold-20" transform="translate(999.755859 0)"/>
     <use xlink:href="#Cambria-Bold-62" transform="translate(1021.777344 0)"/>
     <use xlink:href="#Cambria-Bold-61" transform="translate(1080.908203 0)"/>
     <use xlink:href="#Cambria-Bold-73" transform="translate(1134.423828 0)"/>
     <use xlink:href="#Cambria-Bold-65" transform="translate(1180.322266 0)"/>
     <use xlink:href="#Cambria-Bold-6c" transform="translate(1233.398438 0)"/>
     <use xlink:href="#Cambria-Bold-69" transform="translate(1264.208984 0)"/>
     <use xlink:href="#Cambria-Bold-6e" transform="translate(1295.654297 0)"/>
     <use xlink:href="#Cambria-Bold-65" transform="translate(1356.005859 0)"/>
     <use xlink:href="#Cambria-Bold-20" transform="translate(1409.082031 0)"/>
     <use xlink:href="#Cambria-Bold-70" transform="translate(1431.103516 0)"/>
     <use xlink:href="#Cambria-Bold-72" transform="translate(1490.820312 0)"/>
     <use xlink:href="#Cambria-Bold-65" transform="translate(1536.962891 0)"/>
     <use xlink:href="#Cambria-Bold-73" transform="translate(1590.039062 0)"/>
     <use xlink:href="#Cambria-Bold-73" transform="translate(1635.9375 0)"/>
     <use xlink:href="#Cambria-Bold-75" transform="translate(1681.835938 0)"/>
     <use xlink:href="#Cambria-Bold-72" transform="translate(1741.552734 0)"/>
     <use xlink:href="#Cambria-Bold-65" transform="translate(1787.695312 0)"/>
     <use xlink:href="#Cambria-Bold-20" transform="translate(1840.771484 0)"/>
     <use xlink:href="#Cambria-Bold-72" transform="translate(1862.792969 0)"/>
     <use xlink:href="#Cambria-Bold-65" transform="translate(1908.935547 0)"/>
     <use xlink:href="#Cambria-Bold-70" transform="translate(1962.011719 0)"/>
     <use xlink:href="#Cambria-Bold-72" transform="translate(2021.728516 0)"/>
     <use xlink:href="#Cambria-Bold-6f" transform="translate(2067.871094 0)"/>
     <use xlink:href="#Cambria-Bold-64" transform="translate(2124.804688 0)"/>
     <use xlink:href="#Cambria-Bold-75" transform="translate(2184.521484 0)"/>
     <use xlink:href="#Cambria-Bold-63" transform="translate(2244.238281 0)"/>
     <use xlink:href="#Cambria-Bold-74" transform="translate(2291.113281 0)"/>
     <use xlink:href="#Cambria-Bold-69" transform="translate(2327.636719 0)"/>
     <use xlink:href="#Cambria-Bold-6f" transform="translate(2359.082031 0)"/>
     <use xlink:href="#Cambria-Bold-6e" transform="translate(2416.015625 0)"/>
    </g>
   </g>
   <g id="legend_1">
    <g id="text_17">
     <!-- Temperature -->
     <g transform="translate(458.12056 40.927344) scale(0.1 -0.1)">
      <defs>
       <path id="Cambria-54" d="M 206 4266
L 3588 4266
L 3588 3178
L 3281 3178
Q 3213 3447 3145 3603
Q 3078 3759 3003 3840
Q 2928 3922 2842 3956
Q 2756 3991 2584 3991
L 2188 3991
L 2188 791
Q 2188 606 2208 497
Q 2228 388 2270 323
Q 2313 259 2384 223
Q 2456 188 2609 153
L 2609 0
L 1181 0
L 1181 153
Q 1275 175 1347 200
Q 1419 225 1464 261
Q 1509 297 1539 353
Q 1569 409 1586 506
Q 1603 603 1603 791
L 1603 3991
L 1209 3991
Q 1063 3991 967 3962
Q 872 3934 790 3845
Q 709 3756 642 3592
Q 575 3428 516 3178
L 206 3178
L 206 4266
z
" transform="scale(0.015625)"/>
      </defs>
      <use xlink:href="#Cambria-54"/>
      <use xlink:href="#Cambria-65" transform="translate(51.152344 0)"/>
      <use xlink:href="#Cambria-6d" transform="translate(99.931641 0)"/>
      <use xlink:href="#Cambria-70" transform="translate(183.134766 0)"/>
      <use xlink:href="#Cambria-65" transform="translate(238.75 0)"/>
      <use xlink:href="#Cambria-72" transform="translate(287.529297 0)"/>
      <use xlink:href="#Cambria-61" transform="translate(328.886719 0)"/>
      <use xlink:href="#Cambria-74" transform="translate(377.714844 0)"/>
      <use xlink:href="#Cambria-75" transform="translate(411.552734 0)"/>
      <use xlink:href="#Cambria-72" transform="translate(466.777344 0)"/>
      <use xlink:href="#Cambria-65" transform="translate(508.134766 0)"/>
     </g>
    </g>
    <g id="line2d_91">
     <path d="M 463.680052 50.252344
L 472.180052 50.252344
L 480.680052 50.252344
" style="fill: none; stroke: #1f5aa6; stroke-width: 2.2; stroke-linecap: square"/>
    </g>
    <g id="text_18">
     <!-- 40 C -->
     <g transform="translate(487.480052 53.227344) scale(0.085 -0.085)">
      <defs>
       <path id="Cambria-43" d="M 3256 4175
L 3256 3309
L 2947 3309
Q 2872 3581 2756 3742
Q 2641 3903 2487 3972
Q 2334 4041 2119 4041
Q 1797 4041 1545 3827
Q 1294 3613 1150 3183
Q 1006 2753 1006 2144
Q 1006 1531 1125 1098
Q 1244 666 1475 445
Q 1706 225 2044 225
Q 2300 225 2462 298
Q 2625 372 2736 531
Q 2847 691 2947 1000
L 3256 1000
L 3256 106
Q 2963 28 2655 -11
Q 2347 -50 1978 -50
Q 1184 -50 778 487
Q 372 1025 372 2091
Q 372 2759 583 3262
Q 794 3766 1203 4041
Q 1613 4316 2181 4316
Q 2466 4316 2706 4286
Q 2947 4256 3256 4175
z
" transform="scale(0.015625)"/>
      </defs>
      <use xlink:href="#Cambria-34"/>
      <use xlink:href="#Cambria-30" transform="translate(55.371094 0)"/>
      <use xlink:href="#Cambria-20" transform="translate(110.742188 0)"/>
      <use xlink:href="#Cambria-43" transform="translate(132.763672 0)"/>
     </g>
    </g>
    <g id="line2d_92">
     <path d="M 463.680052 62.237344
L 472.180052 62.237344
L 480.680052 62.237344
" style="fill: none; stroke: #d47a00; stroke-width: 2.2; stroke-linecap: square"/>
    </g>
    <g id="text_19">
     <!-- 60 C -->
     <g transform="translate(487.480052 65.212344) scale(0.085 -0.085)">
      <use xlink:href="#Cambria-36"/>
      <use xlink:href="#Cambria-30" transform="translate(55.371094 0)"/>
      <use xlink:href="#Cambria-20" transform="translate(110.742188 0)"/>
      <use xlink:href="#Cambria-43" transform="translate(132.763672 0)"/>
     </g>
    </g>
    <g id="line2d_93">
     <path d="M 463.680052 74.222344
L 472.180052 74.222344
L 480.680052 74.222344
" style="fill: none; stroke: #16805a; stroke-width: 2.2; stroke-linecap: square"/>
    </g>
    <g id="text_20">
     <!-- 80 C -->
     <g transform="translate(487.480052 77.197344) scale(0.085 -0.085)">
      <defs>
       <path id="Cambria-38" d="M 2475 2253
L 2481 2213
Q 2834 2075 3015 1811
Q 3197 1547 3197 1175
Q 3197 809 3022 531
Q 2847 253 2514 101
Q 2181 -50 1738 -50
Q 1322 -50 1008 89
Q 694 228 520 495
Q 347 763 347 1125
Q 347 1397 440 1597
Q 534 1797 686 1926
Q 838 2056 1069 2163
L 1063 2203
Q 391 2494 391 3200
Q 391 3522 567 3775
Q 744 4028 1070 4172
Q 1397 4316 1794 4316
Q 2244 4316 2550 4189
Q 2856 4063 3011 3823
Q 3166 3584 3166 3250
Q 3166 2906 2997 2657
Q 2828 2409 2475 2253
z
M 978 3228
Q 978 3044 1022 2881
Q 1066 2719 1162 2600
Q 1259 2481 1414 2411
Q 1569 2341 1794 2341
Q 2053 2341 2229 2442
Q 2406 2544 2492 2739
Q 2578 2934 2578 3191
Q 2578 3472 2476 3667
Q 2375 3863 2197 3956
Q 2019 4050 1788 4050
Q 1394 4050 1186 3836
Q 978 3622 978 3228
z
M 944 1178
Q 944 975 991 798
Q 1038 622 1139 494
Q 1241 366 1400 291
Q 1559 216 1788 216
Q 2044 216 2226 320
Q 2409 425 2504 631
Q 2600 838 2600 1119
Q 2600 1419 2497 1636
Q 2394 1853 2206 1967
Q 2019 2081 1772 2081
Q 1541 2081 1383 2009
Q 1225 1938 1126 1816
Q 1028 1694 986 1530
Q 944 1366 944 1178
z
" transform="scale(0.015625)"/>
      </defs>
      <use xlink:href="#Cambria-38"/>
      <use xlink:href="#Cambria-30" transform="translate(55.371094 0)"/>
      <use xlink:href="#Cambria-20" transform="translate(110.742188 0)"/>
      <use xlink:href="#Cambria-43" transform="translate(132.763672 0)"/>
     </g>
    </g>
    <g id="line2d_94">
     <path d="M 463.680052 86.207344
L 472.180052 86.207344
L 480.680052 86.207344
" style="fill: none; stroke: #b6312c; stroke-width: 2.2; stroke-linecap: square"/>
    </g>
    <g id="text_21">
     <!-- 100 C -->
     <g transform="translate(487.480052 89.182344) scale(0.085 -0.085)">
      <use xlink:href="#Cambria-31"/>
      <use xlink:href="#Cambria-30" transform="translate(55.371094 0)"/>
      <use xlink:href="#Cambria-30" transform="translate(110.742188 0)"/>
      <use xlink:href="#Cambria-20" transform="translate(166.113281 0)"/>
      <use xlink:href="#Cambria-43" transform="translate(188.134766 0)"/>
     </g>
    </g>
    <g id="line2d_95">
     <path d="M 463.680052 98.192344
L 472.180052 98.192344
L 480.680052 98.192344
" style="fill: none; stroke: #6f4aa8; stroke-width: 2.2; stroke-linecap: square"/>
    </g>
    <g id="text_22">
     <!-- 120 C -->
     <g transform="translate(487.480052 101.167344) scale(0.085 -0.085)">
      <use xlink:href="#Cambria-31"/>
      <use xlink:href="#Cambria-32" transform="translate(55.371094 0)"/>
      <use xlink:href="#Cambria-30" transform="translate(110.742188 0)"/>
      <use xlink:href="#Cambria-20" transform="translate(166.113281 0)"/>
      <use xlink:href="#Cambria-43" transform="translate(188.134766 0)"/>
     </g>
    </g>
   </g>
   <g id="legend_2">
    <g id="text_23">
     <!-- Role -->
     <g transform="translate(504.925794 279.85725) scale(0.1 -0.1)">
      <defs>
       <path id="Cambria-52" d="M 1331 1853
L 1331 791
Q 1331 566 1348 464
Q 1366 363 1400 311
Q 1434 259 1493 226
Q 1553 194 1697 153
L 1697 0
L 378 0
L 378 153
Q 572 203 637 264
Q 703 325 723 437
Q 744 550 744 781
L 744 3484
Q 744 3700 728 3798
Q 713 3897 677 3951
Q 641 4006 581 4039
Q 522 4072 378 4113
L 378 4266
L 1925 4266
Q 2656 4266 3018 4000
Q 3381 3734 3381 3175
Q 3381 2747 3145 2447
Q 2909 2147 2438 1978
L 2438 1953
Q 2628 1875 2764 1729
Q 2900 1584 3066 1278
L 3347 766
Q 3469 541 3556 422
Q 3644 303 3734 240
Q 3825 178 3975 153
L 3975 0
L 3109 0
Q 2991 166 2884 356
Q 2778 547 2675 744
L 2400 1266
Q 2275 1503 2195 1615
Q 2116 1728 2048 1773
Q 1981 1819 1904 1836
Q 1828 1853 1675 1853
L 1331 1853
z
M 1331 3978
L 1331 2122
L 1684 2122
Q 1956 2122 2125 2161
Q 2294 2200 2437 2309
Q 2581 2419 2667 2614
Q 2753 2809 2753 3094
Q 2753 3391 2651 3587
Q 2550 3784 2344 3887
Q 2138 3991 1788 3991
Q 1506 3991 1331 3978
z
" transform="scale(0.015625)"/>
      </defs>
      <use xlink:href="#Cambria-52"/>
      <use xlink:href="#Cambria-6f" transform="translate(60.359375 0)"/>
      <use xlink:href="#Cambria-6c" transform="translate(113.435547 0)"/>
      <use xlink:href="#Cambria-65" transform="translate(140.583984 0)"/>
     </g>
    </g>
    <g id="line2d_96">
     <defs>
      <path id="mfb849494fd" d="M -3 3
L 3 -3
M -3 -3
L 3 3
" style="stroke: #404040"/>
     </defs>
     <g>
      <use xlink:href="#mfb849494fd" x="466.62056" y="289.18225" style="fill: #404040; stroke: #404040"/>
     </g>
    </g>
    <g id="text_24">
     <!-- Jou data -->
     <g transform="translate(481.92056 292.15725) scale(0.085 -0.085)">
      <defs>
       <path id="Cambria-4a" d="M 1275 213
Q 1275 -209 1176 -471
Q 1078 -734 845 -915
Q 613 -1097 194 -1225
L 91 -950
Q 366 -844 481 -736
Q 597 -628 642 -465
Q 688 -303 688 -28
L 688 3484
Q 688 3756 661 3856
Q 634 3956 573 4009
Q 513 4063 322 4113
L 322 4266
L 1641 4266
L 1641 4113
Q 1503 4078 1442 4043
Q 1381 4009 1345 3957
Q 1309 3906 1292 3803
Q 1275 3700 1275 3484
L 1275 213
z
" transform="scale(0.015625)"/>
      </defs>
      <use xlink:href="#Cambria-4a"/>
      <use xlink:href="#Cambria-6f" transform="translate(30.664062 0)"/>
      <use xlink:href="#Cambria-75" transform="translate(83.740234 0)"/>
      <use xlink:href="#Cambria-20" transform="translate(138.964844 0)"/>
      <use xlink:href="#Cambria-64" transform="translate(160.986328 0)"/>
      <use xlink:href="#Cambria-61" transform="translate(216.455078 0)"/>
      <use xlink:href="#Cambria-74" transform="translate(265.283203 0)"/>
      <use xlink:href="#Cambria-61" transform="translate(299.121094 0)"/>
     </g>
    </g>
    <g id="line2d_97">
     <path d="M 458.12056 301.16725
L 466.62056 301.16725
L 475.12056 301.16725
" style="fill: none; stroke-dasharray: 1.7,2.805; stroke-dashoffset: 0; stroke: #404040; stroke-width: 1.7"/>
    </g>
    <g id="text_25">
     <!-- Legacy PC-SAFT -->
     <g transform="translate(481.92056 304.14225) scale(0.085 -0.085)">
      <defs>
       <path id="Cambria-4c" d="M 1328 288
L 2147 288
Q 2281 288 2372 303
Q 2463 319 2527 351
Q 2591 384 2642 442
Q 2694 500 2741 594
Q 2788 688 2830 830
Q 2872 972 2934 1256
L 3250 1256
L 3188 0
L 378 0
L 378 153
Q 572 203 637 264
Q 703 325 723 437
Q 744 550 744 781
L 744 3484
Q 744 3700 728 3798
Q 713 3897 677 3951
Q 641 4006 581 4039
Q 522 4072 378 4113
L 378 4266
L 1694 4266
L 1694 4113
Q 1556 4075 1498 4045
Q 1441 4016 1403 3966
Q 1366 3916 1347 3812
Q 1328 3709 1328 3484
L 1328 288
z
" transform="scale(0.015625)"/>
       <path id="Cambria-63" d="M 2631 2916
L 2631 2263
L 2234 2263
Q 2181 2466 2103 2583
Q 2025 2700 1922 2747
Q 1819 2794 1666 2794
Q 1447 2794 1278 2653
Q 1109 2513 1011 2225
Q 913 1938 913 1522
Q 913 1256 950 1036
Q 988 816 1078 659
Q 1169 503 1319 415
Q 1469 328 1691 328
Q 1906 328 2092 412
Q 2278 497 2478 709
L 2656 503
Q 2497 328 2375 233
Q 2253 138 2114 73
Q 1975 9 1839 -20
Q 1703 -50 1544 -50
Q 953 -50 640 342
Q 328 734 328 1475
Q 328 1938 503 2295
Q 678 2653 993 2847
Q 1309 3041 1722 3041
Q 1978 3041 2195 3011
Q 2413 2981 2631 2916
z
" transform="scale(0.015625)"/>
       <path id="Cambria-79" d="M 1625 -256
Q 1453 -644 1290 -884
Q 1128 -1125 933 -1247
Q 738 -1369 469 -1369
Q 297 -1369 81 -1328
L 81 -709
L 359 -709
Q 397 -838 453 -888
Q 509 -938 616 -938
Q 709 -938 782 -902
Q 856 -866 936 -778
Q 1016 -691 1123 -509
Q 1231 -328 1366 -50
L 491 2303
Q 406 2531 354 2622
Q 303 2713 243 2759
Q 184 2806 63 2834
L 63 2988
L 1334 2988
L 1334 2834
Q 1188 2800 1128 2767
Q 1069 2734 1041 2682
Q 1013 2631 1013 2550
Q 1013 2466 1033 2375
Q 1053 2284 1097 2163
L 1653 597
L 2278 2097
Q 2331 2222 2361 2326
Q 2391 2431 2391 2522
Q 2391 2656 2317 2725
Q 2244 2794 2063 2834
L 2063 2988
L 3231 2988
L 3231 2834
Q 3109 2809 3043 2757
Q 2978 2706 2912 2595
Q 2847 2484 2756 2284
L 1625 -256
z
" transform="scale(0.015625)"/>
       <path id="Cambria-2d" d="M 1788 1403
L 338 1403
L 338 1888
L 1788 1888
L 1788 1403
z
" transform="scale(0.015625)"/>
       <path id="Cambria-53" d="M 663 972
Q 725 697 831 537
Q 938 378 1106 301
Q 1275 225 1541 225
Q 1906 225 2101 415
Q 2297 606 2297 972
Q 2297 1206 2215 1365
Q 2134 1525 1950 1665
Q 1766 1806 1388 1994
Q 1022 2175 809 2348
Q 597 2522 492 2725
Q 388 2928 388 3169
Q 388 3519 552 3776
Q 716 4034 1033 4175
Q 1350 4316 1759 4316
Q 1997 4316 2223 4291
Q 2450 4266 2791 4178
L 2791 3334
L 2481 3334
Q 2409 3609 2300 3762
Q 2191 3916 2044 3977
Q 1897 4038 1663 4038
Q 1459 4038 1298 3963
Q 1138 3888 1044 3736
Q 950 3584 950 3375
Q 950 3153 1029 3000
Q 1109 2847 1278 2715
Q 1447 2584 1778 2422
Q 2178 2222 2398 2050
Q 2619 1878 2742 1658
Q 2866 1438 2866 1144
Q 2866 816 2762 589
Q 2659 363 2476 220
Q 2294 78 2039 14
Q 1784 -50 1481 -50
Q 991 -50 350 116
L 350 972
L 663 972
z
" transform="scale(0.015625)"/>
       <path id="Cambria-46" d="M 3228 4266
L 3228 3322
L 2922 3322
Q 2853 3534 2789 3665
Q 2725 3797 2654 3865
Q 2584 3934 2490 3962
Q 2397 3991 2244 3991
L 1328 3991
L 1328 2291
L 1972 2291
Q 2109 2291 2187 2336
Q 2266 2381 2317 2487
Q 2369 2594 2416 2816
L 2709 2816
L 2709 1497
L 2416 1497
Q 2369 1709 2316 1817
Q 2263 1925 2189 1970
Q 2116 2016 1972 2016
L 1328 2016
L 1328 791
Q 1328 603 1350 490
Q 1372 378 1422 312
Q 1472 247 1556 214
Q 1641 181 1766 153
L 1766 0
L 378 0
L 378 153
Q 572 203 637 264
Q 703 325 723 437
Q 744 550 744 781
L 744 3484
Q 744 3700 728 3798
Q 713 3897 677 3951
Q 641 4006 581 4039
Q 522 4072 378 4113
L 378 4266
L 3228 4266
z
" transform="scale(0.015625)"/>
      </defs>
      <use xlink:href="#Cambria-4c"/>
      <use xlink:href="#Cambria-65" transform="translate(53.662109 0)"/>
      <use xlink:href="#Cambria-67" transform="translate(102.441406 0)"/>
      <use xlink:href="#Cambria-61" transform="translate(151.855469 0)"/>
      <use xlink:href="#Cambria-63" transform="translate(200.683594 0)"/>
      <use xlink:href="#Cambria-79" transform="translate(244.775391 0)"/>
      <use xlink:href="#Cambria-20" transform="translate(295.166016 0)"/>
      <use xlink:href="#Cambria-50" transform="translate(317.1875 0)"/>
      <use xlink:href="#Cambria-43" transform="translate(373.974609 0)"/>
      <use xlink:href="#Cambria-2d" transform="translate(430.224609 0)"/>
      <use xlink:href="#Cambria-53" transform="translate(463.427734 0)"/>
      <use xlink:href="#Cambria-41" transform="translate(512.162109 0)"/>
      <use xlink:href="#Cambria-46" transform="translate(574.466797 0)"/>
      <use xlink:href="#Cambria-54" transform="translate(628.128906 0)"/>
     </g>
    </g>
    <g id="line2d_98">
     <path d="M 458.12056 313.222641
L 466.62056 313.222641
L 475.12056 313.222641
" style="fill: none; stroke: #404040; stroke-width: 2.2; stroke-linecap: square"/>
    </g>
    <g id="text_26">
     <!-- Neutral ePC-SAFT parity -->
     <g transform="translate(481.92056 316.197641) scale(0.085 -0.085)">
      <defs>
       <path id="Cambria-4e" d="M 2888 1691
Q 3000 1503 3076 1362
Q 3153 1222 3234 1047
L 3275 1047
Q 3259 1238 3246 1805
Q 3234 2372 3234 2828
L 3234 3484
Q 3234 3700 3221 3800
Q 3209 3900 3176 3953
Q 3144 4006 3086 4039
Q 3028 4072 2884 4113
L 2884 4266
L 4009 4266
L 4009 4113
Q 3869 4075 3811 4044
Q 3753 4013 3717 3963
Q 3681 3913 3662 3813
Q 3644 3713 3644 3484
L 3644 -19
L 3253 -19
L 1513 2900
Q 1350 3172 1281 3297
Q 1213 3422 1153 3544
L 1100 3544
Q 1122 3303 1131 2673
Q 1141 2044 1141 1419
L 1141 781
Q 1141 572 1155 475
Q 1169 378 1201 322
Q 1234 266 1298 228
Q 1363 191 1506 153
L 1506 0
L 366 0
L 366 153
Q 559 203 625 264
Q 691 325 711 437
Q 731 550 731 781
L 731 3484
Q 731 3700 715 3798
Q 700 3897 664 3951
Q 628 4006 568 4039
Q 509 4072 366 4113
L 366 4266
L 1344 4266
L 2888 1691
z
" transform="scale(0.015625)"/>
      </defs>
      <use xlink:href="#Cambria-4e"/>
      <use xlink:href="#Cambria-65" transform="translate(68.066406 0)"/>
      <use xlink:href="#Cambria-75" transform="translate(116.845703 0)"/>
      <use xlink:href="#Cambria-74" transform="translate(172.070312 0)"/>
      <use xlink:href="#Cambria-72" transform="translate(205.908203 0)"/>
      <use xlink:href="#Cambria-61" transform="translate(247.265625 0)"/>
      <use xlink:href="#Cambria-6c" transform="translate(296.09375 0)"/>
      <use xlink:href="#Cambria-20" transform="translate(323.242188 0)"/>
      <use xlink:href="#Cambria-65" transform="translate(345.263672 0)"/>
      <use xlink:href="#Cambria-50" transform="translate(394.042969 0)"/>
      <use xlink:href="#Cambria-43" transform="translate(450.830078 0)"/>
      <use xlink:href="#Cambria-2d" transform="translate(507.080078 0)"/>
      <use xlink:href="#Cambria-53" transform="translate(540.283203 0)"/>
      <use xlink:href="#Cambria-41" transform="translate(589.017578 0)"/>
      <use xlink:href="#Cambria-46" transform="translate(651.322266 0)"/>
      <use xlink:href="#Cambria-54" transform="translate(704.984375 0)"/>
      <use xlink:href="#Cambria-20" transform="translate(764.261719 0)"/>
      <use xlink:href="#Cambria-70" transform="translate(786.283203 0)"/>
      <use xlink:href="#Cambria-61" transform="translate(841.898438 0)"/>
      <use xlink:href="#Cambria-72" transform="translate(890.726562 0)"/>
      <use xlink:href="#Cambria-69" transform="translate(932.083984 0)"/>
      <use xlink:href="#Cambria-74" transform="translate(959.867188 0)"/>
      <use xlink:href="#Cambria-79" transform="translate(993.705078 0)"/>
     </g>
    </g>
   </g>
  </g>
 </g>
 <defs>
  <clipPath id="pffe29043f1">
   <rect x="48.46" y="26.289844" width="394.128" height="299.376"/>
  </clipPath>
 </defs>
</svg>
