<?xml version="1.0" encoding="utf-8" standalone="no"?>
<!DOCTYPE svg PUBLIC "-//W3C//DTD SVG 1.1//EN"
  "http://www.w3.org/Graphics/SVG/1.1/DTD/svg11.dtd">
<svg xmlns:xlink="http://www.w3.org/1999/xlink" width="712.843786pt" height="494.126094pt" viewBox="0 0 712.843786 494.126094" xmlns="http://www.w3.org/2000/svg" version="1.1">
 <metadata>
  <rdf:RDF xmlns:dc="http://purl.org/dc/elements/1.1/" xmlns:cc="http://creativecommons.org/ns#" xmlns:rdf="http://www.w3.org/1999/02/22-rdf-syntax-ns#">
   <cc:Work>
    <dc:type rdf:resource="http://purl.org/dc/dcmitype/StillImage"/>
    <dc:format>image/svg+xml</dc:format>
    <dc:creator>
     <cc:Agent>
      <dc:title>Matplotlib v3.10.9, https://matplotlib.org/</dc:title>
     </cc:Agent>
    </dc:creator>
   </cc:Work>
  </rdf:RDF>
 </metadata>
 <defs>
  <style type="text/css">*{stroke-linejoin: round; stroke-linecap: butt}</style>
 </defs>
 <g id="figure_1">
  <g id="patch_1">
   <path d="M 0 494.126094
L 712.843786 494.126094
L 712.843786 0
L 0 0
z
" style="fill: #ffffff"/>
  </g>
  <g id="axes_1">
   <g id="patch_2">
    <path d="M 57.245938 454.857969
L 697.692224 454.857969
L 697.692224 27.077969
L 57.245938 27.077969
z
" style="fill: #ffffff"/>
   </g>
   <g id="matplotlib.axis_1">
    <g id="xtick_1">
     <g id="line2d_1">
      <path d="M 57.245938 454.857969
L 57.245938 27.077969
" clip-path="url(#pa774fc75f3)" style="fill: none; stroke: #b0b0b0; stroke-opacity: 0.22; stroke-width: 0.8; stroke-linecap: square"/>
     </g>
     <g id="line2d_2">
      <defs>
       <path id="m4e92a786cb" d="M 0 0
L 0 4
" style="stroke: #000000; stroke-width: 0.8"/>
      </defs>
      <g>
       <use xlink:href="#m4e92a786cb" x="57.245938" y="454.857969" style="stroke: #000000; stroke-width: 0.8"/>
      </g>
     </g>
     <g id="text_1">
      <!-- 0.0 -->
      <g transform="translate(49.294375 469.956406) scale(0.1 -0.1)">
       <defs>
        <path id="DejaVuSerif-30" d="M 2034 219
Q 2513 219 2750 744
Q 2988 1269 2988 2328
Q 2988 3391 2750 3916
Q 2513 4441 2034 4441
Q 1556 4441 1318 3916
Q 1081 3391 1081 2328
Q 1081 1269 1318 744
Q 1556 219 2034 219
z
M 2034 -91
Q 1275 -91 848 546
Q 422 1184 422 2328
Q 422 3475 848 4112
Q 1275 4750 2034 4750
Q 2797 4750 3222 4112
Q 3647 3475 3647 2328
Q 3647 1184 3222 546
Q 2797 -91 2034 -91
z
" transform="scale(0.015625)"/>
        <path id="DejaVuSerif-2e" d="M 603 325
Q 603 500 722 622
Q 841 744 1019 744
Q 1191 744 1312 622
Q 1434 500 1434 325
Q 1434 153 1312 31
Q 1191 -91 1019 -91
Q 841 -91 722 29
Q 603 150 603 325
z
" transform="scale(0.015625)"/>
       </defs>
       <use xlink:href="#DejaVuSerif-30"/>
       <use xlink:href="#DejaVuSerif-2e" transform="translate(63.623047 0)"/>
       <use xlink:href="#DejaVuSerif-30" transform="translate(95.410156 0)"/>
      </g>
     </g>
    </g>
    <g id="xtick_2">
     <g id="line2d_3">
      <path d="M 137.301723 454.857969
L 137.301723 27.077969
" clip-path="url(#pa774fc75f3)" style="fill: none; stroke: #b0b0b0; stroke-opacity: 0.22; stroke-width: 0.8; stroke-linecap: square"/>
     </g>
     <g id="line2d_4">
      <g>
       <use xlink:href="#m4e92a786cb" x="137.301723" y="454.857969" style="stroke: #000000; stroke-width: 0.8"/>
      </g>
     </g>
     <g id="text_2">
      <!-- 0.1 -->
      <g transform="translate(129.350161 469.956406) scale(0.1 -0.1)">
       <defs>
        <path id="DejaVuSerif-31" d="M 909 0
L 909 331
L 1722 331
L 1722 4213
L 781 3603
L 781 4013
L 1919 4750
L 2350 4750
L 2350 331
L 3163 331
L 3163 0
L 909 0
z
" transform="scale(0.015625)"/>
       </defs>
       <use xlink:href="#DejaVuSerif-30"/>
       <use xlink:href="#DejaVuSerif-2e" transform="translate(63.623047 0)"/>
       <use xlink:href="#DejaVuSerif-31" transform="translate(95.410156 0)"/>
      </g>
     </g>
    </g>
    <g id="xtick_3">
     <g id="line2d_5">
      <path d="M 217.357509 454.857969
L 217.357509 27.077969
" clip-path="url(#pa774fc75f3)" style="fill: none; stroke: #b0b0b0; stroke-opacity: 0.22; stroke-width: 0.8; stroke-linecap: square"/>
     </g>
     <g id="line2d_6">
      <g>
       <use xlink:href="#m4e92a786cb" x="217.357509" y="454.857969" style="stroke: #000000; stroke-width: 0.8"/>
      </g>
     </g>
     <g id="text_3">
      <!-- 0.2 -->
      <g transform="translate(209.405947 469.956406) scale(0.1 -0.1)">
       <defs>
        <path id="DejaVuSerif-32" d="M 819 3553
L 469 3553
L 469 4384
Q 803 4563 1142 4656
Q 1481 4750 1806 4750
Q 2534 4750 2956 4397
Q 3378 4044 3378 3438
Q 3378 2753 2422 1800
Q 2347 1728 2309 1691
L 1131 513
L 3078 513
L 3078 1088
L 3444 1088
L 3444 0
L 434 0
L 434 341
L 1850 1753
Q 2319 2222 2519 2614
Q 2719 3006 2719 3438
Q 2719 3909 2473 4175
Q 2228 4441 1797 4441
Q 1350 4441 1106 4219
Q 863 3997 819 3553
z
" transform="scale(0.015625)"/>
       </defs>
       <use xlink:href="#DejaVuSerif-30"/>
       <use xlink:href="#DejaVuSerif-2e" transform="translate(63.623047 0)"/>
       <use xlink:href="#DejaVuSerif-32" transform="translate(95.410156 0)"/>
      </g>
     </g>
    </g>
    <g id="xtick_4">
     <g id="line2d_7">
      <path d="M 297.413295 454.857969
L 297.413295 27.077969
" clip-path="url(#pa774fc75f3)" style="fill: none; stroke: #b0b0b0; stroke-opacity: 0.22; stroke-width: 0.8; stroke-linecap: square"/>
     </g>
     <g id="line2d_8">
      <g>
       <use xlink:href="#m4e92a786cb" x="297.413295" y="454.857969" style="stroke: #000000; stroke-width: 0.8"/>
      </g>
     </g>
     <g id="text_4">
      <!-- 0.3 -->
      <g transform="translate(289.461732 469.956406) scale(0.1 -0.1)">
       <defs>
        <path id="DejaVuSerif-33" d="M 622 4469
Q 988 4606 1323 4678
Q 1659 4750 1953 4750
Q 2638 4750 3022 4454
Q 3406 4159 3406 3634
Q 3406 3213 3140 2930
Q 2875 2647 2388 2547
Q 2963 2466 3280 2130
Q 3597 1794 3597 1259
Q 3597 606 3158 257
Q 2719 -91 1894 -91
Q 1528 -91 1179 -12
Q 831 66 488 225
L 488 1131
L 838 1131
Q 869 681 1141 450
Q 1413 219 1906 219
Q 2384 219 2661 495
Q 2938 772 2938 1253
Q 2938 1803 2653 2086
Q 2369 2369 1819 2369
L 1522 2369
L 1522 2688
L 1678 2688
Q 2225 2688 2498 2914
Q 2772 3141 2772 3597
Q 2772 4006 2547 4223
Q 2322 4441 1900 4441
Q 1478 4441 1245 4241
Q 1013 4041 972 3647
L 622 3647
L 622 4469
z
" transform="scale(0.015625)"/>
       </defs>
       <use xlink:href="#DejaVuSerif-30"/>
       <use xlink:href="#DejaVuSerif-2e" transform="translate(63.623047 0)"/>
       <use xlink:href="#DejaVuSerif-33" transform="translate(95.410156 0)"/>
      </g>
     </g>
    </g>
    <g id="xtick_5">
     <g id="line2d_9">
      <path d="M 377.469081 454.857969
L 377.469081 27.077969
" clip-path="url(#pa774fc75f3)" style="fill: none; stroke: #b0b0b0; stroke-opacity: 0.22; stroke-width: 0.8; stroke-linecap: square"/>
     </g>
     <g id="line2d_10">
      <g>
       <use xlink:href="#m4e92a786cb" x="377.469081" y="454.857969" style="stroke: #000000; stroke-width: 0.8"/>
      </g>
     </g>
     <g id="text_5">
      <!-- 0.4 -->
      <g transform="translate(369.517518 469.956406) scale(0.1 -0.1)">
       <defs>
        <path id="DejaVuSerif-34" d="M 2234 1581
L 2234 4063
L 641 1581
L 2234 1581
z
M 3609 0
L 1484 0
L 1484 331
L 2234 331
L 2234 1247
L 197 1247
L 197 1588
L 2241 4750
L 2859 4750
L 2859 1581
L 3750 1581
L 3750 1247
L 2859 1247
L 2859 331
L 3609 331
L 3609 0
z
" transform="scale(0.015625)"/>
       </defs>
       <use xlink:href="#DejaVuSerif-30"/>
       <use xlink:href="#DejaVuSerif-2e" transform="translate(63.623047 0)"/>
       <use xlink:href="#DejaVuSerif-34" transform="translate(95.410156 0)"/>
      </g>
     </g>
    </g>
    <g id="xtick_6">
     <g id="line2d_11">
      <path d="M 457.524867 454.857969
L 457.524867 27.077969
" clip-path="url(#pa774fc75f3)" style="fill: none; stroke: #b0b0b0; stroke-opacity: 0.22; stroke-width: 0.8; stroke-linecap: square"/>
     </g>
     <g id="line2d_12">
      <g>
       <use xlink:href="#m4e92a786cb" x="457.524867" y="454.857969" style="stroke: #000000; stroke-width: 0.8"/>
      </g>
     </g>
     <g id="text_6">
      <!-- 0.5 -->
      <g transform="translate(449.573304 469.956406) scale(0.1 -0.1)">
       <defs>
        <path id="DejaVuSerif-35" d="M 3219 4666
L 3219 4153
L 1081 4153
L 1081 2816
Q 1244 2928 1461 2984
Q 1678 3041 1947 3041
Q 2703 3041 3140 2622
Q 3578 2203 3578 1478
Q 3578 738 3136 323
Q 2694 -91 1894 -91
Q 1572 -91 1234 -12
Q 897 66 544 225
L 544 1131
L 897 1131
Q 925 688 1179 453
Q 1434 219 1894 219
Q 2388 219 2653 544
Q 2919 869 2919 1478
Q 2919 2084 2655 2407
Q 2391 2731 1894 2731
Q 1613 2731 1398 2631
Q 1184 2531 1019 2322
L 750 2322
L 750 4666
L 3219 4666
z
" transform="scale(0.015625)"/>
       </defs>
       <use xlink:href="#DejaVuSerif-30"/>
       <use xlink:href="#DejaVuSerif-2e" transform="translate(63.623047 0)"/>
       <use xlink:href="#DejaVuSerif-35" transform="translate(95.410156 0)"/>
      </g>
     </g>
    </g>
    <g id="xtick_7">
     <g id="line2d_13">
      <path d="M 537.580652 454.857969
L 537.580652 27.077969
" clip-path="url(#pa774fc75f3)" style="fill: none; stroke: #b0b0b0; stroke-opacity: 0.22; stroke-width: 0.8; stroke-linecap: square"/>
     </g>
     <g id="line2d_14">
      <g>
       <use xlink:href="#m4e92a786cb" x="537.580652" y="454.857969" style="stroke: #000000; stroke-width: 0.8"/>
      </g>
     </g>
     <g id="text_7">
      <!-- 0.6 -->
      <g transform="translate(529.62909 469.956406) scale(0.1 -0.1)">
       <defs>
        <path id="DejaVuSerif-36" d="M 2094 219
Q 2534 219 2771 542
Q 3009 866 3009 1472
Q 3009 2078 2771 2401
Q 2534 2725 2094 2725
Q 1647 2725 1412 2412
Q 1178 2100 1178 1509
Q 1178 888 1415 553
Q 1653 219 2094 219
z
M 1075 2569
Q 1288 2803 1556 2918
Q 1825 3034 2163 3034
Q 2859 3034 3264 2615
Q 3669 2197 3669 1472
Q 3669 763 3233 336
Q 2797 -91 2069 -91
Q 1278 -91 853 498
Q 428 1088 428 2181
Q 428 3406 931 4078
Q 1434 4750 2350 4750
Q 2597 4750 2869 4703
Q 3141 4656 3425 4563
L 3425 3794
L 3072 3794
Q 3034 4109 2831 4275
Q 2628 4441 2284 4441
Q 1678 4441 1381 3981
Q 1084 3522 1075 2569
z
" transform="scale(0.015625)"/>
       </defs>
       <use xlink:href="#DejaVuSerif-30"/>
       <use xlink:href="#DejaVuSerif-2e" transform="translate(63.623047 0)"/>
       <use xlink:href="#DejaVuSerif-36" transform="translate(95.410156 0)"/>
      </g>
     </g>
    </g>
    <g id="xtick_8">
     <g id="line2d_15">
      <path d="M 617.636438 454.857969
L 617.636438 27.077969
" clip-path="url(#pa774fc75f3)" style="fill: none; stroke: #b0b0b0; stroke-opacity: 0.22; stroke-width: 0.8; stroke-linecap: square"/>
     </g>
     <g id="line2d_16">
      <g>
       <use xlink:href="#m4e92a786cb" x="617.636438" y="454.857969" style="stroke: #000000; stroke-width: 0.8"/>
      </g>
     </g>
     <g id="text_8">
      <!-- 0.7 -->
      <g transform="translate(609.684876 469.956406) scale(0.1 -0.1)">
       <defs>
        <path id="DejaVuSerif-37" d="M 3609 4347
L 1784 0
L 1319 0
L 3059 4153
L 903 4153
L 903 3578
L 538 3578
L 538 4666
L 3609 4666
L 3609 4347
z
" transform="scale(0.015625)"/>
       </defs>
       <use xlink:href="#DejaVuSerif-30"/>
       <use xlink:href="#DejaVuSerif-2e" transform="translate(63.623047 0)"/>
       <use xlink:href="#DejaVuSerif-37" transform="translate(95.410156 0)"/>
      </g>
     </g>
    </g>
    <g id="xtick_9">
     <g id="line2d_17">
      <path d="M 697.692224 454.857969
L 697.692224 27.077969
" clip-path="url(#pa774fc75f3)" style="fill: none; stroke: #b0b0b0; stroke-opacity: 0.22; stroke-width: 0.8; stroke-linecap: square"/>
     </g>
     <g id="line2d_18">
      <g>
       <use xlink:href="#m4e92a786cb" x="697.692224" y="454.857969" style="stroke: #000000; stroke-width: 0.8"/>
      </g>
     </g>
     <g id="text_9">
      <!-- 0.8 -->
      <g transform="translate(689.740661 469.956406) scale(0.1 -0.1)">
       <defs>
        <path id="DejaVuSerif-38" d="M 2981 1275
Q 2981 1775 2732 2051
Q 2484 2328 2034 2328
Q 1584 2328 1336 2051
Q 1088 1775 1088 1275
Q 1088 772 1336 495
Q 1584 219 2034 219
Q 2484 219 2732 495
Q 2981 772 2981 1275
z
M 2853 3541
Q 2853 3966 2637 4203
Q 2422 4441 2034 4441
Q 1650 4441 1433 4203
Q 1216 3966 1216 3541
Q 1216 3113 1433 2875
Q 1650 2638 2034 2638
Q 2422 2638 2637 2875
Q 2853 3113 2853 3541
z
M 2516 2484
Q 3047 2413 3344 2092
Q 3641 1772 3641 1275
Q 3641 619 3225 264
Q 2809 -91 2034 -91
Q 1263 -91 845 264
Q 428 619 428 1275
Q 428 1772 725 2092
Q 1022 2413 1556 2484
Q 1084 2569 832 2842
Q 581 3116 581 3541
Q 581 4103 968 4426
Q 1356 4750 2034 4750
Q 2713 4750 3100 4426
Q 3488 4103 3488 3541
Q 3488 3116 3236 2842
Q 2984 2569 2516 2484
z
" transform="scale(0.015625)"/>
       </defs>
       <use xlink:href="#DejaVuSerif-30"/>
       <use xlink:href="#DejaVuSerif-2e" transform="translate(63.623047 0)"/>
       <use xlink:href="#DejaVuSerif-38" transform="translate(95.410156 0)"/>
      </g>
     </g>
    </g>
    <g id="text_10">
     <!-- $CO_2$ loading, mol $CO_2$/mol MEA -->
     <g transform="translate(289.359081 484.396094) scale(0.11 -0.11)">
      <defs>
       <path id="DejaVuSerif-Italic-43" d="M 4300 1234
Q 3966 581 3414 245
Q 2863 -91 2119 -91
Q 1663 -91 1303 65
Q 944 222 700 525
Q 419 875 334 1320
Q 250 1766 359 2328
Q 572 3416 1330 4083
Q 2088 4750 3116 4750
Q 3497 4750 3908 4650
Q 4319 4550 4775 4347
L 4569 3272
L 4216 3272
Q 4213 3859 3919 4137
Q 3625 4416 2997 4416
Q 2250 4416 1762 3886
Q 1275 3356 1075 2328
Q 875 1303 1156 773
Q 1438 244 2184 244
Q 2706 244 3092 492
Q 3478 741 3725 1234
L 4300 1234
z
" transform="scale(0.015625)"/>
       <path id="DejaVuSerif-Italic-4f" d="M 2219 244
Q 2984 244 3478 770
Q 3972 1297 4172 2328
Q 4372 3363 4084 3889
Q 3797 4416 3031 4416
Q 2263 4416 1769 3889
Q 1275 3363 1075 2328
Q 875 1297 1162 770
Q 1450 244 2219 244
z
M 2153 -91
Q 1678 -91 1311 65
Q 944 222 700 525
Q 419 875 334 1319
Q 250 1763 359 2328
Q 469 2894 725 3339
Q 981 3784 1400 4134
Q 1766 4441 2191 4595
Q 2616 4750 3097 4750
Q 4113 4750 4608 4084
Q 5103 3419 4891 2328
Q 4781 1769 4522 1320
Q 4263 872 3847 525
Q 3481 219 3056 64
Q 2631 -91 2153 -91
z
" transform="scale(0.015625)"/>
       <path id="DejaVuSerif-20" transform="scale(0.015625)"/>
       <path id="DejaVuSerif-6c" d="M 1313 331
L 1856 331
L 1856 0
L 184 0
L 184 331
L 738 331
L 738 4531
L 184 4531
L 184 4863
L 1313 4863
L 1313 331
z
" transform="scale(0.015625)"/>
       <path id="DejaVuSerif-6f" d="M 1925 219
Q 2388 219 2623 584
Q 2859 950 2859 1663
Q 2859 2375 2623 2739
Q 2388 3103 1925 3103
Q 1463 3103 1227 2739
Q 991 2375 991 1663
Q 991 950 1228 584
Q 1466 219 1925 219
z
M 1925 -91
Q 1200 -91 759 389
Q 319 869 319 1663
Q 319 2456 758 2934
Q 1197 3413 1925 3413
Q 2653 3413 3092 2934
Q 3531 2456 3531 1663
Q 3531 869 3092 389
Q 2653 -91 1925 -91
z
" transform="scale(0.015625)"/>
       <path id="DejaVuSerif-61" d="M 2547 1044
L 2547 1747
L 1806 1747
Q 1378 1747 1168 1562
Q 959 1378 959 997
Q 959 650 1171 447
Q 1384 244 1747 244
Q 2106 244 2326 466
Q 2547 688 2547 1044
z
M 3122 2075
L 3122 331
L 3634 331
L 3634 0
L 2547 0
L 2547 359
Q 2356 128 2106 18
Q 1856 -91 1522 -91
Q 969 -91 644 203
Q 319 497 319 997
Q 319 1513 691 1797
Q 1063 2081 1741 2081
L 2547 2081
L 2547 2309
Q 2547 2688 2317 2895
Q 2088 3103 1672 3103
Q 1328 3103 1125 2947
Q 922 2791 872 2484
L 575 2484
L 575 3156
Q 875 3284 1158 3348
Q 1441 3413 1709 3413
Q 2400 3413 2761 3070
Q 3122 2728 3122 2075
z
" transform="scale(0.015625)"/>
       <path id="DejaVuSerif-64" d="M 3359 331
L 3909 331
L 3909 0
L 2784 0
L 2784 519
Q 2616 206 2355 57
Q 2094 -91 1709 -91
Q 1097 -91 708 395
Q 319 881 319 1663
Q 319 2444 706 2928
Q 1094 3413 1709 3413
Q 2094 3413 2355 3264
Q 2616 3116 2784 2803
L 2784 4531
L 2241 4531
L 2241 4863
L 3359 4863
L 3359 331
z
M 2784 1497
L 2784 1825
Q 2784 2422 2554 2737
Q 2325 3053 1888 3053
Q 1444 3053 1217 2703
Q 991 2353 991 1663
Q 991 975 1217 622
Q 1444 269 1888 269
Q 2325 269 2554 583
Q 2784 897 2784 1497
z
" transform="scale(0.015625)"/>
       <path id="DejaVuSerif-69" d="M 622 4353
Q 622 4497 726 4603
Q 831 4709 978 4709
Q 1122 4709 1226 4603
Q 1331 4497 1331 4353
Q 1331 4206 1228 4103
Q 1125 4000 978 4000
Q 831 4000 726 4103
Q 622 4206 622 4353
z
M 1356 331
L 1900 331
L 1900 0
L 231 0
L 231 331
L 781 331
L 781 2988
L 231 2988
L 231 3322
L 1356 3322
L 1356 331
z
" transform="scale(0.015625)"/>
       <path id="DejaVuSerif-6e" d="M 263 0
L 263 331
L 781 331
L 781 2988
L 231 2988
L 231 3322
L 1356 3322
L 1356 2731
Q 1516 3069 1770 3241
Q 2025 3413 2363 3413
Q 2913 3413 3172 3097
Q 3431 2781 3431 2113
L 3431 331
L 3944 331
L 3944 0
L 2356 0
L 2356 331
L 2853 331
L 2853 1931
Q 2853 2541 2703 2767
Q 2553 2994 2175 2994
Q 1775 2994 1565 2701
Q 1356 2409 1356 1850
L 1356 331
L 1856 331
L 1856 0
L 263 0
z
" transform="scale(0.015625)"/>
       <path id="DejaVuSerif-67" d="M 3359 2988
L 3359 72
Q 3359 -644 2965 -1033
Q 2572 -1422 1844 -1422
Q 1516 -1422 1216 -1362
Q 916 -1303 641 -1184
L 641 -488
L 941 -488
Q 997 -813 1206 -963
Q 1416 -1113 1806 -1113
Q 2313 -1113 2548 -827
Q 2784 -541 2784 72
L 2784 519
Q 2616 206 2355 57
Q 2094 -91 1709 -91
Q 1097 -91 708 395
Q 319 881 319 1663
Q 319 2444 706 2928
Q 1094 3413 1709 3413
Q 2094 3413 2355 3264
Q 2616 3116 2784 2803
L 2784 3322
L 3909 3322
L 3909 2988
L 3359 2988
z
M 2784 1825
Q 2784 2422 2554 2737
Q 2325 3053 1888 3053
Q 1444 3053 1217 2703
Q 991 2353 991 1663
Q 991 975 1217 622
Q 1444 269 1888 269
Q 2325 269 2554 583
Q 2784 897 2784 1497
L 2784 1825
z
" transform="scale(0.015625)"/>
       <path id="DejaVuSerif-2c" d="M 231 -622
Q 525 -406 662 -114
Q 800 178 800 594
L 800 709
L 1416 709
Q 1391 175 1164 -208
Q 938 -591 481 -872
L 231 -622
z
" transform="scale(0.015625)"/>
       <path id="DejaVuSerif-6d" d="M 3316 2675
Q 3481 3041 3739 3227
Q 3997 3413 4341 3413
Q 4863 3413 5119 3089
Q 5375 2766 5375 2113
L 5375 331
L 5894 331
L 5894 0
L 4300 0
L 4300 331
L 4800 331
L 4800 2047
Q 4800 2556 4650 2772
Q 4500 2988 4153 2988
Q 3769 2988 3567 2697
Q 3366 2406 3366 1850
L 3366 331
L 3866 331
L 3866 0
L 2291 0
L 2291 331
L 2791 331
L 2791 2069
Q 2791 2566 2641 2777
Q 2491 2988 2144 2988
Q 1759 2988 1557 2697
Q 1356 2406 1356 1850
L 1356 331
L 1856 331
L 1856 0
L 263 0
L 263 331
L 781 331
L 781 2994
L 231 2994
L 231 3322
L 1356 3322
L 1356 2731
Q 1516 3063 1762 3238
Q 2009 3413 2322 3413
Q 2709 3413 2968 3220
Q 3228 3028 3316 2675
z
" transform="scale(0.015625)"/>
       <path id="DejaVuSerif-2f" d="M 1656 4666
L 2156 4666
L 500 -594
L 0 -594
L 1656 4666
z
" transform="scale(0.015625)"/>
       <path id="DejaVuSerif-4d" d="M 353 0
L 353 331
L 947 331
L 947 4331
L 319 4331
L 319 4666
L 1678 4666
L 3316 1344
L 4953 4666
L 6228 4666
L 6228 4331
L 5606 4331
L 5606 331
L 6203 331
L 6203 0
L 4378 0
L 4378 331
L 4972 331
L 4972 3938
L 3372 684
L 2931 684
L 1331 3938
L 1331 331
L 1925 331
L 1925 0
L 353 0
z
" transform="scale(0.015625)"/>
       <path id="DejaVuSerif-45" d="M 353 0
L 353 331
L 947 331
L 947 4331
L 353 4331
L 353 4666
L 4109 4666
L 4109 3628
L 3725 3628
L 3725 4281
L 1581 4281
L 1581 2719
L 3109 2719
L 3109 3303
L 3494 3303
L 3494 1753
L 3109 1753
L 3109 2338
L 1581 2338
L 1581 384
L 3775 384
L 3775 1038
L 4159 1038
L 4159 0
L 353 0
z
" transform="scale(0.015625)"/>
       <path id="DejaVuSerif-41" d="M 1281 1691
L 2994 1691
L 2138 3909
L 1281 1691
z
M -38 0
L -38 331
L 372 331
L 2034 4666
L 2559 4666
L 4225 331
L 4684 331
L 4684 0
L 2988 0
L 2988 331
L 3506 331
L 3116 1356
L 1153 1356
L 763 331
L 1275 331
L 1275 0
L -38 0
z
" transform="scale(0.015625)"/>
      </defs>
      <use xlink:href="#DejaVuSerif-Italic-43" transform="translate(0 0.015625)"/>
      <use xlink:href="#DejaVuSerif-Italic-4f" transform="translate(76.513672 0.015625)"/>
      <use xlink:href="#DejaVuSerif-32" transform="translate(158.496094 -15.55625) scale(0.7)"/>
      <use xlink:href="#DejaVuSerif-20" transform="translate(205.627539 0.015625)"/>
      <use xlink:href="#DejaVuSerif-6c" transform="translate(237.414648 0.015625)"/>
      <use xlink:href="#DejaVuSerif-6f" transform="translate(269.39707 0.015625)"/>
      <use xlink:href="#DejaVuSerif-61" transform="translate(329.602148 0.015625)"/>
      <use xlink:href="#DejaVuSerif-64" transform="translate(389.221289 0.015625)"/>
      <use xlink:href="#DejaVuSerif-69" transform="translate(453.234961 0.015625)"/>
      <use xlink:href="#DejaVuSerif-6e" transform="translate(485.217383 0.015625)"/>
      <use xlink:href="#DejaVuSerif-67" transform="translate(549.62168 0.015625)"/>
      <use xlink:href="#DejaVuSerif-2c" transform="translate(613.635352 0.015625)"/>
      <use xlink:href="#DejaVuSerif-20" transform="translate(645.422461 0.015625)"/>
      <use xlink:href="#DejaVuSerif-6d" transform="translate(677.20957 0.015625)"/>
      <use xlink:href="#DejaVuSerif-6f" transform="translate(772.033789 0.015625)"/>
      <use xlink:href="#DejaVuSerif-6c" transform="translate(832.238867 0.015625)"/>
      <use xlink:href="#DejaVuSerif-20" transform="translate(864.221289 0.015625)"/>
      <use xlink:href="#DejaVuSerif-Italic-43" transform="translate(896.008398 0.015625)"/>
      <use xlink:href="#DejaVuSerif-Italic-4f" transform="translate(972.52207 0.015625)"/>
      <use xlink:href="#DejaVuSerif-32" transform="translate(1054.504492 -15.55625) scale(0.7)"/>
      <use xlink:href="#DejaVuSerif-2f" transform="translate(1101.635937 0.015625)"/>
      <use xlink:href="#DejaVuSerif-6d" transform="translate(1135.327344 0.015625)"/>
      <use xlink:href="#DejaVuSerif-6f" transform="translate(1230.151562 0.015625)"/>
      <use xlink:href="#DejaVuSerif-6c" transform="translate(1290.356641 0.015625)"/>
      <use xlink:href="#DejaVuSerif-20" transform="translate(1322.339062 0.015625)"/>
      <use xlink:href="#DejaVuSerif-4d" transform="translate(1354.126172 0.015625)"/>
      <use xlink:href="#DejaVuSerif-45" transform="translate(1456.51875 0.015625)"/>
      <use xlink:href="#DejaVuSerif-41" transform="translate(1529.516797 0.015625)"/>
     </g>
    </g>
   </g>
   <g id="matplotlib.axis_2">
    <g id="ytick_1">
     <g id="line2d_19">
      <path d="M 57.245938 393.74654
L 697.692224 393.74654
" clip-path="url(#pa774fc75f3)" style="fill: none; stroke: #b0b0b0; stroke-opacity: 0.22; stroke-width: 0.8; stroke-linecap: square"/>
     </g>
     <g id="line2d_20">
      <defs>
       <path id="mc5eb3276a0" d="M 0 0
L -4 0
" style="stroke: #000000; stroke-width: 0.8"/>
      </defs>
      <g>
       <use xlink:href="#mc5eb3276a0" x="57.245938" y="393.74654" style="stroke: #000000; stroke-width: 0.8"/>
      </g>
     </g>
     <g id="text_11">
      <!-- $\mathdefault{10^{-12}}$ -->
      <g transform="translate(21.845938 397.545759) scale(0.1 -0.1)">
       <defs>
        <path id="DejaVuSerif-2212" d="M 678 2259
L 4684 2259
L 4684 1753
L 678 1753
L 678 2259
z
" transform="scale(0.015625)"/>
       </defs>
       <use xlink:href="#DejaVuSerif-31" transform="translate(0 0.7125)"/>
       <use xlink:href="#DejaVuSerif-30" transform="translate(63.623047 0.7125)"/>
       <use xlink:href="#DejaVuSerif-2212" transform="translate(128.154453 37.046875) scale(0.7)"/>
       <use xlink:href="#DejaVuSerif-31" transform="translate(186.806797 37.046875) scale(0.7)"/>
       <use xlink:href="#DejaVuSerif-32" transform="translate(231.34293 37.046875) scale(0.7)"/>
      </g>
     </g>
    </g>
    <g id="ytick_2">
     <g id="line2d_21">
      <path d="M 57.245938 363.190826
L 697.692224 363.190826
" clip-path="url(#pa774fc75f3)" style="fill: none; stroke: #b0b0b0; stroke-opacity: 0.22; stroke-width: 0.8; stroke-linecap: square"/>
     </g>
     <g id="line2d_22">
      <g>
       <use xlink:href="#mc5eb3276a0" x="57.245938" y="363.190826" style="stroke: #000000; stroke-width: 0.8"/>
      </g>
     </g>
     <g id="text_12">
      <!-- $\mathdefault{10^{-11}}$ -->
      <g transform="translate(21.845938 366.990045) scale(0.1 -0.1)">
       <use xlink:href="#DejaVuSerif-31" transform="translate(0 0.7125)"/>
       <use xlink:href="#DejaVuSerif-30" transform="translate(63.623047 0.7125)"/>
       <use xlink:href="#DejaVuSerif-2212" transform="translate(128.154453 37.046875) scale(0.7)"/>
       <use xlink:href="#DejaVuSerif-31" transform="translate(186.806797 37.046875) scale(0.7)"/>
       <use xlink:href="#DejaVuSerif-31" transform="translate(231.34293 37.046875) scale(0.7)"/>
      </g>
     </g>
    </g>
    <g id="ytick_3">
     <g id="line2d_23">
      <path d="M 57.245938 332.635112
L 697.692224 332.635112
" clip-path="url(#pa774fc75f3)" style="fill: none; stroke: #b0b0b0; stroke-opacity: 0.22; stroke-width: 0.8; stroke-linecap: square"/>
     </g>
     <g id="line2d_24">
      <g>
       <use xlink:href="#mc5eb3276a0" x="57.245938" y="332.635112" style="stroke: #000000; stroke-width: 0.8"/>
      </g>
     </g>
     <g id="text_13">
      <!-- $\mathdefault{10^{-10}}$ -->
      <g transform="translate(21.845938 336.43433) scale(0.1 -0.1)">
       <use xlink:href="#DejaVuSerif-31" transform="translate(0 0.7125)"/>
       <use xlink:href="#DejaVuSerif-30" transform="translate(63.623047 0.7125)"/>
       <use xlink:href="#DejaVuSerif-2212" transform="translate(128.154453 37.046875) scale(0.7)"/>
       <use xlink:href="#DejaVuSerif-31" transform="translate(186.806797 37.046875) scale(0.7)"/>
       <use xlink:href="#DejaVuSerif-30" transform="translate(231.34293 37.046875) scale(0.7)"/>
      </g>
     </g>
    </g>
    <g id="ytick_4">
     <g id="line2d_25">
      <path d="M 57.245938 302.079397
L 697.692224 302.079397
" clip-path="url(#pa774fc75f3)" style="fill: none; stroke: #b0b0b0; stroke-opacity: 0.22; stroke-width: 0.8; stroke-linecap: square"/>
     </g>
     <g id="line2d_26">
      <g>
       <use xlink:href="#mc5eb3276a0" x="57.245938" y="302.079397" style="stroke: #000000; stroke-width: 0.8"/>
      </g>
     </g>
     <g id="text_14">
      <!-- $\mathdefault{10^{-9}}$ -->
      <g transform="translate(26.345938 305.878616) scale(0.1 -0.1)">
       <defs>
        <path id="DejaVuSerif-39" d="M 2994 2091
Q 2784 1856 2512 1740
Q 2241 1625 1900 1625
Q 1206 1625 804 2044
Q 403 2463 403 3188
Q 403 3897 839 4323
Q 1275 4750 2003 4750
Q 2794 4750 3217 4161
Q 3641 3572 3641 2478
Q 3641 1253 3137 581
Q 2634 -91 1722 -91
Q 1475 -91 1203 -44
Q 931 3 647 97
L 647 872
L 997 872
Q 1038 556 1241 387
Q 1444 219 1784 219
Q 2391 219 2687 676
Q 2984 1134 2994 2091
z
M 1978 4441
Q 1534 4441 1298 4117
Q 1063 3794 1063 3188
Q 1063 2581 1298 2256
Q 1534 1931 1978 1931
Q 2422 1931 2658 2245
Q 2894 2559 2894 3150
Q 2894 3772 2656 4106
Q 2419 4441 1978 4441
z
" transform="scale(0.015625)"/>
       </defs>
       <use xlink:href="#DejaVuSerif-31" transform="translate(0 0.7125)"/>
       <use xlink:href="#DejaVuSerif-30" transform="translate(63.623047 0.7125)"/>
       <use xlink:href="#DejaVuSerif-2212" transform="translate(128.154453 37.046875) scale(0.7)"/>
       <use xlink:href="#DejaVuSerif-39" transform="translate(186.806797 37.046875) scale(0.7)"/>
      </g>
     </g>
    </g>
    <g id="ytick_5">
     <g id="line2d_27">
      <path d="M 57.245938 271.523683
L 697.692224 271.523683
" clip-path="url(#pa774fc75f3)" style="fill: none; stroke: #b0b0b0; stroke-opacity: 0.22; stroke-width: 0.8; stroke-linecap: square"/>
     </g>
     <g id="line2d_28">
      <g>
       <use xlink:href="#mc5eb3276a0" x="57.245938" y="271.523683" style="stroke: #000000; stroke-width: 0.8"/>
      </g>
     </g>
     <g id="text_15">
      <!-- $\mathdefault{10^{-8}}$ -->
      <g transform="translate(26.345938 275.322902) scale(0.1 -0.1)">
       <use xlink:href="#DejaVuSerif-31" transform="translate(0 0.7125)"/>
       <use xlink:href="#DejaVuSerif-30" transform="translate(63.623047 0.7125)"/>
       <use xlink:href="#DejaVuSerif-2212" transform="translate(128.154453 37.046875) scale(0.7)"/>
       <use xlink:href="#DejaVuSerif-38" transform="translate(186.806797 37.046875) scale(0.7)"/>
      </g>
     </g>
    </g>
    <g id="ytick_6">
     <g id="line2d_29">
      <path d="M 57.245938 240.967969
L 697.692224 240.967969
" clip-path="url(#pa774fc75f3)" style="fill: none; stroke: #b0b0b0; stroke-opacity: 0.22; stroke-width: 0.8; stroke-linecap: square"/>
     </g>
     <g id="line2d_30">
      <g>
       <use xlink:href="#mc5eb3276a0" x="57.245938" y="240.967969" style="stroke: #000000; stroke-width: 0.8"/>
      </g>
     </g>
     <g id="text_16">
      <!-- $\mathdefault{10^{-7}}$ -->
      <g transform="translate(26.345938 244.767187) scale(0.1 -0.1)">
       <use xlink:href="#DejaVuSerif-31" transform="translate(0 0.63125)"/>
       <use xlink:href="#DejaVuSerif-30" transform="translate(63.623047 0.63125)"/>
       <use xlink:href="#DejaVuSerif-2212" transform="translate(128.154453 36.965625) scale(0.7)"/>
       <use xlink:href="#DejaVuSerif-37" transform="translate(186.806797 36.965625) scale(0.7)"/>
      </g>
     </g>
    </g>
    <g id="ytick_7">
     <g id="line2d_31">
      <path d="M 57.245938 210.412254
L 697.692224 210.412254
" clip-path="url(#pa774fc75f3)" style="fill: none; stroke: #b0b0b0; stroke-opacity: 0.22; stroke-width: 0.8; stroke-linecap: square"/>
     </g>
     <g id="line2d_32">
      <g>
       <use xlink:href="#mc5eb3276a0" x="57.245938" y="210.412254" style="stroke: #000000; stroke-width: 0.8"/>
      </g>
     </g>
     <g id="text_17">
      <!-- $\mathdefault{10^{-6}}$ -->
      <g transform="translate(26.345938 214.211473) scale(0.1 -0.1)">
       <use xlink:href="#DejaVuSerif-31" transform="translate(0 0.7125)"/>
       <use xlink:href="#DejaVuSerif-30" transform="translate(63.623047 0.7125)"/>
       <use xlink:href="#DejaVuSerif-2212" transform="translate(128.154453 37.046875) scale(0.7)"/>
       <use xlink:href="#DejaVuSerif-36" transform="translate(186.806797 37.046875) scale(0.7)"/>
      </g>
     </g>
    </g>
    <g id="ytick_8">
     <g id="line2d_33">
      <path d="M 57.245938 179.85654
L 697.692224 179.85654
" clip-path="url(#pa774fc75f3)" style="fill: none; stroke: #b0b0b0; stroke-opacity: 0.22; stroke-width: 0.8; stroke-linecap: square"/>
     </g>
     <g id="line2d_34">
      <g>
       <use xlink:href="#mc5eb3276a0" x="57.245938" y="179.85654" style="stroke: #000000; stroke-width: 0.8"/>
      </g>
     </g>
     <g id="text_18">
      <!-- $\mathdefault{10^{-5}}$ -->
      <g transform="translate(26.345938 183.655759) scale(0.1 -0.1)">
       <use xlink:href="#DejaVuSerif-31" transform="translate(0 0.63125)"/>
       <use xlink:href="#DejaVuSerif-30" transform="translate(63.623047 0.63125)"/>
       <use xlink:href="#DejaVuSerif-2212" transform="translate(128.154453 36.965625) scale(0.7)"/>
       <use xlink:href="#DejaVuSerif-35" transform="translate(186.806797 36.965625) scale(0.7)"/>
      </g>
     </g>
    </g>
    <g id="ytick_9">
     <g id="line2d_35">
      <path d="M 57.245938 149.300826
L 697.692224 149.300826
" clip-path="url(#pa774fc75f3)" style="fill: none; stroke: #b0b0b0; stroke-opacity: 0.22; stroke-width: 0.8; stroke-linecap: square"/>
     </g>
     <g id="line2d_36">
      <g>
       <use xlink:href="#mc5eb3276a0" x="57.245938" y="149.300826" style="stroke: #000000; stroke-width: 0.8"/>
      </g>
     </g>
     <g id="text_19">
      <!-- $\mathdefault{10^{-4}}$ -->
      <g transform="translate(26.345938 153.100045) scale(0.1 -0.1)">
       <use xlink:href="#DejaVuSerif-31" transform="translate(0 0.7125)"/>
       <use xlink:href="#DejaVuSerif-30" transform="translate(63.623047 0.7125)"/>
       <use xlink:href="#DejaVuSerif-2212" transform="translate(128.154453 37.046875) scale(0.7)"/>
       <use xlink:href="#DejaVuSerif-34" transform="translate(186.806797 37.046875) scale(0.7)"/>
      </g>
     </g>
    </g>
    <g id="ytick_10">
     <g id="line2d_37">
      <path d="M 57.245938 118.745112
L 697.692224 118.745112
" clip-path="url(#pa774fc75f3)" style="fill: none; stroke: #b0b0b0; stroke-opacity: 0.22; stroke-width: 0.8; stroke-linecap: square"/>
     </g>
     <g id="line2d_38">
      <g>
       <use xlink:href="#mc5eb3276a0" x="57.245938" y="118.745112" style="stroke: #000000; stroke-width: 0.8"/>
      </g>
     </g>
     <g id="text_20">
      <!-- $\mathdefault{10^{-3}}$ -->
      <g transform="translate(26.345938 122.54433) scale(0.1 -0.1)">
       <use xlink:href="#DejaVuSerif-31" transform="translate(0 0.7125)"/>
       <use xlink:href="#DejaVuSerif-30" transform="translate(63.623047 0.7125)"/>
       <use xlink:href="#DejaVuSerif-2212" transform="translate(128.154453 37.046875) scale(0.7)"/>
       <use xlink:href="#DejaVuSerif-33" transform="translate(186.806797 37.046875) scale(0.7)"/>
      </g>
     </g>
    </g>
    <g id="ytick_11">
     <g id="line2d_39">
      <path d="M 57.245938 88.189397
L 697.692224 88.189397
" clip-path="url(#pa774fc75f3)" style="fill: none; stroke: #b0b0b0; stroke-opacity: 0.22; stroke-width: 0.8; stroke-linecap: square"/>
     </g>
     <g id="line2d_40">
      <g>
       <use xlink:href="#mc5eb3276a0" x="57.245938" y="88.189397" style="stroke: #000000; stroke-width: 0.8"/>
      </g>
     </g>
     <g id="text_21">
      <!-- $\mathdefault{10^{-2}}$ -->
      <g transform="translate(26.345938 91.988616) scale(0.1 -0.1)">
       <use xlink:href="#DejaVuSerif-31" transform="translate(0 0.7125)"/>
       <use xlink:href="#DejaVuSerif-30" transform="translate(63.623047 0.7125)"/>
       <use xlink:href="#DejaVuSerif-2212" transform="translate(128.154453 37.046875) scale(0.7)"/>
       <use xlink:href="#DejaVuSerif-32" transform="translate(186.806797 37.046875) scale(0.7)"/>
      </g>
     </g>
    </g>
    <g id="ytick_12">
     <g id="line2d_41">
      <path d="M 57.245938 57.633683
L 697.692224 57.633683
" clip-path="url(#pa774fc75f3)" style="fill: none; stroke: #b0b0b0; stroke-opacity: 0.22; stroke-width: 0.8; stroke-linecap: square"/>
     </g>
     <g id="line2d_42">
      <g>
       <use xlink:href="#mc5eb3276a0" x="57.245938" y="57.633683" style="stroke: #000000; stroke-width: 0.8"/>
      </g>
     </g>
     <g id="text_22">
      <!-- $\mathdefault{10^{-1}}$ -->
      <g transform="translate(26.345938 61.432902) scale(0.1 -0.1)">
       <use xlink:href="#DejaVuSerif-31" transform="translate(0 0.7125)"/>
       <use xlink:href="#DejaVuSerif-30" transform="translate(63.623047 0.7125)"/>
       <use xlink:href="#DejaVuSerif-2212" transform="translate(128.154453 37.046875) scale(0.7)"/>
       <use xlink:href="#DejaVuSerif-31" transform="translate(186.806797 37.046875) scale(0.7)"/>
      </g>
     </g>
    </g>
    <g id="ytick_13">
     <g id="line2d_43">
      <path d="M 57.245938 27.077969
L 697.692224 27.077969
" clip-path="url(#pa774fc75f3)" style="fill: none; stroke: #b0b0b0; stroke-opacity: 0.22; stroke-width: 0.8; stroke-linecap: square"/>
     </g>
     <g id="line2d_44">
      <g>
       <use xlink:href="#mc5eb3276a0" x="57.245938" y="27.077969" style="stroke: #000000; stroke-width: 0.8"/>
      </g>
     </g>
     <g id="text_23">
      <!-- $\mathdefault{10^{0}}$ -->
      <g transform="translate(32.145938 30.877187) scale(0.1 -0.1)">
       <use xlink:href="#DejaVuSerif-31" transform="translate(0 0.7125)"/>
       <use xlink:href="#DejaVuSerif-30" transform="translate(63.623047 0.7125)"/>
       <use xlink:href="#DejaVuSerif-30" transform="translate(128.154453 37.046875) scale(0.7)"/>
      </g>
     </g>
    </g>
    <g id="text_24">
     <!-- True-species mole fraction -->
     <g transform="translate(15.558281 315.321094) rotate(-90) scale(0.11 -0.11)">
      <defs>
       <path id="DejaVuSerif-54" d="M 1222 0
L 1222 331
L 1819 331
L 1819 4294
L 447 4294
L 447 3566
L 63 3566
L 63 4666
L 4206 4666
L 4206 3566
L 3822 3566
L 3822 4294
L 2450 4294
L 2450 331
L 3047 331
L 3047 0
L 1222 0
z
" transform="scale(0.015625)"/>
       <path id="DejaVuSerif-72" d="M 3059 3328
L 3059 2497
L 2728 2497
Q 2713 2744 2591 2866
Q 2469 2988 2234 2988
Q 1809 2988 1582 2694
Q 1356 2400 1356 1850
L 1356 331
L 2022 331
L 2022 0
L 263 0
L 263 331
L 781 331
L 781 2994
L 231 2994
L 231 3322
L 1356 3322
L 1356 2731
Q 1525 3078 1790 3245
Q 2056 3413 2438 3413
Q 2578 3413 2733 3391
Q 2888 3369 3059 3328
z
" transform="scale(0.015625)"/>
       <path id="DejaVuSerif-75" d="M 2266 3322
L 3341 3322
L 3341 331
L 3884 331
L 3884 0
L 2766 0
L 2766 588
Q 2606 256 2353 82
Q 2100 -91 1766 -91
Q 1213 -91 952 223
Q 691 538 691 1209
L 691 2988
L 172 2988
L 172 3322
L 1269 3322
L 1269 1388
Q 1269 781 1417 556
Q 1566 331 1947 331
Q 2347 331 2556 625
Q 2766 919 2766 1478
L 2766 2988
L 2266 2988
L 2266 3322
z
" transform="scale(0.015625)"/>
       <path id="DejaVuSerif-65" d="M 3469 1600
L 991 1600
L 991 1575
Q 991 903 1244 561
Q 1497 219 1991 219
Q 2369 219 2611 417
Q 2853 616 2950 1006
L 3413 1006
Q 3275 459 2904 184
Q 2534 -91 1931 -91
Q 1203 -91 761 389
Q 319 869 319 1663
Q 319 2450 753 2931
Q 1188 3413 1894 3413
Q 2647 3413 3050 2948
Q 3453 2484 3469 1600
z
M 2791 1931
Q 2772 2513 2545 2808
Q 2319 3103 1894 3103
Q 1497 3103 1269 2806
Q 1041 2509 991 1931
L 2791 1931
z
" transform="scale(0.015625)"/>
       <path id="DejaVuSerif-2d" d="M 281 1959
L 1881 1959
L 1881 1472
L 281 1472
L 281 1959
z
" transform="scale(0.015625)"/>
       <path id="DejaVuSerif-73" d="M 359 184
L 359 959
L 691 959
Q 703 588 923 403
Q 1144 219 1575 219
Q 1963 219 2166 364
Q 2369 509 2369 788
Q 2369 1006 2220 1140
Q 2072 1275 1594 1428
L 1178 1569
Q 750 1706 558 1912
Q 366 2119 366 2438
Q 366 2894 700 3153
Q 1034 3413 1625 3413
Q 1888 3413 2178 3344
Q 2469 3275 2778 3144
L 2778 2419
L 2447 2419
Q 2434 2741 2221 2922
Q 2009 3103 1644 3103
Q 1281 3103 1095 2975
Q 909 2847 909 2591
Q 909 2381 1050 2254
Q 1191 2128 1613 1997
L 2069 1856
Q 2541 1709 2748 1489
Q 2956 1269 2956 922
Q 2956 450 2595 179
Q 2234 -91 1600 -91
Q 1278 -91 972 -22
Q 666 47 359 184
z
" transform="scale(0.015625)"/>
       <path id="DejaVuSerif-70" d="M 1313 1825
L 1313 1497
Q 1313 897 1542 583
Q 1772 269 2209 269
Q 2650 269 2876 622
Q 3103 975 3103 1663
Q 3103 2353 2876 2703
Q 2650 3053 2209 3053
Q 1772 3053 1542 2737
Q 1313 2422 1313 1825
z
M 738 2988
L 184 2988
L 184 3322
L 1313 3322
L 1313 2803
Q 1481 3116 1742 3264
Q 2003 3413 2388 3413
Q 3000 3413 3387 2928
Q 3775 2444 3775 1663
Q 3775 881 3387 395
Q 3000 -91 2388 -91
Q 2003 -91 1742 57
Q 1481 206 1313 519
L 1313 -997
L 1856 -997
L 1856 -1331
L 184 -1331
L 184 -997
L 738 -997
L 738 2988
z
" transform="scale(0.015625)"/>
       <path id="DejaVuSerif-63" d="M 3291 997
Q 3169 466 2822 187
Q 2475 -91 1925 -91
Q 1200 -91 759 389
Q 319 869 319 1663
Q 319 2459 759 2936
Q 1200 3413 1925 3413
Q 2241 3413 2553 3339
Q 2866 3266 3181 3116
L 3181 2266
L 2847 2266
Q 2781 2703 2561 2903
Q 2341 3103 1931 3103
Q 1466 3103 1228 2742
Q 991 2381 991 1663
Q 991 944 1227 581
Q 1463 219 1931 219
Q 2303 219 2525 412
Q 2747 606 2828 997
L 3291 997
z
" transform="scale(0.015625)"/>
       <path id="DejaVuSerif-66" d="M 2753 4078
L 2450 4078
Q 2447 4313 2317 4434
Q 2188 4556 1941 4556
Q 1619 4556 1487 4379
Q 1356 4203 1356 3750
L 1356 3322
L 2284 3322
L 2284 2988
L 1356 2988
L 1356 331
L 2094 331
L 2094 0
L 231 0
L 231 331
L 781 331
L 781 2988
L 231 2988
L 231 3322
L 781 3322
L 781 3738
Q 781 4294 1070 4578
Q 1359 4863 1919 4863
Q 2128 4863 2337 4825
Q 2547 4788 2753 4709
L 2753 4078
z
" transform="scale(0.015625)"/>
       <path id="DejaVuSerif-74" d="M 691 2988
L 184 2988
L 184 3322
L 691 3322
L 691 4353
L 1269 4353
L 1269 3322
L 2350 3322
L 2350 2988
L 1269 2988
L 1269 878
Q 1269 456 1350 337
Q 1431 219 1650 219
Q 1875 219 1978 351
Q 2081 484 2088 781
L 2522 781
Q 2497 328 2275 118
Q 2053 -91 1600 -91
Q 1103 -91 897 129
Q 691 350 691 878
L 691 2988
z
" transform="scale(0.015625)"/>
      </defs>
      <use xlink:href="#DejaVuSerif-54"/>
      <use xlink:href="#DejaVuSerif-72" transform="translate(66.699219 0)"/>
      <use xlink:href="#DejaVuSerif-75" transform="translate(114.501953 0)"/>
      <use xlink:href="#DejaVuSerif-65" transform="translate(178.90625 0)"/>
      <use xlink:href="#DejaVuSerif-2d" transform="translate(238.085938 0)"/>
      <use xlink:href="#DejaVuSerif-73" transform="translate(271.875 0)"/>
      <use xlink:href="#DejaVuSerif-70" transform="translate(323.193359 0)"/>
      <use xlink:href="#DejaVuSerif-65" transform="translate(387.207031 0)"/>
      <use xlink:href="#DejaVuSerif-63" transform="translate(446.386719 0)"/>
      <use xlink:href="#DejaVuSerif-69" transform="translate(502.392578 0)"/>
      <use xlink:href="#DejaVuSerif-65" transform="translate(534.375 0)"/>
      <use xlink:href="#DejaVuSerif-73" transform="translate(593.554688 0)"/>
      <use xlink:href="#DejaVuSerif-20" transform="translate(644.873047 0)"/>
      <use xlink:href="#DejaVuSerif-6d" transform="translate(676.660156 0)"/>
      <use xlink:href="#DejaVuSerif-6f" transform="translate(771.484375 0)"/>
      <use xlink:href="#DejaVuSerif-6c" transform="translate(831.689453 0)"/>
      <use xlink:href="#DejaVuSerif-65" transform="translate(863.671875 0)"/>
      <use xlink:href="#DejaVuSerif-20" transform="translate(922.851562 0)"/>
      <use xlink:href="#DejaVuSerif-66" transform="translate(954.638672 0)"/>
      <use xlink:href="#DejaVuSerif-72" transform="translate(991.650391 0)"/>
      <use xlink:href="#DejaVuSerif-61" transform="translate(1039.453125 0)"/>
      <use xlink:href="#DejaVuSerif-63" transform="translate(1099.072266 0)"/>
      <use xlink:href="#DejaVuSerif-74" transform="translate(1155.078125 0)"/>
      <use xlink:href="#DejaVuSerif-69" transform="translate(1195.263672 0)"/>
      <use xlink:href="#DejaVuSerif-6f" transform="translate(1227.246094 0)"/>
      <use xlink:href="#DejaVuSerif-6e" transform="translate(1287.451172 0)"/>
     </g>
    </g>
   </g>
   <g id="line2d_45">
    <path d="M 148.285377 337.96594
L 154.673829 335.604642
L 161.062281 333.327873
L 167.450732 331.159521
L 173.839184 329.085537
L 180.227636 327.094673
L 186.616087 325.113922
L 193.004539 323.184258
L 199.392991 321.313673
L 205.781442 319.496018
L 212.169894 317.7258
L 218.558346 315.927737
L 224.946798 314.166484
L 231.335249 312.4383
L 237.723701 310.740194
L 244.112153 309.055263
L 250.500604 307.337149
L 256.889056 305.636687
L 263.277508 303.951864
L 269.66596 302.281304
L 276.054411 300.592919
L 282.442863 298.865375
L 288.831315 297.13946
L 295.219766 295.414094
L 301.608218 293.68903
L 307.99667 291.908684
L 314.385121 290.080746
L 320.773573 288.236568
L 327.162025 286.375686
L 333.550477 284.499172
L 339.938928 282.509297
L 346.32738 280.458146
L 352.715832 278.364425
L 359.104283 276.228376
L 365.492735 274.051619
L 371.881187 271.654589
L 378.269639 269.169384
L 384.65809 266.592694
L 391.046542 263.927269
L 397.434994 261.125084
L 403.823445 257.961412
L 410.211897 254.608397
L 416.600349 251.065167
L 422.988801 247.355947
L 429.377252 243.289212
L 435.765704 238.620422
L 442.154156 233.684087
L 448.542607 228.601088
L 454.931059 223.522348
L 461.319511 218.102536
L 467.707962 212.65701
L 474.096414 207.595072
L 480.484866 202.947414
L 486.873318 198.693871
L 493.261769 194.565067
L 499.650221 190.775091
L 506.038673 187.32001
L 512.427124 184.14699
L 518.815576 181.210162
L 525.204028 178.347399
L 531.59248 175.683954
L 537.980931 173.190773
L 544.369383 170.844716
L 550.757835 168.60711
L 557.146286 166.41882
L 563.534738 164.338522
L 569.92319 162.353693
L 576.311641 160.45396
L 582.700093 158.602985
L 589.088545 156.785996
L 595.476997 155.034337
L 601.865448 153.341827
L 608.2539 151.703208
L 614.642352 150.08055
L 621.030803 148.483965
L 627.419255 146.929657
L 633.807707 145.414229
L 640.196159 143.934769
L 646.58461 142.449268
L 652.973062 140.985942
L 659.361514 139.550634
L 665.749965 138.141354
L 672.138417 136.755117
L 678.526869 135.34733
L 684.915321 133.959021
L 691.303772 132.588769
L 697.692224 131.235406
" clip-path="url(#pa774fc75f3)" style="fill: none; stroke-dasharray: 8.14,3.52; stroke-dashoffset: 0; stroke: #16805a; stroke-width: 2.2"/>
   </g>
   <g id="line2d_46">
    <defs>
     <path id="mabd03f8b8d" d="M 0 3.4
C 0.901691 3.4 1.766572 3.041755 2.404163 2.404163
C 3.041755 1.766572 3.4 0.901691 3.4 0
C 3.4 -0.901691 3.041755 -1.766572 2.404163 -2.404163
C 1.766572 -3.041755 0.901691 -3.4 0 -3.4
C -0.901691 -3.4 -1.766572 -3.041755 -2.404163 -2.404163
C -3.041755 -1.766572 -3.4 -0.901691 -3.4 0
C -3.4 0.901691 -3.041755 1.766572 -2.404163 2.404163
C -1.766572 3.041755 -0.901691 3.4 0 3.4
z
" style="stroke: #16805a; stroke-opacity: 0.78"/>
    </defs>
    <g clip-path="url(#pa774fc75f3)">
     <use xlink:href="#mabd03f8b8d" x="681.681067" y="120.143264" style="fill: #16805a; fill-opacity: 0.78; stroke: #16805a; stroke-opacity: 0.78"/>
    </g>
   </g>
   <g id="line2d_47">
    <path d="M 148.285377 59.516524
L 154.673829 59.792473
L 161.062281 60.074241
L 167.450732 60.362084
L 173.839184 60.656267
L 180.227636 60.957074
L 186.616087 61.264795
L 193.004539 61.579761
L 199.392991 61.902324
L 205.781442 62.232857
L 212.169894 62.571762
L 218.558346 62.919438
L 224.946798 63.276377
L 231.335249 63.643082
L 237.723701 64.020097
L 244.112153 64.408004
L 250.500604 64.80741
L 256.889056 65.219049
L 263.277508 65.643686
L 269.66596 66.082159
L 276.054411 66.535352
L 282.442863 67.004244
L 288.831315 67.489997
L 295.219766 67.993853
L 301.608218 68.517191
L 307.99667 69.061435
L 314.385121 69.628297
L 320.773573 70.21977
L 327.162025 70.838037
L 333.550477 71.485586
L 339.938928 72.164862
L 346.32738 72.879218
L 352.715832 73.632421
L 359.104283 74.42877
L 365.492735 75.273302
L 371.881187 76.170437
L 378.269639 77.127788
L 384.65809 78.153374
L 391.046542 79.256869
L 397.434994 80.449053
L 403.823445 81.738829
L 410.211897 83.144057
L 416.600349 84.682832
L 422.988801 86.377107
L 429.377252 88.23933
L 435.765704 90.266321
L 442.154156 92.478533
L 448.542607 94.875463
L 454.931059 97.439619
L 461.319511 100.010036
L 467.707962 102.521832
L 474.096414 104.98703
L 480.484866 107.357359
L 486.873318 109.594655
L 493.261769 111.569785
L 499.650221 113.417124
L 506.038673 115.162061
L 512.427124 116.806636
L 518.815576 118.355483
L 525.204028 119.751024
L 531.59248 121.091928
L 537.980931 122.379673
L 544.369383 123.61749
L 550.757835 124.798707
L 557.146286 125.908559
L 563.534738 126.990361
L 569.92319 128.045383
L 576.311641 129.075413
L 582.700093 130.069051
L 589.088545 131.027999
L 595.476997 131.973116
L 601.865448 132.905321
L 608.2539 133.825749
L 614.642352 134.720918
L 621.030803 135.600883
L 627.419255 136.475794
L 633.807707 137.346441
L 640.196159 138.213734
L 646.58461 139.062815
L 652.973062 139.909182
L 659.361514 140.757041
L 665.749965 141.60721
L 672.138417 142.460096
L 678.526869 143.300905
L 684.915321 144.148232
L 691.303772 145.002951
L 697.692224 145.866041
" clip-path="url(#pa774fc75f3)" style="fill: none; stroke-dasharray: 8.14,3.52; stroke-dashoffset: 0; stroke: #1f5aa6; stroke-width: 2.2"/>
   </g>
   <g id="line2d_48">
    <defs>
     <path id="md311502f42" d="M 0 3.4
C 0.901691 3.4 1.766572 3.041755 2.404163 2.404163
C 3.041755 1.766572 3.4 0.901691 3.4 0
C 3.4 -0.901691 3.041755 -1.766572 2.404163 -2.404163
C 1.766572 -3.041755 0.901691 -3.4 0 -3.4
C -0.901691 -3.4 -1.766572 -3.041755 -2.404163 -2.404163
C -3.041755 -1.766572 -3.4 -0.901691 -3.4 0
C -3.4 0.901691 -3.041755 1.766572 -2.404163 2.404163
C -1.766572 3.041755 -0.901691 3.4 0 3.4
z
" style="stroke: #1f5aa6; stroke-opacity: 0.78"/>
    </defs>
    <g clip-path="url(#pa774fc75f3)">
     <use xlink:href="#md311502f42" x="145.307302" y="57.834244" style="fill: #1f5aa6; fill-opacity: 0.78; stroke: #1f5aa6; stroke-opacity: 0.78"/>
     <use xlink:href="#md311502f42" x="225.363088" y="62.085466" style="fill: #1f5aa6; fill-opacity: 0.78; stroke: #1f5aa6; stroke-opacity: 0.78"/>
     <use xlink:href="#md311502f42" x="257.385402" y="65.351696" style="fill: #1f5aa6; fill-opacity: 0.78; stroke: #1f5aa6; stroke-opacity: 0.78"/>
     <use xlink:href="#md311502f42" x="289.407716" y="65.257077" style="fill: #1f5aa6; fill-opacity: 0.78; stroke: #1f5aa6; stroke-opacity: 0.78"/>
     <use xlink:href="#md311502f42" x="377.469081" y="70.614122" style="fill: #1f5aa6; fill-opacity: 0.78; stroke: #1f5aa6; stroke-opacity: 0.78"/>
     <use xlink:href="#md311502f42" x="537.580652" y="105.081879" style="fill: #1f5aa6; fill-opacity: 0.78; stroke: #1f5aa6; stroke-opacity: 0.78"/>
     <use xlink:href="#md311502f42" x="681.681067" y="116.325672" style="fill: #1f5aa6; fill-opacity: 0.78; stroke: #1f5aa6; stroke-opacity: 0.78"/>
    </g>
   </g>
   <g id="line2d_49">
    <path d="M 148.285377 28.65873
L 154.673829 28.658813
L 161.062281 28.6589
L 167.450732 28.658991
L 173.839184 28.659086
L 180.227636 28.659184
L 186.616087 28.659288
L 193.004539 28.659397
L 199.392991 28.659511
L 205.781442 28.65963
L 212.169894 28.659755
L 218.558346 28.659888
L 224.946798 28.660029
L 231.335249 28.660176
L 237.723701 28.660331
L 244.112153 28.660495
L 250.500604 28.660671
L 256.889056 28.660857
L 263.277508 28.661055
L 269.66596 28.661265
L 276.054411 28.66149
L 282.442863 28.661733
L 288.831315 28.661993
L 295.219766 28.662271
L 301.608218 28.662569
L 307.99667 28.662896
L 314.385121 28.663252
L 320.773573 28.663639
L 327.162025 28.664059
L 333.550477 28.664516
L 339.938928 28.66503
L 346.32738 28.6656
L 352.715832 28.666231
L 359.104283 28.666932
L 365.492735 28.667713
L 371.881187 28.668628
L 378.269639 28.669669
L 384.65809 28.67086
L 391.046542 28.672229
L 397.434994 28.67383
L 403.823445 28.6758
L 410.211897 28.678159
L 416.600349 28.681004
L 422.988801 28.684452
L 429.377252 28.688802
L 435.765704 28.694498
L 442.154156 28.701669
L 448.542607 28.710597
L 454.931059 28.721551
L 461.319511 28.735288
L 467.707962 28.751587
L 474.096414 28.769894
L 480.484866 28.78995
L 486.873318 28.811476
L 493.261769 28.834402
L 499.650221 28.858159
L 506.038673 28.88255
L 512.427124 28.90746
L 518.815576 28.932796
L 525.204028 28.958552
L 531.59248 28.984563
L 537.980931 29.010796
L 544.369383 29.037225
L 550.757835 29.063834
L 557.146286 29.090612
L 563.534738 29.117516
L 569.92319 29.144536
L 576.311641 29.171663
L 582.700093 29.198894
L 589.088545 29.226219
L 595.476997 29.253625
L 601.865448 29.281108
L 608.2539 29.308663
L 614.642352 29.336286
L 621.030803 29.363971
L 627.419255 29.391714
L 633.807707 29.41951
L 640.196159 29.447356
L 646.58461 29.475245
L 652.973062 29.503172
L 659.361514 29.531137
L 665.749965 29.559133
L 672.138417 29.587158
L 678.526869 29.615193
L 684.915321 29.643241
L 691.303772 29.671299
L 697.692224 29.699361
" clip-path="url(#pa774fc75f3)" style="fill: none; stroke-dasharray: 8.14,3.52; stroke-dashoffset: 0; stroke: #707070; stroke-width: 2.2"/>
   </g>
   <g id="line2d_50">
    <path d="M 148.285377 84.951007
L 154.673829 84.051027
L 161.062281 83.208227
L 167.450732 82.415772
L 173.839184 81.667985
L 180.227636 80.960098
L 186.616087 80.288068
L 193.004539 79.648436
L 199.392991 79.038223
L 205.781442 78.454841
L 212.169894 77.896029
L 218.558346 77.359801
L 224.946798 76.844402
L 231.335249 76.348274
L 237.723701 75.870029
L 244.112153 75.408421
L 250.500604 74.962332
L 256.889056 74.530752
L 263.277508 74.112767
L 269.66596 73.707547
L 276.054411 73.314336
L 282.442863 72.93244
L 288.831315 72.561229
L 295.219766 72.20012
L 301.608218 71.848577
L 307.99667 71.506108
L 314.385121 71.172254
L 320.773573 70.846595
L 327.162025 70.528736
L 333.550477 70.218313
L 339.938928 69.914986
L 346.32738 69.618437
L 352.715832 69.328372
L 359.104283 69.044511
L 365.492735 68.766595
L 371.881187 68.494381
L 378.269639 68.227638
L 384.65809 67.966153
L 391.046542 67.70972
L 397.434994 67.458149
L 403.823445 67.21126
L 410.211897 66.96888
L 416.600349 66.730849
L 422.988801 66.497014
L 429.377252 66.26723
L 435.765704 66.04136
L 442.154156 65.819276
L 448.542607 65.600854
L 454.931059 65.385978
L 461.319511 65.174544
L 467.707962 64.966449
L 474.096414 64.761594
L 480.484866 64.559883
L 486.873318 64.361226
L 493.261769 64.16555
L 499.650221 63.972765
L 506.038673 63.782789
L 512.427124 63.595547
L 518.815576 63.410966
L 525.204028 63.229
L 531.59248 63.049564
L 537.980931 62.872594
L 544.369383 62.69803
L 550.757835 62.525821
L 557.146286 62.355934
L 563.534738 62.188293
L 569.92319 62.022848
L 576.311641 61.859552
L 582.700093 61.698379
L 589.088545 61.5393
L 595.476997 61.382249
L 601.865448 61.227187
L 608.2539 61.074079
L 614.642352 60.922933
L 621.030803 60.773711
L 627.419255 60.62636
L 633.807707 60.480853
L 640.196159 60.337164
L 646.58461 60.195358
L 652.973062 60.055365
L 659.361514 59.917153
L 665.749965 59.780707
L 672.138417 59.64602
L 678.526869 59.51324
L 684.915321 59.382236
L 691.303772 59.253011
L 697.692224 59.125569
" clip-path="url(#pa774fc75f3)" style="fill: none; stroke-dasharray: 8.14,3.52; stroke-dashoffset: 0; stroke: #bcbd22; stroke-width: 2.2"/>
   </g>
   <g id="line2d_51">
    <defs>
     <path id="m29294a8e8b" d="M 0 3.4
C 0.901691 3.4 1.766572 3.041755 2.404163 2.404163
C 3.041755 1.766572 3.4 0.901691 3.4 0
C 3.4 -0.901691 3.041755 -1.766572 2.404163 -2.404163
C 1.766572 -3.041755 0.901691 -3.4 0 -3.4
C -0.901691 -3.4 -1.766572 -3.041755 -2.404163 -2.404163
C -3.041755 -1.766572 -3.4 -0.901691 -3.4 0
C -3.4 0.901691 -3.041755 1.766572 -2.404163 2.404163
C -1.766572 3.041755 -0.901691 3.4 0 3.4
z
" style="stroke: #bcbd22; stroke-opacity: 0.78"/>
    </defs>
    <g clip-path="url(#pa774fc75f3)">
     <use xlink:href="#m29294a8e8b" x="145.307302" y="93.905963" style="fill: #bcbd22; fill-opacity: 0.78; stroke: #bcbd22; stroke-opacity: 0.78"/>
     <use xlink:href="#m29294a8e8b" x="225.363088" y="81.952365" style="fill: #bcbd22; fill-opacity: 0.78; stroke: #bcbd22; stroke-opacity: 0.78"/>
     <use xlink:href="#m29294a8e8b" x="257.385402" y="77.847617" style="fill: #bcbd22; fill-opacity: 0.78; stroke: #bcbd22; stroke-opacity: 0.78"/>
     <use xlink:href="#m29294a8e8b" x="289.407716" y="77.428209" style="fill: #bcbd22; fill-opacity: 0.78; stroke: #bcbd22; stroke-opacity: 0.78"/>
     <use xlink:href="#m29294a8e8b" x="377.469081" y="67.568533" style="fill: #bcbd22; fill-opacity: 0.78; stroke: #bcbd22; stroke-opacity: 0.78"/>
     <use xlink:href="#m29294a8e8b" x="537.580652" y="64.193083" style="fill: #bcbd22; fill-opacity: 0.78; stroke: #bcbd22; stroke-opacity: 0.78"/>
     <use xlink:href="#m29294a8e8b" x="681.681067" y="61.575712" style="fill: #bcbd22; fill-opacity: 0.78; stroke: #bcbd22; stroke-opacity: 0.78"/>
    </g>
   </g>
   <g id="line2d_52">
    <path d="M 148.285377 85.013779
L 154.673829 84.11512
L 161.062281 83.273712
L 167.450732 82.482693
L 173.839184 81.73639
L 180.227636 81.030038
L 186.616087 80.359662
L 193.004539 79.721764
L 199.392991 79.113352
L 205.781442 78.531843
L 212.169894 77.97498
L 218.558346 77.440877
L 224.946798 76.9277
L 231.335249 76.433897
L 237.723701 75.958087
L 244.112153 75.499054
L 250.500604 75.055766
L 256.889056 74.627138
L 263.277508 74.21227
L 269.66596 73.810341
L 276.054411 73.420672
L 282.442863 73.042637
L 288.831315 72.675538
L 295.219766 72.318817
L 301.608218 71.97196
L 307.99667 71.634647
L 314.385121 71.306447
L 320.773573 70.986898
L 327.162025 70.675656
L 333.550477 70.372409
L 339.938928 70.077219
L 346.32738 69.789701
L 352.715832 69.509604
L 359.104283 69.236779
L 365.492735 68.971114
L 371.881187 68.713409
L 378.269639 68.463143
L 384.65809 68.220461
L 391.046542 67.985574
L 397.434994 67.759176
L 403.823445 67.543493
L 410.211897 67.338403
L 416.600349 67.145241
L 422.988801 66.965625
L 429.377252 66.804348
L 435.765704 66.668493
L 442.154156 66.55951
L 448.542607 66.481599
L 454.931059 66.438744
L 461.319511 66.443504
L 467.707962 66.491994
L 474.096414 66.574929
L 480.484866 66.688357
L 486.873318 66.827998
L 493.261769 66.993324
L 499.650221 67.174954
L 506.038673 67.369841
L 512.427124 67.576383
L 518.815576 67.793309
L 525.204028 68.0209
L 531.59248 68.25642
L 537.980931 68.499588
L 544.369383 68.750183
L 550.757835 69.0082
L 557.146286 69.27376
L 563.534738 69.546286
L 569.92319 69.825877
L 576.311641 70.11266
L 582.700093 70.406906
L 589.088545 70.708757
L 595.476997 71.01826
L 601.865448 71.335683
L 608.2539 71.66132
L 614.642352 71.995531
L 621.030803 72.33858
L 627.419255 72.690812
L 633.807707 73.052644
L 640.196159 73.42453
L 646.58461 73.806853
L 652.973062 74.200129
L 659.361514 74.604934
L 665.749965 75.021876
L 672.138417 75.451605
L 678.526869 75.894448
L 684.915321 76.351395
L 691.303772 76.823253
L 697.692224 77.310899
" clip-path="url(#pa774fc75f3)" style="fill: none; stroke-dasharray: 8.14,3.52; stroke-dashoffset: 0; stroke: #d62728; stroke-width: 2.2"/>
   </g>
   <g id="line2d_53">
    <defs>
     <path id="m68f186d83b" d="M 0 3.4
C 0.901691 3.4 1.766572 3.041755 2.404163 2.404163
C 3.041755 1.766572 3.4 0.901691 3.4 0
C 3.4 -0.901691 3.041755 -1.766572 2.404163 -2.404163
C 1.766572 -3.041755 0.901691 -3.4 0 -3.4
C -0.901691 -3.4 -1.766572 -3.041755 -2.404163 -2.404163
C -3.041755 -1.766572 -3.4 -0.901691 -3.4 0
C -3.4 0.901691 -3.041755 1.766572 -2.404163 2.404163
C -1.766572 3.041755 -0.901691 3.4 0 3.4
z
" style="stroke: #d62728; stroke-opacity: 0.78"/>
    </defs>
    <g clip-path="url(#pa774fc75f3)">
     <use xlink:href="#m68f186d83b" x="145.307302" y="87.797147" style="fill: #d62728; fill-opacity: 0.78; stroke: #d62728; stroke-opacity: 0.78"/>
     <use xlink:href="#m68f186d83b" x="157.31567" y="83.350518" style="fill: #d62728; fill-opacity: 0.78; stroke: #d62728; stroke-opacity: 0.78"/>
     <use xlink:href="#m68f186d83b" x="221.360298" y="76.516594" style="fill: #d62728; fill-opacity: 0.78; stroke: #d62728; stroke-opacity: 0.78"/>
     <use xlink:href="#m68f186d83b" x="225.363088" y="80.389364" style="fill: #d62728; fill-opacity: 0.78; stroke: #d62728; stroke-opacity: 0.78"/>
     <use xlink:href="#m68f186d83b" x="246.177592" y="74.959711" style="fill: #d62728; fill-opacity: 0.78; stroke: #d62728; stroke-opacity: 0.78"/>
     <use xlink:href="#m68f186d83b" x="257.385402" y="75.458649" style="fill: #d62728; fill-opacity: 0.78; stroke: #d62728; stroke-opacity: 0.78"/>
     <use xlink:href="#m68f186d83b" x="281.402138" y="72.467023" style="fill: #d62728; fill-opacity: 0.78; stroke: #d62728; stroke-opacity: 0.78"/>
     <use xlink:href="#m68f186d83b" x="289.407716" y="74.337932" style="fill: #d62728; fill-opacity: 0.78; stroke: #d62728; stroke-opacity: 0.78"/>
     <use xlink:href="#m68f186d83b" x="331.837283" y="69.926394" style="fill: #d62728; fill-opacity: 0.78; stroke: #d62728; stroke-opacity: 0.78"/>
     <use xlink:href="#m68f186d83b" x="340.643419" y="69.465349" style="fill: #d62728; fill-opacity: 0.78; stroke: #d62728; stroke-opacity: 0.78"/>
     <use xlink:href="#m68f186d83b" x="377.469081" y="66.965239" style="fill: #d62728; fill-opacity: 0.78; stroke: #d62728; stroke-opacity: 0.78"/>
     <use xlink:href="#m68f186d83b" x="425.502552" y="67.045909" style="fill: #d62728; fill-opacity: 0.78; stroke: #d62728; stroke-opacity: 0.78"/>
     <use xlink:href="#m68f186d83b" x="430.305899" y="66.778895" style="fill: #d62728; fill-opacity: 0.78; stroke: #d62728; stroke-opacity: 0.78"/>
     <use xlink:href="#m68f186d83b" x="447.117614" y="66.543091" style="fill: #d62728; fill-opacity: 0.78; stroke: #d62728; stroke-opacity: 0.78"/>
     <use xlink:href="#m68f186d83b" x="463.929329" y="67.290904" style="fill: #d62728; fill-opacity: 0.78; stroke: #d62728; stroke-opacity: 0.78"/>
     <use xlink:href="#m68f186d83b" x="537.580652" y="66.992075" style="fill: #d62728; fill-opacity: 0.78; stroke: #d62728; stroke-opacity: 0.78"/>
     <use xlink:href="#m68f186d83b" x="588.015797" y="71.679244" style="fill: #d62728; fill-opacity: 0.78; stroke: #d62728; stroke-opacity: 0.78"/>
     <use xlink:href="#m68f186d83b" x="604.026955" y="72.630351" style="fill: #d62728; fill-opacity: 0.78; stroke: #d62728; stroke-opacity: 0.78"/>
     <use xlink:href="#m68f186d83b" x="667.271025" y="79.812308" style="fill: #d62728; fill-opacity: 0.78; stroke: #d62728; stroke-opacity: 0.78"/>
     <use xlink:href="#m68f186d83b" x="681.681067" y="70.197223" style="fill: #d62728; fill-opacity: 0.78; stroke: #d62728; stroke-opacity: 0.78"/>
    </g>
   </g>
   <g id="line2d_54">
    <path d="M 148.285377 156.027796
L 154.673829 154.852172
L 161.062281 153.72493
L 167.450732 152.645254
L 173.839184 151.607138
L 180.227636 150.605566
L 186.616087 149.624071
L 193.004539 148.667863
L 199.392991 147.736581
L 205.781442 146.827406
L 212.169894 145.937784
L 218.558346 145.050158
L 224.946798 144.177113
L 231.335249 143.316823
L 237.723701 142.467677
L 244.112153 141.624802
L 250.500604 140.776308
L 256.889056 139.933363
L 263.277508 139.094725
L 269.66596 138.259297
L 276.054411 137.418142
L 282.442863 136.56506
L 288.831315 135.709667
L 295.219766 134.850901
L 301.608218 133.987849
L 307.99667 133.104623
L 314.385121 132.202496
L 320.773573 131.288972
L 327.162025 130.362848
L 333.550477 129.423167
L 339.938928 128.441082
L 346.32738 127.43021
L 352.715832 126.394286
L 359.104283 125.331531
L 365.492735 124.240056
L 371.881187 123.065523
L 378.269639 121.844501
L 384.65809 120.573053
L 391.046542 119.248149
L 397.434994 117.850259
L 403.823445 116.309976
L 410.211897 114.674554
L 416.600349 112.938075
L 422.988801 111.099489
L 429.377252 109.093079
L 435.765704 106.855817
L 442.154156 104.489489
L 448.542607 102.034231
L 454.931059 99.536826
L 461.319511 96.953349
L 467.707962 94.427542
L 474.096414 92.070259
L 480.484866 89.895834
L 486.873318 87.904029
L 493.261769 86.070423
L 499.650221 84.407688
L 506.038673 82.895836
L 512.427124 81.513904
L 518.815576 80.244396
L 525.204028 79.069833
L 531.59248 77.982799
L 537.980931 76.97189
L 544.369383 76.027783
L 550.757835 75.142506
L 557.146286 74.309352
L 563.534738 73.52358
L 569.92319 72.780294
L 576.311641 72.075321
L 582.700093 71.404988
L 589.088545 70.766279
L 595.476997 70.156596
L 601.865448 69.573522
L 608.2539 69.014931
L 614.642352 68.478996
L 621.030803 67.964103
L 627.419255 67.468746
L 633.807707 66.991587
L 640.196159 66.531428
L 646.58461 66.087388
L 652.973062 65.658409
L 659.361514 65.243581
L 665.749965 64.842107
L 672.138417 64.453278
L 678.526869 64.07682
L 684.915321 63.711844
L 691.303772 63.357819
L 697.692224 63.014262
" clip-path="url(#pa774fc75f3)" style="fill: none; stroke-dasharray: 8.14,3.52; stroke-dashoffset: 0; stroke: #17becf; stroke-width: 2.2"/>
   </g>
   <g id="line2d_55">
    <defs>
     <path id="mf6902c066d" d="M 0 3.4
C 0.901691 3.4 1.766572 3.041755 2.404163 2.404163
C 3.041755 1.766572 3.4 0.901691 3.4 0
C 3.4 -0.901691 3.041755 -1.766572 2.404163 -2.404163
C 1.766572 -3.041755 0.901691 -3.4 0 -3.4
C -0.901691 -3.4 -1.766572 -3.041755 -2.404163 -2.404163
C -3.041755 -1.766572 -3.4 -0.901691 -3.4 0
C -3.4 0.901691 -3.041755 1.766572 -2.404163 2.404163
C -1.766572 3.041755 -0.901691 3.4 0 3.4
z
" style="stroke: #17becf; stroke-opacity: 0.78"/>
    </defs>
    <g clip-path="url(#pa774fc75f3)">
     <use xlink:href="#mf6902c066d" x="145.307302" y="149.300826" style="fill: #17becf; fill-opacity: 0.78; stroke: #17becf; stroke-opacity: 0.78"/>
     <use xlink:href="#mf6902c066d" x="157.31567" y="30582.792254" style="fill: #17becf; fill-opacity: 0.78; stroke: #17becf; stroke-opacity: 0.78"/>
     <use xlink:href="#mf6902c066d" x="221.360298" y="30582.792254" style="fill: #17becf; fill-opacity: 0.78; stroke: #17becf; stroke-opacity: 0.78"/>
     <use xlink:href="#mf6902c066d" x="225.363088" y="109.546925" style="fill: #17becf; fill-opacity: 0.78; stroke: #17becf; stroke-opacity: 0.78"/>
     <use xlink:href="#mf6902c066d" x="246.177592" y="30582.792254" style="fill: #17becf; fill-opacity: 0.78; stroke: #17becf; stroke-opacity: 0.78"/>
     <use xlink:href="#mf6902c066d" x="257.385402" y="130.904453" style="fill: #17becf; fill-opacity: 0.78; stroke: #17becf; stroke-opacity: 0.78"/>
     <use xlink:href="#mf6902c066d" x="281.402138" y="30582.792254" style="fill: #17becf; fill-opacity: 0.78; stroke: #17becf; stroke-opacity: 0.78"/>
     <use xlink:href="#mf6902c066d" x="289.407716" y="134.722045" style="fill: #17becf; fill-opacity: 0.78; stroke: #17becf; stroke-opacity: 0.78"/>
     <use xlink:href="#mf6902c066d" x="331.837283" y="30582.792254" style="fill: #17becf; fill-opacity: 0.78; stroke: #17becf; stroke-opacity: 0.78"/>
     <use xlink:href="#mf6902c066d" x="340.643419" y="30582.792254" style="fill: #17becf; fill-opacity: 0.78; stroke: #17becf; stroke-opacity: 0.78"/>
     <use xlink:href="#mf6902c066d" x="377.469081" y="116.325672" style="fill: #17becf; fill-opacity: 0.78; stroke: #17becf; stroke-opacity: 0.78"/>
     <use xlink:href="#mf6902c066d" x="425.502552" y="30582.792254" style="fill: #17becf; fill-opacity: 0.78; stroke: #17becf; stroke-opacity: 0.78"/>
     <use xlink:href="#mf6902c066d" x="430.305899" y="100.348739" style="fill: #17becf; fill-opacity: 0.78; stroke: #17becf; stroke-opacity: 0.78"/>
     <use xlink:href="#mf6902c066d" x="447.117614" y="96.867118" style="fill: #17becf; fill-opacity: 0.78; stroke: #17becf; stroke-opacity: 0.78"/>
     <use xlink:href="#mf6902c066d" x="463.929329" y="89.440917" style="fill: #17becf; fill-opacity: 0.78; stroke: #17becf; stroke-opacity: 0.78"/>
     <use xlink:href="#mf6902c066d" x="537.580652" y="82.720629" style="fill: #17becf; fill-opacity: 0.78; stroke: #17becf; stroke-opacity: 0.78"/>
     <use xlink:href="#mf6902c066d" x="588.015797" y="68.895182" style="fill: #17becf; fill-opacity: 0.78; stroke: #17becf; stroke-opacity: 0.78"/>
     <use xlink:href="#mf6902c066d" x="604.026955" y="70.404036" style="fill: #17becf; fill-opacity: 0.78; stroke: #17becf; stroke-opacity: 0.78"/>
     <use xlink:href="#mf6902c066d" x="667.271025" y="64.501194" style="fill: #17becf; fill-opacity: 0.78; stroke: #17becf; stroke-opacity: 0.78"/>
     <use xlink:href="#mf6902c066d" x="681.681067" y="68.289132" style="fill: #17becf; fill-opacity: 0.78; stroke: #17becf; stroke-opacity: 0.78"/>
    </g>
   </g>
   <g id="line2d_56">
    <path d="M 148.285377 57.695402
L 154.673829 57.814603
L 161.062281 57.93485
L 167.450732 58.056164
L 173.839184 58.178563
L 180.227636 58.302064
L 186.616087 58.426673
L 193.004539 58.552416
L 199.392991 58.679314
L 205.781442 58.807387
L 212.169894 58.936652
L 218.558346 59.067106
L 224.946798 59.198787
L 231.335249 59.331715
L 237.723701 59.465909
L 244.112153 59.601381
L 250.500604 59.738126
L 256.889056 59.876186
L 263.277508 60.015579
L 269.66596 60.156322
L 276.054411 60.298409
L 282.442863 60.441834
L 288.831315 60.586639
L 295.219766 60.732834
L 301.608218 60.880431
L 307.99667 61.029369
L 314.385121 61.179647
L 320.773573 61.331295
L 327.162025 61.484299
L 333.550477 61.638641
L 339.938928 61.794113
L 346.32738 61.950736
L 352.715832 62.108472
L 359.104283 62.26723
L 365.492735 62.426893
L 371.881187 62.586771
L 378.269639 62.746953
L 384.65809 62.907115
L 391.046542 63.066861
L 397.434994 63.225423
L 403.823445 63.380846
L 410.211897 63.532746
L 416.600349 63.679618
L 422.988801 63.819628
L 429.377252 63.948263
L 435.765704 64.058834
L 442.154156 64.149036
L 448.542607 64.214359
L 454.931059 64.250595
L 461.319511 64.246564
L 467.707962 64.205618
L 474.096414 64.136218
L 480.484866 64.042577
L 486.873318 63.929279
L 493.261769 63.797892
L 499.650221 63.656881
L 506.038673 63.509326
L 512.427124 63.357028
L 518.815576 63.201425
L 525.204028 63.042782
L 531.59248 62.883378
L 537.980931 62.723678
L 544.369383 62.564073
L 550.757835 62.404794
L 557.146286 62.245987
L 563.534738 62.088188
L 569.92319 61.93151
L 576.311641 61.776044
L 582.700093 61.621811
L 589.088545 61.468902
L 595.476997 61.317448
L 601.865448 61.167473
L 608.2539 61.018995
L 614.642352 60.872018
L 621.030803 60.726588
L 627.419255 60.582725
L 633.807707 60.44043
L 640.196159 60.299702
L 646.58461 60.160588
L 652.973062 60.023083
L 659.361514 59.88718
L 665.749965 59.75288
L 672.138417 59.620186
L 678.526869 59.489232
L 684.915321 59.359933
L 691.303772 59.232301
L 697.692224 59.106347
" clip-path="url(#pa774fc75f3)" style="fill: none; stroke-dasharray: 8.14,3.52; stroke-dashoffset: 0; stroke: #e377c2; stroke-width: 2.2"/>
   </g>
   <g id="line2d_57">
    <defs>
     <path id="mdd626eb395" d="M 0 3.4
C 0.901691 3.4 1.766572 3.041755 2.404163 2.404163
C 3.041755 1.766572 3.4 0.901691 3.4 0
C 3.4 -0.901691 3.041755 -1.766572 2.404163 -2.404163
C 1.766572 -3.041755 0.901691 -3.4 0 -3.4
C -0.901691 -3.4 -1.766572 -3.041755 -2.404163 -2.404163
C -3.041755 -1.766572 -3.4 -0.901691 -3.4 0
C -3.4 0.901691 -3.041755 1.766572 -2.404163 2.404163
C -1.766572 3.041755 -0.901691 3.4 0 3.4
z
" style="stroke: #e377c2; stroke-opacity: 0.78"/>
    </defs>
    <g clip-path="url(#pa774fc75f3)">
     <use xlink:href="#mdd626eb395" x="145.307302" y="56.986229" style="fill: #e377c2; fill-opacity: 0.78; stroke: #e377c2; stroke-opacity: 0.78"/>
     <use xlink:href="#mdd626eb395" x="157.31567" y="57.514786" style="fill: #e377c2; fill-opacity: 0.78; stroke: #e377c2; stroke-opacity: 0.78"/>
     <use xlink:href="#mdd626eb395" x="221.360298" y="58.539755" style="fill: #e377c2; fill-opacity: 0.78; stroke: #e377c2; stroke-opacity: 0.78"/>
     <use xlink:href="#mdd626eb395" x="225.363088" y="59.405668" style="fill: #e377c2; fill-opacity: 0.78; stroke: #e377c2; stroke-opacity: 0.78"/>
     <use xlink:href="#mdd626eb395" x="246.177592" y="59.390511" style="fill: #e377c2; fill-opacity: 0.78; stroke: #e377c2; stroke-opacity: 0.78"/>
     <use xlink:href="#mdd626eb395" x="257.385402" y="60.981947" style="fill: #e377c2; fill-opacity: 0.78; stroke: #e377c2; stroke-opacity: 0.78"/>
     <use xlink:href="#mdd626eb395" x="281.402138" y="59.947384" style="fill: #e377c2; fill-opacity: 0.78; stroke: #e377c2; stroke-opacity: 0.78"/>
     <use xlink:href="#mdd626eb395" x="289.407716" y="60.795398" style="fill: #e377c2; fill-opacity: 0.78; stroke: #e377c2; stroke-opacity: 0.78"/>
     <use xlink:href="#mdd626eb395" x="331.837283" y="61.310476" style="fill: #e377c2; fill-opacity: 0.78; stroke: #e377c2; stroke-opacity: 0.78"/>
     <use xlink:href="#mdd626eb395" x="340.643419" y="61.468981" style="fill: #e377c2; fill-opacity: 0.78; stroke: #e377c2; stroke-opacity: 0.78"/>
     <use xlink:href="#mdd626eb395" x="377.469081" y="59.805959" style="fill: #e377c2; fill-opacity: 0.78; stroke: #e377c2; stroke-opacity: 0.78"/>
     <use xlink:href="#mdd626eb395" x="425.502552" y="63.350249" style="fill: #e377c2; fill-opacity: 0.78; stroke: #e377c2; stroke-opacity: 0.78"/>
     <use xlink:href="#mdd626eb395" x="430.305899" y="63.087465" style="fill: #e377c2; fill-opacity: 0.78; stroke: #e377c2; stroke-opacity: 0.78"/>
     <use xlink:href="#mdd626eb395" x="447.117614" y="63.432164" style="fill: #e377c2; fill-opacity: 0.78; stroke: #e377c2; stroke-opacity: 0.78"/>
     <use xlink:href="#mdd626eb395" x="463.929329" y="63.411638" style="fill: #e377c2; fill-opacity: 0.78; stroke: #e377c2; stroke-opacity: 0.78"/>
     <use xlink:href="#mdd626eb395" x="537.580652" y="63.597527" style="fill: #e377c2; fill-opacity: 0.78; stroke: #e377c2; stroke-opacity: 0.78"/>
     <use xlink:href="#mdd626eb395" x="588.015797" y="61.292981" style="fill: #e377c2; fill-opacity: 0.78; stroke: #e377c2; stroke-opacity: 0.78"/>
     <use xlink:href="#mdd626eb395" x="604.026955" y="61.647346" style="fill: #e377c2; fill-opacity: 0.78; stroke: #e377c2; stroke-opacity: 0.78"/>
     <use xlink:href="#mdd626eb395" x="667.271025" y="60.479229" style="fill: #e377c2; fill-opacity: 0.78; stroke: #e377c2; stroke-opacity: 0.78"/>
     <use xlink:href="#mdd626eb395" x="681.681067" y="61.363101" style="fill: #e377c2; fill-opacity: 0.78; stroke: #e377c2; stroke-opacity: 0.78"/>
    </g>
   </g>
   <g id="patch_3">
    <path d="M 57.245938 454.857969
L 57.245938 27.077969
" style="fill: none; stroke: #000000; stroke-width: 0.8; stroke-linejoin: miter; stroke-linecap: square"/>
   </g>
   <g id="patch_4">
    <path d="M 57.245938 454.857969
L 697.692224 454.857969
" style="fill: none; stroke: #000000; stroke-width: 0.8; stroke-linejoin: miter; stroke-linecap: square"/>
   </g>
   <g id="text_25">
    <!-- Six-species chemical-equilibrium speciation at 40 C -->
    <g transform="translate(188.669471 17.077969) scale(0.13 -0.13)">
     <defs>
      <path id="DejaVuSerif-Bold-53" d="M 494 225
L 494 1331
L 891 1331
Q 981 806 1318 547
Q 1656 288 2253 288
Q 2738 288 2991 472
Q 3244 656 3244 1013
Q 3244 1294 3072 1450
Q 2900 1606 2363 1741
L 1663 1913
Q 978 2088 700 2398
Q 422 2709 422 3284
Q 422 3978 883 4364
Q 1344 4750 2175 4750
Q 2584 4750 3026 4681
Q 3469 4613 3944 4475
L 3944 3444
L 3547 3444
Q 3456 3925 3150 4148
Q 2844 4372 2278 4372
Q 1816 4372 1580 4211
Q 1344 4050 1344 3731
Q 1344 3441 1506 3289
Q 1669 3138 2303 2975
L 3003 2803
Q 3653 2641 3945 2297
Q 4238 1953 4238 1350
Q 4238 644 3750 276
Q 3263 -91 2316 -91
Q 1859 -91 1409 -12
Q 959 66 494 225
z
" transform="scale(0.015625)"/>
      <path id="DejaVuSerif-Bold-69" d="M 588 4263
Q 588 4516 763 4689
Q 938 4863 1191 4863
Q 1438 4863 1611 4689
Q 1784 4516 1784 4263
Q 1784 4016 1611 3842
Q 1438 3669 1191 3669
Q 938 3669 763 3841
Q 588 4013 588 4263
z
M 1797 378
L 2272 378
L 2272 0
L 219 0
L 219 378
L 691 378
L 691 2944
L 219 2944
L 219 3322
L 1797 3322
L 1797 378
z
" transform="scale(0.015625)"/>
      <path id="DejaVuSerif-Bold-78" d="M 2247 2119
L 2834 2944
L 2425 2944
L 2425 3322
L 3719 3322
L 3719 2944
L 3278 2944
L 2431 1759
L 3419 378
L 3859 378
L 3859 0
L 1747 0
L 1747 378
L 2175 378
L 1550 1253
L 922 378
L 1369 378
L 1369 0
L 0 0
L 0 378
L 475 378
L 1356 1619
L 403 2944
L 31 2944
L 31 3322
L 2059 3322
L 2059 2944
L 1656 2944
L 2247 2119
z
" transform="scale(0.015625)"/>
      <path id="DejaVuSerif-Bold-2d" d="M 347 2138
L 2309 2138
L 2309 1294
L 347 1294
L 347 2138
z
" transform="scale(0.015625)"/>
      <path id="DejaVuSerif-Bold-73" d="M 300 97
L 300 1025
L 653 1025
Q 697 653 931 458
Q 1166 263 1569 263
Q 1906 263 2086 380
Q 2266 497 2266 716
Q 2266 916 2152 1025
Q 2038 1134 1709 1216
L 1253 1331
Q 738 1459 506 1698
Q 275 1938 275 2344
Q 275 2884 650 3148
Q 1025 3413 1806 3413
Q 2100 3413 2433 3364
Q 2766 3316 3169 3213
L 3169 2375
L 2816 2375
Q 2788 2716 2573 2887
Q 2359 3059 1959 3059
Q 1622 3059 1448 2951
Q 1275 2844 1275 2638
Q 1275 2469 1375 2372
Q 1475 2275 1734 2209
L 2188 2094
Q 2841 1928 3091 1684
Q 3341 1441 3341 1006
Q 3341 444 2939 176
Q 2538 -91 1691 -91
Q 1381 -91 1034 -44
Q 688 3 300 97
z
" transform="scale(0.015625)"/>
      <path id="DejaVuSerif-Bold-70" d="M 1728 1825
L 1728 1497
Q 1728 916 1876 656
Q 2025 397 2356 397
Q 2697 397 2836 672
Q 2975 947 2975 1663
Q 2975 2378 2836 2651
Q 2697 2925 2356 2925
Q 2025 2925 1876 2665
Q 1728 2406 1728 1825
z
M 622 2944
L 147 2944
L 147 3322
L 1728 3322
L 1728 2900
Q 1869 3159 2106 3286
Q 2344 3413 2694 3413
Q 3403 3413 3811 2945
Q 4219 2478 4219 1663
Q 4219 847 3811 378
Q 3403 -91 2694 -91
Q 2344 -91 2106 36
Q 1869 163 1728 422
L 1728 -953
L 2241 -953
L 2241 -1331
L 147 -1331
L 147 -953
L 622 -953
L 622 2944
z
" transform="scale(0.015625)"/>
      <path id="DejaVuSerif-Bold-65" d="M 2566 1875
Q 2566 2531 2444 2795
Q 2322 3059 2028 3059
Q 1744 3059 1620 2800
Q 1497 2541 1497 1931
L 1497 1875
L 2566 1875
z
M 3781 1503
L 1497 1503
L 1497 1478
Q 1497 834 1690 548
Q 1884 263 2316 263
Q 2675 263 2897 453
Q 3119 644 3181 1006
L 3700 1006
Q 3566 441 3166 175
Q 2766 -91 2047 -91
Q 1184 -91 723 364
Q 263 819 263 1663
Q 263 2488 734 2950
Q 1206 3413 2047 3413
Q 2872 3413 3312 2927
Q 3753 2441 3781 1503
z
" transform="scale(0.015625)"/>
      <path id="DejaVuSerif-Bold-63" d="M 3609 1038
Q 3491 469 3123 189
Q 2756 -91 2125 -91
Q 1238 -91 750 368
Q 263 828 263 1663
Q 263 2488 744 2950
Q 1225 3413 2081 3413
Q 2428 3413 2781 3347
Q 3134 3281 3500 3150
L 3500 2228
L 3150 2228
Q 3100 2650 2903 2854
Q 2706 3059 2350 3059
Q 1888 3059 1692 2746
Q 1497 2434 1497 1663
Q 1497 909 1687 586
Q 1878 263 2309 263
Q 2644 263 2845 463
Q 3047 663 3091 1038
L 3609 1038
z
" transform="scale(0.015625)"/>
      <path id="DejaVuSerif-Bold-20" transform="scale(0.015625)"/>
      <path id="DejaVuSerif-Bold-68" d="M 219 0
L 219 378
L 691 378
L 691 4488
L 197 4488
L 197 4863
L 1797 4863
L 1797 2853
Q 1997 3150 2253 3281
Q 2509 3413 2900 3413
Q 3459 3413 3745 3083
Q 4031 2753 4031 2113
L 4031 378
L 4506 378
L 4506 0
L 2522 0
L 2522 378
L 2925 378
L 2925 2144
Q 2925 2566 2817 2730
Q 2709 2894 2444 2894
Q 2109 2894 1953 2648
Q 1797 2403 1797 1869
L 1797 378
L 2203 378
L 2203 0
L 219 0
z
" transform="scale(0.015625)"/>
      <path id="DejaVuSerif-Bold-6d" d="M 3884 2778
Q 4116 3109 4384 3261
Q 4653 3413 5013 3413
Q 5584 3413 5867 3089
Q 6150 2766 6150 2113
L 6150 378
L 6625 378
L 6625 0
L 4647 0
L 4647 378
L 5044 378
L 5044 1947
Q 5044 2569 4948 2731
Q 4853 2894 4594 2894
Q 4300 2894 4137 2667
Q 3975 2441 3975 2022
L 3975 378
L 4372 378
L 4372 0
L 2472 0
L 2472 378
L 2869 378
L 2869 1947
Q 2869 2569 2772 2731
Q 2675 2894 2419 2894
Q 2122 2894 1959 2667
Q 1797 2441 1797 2022
L 1797 378
L 2194 378
L 2194 0
L 219 0
L 219 378
L 691 378
L 691 2944
L 219 2944
L 219 3322
L 1797 3322
L 1797 2853
Q 1991 3144 2241 3278
Q 2491 3413 2834 3413
Q 3241 3413 3494 3258
Q 3747 3103 3884 2778
z
" transform="scale(0.015625)"/>
      <path id="DejaVuSerif-Bold-61" d="M 3525 2041
L 3525 378
L 4000 378
L 4000 0
L 2419 0
L 2419 422
Q 2200 159 1931 34
Q 1663 -91 1319 -91
Q 809 -91 536 182
Q 263 456 263 966
Q 263 1525 655 1803
Q 1047 2081 1838 2081
L 2419 2081
L 2419 2278
Q 2419 2681 2228 2873
Q 2038 3066 1638 3066
Q 1306 3066 1126 2930
Q 947 2794 872 2484
L 519 2484
L 519 3200
Q 816 3306 1134 3359
Q 1453 3413 1806 3413
Q 2697 3413 3111 3081
Q 3525 2750 3525 2041
z
M 2419 1044
L 2419 1709
L 2003 1709
Q 1694 1709 1528 1540
Q 1363 1372 1363 1056
Q 1363 741 1483 584
Q 1603 428 1850 428
Q 2106 428 2262 597
Q 2419 766 2419 1044
z
" transform="scale(0.015625)"/>
      <path id="DejaVuSerif-Bold-6c" d="M 1797 378
L 2272 378
L 2272 0
L 219 0
L 219 378
L 691 378
L 691 4488
L 219 4488
L 219 4863
L 1797 4863
L 1797 378
z
" transform="scale(0.015625)"/>
      <path id="DejaVuSerif-Bold-71" d="M 3853 2944
L 3853 -953
L 4325 -953
L 4325 -1331
L 2234 -1331
L 2234 -953
L 2747 -953
L 2747 422
Q 2606 163 2367 36
Q 2128 -91 1778 -91
Q 1072 -91 667 378
Q 263 847 263 1663
Q 263 2481 667 2947
Q 1072 3413 1778 3413
Q 2128 3413 2367 3286
Q 2606 3159 2747 2900
L 2747 3322
L 4325 3322
L 4325 2944
L 3853 2944
z
M 2747 1825
Q 2747 2406 2597 2665
Q 2447 2925 2119 2925
Q 1775 2925 1636 2651
Q 1497 2378 1497 1663
Q 1497 947 1637 672
Q 1778 397 2119 397
Q 2447 397 2597 656
Q 2747 916 2747 1497
L 2747 1825
z
" transform="scale(0.015625)"/>
      <path id="DejaVuSerif-Bold-75" d="M 3963 3322
L 3963 378
L 4434 378
L 4434 0
L 2853 0
L 2853 469
Q 2656 172 2400 40
Q 2144 -91 1753 -91
Q 1194 -91 908 239
Q 622 569 622 1209
L 622 2944
L 147 2944
L 147 3322
L 1728 3322
L 1728 1381
Q 1728 763 1831 595
Q 1934 428 2209 428
Q 2544 428 2698 675
Q 2853 922 2853 1459
L 2853 2944
L 2450 2944
L 2450 3322
L 3963 3322
z
" transform="scale(0.015625)"/>
      <path id="DejaVuSerif-Bold-62" d="M 622 378
L 622 4488
L 147 4488
L 147 4863
L 1728 4863
L 1728 2900
Q 1869 3159 2106 3286
Q 2344 3413 2694 3413
Q 3403 3413 3811 2945
Q 4219 2478 4219 1663
Q 4219 847 3811 378
Q 3403 -91 2694 -91
Q 2344 -91 2106 36
Q 1869 163 1728 422
L 1728 0
L 147 0
L 147 378
L 622 378
z
M 1728 1497
Q 1728 916 1876 656
Q 2025 397 2356 397
Q 2697 397 2836 672
Q 2975 947 2975 1663
Q 2975 2378 2836 2651
Q 2697 2925 2356 2925
Q 2025 2925 1876 2665
Q 1728 2406 1728 1825
L 1728 1497
z
" transform="scale(0.015625)"/>
      <path id="DejaVuSerif-Bold-72" d="M 3438 3359
L 3438 2369
L 3084 2369
Q 3066 2634 2941 2764
Q 2816 2894 2578 2894
Q 2216 2894 2006 2575
Q 1797 2256 1797 1691
L 1797 378
L 2400 378
L 2400 0
L 219 0
L 219 378
L 691 378
L 691 2944
L 184 2944
L 184 3322
L 1797 3322
L 1797 2731
Q 1959 3078 2226 3245
Q 2494 3413 2881 3413
Q 2978 3413 3117 3398
Q 3256 3384 3438 3359
z
" transform="scale(0.015625)"/>
      <path id="DejaVuSerif-Bold-74" d="M 634 2944
L 153 2944
L 153 3322
L 634 3322
L 634 4353
L 1741 4353
L 1741 3322
L 2663 3322
L 2663 2944
L 1741 2944
L 1741 909
Q 1741 475 1809 369
Q 1878 263 2059 263
Q 2259 263 2356 397
Q 2453 531 2459 813
L 2925 813
Q 2897 313 2651 111
Q 2406 -91 1806 -91
Q 1122 -91 878 123
Q 634 338 634 909
L 634 2944
z
" transform="scale(0.015625)"/>
      <path id="DejaVuSerif-Bold-6f" d="M 2138 263
Q 2488 263 2630 563
Q 2772 863 2772 1663
Q 2772 2463 2631 2761
Q 2491 3059 2138 3059
Q 1784 3059 1640 2757
Q 1497 2456 1497 1663
Q 1497 869 1640 566
Q 1784 263 2138 263
z
M 2138 -91
Q 1259 -91 761 376
Q 263 844 263 1663
Q 263 2484 761 2948
Q 1259 3413 2138 3413
Q 3019 3413 3516 2948
Q 4013 2484 4013 1663
Q 4013 844 3514 376
Q 3016 -91 2138 -91
z
" transform="scale(0.015625)"/>
      <path id="DejaVuSerif-Bold-6e" d="M 219 0
L 219 378
L 691 378
L 691 2944
L 219 2944
L 219 3322
L 1797 3322
L 1797 2853
Q 1997 3150 2253 3281
Q 2509 3413 2900 3413
Q 3459 3413 3745 3083
Q 4031 2753 4031 2113
L 4031 378
L 4506 378
L 4506 0
L 2522 0
L 2522 378
L 2925 378
L 2925 2144
Q 2925 2566 2817 2730
Q 2709 2894 2444 2894
Q 2109 2894 1953 2648
Q 1797 2403 1797 1869
L 1797 378
L 2203 378
L 2203 0
L 219 0
z
" transform="scale(0.015625)"/>
      <path id="DejaVuSerif-Bold-34" d="M 4084 0
L 1516 0
L 1516 378
L 2209 378
L 2209 1228
L 263 1228
L 263 1588
L 2216 4750
L 3391 4750
L 3391 1631
L 4191 1631
L 4191 1228
L 3391 1228
L 3391 378
L 4084 378
L 4084 0
z
M 2209 1631
L 2209 3897
L 819 1631
L 2209 1631
z
" transform="scale(0.015625)"/>
      <path id="DejaVuSerif-Bold-30" d="M 2228 275
Q 2603 275 2742 615
Q 2881 956 2881 2328
Q 2881 3691 2742 4037
Q 2603 4384 2228 4384
Q 1853 4384 1714 4043
Q 1575 3703 1575 2328
Q 1575 956 1714 615
Q 1853 275 2228 275
z
M 2228 -91
Q 1294 -91 797 532
Q 300 1156 300 2328
Q 300 3500 797 4125
Q 1294 4750 2228 4750
Q 3159 4750 3656 4125
Q 4153 3500 4153 2328
Q 4153 1156 3656 532
Q 3159 -91 2228 -91
z
" transform="scale(0.015625)"/>
      <path id="DejaVuSerif-Bold-43" d="M 4769 1331
Q 4584 609 4106 259
Q 3628 -91 2822 -91
Q 1641 -91 955 561
Q 269 1213 269 2328
Q 269 3447 955 4098
Q 1641 4750 2822 4750
Q 3238 4750 3688 4650
Q 4138 4550 4641 4347
L 4641 3200
L 4244 3200
Q 4122 3788 3800 4080
Q 3478 4372 2950 4372
Q 2269 4372 1937 3870
Q 1606 3369 1606 2328
Q 1606 1288 1937 788
Q 2269 288 2956 288
Q 3422 288 3717 547
Q 4013 806 4147 1331
L 4769 1331
z
" transform="scale(0.015625)"/>
     </defs>
     <use xlink:href="#DejaVuSerif-Bold-53"/>
     <use xlink:href="#DejaVuSerif-Bold-69" transform="translate(72.216797 0)"/>
     <use xlink:href="#DejaVuSerif-Bold-78" transform="translate(110.205078 0)"/>
     <use xlink:href="#DejaVuSerif-Bold-2d" transform="translate(168.074219 0)"/>
     <use xlink:href="#DejaVuSerif-Bold-73" transform="translate(209.578125 0)"/>
     <use xlink:href="#DejaVuSerif-Bold-70" transform="translate(265.876953 0)"/>
     <use xlink:href="#DejaVuSerif-Bold-65" transform="translate(335.798828 0)"/>
     <use xlink:href="#DejaVuSerif-Bold-63" transform="translate(399.421875 0)"/>
     <use xlink:href="#DejaVuSerif-Bold-69" transform="translate(460.310547 0)"/>
     <use xlink:href="#DejaVuSerif-Bold-65" transform="translate(498.298828 0)"/>
     <use xlink:href="#DejaVuSerif-Bold-73" transform="translate(561.921875 0)"/>
     <use xlink:href="#DejaVuSerif-Bold-20" transform="translate(618.220703 0)"/>
     <use xlink:href="#DejaVuSerif-Bold-63" transform="translate(653.035156 0)"/>
     <use xlink:href="#DejaVuSerif-Bold-68" transform="translate(713.923828 0)"/>
     <use xlink:href="#DejaVuSerif-Bold-65" transform="translate(786.628906 0)"/>
     <use xlink:href="#DejaVuSerif-Bold-6d" transform="translate(850.251953 0)"/>
     <use xlink:href="#DejaVuSerif-Bold-69" transform="translate(956.0625 0)"/>
     <use xlink:href="#DejaVuSerif-Bold-63" transform="translate(994.050781 0)"/>
     <use xlink:href="#DejaVuSerif-Bold-61" transform="translate(1054.939453 0)"/>
     <use xlink:href="#DejaVuSerif-Bold-6c" transform="translate(1119.734375 0)"/>
     <use xlink:href="#DejaVuSerif-Bold-2d" transform="translate(1157.722656 0)"/>
     <use xlink:href="#DejaVuSerif-Bold-65" transform="translate(1199.226562 0)"/>
     <use xlink:href="#DejaVuSerif-Bold-71" transform="translate(1262.849609 0)"/>
     <use xlink:href="#DejaVuSerif-Bold-75" transform="translate(1332.771484 0)"/>
     <use xlink:href="#DejaVuSerif-Bold-69" transform="translate(1405.476562 0)"/>
     <use xlink:href="#DejaVuSerif-Bold-6c" transform="translate(1443.464844 0)"/>
     <use xlink:href="#DejaVuSerif-Bold-69" transform="translate(1481.453125 0)"/>
     <use xlink:href="#DejaVuSerif-Bold-62" transform="translate(1519.441406 0)"/>
     <use xlink:href="#DejaVuSerif-Bold-72" transform="translate(1589.363281 0)"/>
     <use xlink:href="#DejaVuSerif-Bold-69" transform="translate(1642.048828 0)"/>
     <use xlink:href="#DejaVuSerif-Bold-75" transform="translate(1680.037109 0)"/>
     <use xlink:href="#DejaVuSerif-Bold-6d" transform="translate(1752.742188 0)"/>
     <use xlink:href="#DejaVuSerif-Bold-20" transform="translate(1858.552734 0)"/>
     <use xlink:href="#DejaVuSerif-Bold-73" transform="translate(1893.367188 0)"/>
     <use xlink:href="#DejaVuSerif-Bold-70" transform="translate(1949.666016 0)"/>
     <use xlink:href="#DejaVuSerif-Bold-65" transform="translate(2019.587891 0)"/>
     <use xlink:href="#DejaVuSerif-Bold-63" transform="translate(2083.210938 0)"/>
     <use xlink:href="#DejaVuSerif-Bold-69" transform="translate(2144.099609 0)"/>
     <use xlink:href="#DejaVuSerif-Bold-61" transform="translate(2182.087891 0)"/>
     <use xlink:href="#DejaVuSerif-Bold-74" transform="translate(2246.882812 0)"/>
     <use xlink:href="#DejaVuSerif-Bold-69" transform="translate(2293.074219 0)"/>
     <use xlink:href="#DejaVuSerif-Bold-6f" transform="translate(2331.0625 0)"/>
     <use xlink:href="#DejaVuSerif-Bold-6e" transform="translate(2397.761719 0)"/>
     <use xlink:href="#DejaVuSerif-Bold-20" transform="translate(2470.466797 0)"/>
     <use xlink:href="#DejaVuSerif-Bold-61" transform="translate(2505.28125 0)"/>
     <use xlink:href="#DejaVuSerif-Bold-74" transform="translate(2570.076172 0)"/>
     <use xlink:href="#DejaVuSerif-Bold-20" transform="translate(2616.267578 0)"/>
     <use xlink:href="#DejaVuSerif-Bold-34" transform="translate(2651.082031 0)"/>
     <use xlink:href="#DejaVuSerif-Bold-30" transform="translate(2720.662109 0)"/>
     <use xlink:href="#DejaVuSerif-Bold-20" transform="translate(2790.242188 0)"/>
     <use xlink:href="#DejaVuSerif-Bold-43" transform="translate(2825.056641 0)"/>
    </g>
   </g>
   <g id="legend_1">
    <g id="text_26">
     <!-- Model curves; markers are reference data -->
     <g transform="translate(270.141737 395.222656) scale(0.1 -0.1)">
      <defs>
       <path id="DejaVuSerif-76" d="M 1581 0
L 359 2988
L -19 2988
L -19 3322
L 1509 3322
L 1509 2988
L 978 2988
L 1913 703
L 2847 2988
L 2350 2988
L 2350 3322
L 3597 3322
L 3597 2988
L 3225 2988
L 2003 0
L 1581 0
z
" transform="scale(0.015625)"/>
       <path id="DejaVuSerif-3b" d="M 231 -622
Q 525 -406 662 -114
Q 800 178 800 594
L 800 709
L 1416 709
Q 1391 175 1164 -208
Q 938 -591 481 -872
L 231 -622
z
M 678 2363
Q 678 2538 798 2658
Q 919 2778 1094 2778
Q 1269 2778 1389 2656
Q 1509 2534 1509 2363
Q 1509 2188 1389 2067
Q 1269 1947 1094 1947
Q 919 1947 798 2067
Q 678 2188 678 2363
z
" transform="scale(0.015625)"/>
       <path id="DejaVuSerif-6b" d="M 1831 0
L 219 0
L 219 331
L 738 331
L 738 4531
L 184 4531
L 184 4863
L 1313 4863
L 1313 1697
L 2713 2988
L 2234 2988
L 2234 3322
L 3738 3322
L 3738 2988
L 3169 2988
L 2181 2075
L 3444 331
L 3922 331
L 3922 0
L 2284 0
L 2284 331
L 2759 331
L 1766 1697
L 1313 1275
L 1313 331
L 1831 331
L 1831 0
z
" transform="scale(0.015625)"/>
      </defs>
      <use xlink:href="#DejaVuSerif-4d"/>
      <use xlink:href="#DejaVuSerif-6f" transform="translate(102.392578 0)"/>
      <use xlink:href="#DejaVuSerif-64" transform="translate(162.597656 0)"/>
      <use xlink:href="#DejaVuSerif-65" transform="translate(226.611328 0)"/>
      <use xlink:href="#DejaVuSerif-6c" transform="translate(285.791016 0)"/>
      <use xlink:href="#DejaVuSerif-20" transform="translate(317.773438 0)"/>
      <use xlink:href="#DejaVuSerif-63" transform="translate(349.560547 0)"/>
      <use xlink:href="#DejaVuSerif-75" transform="translate(405.566406 0)"/>
      <use xlink:href="#DejaVuSerif-72" transform="translate(469.970703 0)"/>
      <use xlink:href="#DejaVuSerif-76" transform="translate(517.773438 0)"/>
      <use xlink:href="#DejaVuSerif-65" transform="translate(574.267578 0)"/>
      <use xlink:href="#DejaVuSerif-73" transform="translate(633.447266 0)"/>
      <use xlink:href="#DejaVuSerif-3b" transform="translate(684.765625 0)"/>
      <use xlink:href="#DejaVuSerif-20" transform="translate(718.457031 0)"/>
      <use xlink:href="#DejaVuSerif-6d" transform="translate(750.244141 0)"/>
      <use xlink:href="#DejaVuSerif-61" transform="translate(845.068359 0)"/>
      <use xlink:href="#DejaVuSerif-72" transform="translate(904.6875 0)"/>
      <use xlink:href="#DejaVuSerif-6b" transform="translate(952.490234 0)"/>
      <use xlink:href="#DejaVuSerif-65" transform="translate(1013.085938 0)"/>
      <use xlink:href="#DejaVuSerif-72" transform="translate(1072.265625 0)"/>
      <use xlink:href="#DejaVuSerif-73" transform="translate(1120.068359 0)"/>
      <use xlink:href="#DejaVuSerif-20" transform="translate(1171.386719 0)"/>
      <use xlink:href="#DejaVuSerif-61" transform="translate(1203.173828 0)"/>
      <use xlink:href="#DejaVuSerif-72" transform="translate(1262.792969 0)"/>
      <use xlink:href="#DejaVuSerif-65" transform="translate(1310.595703 0)"/>
      <use xlink:href="#DejaVuSerif-20" transform="translate(1369.775391 0)"/>
      <use xlink:href="#DejaVuSerif-72" transform="translate(1401.5625 0)"/>
      <use xlink:href="#DejaVuSerif-65" transform="translate(1449.365234 0)"/>
      <use xlink:href="#DejaVuSerif-66" transform="translate(1508.544922 0)"/>
      <use xlink:href="#DejaVuSerif-65" transform="translate(1545.556641 0)"/>
      <use xlink:href="#DejaVuSerif-72" transform="translate(1604.736328 0)"/>
      <use xlink:href="#DejaVuSerif-65" transform="translate(1652.539062 0)"/>
      <use xlink:href="#DejaVuSerif-6e" transform="translate(1711.71875 0)"/>
      <use xlink:href="#DejaVuSerif-63" transform="translate(1776.123047 0)"/>
      <use xlink:href="#DejaVuSerif-65" transform="translate(1832.128906 0)"/>
      <use xlink:href="#DejaVuSerif-20" transform="translate(1891.308594 0)"/>
      <use xlink:href="#DejaVuSerif-64" transform="translate(1923.095703 0)"/>
      <use xlink:href="#DejaVuSerif-61" transform="translate(1987.109375 0)"/>
      <use xlink:href="#DejaVuSerif-74" transform="translate(2046.728516 0)"/>
      <use xlink:href="#DejaVuSerif-61" transform="translate(2086.914062 0)"/>
     </g>
    </g>
    <g id="line2d_58">
     <path d="M 292.894081 405.036016
L 301.394081 405.036016
L 309.894081 405.036016
" style="fill: none; stroke-dasharray: 8.14,3.52; stroke-dashoffset: 0; stroke: #16805a; stroke-width: 2.2"/>
    </g>
    <g id="text_27">
     <!-- $CO_2$ -->
     <g transform="translate(316.694081 408.011016) scale(0.085 -0.085)">
      <use xlink:href="#DejaVuSerif-Italic-43" transform="translate(0 0.78125)"/>
      <use xlink:href="#DejaVuSerif-Italic-4f" transform="translate(76.513672 0.78125)"/>
      <use xlink:href="#DejaVuSerif-32" transform="translate(158.496094 -14.790625) scale(0.7)"/>
     </g>
    </g>
    <g id="line2d_59">
     <path d="M 292.894081 417.512422
L 301.394081 417.512422
L 309.894081 417.512422
" style="fill: none; stroke-dasharray: 8.14,3.52; stroke-dashoffset: 0; stroke: #1f5aa6; stroke-width: 2.2"/>
    </g>
    <g id="text_28">
     <!-- $MEA$ -->
     <g transform="translate(316.694081 420.487422) scale(0.085 -0.085)">
      <defs>
       <path id="DejaVuSerif-Italic-4d" d="M -97 0
L -34 331
L 559 331
L 1338 4331
L 709 4331
L 775 4666
L 2134 4666
L 3125 1344
L 5409 4666
L 6684 4666
L 6619 4331
L 5997 4331
L 5222 331
L 5816 331
L 5753 0
L 3928 0
L 3991 331
L 4584 331
L 5288 3938
L 3053 684
L 2613 684
L 1647 3938
L 944 331
L 1538 331
L 1475 0
L -97 0
z
" transform="scale(0.015625)"/>
       <path id="DejaVuSerif-Italic-45" d="M -97 0
L -34 331
L 559 331
L 1338 4331
L 744 4331
L 809 4666
L 4566 4666
L 4366 3628
L 3981 3628
L 4106 4281
L 1963 4281
L 1659 2719
L 3188 2719
L 3300 3303
L 3684 3303
L 3384 1753
L 3000 1753
L 3113 2338
L 1584 2338
L 1206 384
L 3400 384
L 3525 1038
L 3909 1038
L 3709 0
L -97 0
z
" transform="scale(0.015625)"/>
       <path id="DejaVuSerif-Italic-41" d="M 1159 1691
L 2872 1691
L 2447 3909
L 1159 1691
z
M -488 0
L -425 331
L -16 331
L 2491 4666
L 3016 4666
L 3841 331
L 4297 331
L 4234 0
L 2538 0
L 2600 331
L 3119 331
L 2928 1356
L 966 1356
L 375 331
L 888 331
L 825 0
L -488 0
z
" transform="scale(0.015625)"/>
      </defs>
      <use xlink:href="#DejaVuSerif-Italic-4d" transform="translate(0 0.09375)"/>
      <use xlink:href="#DejaVuSerif-Italic-45" transform="translate(102.392578 0.09375)"/>
      <use xlink:href="#DejaVuSerif-Italic-41" transform="translate(175.390625 0.09375)"/>
     </g>
    </g>
    <g id="line2d_60">
     <path d="M 292.894081 429.988828
L 301.394081 429.988828
L 309.894081 429.988828
" style="fill: none; stroke-dasharray: 8.14,3.52; stroke-dashoffset: 0; stroke: #707070; stroke-width: 2.2"/>
    </g>
    <g id="text_29">
     <!-- $H_2O$ -->
     <g transform="translate(316.694081 432.963828) scale(0.085 -0.085)">
      <defs>
       <path id="DejaVuSerif-Italic-48" d="M -97 0
L -34 331
L 559 331
L 1338 4331
L 744 4331
L 809 4666
L 2631 4666
L 2566 4331
L 1972 4331
L 1659 2719
L 4078 2719
L 4391 4331
L 3797 4331
L 3863 4666
L 5684 4666
L 5619 4331
L 5025 4331
L 4247 331
L 4841 331
L 4778 0
L 2956 0
L 3019 331
L 3616 331
L 4003 2338
L 1584 2338
L 1194 331
L 1788 331
L 1725 0
L -97 0
z
" transform="scale(0.015625)"/>
      </defs>
      <use xlink:href="#DejaVuSerif-Italic-48" transform="translate(0 0.78125)"/>
      <use xlink:href="#DejaVuSerif-32" transform="translate(87.207031 -14.790625) scale(0.7)"/>
      <use xlink:href="#DejaVuSerif-Italic-4f" transform="translate(134.338477 0.78125)"/>
     </g>
    </g>
    <g id="line2d_61">
     <path d="M 292.894081 442.465234
L 301.394081 442.465234
L 309.894081 442.465234
" style="fill: none; stroke-dasharray: 8.14,3.52; stroke-dashoffset: 0; stroke: #bcbd22; stroke-width: 2.2"/>
    </g>
    <g id="text_30">
     <!-- $MEAH^+$ -->
     <g transform="translate(316.694081 445.440234) scale(0.085 -0.085)">
      <defs>
       <path id="DejaVuSerif-2b" d="M 2931 4013
L 2931 2259
L 4684 2259
L 4684 1753
L 2931 1753
L 2931 0
L 2431 0
L 2431 1753
L 678 1753
L 678 2259
L 2431 2259
L 2431 4013
L 2931 4013
z
" transform="scale(0.015625)"/>
      </defs>
      <use xlink:href="#DejaVuSerif-Italic-4d" transform="translate(0 0.773438)"/>
      <use xlink:href="#DejaVuSerif-Italic-45" transform="translate(102.392578 0.773438)"/>
      <use xlink:href="#DejaVuSerif-Italic-41" transform="translate(175.390625 0.773438)"/>
      <use xlink:href="#DejaVuSerif-Italic-48" transform="translate(247.607422 0.773438)"/>
      <use xlink:href="#DejaVuSerif-2b" transform="translate(355.268854 37.107812) scale(0.7)"/>
     </g>
    </g>
    <g id="line2d_62">
     <path d="M 370.244081 405.036016
L 378.744081 405.036016
L 387.244081 405.036016
" style="fill: none; stroke-dasharray: 8.14,3.52; stroke-dashoffset: 0; stroke: #d62728; stroke-width: 2.2"/>
    </g>
    <g id="text_31">
     <!-- $MEACOO^-$ -->
     <g transform="translate(394.044081 408.011016) scale(0.085 -0.085)">
      <use xlink:href="#DejaVuSerif-Italic-4d" transform="translate(0 0.78125)"/>
      <use xlink:href="#DejaVuSerif-Italic-45" transform="translate(102.392578 0.78125)"/>
      <use xlink:href="#DejaVuSerif-Italic-41" transform="translate(175.390625 0.78125)"/>
      <use xlink:href="#DejaVuSerif-Italic-43" transform="translate(247.607422 0.78125)"/>
      <use xlink:href="#DejaVuSerif-Italic-4f" transform="translate(324.121094 0.78125)"/>
      <use xlink:href="#DejaVuSerif-Italic-4f" transform="translate(406.103516 0.78125)"/>
      <use xlink:href="#DejaVuSerif-2212" transform="translate(508.724089 37.115625) scale(0.7)"/>
     </g>
    </g>
    <g id="line2d_63">
     <path d="M 370.244081 417.512422
L 378.744081 417.512422
L 387.244081 417.512422
" style="fill: none; stroke-dasharray: 8.14,3.52; stroke-dashoffset: 0; stroke: #17becf; stroke-width: 2.2"/>
    </g>
    <g id="text_32">
     <!-- $HCO_3^-$ -->
     <g transform="translate(394.044081 420.487422) scale(0.085 -0.085)">
      <use xlink:href="#DejaVuSerif-Italic-48" transform="translate(0 0.78125)"/>
      <use xlink:href="#DejaVuSerif-Italic-43" transform="translate(87.207031 0.78125)"/>
      <use xlink:href="#DejaVuSerif-Italic-4f" transform="translate(163.720703 0.78125)"/>
      <use xlink:href="#DejaVuSerif-2212" transform="translate(266.341276 39.28125) scale(0.7)"/>
      <use xlink:href="#DejaVuSerif-33" transform="translate(245.703125 -25.171875) scale(0.7)"/>
     </g>
    </g>
    <g id="line2d_64">
     <path d="M 370.244081 430.516094
L 378.744081 430.516094
L 387.244081 430.516094
" style="fill: none; stroke-dasharray: 8.14,3.52; stroke-dashoffset: 0; stroke: #e377c2; stroke-width: 2.2"/>
    </g>
    <g id="text_33">
     <!-- $MEA + MEAH^+$ -->
     <g transform="translate(394.044081 433.491094) scale(0.085 -0.085)">
      <use xlink:href="#DejaVuSerif-Italic-4d" transform="translate(0 0.773438)"/>
      <use xlink:href="#DejaVuSerif-Italic-45" transform="translate(102.392578 0.773438)"/>
      <use xlink:href="#DejaVuSerif-Italic-41" transform="translate(175.390625 0.773438)"/>
      <use xlink:href="#DejaVuSerif-2b" transform="translate(266.572266 0.773438)"/>
      <use xlink:href="#DejaVuSerif-Italic-4d" transform="translate(369.326172 0.773438)"/>
      <use xlink:href="#DejaVuSerif-Italic-45" transform="translate(471.71875 0.773438)"/>
      <use xlink:href="#DejaVuSerif-Italic-41" transform="translate(544.716797 0.773438)"/>
      <use xlink:href="#DejaVuSerif-Italic-48" transform="translate(616.933594 0.773438)"/>
      <use xlink:href="#DejaVuSerif-2b" transform="translate(724.595026 37.107812) scale(0.7)"/>
     </g>
    </g>
   </g>
  </g>
 </g>
 <defs>
  <clipPath id="pa774fc75f3">
   <rect x="57.245938" y="27.077969" width="640.446286" height="427.78"/>
  </clipPath>
 </defs>
</svg>
