<?xml version="1.0" encoding="utf-8" standalone="no"?>
<!DOCTYPE svg PUBLIC "-//W3C//DTD SVG 1.1//EN"
  "http://www.w3.org/Graphics/SVG/1.1/DTD/svg11.dtd">
<svg xmlns:xlink="http://www.w3.org/1999/xlink" width="604.606576pt" height="365.722094pt" viewBox="0 0 604.606576 365.722094" xmlns="http://www.w3.org/2000/svg" version="1.1">
 <metadata>
  <rdf:RDF xmlns:dc="http://purl.org/dc/elements/1.1/" xmlns:cc="http://creativecommons.org/ns#" xmlns:rdf="http://www.w3.org/1999/02/22-rdf-syntax-ns#">
   <cc:Work>
    <dc:type rdf:resource="http://purl.org/dc/dcmitype/StillImage"/>
    <dc:date>2026-07-09T17:06:19.744061</dc:date>
    <dc:format>image/svg+xml</dc:format>
    <dc:creator>
     <cc:Agent>
      <dc:title>Matplotlib v3.10.9, https://matplotlib.org/</dc:title>
     </cc:Agent>
    </dc:creator>
   </cc:Work>
  </rdf:RDF>
 </metadata>
 <defs>
  <style type="text/css">*{stroke-linejoin: round; stroke-linecap: butt}</style>
 </defs>
 <g id="figure_1">
  <g id="patch_1">
   <path d="M 0 365.722094
L 604.606576 365.722094
L 604.606576 0
L 0 0
z
" style="fill: #ffffff"/>
  </g>
  <g id="axes_1">
   <g id="patch_2">
    <path d="M 52.77 326.453969
L 446.898 326.453969
L 446.898 27.077969
L 52.77 27.077969
z
" style="fill: #ffffff"/>
   </g>
   <g id="matplotlib.axis_1">
    <g id="xtick_1">
     <g id="line2d_1">
      <path d="M 65.154799 326.453969
L 65.154799 27.077969
" clip-path="url(#p61d4eac16a)" style="fill: none; stroke: #b0b0b0; stroke-opacity: 0.22; stroke-width: 0.8; stroke-linecap: square"/>
     </g>
     <g id="line2d_2">
      <defs>
       <path id="m2252b6ea0c" d="M 0 0
L 0 4
" style="stroke: #000000; stroke-width: 0.8"/>
      </defs>
      <g>
       <use xlink:href="#m2252b6ea0c" x="65.154799" y="326.453969" style="stroke: #000000; stroke-width: 0.8"/>
      </g>
     </g>
     <g id="text_1">
      <!-- 0.1 -->
      <g transform="translate(57.203236 341.552406) scale(0.1 -0.1)">
       <defs>
        <path id="DejaVuSerif-30" d="M 2034 219
Q 2513 219 2750 744
Q 2988 1269 2988 2328
Q 2988 3391 2750 3916
Q 2513 4441 2034 4441
Q 1556 4441 1318 3916
Q 1081 3391 1081 2328
Q 1081 1269 1318 744
Q 1556 219 2034 219
z
M 2034 -91
Q 1275 -91 848 546
Q 422 1184 422 2328
Q 422 3475 848 4112
Q 1275 4750 2034 4750
Q 2797 4750 3222 4112
Q 3647 3475 3647 2328
Q 3647 1184 3222 546
Q 2797 -91 2034 -91
z
" transform="scale(0.015625)"/>
        <path id="DejaVuSerif-2e" d="M 603 325
Q 603 500 722 622
Q 841 744 1019 744
Q 1191 744 1312 622
Q 1434 500 1434 325
Q 1434 153 1312 31
Q 1191 -91 1019 -91
Q 841 -91 722 29
Q 603 150 603 325
z
" transform="scale(0.015625)"/>
        <path id="DejaVuSerif-31" d="M 909 0
L 909 331
L 1722 331
L 1722 4213
L 781 3603
L 781 4013
L 1919 4750
L 2350 4750
L 2350 331
L 3163 331
L 3163 0
L 909 0
z
" transform="scale(0.015625)"/>
       </defs>
       <use xlink:href="#DejaVuSerif-30"/>
       <use xlink:href="#DejaVuSerif-2e" transform="translate(63.623047 0)"/>
       <use xlink:href="#DejaVuSerif-31" transform="translate(95.410156 0)"/>
      </g>
     </g>
    </g>
    <g id="xtick_2">
     <g id="line2d_3">
      <path d="M 138.006555 326.453969
L 138.006555 27.077969
" clip-path="url(#p61d4eac16a)" style="fill: none; stroke: #b0b0b0; stroke-opacity: 0.22; stroke-width: 0.8; stroke-linecap: square"/>
     </g>
     <g id="line2d_4">
      <g>
       <use xlink:href="#m2252b6ea0c" x="138.006555" y="326.453969" style="stroke: #000000; stroke-width: 0.8"/>
      </g>
     </g>
     <g id="text_2">
      <!-- 0.2 -->
      <g transform="translate(130.054992 341.552406) scale(0.1 -0.1)">
       <defs>
        <path id="DejaVuSerif-32" d="M 819 3553
L 469 3553
L 469 4384
Q 803 4563 1142 4656
Q 1481 4750 1806 4750
Q 2534 4750 2956 4397
Q 3378 4044 3378 3438
Q 3378 2753 2422 1800
Q 2347 1728 2309 1691
L 1131 513
L 3078 513
L 3078 1088
L 3444 1088
L 3444 0
L 434 0
L 434 341
L 1850 1753
Q 2319 2222 2519 2614
Q 2719 3006 2719 3438
Q 2719 3909 2473 4175
Q 2228 4441 1797 4441
Q 1350 4441 1106 4219
Q 863 3997 819 3553
z
" transform="scale(0.015625)"/>
       </defs>
       <use xlink:href="#DejaVuSerif-30"/>
       <use xlink:href="#DejaVuSerif-2e" transform="translate(63.623047 0)"/>
       <use xlink:href="#DejaVuSerif-32" transform="translate(95.410156 0)"/>
      </g>
     </g>
    </g>
    <g id="xtick_3">
     <g id="line2d_5">
      <path d="M 210.858311 326.453969
L 210.858311 27.077969
" clip-path="url(#p61d4eac16a)" style="fill: none; stroke: #b0b0b0; stroke-opacity: 0.22; stroke-width: 0.8; stroke-linecap: square"/>
     </g>
     <g id="line2d_6">
      <g>
       <use xlink:href="#m2252b6ea0c" x="210.858311" y="326.453969" style="stroke: #000000; stroke-width: 0.8"/>
      </g>
     </g>
     <g id="text_3">
      <!-- 0.3 -->
      <g transform="translate(202.906748 341.552406) scale(0.1 -0.1)">
       <defs>
        <path id="DejaVuSerif-33" d="M 622 4469
Q 988 4606 1323 4678
Q 1659 4750 1953 4750
Q 2638 4750 3022 4454
Q 3406 4159 3406 3634
Q 3406 3213 3140 2930
Q 2875 2647 2388 2547
Q 2963 2466 3280 2130
Q 3597 1794 3597 1259
Q 3597 606 3158 257
Q 2719 -91 1894 -91
Q 1528 -91 1179 -12
Q 831 66 488 225
L 488 1131
L 838 1131
Q 869 681 1141 450
Q 1413 219 1906 219
Q 2384 219 2661 495
Q 2938 772 2938 1253
Q 2938 1803 2653 2086
Q 2369 2369 1819 2369
L 1522 2369
L 1522 2688
L 1678 2688
Q 2225 2688 2498 2914
Q 2772 3141 2772 3597
Q 2772 4006 2547 4223
Q 2322 4441 1900 4441
Q 1478 4441 1245 4241
Q 1013 4041 972 3647
L 622 3647
L 622 4469
z
" transform="scale(0.015625)"/>
       </defs>
       <use xlink:href="#DejaVuSerif-30"/>
       <use xlink:href="#DejaVuSerif-2e" transform="translate(63.623047 0)"/>
       <use xlink:href="#DejaVuSerif-33" transform="translate(95.410156 0)"/>
      </g>
     </g>
    </g>
    <g id="xtick_4">
     <g id="line2d_7">
      <path d="M 283.710067 326.453969
L 283.710067 27.077969
" clip-path="url(#p61d4eac16a)" style="fill: none; stroke: #b0b0b0; stroke-opacity: 0.22; stroke-width: 0.8; stroke-linecap: square"/>
     </g>
     <g id="line2d_8">
      <g>
       <use xlink:href="#m2252b6ea0c" x="283.710067" y="326.453969" style="stroke: #000000; stroke-width: 0.8"/>
      </g>
     </g>
     <g id="text_4">
      <!-- 0.4 -->
      <g transform="translate(275.758504 341.552406) scale(0.1 -0.1)">
       <defs>
        <path id="DejaVuSerif-34" d="M 2234 1581
L 2234 4063
L 641 1581
L 2234 1581
z
M 3609 0
L 1484 0
L 1484 331
L 2234 331
L 2234 1247
L 197 1247
L 197 1588
L 2241 4750
L 2859 4750
L 2859 1581
L 3750 1581
L 3750 1247
L 2859 1247
L 2859 331
L 3609 331
L 3609 0
z
" transform="scale(0.015625)"/>
       </defs>
       <use xlink:href="#DejaVuSerif-30"/>
       <use xlink:href="#DejaVuSerif-2e" transform="translate(63.623047 0)"/>
       <use xlink:href="#DejaVuSerif-34" transform="translate(95.410156 0)"/>
      </g>
     </g>
    </g>
    <g id="xtick_5">
     <g id="line2d_9">
      <path d="M 356.561823 326.453969
L 356.561823 27.077969
" clip-path="url(#p61d4eac16a)" style="fill: none; stroke: #b0b0b0; stroke-opacity: 0.22; stroke-width: 0.8; stroke-linecap: square"/>
     </g>
     <g id="line2d_10">
      <g>
       <use xlink:href="#m2252b6ea0c" x="356.561823" y="326.453969" style="stroke: #000000; stroke-width: 0.8"/>
      </g>
     </g>
     <g id="text_5">
      <!-- 0.5 -->
      <g transform="translate(348.61026 341.552406) scale(0.1 -0.1)">
       <defs>
        <path id="DejaVuSerif-35" d="M 3219 4666
L 3219 4153
L 1081 4153
L 1081 2816
Q 1244 2928 1461 2984
Q 1678 3041 1947 3041
Q 2703 3041 3140 2622
Q 3578 2203 3578 1478
Q 3578 738 3136 323
Q 2694 -91 1894 -91
Q 1572 -91 1234 -12
Q 897 66 544 225
L 544 1131
L 897 1131
Q 925 688 1179 453
Q 1434 219 1894 219
Q 2388 219 2653 544
Q 2919 869 2919 1478
Q 2919 2084 2655 2407
Q 2391 2731 1894 2731
Q 1613 2731 1398 2631
Q 1184 2531 1019 2322
L 750 2322
L 750 4666
L 3219 4666
z
" transform="scale(0.015625)"/>
       </defs>
       <use xlink:href="#DejaVuSerif-30"/>
       <use xlink:href="#DejaVuSerif-2e" transform="translate(63.623047 0)"/>
       <use xlink:href="#DejaVuSerif-35" transform="translate(95.410156 0)"/>
      </g>
     </g>
    </g>
    <g id="xtick_6">
     <g id="line2d_11">
      <path d="M 429.413579 326.453969
L 429.413579 27.077969
" clip-path="url(#p61d4eac16a)" style="fill: none; stroke: #b0b0b0; stroke-opacity: 0.22; stroke-width: 0.8; stroke-linecap: square"/>
     </g>
     <g id="line2d_12">
      <g>
       <use xlink:href="#m2252b6ea0c" x="429.413579" y="326.453969" style="stroke: #000000; stroke-width: 0.8"/>
      </g>
     </g>
     <g id="text_6">
      <!-- 0.6 -->
      <g transform="translate(421.462016 341.552406) scale(0.1 -0.1)">
       <defs>
        <path id="DejaVuSerif-36" d="M 2094 219
Q 2534 219 2771 542
Q 3009 866 3009 1472
Q 3009 2078 2771 2401
Q 2534 2725 2094 2725
Q 1647 2725 1412 2412
Q 1178 2100 1178 1509
Q 1178 888 1415 553
Q 1653 219 2094 219
z
M 1075 2569
Q 1288 2803 1556 2918
Q 1825 3034 2163 3034
Q 2859 3034 3264 2615
Q 3669 2197 3669 1472
Q 3669 763 3233 336
Q 2797 -91 2069 -91
Q 1278 -91 853 498
Q 428 1088 428 2181
Q 428 3406 931 4078
Q 1434 4750 2350 4750
Q 2597 4750 2869 4703
Q 3141 4656 3425 4563
L 3425 3794
L 3072 3794
Q 3034 4109 2831 4275
Q 2628 4441 2284 4441
Q 1678 4441 1381 3981
Q 1084 3522 1075 2569
z
" transform="scale(0.015625)"/>
       </defs>
       <use xlink:href="#DejaVuSerif-30"/>
       <use xlink:href="#DejaVuSerif-2e" transform="translate(63.623047 0)"/>
       <use xlink:href="#DejaVuSerif-36" transform="translate(95.410156 0)"/>
      </g>
     </g>
    </g>
    <g id="text_7">
     <!-- $CO_2$ loading, mol $CO_2$/mol MEA -->
     <g transform="translate(161.724 355.992094) scale(0.11 -0.11)">
      <defs>
       <path id="DejaVuSerif-Italic-43" d="M 4300 1234
Q 3966 581 3414 245
Q 2863 -91 2119 -91
Q 1663 -91 1303 65
Q 944 222 700 525
Q 419 875 334 1320
Q 250 1766 359 2328
Q 572 3416 1330 4083
Q 2088 4750 3116 4750
Q 3497 4750 3908 4650
Q 4319 4550 4775 4347
L 4569 3272
L 4216 3272
Q 4213 3859 3919 4137
Q 3625 4416 2997 4416
Q 2250 4416 1762 3886
Q 1275 3356 1075 2328
Q 875 1303 1156 773
Q 1438 244 2184 244
Q 2706 244 3092 492
Q 3478 741 3725 1234
L 4300 1234
z
" transform="scale(0.015625)"/>
       <path id="DejaVuSerif-Italic-4f" d="M 2219 244
Q 2984 244 3478 770
Q 3972 1297 4172 2328
Q 4372 3363 4084 3889
Q 3797 4416 3031 4416
Q 2263 4416 1769 3889
Q 1275 3363 1075 2328
Q 875 1297 1162 770
Q 1450 244 2219 244
z
M 2153 -91
Q 1678 -91 1311 65
Q 944 222 700 525
Q 419 875 334 1319
Q 250 1763 359 2328
Q 469 2894 725 3339
Q 981 3784 1400 4134
Q 1766 4441 2191 4595
Q 2616 4750 3097 4750
Q 4113 4750 4608 4084
Q 5103 3419 4891 2328
Q 4781 1769 4522 1320
Q 4263 872 3847 525
Q 3481 219 3056 64
Q 2631 -91 2153 -91
z
" transform="scale(0.015625)"/>
       <path id="DejaVuSerif-20" transform="scale(0.015625)"/>
       <path id="DejaVuSerif-6c" d="M 1313 331
L 1856 331
L 1856 0
L 184 0
L 184 331
L 738 331
L 738 4531
L 184 4531
L 184 4863
L 1313 4863
L 1313 331
z
" transform="scale(0.015625)"/>
       <path id="DejaVuSerif-6f" d="M 1925 219
Q 2388 219 2623 584
Q 2859 950 2859 1663
Q 2859 2375 2623 2739
Q 2388 3103 1925 3103
Q 1463 3103 1227 2739
Q 991 2375 991 1663
Q 991 950 1228 584
Q 1466 219 1925 219
z
M 1925 -91
Q 1200 -91 759 389
Q 319 869 319 1663
Q 319 2456 758 2934
Q 1197 3413 1925 3413
Q 2653 3413 3092 2934
Q 3531 2456 3531 1663
Q 3531 869 3092 389
Q 2653 -91 1925 -91
z
" transform="scale(0.015625)"/>
       <path id="DejaVuSerif-61" d="M 2547 1044
L 2547 1747
L 1806 1747
Q 1378 1747 1168 1562
Q 959 1378 959 997
Q 959 650 1171 447
Q 1384 244 1747 244
Q 2106 244 2326 466
Q 2547 688 2547 1044
z
M 3122 2075
L 3122 331
L 3634 331
L 3634 0
L 2547 0
L 2547 359
Q 2356 128 2106 18
Q 1856 -91 1522 -91
Q 969 -91 644 203
Q 319 497 319 997
Q 319 1513 691 1797
Q 1063 2081 1741 2081
L 2547 2081
L 2547 2309
Q 2547 2688 2317 2895
Q 2088 3103 1672 3103
Q 1328 3103 1125 2947
Q 922 2791 872 2484
L 575 2484
L 575 3156
Q 875 3284 1158 3348
Q 1441 3413 1709 3413
Q 2400 3413 2761 3070
Q 3122 2728 3122 2075
z
" transform="scale(0.015625)"/>
       <path id="DejaVuSerif-64" d="M 3359 331
L 3909 331
L 3909 0
L 2784 0
L 2784 519
Q 2616 206 2355 57
Q 2094 -91 1709 -91
Q 1097 -91 708 395
Q 319 881 319 1663
Q 319 2444 706 2928
Q 1094 3413 1709 3413
Q 2094 3413 2355 3264
Q 2616 3116 2784 2803
L 2784 4531
L 2241 4531
L 2241 4863
L 3359 4863
L 3359 331
z
M 2784 1497
L 2784 1825
Q 2784 2422 2554 2737
Q 2325 3053 1888 3053
Q 1444 3053 1217 2703
Q 991 2353 991 1663
Q 991 975 1217 622
Q 1444 269 1888 269
Q 2325 269 2554 583
Q 2784 897 2784 1497
z
" transform="scale(0.015625)"/>
       <path id="DejaVuSerif-69" d="M 622 4353
Q 622 4497 726 4603
Q 831 4709 978 4709
Q 1122 4709 1226 4603
Q 1331 4497 1331 4353
Q 1331 4206 1228 4103
Q 1125 4000 978 4000
Q 831 4000 726 4103
Q 622 4206 622 4353
z
M 1356 331
L 1900 331
L 1900 0
L 231 0
L 231 331
L 781 331
L 781 2988
L 231 2988
L 231 3322
L 1356 3322
L 1356 331
z
" transform="scale(0.015625)"/>
       <path id="DejaVuSerif-6e" d="M 263 0
L 263 331
L 781 331
L 781 2988
L 231 2988
L 231 3322
L 1356 3322
L 1356 2731
Q 1516 3069 1770 3241
Q 2025 3413 2363 3413
Q 2913 3413 3172 3097
Q 3431 2781 3431 2113
L 3431 331
L 3944 331
L 3944 0
L 2356 0
L 2356 331
L 2853 331
L 2853 1931
Q 2853 2541 2703 2767
Q 2553 2994 2175 2994
Q 1775 2994 1565 2701
Q 1356 2409 1356 1850
L 1356 331
L 1856 331
L 1856 0
L 263 0
z
" transform="scale(0.015625)"/>
       <path id="DejaVuSerif-67" d="M 3359 2988
L 3359 72
Q 3359 -644 2965 -1033
Q 2572 -1422 1844 -1422
Q 1516 -1422 1216 -1362
Q 916 -1303 641 -1184
L 641 -488
L 941 -488
Q 997 -813 1206 -963
Q 1416 -1113 1806 -1113
Q 2313 -1113 2548 -827
Q 2784 -541 2784 72
L 2784 519
Q 2616 206 2355 57
Q 2094 -91 1709 -91
Q 1097 -91 708 395
Q 319 881 319 1663
Q 319 2444 706 2928
Q 1094 3413 1709 3413
Q 2094 3413 2355 3264
Q 2616 3116 2784 2803
L 2784 3322
L 3909 3322
L 3909 2988
L 3359 2988
z
M 2784 1825
Q 2784 2422 2554 2737
Q 2325 3053 1888 3053
Q 1444 3053 1217 2703
Q 991 2353 991 1663
Q 991 975 1217 622
Q 1444 269 1888 269
Q 2325 269 2554 583
Q 2784 897 2784 1497
L 2784 1825
z
" transform="scale(0.015625)"/>
       <path id="DejaVuSerif-2c" d="M 231 -622
Q 525 -406 662 -114
Q 800 178 800 594
L 800 709
L 1416 709
Q 1391 175 1164 -208
Q 938 -591 481 -872
L 231 -622
z
" transform="scale(0.015625)"/>
       <path id="DejaVuSerif-6d" d="M 3316 2675
Q 3481 3041 3739 3227
Q 3997 3413 4341 3413
Q 4863 3413 5119 3089
Q 5375 2766 5375 2113
L 5375 331
L 5894 331
L 5894 0
L 4300 0
L 4300 331
L 4800 331
L 4800 2047
Q 4800 2556 4650 2772
Q 4500 2988 4153 2988
Q 3769 2988 3567 2697
Q 3366 2406 3366 1850
L 3366 331
L 3866 331
L 3866 0
L 2291 0
L 2291 331
L 2791 331
L 2791 2069
Q 2791 2566 2641 2777
Q 2491 2988 2144 2988
Q 1759 2988 1557 2697
Q 1356 2406 1356 1850
L 1356 331
L 1856 331
L 1856 0
L 263 0
L 263 331
L 781 331
L 781 2994
L 231 2994
L 231 3322
L 1356 3322
L 1356 2731
Q 1516 3063 1762 3238
Q 2009 3413 2322 3413
Q 2709 3413 2968 3220
Q 3228 3028 3316 2675
z
" transform="scale(0.015625)"/>
       <path id="DejaVuSerif-2f" d="M 1656 4666
L 2156 4666
L 500 -594
L 0 -594
L 1656 4666
z
" transform="scale(0.015625)"/>
       <path id="DejaVuSerif-4d" d="M 353 0
L 353 331
L 947 331
L 947 4331
L 319 4331
L 319 4666
L 1678 4666
L 3316 1344
L 4953 4666
L 6228 4666
L 6228 4331
L 5606 4331
L 5606 331
L 6203 331
L 6203 0
L 4378 0
L 4378 331
L 4972 331
L 4972 3938
L 3372 684
L 2931 684
L 1331 3938
L 1331 331
L 1925 331
L 1925 0
L 353 0
z
" transform="scale(0.015625)"/>
       <path id="DejaVuSerif-45" d="M 353 0
L 353 331
L 947 331
L 947 4331
L 353 4331
L 353 4666
L 4109 4666
L 4109 3628
L 3725 3628
L 3725 4281
L 1581 4281
L 1581 2719
L 3109 2719
L 3109 3303
L 3494 3303
L 3494 1753
L 3109 1753
L 3109 2338
L 1581 2338
L 1581 384
L 3775 384
L 3775 1038
L 4159 1038
L 4159 0
L 353 0
z
" transform="scale(0.015625)"/>
       <path id="DejaVuSerif-41" d="M 1281 1691
L 2994 1691
L 2138 3909
L 1281 1691
z
M -38 0
L -38 331
L 372 331
L 2034 4666
L 2559 4666
L 4225 331
L 4684 331
L 4684 0
L 2988 0
L 2988 331
L 3506 331
L 3116 1356
L 1153 1356
L 763 331
L 1275 331
L 1275 0
L -38 0
z
" transform="scale(0.015625)"/>
      </defs>
      <use xlink:href="#DejaVuSerif-Italic-43" transform="translate(0 0.015625)"/>
      <use xlink:href="#DejaVuSerif-Italic-4f" transform="translate(76.513672 0.015625)"/>
      <use xlink:href="#DejaVuSerif-32" transform="translate(158.496094 -15.55625) scale(0.7)"/>
      <use xlink:href="#DejaVuSerif-20" transform="translate(205.627539 0.015625)"/>
      <use xlink:href="#DejaVuSerif-6c" transform="translate(237.414648 0.015625)"/>
      <use xlink:href="#DejaVuSerif-6f" transform="translate(269.39707 0.015625)"/>
      <use xlink:href="#DejaVuSerif-61" transform="translate(329.602148 0.015625)"/>
      <use xlink:href="#DejaVuSerif-64" transform="translate(389.221289 0.015625)"/>
      <use xlink:href="#DejaVuSerif-69" transform="translate(453.234961 0.015625)"/>
      <use xlink:href="#DejaVuSerif-6e" transform="translate(485.217383 0.015625)"/>
      <use xlink:href="#DejaVuSerif-67" transform="translate(549.62168 0.015625)"/>
      <use xlink:href="#DejaVuSerif-2c" transform="translate(613.635352 0.015625)"/>
      <use xlink:href="#DejaVuSerif-20" transform="translate(645.422461 0.015625)"/>
      <use xlink:href="#DejaVuSerif-6d" transform="translate(677.20957 0.015625)"/>
      <use xlink:href="#DejaVuSerif-6f" transform="translate(772.033789 0.015625)"/>
      <use xlink:href="#DejaVuSerif-6c" transform="translate(832.238867 0.015625)"/>
      <use xlink:href="#DejaVuSerif-20" transform="translate(864.221289 0.015625)"/>
      <use xlink:href="#DejaVuSerif-Italic-43" transform="translate(896.008398 0.015625)"/>
      <use xlink:href="#DejaVuSerif-Italic-4f" transform="translate(972.52207 0.015625)"/>
      <use xlink:href="#DejaVuSerif-32" transform="translate(1054.504492 -15.55625) scale(0.7)"/>
      <use xlink:href="#DejaVuSerif-2f" transform="translate(1101.635937 0.015625)"/>
      <use xlink:href="#DejaVuSerif-6d" transform="translate(1135.327344 0.015625)"/>
      <use xlink:href="#DejaVuSerif-6f" transform="translate(1230.151562 0.015625)"/>
      <use xlink:href="#DejaVuSerif-6c" transform="translate(1290.356641 0.015625)"/>
      <use xlink:href="#DejaVuSerif-20" transform="translate(1322.339062 0.015625)"/>
      <use xlink:href="#DejaVuSerif-4d" transform="translate(1354.126172 0.015625)"/>
      <use xlink:href="#DejaVuSerif-45" transform="translate(1456.51875 0.015625)"/>
      <use xlink:href="#DejaVuSerif-41" transform="translate(1529.516797 0.015625)"/>
     </g>
    </g>
   </g>
   <g id="matplotlib.axis_2">
    <g id="ytick_1">
     <g id="line2d_13">
      <path d="M 52.77 326.453969
L 446.898 326.453969
" clip-path="url(#p61d4eac16a)" style="fill: none; stroke: #b0b0b0; stroke-opacity: 0.22; stroke-width: 0.8; stroke-linecap: square"/>
     </g>
     <g id="line2d_14">
      <defs>
       <path id="m6a28959f81" d="M 0 0
L -4 0
" style="stroke: #000000; stroke-width: 0.8"/>
      </defs>
      <g>
       <use xlink:href="#m6a28959f81" x="52.77" y="326.453969" style="stroke: #000000; stroke-width: 0.8"/>
      </g>
     </g>
     <g id="text_8">
      <!-- $\mathdefault{10^{-3}}$ -->
      <g transform="translate(21.87 330.253187) scale(0.1 -0.1)">
       <defs>
        <path id="DejaVuSerif-2212" d="M 678 2259
L 4684 2259
L 4684 1753
L 678 1753
L 678 2259
z
" transform="scale(0.015625)"/>
       </defs>
       <use xlink:href="#DejaVuSerif-31" transform="translate(0 0.7125)"/>
       <use xlink:href="#DejaVuSerif-30" transform="translate(63.623047 0.7125)"/>
       <use xlink:href="#DejaVuSerif-2212" transform="translate(128.154453 37.046875) scale(0.7)"/>
       <use xlink:href="#DejaVuSerif-33" transform="translate(186.806797 37.046875) scale(0.7)"/>
      </g>
     </g>
    </g>
    <g id="ytick_2">
     <g id="line2d_15">
      <path d="M 52.77 278.941737
L 446.898 278.941737
" clip-path="url(#p61d4eac16a)" style="fill: none; stroke: #b0b0b0; stroke-opacity: 0.22; stroke-width: 0.8; stroke-linecap: square"/>
     </g>
     <g id="line2d_16">
      <g>
       <use xlink:href="#m6a28959f81" x="52.77" y="278.941737" style="stroke: #000000; stroke-width: 0.8"/>
      </g>
     </g>
     <g id="text_9">
      <!-- $\mathdefault{10^{-2}}$ -->
      <g transform="translate(21.87 282.740955) scale(0.1 -0.1)">
       <use xlink:href="#DejaVuSerif-31" transform="translate(0 0.7125)"/>
       <use xlink:href="#DejaVuSerif-30" transform="translate(63.623047 0.7125)"/>
       <use xlink:href="#DejaVuSerif-2212" transform="translate(128.154453 37.046875) scale(0.7)"/>
       <use xlink:href="#DejaVuSerif-32" transform="translate(186.806797 37.046875) scale(0.7)"/>
      </g>
     </g>
    </g>
    <g id="ytick_3">
     <g id="line2d_17">
      <path d="M 52.77 231.429504
L 446.898 231.429504
" clip-path="url(#p61d4eac16a)" style="fill: none; stroke: #b0b0b0; stroke-opacity: 0.22; stroke-width: 0.8; stroke-linecap: square"/>
     </g>
     <g id="line2d_18">
      <g>
       <use xlink:href="#m6a28959f81" x="52.77" y="231.429504" style="stroke: #000000; stroke-width: 0.8"/>
      </g>
     </g>
     <g id="text_10">
      <!-- $\mathdefault{10^{-1}}$ -->
      <g transform="translate(21.87 235.228723) scale(0.1 -0.1)">
       <use xlink:href="#DejaVuSerif-31" transform="translate(0 0.7125)"/>
       <use xlink:href="#DejaVuSerif-30" transform="translate(63.623047 0.7125)"/>
       <use xlink:href="#DejaVuSerif-2212" transform="translate(128.154453 37.046875) scale(0.7)"/>
       <use xlink:href="#DejaVuSerif-31" transform="translate(186.806797 37.046875) scale(0.7)"/>
      </g>
     </g>
    </g>
    <g id="ytick_4">
     <g id="line2d_19">
      <path d="M 52.77 183.917272
L 446.898 183.917272
" clip-path="url(#p61d4eac16a)" style="fill: none; stroke: #b0b0b0; stroke-opacity: 0.22; stroke-width: 0.8; stroke-linecap: square"/>
     </g>
     <g id="line2d_20">
      <g>
       <use xlink:href="#m6a28959f81" x="52.77" y="183.917272" style="stroke: #000000; stroke-width: 0.8"/>
      </g>
     </g>
     <g id="text_11">
      <!-- $\mathdefault{10^{0}}$ -->
      <g transform="translate(27.67 187.716491) scale(0.1 -0.1)">
       <use xlink:href="#DejaVuSerif-31" transform="translate(0 0.7125)"/>
       <use xlink:href="#DejaVuSerif-30" transform="translate(63.623047 0.7125)"/>
       <use xlink:href="#DejaVuSerif-30" transform="translate(128.154453 37.046875) scale(0.7)"/>
      </g>
     </g>
    </g>
    <g id="ytick_5">
     <g id="line2d_21">
      <path d="M 52.77 136.40504
L 446.898 136.40504
" clip-path="url(#p61d4eac16a)" style="fill: none; stroke: #b0b0b0; stroke-opacity: 0.22; stroke-width: 0.8; stroke-linecap: square"/>
     </g>
     <g id="line2d_22">
      <g>
       <use xlink:href="#m6a28959f81" x="52.77" y="136.40504" style="stroke: #000000; stroke-width: 0.8"/>
      </g>
     </g>
     <g id="text_12">
      <!-- $\mathdefault{10^{1}}$ -->
      <g transform="translate(27.67 140.204259) scale(0.1 -0.1)">
       <use xlink:href="#DejaVuSerif-31" transform="translate(0 0.7125)"/>
       <use xlink:href="#DejaVuSerif-30" transform="translate(63.623047 0.7125)"/>
       <use xlink:href="#DejaVuSerif-31" transform="translate(128.154453 37.046875) scale(0.7)"/>
      </g>
     </g>
    </g>
    <g id="ytick_6">
     <g id="line2d_23">
      <path d="M 52.77 88.892808
L 446.898 88.892808
" clip-path="url(#p61d4eac16a)" style="fill: none; stroke: #b0b0b0; stroke-opacity: 0.22; stroke-width: 0.8; stroke-linecap: square"/>
     </g>
     <g id="line2d_24">
      <g>
       <use xlink:href="#m6a28959f81" x="52.77" y="88.892808" style="stroke: #000000; stroke-width: 0.8"/>
      </g>
     </g>
     <g id="text_13">
      <!-- $\mathdefault{10^{2}}$ -->
      <g transform="translate(27.67 92.692027) scale(0.1 -0.1)">
       <use xlink:href="#DejaVuSerif-31" transform="translate(0 0.7125)"/>
       <use xlink:href="#DejaVuSerif-30" transform="translate(63.623047 0.7125)"/>
       <use xlink:href="#DejaVuSerif-32" transform="translate(128.154453 37.046875) scale(0.7)"/>
      </g>
     </g>
    </g>
    <g id="ytick_7">
     <g id="line2d_25">
      <path d="M 52.77 41.380576
L 446.898 41.380576
" clip-path="url(#p61d4eac16a)" style="fill: none; stroke: #b0b0b0; stroke-opacity: 0.22; stroke-width: 0.8; stroke-linecap: square"/>
     </g>
     <g id="line2d_26">
      <g>
       <use xlink:href="#m6a28959f81" x="52.77" y="41.380576" style="stroke: #000000; stroke-width: 0.8"/>
      </g>
     </g>
     <g id="text_14">
      <!-- $\mathdefault{10^{3}}$ -->
      <g transform="translate(27.67 45.179795) scale(0.1 -0.1)">
       <use xlink:href="#DejaVuSerif-31" transform="translate(0 0.7125)"/>
       <use xlink:href="#DejaVuSerif-30" transform="translate(63.623047 0.7125)"/>
       <use xlink:href="#DejaVuSerif-33" transform="translate(128.154453 37.046875) scale(0.7)"/>
      </g>
     </g>
    </g>
    <g id="ytick_8">
     <g id="line2d_27">
      <defs>
       <path id="m233b703229" d="M 0 0
L -2 0
" style="stroke: #000000; stroke-width: 0.6"/>
      </defs>
      <g>
       <use xlink:href="#m233b703229" x="52.77" y="312.151362" style="stroke: #000000; stroke-width: 0.6"/>
      </g>
     </g>
    </g>
    <g id="ytick_9">
     <g id="line2d_28">
      <g>
       <use xlink:href="#m233b703229" x="52.77" y="303.784873" style="stroke: #000000; stroke-width: 0.6"/>
      </g>
     </g>
    </g>
    <g id="ytick_10">
     <g id="line2d_29">
      <g>
       <use xlink:href="#m233b703229" x="52.77" y="297.848755" style="stroke: #000000; stroke-width: 0.6"/>
      </g>
     </g>
    </g>
    <g id="ytick_11">
     <g id="line2d_30">
      <g>
       <use xlink:href="#m233b703229" x="52.77" y="293.244344" style="stroke: #000000; stroke-width: 0.6"/>
      </g>
     </g>
    </g>
    <g id="ytick_12">
     <g id="line2d_31">
      <g>
       <use xlink:href="#m233b703229" x="52.77" y="289.482266" style="stroke: #000000; stroke-width: 0.6"/>
      </g>
     </g>
    </g>
    <g id="ytick_13">
     <g id="line2d_32">
      <g>
       <use xlink:href="#m233b703229" x="52.77" y="286.301474" style="stroke: #000000; stroke-width: 0.6"/>
      </g>
     </g>
    </g>
    <g id="ytick_14">
     <g id="line2d_33">
      <g>
       <use xlink:href="#m233b703229" x="52.77" y="283.546148" style="stroke: #000000; stroke-width: 0.6"/>
      </g>
     </g>
    </g>
    <g id="ytick_15">
     <g id="line2d_34">
      <g>
       <use xlink:href="#m233b703229" x="52.77" y="281.115777" style="stroke: #000000; stroke-width: 0.6"/>
      </g>
     </g>
    </g>
    <g id="ytick_16">
     <g id="line2d_35">
      <g>
       <use xlink:href="#m233b703229" x="52.77" y="264.63913" style="stroke: #000000; stroke-width: 0.6"/>
      </g>
     </g>
    </g>
    <g id="ytick_17">
     <g id="line2d_36">
      <g>
       <use xlink:href="#m233b703229" x="52.77" y="256.272641" style="stroke: #000000; stroke-width: 0.6"/>
      </g>
     </g>
    </g>
    <g id="ytick_18">
     <g id="line2d_37">
      <g>
       <use xlink:href="#m233b703229" x="52.77" y="250.336523" style="stroke: #000000; stroke-width: 0.6"/>
      </g>
     </g>
    </g>
    <g id="ytick_19">
     <g id="line2d_38">
      <g>
       <use xlink:href="#m233b703229" x="52.77" y="245.732111" style="stroke: #000000; stroke-width: 0.6"/>
      </g>
     </g>
    </g>
    <g id="ytick_20">
     <g id="line2d_39">
      <g>
       <use xlink:href="#m233b703229" x="52.77" y="241.970034" style="stroke: #000000; stroke-width: 0.6"/>
      </g>
     </g>
    </g>
    <g id="ytick_21">
     <g id="line2d_40">
      <g>
       <use xlink:href="#m233b703229" x="52.77" y="238.789242" style="stroke: #000000; stroke-width: 0.6"/>
      </g>
     </g>
    </g>
    <g id="ytick_22">
     <g id="line2d_41">
      <g>
       <use xlink:href="#m233b703229" x="52.77" y="236.033915" style="stroke: #000000; stroke-width: 0.6"/>
      </g>
     </g>
    </g>
    <g id="ytick_23">
     <g id="line2d_42">
      <g>
       <use xlink:href="#m233b703229" x="52.77" y="233.603545" style="stroke: #000000; stroke-width: 0.6"/>
      </g>
     </g>
    </g>
    <g id="ytick_24">
     <g id="line2d_43">
      <g>
       <use xlink:href="#m233b703229" x="52.77" y="217.126897" style="stroke: #000000; stroke-width: 0.6"/>
      </g>
     </g>
    </g>
    <g id="ytick_25">
     <g id="line2d_44">
      <g>
       <use xlink:href="#m233b703229" x="52.77" y="208.760409" style="stroke: #000000; stroke-width: 0.6"/>
      </g>
     </g>
    </g>
    <g id="ytick_26">
     <g id="line2d_45">
      <g>
       <use xlink:href="#m233b703229" x="52.77" y="202.82429" style="stroke: #000000; stroke-width: 0.6"/>
      </g>
     </g>
    </g>
    <g id="ytick_27">
     <g id="line2d_46">
      <g>
       <use xlink:href="#m233b703229" x="52.77" y="198.219879" style="stroke: #000000; stroke-width: 0.6"/>
      </g>
     </g>
    </g>
    <g id="ytick_28">
     <g id="line2d_47">
      <g>
       <use xlink:href="#m233b703229" x="52.77" y="194.457802" style="stroke: #000000; stroke-width: 0.6"/>
      </g>
     </g>
    </g>
    <g id="ytick_29">
     <g id="line2d_48">
      <g>
       <use xlink:href="#m233b703229" x="52.77" y="191.27701" style="stroke: #000000; stroke-width: 0.6"/>
      </g>
     </g>
    </g>
    <g id="ytick_30">
     <g id="line2d_49">
      <g>
       <use xlink:href="#m233b703229" x="52.77" y="188.521683" style="stroke: #000000; stroke-width: 0.6"/>
      </g>
     </g>
    </g>
    <g id="ytick_31">
     <g id="line2d_50">
      <g>
       <use xlink:href="#m233b703229" x="52.77" y="186.091313" style="stroke: #000000; stroke-width: 0.6"/>
      </g>
     </g>
    </g>
    <g id="ytick_32">
     <g id="line2d_51">
      <g>
       <use xlink:href="#m233b703229" x="52.77" y="169.614665" style="stroke: #000000; stroke-width: 0.6"/>
      </g>
     </g>
    </g>
    <g id="ytick_33">
     <g id="line2d_52">
      <g>
       <use xlink:href="#m233b703229" x="52.77" y="161.248176" style="stroke: #000000; stroke-width: 0.6"/>
      </g>
     </g>
    </g>
    <g id="ytick_34">
     <g id="line2d_53">
      <g>
       <use xlink:href="#m233b703229" x="52.77" y="155.312058" style="stroke: #000000; stroke-width: 0.6"/>
      </g>
     </g>
    </g>
    <g id="ytick_35">
     <g id="line2d_54">
      <g>
       <use xlink:href="#m233b703229" x="52.77" y="150.707647" style="stroke: #000000; stroke-width: 0.6"/>
      </g>
     </g>
    </g>
    <g id="ytick_36">
     <g id="line2d_55">
      <g>
       <use xlink:href="#m233b703229" x="52.77" y="146.945569" style="stroke: #000000; stroke-width: 0.6"/>
      </g>
     </g>
    </g>
    <g id="ytick_37">
     <g id="line2d_56">
      <g>
       <use xlink:href="#m233b703229" x="52.77" y="143.764778" style="stroke: #000000; stroke-width: 0.6"/>
      </g>
     </g>
    </g>
    <g id="ytick_38">
     <g id="line2d_57">
      <g>
       <use xlink:href="#m233b703229" x="52.77" y="141.009451" style="stroke: #000000; stroke-width: 0.6"/>
      </g>
     </g>
    </g>
    <g id="ytick_39">
     <g id="line2d_58">
      <g>
       <use xlink:href="#m233b703229" x="52.77" y="138.579081" style="stroke: #000000; stroke-width: 0.6"/>
      </g>
     </g>
    </g>
    <g id="ytick_40">
     <g id="line2d_59">
      <g>
       <use xlink:href="#m233b703229" x="52.77" y="122.102433" style="stroke: #000000; stroke-width: 0.6"/>
      </g>
     </g>
    </g>
    <g id="ytick_41">
     <g id="line2d_60">
      <g>
       <use xlink:href="#m233b703229" x="52.77" y="113.735944" style="stroke: #000000; stroke-width: 0.6"/>
      </g>
     </g>
    </g>
    <g id="ytick_42">
     <g id="line2d_61">
      <g>
       <use xlink:href="#m233b703229" x="52.77" y="107.799826" style="stroke: #000000; stroke-width: 0.6"/>
      </g>
     </g>
    </g>
    <g id="ytick_43">
     <g id="line2d_62">
      <g>
       <use xlink:href="#m233b703229" x="52.77" y="103.195415" style="stroke: #000000; stroke-width: 0.6"/>
      </g>
     </g>
    </g>
    <g id="ytick_44">
     <g id="line2d_63">
      <g>
       <use xlink:href="#m233b703229" x="52.77" y="99.433337" style="stroke: #000000; stroke-width: 0.6"/>
      </g>
     </g>
    </g>
    <g id="ytick_45">
     <g id="line2d_64">
      <g>
       <use xlink:href="#m233b703229" x="52.77" y="96.252546" style="stroke: #000000; stroke-width: 0.6"/>
      </g>
     </g>
    </g>
    <g id="ytick_46">
     <g id="line2d_65">
      <g>
       <use xlink:href="#m233b703229" x="52.77" y="93.497219" style="stroke: #000000; stroke-width: 0.6"/>
      </g>
     </g>
    </g>
    <g id="ytick_47">
     <g id="line2d_66">
      <g>
       <use xlink:href="#m233b703229" x="52.77" y="91.066848" style="stroke: #000000; stroke-width: 0.6"/>
      </g>
     </g>
    </g>
    <g id="ytick_48">
     <g id="line2d_67">
      <g>
       <use xlink:href="#m233b703229" x="52.77" y="74.590201" style="stroke: #000000; stroke-width: 0.6"/>
      </g>
     </g>
    </g>
    <g id="ytick_49">
     <g id="line2d_68">
      <g>
       <use xlink:href="#m233b703229" x="52.77" y="66.223712" style="stroke: #000000; stroke-width: 0.6"/>
      </g>
     </g>
    </g>
    <g id="ytick_50">
     <g id="line2d_69">
      <g>
       <use xlink:href="#m233b703229" x="52.77" y="60.287594" style="stroke: #000000; stroke-width: 0.6"/>
      </g>
     </g>
    </g>
    <g id="ytick_51">
     <g id="line2d_70">
      <g>
       <use xlink:href="#m233b703229" x="52.77" y="55.683183" style="stroke: #000000; stroke-width: 0.6"/>
      </g>
     </g>
    </g>
    <g id="ytick_52">
     <g id="line2d_71">
      <g>
       <use xlink:href="#m233b703229" x="52.77" y="51.921105" style="stroke: #000000; stroke-width: 0.6"/>
      </g>
     </g>
    </g>
    <g id="ytick_53">
     <g id="line2d_72">
      <g>
       <use xlink:href="#m233b703229" x="52.77" y="48.740314" style="stroke: #000000; stroke-width: 0.6"/>
      </g>
     </g>
    </g>
    <g id="ytick_54">
     <g id="line2d_73">
      <g>
       <use xlink:href="#m233b703229" x="52.77" y="45.984987" style="stroke: #000000; stroke-width: 0.6"/>
      </g>
     </g>
    </g>
    <g id="ytick_55">
     <g id="line2d_74">
      <g>
       <use xlink:href="#m233b703229" x="52.77" y="43.554616" style="stroke: #000000; stroke-width: 0.6"/>
      </g>
     </g>
    </g>
    <g id="ytick_56">
     <g id="line2d_75">
      <g>
       <use xlink:href="#m233b703229" x="52.77" y="27.077969" style="stroke: #000000; stroke-width: 0.6"/>
      </g>
     </g>
    </g>
    <g id="text_15">
     <!-- $CO_2$ partial pressure, kPa -->
     <g transform="translate(15.56 248.320969) rotate(-90) scale(0.11 -0.11)">
      <defs>
       <path id="DejaVuSerif-70" d="M 1313 1825
L 1313 1497
Q 1313 897 1542 583
Q 1772 269 2209 269
Q 2650 269 2876 622
Q 3103 975 3103 1663
Q 3103 2353 2876 2703
Q 2650 3053 2209 3053
Q 1772 3053 1542 2737
Q 1313 2422 1313 1825
z
M 738 2988
L 184 2988
L 184 3322
L 1313 3322
L 1313 2803
Q 1481 3116 1742 3264
Q 2003 3413 2388 3413
Q 3000 3413 3387 2928
Q 3775 2444 3775 1663
Q 3775 881 3387 395
Q 3000 -91 2388 -91
Q 2003 -91 1742 57
Q 1481 206 1313 519
L 1313 -997
L 1856 -997
L 1856 -1331
L 184 -1331
L 184 -997
L 738 -997
L 738 2988
z
" transform="scale(0.015625)"/>
       <path id="DejaVuSerif-72" d="M 3059 3328
L 3059 2497
L 2728 2497
Q 2713 2744 2591 2866
Q 2469 2988 2234 2988
Q 1809 2988 1582 2694
Q 1356 2400 1356 1850
L 1356 331
L 2022 331
L 2022 0
L 263 0
L 263 331
L 781 331
L 781 2994
L 231 2994
L 231 3322
L 1356 3322
L 1356 2731
Q 1525 3078 1790 3245
Q 2056 3413 2438 3413
Q 2578 3413 2733 3391
Q 2888 3369 3059 3328
z
" transform="scale(0.015625)"/>
       <path id="DejaVuSerif-74" d="M 691 2988
L 184 2988
L 184 3322
L 691 3322
L 691 4353
L 1269 4353
L 1269 3322
L 2350 3322
L 2350 2988
L 1269 2988
L 1269 878
Q 1269 456 1350 337
Q 1431 219 1650 219
Q 1875 219 1978 351
Q 2081 484 2088 781
L 2522 781
Q 2497 328 2275 118
Q 2053 -91 1600 -91
Q 1103 -91 897 129
Q 691 350 691 878
L 691 2988
z
" transform="scale(0.015625)"/>
       <path id="DejaVuSerif-65" d="M 3469 1600
L 991 1600
L 991 1575
Q 991 903 1244 561
Q 1497 219 1991 219
Q 2369 219 2611 417
Q 2853 616 2950 1006
L 3413 1006
Q 3275 459 2904 184
Q 2534 -91 1931 -91
Q 1203 -91 761 389
Q 319 869 319 1663
Q 319 2450 753 2931
Q 1188 3413 1894 3413
Q 2647 3413 3050 2948
Q 3453 2484 3469 1600
z
M 2791 1931
Q 2772 2513 2545 2808
Q 2319 3103 1894 3103
Q 1497 3103 1269 2806
Q 1041 2509 991 1931
L 2791 1931
z
" transform="scale(0.015625)"/>
       <path id="DejaVuSerif-73" d="M 359 184
L 359 959
L 691 959
Q 703 588 923 403
Q 1144 219 1575 219
Q 1963 219 2166 364
Q 2369 509 2369 788
Q 2369 1006 2220 1140
Q 2072 1275 1594 1428
L 1178 1569
Q 750 1706 558 1912
Q 366 2119 366 2438
Q 366 2894 700 3153
Q 1034 3413 1625 3413
Q 1888 3413 2178 3344
Q 2469 3275 2778 3144
L 2778 2419
L 2447 2419
Q 2434 2741 2221 2922
Q 2009 3103 1644 3103
Q 1281 3103 1095 2975
Q 909 2847 909 2591
Q 909 2381 1050 2254
Q 1191 2128 1613 1997
L 2069 1856
Q 2541 1709 2748 1489
Q 2956 1269 2956 922
Q 2956 450 2595 179
Q 2234 -91 1600 -91
Q 1278 -91 972 -22
Q 666 47 359 184
z
" transform="scale(0.015625)"/>
       <path id="DejaVuSerif-75" d="M 2266 3322
L 3341 3322
L 3341 331
L 3884 331
L 3884 0
L 2766 0
L 2766 588
Q 2606 256 2353 82
Q 2100 -91 1766 -91
Q 1213 -91 952 223
Q 691 538 691 1209
L 691 2988
L 172 2988
L 172 3322
L 1269 3322
L 1269 1388
Q 1269 781 1417 556
Q 1566 331 1947 331
Q 2347 331 2556 625
Q 2766 919 2766 1478
L 2766 2988
L 2266 2988
L 2266 3322
z
" transform="scale(0.015625)"/>
       <path id="DejaVuSerif-6b" d="M 1831 0
L 219 0
L 219 331
L 738 331
L 738 4531
L 184 4531
L 184 4863
L 1313 4863
L 1313 1697
L 2713 2988
L 2234 2988
L 2234 3322
L 3738 3322
L 3738 2988
L 3169 2988
L 2181 2075
L 3444 331
L 3922 331
L 3922 0
L 2284 0
L 2284 331
L 2759 331
L 1766 1697
L 1313 1275
L 1313 331
L 1831 331
L 1831 0
z
" transform="scale(0.015625)"/>
       <path id="DejaVuSerif-50" d="M 1581 2375
L 2406 2375
Q 2872 2375 3115 2626
Q 3359 2878 3359 3353
Q 3359 3831 3115 4081
Q 2872 4331 2406 4331
L 1581 4331
L 1581 2375
z
M 353 0
L 353 331
L 947 331
L 947 4331
L 353 4331
L 353 4666
L 2559 4666
Q 3259 4666 3668 4311
Q 4078 3956 4078 3353
Q 4078 2753 3668 2397
Q 3259 2041 2559 2041
L 1581 2041
L 1581 331
L 2303 331
L 2303 0
L 353 0
z
" transform="scale(0.015625)"/>
      </defs>
      <use xlink:href="#DejaVuSerif-Italic-43" transform="translate(0 0.015625)"/>
      <use xlink:href="#DejaVuSerif-Italic-4f" transform="translate(76.513672 0.015625)"/>
      <use xlink:href="#DejaVuSerif-32" transform="translate(158.496094 -15.55625) scale(0.7)"/>
      <use xlink:href="#DejaVuSerif-20" transform="translate(205.627539 0.015625)"/>
      <use xlink:href="#DejaVuSerif-70" transform="translate(237.414648 0.015625)"/>
      <use xlink:href="#DejaVuSerif-61" transform="translate(301.42832 0.015625)"/>
      <use xlink:href="#DejaVuSerif-72" transform="translate(361.047461 0.015625)"/>
      <use xlink:href="#DejaVuSerif-74" transform="translate(408.850195 0.015625)"/>
      <use xlink:href="#DejaVuSerif-69" transform="translate(449.035742 0.015625)"/>
      <use xlink:href="#DejaVuSerif-61" transform="translate(481.018164 0.015625)"/>
      <use xlink:href="#DejaVuSerif-6c" transform="translate(540.637305 0.015625)"/>
      <use xlink:href="#DejaVuSerif-20" transform="translate(572.619727 0.015625)"/>
      <use xlink:href="#DejaVuSerif-70" transform="translate(604.406836 0.015625)"/>
      <use xlink:href="#DejaVuSerif-72" transform="translate(668.420508 0.015625)"/>
      <use xlink:href="#DejaVuSerif-65" transform="translate(716.223242 0.015625)"/>
      <use xlink:href="#DejaVuSerif-73" transform="translate(775.40293 0.015625)"/>
      <use xlink:href="#DejaVuSerif-73" transform="translate(826.721289 0.015625)"/>
      <use xlink:href="#DejaVuSerif-75" transform="translate(878.039648 0.015625)"/>
      <use xlink:href="#DejaVuSerif-72" transform="translate(942.443945 0.015625)"/>
      <use xlink:href="#DejaVuSerif-65" transform="translate(990.24668 0.015625)"/>
      <use xlink:href="#DejaVuSerif-2c" transform="translate(1049.426367 0.015625)"/>
      <use xlink:href="#DejaVuSerif-20" transform="translate(1081.213477 0.015625)"/>
      <use xlink:href="#DejaVuSerif-6b" transform="translate(1113.000586 0.015625)"/>
      <use xlink:href="#DejaVuSerif-50" transform="translate(1173.596289 0.015625)"/>
      <use xlink:href="#DejaVuSerif-61" transform="translate(1240.881445 0.015625)"/>
     </g>
    </g>
   </g>
   <g id="line2d_76">
    <defs>
     <path id="mf35471c316" d="M -3 3
L 3 -3
M -3 -3
L 3 3
" style="stroke: #1f5aa6; stroke-opacity: 0.9"/>
    </defs>
    <g clip-path="url(#p61d4eac16a)">
     <use xlink:href="#mf35471c316" x="140.192107" y="281.20769" style="fill: #1f5aa6; fill-opacity: 0.9; stroke: #1f5aa6; stroke-opacity: 0.9"/>
     <use xlink:href="#mf35471c316" x="258.211952" y="239.478615" style="fill: #1f5aa6; fill-opacity: 0.9; stroke: #1f5aa6; stroke-opacity: 0.9"/>
     <use xlink:href="#mf35471c316" x="337.256107" y="194.320696" style="fill: #1f5aa6; fill-opacity: 0.9; stroke: #1f5aa6; stroke-opacity: 0.9"/>
     <use xlink:href="#mf35471c316" x="366.032551" y="164.440435" style="fill: #1f5aa6; fill-opacity: 0.9; stroke: #1f5aa6; stroke-opacity: 0.9"/>
     <use xlink:href="#mf35471c316" x="398.087323" y="140.778611" style="fill: #1f5aa6; fill-opacity: 0.9; stroke: #1f5aa6; stroke-opacity: 0.9"/>
    </g>
   </g>
   <g id="line2d_77">
    <path d="M 140.192107 299.81145
L 258.211952 242.682678
L 337.256107 177.933888
L 366.032551 138.106966
L 398.087323 103.017211
" clip-path="url(#p61d4eac16a)" style="fill: none; stroke-dasharray: 1.7,2.805; stroke-dashoffset: 0; stroke: #1f5aa6; stroke-opacity: 0.65; stroke-width: 1.7"/>
   </g>
   <g id="line2d_78">
    <path d="M 140.192107 299.811451
L 258.211952 242.682678
L 337.256107 177.933888
L 366.032551 138.106966
L 398.087323 103.017232
" clip-path="url(#p61d4eac16a)" style="fill: none; stroke: #1f5aa6; stroke-opacity: 0.9; stroke-width: 2.2; stroke-linecap: square"/>
   </g>
   <g id="line2d_79">
    <defs>
     <path id="md8a62c5d68" d="M -3 3
L 3 -3
M -3 -3
L 3 3
" style="stroke: #d47a00; stroke-opacity: 0.9"/>
    </defs>
    <g clip-path="url(#p61d4eac16a)">
     <use xlink:href="#md8a62c5d68" x="78.996632" y="265.374271" style="fill: #d47a00; fill-opacity: 0.9; stroke: #d47a00; stroke-opacity: 0.9"/>
     <use xlink:href="#md8a62c5d68" x="142.37766" y="242.705176" style="fill: #d47a00; fill-opacity: 0.9; stroke: #d47a00; stroke-opacity: 0.9"/>
     <use xlink:href="#md8a62c5d68" x="275.696373" y="197.095554" style="fill: #d47a00; fill-opacity: 0.9; stroke: #d47a00; stroke-opacity: 0.9"/>
     <use xlink:href="#md8a62c5d68" x="311.393734" y="169.511751" style="fill: #d47a00; fill-opacity: 0.9; stroke: #d47a00; stroke-opacity: 0.9"/>
     <use xlink:href="#md8a62c5d68" x="359.475893" y="134.438381" style="fill: #d47a00; fill-opacity: 0.9; stroke: #d47a00; stroke-opacity: 0.9"/>
     <use xlink:href="#md8a62c5d68" x="401.001394" y="111.15329" style="fill: #d47a00; fill-opacity: 0.9; stroke: #d47a00; stroke-opacity: 0.9"/>
     <use xlink:href="#md8a62c5d68" x="414.11471" y="92.987704" style="fill: #d47a00; fill-opacity: 0.9; stroke: #d47a00; stroke-opacity: 0.9"/>
    </g>
   </g>
   <g id="line2d_80">
    <path d="M 78.996632 291.57206
L 142.37766 257.245832
L 275.696373 192.378458
L 311.393734 168.462398
L 359.475893 123.538278
L 401.001394 86.259299
L 414.11471 77.09543
" clip-path="url(#p61d4eac16a)" style="fill: none; stroke-dasharray: 1.7,2.805; stroke-dashoffset: 0; stroke: #d47a00; stroke-opacity: 0.65; stroke-width: 1.7"/>
   </g>
   <g id="line2d_81">
    <path d="M 78.996632 291.57206
L 142.37766 257.245832
L 275.696373 192.378458
L 311.393734 168.462398
L 359.475893 123.538278
L 401.001394 86.259299
L 414.11471 77.09543
" clip-path="url(#p61d4eac16a)" style="fill: none; stroke: #d47a00; stroke-opacity: 0.9; stroke-width: 2.2; stroke-linecap: square"/>
   </g>
   <g id="line2d_82">
    <defs>
     <path id="m400974b6f7" d="M -3 3
L 3 -3
M -3 -3
L 3 3
" style="stroke: #16805a; stroke-opacity: 0.9"/>
    </defs>
    <g clip-path="url(#p61d4eac16a)">
     <use xlink:href="#m400974b6f7" x="78.268115" y="231.595243" style="fill: #16805a; fill-opacity: 0.9; stroke: #16805a; stroke-opacity: 0.9"/>
     <use xlink:href="#m400974b6f7" x="128.535826" y="210.331945" style="fill: #16805a; fill-opacity: 0.9; stroke: #16805a; stroke-opacity: 0.9"/>
     <use xlink:href="#m400974b6f7" x="245.827153" y="163.65277" style="fill: #16805a; fill-opacity: 0.9; stroke: #16805a; stroke-opacity: 0.9"/>
     <use xlink:href="#m400974b6f7" x="327.42112" y="126.706844" style="fill: #16805a; fill-opacity: 0.9; stroke: #16805a; stroke-opacity: 0.9"/>
     <use xlink:href="#m400974b6f7" x="368.946621" y="100.856957" style="fill: #16805a; fill-opacity: 0.9; stroke: #16805a; stroke-opacity: 0.9"/>
     <use xlink:href="#m400974b6f7" x="413.750451" y="71.262546" style="fill: #16805a; fill-opacity: 0.9; stroke: #16805a; stroke-opacity: 0.9"/>
    </g>
   </g>
   <g id="line2d_83">
    <path d="M 78.268115 252.78476
L 128.535826 225.121155
L 245.827153 171.258215
L 327.42112 124.252866
L 368.946621 93.812902
L 413.750451 64.505631
" clip-path="url(#p61d4eac16a)" style="fill: none; stroke-dasharray: 1.7,2.805; stroke-dashoffset: 0; stroke: #16805a; stroke-opacity: 0.65; stroke-width: 1.7"/>
   </g>
   <g id="line2d_84">
    <path d="M 78.268115 252.78476
L 128.535826 225.121155
L 245.827153 171.258215
L 327.42112 124.252866
L 368.946621 93.812902
L 413.750451 64.505631
" clip-path="url(#p61d4eac16a)" style="fill: none; stroke: #16805a; stroke-opacity: 0.9; stroke-width: 2.2; stroke-linecap: square"/>
   </g>
   <g id="line2d_85">
    <defs>
     <path id="mde4ea9692c" d="M -3 3
L 3 -3
M -3 -3
L 3 3
" style="stroke: #b6312c; stroke-opacity: 0.9"/>
    </defs>
    <g clip-path="url(#p61d4eac16a)">
     <use xlink:href="#mde4ea9692c" x="129.264344" y="176.53691" style="fill: #b6312c; fill-opacity: 0.9; stroke: #b6312c; stroke-opacity: 0.9"/>
     <use xlink:href="#mde4ea9692c" x="269.868233" y="123.160834" style="fill: #b6312c; fill-opacity: 0.9; stroke: #b6312c; stroke-opacity: 0.9"/>
     <use xlink:href="#mde4ea9692c" x="299.737453" y="108.322241" style="fill: #b6312c; fill-opacity: 0.9; stroke: #b6312c; stroke-opacity: 0.9"/>
     <use xlink:href="#mde4ea9692c" x="339.805919" y="96.549447" style="fill: #b6312c; fill-opacity: 0.9; stroke: #b6312c; stroke-opacity: 0.9"/>
     <use xlink:href="#mde4ea9692c" x="342.719989" y="87.114591" style="fill: #b6312c; fill-opacity: 0.9; stroke: #b6312c; stroke-opacity: 0.9"/>
     <use xlink:href="#mde4ea9692c" x="408.286569" y="55.315069" style="fill: #b6312c; fill-opacity: 0.9; stroke: #b6312c; stroke-opacity: 0.9"/>
     <use xlink:href="#mde4ea9692c" x="421.399885" y="61.56435" style="fill: #b6312c; fill-opacity: 0.9; stroke: #b6312c; stroke-opacity: 0.9"/>
    </g>
   </g>
   <g id="line2d_86">
    <path d="M 129.264344 188.023372
L 269.868233 125.404589
L 299.737453 110.937092
L 339.805919 89.832319
L 342.719989 88.275068
L 408.286569 53.30805
L 421.399885 46.86641
" clip-path="url(#p61d4eac16a)" style="fill: none; stroke-dasharray: 1.7,2.805; stroke-dashoffset: 0; stroke: #b6312c; stroke-opacity: 0.65; stroke-width: 1.7"/>
   </g>
   <g id="line2d_87">
    <path d="M 129.264344 188.023372
L 269.868233 125.404589
L 299.737453 110.937092
L 339.805919 89.832319
L 342.719989 88.275068
L 408.286569 53.30805
L 421.399885 46.86641
" clip-path="url(#p61d4eac16a)" style="fill: none; stroke: #b6312c; stroke-opacity: 0.9; stroke-width: 2.2; stroke-linecap: square"/>
   </g>
   <g id="line2d_88">
    <defs>
     <path id="maa0b437a1e" d="M -3 3
L 3 -3
M -3 -3
L 3 3
" style="stroke: #6f4aa8; stroke-opacity: 0.9"/>
    </defs>
    <g clip-path="url(#p61d4eac16a)">
     <use xlink:href="#maa0b437a1e" x="78.996632" y="166.820685" style="fill: #6f4aa8; fill-opacity: 0.9; stroke: #6f4aa8; stroke-opacity: 0.9"/>
     <use xlink:href="#maa0b437a1e" x="246.555671" y="104.560164" style="fill: #6f4aa8; fill-opacity: 0.9; stroke: #6f4aa8; stroke-opacity: 0.9"/>
     <use xlink:href="#maa0b437a1e" x="292.088018" y="84.78966" style="fill: #6f4aa8; fill-opacity: 0.9; stroke: #6f4aa8; stroke-opacity: 0.9"/>
     <use xlink:href="#maa0b437a1e" x="315.764839" y="72.436805" style="fill: #6f4aa8; fill-opacity: 0.9; stroke: #6f4aa8; stroke-opacity: 0.9"/>
     <use xlink:href="#maa0b437a1e" x="336.891848" y="59.182818" style="fill: #6f4aa8; fill-opacity: 0.9; stroke: #6f4aa8; stroke-opacity: 0.9"/>
     <use xlink:href="#maa0b437a1e" x="382.788455" y="45.425206" style="fill: #6f4aa8; fill-opacity: 0.9; stroke: #6f4aa8; stroke-opacity: 0.9"/>
    </g>
   </g>
   <g id="line2d_89">
    <path d="M 78.996632 180.456421
L 246.555671 105.038687
L 292.088018 86.644642
L 315.764839 76.63941
L 336.891848 67.994961
L 382.788455 48.674659
" clip-path="url(#p61d4eac16a)" style="fill: none; stroke-dasharray: 1.7,2.805; stroke-dashoffset: 0; stroke: #6f4aa8; stroke-opacity: 0.65; stroke-width: 1.7"/>
   </g>
   <g id="line2d_90">
    <path d="M 78.996632 180.456421
L 246.555671 105.038687
L 292.088018 86.644642
L 315.764839 76.63941
L 336.891848 67.994961
L 382.788455 48.674659
" clip-path="url(#p61d4eac16a)" style="fill: none; stroke: #6f4aa8; stroke-opacity: 0.9; stroke-width: 2.2; stroke-linecap: square"/>
   </g>
   <g id="patch_3">
    <path d="M 52.77 326.453969
L 52.77 27.077969
" style="fill: none; stroke: #000000; stroke-width: 0.8; stroke-linejoin: miter; stroke-linecap: square"/>
   </g>
   <g id="patch_4">
    <path d="M 52.77 326.453969
L 446.898 326.453969
" style="fill: none; stroke: #000000; stroke-width: 0.8; stroke-linejoin: miter; stroke-linecap: square"/>
   </g>
   <g id="text_16">
    <!-- Smith-Missen baseline CO2 solubility -->
    <g transform="translate(113.105484 17.077969) scale(0.13 -0.13)">
     <defs>
      <path id="DejaVuSerif-Bold-53" d="M 494 225
L 494 1331
L 891 1331
Q 981 806 1318 547
Q 1656 288 2253 288
Q 2738 288 2991 472
Q 3244 656 3244 1013
Q 3244 1294 3072 1450
Q 2900 1606 2363 1741
L 1663 1913
Q 978 2088 700 2398
Q 422 2709 422 3284
Q 422 3978 883 4364
Q 1344 4750 2175 4750
Q 2584 4750 3026 4681
Q 3469 4613 3944 4475
L 3944 3444
L 3547 3444
Q 3456 3925 3150 4148
Q 2844 4372 2278 4372
Q 1816 4372 1580 4211
Q 1344 4050 1344 3731
Q 1344 3441 1506 3289
Q 1669 3138 2303 2975
L 3003 2803
Q 3653 2641 3945 2297
Q 4238 1953 4238 1350
Q 4238 644 3750 276
Q 3263 -91 2316 -91
Q 1859 -91 1409 -12
Q 959 66 494 225
z
" transform="scale(0.015625)"/>
      <path id="DejaVuSerif-Bold-6d" d="M 3884 2778
Q 4116 3109 4384 3261
Q 4653 3413 5013 3413
Q 5584 3413 5867 3089
Q 6150 2766 6150 2113
L 6150 378
L 6625 378
L 6625 0
L 4647 0
L 4647 378
L 5044 378
L 5044 1947
Q 5044 2569 4948 2731
Q 4853 2894 4594 2894
Q 4300 2894 4137 2667
Q 3975 2441 3975 2022
L 3975 378
L 4372 378
L 4372 0
L 2472 0
L 2472 378
L 2869 378
L 2869 1947
Q 2869 2569 2772 2731
Q 2675 2894 2419 2894
Q 2122 2894 1959 2667
Q 1797 2441 1797 2022
L 1797 378
L 2194 378
L 2194 0
L 219 0
L 219 378
L 691 378
L 691 2944
L 219 2944
L 219 3322
L 1797 3322
L 1797 2853
Q 1991 3144 2241 3278
Q 2491 3413 2834 3413
Q 3241 3413 3494 3258
Q 3747 3103 3884 2778
z
" transform="scale(0.015625)"/>
      <path id="DejaVuSerif-Bold-69" d="M 588 4263
Q 588 4516 763 4689
Q 938 4863 1191 4863
Q 1438 4863 1611 4689
Q 1784 4516 1784 4263
Q 1784 4016 1611 3842
Q 1438 3669 1191 3669
Q 938 3669 763 3841
Q 588 4013 588 4263
z
M 1797 378
L 2272 378
L 2272 0
L 219 0
L 219 378
L 691 378
L 691 2944
L 219 2944
L 219 3322
L 1797 3322
L 1797 378
z
" transform="scale(0.015625)"/>
      <path id="DejaVuSerif-Bold-74" d="M 634 2944
L 153 2944
L 153 3322
L 634 3322
L 634 4353
L 1741 4353
L 1741 3322
L 2663 3322
L 2663 2944
L 1741 2944
L 1741 909
Q 1741 475 1809 369
Q 1878 263 2059 263
Q 2259 263 2356 397
Q 2453 531 2459 813
L 2925 813
Q 2897 313 2651 111
Q 2406 -91 1806 -91
Q 1122 -91 878 123
Q 634 338 634 909
L 634 2944
z
" transform="scale(0.015625)"/>
      <path id="DejaVuSerif-Bold-68" d="M 219 0
L 219 378
L 691 378
L 691 4488
L 197 4488
L 197 4863
L 1797 4863
L 1797 2853
Q 1997 3150 2253 3281
Q 2509 3413 2900 3413
Q 3459 3413 3745 3083
Q 4031 2753 4031 2113
L 4031 378
L 4506 378
L 4506 0
L 2522 0
L 2522 378
L 2925 378
L 2925 2144
Q 2925 2566 2817 2730
Q 2709 2894 2444 2894
Q 2109 2894 1953 2648
Q 1797 2403 1797 1869
L 1797 378
L 2203 378
L 2203 0
L 219 0
z
" transform="scale(0.015625)"/>
      <path id="DejaVuSerif-Bold-2d" d="M 347 2138
L 2309 2138
L 2309 1294
L 347 1294
L 347 2138
z
" transform="scale(0.015625)"/>
      <path id="DejaVuSerif-Bold-4d" d="M 269 0
L 269 378
L 863 378
L 863 4288
L 269 4288
L 269 4666
L 2194 4666
L 3525 1672
L 4863 4666
L 6784 4666
L 6784 4288
L 6188 4288
L 6188 378
L 6784 378
L 6784 0
L 4384 0
L 4384 378
L 4978 378
L 4978 3938
L 3531 684
L 2741 684
L 1300 3938
L 1300 378
L 1894 378
L 1894 0
L 269 0
z
" transform="scale(0.015625)"/>
      <path id="DejaVuSerif-Bold-73" d="M 300 97
L 300 1025
L 653 1025
Q 697 653 931 458
Q 1166 263 1569 263
Q 1906 263 2086 380
Q 2266 497 2266 716
Q 2266 916 2152 1025
Q 2038 1134 1709 1216
L 1253 1331
Q 738 1459 506 1698
Q 275 1938 275 2344
Q 275 2884 650 3148
Q 1025 3413 1806 3413
Q 2100 3413 2433 3364
Q 2766 3316 3169 3213
L 3169 2375
L 2816 2375
Q 2788 2716 2573 2887
Q 2359 3059 1959 3059
Q 1622 3059 1448 2951
Q 1275 2844 1275 2638
Q 1275 2469 1375 2372
Q 1475 2275 1734 2209
L 2188 2094
Q 2841 1928 3091 1684
Q 3341 1441 3341 1006
Q 3341 444 2939 176
Q 2538 -91 1691 -91
Q 1381 -91 1034 -44
Q 688 3 300 97
z
" transform="scale(0.015625)"/>
      <path id="DejaVuSerif-Bold-65" d="M 2566 1875
Q 2566 2531 2444 2795
Q 2322 3059 2028 3059
Q 1744 3059 1620 2800
Q 1497 2541 1497 1931
L 1497 1875
L 2566 1875
z
M 3781 1503
L 1497 1503
L 1497 1478
Q 1497 834 1690 548
Q 1884 263 2316 263
Q 2675 263 2897 453
Q 3119 644 3181 1006
L 3700 1006
Q 3566 441 3166 175
Q 2766 -91 2047 -91
Q 1184 -91 723 364
Q 263 819 263 1663
Q 263 2488 734 2950
Q 1206 3413 2047 3413
Q 2872 3413 3312 2927
Q 3753 2441 3781 1503
z
" transform="scale(0.015625)"/>
      <path id="DejaVuSerif-Bold-6e" d="M 219 0
L 219 378
L 691 378
L 691 2944
L 219 2944
L 219 3322
L 1797 3322
L 1797 2853
Q 1997 3150 2253 3281
Q 2509 3413 2900 3413
Q 3459 3413 3745 3083
Q 4031 2753 4031 2113
L 4031 378
L 4506 378
L 4506 0
L 2522 0
L 2522 378
L 2925 378
L 2925 2144
Q 2925 2566 2817 2730
Q 2709 2894 2444 2894
Q 2109 2894 1953 2648
Q 1797 2403 1797 1869
L 1797 378
L 2203 378
L 2203 0
L 219 0
z
" transform="scale(0.015625)"/>
      <path id="DejaVuSerif-Bold-20" transform="scale(0.015625)"/>
      <path id="DejaVuSerif-Bold-62" d="M 622 378
L 622 4488
L 147 4488
L 147 4863
L 1728 4863
L 1728 2900
Q 1869 3159 2106 3286
Q 2344 3413 2694 3413
Q 3403 3413 3811 2945
Q 4219 2478 4219 1663
Q 4219 847 3811 378
Q 3403 -91 2694 -91
Q 2344 -91 2106 36
Q 1869 163 1728 422
L 1728 0
L 147 0
L 147 378
L 622 378
z
M 1728 1497
Q 1728 916 1876 656
Q 2025 397 2356 397
Q 2697 397 2836 672
Q 2975 947 2975 1663
Q 2975 2378 2836 2651
Q 2697 2925 2356 2925
Q 2025 2925 1876 2665
Q 1728 2406 1728 1825
L 1728 1497
z
" transform="scale(0.015625)"/>
      <path id="DejaVuSerif-Bold-61" d="M 3525 2041
L 3525 378
L 4000 378
L 4000 0
L 2419 0
L 2419 422
Q 2200 159 1931 34
Q 1663 -91 1319 -91
Q 809 -91 536 182
Q 263 456 263 966
Q 263 1525 655 1803
Q 1047 2081 1838 2081
L 2419 2081
L 2419 2278
Q 2419 2681 2228 2873
Q 2038 3066 1638 3066
Q 1306 3066 1126 2930
Q 947 2794 872 2484
L 519 2484
L 519 3200
Q 816 3306 1134 3359
Q 1453 3413 1806 3413
Q 2697 3413 3111 3081
Q 3525 2750 3525 2041
z
M 2419 1044
L 2419 1709
L 2003 1709
Q 1694 1709 1528 1540
Q 1363 1372 1363 1056
Q 1363 741 1483 584
Q 1603 428 1850 428
Q 2106 428 2262 597
Q 2419 766 2419 1044
z
" transform="scale(0.015625)"/>
      <path id="DejaVuSerif-Bold-6c" d="M 1797 378
L 2272 378
L 2272 0
L 219 0
L 219 378
L 691 378
L 691 4488
L 219 4488
L 219 4863
L 1797 4863
L 1797 378
z
" transform="scale(0.015625)"/>
      <path id="DejaVuSerif-Bold-43" d="M 4769 1331
Q 4584 609 4106 259
Q 3628 -91 2822 -91
Q 1641 -91 955 561
Q 269 1213 269 2328
Q 269 3447 955 4098
Q 1641 4750 2822 4750
Q 3238 4750 3688 4650
Q 4138 4550 4641 4347
L 4641 3200
L 4244 3200
Q 4122 3788 3800 4080
Q 3478 4372 2950 4372
Q 2269 4372 1937 3870
Q 1606 3369 1606 2328
Q 1606 1288 1937 788
Q 2269 288 2956 288
Q 3422 288 3717 547
Q 4013 806 4147 1331
L 4769 1331
z
" transform="scale(0.015625)"/>
      <path id="DejaVuSerif-Bold-4f" d="M 2784 288
Q 3381 288 3672 791
Q 3963 1294 3963 2328
Q 3963 3366 3672 3869
Q 3381 4372 2784 4372
Q 2191 4372 1898 3864
Q 1606 3356 1606 2328
Q 1606 1303 1898 795
Q 2191 288 2784 288
z
M 2784 -91
Q 1606 -91 937 553
Q 269 1197 269 2328
Q 269 3459 939 4104
Q 1609 4750 2784 4750
Q 3963 4750 4631 4106
Q 5300 3463 5300 2328
Q 5300 1197 4629 553
Q 3959 -91 2784 -91
z
" transform="scale(0.015625)"/>
      <path id="DejaVuSerif-Bold-32" d="M 844 3513
L 469 3513
L 469 4519
Q 850 4634 1223 4692
Q 1597 4750 1978 4750
Q 2869 4750 3367 4386
Q 3866 4022 3866 3372
Q 3866 2909 3591 2542
Q 3316 2175 2541 1672
L 1241 819
L 3450 819
L 3450 1369
L 3878 1369
L 3878 0
L 428 0
L 428 763
L 1119 1241
Q 2003 1850 2297 2278
Q 2591 2706 2591 3278
Q 2591 3819 2367 4101
Q 2144 4384 1716 4384
Q 1347 4384 1125 4161
Q 903 3938 844 3513
z
" transform="scale(0.015625)"/>
      <path id="DejaVuSerif-Bold-6f" d="M 2138 263
Q 2488 263 2630 563
Q 2772 863 2772 1663
Q 2772 2463 2631 2761
Q 2491 3059 2138 3059
Q 1784 3059 1640 2757
Q 1497 2456 1497 1663
Q 1497 869 1640 566
Q 1784 263 2138 263
z
M 2138 -91
Q 1259 -91 761 376
Q 263 844 263 1663
Q 263 2484 761 2948
Q 1259 3413 2138 3413
Q 3019 3413 3516 2948
Q 4013 2484 4013 1663
Q 4013 844 3514 376
Q 3016 -91 2138 -91
z
" transform="scale(0.015625)"/>
      <path id="DejaVuSerif-Bold-75" d="M 3963 3322
L 3963 378
L 4434 378
L 4434 0
L 2853 0
L 2853 469
Q 2656 172 2400 40
Q 2144 -91 1753 -91
Q 1194 -91 908 239
Q 622 569 622 1209
L 622 2944
L 147 2944
L 147 3322
L 1728 3322
L 1728 1381
Q 1728 763 1831 595
Q 1934 428 2209 428
Q 2544 428 2698 675
Q 2853 922 2853 1459
L 2853 2944
L 2450 2944
L 2450 3322
L 3963 3322
z
" transform="scale(0.015625)"/>
      <path id="DejaVuSerif-Bold-79" d="M 1997 -750
Q 1847 -1116 1634 -1269
Q 1422 -1422 1063 -1422
Q 909 -1422 721 -1387
Q 534 -1353 313 -1288
L 313 -594
L 666 -597
Q 675 -838 779 -953
Q 884 -1069 1094 -1069
Q 1297 -1069 1422 -958
Q 1547 -847 1672 -538
L 1722 -422
L 275 2944
L -84 2944
L -84 3322
L 1831 3322
L 1831 2944
L 1434 2944
L 2278 978
L 3066 2944
L 2625 2944
L 2625 3322
L 3872 3322
L 3872 2944
L 3469 2944
L 1997 -750
z
" transform="scale(0.015625)"/>
     </defs>
     <use xlink:href="#DejaVuSerif-Bold-53"/>
     <use xlink:href="#DejaVuSerif-Bold-6d" transform="translate(72.216797 0)"/>
     <use xlink:href="#DejaVuSerif-Bold-69" transform="translate(178.027344 0)"/>
     <use xlink:href="#DejaVuSerif-Bold-74" transform="translate(216.015625 0)"/>
     <use xlink:href="#DejaVuSerif-Bold-68" transform="translate(262.207031 0)"/>
     <use xlink:href="#DejaVuSerif-Bold-2d" transform="translate(334.912109 0)"/>
     <use xlink:href="#DejaVuSerif-Bold-4d" transform="translate(376.416016 0)"/>
     <use xlink:href="#DejaVuSerif-Bold-69" transform="translate(487.109375 0)"/>
     <use xlink:href="#DejaVuSerif-Bold-73" transform="translate(525.097656 0)"/>
     <use xlink:href="#DejaVuSerif-Bold-73" transform="translate(581.396484 0)"/>
     <use xlink:href="#DejaVuSerif-Bold-65" transform="translate(637.695312 0)"/>
     <use xlink:href="#DejaVuSerif-Bold-6e" transform="translate(701.318359 0)"/>
     <use xlink:href="#DejaVuSerif-Bold-20" transform="translate(774.023438 0)"/>
     <use xlink:href="#DejaVuSerif-Bold-62" transform="translate(808.837891 0)"/>
     <use xlink:href="#DejaVuSerif-Bold-61" transform="translate(878.759766 0)"/>
     <use xlink:href="#DejaVuSerif-Bold-73" transform="translate(943.554688 0)"/>
     <use xlink:href="#DejaVuSerif-Bold-65" transform="translate(999.853516 0)"/>
     <use xlink:href="#DejaVuSerif-Bold-6c" transform="translate(1063.476562 0)"/>
     <use xlink:href="#DejaVuSerif-Bold-69" transform="translate(1101.464844 0)"/>
     <use xlink:href="#DejaVuSerif-Bold-6e" transform="translate(1139.453125 0)"/>
     <use xlink:href="#DejaVuSerif-Bold-65" transform="translate(1212.158203 0)"/>
     <use xlink:href="#DejaVuSerif-Bold-20" transform="translate(1275.78125 0)"/>
     <use xlink:href="#DejaVuSerif-Bold-43" transform="translate(1310.595703 0)"/>
     <use xlink:href="#DejaVuSerif-Bold-4f" transform="translate(1390.185547 0)"/>
     <use xlink:href="#DejaVuSerif-Bold-32" transform="translate(1477.294922 0)"/>
     <use xlink:href="#DejaVuSerif-Bold-20" transform="translate(1546.875 0)"/>
     <use xlink:href="#DejaVuSerif-Bold-73" transform="translate(1581.689453 0)"/>
     <use xlink:href="#DejaVuSerif-Bold-6f" transform="translate(1637.988281 0)"/>
     <use xlink:href="#DejaVuSerif-Bold-6c" transform="translate(1704.6875 0)"/>
     <use xlink:href="#DejaVuSerif-Bold-75" transform="translate(1742.675781 0)"/>
     <use xlink:href="#DejaVuSerif-Bold-62" transform="translate(1815.380859 0)"/>
     <use xlink:href="#DejaVuSerif-Bold-69" transform="translate(1885.302734 0)"/>
     <use xlink:href="#DejaVuSerif-Bold-6c" transform="translate(1923.291016 0)"/>
     <use xlink:href="#DejaVuSerif-Bold-69" transform="translate(1961.279297 0)"/>
     <use xlink:href="#DejaVuSerif-Bold-74" transform="translate(1999.267578 0)"/>
     <use xlink:href="#DejaVuSerif-Bold-79" transform="translate(2045.458984 0)"/>
    </g>
   </g>
   <g id="legend_1">
    <g id="text_17">
     <!-- Temperature -->
     <g transform="translate(462.43056 42.326406) scale(0.1 -0.1)">
      <defs>
       <path id="DejaVuSerif-54" d="M 1222 0
L 1222 331
L 1819 331
L 1819 4294
L 447 4294
L 447 3566
L 63 3566
L 63 4666
L 4206 4666
L 4206 3566
L 3822 3566
L 3822 4294
L 2450 4294
L 2450 331
L 3047 331
L 3047 0
L 1222 0
z
" transform="scale(0.015625)"/>
      </defs>
      <use xlink:href="#DejaVuSerif-54"/>
      <use xlink:href="#DejaVuSerif-65" transform="translate(58.949219 0)"/>
      <use xlink:href="#DejaVuSerif-6d" transform="translate(118.128906 0)"/>
      <use xlink:href="#DejaVuSerif-70" transform="translate(212.953125 0)"/>
      <use xlink:href="#DejaVuSerif-65" transform="translate(276.966797 0)"/>
      <use xlink:href="#DejaVuSerif-72" transform="translate(336.146484 0)"/>
      <use xlink:href="#DejaVuSerif-61" transform="translate(383.949219 0)"/>
      <use xlink:href="#DejaVuSerif-74" transform="translate(443.568359 0)"/>
      <use xlink:href="#DejaVuSerif-75" transform="translate(483.753906 0)"/>
      <use xlink:href="#DejaVuSerif-72" transform="translate(548.158203 0)"/>
      <use xlink:href="#DejaVuSerif-65" transform="translate(595.960938 0)"/>
     </g>
    </g>
    <g id="line2d_91">
     <path d="M 470.574349 52.139766
L 479.074349 52.139766
L 487.574349 52.139766
" style="fill: none; stroke: #1f5aa6; stroke-width: 2.2; stroke-linecap: square"/>
    </g>
    <g id="text_18">
     <!-- 40 C -->
     <g transform="translate(494.374349 55.114766) scale(0.085 -0.085)">
      <defs>
       <path id="DejaVuSerif-43" d="M 4513 1234
Q 4306 581 3820 245
Q 3334 -91 2591 -91
Q 2134 -91 1743 65
Q 1353 222 1050 525
Q 700 875 529 1320
Q 359 1766 359 2328
Q 359 3416 987 4083
Q 1616 4750 2644 4750
Q 3025 4750 3456 4650
Q 3888 4550 4384 4347
L 4384 3272
L 4031 3272
Q 3916 3859 3567 4137
Q 3219 4416 2591 4416
Q 1844 4416 1459 3886
Q 1075 3356 1075 2328
Q 1075 1303 1459 773
Q 1844 244 2591 244
Q 3113 244 3450 492
Q 3788 741 3938 1234
L 4513 1234
z
" transform="scale(0.015625)"/>
      </defs>
      <use xlink:href="#DejaVuSerif-34"/>
      <use xlink:href="#DejaVuSerif-30" transform="translate(63.623047 0)"/>
      <use xlink:href="#DejaVuSerif-20" transform="translate(127.246094 0)"/>
      <use xlink:href="#DejaVuSerif-43" transform="translate(159.033203 0)"/>
     </g>
    </g>
    <g id="line2d_92">
     <path d="M 470.574349 64.616172
L 479.074349 64.616172
L 487.574349 64.616172
" style="fill: none; stroke: #d47a00; stroke-width: 2.2; stroke-linecap: square"/>
    </g>
    <g id="text_19">
     <!-- 60 C -->
     <g transform="translate(494.374349 67.591172) scale(0.085 -0.085)">
      <use xlink:href="#DejaVuSerif-36"/>
      <use xlink:href="#DejaVuSerif-30" transform="translate(63.623047 0)"/>
      <use xlink:href="#DejaVuSerif-20" transform="translate(127.246094 0)"/>
      <use xlink:href="#DejaVuSerif-43" transform="translate(159.033203 0)"/>
     </g>
    </g>
    <g id="line2d_93">
     <path d="M 470.574349 77.092578
L 479.074349 77.092578
L 487.574349 77.092578
" style="fill: none; stroke: #16805a; stroke-width: 2.2; stroke-linecap: square"/>
    </g>
    <g id="text_20">
     <!-- 80 C -->
     <g transform="translate(494.374349 80.067578) scale(0.085 -0.085)">
      <defs>
       <path id="DejaVuSerif-38" d="M 2981 1275
Q 2981 1775 2732 2051
Q 2484 2328 2034 2328
Q 1584 2328 1336 2051
Q 1088 1775 1088 1275
Q 1088 772 1336 495
Q 1584 219 2034 219
Q 2484 219 2732 495
Q 2981 772 2981 1275
z
M 2853 3541
Q 2853 3966 2637 4203
Q 2422 4441 2034 4441
Q 1650 4441 1433 4203
Q 1216 3966 1216 3541
Q 1216 3113 1433 2875
Q 1650 2638 2034 2638
Q 2422 2638 2637 2875
Q 2853 3113 2853 3541
z
M 2516 2484
Q 3047 2413 3344 2092
Q 3641 1772 3641 1275
Q 3641 619 3225 264
Q 2809 -91 2034 -91
Q 1263 -91 845 264
Q 428 619 428 1275
Q 428 1772 725 2092
Q 1022 2413 1556 2484
Q 1084 2569 832 2842
Q 581 3116 581 3541
Q 581 4103 968 4426
Q 1356 4750 2034 4750
Q 2713 4750 3100 4426
Q 3488 4103 3488 3541
Q 3488 3116 3236 2842
Q 2984 2569 2516 2484
z
" transform="scale(0.015625)"/>
      </defs>
      <use xlink:href="#DejaVuSerif-38"/>
      <use xlink:href="#DejaVuSerif-30" transform="translate(63.623047 0)"/>
      <use xlink:href="#DejaVuSerif-20" transform="translate(127.246094 0)"/>
      <use xlink:href="#DejaVuSerif-43" transform="translate(159.033203 0)"/>
     </g>
    </g>
    <g id="line2d_94">
     <path d="M 470.574349 89.568984
L 479.074349 89.568984
L 487.574349 89.568984
" style="fill: none; stroke: #b6312c; stroke-width: 2.2; stroke-linecap: square"/>
    </g>
    <g id="text_21">
     <!-- 100 C -->
     <g transform="translate(494.374349 92.543984) scale(0.085 -0.085)">
      <use xlink:href="#DejaVuSerif-31"/>
      <use xlink:href="#DejaVuSerif-30" transform="translate(63.623047 0)"/>
      <use xlink:href="#DejaVuSerif-30" transform="translate(127.246094 0)"/>
      <use xlink:href="#DejaVuSerif-20" transform="translate(190.869141 0)"/>
      <use xlink:href="#DejaVuSerif-43" transform="translate(222.65625 0)"/>
     </g>
    </g>
    <g id="line2d_95">
     <path d="M 470.574349 102.045391
L 479.074349 102.045391
L 487.574349 102.045391
" style="fill: none; stroke: #6f4aa8; stroke-width: 2.2; stroke-linecap: square"/>
    </g>
    <g id="text_22">
     <!-- 120 C -->
     <g transform="translate(494.374349 105.020391) scale(0.085 -0.085)">
      <use xlink:href="#DejaVuSerif-31"/>
      <use xlink:href="#DejaVuSerif-32" transform="translate(63.623047 0)"/>
      <use xlink:href="#DejaVuSerif-30" transform="translate(127.246094 0)"/>
      <use xlink:href="#DejaVuSerif-20" transform="translate(190.869141 0)"/>
      <use xlink:href="#DejaVuSerif-43" transform="translate(222.65625 0)"/>
     </g>
    </g>
   </g>
   <g id="legend_2">
    <g id="text_23">
     <!-- Role -->
     <g transform="translate(516.884974 279.053344) scale(0.1 -0.1)">
      <defs>
       <path id="DejaVuSerif-52" d="M 3066 2316
Q 3284 2256 3442 2114
Q 3600 1972 3725 1716
L 4403 331
L 4972 331
L 4972 0
L 3872 0
L 3144 1484
Q 2934 1916 2759 2042
Q 2584 2169 2278 2169
L 1581 2169
L 1581 331
L 2241 331
L 2241 0
L 353 0
L 353 331
L 947 331
L 947 4331
L 353 4331
L 353 4666
L 2719 4666
Q 3400 4666 3770 4341
Q 4141 4016 4141 3419
Q 4141 2938 3870 2661
Q 3600 2384 3066 2316
z
M 1581 2503
L 2503 2503
Q 2975 2503 3200 2726
Q 3425 2950 3425 3419
Q 3425 3888 3200 4109
Q 2975 4331 2503 4331
L 1581 4331
L 1581 2503
z
" transform="scale(0.015625)"/>
      </defs>
      <use xlink:href="#DejaVuSerif-52"/>
      <use xlink:href="#DejaVuSerif-6f" transform="translate(75.292969 0)"/>
      <use xlink:href="#DejaVuSerif-6c" transform="translate(135.498047 0)"/>
      <use xlink:href="#DejaVuSerif-65" transform="translate(167.480469 0)"/>
     </g>
    </g>
    <g id="line2d_96">
     <defs>
      <path id="m76c0c82139" d="M -3 3
L 3 -3
M -3 -3
L 3 3
" style="stroke: #404040"/>
     </defs>
     <g>
      <use xlink:href="#m76c0c82139" x="470.93056" y="288.866703" style="fill: #404040; stroke: #404040"/>
     </g>
    </g>
    <g id="text_24">
     <!-- Jou data -->
     <g transform="translate(486.23056 291.841703) scale(0.085 -0.085)">
      <defs>
       <path id="DejaVuSerif-4a" d="M -538 -1119
L -538 -384
L -181 -384
Q -172 -694 -34 -845
Q 103 -997 378 -997
Q 750 -997 897 -762
Q 1044 -528 1044 153
L 1044 4331
L 319 4331
L 319 4666
L 2272 4666
L 2272 4331
L 1678 4331
L 1678 128
Q 1678 -644 1368 -987
Q 1059 -1331 372 -1331
Q 150 -1331 -79 -1278
Q -309 -1225 -538 -1119
z
" transform="scale(0.015625)"/>
      </defs>
      <use xlink:href="#DejaVuSerif-4a"/>
      <use xlink:href="#DejaVuSerif-6f" transform="translate(40.087891 0)"/>
      <use xlink:href="#DejaVuSerif-75" transform="translate(100.292969 0)"/>
      <use xlink:href="#DejaVuSerif-20" transform="translate(164.697266 0)"/>
      <use xlink:href="#DejaVuSerif-64" transform="translate(196.484375 0)"/>
      <use xlink:href="#DejaVuSerif-61" transform="translate(260.498047 0)"/>
      <use xlink:href="#DejaVuSerif-74" transform="translate(320.117188 0)"/>
      <use xlink:href="#DejaVuSerif-61" transform="translate(360.302734 0)"/>
     </g>
    </g>
    <g id="line2d_97">
     <path d="M 462.43056 301.343109
L 470.93056 301.343109
L 479.43056 301.343109
" style="fill: none; stroke-dasharray: 1.7,2.805; stroke-dashoffset: 0; stroke: #404040; stroke-width: 1.7"/>
    </g>
    <g id="text_25">
     <!-- Legacy PC-SAFT -->
     <g transform="translate(486.23056 304.318109) scale(0.085 -0.085)">
      <defs>
       <path id="DejaVuSerif-4c" d="M 353 0
L 353 331
L 947 331
L 947 4331
L 353 4331
L 353 4666
L 2175 4666
L 2175 4331
L 1581 4331
L 1581 384
L 3713 384
L 3713 1166
L 4097 1166
L 4097 0
L 353 0
z
" transform="scale(0.015625)"/>
       <path id="DejaVuSerif-63" d="M 3291 997
Q 3169 466 2822 187
Q 2475 -91 1925 -91
Q 1200 -91 759 389
Q 319 869 319 1663
Q 319 2459 759 2936
Q 1200 3413 1925 3413
Q 2241 3413 2553 3339
Q 2866 3266 3181 3116
L 3181 2266
L 2847 2266
Q 2781 2703 2561 2903
Q 2341 3103 1931 3103
Q 1466 3103 1228 2742
Q 991 2381 991 1663
Q 991 944 1227 581
Q 1463 219 1931 219
Q 2303 219 2525 412
Q 2747 606 2828 997
L 3291 997
z
" transform="scale(0.015625)"/>
       <path id="DejaVuSerif-79" d="M 1381 -609
L 1600 -56
L 359 2988
L -19 2988
L -19 3322
L 1509 3322
L 1509 2988
L 978 2988
L 1913 703
L 2847 2988
L 2350 2988
L 2350 3322
L 3597 3322
L 3597 2988
L 3225 2988
L 1703 -750
Q 1547 -1138 1356 -1280
Q 1166 -1422 819 -1422
Q 672 -1422 517 -1397
Q 363 -1372 206 -1325
L 206 -691
L 500 -691
Q 519 -903 608 -995
Q 697 -1088 884 -1088
Q 1056 -1088 1161 -992
Q 1266 -897 1381 -609
z
" transform="scale(0.015625)"/>
       <path id="DejaVuSerif-2d" d="M 281 1959
L 1881 1959
L 1881 1472
L 281 1472
L 281 1959
z
" transform="scale(0.015625)"/>
       <path id="DejaVuSerif-53" d="M 594 225
L 594 1288
L 953 1284
Q 969 753 1261 498
Q 1553 244 2150 244
Q 2706 244 2998 464
Q 3291 684 3291 1106
Q 3291 1444 3114 1625
Q 2938 1806 2369 1978
L 1753 2163
Q 1084 2366 811 2669
Q 538 2972 538 3500
Q 538 4094 959 4422
Q 1381 4750 2144 4750
Q 2469 4750 2856 4679
Q 3244 4609 3681 4475
L 3681 3481
L 3328 3481
Q 3275 3975 2998 4195
Q 2722 4416 2156 4416
Q 1663 4416 1405 4214
Q 1147 4013 1147 3628
Q 1147 3294 1340 3103
Q 1534 2913 2163 2725
L 2741 2553
Q 3375 2363 3645 2067
Q 3916 1772 3916 1275
Q 3916 597 3481 253
Q 3047 -91 2188 -91
Q 1803 -91 1404 -12
Q 1006 66 594 225
z
" transform="scale(0.015625)"/>
       <path id="DejaVuSerif-46" d="M 353 0
L 353 331
L 947 331
L 947 4331
L 353 4331
L 353 4666
L 4172 4666
L 4172 3628
L 3788 3628
L 3788 4281
L 1581 4281
L 1581 2719
L 3175 2719
L 3175 3303
L 3559 3303
L 3559 1753
L 3175 1753
L 3175 2338
L 1581 2338
L 1581 331
L 2328 331
L 2328 0
L 353 0
z
" transform="scale(0.015625)"/>
      </defs>
      <use xlink:href="#DejaVuSerif-4c"/>
      <use xlink:href="#DejaVuSerif-65" transform="translate(66.40625 0)"/>
      <use xlink:href="#DejaVuSerif-67" transform="translate(125.585938 0)"/>
      <use xlink:href="#DejaVuSerif-61" transform="translate(189.599609 0)"/>
      <use xlink:href="#DejaVuSerif-63" transform="translate(249.21875 0)"/>
      <use xlink:href="#DejaVuSerif-79" transform="translate(305.224609 0)"/>
      <use xlink:href="#DejaVuSerif-20" transform="translate(361.71875 0)"/>
      <use xlink:href="#DejaVuSerif-50" transform="translate(393.505859 0)"/>
      <use xlink:href="#DejaVuSerif-43" transform="translate(460.791016 0)"/>
      <use xlink:href="#DejaVuSerif-2d" transform="translate(537.304688 0)"/>
      <use xlink:href="#DejaVuSerif-53" transform="translate(571.09375 0)"/>
      <use xlink:href="#DejaVuSerif-41" transform="translate(639.599609 0)"/>
      <use xlink:href="#DejaVuSerif-46" transform="translate(711.816406 0)"/>
      <use xlink:href="#DejaVuSerif-54" transform="translate(781.201172 0)"/>
     </g>
    </g>
    <g id="line2d_98">
     <path d="M 462.43056 313.940375
L 470.93056 313.940375
L 479.43056 313.940375
" style="fill: none; stroke: #404040; stroke-width: 2.2; stroke-linecap: square"/>
    </g>
    <g id="text_26">
     <!-- Neutral ePC-SAFT parity -->
     <g transform="translate(486.23056 316.915375) scale(0.085 -0.085)">
      <defs>
       <path id="DejaVuSerif-4e" d="M 313 0
L 313 331
L 941 331
L 941 4331
L 313 4331
L 313 4666
L 1509 4666
L 4306 984
L 4306 4331
L 3681 4331
L 3681 4666
L 5319 4666
L 5319 4331
L 4691 4331
L 4691 -91
L 4313 -91
L 1325 3841
L 1325 331
L 1953 331
L 1953 0
L 313 0
z
" transform="scale(0.015625)"/>
      </defs>
      <use xlink:href="#DejaVuSerif-4e"/>
      <use xlink:href="#DejaVuSerif-65" transform="translate(87.5 0)"/>
      <use xlink:href="#DejaVuSerif-75" transform="translate(146.679688 0)"/>
      <use xlink:href="#DejaVuSerif-74" transform="translate(211.083984 0)"/>
      <use xlink:href="#DejaVuSerif-72" transform="translate(251.269531 0)"/>
      <use xlink:href="#DejaVuSerif-61" transform="translate(299.072266 0)"/>
      <use xlink:href="#DejaVuSerif-6c" transform="translate(358.691406 0)"/>
      <use xlink:href="#DejaVuSerif-20" transform="translate(390.673828 0)"/>
      <use xlink:href="#DejaVuSerif-65" transform="translate(422.460938 0)"/>
      <use xlink:href="#DejaVuSerif-50" transform="translate(481.640625 0)"/>
      <use xlink:href="#DejaVuSerif-43" transform="translate(548.925781 0)"/>
      <use xlink:href="#DejaVuSerif-2d" transform="translate(625.439453 0)"/>
      <use xlink:href="#DejaVuSerif-53" transform="translate(659.228516 0)"/>
      <use xlink:href="#DejaVuSerif-41" transform="translate(727.734375 0)"/>
      <use xlink:href="#DejaVuSerif-46" transform="translate(799.951172 0)"/>
      <use xlink:href="#DejaVuSerif-54" transform="translate(869.335938 0)"/>
      <use xlink:href="#DejaVuSerif-20" transform="translate(936.035156 0)"/>
      <use xlink:href="#DejaVuSerif-70" transform="translate(967.822266 0)"/>
      <use xlink:href="#DejaVuSerif-61" transform="translate(1031.835938 0)"/>
      <use xlink:href="#DejaVuSerif-72" transform="translate(1091.455078 0)"/>
      <use xlink:href="#DejaVuSerif-69" transform="translate(1139.257812 0)"/>
      <use xlink:href="#DejaVuSerif-74" transform="translate(1171.240234 0)"/>
      <use xlink:href="#DejaVuSerif-79" transform="translate(1211.425781 0)"/>
     </g>
    </g>
   </g>
  </g>
 </g>
 <defs>
  <clipPath id="p61d4eac16a">
   <rect x="52.77" y="27.077969" width="394.128" height="299.376"/>
  </clipPath>
 </defs>
</svg>
