<?xml version="1.0" encoding="utf-8" standalone="no"?>
<!DOCTYPE svg PUBLIC "-//W3C//DTD SVG 1.1//EN"
  "http://www.w3.org/Graphics/SVG/1.1/DTD/svg11.dtd">
<svg xmlns:xlink="http://www.w3.org/1999/xlink" width="460.513884pt" height="458.386031pt" viewBox="0 0 460.513884 458.386031" xmlns="http://www.w3.org/2000/svg" version="1.1">
 <metadata>
  <rdf:RDF xmlns:dc="http://purl.org/dc/elements/1.1/" xmlns:cc="http://creativecommons.org/ns#" xmlns:rdf="http://www.w3.org/1999/02/22-rdf-syntax-ns#">
   <cc:Work>
    <dc:type rdf:resource="http://purl.org/dc/dcmitype/StillImage"/>
    <dc:format>image/svg+xml</dc:format>
    <dc:creator>
     <cc:Agent>
      <dc:title>Matplotlib v3.10.9, https://matplotlib.org/</dc:title>
     </cc:Agent>
    </dc:creator>
   </cc:Work>
  </rdf:RDF>
 </metadata>
 <defs>
  <style type="text/css">*{stroke-linejoin: round; stroke-linecap: butt}</style>
 </defs>
 <g id="figure_1">
  <g id="patch_1">
   <path d="M 0 458.386031
L 460.513884 458.386031
L 460.513884 0
L 0 0
z
" style="fill: #ffffff"/>
  </g>
  <g id="axes_1">
   <g id="patch_2">
    <path d="M 52.745938 419.361969
L 453.313884 419.361969
L 453.313884 27.077969
L 52.745938 27.077969
z
" style="fill: #ffffff"/>
   </g>
   <g id="PathCollection_1">
    <defs>
     <path id="m2bb59202ac" d="M 0 3
C 0.795609 3 1.55874 2.683901 2.12132 2.12132
C 2.683901 1.55874 3 0.795609 3 0
C 3 -0.795609 2.683901 -1.55874 2.12132 -2.12132
C 1.55874 -2.683901 0.795609 -3 0 -3
C -0.795609 -3 -1.55874 -2.683901 -2.12132 -2.12132
C -2.683901 -1.55874 -3 -0.795609 -3 0
C -3 0.795609 -2.683901 1.55874 -2.12132 2.12132
C -1.55874 2.683901 -0.795609 3 0 3
z
" style="stroke: #000000; stroke-opacity: 0.8; stroke-width: 0.35"/>
    </defs>
    <g clip-path="url(#p670cdc7625)">
     <use xlink:href="#m2bb59202ac" x="81.235017" y="201.517473" style="fill: #9467bd; fill-opacity: 0.8; stroke: #000000; stroke-opacity: 0.8; stroke-width: 0.35"/>
     <use xlink:href="#m2bb59202ac" x="155.46591" y="189.202007" style="fill: #9467bd; fill-opacity: 0.8; stroke: #000000; stroke-opacity: 0.8; stroke-width: 0.35"/>
     <use xlink:href="#m2bb59202ac" x="176.218576" y="187.109285" style="fill: #9467bd; fill-opacity: 0.8; stroke: #000000; stroke-opacity: 0.8; stroke-width: 0.35"/>
     <use xlink:href="#m2bb59202ac" x="176.348665" y="185.708171" style="fill: #9467bd; fill-opacity: 0.8; stroke: #000000; stroke-opacity: 0.8; stroke-width: 0.35"/>
     <use xlink:href="#m2bb59202ac" x="212.380705" y="184.364188" style="fill: #9467bd; fill-opacity: 0.8; stroke: #000000; stroke-opacity: 0.8; stroke-width: 0.35"/>
     <use xlink:href="#m2bb59202ac" x="220.334112" y="209.312087" style="fill: #9467bd; fill-opacity: 0.8; stroke: #000000; stroke-opacity: 0.8; stroke-width: 0.35"/>
     <use xlink:href="#m2bb59202ac" x="220.366399" y="260.854427" style="fill: #9467bd; fill-opacity: 0.8; stroke: #000000; stroke-opacity: 0.8; stroke-width: 0.35"/>
     <use xlink:href="#m2bb59202ac" x="230.397175" y="353.196087" style="fill: #9467bd; fill-opacity: 0.8; stroke: #000000; stroke-opacity: 0.8; stroke-width: 0.35"/>
     <use xlink:href="#m2bb59202ac" x="84.080192" y="247.682572" style="fill: #9467bd; fill-opacity: 0.8; stroke: #000000; stroke-opacity: 0.8; stroke-width: 0.35"/>
     <use xlink:href="#m2bb59202ac" x="253.957823" y="240.347345" style="fill: #9467bd; fill-opacity: 0.8; stroke: #000000; stroke-opacity: 0.8; stroke-width: 0.35"/>
     <use xlink:href="#m2bb59202ac" x="154.960241" y="239.407058" style="fill: #9467bd; fill-opacity: 0.8; stroke: #000000; stroke-opacity: 0.8; stroke-width: 0.35"/>
     <use xlink:href="#m2bb59202ac" x="155.425794" y="238.938984" style="fill: #9467bd; fill-opacity: 0.8; stroke: #000000; stroke-opacity: 0.8; stroke-width: 0.35"/>
     <use xlink:href="#m2bb59202ac" x="202.937071" y="239.82649" style="fill: #9467bd; fill-opacity: 0.8; stroke: #000000; stroke-opacity: 0.8; stroke-width: 0.35"/>
     <use xlink:href="#m2bb59202ac" x="197.534363" y="266.472799" style="fill: #9467bd; fill-opacity: 0.8; stroke: #000000; stroke-opacity: 0.8; stroke-width: 0.35"/>
     <use xlink:href="#m2bb59202ac" x="197.584213" y="314.643235" style="fill: #9467bd; fill-opacity: 0.8; stroke: #000000; stroke-opacity: 0.8; stroke-width: 0.35"/>
     <use xlink:href="#m2bb59202ac" x="207.968642" y="381.174012" style="fill: #9467bd; fill-opacity: 0.8; stroke: #000000; stroke-opacity: 0.8; stroke-width: 0.35"/>
    </g>
   </g>
   <g id="PathCollection_2">
    <defs>
     <path id="m8fc061ab44" d="M 0 3
C 0.795609 3 1.55874 2.683901 2.12132 2.12132
C 2.683901 1.55874 3 0.795609 3 0
C 3 -0.795609 2.683901 -1.55874 2.12132 -2.12132
C 1.55874 -2.683901 0.795609 -3 0 -3
C -0.795609 -3 -1.55874 -2.683901 -2.12132 -2.12132
C -2.683901 -1.55874 -3 -0.795609 -3 0
C -3 0.795609 -2.683901 1.55874 -2.12132 2.12132
C -1.55874 2.683901 -0.795609 3 0 3
z
" style="stroke: #000000; stroke-opacity: 0.8; stroke-width: 0.35"/>
    </defs>
    <g clip-path="url(#p670cdc7625)">
     <use xlink:href="#m8fc061ab44" x="221.390027" y="398.135606" style="fill: #17becf; fill-opacity: 0.8; stroke: #000000; stroke-opacity: 0.8; stroke-width: 0.35"/>
     <use xlink:href="#m8fc061ab44" x="82.747987" y="333.03655" style="fill: #17becf; fill-opacity: 0.8; stroke: #000000; stroke-opacity: 0.8; stroke-width: 0.35"/>
     <use xlink:href="#m8fc061ab44" x="118.4978" y="310.93304" style="fill: #17becf; fill-opacity: 0.8; stroke: #000000; stroke-opacity: 0.8; stroke-width: 0.35"/>
     <use xlink:href="#m8fc061ab44" x="118.895245" y="289.290508" style="fill: #17becf; fill-opacity: 0.8; stroke: #000000; stroke-opacity: 0.8; stroke-width: 0.35"/>
     <use xlink:href="#m8fc061ab44" x="176.585813" y="225.864202" style="fill: #17becf; fill-opacity: 0.8; stroke: #000000; stroke-opacity: 0.8; stroke-width: 0.35"/>
     <use xlink:href="#m8fc061ab44" x="338.227743" y="106.99951" style="fill: #17becf; fill-opacity: 0.8; stroke: #000000; stroke-opacity: 0.8; stroke-width: 0.35"/>
     <use xlink:href="#m8fc061ab44" x="397.423567" y="62.938156" style="fill: #17becf; fill-opacity: 0.8; stroke: #000000; stroke-opacity: 0.8; stroke-width: 0.35"/>
     <use xlink:href="#m8fc061ab44" x="419.172149" y="40.310308" style="fill: #17becf; fill-opacity: 0.8; stroke: #000000; stroke-opacity: 0.8; stroke-width: 0.35"/>
     <use xlink:href="#m8fc061ab44" x="84.080147" y="368.239969" style="fill: #17becf; fill-opacity: 0.8; stroke: #000000; stroke-opacity: 0.8; stroke-width: 0.35"/>
     <use xlink:href="#m8fc061ab44" x="238.576115" y="307.968588" style="fill: #17becf; fill-opacity: 0.8; stroke: #000000; stroke-opacity: 0.8; stroke-width: 0.35"/>
     <use xlink:href="#m8fc061ab44" x="154.960243" y="287.180847" style="fill: #17becf; fill-opacity: 0.8; stroke: #000000; stroke-opacity: 0.8; stroke-width: 0.35"/>
     <use xlink:href="#m8fc061ab44" x="140.451039" y="266.739056" style="fill: #17becf; fill-opacity: 0.8; stroke: #000000; stroke-opacity: 0.8; stroke-width: 0.35"/>
     <use xlink:href="#m8fc061ab44" x="212.351942" y="207.576681" style="fill: #17becf; fill-opacity: 0.8; stroke: #000000; stroke-opacity: 0.8; stroke-width: 0.35"/>
     <use xlink:href="#m8fc061ab44" x="342.459925" y="104.911383" style="fill: #17becf; fill-opacity: 0.8; stroke: #000000; stroke-opacity: 0.8; stroke-width: 0.35"/>
     <use xlink:href="#m8fc061ab44" x="398.110986" y="64.186013" style="fill: #17becf; fill-opacity: 0.8; stroke: #000000; stroke-opacity: 0.8; stroke-width: 0.35"/>
     <use xlink:href="#m8fc061ab44" x="421.049107" y="44.537402" style="fill: #17becf; fill-opacity: 0.8; stroke: #000000; stroke-opacity: 0.8; stroke-width: 0.35"/>
     <use xlink:href="#m8fc061ab44" x="247.742864" y="401.373071" style="fill: #17becf; fill-opacity: 0.8; stroke: #000000; stroke-opacity: 0.8; stroke-width: 0.35"/>
     <use xlink:href="#m8fc061ab44" x="243.368762" y="384.46768" style="fill: #17becf; fill-opacity: 0.8; stroke: #000000; stroke-opacity: 0.8; stroke-width: 0.35"/>
     <use xlink:href="#m8fc061ab44" x="238.531177" y="369.306763" style="fill: #17becf; fill-opacity: 0.8; stroke: #000000; stroke-opacity: 0.8; stroke-width: 0.35"/>
     <use xlink:href="#m8fc061ab44" x="238.563884" y="354.730216" style="fill: #17becf; fill-opacity: 0.8; stroke: #000000; stroke-opacity: 0.8; stroke-width: 0.35"/>
     <use xlink:href="#m8fc061ab44" x="238.581749" y="341.631206" style="fill: #17becf; fill-opacity: 0.8; stroke: #000000; stroke-opacity: 0.8; stroke-width: 0.35"/>
     <use xlink:href="#m8fc061ab44" x="241.10403" y="328.536677" style="fill: #17becf; fill-opacity: 0.8; stroke: #000000; stroke-opacity: 0.8; stroke-width: 0.35"/>
     <use xlink:href="#m8fc061ab44" x="245.786037" y="315.835636" style="fill: #17becf; fill-opacity: 0.8; stroke: #000000; stroke-opacity: 0.8; stroke-width: 0.35"/>
     <use xlink:href="#m8fc061ab44" x="252.086177" y="303.347544" style="fill: #17becf; fill-opacity: 0.8; stroke: #000000; stroke-opacity: 0.8; stroke-width: 0.35"/>
     <use xlink:href="#m8fc061ab44" x="259.433148" y="290.915555" style="fill: #17becf; fill-opacity: 0.8; stroke: #000000; stroke-opacity: 0.8; stroke-width: 0.35"/>
     <use xlink:href="#m8fc061ab44" x="265.861093" y="278.394379" style="fill: #17becf; fill-opacity: 0.8; stroke: #000000; stroke-opacity: 0.8; stroke-width: 0.35"/>
     <use xlink:href="#m8fc061ab44" x="274.197286" y="265.081231" style="fill: #17becf; fill-opacity: 0.8; stroke: #000000; stroke-opacity: 0.8; stroke-width: 0.35"/>
     <use xlink:href="#m8fc061ab44" x="281.363705" y="251.355542" style="fill: #17becf; fill-opacity: 0.8; stroke: #000000; stroke-opacity: 0.8; stroke-width: 0.35"/>
     <use xlink:href="#m8fc061ab44" x="288.556721" y="237.055075" style="fill: #17becf; fill-opacity: 0.8; stroke: #000000; stroke-opacity: 0.8; stroke-width: 0.35"/>
     <use xlink:href="#m8fc061ab44" x="295.636382" y="222.036197" style="fill: #17becf; fill-opacity: 0.8; stroke: #000000; stroke-opacity: 0.8; stroke-width: 0.35"/>
     <use xlink:href="#m8fc061ab44" x="302.581468" y="205.549871" style="fill: #17becf; fill-opacity: 0.8; stroke: #000000; stroke-opacity: 0.8; stroke-width: 0.35"/>
     <use xlink:href="#m8fc061ab44" x="309.247014" y="189.035328" style="fill: #17becf; fill-opacity: 0.8; stroke: #000000; stroke-opacity: 0.8; stroke-width: 0.35"/>
     <use xlink:href="#m8fc061ab44" x="315.639553" y="171.613707" style="fill: #17becf; fill-opacity: 0.8; stroke: #000000; stroke-opacity: 0.8; stroke-width: 0.35"/>
     <use xlink:href="#m8fc061ab44" x="321.271768" y="154.848515" style="fill: #17becf; fill-opacity: 0.8; stroke: #000000; stroke-opacity: 0.8; stroke-width: 0.35"/>
     <use xlink:href="#m8fc061ab44" x="326.776415" y="139.042367" style="fill: #17becf; fill-opacity: 0.8; stroke: #000000; stroke-opacity: 0.8; stroke-width: 0.35"/>
    </g>
   </g>
   <g id="matplotlib.axis_1">
    <g id="xtick_1">
     <g id="line2d_1">
      <path d="M 84.505476 419.361969
L 84.505476 27.077969
" clip-path="url(#p670cdc7625)" style="fill: none; stroke: #b0b0b0; stroke-opacity: 0.22; stroke-width: 0.8; stroke-linecap: square"/>
     </g>
     <g id="line2d_2">
      <defs>
       <path id="m4e92a786cb" d="M 0 0
L 0 4
" style="stroke: #000000; stroke-width: 0.8"/>
      </defs>
      <g>
       <use xlink:href="#m4e92a786cb" x="84.505476" y="419.361969" style="stroke: #000000; stroke-width: 0.8"/>
      </g>
     </g>
     <g id="text_1">
      <!-- $\mathdefault{10^{-4}}$ -->
      <g transform="translate(72.805476 434.460406) scale(0.1 -0.1)">
       <defs>
        <path id="DejaVuSerif-31" d="M 909 0
L 909 331
L 1722 331
L 1722 4213
L 781 3603
L 781 4013
L 1919 4750
L 2350 4750
L 2350 331
L 3163 331
L 3163 0
L 909 0
z
" transform="scale(0.015625)"/>
        <path id="DejaVuSerif-30" d="M 2034 219
Q 2513 219 2750 744
Q 2988 1269 2988 2328
Q 2988 3391 2750 3916
Q 2513 4441 2034 4441
Q 1556 4441 1318 3916
Q 1081 3391 1081 2328
Q 1081 1269 1318 744
Q 1556 219 2034 219
z
M 2034 -91
Q 1275 -91 848 546
Q 422 1184 422 2328
Q 422 3475 848 4112
Q 1275 4750 2034 4750
Q 2797 4750 3222 4112
Q 3647 3475 3647 2328
Q 3647 1184 3222 546
Q 2797 -91 2034 -91
z
" transform="scale(0.015625)"/>
        <path id="DejaVuSerif-2212" d="M 678 2259
L 4684 2259
L 4684 1753
L 678 1753
L 678 2259
z
" transform="scale(0.015625)"/>
        <path id="DejaVuSerif-34" d="M 2234 1581
L 2234 4063
L 641 1581
L 2234 1581
z
M 3609 0
L 1484 0
L 1484 331
L 2234 331
L 2234 1247
L 197 1247
L 197 1588
L 2241 4750
L 2859 4750
L 2859 1581
L 3750 1581
L 3750 1247
L 2859 1247
L 2859 331
L 3609 331
L 3609 0
z
" transform="scale(0.015625)"/>
       </defs>
       <use xlink:href="#DejaVuSerif-31" transform="translate(0 0.7125)"/>
       <use xlink:href="#DejaVuSerif-30" transform="translate(63.623047 0.7125)"/>
       <use xlink:href="#DejaVuSerif-2212" transform="translate(128.154453 37.046875) scale(0.7)"/>
       <use xlink:href="#DejaVuSerif-34" transform="translate(186.806797 37.046875) scale(0.7)"/>
      </g>
     </g>
    </g>
    <g id="xtick_2">
     <g id="line2d_3">
      <path d="M 203.088697 419.361969
L 203.088697 27.077969
" clip-path="url(#p670cdc7625)" style="fill: none; stroke: #b0b0b0; stroke-opacity: 0.22; stroke-width: 0.8; stroke-linecap: square"/>
     </g>
     <g id="line2d_4">
      <g>
       <use xlink:href="#m4e92a786cb" x="203.088697" y="419.361969" style="stroke: #000000; stroke-width: 0.8"/>
      </g>
     </g>
     <g id="text_2">
      <!-- $\mathdefault{10^{-3}}$ -->
      <g transform="translate(191.388697 434.460406) scale(0.1 -0.1)">
       <defs>
        <path id="DejaVuSerif-33" d="M 622 4469
Q 988 4606 1323 4678
Q 1659 4750 1953 4750
Q 2638 4750 3022 4454
Q 3406 4159 3406 3634
Q 3406 3213 3140 2930
Q 2875 2647 2388 2547
Q 2963 2466 3280 2130
Q 3597 1794 3597 1259
Q 3597 606 3158 257
Q 2719 -91 1894 -91
Q 1528 -91 1179 -12
Q 831 66 488 225
L 488 1131
L 838 1131
Q 869 681 1141 450
Q 1413 219 1906 219
Q 2384 219 2661 495
Q 2938 772 2938 1253
Q 2938 1803 2653 2086
Q 2369 2369 1819 2369
L 1522 2369
L 1522 2688
L 1678 2688
Q 2225 2688 2498 2914
Q 2772 3141 2772 3597
Q 2772 4006 2547 4223
Q 2322 4441 1900 4441
Q 1478 4441 1245 4241
Q 1013 4041 972 3647
L 622 3647
L 622 4469
z
" transform="scale(0.015625)"/>
       </defs>
       <use xlink:href="#DejaVuSerif-31" transform="translate(0 0.7125)"/>
       <use xlink:href="#DejaVuSerif-30" transform="translate(63.623047 0.7125)"/>
       <use xlink:href="#DejaVuSerif-2212" transform="translate(128.154453 37.046875) scale(0.7)"/>
       <use xlink:href="#DejaVuSerif-33" transform="translate(186.806797 37.046875) scale(0.7)"/>
      </g>
     </g>
    </g>
    <g id="xtick_3">
     <g id="line2d_5">
      <path d="M 321.671918 419.361969
L 321.671918 27.077969
" clip-path="url(#p670cdc7625)" style="fill: none; stroke: #b0b0b0; stroke-opacity: 0.22; stroke-width: 0.8; stroke-linecap: square"/>
     </g>
     <g id="line2d_6">
      <g>
       <use xlink:href="#m4e92a786cb" x="321.671918" y="419.361969" style="stroke: #000000; stroke-width: 0.8"/>
      </g>
     </g>
     <g id="text_3">
      <!-- $\mathdefault{10^{-2}}$ -->
      <g transform="translate(309.971918 434.460406) scale(0.1 -0.1)">
       <defs>
        <path id="DejaVuSerif-32" d="M 819 3553
L 469 3553
L 469 4384
Q 803 4563 1142 4656
Q 1481 4750 1806 4750
Q 2534 4750 2956 4397
Q 3378 4044 3378 3438
Q 3378 2753 2422 1800
Q 2347 1728 2309 1691
L 1131 513
L 3078 513
L 3078 1088
L 3444 1088
L 3444 0
L 434 0
L 434 341
L 1850 1753
Q 2319 2222 2519 2614
Q 2719 3006 2719 3438
Q 2719 3909 2473 4175
Q 2228 4441 1797 4441
Q 1350 4441 1106 4219
Q 863 3997 819 3553
z
" transform="scale(0.015625)"/>
       </defs>
       <use xlink:href="#DejaVuSerif-31" transform="translate(0 0.7125)"/>
       <use xlink:href="#DejaVuSerif-30" transform="translate(63.623047 0.7125)"/>
       <use xlink:href="#DejaVuSerif-2212" transform="translate(128.154453 37.046875) scale(0.7)"/>
       <use xlink:href="#DejaVuSerif-32" transform="translate(186.806797 37.046875) scale(0.7)"/>
      </g>
     </g>
    </g>
    <g id="xtick_4">
     <g id="line2d_7">
      <path d="M 440.255139 419.361969
L 440.255139 27.077969
" clip-path="url(#p670cdc7625)" style="fill: none; stroke: #b0b0b0; stroke-opacity: 0.22; stroke-width: 0.8; stroke-linecap: square"/>
     </g>
     <g id="line2d_8">
      <g>
       <use xlink:href="#m4e92a786cb" x="440.255139" y="419.361969" style="stroke: #000000; stroke-width: 0.8"/>
      </g>
     </g>
     <g id="text_4">
      <!-- $\mathdefault{10^{-1}}$ -->
      <g transform="translate(428.555139 434.460406) scale(0.1 -0.1)">
       <use xlink:href="#DejaVuSerif-31" transform="translate(0 0.7125)"/>
       <use xlink:href="#DejaVuSerif-30" transform="translate(63.623047 0.7125)"/>
       <use xlink:href="#DejaVuSerif-2212" transform="translate(128.154453 37.046875) scale(0.7)"/>
       <use xlink:href="#DejaVuSerif-31" transform="translate(186.806797 37.046875) scale(0.7)"/>
      </g>
     </g>
    </g>
    <g id="xtick_5">
     <g id="line2d_9">
      <defs>
       <path id="m46bea35986" d="M 0 0
L 0 2
" style="stroke: #000000; stroke-width: 0.6"/>
      </defs>
      <g>
       <use xlink:href="#m46bea35986" x="58.197936" y="419.361969" style="stroke: #000000; stroke-width: 0.6"/>
      </g>
     </g>
    </g>
    <g id="xtick_6">
     <g id="line2d_10">
      <g>
       <use xlink:href="#m46bea35986" x="66.136702" y="419.361969" style="stroke: #000000; stroke-width: 0.6"/>
      </g>
     </g>
    </g>
    <g id="xtick_7">
     <g id="line2d_11">
      <g>
       <use xlink:href="#m46bea35986" x="73.013574" y="419.361969" style="stroke: #000000; stroke-width: 0.6"/>
      </g>
     </g>
    </g>
    <g id="xtick_8">
     <g id="line2d_12">
      <g>
       <use xlink:href="#m46bea35986" x="79.079405" y="419.361969" style="stroke: #000000; stroke-width: 0.6"/>
      </g>
     </g>
    </g>
    <g id="xtick_9">
     <g id="line2d_13">
      <g>
       <use xlink:href="#m46bea35986" x="120.202582" y="419.361969" style="stroke: #000000; stroke-width: 0.6"/>
      </g>
     </g>
    </g>
    <g id="xtick_10">
     <g id="line2d_14">
      <g>
       <use xlink:href="#m46bea35986" x="141.084051" y="419.361969" style="stroke: #000000; stroke-width: 0.6"/>
      </g>
     </g>
    </g>
    <g id="xtick_11">
     <g id="line2d_15">
      <g>
       <use xlink:href="#m46bea35986" x="155.899689" y="419.361969" style="stroke: #000000; stroke-width: 0.6"/>
      </g>
     </g>
    </g>
    <g id="xtick_12">
     <g id="line2d_16">
      <g>
       <use xlink:href="#m46bea35986" x="167.39159" y="419.361969" style="stroke: #000000; stroke-width: 0.6"/>
      </g>
     </g>
    </g>
    <g id="xtick_13">
     <g id="line2d_17">
      <g>
       <use xlink:href="#m46bea35986" x="176.781157" y="419.361969" style="stroke: #000000; stroke-width: 0.6"/>
      </g>
     </g>
    </g>
    <g id="xtick_14">
     <g id="line2d_18">
      <g>
       <use xlink:href="#m46bea35986" x="184.719923" y="419.361969" style="stroke: #000000; stroke-width: 0.6"/>
      </g>
     </g>
    </g>
    <g id="xtick_15">
     <g id="line2d_19">
      <g>
       <use xlink:href="#m46bea35986" x="191.596795" y="419.361969" style="stroke: #000000; stroke-width: 0.6"/>
      </g>
     </g>
    </g>
    <g id="xtick_16">
     <g id="line2d_20">
      <g>
       <use xlink:href="#m46bea35986" x="197.662626" y="419.361969" style="stroke: #000000; stroke-width: 0.6"/>
      </g>
     </g>
    </g>
    <g id="xtick_17">
     <g id="line2d_21">
      <g>
       <use xlink:href="#m46bea35986" x="238.785803" y="419.361969" style="stroke: #000000; stroke-width: 0.6"/>
      </g>
     </g>
    </g>
    <g id="xtick_18">
     <g id="line2d_22">
      <g>
       <use xlink:href="#m46bea35986" x="259.667272" y="419.361969" style="stroke: #000000; stroke-width: 0.6"/>
      </g>
     </g>
    </g>
    <g id="xtick_19">
     <g id="line2d_23">
      <g>
       <use xlink:href="#m46bea35986" x="274.48291" y="419.361969" style="stroke: #000000; stroke-width: 0.6"/>
      </g>
     </g>
    </g>
    <g id="xtick_20">
     <g id="line2d_24">
      <g>
       <use xlink:href="#m46bea35986" x="285.974811" y="419.361969" style="stroke: #000000; stroke-width: 0.6"/>
      </g>
     </g>
    </g>
    <g id="xtick_21">
     <g id="line2d_25">
      <g>
       <use xlink:href="#m46bea35986" x="295.364379" y="419.361969" style="stroke: #000000; stroke-width: 0.6"/>
      </g>
     </g>
    </g>
    <g id="xtick_22">
     <g id="line2d_26">
      <g>
       <use xlink:href="#m46bea35986" x="303.303145" y="419.361969" style="stroke: #000000; stroke-width: 0.6"/>
      </g>
     </g>
    </g>
    <g id="xtick_23">
     <g id="line2d_27">
      <g>
       <use xlink:href="#m46bea35986" x="310.180016" y="419.361969" style="stroke: #000000; stroke-width: 0.6"/>
      </g>
     </g>
    </g>
    <g id="xtick_24">
     <g id="line2d_28">
      <g>
       <use xlink:href="#m46bea35986" x="316.245847" y="419.361969" style="stroke: #000000; stroke-width: 0.6"/>
      </g>
     </g>
    </g>
    <g id="xtick_25">
     <g id="line2d_29">
      <g>
       <use xlink:href="#m46bea35986" x="357.369024" y="419.361969" style="stroke: #000000; stroke-width: 0.6"/>
      </g>
     </g>
    </g>
    <g id="xtick_26">
     <g id="line2d_30">
      <g>
       <use xlink:href="#m46bea35986" x="378.250493" y="419.361969" style="stroke: #000000; stroke-width: 0.6"/>
      </g>
     </g>
    </g>
    <g id="xtick_27">
     <g id="line2d_31">
      <g>
       <use xlink:href="#m46bea35986" x="393.066131" y="419.361969" style="stroke: #000000; stroke-width: 0.6"/>
      </g>
     </g>
    </g>
    <g id="xtick_28">
     <g id="line2d_32">
      <g>
       <use xlink:href="#m46bea35986" x="404.558032" y="419.361969" style="stroke: #000000; stroke-width: 0.6"/>
      </g>
     </g>
    </g>
    <g id="xtick_29">
     <g id="line2d_33">
      <g>
       <use xlink:href="#m46bea35986" x="413.9476" y="419.361969" style="stroke: #000000; stroke-width: 0.6"/>
      </g>
     </g>
    </g>
    <g id="xtick_30">
     <g id="line2d_34">
      <g>
       <use xlink:href="#m46bea35986" x="421.886366" y="419.361969" style="stroke: #000000; stroke-width: 0.6"/>
      </g>
     </g>
    </g>
    <g id="xtick_31">
     <g id="line2d_35">
      <g>
       <use xlink:href="#m46bea35986" x="428.763238" y="419.361969" style="stroke: #000000; stroke-width: 0.6"/>
      </g>
     </g>
    </g>
    <g id="xtick_32">
     <g id="line2d_36">
      <g>
       <use xlink:href="#m46bea35986" x="434.829068" y="419.361969" style="stroke: #000000; stroke-width: 0.6"/>
      </g>
     </g>
    </g>
    <g id="text_5">
     <!-- Observed true-species mole fraction -->
     <g transform="translate(151.767176 448.898375) scale(0.11 -0.11)">
      <defs>
       <path id="DejaVuSerif-4f" d="M 2625 244
Q 3391 244 3781 770
Q 4172 1297 4172 2328
Q 4172 3363 3781 3889
Q 3391 4416 2625 4416
Q 1856 4416 1465 3889
Q 1075 3363 1075 2328
Q 1075 1297 1465 770
Q 1856 244 2625 244
z
M 2625 -91
Q 2150 -91 1751 65
Q 1353 222 1050 525
Q 700 875 529 1319
Q 359 1763 359 2328
Q 359 2894 529 3339
Q 700 3784 1050 4134
Q 1356 4441 1750 4595
Q 2144 4750 2625 4750
Q 3641 4750 4266 4084
Q 4891 3419 4891 2328
Q 4891 1769 4719 1320
Q 4547 872 4197 525
Q 3891 219 3497 64
Q 3103 -91 2625 -91
z
" transform="scale(0.015625)"/>
       <path id="DejaVuSerif-62" d="M 738 331
L 738 4531
L 184 4531
L 184 4863
L 1313 4863
L 1313 2803
Q 1481 3116 1742 3264
Q 2003 3413 2388 3413
Q 3000 3413 3387 2928
Q 3775 2444 3775 1663
Q 3775 881 3387 395
Q 3000 -91 2388 -91
Q 2003 -91 1742 57
Q 1481 206 1313 519
L 1313 0
L 184 0
L 184 331
L 738 331
z
M 1313 1497
Q 1313 897 1542 583
Q 1772 269 2209 269
Q 2650 269 2876 622
Q 3103 975 3103 1663
Q 3103 2353 2876 2703
Q 2650 3053 2209 3053
Q 1772 3053 1542 2737
Q 1313 2422 1313 1825
L 1313 1497
z
" transform="scale(0.015625)"/>
       <path id="DejaVuSerif-73" d="M 359 184
L 359 959
L 691 959
Q 703 588 923 403
Q 1144 219 1575 219
Q 1963 219 2166 364
Q 2369 509 2369 788
Q 2369 1006 2220 1140
Q 2072 1275 1594 1428
L 1178 1569
Q 750 1706 558 1912
Q 366 2119 366 2438
Q 366 2894 700 3153
Q 1034 3413 1625 3413
Q 1888 3413 2178 3344
Q 2469 3275 2778 3144
L 2778 2419
L 2447 2419
Q 2434 2741 2221 2922
Q 2009 3103 1644 3103
Q 1281 3103 1095 2975
Q 909 2847 909 2591
Q 909 2381 1050 2254
Q 1191 2128 1613 1997
L 2069 1856
Q 2541 1709 2748 1489
Q 2956 1269 2956 922
Q 2956 450 2595 179
Q 2234 -91 1600 -91
Q 1278 -91 972 -22
Q 666 47 359 184
z
" transform="scale(0.015625)"/>
       <path id="DejaVuSerif-65" d="M 3469 1600
L 991 1600
L 991 1575
Q 991 903 1244 561
Q 1497 219 1991 219
Q 2369 219 2611 417
Q 2853 616 2950 1006
L 3413 1006
Q 3275 459 2904 184
Q 2534 -91 1931 -91
Q 1203 -91 761 389
Q 319 869 319 1663
Q 319 2450 753 2931
Q 1188 3413 1894 3413
Q 2647 3413 3050 2948
Q 3453 2484 3469 1600
z
M 2791 1931
Q 2772 2513 2545 2808
Q 2319 3103 1894 3103
Q 1497 3103 1269 2806
Q 1041 2509 991 1931
L 2791 1931
z
" transform="scale(0.015625)"/>
       <path id="DejaVuSerif-72" d="M 3059 3328
L 3059 2497
L 2728 2497
Q 2713 2744 2591 2866
Q 2469 2988 2234 2988
Q 1809 2988 1582 2694
Q 1356 2400 1356 1850
L 1356 331
L 2022 331
L 2022 0
L 263 0
L 263 331
L 781 331
L 781 2994
L 231 2994
L 231 3322
L 1356 3322
L 1356 2731
Q 1525 3078 1790 3245
Q 2056 3413 2438 3413
Q 2578 3413 2733 3391
Q 2888 3369 3059 3328
z
" transform="scale(0.015625)"/>
       <path id="DejaVuSerif-76" d="M 1581 0
L 359 2988
L -19 2988
L -19 3322
L 1509 3322
L 1509 2988
L 978 2988
L 1913 703
L 2847 2988
L 2350 2988
L 2350 3322
L 3597 3322
L 3597 2988
L 3225 2988
L 2003 0
L 1581 0
z
" transform="scale(0.015625)"/>
       <path id="DejaVuSerif-64" d="M 3359 331
L 3909 331
L 3909 0
L 2784 0
L 2784 519
Q 2616 206 2355 57
Q 2094 -91 1709 -91
Q 1097 -91 708 395
Q 319 881 319 1663
Q 319 2444 706 2928
Q 1094 3413 1709 3413
Q 2094 3413 2355 3264
Q 2616 3116 2784 2803
L 2784 4531
L 2241 4531
L 2241 4863
L 3359 4863
L 3359 331
z
M 2784 1497
L 2784 1825
Q 2784 2422 2554 2737
Q 2325 3053 1888 3053
Q 1444 3053 1217 2703
Q 991 2353 991 1663
Q 991 975 1217 622
Q 1444 269 1888 269
Q 2325 269 2554 583
Q 2784 897 2784 1497
z
" transform="scale(0.015625)"/>
       <path id="DejaVuSerif-20" transform="scale(0.015625)"/>
       <path id="DejaVuSerif-74" d="M 691 2988
L 184 2988
L 184 3322
L 691 3322
L 691 4353
L 1269 4353
L 1269 3322
L 2350 3322
L 2350 2988
L 1269 2988
L 1269 878
Q 1269 456 1350 337
Q 1431 219 1650 219
Q 1875 219 1978 351
Q 2081 484 2088 781
L 2522 781
Q 2497 328 2275 118
Q 2053 -91 1600 -91
Q 1103 -91 897 129
Q 691 350 691 878
L 691 2988
z
" transform="scale(0.015625)"/>
       <path id="DejaVuSerif-75" d="M 2266 3322
L 3341 3322
L 3341 331
L 3884 331
L 3884 0
L 2766 0
L 2766 588
Q 2606 256 2353 82
Q 2100 -91 1766 -91
Q 1213 -91 952 223
Q 691 538 691 1209
L 691 2988
L 172 2988
L 172 3322
L 1269 3322
L 1269 1388
Q 1269 781 1417 556
Q 1566 331 1947 331
Q 2347 331 2556 625
Q 2766 919 2766 1478
L 2766 2988
L 2266 2988
L 2266 3322
z
" transform="scale(0.015625)"/>
       <path id="DejaVuSerif-2d" d="M 281 1959
L 1881 1959
L 1881 1472
L 281 1472
L 281 1959
z
" transform="scale(0.015625)"/>
       <path id="DejaVuSerif-70" d="M 1313 1825
L 1313 1497
Q 1313 897 1542 583
Q 1772 269 2209 269
Q 2650 269 2876 622
Q 3103 975 3103 1663
Q 3103 2353 2876 2703
Q 2650 3053 2209 3053
Q 1772 3053 1542 2737
Q 1313 2422 1313 1825
z
M 738 2988
L 184 2988
L 184 3322
L 1313 3322
L 1313 2803
Q 1481 3116 1742 3264
Q 2003 3413 2388 3413
Q 3000 3413 3387 2928
Q 3775 2444 3775 1663
Q 3775 881 3387 395
Q 3000 -91 2388 -91
Q 2003 -91 1742 57
Q 1481 206 1313 519
L 1313 -997
L 1856 -997
L 1856 -1331
L 184 -1331
L 184 -997
L 738 -997
L 738 2988
z
" transform="scale(0.015625)"/>
       <path id="DejaVuSerif-63" d="M 3291 997
Q 3169 466 2822 187
Q 2475 -91 1925 -91
Q 1200 -91 759 389
Q 319 869 319 1663
Q 319 2459 759 2936
Q 1200 3413 1925 3413
Q 2241 3413 2553 3339
Q 2866 3266 3181 3116
L 3181 2266
L 2847 2266
Q 2781 2703 2561 2903
Q 2341 3103 1931 3103
Q 1466 3103 1228 2742
Q 991 2381 991 1663
Q 991 944 1227 581
Q 1463 219 1931 219
Q 2303 219 2525 412
Q 2747 606 2828 997
L 3291 997
z
" transform="scale(0.015625)"/>
       <path id="DejaVuSerif-69" d="M 622 4353
Q 622 4497 726 4603
Q 831 4709 978 4709
Q 1122 4709 1226 4603
Q 1331 4497 1331 4353
Q 1331 4206 1228 4103
Q 1125 4000 978 4000
Q 831 4000 726 4103
Q 622 4206 622 4353
z
M 1356 331
L 1900 331
L 1900 0
L 231 0
L 231 331
L 781 331
L 781 2988
L 231 2988
L 231 3322
L 1356 3322
L 1356 331
z
" transform="scale(0.015625)"/>
       <path id="DejaVuSerif-6d" d="M 3316 2675
Q 3481 3041 3739 3227
Q 3997 3413 4341 3413
Q 4863 3413 5119 3089
Q 5375 2766 5375 2113
L 5375 331
L 5894 331
L 5894 0
L 4300 0
L 4300 331
L 4800 331
L 4800 2047
Q 4800 2556 4650 2772
Q 4500 2988 4153 2988
Q 3769 2988 3567 2697
Q 3366 2406 3366 1850
L 3366 331
L 3866 331
L 3866 0
L 2291 0
L 2291 331
L 2791 331
L 2791 2069
Q 2791 2566 2641 2777
Q 2491 2988 2144 2988
Q 1759 2988 1557 2697
Q 1356 2406 1356 1850
L 1356 331
L 1856 331
L 1856 0
L 263 0
L 263 331
L 781 331
L 781 2994
L 231 2994
L 231 3322
L 1356 3322
L 1356 2731
Q 1516 3063 1762 3238
Q 2009 3413 2322 3413
Q 2709 3413 2968 3220
Q 3228 3028 3316 2675
z
" transform="scale(0.015625)"/>
       <path id="DejaVuSerif-6f" d="M 1925 219
Q 2388 219 2623 584
Q 2859 950 2859 1663
Q 2859 2375 2623 2739
Q 2388 3103 1925 3103
Q 1463 3103 1227 2739
Q 991 2375 991 1663
Q 991 950 1228 584
Q 1466 219 1925 219
z
M 1925 -91
Q 1200 -91 759 389
Q 319 869 319 1663
Q 319 2456 758 2934
Q 1197 3413 1925 3413
Q 2653 3413 3092 2934
Q 3531 2456 3531 1663
Q 3531 869 3092 389
Q 2653 -91 1925 -91
z
" transform="scale(0.015625)"/>
       <path id="DejaVuSerif-6c" d="M 1313 331
L 1856 331
L 1856 0
L 184 0
L 184 331
L 738 331
L 738 4531
L 184 4531
L 184 4863
L 1313 4863
L 1313 331
z
" transform="scale(0.015625)"/>
       <path id="DejaVuSerif-66" d="M 2753 4078
L 2450 4078
Q 2447 4313 2317 4434
Q 2188 4556 1941 4556
Q 1619 4556 1487 4379
Q 1356 4203 1356 3750
L 1356 3322
L 2284 3322
L 2284 2988
L 1356 2988
L 1356 331
L 2094 331
L 2094 0
L 231 0
L 231 331
L 781 331
L 781 2988
L 231 2988
L 231 3322
L 781 3322
L 781 3738
Q 781 4294 1070 4578
Q 1359 4863 1919 4863
Q 2128 4863 2337 4825
Q 2547 4788 2753 4709
L 2753 4078
z
" transform="scale(0.015625)"/>
       <path id="DejaVuSerif-61" d="M 2547 1044
L 2547 1747
L 1806 1747
Q 1378 1747 1168 1562
Q 959 1378 959 997
Q 959 650 1171 447
Q 1384 244 1747 244
Q 2106 244 2326 466
Q 2547 688 2547 1044
z
M 3122 2075
L 3122 331
L 3634 331
L 3634 0
L 2547 0
L 2547 359
Q 2356 128 2106 18
Q 1856 -91 1522 -91
Q 969 -91 644 203
Q 319 497 319 997
Q 319 1513 691 1797
Q 1063 2081 1741 2081
L 2547 2081
L 2547 2309
Q 2547 2688 2317 2895
Q 2088 3103 1672 3103
Q 1328 3103 1125 2947
Q 922 2791 872 2484
L 575 2484
L 575 3156
Q 875 3284 1158 3348
Q 1441 3413 1709 3413
Q 2400 3413 2761 3070
Q 3122 2728 3122 2075
z
" transform="scale(0.015625)"/>
       <path id="DejaVuSerif-6e" d="M 263 0
L 263 331
L 781 331
L 781 2988
L 231 2988
L 231 3322
L 1356 3322
L 1356 2731
Q 1516 3069 1770 3241
Q 2025 3413 2363 3413
Q 2913 3413 3172 3097
Q 3431 2781 3431 2113
L 3431 331
L 3944 331
L 3944 0
L 2356 0
L 2356 331
L 2853 331
L 2853 1931
Q 2853 2541 2703 2767
Q 2553 2994 2175 2994
Q 1775 2994 1565 2701
Q 1356 2409 1356 1850
L 1356 331
L 1856 331
L 1856 0
L 263 0
z
" transform="scale(0.015625)"/>
      </defs>
      <use xlink:href="#DejaVuSerif-4f"/>
      <use xlink:href="#DejaVuSerif-62" transform="translate(81.982422 0)"/>
      <use xlink:href="#DejaVuSerif-73" transform="translate(145.996094 0)"/>
      <use xlink:href="#DejaVuSerif-65" transform="translate(197.314453 0)"/>
      <use xlink:href="#DejaVuSerif-72" transform="translate(256.494141 0)"/>
      <use xlink:href="#DejaVuSerif-76" transform="translate(304.296875 0)"/>
      <use xlink:href="#DejaVuSerif-65" transform="translate(360.791016 0)"/>
      <use xlink:href="#DejaVuSerif-64" transform="translate(419.970703 0)"/>
      <use xlink:href="#DejaVuSerif-20" transform="translate(483.984375 0)"/>
      <use xlink:href="#DejaVuSerif-74" transform="translate(515.771484 0)"/>
      <use xlink:href="#DejaVuSerif-72" transform="translate(555.957031 0)"/>
      <use xlink:href="#DejaVuSerif-75" transform="translate(603.759766 0)"/>
      <use xlink:href="#DejaVuSerif-65" transform="translate(668.164062 0)"/>
      <use xlink:href="#DejaVuSerif-2d" transform="translate(727.34375 0)"/>
      <use xlink:href="#DejaVuSerif-73" transform="translate(761.132812 0)"/>
      <use xlink:href="#DejaVuSerif-70" transform="translate(812.451172 0)"/>
      <use xlink:href="#DejaVuSerif-65" transform="translate(876.464844 0)"/>
      <use xlink:href="#DejaVuSerif-63" transform="translate(935.644531 0)"/>
      <use xlink:href="#DejaVuSerif-69" transform="translate(991.650391 0)"/>
      <use xlink:href="#DejaVuSerif-65" transform="translate(1023.632812 0)"/>
      <use xlink:href="#DejaVuSerif-73" transform="translate(1082.8125 0)"/>
      <use xlink:href="#DejaVuSerif-20" transform="translate(1134.130859 0)"/>
      <use xlink:href="#DejaVuSerif-6d" transform="translate(1165.917969 0)"/>
      <use xlink:href="#DejaVuSerif-6f" transform="translate(1260.742188 0)"/>
      <use xlink:href="#DejaVuSerif-6c" transform="translate(1320.947266 0)"/>
      <use xlink:href="#DejaVuSerif-65" transform="translate(1352.929688 0)"/>
      <use xlink:href="#DejaVuSerif-20" transform="translate(1412.109375 0)"/>
      <use xlink:href="#DejaVuSerif-66" transform="translate(1443.896484 0)"/>
      <use xlink:href="#DejaVuSerif-72" transform="translate(1480.908203 0)"/>
      <use xlink:href="#DejaVuSerif-61" transform="translate(1528.710938 0)"/>
      <use xlink:href="#DejaVuSerif-63" transform="translate(1588.330078 0)"/>
      <use xlink:href="#DejaVuSerif-74" transform="translate(1644.335938 0)"/>
      <use xlink:href="#DejaVuSerif-69" transform="translate(1684.521484 0)"/>
      <use xlink:href="#DejaVuSerif-6f" transform="translate(1716.503906 0)"/>
      <use xlink:href="#DejaVuSerif-6e" transform="translate(1776.708984 0)"/>
     </g>
    </g>
   </g>
   <g id="matplotlib.axis_2">
    <g id="ytick_1">
     <g id="line2d_37">
      <path d="M 52.745938 388.259234
L 453.313884 388.259234
" clip-path="url(#p670cdc7625)" style="fill: none; stroke: #b0b0b0; stroke-opacity: 0.22; stroke-width: 0.8; stroke-linecap: square"/>
     </g>
     <g id="line2d_38">
      <defs>
       <path id="mc5eb3276a0" d="M 0 0
L -4 0
" style="stroke: #000000; stroke-width: 0.8"/>
      </defs>
      <g>
       <use xlink:href="#mc5eb3276a0" x="52.745938" y="388.259234" style="stroke: #000000; stroke-width: 0.8"/>
      </g>
     </g>
     <g id="text_6">
      <!-- $\mathdefault{10^{-4}}$ -->
      <g transform="translate(21.845938 392.058453) scale(0.1 -0.1)">
       <use xlink:href="#DejaVuSerif-31" transform="translate(0 0.7125)"/>
       <use xlink:href="#DejaVuSerif-30" transform="translate(63.623047 0.7125)"/>
       <use xlink:href="#DejaVuSerif-2212" transform="translate(128.154453 37.046875) scale(0.7)"/>
       <use xlink:href="#DejaVuSerif-34" transform="translate(186.806797 37.046875) scale(0.7)"/>
      </g>
     </g>
    </g>
    <g id="ytick_2">
     <g id="line2d_39">
      <path d="M 52.745938 272.128373
L 453.313884 272.128373
" clip-path="url(#p670cdc7625)" style="fill: none; stroke: #b0b0b0; stroke-opacity: 0.22; stroke-width: 0.8; stroke-linecap: square"/>
     </g>
     <g id="line2d_40">
      <g>
       <use xlink:href="#mc5eb3276a0" x="52.745938" y="272.128373" style="stroke: #000000; stroke-width: 0.8"/>
      </g>
     </g>
     <g id="text_7">
      <!-- $\mathdefault{10^{-3}}$ -->
      <g transform="translate(21.845938 275.927592) scale(0.1 -0.1)">
       <use xlink:href="#DejaVuSerif-31" transform="translate(0 0.7125)"/>
       <use xlink:href="#DejaVuSerif-30" transform="translate(63.623047 0.7125)"/>
       <use xlink:href="#DejaVuSerif-2212" transform="translate(128.154453 37.046875) scale(0.7)"/>
       <use xlink:href="#DejaVuSerif-33" transform="translate(186.806797 37.046875) scale(0.7)"/>
      </g>
     </g>
    </g>
    <g id="ytick_3">
     <g id="line2d_41">
      <path d="M 52.745938 155.997513
L 453.313884 155.997513
" clip-path="url(#p670cdc7625)" style="fill: none; stroke: #b0b0b0; stroke-opacity: 0.22; stroke-width: 0.8; stroke-linecap: square"/>
     </g>
     <g id="line2d_42">
      <g>
       <use xlink:href="#mc5eb3276a0" x="52.745938" y="155.997513" style="stroke: #000000; stroke-width: 0.8"/>
      </g>
     </g>
     <g id="text_8">
      <!-- $\mathdefault{10^{-2}}$ -->
      <g transform="translate(21.845938 159.796731) scale(0.1 -0.1)">
       <use xlink:href="#DejaVuSerif-31" transform="translate(0 0.7125)"/>
       <use xlink:href="#DejaVuSerif-30" transform="translate(63.623047 0.7125)"/>
       <use xlink:href="#DejaVuSerif-2212" transform="translate(128.154453 37.046875) scale(0.7)"/>
       <use xlink:href="#DejaVuSerif-32" transform="translate(186.806797 37.046875) scale(0.7)"/>
      </g>
     </g>
    </g>
    <g id="ytick_4">
     <g id="line2d_43">
      <path d="M 52.745938 39.866652
L 453.313884 39.866652
" clip-path="url(#p670cdc7625)" style="fill: none; stroke: #b0b0b0; stroke-opacity: 0.22; stroke-width: 0.8; stroke-linecap: square"/>
     </g>
     <g id="line2d_44">
      <g>
       <use xlink:href="#mc5eb3276a0" x="52.745938" y="39.866652" style="stroke: #000000; stroke-width: 0.8"/>
      </g>
     </g>
     <g id="text_9">
      <!-- $\mathdefault{10^{-1}}$ -->
      <g transform="translate(21.845938 43.665871) scale(0.1 -0.1)">
       <use xlink:href="#DejaVuSerif-31" transform="translate(0 0.7125)"/>
       <use xlink:href="#DejaVuSerif-30" transform="translate(63.623047 0.7125)"/>
       <use xlink:href="#DejaVuSerif-2212" transform="translate(128.154453 37.046875) scale(0.7)"/>
       <use xlink:href="#DejaVuSerif-31" transform="translate(186.806797 37.046875) scale(0.7)"/>
      </g>
     </g>
    </g>
    <g id="ytick_5">
     <g id="line2d_45">
      <defs>
       <path id="m2a75089604" d="M 0 0
L -2 0
" style="stroke: #000000; stroke-width: 0.6"/>
      </defs>
      <g>
       <use xlink:href="#m2a75089604" x="52.745938" y="414.02272" style="stroke: #000000; stroke-width: 0.6"/>
      </g>
     </g>
    </g>
    <g id="ytick_6">
     <g id="line2d_46">
      <g>
       <use xlink:href="#m2a75089604" x="52.745938" y="406.248132" style="stroke: #000000; stroke-width: 0.6"/>
      </g>
     </g>
    </g>
    <g id="ytick_7">
     <g id="line2d_47">
      <g>
       <use xlink:href="#m2a75089604" x="52.745938" y="399.513477" style="stroke: #000000; stroke-width: 0.6"/>
      </g>
     </g>
    </g>
    <g id="ytick_8">
     <g id="line2d_48">
      <g>
       <use xlink:href="#m2a75089604" x="52.745938" y="393.573091" style="stroke: #000000; stroke-width: 0.6"/>
      </g>
     </g>
    </g>
    <g id="ytick_9">
     <g id="line2d_49">
      <g>
       <use xlink:href="#m2a75089604" x="52.745938" y="353.300361" style="stroke: #000000; stroke-width: 0.6"/>
      </g>
     </g>
    </g>
    <g id="ytick_10">
     <g id="line2d_50">
      <g>
       <use xlink:href="#m2a75089604" x="52.745938" y="332.850732" style="stroke: #000000; stroke-width: 0.6"/>
      </g>
     </g>
    </g>
    <g id="ytick_11">
     <g id="line2d_51">
      <g>
       <use xlink:href="#m2a75089604" x="52.745938" y="318.341489" style="stroke: #000000; stroke-width: 0.6"/>
      </g>
     </g>
    </g>
    <g id="ytick_12">
     <g id="line2d_52">
      <g>
       <use xlink:href="#m2a75089604" x="52.745938" y="307.087246" style="stroke: #000000; stroke-width: 0.6"/>
      </g>
     </g>
    </g>
    <g id="ytick_13">
     <g id="line2d_53">
      <g>
       <use xlink:href="#m2a75089604" x="52.745938" y="297.891859" style="stroke: #000000; stroke-width: 0.6"/>
      </g>
     </g>
    </g>
    <g id="ytick_14">
     <g id="line2d_54">
      <g>
       <use xlink:href="#m2a75089604" x="52.745938" y="290.117271" style="stroke: #000000; stroke-width: 0.6"/>
      </g>
     </g>
    </g>
    <g id="ytick_15">
     <g id="line2d_55">
      <g>
       <use xlink:href="#m2a75089604" x="52.745938" y="283.382616" style="stroke: #000000; stroke-width: 0.6"/>
      </g>
     </g>
    </g>
    <g id="ytick_16">
     <g id="line2d_56">
      <g>
       <use xlink:href="#m2a75089604" x="52.745938" y="277.44223" style="stroke: #000000; stroke-width: 0.6"/>
      </g>
     </g>
    </g>
    <g id="ytick_17">
     <g id="line2d_57">
      <g>
       <use xlink:href="#m2a75089604" x="52.745938" y="237.169501" style="stroke: #000000; stroke-width: 0.6"/>
      </g>
     </g>
    </g>
    <g id="ytick_18">
     <g id="line2d_58">
      <g>
       <use xlink:href="#m2a75089604" x="52.745938" y="216.719871" style="stroke: #000000; stroke-width: 0.6"/>
      </g>
     </g>
    </g>
    <g id="ytick_19">
     <g id="line2d_59">
      <g>
       <use xlink:href="#m2a75089604" x="52.745938" y="202.210628" style="stroke: #000000; stroke-width: 0.6"/>
      </g>
     </g>
    </g>
    <g id="ytick_20">
     <g id="line2d_60">
      <g>
       <use xlink:href="#m2a75089604" x="52.745938" y="190.956385" style="stroke: #000000; stroke-width: 0.6"/>
      </g>
     </g>
    </g>
    <g id="ytick_21">
     <g id="line2d_61">
      <g>
       <use xlink:href="#m2a75089604" x="52.745938" y="181.760999" style="stroke: #000000; stroke-width: 0.6"/>
      </g>
     </g>
    </g>
    <g id="ytick_22">
     <g id="line2d_62">
      <g>
       <use xlink:href="#m2a75089604" x="52.745938" y="173.98641" style="stroke: #000000; stroke-width: 0.6"/>
      </g>
     </g>
    </g>
    <g id="ytick_23">
     <g id="line2d_63">
      <g>
       <use xlink:href="#m2a75089604" x="52.745938" y="167.251756" style="stroke: #000000; stroke-width: 0.6"/>
      </g>
     </g>
    </g>
    <g id="ytick_24">
     <g id="line2d_64">
      <g>
       <use xlink:href="#m2a75089604" x="52.745938" y="161.311369" style="stroke: #000000; stroke-width: 0.6"/>
      </g>
     </g>
    </g>
    <g id="ytick_25">
     <g id="line2d_65">
      <g>
       <use xlink:href="#m2a75089604" x="52.745938" y="121.03864" style="stroke: #000000; stroke-width: 0.6"/>
      </g>
     </g>
    </g>
    <g id="ytick_26">
     <g id="line2d_66">
      <g>
       <use xlink:href="#m2a75089604" x="52.745938" y="100.589011" style="stroke: #000000; stroke-width: 0.6"/>
      </g>
     </g>
    </g>
    <g id="ytick_27">
     <g id="line2d_67">
      <g>
       <use xlink:href="#m2a75089604" x="52.745938" y="86.079768" style="stroke: #000000; stroke-width: 0.6"/>
      </g>
     </g>
    </g>
    <g id="ytick_28">
     <g id="line2d_68">
      <g>
       <use xlink:href="#m2a75089604" x="52.745938" y="74.825524" style="stroke: #000000; stroke-width: 0.6"/>
      </g>
     </g>
    </g>
    <g id="ytick_29">
     <g id="line2d_69">
      <g>
       <use xlink:href="#m2a75089604" x="52.745938" y="65.630138" style="stroke: #000000; stroke-width: 0.6"/>
      </g>
     </g>
    </g>
    <g id="ytick_30">
     <g id="line2d_70">
      <g>
       <use xlink:href="#m2a75089604" x="52.745938" y="57.85555" style="stroke: #000000; stroke-width: 0.6"/>
      </g>
     </g>
    </g>
    <g id="ytick_31">
     <g id="line2d_71">
      <g>
       <use xlink:href="#m2a75089604" x="52.745938" y="51.120895" style="stroke: #000000; stroke-width: 0.6"/>
      </g>
     </g>
    </g>
    <g id="ytick_32">
     <g id="line2d_72">
      <g>
       <use xlink:href="#m2a75089604" x="52.745938" y="45.180509" style="stroke: #000000; stroke-width: 0.6"/>
      </g>
     </g>
    </g>
    <g id="text_10">
     <!-- Model true-species mole fraction -->
     <g transform="translate(15.558281 315.340672) rotate(-90) scale(0.11 -0.11)">
      <defs>
       <path id="DejaVuSerif-4d" d="M 353 0
L 353 331
L 947 331
L 947 4331
L 319 4331
L 319 4666
L 1678 4666
L 3316 1344
L 4953 4666
L 6228 4666
L 6228 4331
L 5606 4331
L 5606 331
L 6203 331
L 6203 0
L 4378 0
L 4378 331
L 4972 331
L 4972 3938
L 3372 684
L 2931 684
L 1331 3938
L 1331 331
L 1925 331
L 1925 0
L 353 0
z
" transform="scale(0.015625)"/>
      </defs>
      <use xlink:href="#DejaVuSerif-4d"/>
      <use xlink:href="#DejaVuSerif-6f" transform="translate(102.392578 0)"/>
      <use xlink:href="#DejaVuSerif-64" transform="translate(162.597656 0)"/>
      <use xlink:href="#DejaVuSerif-65" transform="translate(226.611328 0)"/>
      <use xlink:href="#DejaVuSerif-6c" transform="translate(285.791016 0)"/>
      <use xlink:href="#DejaVuSerif-20" transform="translate(317.773438 0)"/>
      <use xlink:href="#DejaVuSerif-74" transform="translate(349.560547 0)"/>
      <use xlink:href="#DejaVuSerif-72" transform="translate(389.746094 0)"/>
      <use xlink:href="#DejaVuSerif-75" transform="translate(437.548828 0)"/>
      <use xlink:href="#DejaVuSerif-65" transform="translate(501.953125 0)"/>
      <use xlink:href="#DejaVuSerif-2d" transform="translate(561.132812 0)"/>
      <use xlink:href="#DejaVuSerif-73" transform="translate(594.921875 0)"/>
      <use xlink:href="#DejaVuSerif-70" transform="translate(646.240234 0)"/>
      <use xlink:href="#DejaVuSerif-65" transform="translate(710.253906 0)"/>
      <use xlink:href="#DejaVuSerif-63" transform="translate(769.433594 0)"/>
      <use xlink:href="#DejaVuSerif-69" transform="translate(825.439453 0)"/>
      <use xlink:href="#DejaVuSerif-65" transform="translate(857.421875 0)"/>
      <use xlink:href="#DejaVuSerif-73" transform="translate(916.601562 0)"/>
      <use xlink:href="#DejaVuSerif-20" transform="translate(967.919922 0)"/>
      <use xlink:href="#DejaVuSerif-6d" transform="translate(999.707031 0)"/>
      <use xlink:href="#DejaVuSerif-6f" transform="translate(1094.53125 0)"/>
      <use xlink:href="#DejaVuSerif-6c" transform="translate(1154.736328 0)"/>
      <use xlink:href="#DejaVuSerif-65" transform="translate(1186.71875 0)"/>
      <use xlink:href="#DejaVuSerif-20" transform="translate(1245.898438 0)"/>
      <use xlink:href="#DejaVuSerif-66" transform="translate(1277.685547 0)"/>
      <use xlink:href="#DejaVuSerif-72" transform="translate(1314.697266 0)"/>
      <use xlink:href="#DejaVuSerif-61" transform="translate(1362.5 0)"/>
      <use xlink:href="#DejaVuSerif-63" transform="translate(1422.119141 0)"/>
      <use xlink:href="#DejaVuSerif-74" transform="translate(1478.125 0)"/>
      <use xlink:href="#DejaVuSerif-69" transform="translate(1518.310547 0)"/>
      <use xlink:href="#DejaVuSerif-6f" transform="translate(1550.292969 0)"/>
      <use xlink:href="#DejaVuSerif-6e" transform="translate(1610.498047 0)"/>
     </g>
    </g>
   </g>
   <g id="line2d_73">
    <path d="M 52.745938 419.361969
L 453.313884 27.077969
" clip-path="url(#p670cdc7625)" style="fill: none; stroke-dasharray: 1.5,2.475; stroke-dashoffset: 0; stroke: #000000; stroke-width: 1.5"/>
   </g>
   <g id="patch_3">
    <path d="M 52.745938 419.361969
L 52.745938 27.077969
" style="fill: none; stroke: #000000; stroke-width: 0.8; stroke-linejoin: miter; stroke-linecap: square"/>
   </g>
   <g id="patch_4">
    <path d="M 52.745938 419.361969
L 453.313884 419.361969
" style="fill: none; stroke: #000000; stroke-width: 0.8; stroke-linejoin: miter; stroke-linecap: square"/>
   </g>
   <g id="text_11">
    <!-- Trace-carbonate Born diagnostic parity -->
    <g transform="translate(109.567801 17.077969) scale(0.13 -0.13)">
     <defs>
      <path id="DejaVuSerif-Bold-54" d="M 1159 0
L 1159 378
L 1778 378
L 1778 4238
L 500 4238
L 500 3500
L 72 3500
L 72 4666
L 4697 4666
L 4697 3500
L 4275 3500
L 4275 4238
L 2988 4238
L 2988 378
L 3609 378
L 3609 0
L 1159 0
z
" transform="scale(0.015625)"/>
      <path id="DejaVuSerif-Bold-72" d="M 3438 3359
L 3438 2369
L 3084 2369
Q 3066 2634 2941 2764
Q 2816 2894 2578 2894
Q 2216 2894 2006 2575
Q 1797 2256 1797 1691
L 1797 378
L 2400 378
L 2400 0
L 219 0
L 219 378
L 691 378
L 691 2944
L 184 2944
L 184 3322
L 1797 3322
L 1797 2731
Q 1959 3078 2226 3245
Q 2494 3413 2881 3413
Q 2978 3413 3117 3398
Q 3256 3384 3438 3359
z
" transform="scale(0.015625)"/>
      <path id="DejaVuSerif-Bold-61" d="M 3525 2041
L 3525 378
L 4000 378
L 4000 0
L 2419 0
L 2419 422
Q 2200 159 1931 34
Q 1663 -91 1319 -91
Q 809 -91 536 182
Q 263 456 263 966
Q 263 1525 655 1803
Q 1047 2081 1838 2081
L 2419 2081
L 2419 2278
Q 2419 2681 2228 2873
Q 2038 3066 1638 3066
Q 1306 3066 1126 2930
Q 947 2794 872 2484
L 519 2484
L 519 3200
Q 816 3306 1134 3359
Q 1453 3413 1806 3413
Q 2697 3413 3111 3081
Q 3525 2750 3525 2041
z
M 2419 1044
L 2419 1709
L 2003 1709
Q 1694 1709 1528 1540
Q 1363 1372 1363 1056
Q 1363 741 1483 584
Q 1603 428 1850 428
Q 2106 428 2262 597
Q 2419 766 2419 1044
z
" transform="scale(0.015625)"/>
      <path id="DejaVuSerif-Bold-63" d="M 3609 1038
Q 3491 469 3123 189
Q 2756 -91 2125 -91
Q 1238 -91 750 368
Q 263 828 263 1663
Q 263 2488 744 2950
Q 1225 3413 2081 3413
Q 2428 3413 2781 3347
Q 3134 3281 3500 3150
L 3500 2228
L 3150 2228
Q 3100 2650 2903 2854
Q 2706 3059 2350 3059
Q 1888 3059 1692 2746
Q 1497 2434 1497 1663
Q 1497 909 1687 586
Q 1878 263 2309 263
Q 2644 263 2845 463
Q 3047 663 3091 1038
L 3609 1038
z
" transform="scale(0.015625)"/>
      <path id="DejaVuSerif-Bold-65" d="M 2566 1875
Q 2566 2531 2444 2795
Q 2322 3059 2028 3059
Q 1744 3059 1620 2800
Q 1497 2541 1497 1931
L 1497 1875
L 2566 1875
z
M 3781 1503
L 1497 1503
L 1497 1478
Q 1497 834 1690 548
Q 1884 263 2316 263
Q 2675 263 2897 453
Q 3119 644 3181 1006
L 3700 1006
Q 3566 441 3166 175
Q 2766 -91 2047 -91
Q 1184 -91 723 364
Q 263 819 263 1663
Q 263 2488 734 2950
Q 1206 3413 2047 3413
Q 2872 3413 3312 2927
Q 3753 2441 3781 1503
z
" transform="scale(0.015625)"/>
      <path id="DejaVuSerif-Bold-2d" d="M 347 2138
L 2309 2138
L 2309 1294
L 347 1294
L 347 2138
z
" transform="scale(0.015625)"/>
      <path id="DejaVuSerif-Bold-62" d="M 622 378
L 622 4488
L 147 4488
L 147 4863
L 1728 4863
L 1728 2900
Q 1869 3159 2106 3286
Q 2344 3413 2694 3413
Q 3403 3413 3811 2945
Q 4219 2478 4219 1663
Q 4219 847 3811 378
Q 3403 -91 2694 -91
Q 2344 -91 2106 36
Q 1869 163 1728 422
L 1728 0
L 147 0
L 147 378
L 622 378
z
M 1728 1497
Q 1728 916 1876 656
Q 2025 397 2356 397
Q 2697 397 2836 672
Q 2975 947 2975 1663
Q 2975 2378 2836 2651
Q 2697 2925 2356 2925
Q 2025 2925 1876 2665
Q 1728 2406 1728 1825
L 1728 1497
z
" transform="scale(0.015625)"/>
      <path id="DejaVuSerif-Bold-6f" d="M 2138 263
Q 2488 263 2630 563
Q 2772 863 2772 1663
Q 2772 2463 2631 2761
Q 2491 3059 2138 3059
Q 1784 3059 1640 2757
Q 1497 2456 1497 1663
Q 1497 869 1640 566
Q 1784 263 2138 263
z
M 2138 -91
Q 1259 -91 761 376
Q 263 844 263 1663
Q 263 2484 761 2948
Q 1259 3413 2138 3413
Q 3019 3413 3516 2948
Q 4013 2484 4013 1663
Q 4013 844 3514 376
Q 3016 -91 2138 -91
z
" transform="scale(0.015625)"/>
      <path id="DejaVuSerif-Bold-6e" d="M 219 0
L 219 378
L 691 378
L 691 2944
L 219 2944
L 219 3322
L 1797 3322
L 1797 2853
Q 1997 3150 2253 3281
Q 2509 3413 2900 3413
Q 3459 3413 3745 3083
Q 4031 2753 4031 2113
L 4031 378
L 4506 378
L 4506 0
L 2522 0
L 2522 378
L 2925 378
L 2925 2144
Q 2925 2566 2817 2730
Q 2709 2894 2444 2894
Q 2109 2894 1953 2648
Q 1797 2403 1797 1869
L 1797 378
L 2203 378
L 2203 0
L 219 0
z
" transform="scale(0.015625)"/>
      <path id="DejaVuSerif-Bold-74" d="M 634 2944
L 153 2944
L 153 3322
L 634 3322
L 634 4353
L 1741 4353
L 1741 3322
L 2663 3322
L 2663 2944
L 1741 2944
L 1741 909
Q 1741 475 1809 369
Q 1878 263 2059 263
Q 2259 263 2356 397
Q 2453 531 2459 813
L 2925 813
Q 2897 313 2651 111
Q 2406 -91 1806 -91
Q 1122 -91 878 123
Q 634 338 634 909
L 634 2944
z
" transform="scale(0.015625)"/>
      <path id="DejaVuSerif-Bold-20" transform="scale(0.015625)"/>
      <path id="DejaVuSerif-Bold-42" d="M 300 0
L 300 378
L 897 378
L 897 4288
L 300 4288
L 300 4666
L 3066 4666
Q 3919 4666 4347 4378
Q 4775 4091 4775 3513
Q 4775 3097 4479 2853
Q 4184 2609 3603 2547
Q 4306 2481 4681 2172
Q 5056 1863 5056 1350
Q 5056 656 4532 328
Q 4009 0 2894 0
L 300 0
z
M 2100 2719
L 2509 2719
Q 3047 2719 3306 2914
Q 3566 3109 3566 3513
Q 3566 3919 3314 4103
Q 3063 4288 2509 4288
L 2100 4288
L 2100 2719
z
M 2100 378
L 2547 378
Q 3144 378 3431 615
Q 3719 853 3719 1350
Q 3719 1850 3428 2097
Q 3138 2344 2547 2344
L 2100 2344
L 2100 378
z
" transform="scale(0.015625)"/>
      <path id="DejaVuSerif-Bold-64" d="M 2747 1497
L 2747 1825
Q 2747 2406 2597 2665
Q 2447 2925 2119 2925
Q 1775 2925 1636 2651
Q 1497 2378 1497 1663
Q 1497 947 1637 672
Q 1778 397 2119 397
Q 2447 397 2597 656
Q 2747 916 2747 1497
z
M 3853 378
L 4325 378
L 4325 0
L 2747 0
L 2747 422
Q 2606 163 2367 36
Q 2128 -91 1778 -91
Q 1072 -91 667 378
Q 263 847 263 1663
Q 263 2481 667 2947
Q 1072 3413 1778 3413
Q 2128 3413 2367 3286
Q 2606 3159 2747 2900
L 2747 4488
L 2272 4488
L 2272 4863
L 3853 4863
L 3853 378
z
" transform="scale(0.015625)"/>
      <path id="DejaVuSerif-Bold-69" d="M 588 4263
Q 588 4516 763 4689
Q 938 4863 1191 4863
Q 1438 4863 1611 4689
Q 1784 4516 1784 4263
Q 1784 4016 1611 3842
Q 1438 3669 1191 3669
Q 938 3669 763 3841
Q 588 4013 588 4263
z
M 1797 378
L 2272 378
L 2272 0
L 219 0
L 219 378
L 691 378
L 691 2944
L 219 2944
L 219 3322
L 1797 3322
L 1797 378
z
" transform="scale(0.015625)"/>
      <path id="DejaVuSerif-Bold-67" d="M 3853 2944
L 3853 44
Q 3853 -656 3354 -1039
Q 2856 -1422 1947 -1422
Q 1616 -1422 1275 -1370
Q 934 -1319 575 -1216
L 575 -422
L 928 -422
Q 975 -750 1192 -909
Q 1409 -1069 1813 -1069
Q 2325 -1069 2536 -823
Q 2747 -578 2747 44
L 2747 422
Q 2606 163 2367 36
Q 2128 -91 1778 -91
Q 1072 -91 667 378
Q 263 847 263 1663
Q 263 2481 667 2947
Q 1072 3413 1778 3413
Q 2128 3413 2367 3286
Q 2606 3159 2747 2900
L 2747 3322
L 4325 3322
L 4325 2944
L 3853 2944
z
M 2747 1825
Q 2747 2406 2597 2665
Q 2447 2925 2119 2925
Q 1775 2925 1636 2651
Q 1497 2378 1497 1663
Q 1497 947 1637 672
Q 1778 397 2119 397
Q 2447 397 2597 656
Q 2747 916 2747 1497
L 2747 1825
z
" transform="scale(0.015625)"/>
      <path id="DejaVuSerif-Bold-73" d="M 300 97
L 300 1025
L 653 1025
Q 697 653 931 458
Q 1166 263 1569 263
Q 1906 263 2086 380
Q 2266 497 2266 716
Q 2266 916 2152 1025
Q 2038 1134 1709 1216
L 1253 1331
Q 738 1459 506 1698
Q 275 1938 275 2344
Q 275 2884 650 3148
Q 1025 3413 1806 3413
Q 2100 3413 2433 3364
Q 2766 3316 3169 3213
L 3169 2375
L 2816 2375
Q 2788 2716 2573 2887
Q 2359 3059 1959 3059
Q 1622 3059 1448 2951
Q 1275 2844 1275 2638
Q 1275 2469 1375 2372
Q 1475 2275 1734 2209
L 2188 2094
Q 2841 1928 3091 1684
Q 3341 1441 3341 1006
Q 3341 444 2939 176
Q 2538 -91 1691 -91
Q 1381 -91 1034 -44
Q 688 3 300 97
z
" transform="scale(0.015625)"/>
      <path id="DejaVuSerif-Bold-70" d="M 1728 1825
L 1728 1497
Q 1728 916 1876 656
Q 2025 397 2356 397
Q 2697 397 2836 672
Q 2975 947 2975 1663
Q 2975 2378 2836 2651
Q 2697 2925 2356 2925
Q 2025 2925 1876 2665
Q 1728 2406 1728 1825
z
M 622 2944
L 147 2944
L 147 3322
L 1728 3322
L 1728 2900
Q 1869 3159 2106 3286
Q 2344 3413 2694 3413
Q 3403 3413 3811 2945
Q 4219 2478 4219 1663
Q 4219 847 3811 378
Q 3403 -91 2694 -91
Q 2344 -91 2106 36
Q 1869 163 1728 422
L 1728 -953
L 2241 -953
L 2241 -1331
L 147 -1331
L 147 -953
L 622 -953
L 622 2944
z
" transform="scale(0.015625)"/>
      <path id="DejaVuSerif-Bold-79" d="M 1997 -750
Q 1847 -1116 1634 -1269
Q 1422 -1422 1063 -1422
Q 909 -1422 721 -1387
Q 534 -1353 313 -1288
L 313 -594
L 666 -597
Q 675 -838 779 -953
Q 884 -1069 1094 -1069
Q 1297 -1069 1422 -958
Q 1547 -847 1672 -538
L 1722 -422
L 275 2944
L -84 2944
L -84 3322
L 1831 3322
L 1831 2944
L 1434 2944
L 2278 978
L 3066 2944
L 2625 2944
L 2625 3322
L 3872 3322
L 3872 2944
L 3469 2944
L 1997 -750
z
" transform="scale(0.015625)"/>
     </defs>
     <use xlink:href="#DejaVuSerif-Bold-54"/>
     <use xlink:href="#DejaVuSerif-Bold-72" transform="translate(67.164062 0)"/>
     <use xlink:href="#DejaVuSerif-Bold-61" transform="translate(119.849609 0)"/>
     <use xlink:href="#DejaVuSerif-Bold-63" transform="translate(184.644531 0)"/>
     <use xlink:href="#DejaVuSerif-Bold-65" transform="translate(245.533203 0)"/>
     <use xlink:href="#DejaVuSerif-Bold-2d" transform="translate(309.15625 0)"/>
     <use xlink:href="#DejaVuSerif-Bold-63" transform="translate(350.660156 0)"/>
     <use xlink:href="#DejaVuSerif-Bold-61" transform="translate(411.548828 0)"/>
     <use xlink:href="#DejaVuSerif-Bold-72" transform="translate(476.34375 0)"/>
     <use xlink:href="#DejaVuSerif-Bold-62" transform="translate(529.029297 0)"/>
     <use xlink:href="#DejaVuSerif-Bold-6f" transform="translate(598.951172 0)"/>
     <use xlink:href="#DejaVuSerif-Bold-6e" transform="translate(665.650391 0)"/>
     <use xlink:href="#DejaVuSerif-Bold-61" transform="translate(738.355469 0)"/>
     <use xlink:href="#DejaVuSerif-Bold-74" transform="translate(803.150391 0)"/>
     <use xlink:href="#DejaVuSerif-Bold-65" transform="translate(849.341797 0)"/>
     <use xlink:href="#DejaVuSerif-Bold-20" transform="translate(912.964844 0)"/>
     <use xlink:href="#DejaVuSerif-Bold-42" transform="translate(947.779297 0)"/>
     <use xlink:href="#DejaVuSerif-Bold-6f" transform="translate(1032.300781 0)"/>
     <use xlink:href="#DejaVuSerif-Bold-72" transform="translate(1099 0)"/>
     <use xlink:href="#DejaVuSerif-Bold-6e" transform="translate(1151.685547 0)"/>
     <use xlink:href="#DejaVuSerif-Bold-20" transform="translate(1224.390625 0)"/>
     <use xlink:href="#DejaVuSerif-Bold-64" transform="translate(1259.205078 0)"/>
     <use xlink:href="#DejaVuSerif-Bold-69" transform="translate(1329.126953 0)"/>
     <use xlink:href="#DejaVuSerif-Bold-61" transform="translate(1367.115234 0)"/>
     <use xlink:href="#DejaVuSerif-Bold-67" transform="translate(1431.910156 0)"/>
     <use xlink:href="#DejaVuSerif-Bold-6e" transform="translate(1501.832031 0)"/>
     <use xlink:href="#DejaVuSerif-Bold-6f" transform="translate(1574.537109 0)"/>
     <use xlink:href="#DejaVuSerif-Bold-73" transform="translate(1641.236328 0)"/>
     <use xlink:href="#DejaVuSerif-Bold-74" transform="translate(1697.535156 0)"/>
     <use xlink:href="#DejaVuSerif-Bold-69" transform="translate(1743.726562 0)"/>
     <use xlink:href="#DejaVuSerif-Bold-63" transform="translate(1781.714844 0)"/>
     <use xlink:href="#DejaVuSerif-Bold-20" transform="translate(1842.603516 0)"/>
     <use xlink:href="#DejaVuSerif-Bold-70" transform="translate(1877.417969 0)"/>
     <use xlink:href="#DejaVuSerif-Bold-61" transform="translate(1947.339844 0)"/>
     <use xlink:href="#DejaVuSerif-Bold-72" transform="translate(2012.134766 0)"/>
     <use xlink:href="#DejaVuSerif-Bold-69" transform="translate(2064.820312 0)"/>
     <use xlink:href="#DejaVuSerif-Bold-74" transform="translate(2102.808594 0)"/>
     <use xlink:href="#DejaVuSerif-Bold-79" transform="translate(2149 0)"/>
    </g>
   </g>
   <g id="legend_1">
    <g id="text_12">
     <!-- Species -->
     <g transform="translate(65.276563 41.876406) scale(0.1 -0.1)">
      <defs>
       <path id="DejaVuSerif-53" d="M 594 225
L 594 1288
L 953 1284
Q 969 753 1261 498
Q 1553 244 2150 244
Q 2706 244 2998 464
Q 3291 684 3291 1106
Q 3291 1444 3114 1625
Q 2938 1806 2369 1978
L 1753 2163
Q 1084 2366 811 2669
Q 538 2972 538 3500
Q 538 4094 959 4422
Q 1381 4750 2144 4750
Q 2469 4750 2856 4679
Q 3244 4609 3681 4475
L 3681 3481
L 3328 3481
Q 3275 3975 2998 4195
Q 2722 4416 2156 4416
Q 1663 4416 1405 4214
Q 1147 4013 1147 3628
Q 1147 3294 1340 3103
Q 1534 2913 2163 2725
L 2741 2553
Q 3375 2363 3645 2067
Q 3916 1772 3916 1275
Q 3916 597 3481 253
Q 3047 -91 2188 -91
Q 1803 -91 1404 -12
Q 1006 66 594 225
z
" transform="scale(0.015625)"/>
      </defs>
      <use xlink:href="#DejaVuSerif-53"/>
      <use xlink:href="#DejaVuSerif-70" transform="translate(68.505859 0)"/>
      <use xlink:href="#DejaVuSerif-65" transform="translate(132.519531 0)"/>
      <use xlink:href="#DejaVuSerif-63" transform="translate(191.699219 0)"/>
      <use xlink:href="#DejaVuSerif-69" transform="translate(247.705078 0)"/>
      <use xlink:href="#DejaVuSerif-65" transform="translate(279.6875 0)"/>
      <use xlink:href="#DejaVuSerif-73" transform="translate(338.867188 0)"/>
     </g>
    </g>
    <g id="PathCollection_3">
     <g>
      <use xlink:href="#m2bb59202ac" x="67.945938" y="53.136094" style="fill: #9467bd; fill-opacity: 0.8; stroke: #000000; stroke-opacity: 0.8; stroke-width: 0.35"/>
     </g>
    </g>
    <g id="text_13">
     <!-- $CO_3^{2-}$ -->
     <g transform="translate(82.345938 55.236094) scale(0.08 -0.08)">
      <defs>
       <path id="DejaVuSerif-Italic-43" d="M 4300 1234
Q 3966 581 3414 245
Q 2863 -91 2119 -91
Q 1663 -91 1303 65
Q 944 222 700 525
Q 419 875 334 1320
Q 250 1766 359 2328
Q 572 3416 1330 4083
Q 2088 4750 3116 4750
Q 3497 4750 3908 4650
Q 4319 4550 4775 4347
L 4569 3272
L 4216 3272
Q 4213 3859 3919 4137
Q 3625 4416 2997 4416
Q 2250 4416 1762 3886
Q 1275 3356 1075 2328
Q 875 1303 1156 773
Q 1438 244 2184 244
Q 2706 244 3092 492
Q 3478 741 3725 1234
L 4300 1234
z
" transform="scale(0.015625)"/>
       <path id="DejaVuSerif-Italic-4f" d="M 2219 244
Q 2984 244 3478 770
Q 3972 1297 4172 2328
Q 4372 3363 4084 3889
Q 3797 4416 3031 4416
Q 2263 4416 1769 3889
Q 1275 3363 1075 2328
Q 875 1297 1162 770
Q 1450 244 2219 244
z
M 2153 -91
Q 1678 -91 1311 65
Q 944 222 700 525
Q 419 875 334 1319
Q 250 1763 359 2328
Q 469 2894 725 3339
Q 981 3784 1400 4134
Q 1766 4441 2191 4595
Q 2616 4750 3097 4750
Q 4113 4750 4608 4084
Q 5103 3419 4891 2328
Q 4781 1769 4522 1320
Q 4263 872 3847 525
Q 3481 219 3056 64
Q 2631 -91 2153 -91
z
" transform="scale(0.015625)"/>
      </defs>
      <use xlink:href="#DejaVuSerif-Italic-43" transform="translate(0 0.546875)"/>
      <use xlink:href="#DejaVuSerif-Italic-4f" transform="translate(76.513672 0.546875)"/>
      <use xlink:href="#DejaVuSerif-32" transform="translate(165.858854 39.046875) scale(0.7)"/>
      <use xlink:href="#DejaVuSerif-2212" transform="translate(223.670378 39.046875) scale(0.7)"/>
      <use xlink:href="#DejaVuSerif-33" transform="translate(158.496094 -25.40625) scale(0.7)"/>
     </g>
    </g>
    <g id="PathCollection_4">
     <g>
      <use xlink:href="#m8fc061ab44" x="67.945938" y="65.374844" style="fill: #17becf; fill-opacity: 0.8; stroke: #000000; stroke-opacity: 0.8; stroke-width: 0.35"/>
     </g>
    </g>
    <g id="text_14">
     <!-- $HCO_3^-$ -->
     <g transform="translate(82.345938 67.474844) scale(0.08 -0.08)">
      <defs>
       <path id="DejaVuSerif-Italic-48" d="M -97 0
L -34 331
L 559 331
L 1338 4331
L 744 4331
L 809 4666
L 2631 4666
L 2566 4331
L 1972 4331
L 1659 2719
L 4078 2719
L 4391 4331
L 3797 4331
L 3863 4666
L 5684 4666
L 5619 4331
L 5025 4331
L 4247 331
L 4841 331
L 4778 0
L 2956 0
L 3019 331
L 3616 331
L 4003 2338
L 1584 2338
L 1194 331
L 1788 331
L 1725 0
L -97 0
z
" transform="scale(0.015625)"/>
      </defs>
      <use xlink:href="#DejaVuSerif-Italic-48" transform="translate(0 0.78125)"/>
      <use xlink:href="#DejaVuSerif-Italic-43" transform="translate(87.207031 0.78125)"/>
      <use xlink:href="#DejaVuSerif-Italic-4f" transform="translate(163.720703 0.78125)"/>
      <use xlink:href="#DejaVuSerif-2212" transform="translate(266.341276 39.28125) scale(0.7)"/>
      <use xlink:href="#DejaVuSerif-33" transform="translate(245.703125 -25.171875) scale(0.7)"/>
     </g>
    </g>
    <g id="line2d_74">
     <path d="M 59.945938 76.913594
L 67.945938 76.913594
L 75.945938 76.913594
" style="fill: none; stroke-dasharray: 1.5,2.475; stroke-dashoffset: 0; stroke: #000000; stroke-width: 1.5"/>
    </g>
    <g id="text_15">
     <!-- 1:1 -->
     <g transform="translate(82.345938 79.713594) scale(0.08 -0.08)">
      <defs>
       <path id="DejaVuSerif-3a" d="M 666 325
Q 666 500 786 622
Q 906 744 1081 744
Q 1256 744 1376 622
Q 1497 500 1497 325
Q 1497 150 1378 29
Q 1259 -91 1081 -91
Q 903 -91 784 29
Q 666 150 666 325
z
M 666 2363
Q 666 2538 786 2658
Q 906 2778 1081 2778
Q 1259 2778 1378 2659
Q 1497 2541 1497 2363
Q 1497 2184 1378 2065
Q 1259 1947 1081 1947
Q 906 1947 786 2067
Q 666 2188 666 2363
z
" transform="scale(0.015625)"/>
      </defs>
      <use xlink:href="#DejaVuSerif-31"/>
      <use xlink:href="#DejaVuSerif-3a" transform="translate(63.623047 0)"/>
      <use xlink:href="#DejaVuSerif-31" transform="translate(97.314453 0)"/>
     </g>
    </g>
   </g>
  </g>
 </g>
 <defs>
  <clipPath id="p670cdc7625">
   <rect x="52.745938" y="27.077969" width="400.567946" height="392.284"/>
  </clipPath>
 </defs>
</svg>
