<?xml version="1.0" encoding="utf-8" standalone="no"?>
<!DOCTYPE svg PUBLIC "-//W3C//DTD SVG 1.1//EN"
  "http://www.w3.org/Graphics/SVG/1.1/DTD/svg11.dtd">
<svg xmlns:xlink="http://www.w3.org/1999/xlink" width="674.172812pt" height="422.126094pt" viewBox="0 0 674.172812 422.126094" xmlns="http://www.w3.org/2000/svg" version="1.1">
 <metadata>
  <rdf:RDF xmlns:dc="http://purl.org/dc/elements/1.1/" xmlns:cc="http://creativecommons.org/ns#" xmlns:rdf="http://www.w3.org/1999/02/22-rdf-syntax-ns#">
   <cc:Work>
    <dc:type rdf:resource="http://purl.org/dc/dcmitype/StillImage"/>
    <dc:format>image/svg+xml</dc:format>
    <dc:creator>
     <cc:Agent>
      <dc:title>Matplotlib v3.10.9, https://matplotlib.org/</dc:title>
     </cc:Agent>
    </dc:creator>
   </cc:Work>
  </rdf:RDF>
 </metadata>
 <defs>
  <style type="text/css">*{stroke-linejoin: round; stroke-linecap: butt}</style>
 </defs>
 <g id="figure_1">
  <g id="patch_1">
   <path d="M 0 422.126094
L 674.172812 422.126094
L 674.172812 0
L 0 0
z
" style="fill: #ffffff"/>
  </g>
  <g id="axes_1">
   <g id="patch_2">
    <path d="M 53.872813 382.857969
L 666.972812 382.857969
L 666.972812 27.077969
L 53.872813 27.077969
z
" style="fill: #ffffff"/>
   </g>
   <g id="PathCollection_1">
    <defs>
     <path id="md65b88892e" d="M -3 3
L 3 3
L 3 -3
L -3 -3
z
" style="stroke: #1f77b4; stroke-opacity: 0.7"/>
    </defs>
    <g clip-path="url(#p4b4b984b73)">
     <use xlink:href="#md65b88892e" x="161.947318" y="327.317184" style="fill: #1f77b4; fill-opacity: 0.7; stroke: #1f77b4; stroke-opacity: 0.7"/>
     <use xlink:href="#md65b88892e" x="246.486263" y="310.05268" style="fill: #1f77b4; fill-opacity: 0.7; stroke: #1f77b4; stroke-opacity: 0.7"/>
     <use xlink:href="#md65b88892e" x="282.252739" y="298.974571" style="fill: #1f77b4; fill-opacity: 0.7; stroke: #1f77b4; stroke-opacity: 0.7"/>
     <use xlink:href="#md65b88892e" x="352.972818" y="244.872047" style="fill: #1f77b4; fill-opacity: 0.7; stroke: #1f77b4; stroke-opacity: 0.7"/>
     <use xlink:href="#md65b88892e" x="365.978809" y="243.050718" style="fill: #1f77b4; fill-opacity: 0.7; stroke: #1f77b4; stroke-opacity: 0.7"/>
     <use xlink:href="#md65b88892e" x="404.996784" y="214.337455" style="fill: #1f77b4; fill-opacity: 0.7; stroke: #1f77b4; stroke-opacity: 0.7"/>
     <use xlink:href="#md65b88892e" x="418.002775" y="212.707939" style="fill: #1f77b4; fill-opacity: 0.7; stroke: #1f77b4; stroke-opacity: 0.7"/>
     <use xlink:href="#md65b88892e" x="421.254273" y="210.037087" style="fill: #1f77b4; fill-opacity: 0.7; stroke: #1f77b4; stroke-opacity: 0.7"/>
     <use xlink:href="#md65b88892e" x="431.008767" y="196.309727" style="fill: #1f77b4; fill-opacity: 0.7; stroke: #1f77b4; stroke-opacity: 0.7"/>
     <use xlink:href="#md65b88892e" x="442.389009" y="188.470714" style="fill: #1f77b4; fill-opacity: 0.7; stroke: #1f77b4; stroke-opacity: 0.7"/>
     <use xlink:href="#md65b88892e" x="456.207875" y="181.214077" style="fill: #1f77b4; fill-opacity: 0.7; stroke: #1f77b4; stroke-opacity: 0.7"/>
     <use xlink:href="#md65b88892e" x="465.962369" y="177.530452" style="fill: #1f77b4; fill-opacity: 0.7; stroke: #1f77b4; stroke-opacity: 0.7"/>
     <use xlink:href="#md65b88892e" x="466.775243" y="174.342449" style="fill: #1f77b4; fill-opacity: 0.7; stroke: #1f77b4; stroke-opacity: 0.7"/>
     <use xlink:href="#md65b88892e" x="473.278239" y="162.844926" style="fill: #1f77b4; fill-opacity: 0.7; stroke: #1f77b4; stroke-opacity: 0.7"/>
     <use xlink:href="#md65b88892e" x="476.529737" y="161.804147" style="fill: #1f77b4; fill-opacity: 0.7; stroke: #1f77b4; stroke-opacity: 0.7"/>
     <use xlink:href="#md65b88892e" x="498.477348" y="138.78094" style="fill: #1f77b4; fill-opacity: 0.7; stroke: #1f77b4; stroke-opacity: 0.7"/>
     <use xlink:href="#md65b88892e" x="504.980343" y="135.115782" style="fill: #1f77b4; fill-opacity: 0.7; stroke: #1f77b4; stroke-opacity: 0.7"/>
     <use xlink:href="#md65b88892e" x="122.116469" y="344.500267" style="fill: #1f77b4; fill-opacity: 0.7; stroke: #1f77b4; stroke-opacity: 0.7"/>
     <use xlink:href="#md65b88892e" x="164.385941" y="318.28494" style="fill: #1f77b4; fill-opacity: 0.7; stroke: #1f77b4; stroke-opacity: 0.7"/>
     <use xlink:href="#md65b88892e" x="210.719786" y="300.22211" style="fill: #1f77b4; fill-opacity: 0.7; stroke: #1f77b4; stroke-opacity: 0.7"/>
     <use xlink:href="#md65b88892e" x="277.375492" y="270.945744" style="fill: #1f77b4; fill-opacity: 0.7; stroke: #1f77b4; stroke-opacity: 0.7"/>
     <use xlink:href="#md65b88892e" x="325.335086" y="248.766255" style="fill: #1f77b4; fill-opacity: 0.7; stroke: #1f77b4; stroke-opacity: 0.7"/>
     <use xlink:href="#md65b88892e" x="371.668931" y="219.804836" style="fill: #1f77b4; fill-opacity: 0.7; stroke: #1f77b4; stroke-opacity: 0.7"/>
     <use xlink:href="#md65b88892e" x="398.493788" y="202.428331" style="fill: #1f77b4; fill-opacity: 0.7; stroke: #1f77b4; stroke-opacity: 0.7"/>
     <use xlink:href="#md65b88892e" x="426.944395" y="190.44468" style="fill: #1f77b4; fill-opacity: 0.7; stroke: #1f77b4; stroke-opacity: 0.7"/>
     <use xlink:href="#md65b88892e" x="478.155486" y="148.171878" style="fill: #1f77b4; fill-opacity: 0.7; stroke: #1f77b4; stroke-opacity: 0.7"/>
     <use xlink:href="#md65b88892e" x="92.852988" y="366.686151" style="fill: #1f77b4; fill-opacity: 0.7; stroke: #1f77b4; stroke-opacity: 0.7"/>
     <use xlink:href="#md65b88892e" x="111.549101" y="347.004889" style="fill: #1f77b4; fill-opacity: 0.7; stroke: #1f77b4; stroke-opacity: 0.7"/>
     <use xlink:href="#md65b88892e" x="139.999707" y="318.719144" style="fill: #1f77b4; fill-opacity: 0.7; stroke: #1f77b4; stroke-opacity: 0.7"/>
     <use xlink:href="#md65b88892e" x="178.204807" y="297.269997" style="fill: #1f77b4; fill-opacity: 0.7; stroke: #1f77b4; stroke-opacity: 0.7"/>
     <use xlink:href="#md65b88892e" x="205.029665" y="286.968357" style="fill: #1f77b4; fill-opacity: 0.7; stroke: #1f77b4; stroke-opacity: 0.7"/>
     <use xlink:href="#md65b88892e" x="254.615007" y="267.59024" style="fill: #1f77b4; fill-opacity: 0.7; stroke: #1f77b4; stroke-opacity: 0.7"/>
     <use xlink:href="#md65b88892e" x="299.323103" y="246.94368" style="fill: #1f77b4; fill-opacity: 0.7; stroke: #1f77b4; stroke-opacity: 0.7"/>
     <use xlink:href="#md65b88892e" x="361.101563" y="219.676172" style="fill: #1f77b4; fill-opacity: 0.7; stroke: #1f77b4; stroke-opacity: 0.7"/>
     <use xlink:href="#md65b88892e" x="402.558161" y="195.430364" style="fill: #1f77b4; fill-opacity: 0.7; stroke: #1f77b4; stroke-opacity: 0.7"/>
     <use xlink:href="#md65b88892e" x="404.183909" y="189.902846" style="fill: #1f77b4; fill-opacity: 0.7; stroke: #1f77b4; stroke-opacity: 0.7"/>
    </g>
   </g>
   <g id="PathCollection_2">
    <defs>
     <path id="m4de2517ff4" d="M 0 3
C 0.795609 3 1.55874 2.683901 2.12132 2.12132
C 2.683901 1.55874 3 0.795609 3 0
C 3 -0.795609 2.683901 -1.55874 2.12132 -2.12132
C 1.55874 -2.683901 0.795609 -3 0 -3
C -0.795609 -3 -1.55874 -2.683901 -2.12132 -2.12132
C -2.683901 -1.55874 -3 -0.795609 -3 0
C -3 0.795609 -2.683901 1.55874 -2.12132 2.12132
C -1.55874 2.683901 -0.795609 3 0 3
z
" style="stroke: #ff7f0e; stroke-opacity: 0.7"/>
    </defs>
    <g clip-path="url(#p4b4b984b73)">
     <use xlink:href="#m4de2517ff4" x="203.403916" y="329.669558" style="fill: #ff7f0e; fill-opacity: 0.7; stroke: #ff7f0e; stroke-opacity: 0.7"/>
     <use xlink:href="#m4de2517ff4" x="211.532661" y="325.946504" style="fill: #ff7f0e; fill-opacity: 0.7; stroke: #ff7f0e; stroke-opacity: 0.7"/>
     <use xlink:href="#m4de2517ff4" x="217.222782" y="322.103264" style="fill: #ff7f0e; fill-opacity: 0.7; stroke: #ff7f0e; stroke-opacity: 0.7"/>
     <use xlink:href="#m4de2517ff4" x="234.293146" y="315.447165" style="fill: #ff7f0e; fill-opacity: 0.7; stroke: #ff7f0e; stroke-opacity: 0.7"/>
     <use xlink:href="#m4de2517ff4" x="236.731769" y="311.355782" style="fill: #ff7f0e; fill-opacity: 0.7; stroke: #ff7f0e; stroke-opacity: 0.7"/>
     <use xlink:href="#m4de2517ff4" x="267.620999" y="289.908562" style="fill: #ff7f0e; fill-opacity: 0.7; stroke: #ff7f0e; stroke-opacity: 0.7"/>
     <use xlink:href="#m4de2517ff4" x="279.001241" y="289.153722" style="fill: #ff7f0e; fill-opacity: 0.7; stroke: #ff7f0e; stroke-opacity: 0.7"/>
     <use xlink:href="#m4de2517ff4" x="297.697354" y="273.406648" style="fill: #ff7f0e; fill-opacity: 0.7; stroke: #ff7f0e; stroke-opacity: 0.7"/>
     <use xlink:href="#m4de2517ff4" x="300.135978" y="268.153889" style="fill: #ff7f0e; fill-opacity: 0.7; stroke: #ff7f0e; stroke-opacity: 0.7"/>
     <use xlink:href="#m4de2517ff4" x="344.031199" y="246.675429" style="fill: #ff7f0e; fill-opacity: 0.7; stroke: #ff7f0e; stroke-opacity: 0.7"/>
     <use xlink:href="#m4de2517ff4" x="361.914437" y="235.553414" style="fill: #ff7f0e; fill-opacity: 0.7; stroke: #ff7f0e; stroke-opacity: 0.7"/>
     <use xlink:href="#m4de2517ff4" x="363.540186" y="237.705162" style="fill: #ff7f0e; fill-opacity: 0.7; stroke: #ff7f0e; stroke-opacity: 0.7"/>
     <use xlink:href="#m4de2517ff4" x="371.668931" y="240.545542" style="fill: #ff7f0e; fill-opacity: 0.7; stroke: #ff7f0e; stroke-opacity: 0.7"/>
     <use xlink:href="#m4de2517ff4" x="389.552169" y="225.639539" style="fill: #ff7f0e; fill-opacity: 0.7; stroke: #ff7f0e; stroke-opacity: 0.7"/>
     <use xlink:href="#m4de2517ff4" x="392.803667" y="214.450777" style="fill: #ff7f0e; fill-opacity: 0.7; stroke: #ff7f0e; stroke-opacity: 0.7"/>
     <use xlink:href="#m4de2517ff4" x="395.24229" y="206.306441" style="fill: #ff7f0e; fill-opacity: 0.7; stroke: #ff7f0e; stroke-opacity: 0.7"/>
     <use xlink:href="#m4de2517ff4" x="404.183909" y="195.493217" style="fill: #ff7f0e; fill-opacity: 0.7; stroke: #ff7f0e; stroke-opacity: 0.7"/>
     <use xlink:href="#m4de2517ff4" x="456.207875" y="161.167975" style="fill: #ff7f0e; fill-opacity: 0.7; stroke: #ff7f0e; stroke-opacity: 0.7"/>
     <use xlink:href="#m4de2517ff4" x="457.833624" y="140.421567" style="fill: #ff7f0e; fill-opacity: 0.7; stroke: #ff7f0e; stroke-opacity: 0.7"/>
     <use xlink:href="#m4de2517ff4" x="470.026741" y="120.50741" style="fill: #ff7f0e; fill-opacity: 0.7; stroke: #ff7f0e; stroke-opacity: 0.7"/>
     <use xlink:href="#m4de2517ff4" x="478.155486" y="100.869029" style="fill: #ff7f0e; fill-opacity: 0.7; stroke: #ff7f0e; stroke-opacity: 0.7"/>
     <use xlink:href="#m4de2517ff4" x="486.284231" y="98.381929" style="fill: #ff7f0e; fill-opacity: 0.7; stroke: #ff7f0e; stroke-opacity: 0.7"/>
     <use xlink:href="#m4de2517ff4" x="500.103097" y="73.909766" style="fill: #ff7f0e; fill-opacity: 0.7; stroke: #ff7f0e; stroke-opacity: 0.7"/>
     <use xlink:href="#m4de2517ff4" x="559.442933" y="66.073022" style="fill: #ff7f0e; fill-opacity: 0.7; stroke: #ff7f0e; stroke-opacity: 0.7"/>
     <use xlink:href="#m4de2517ff4" x="171.701812" y="318.218234" style="fill: #ff7f0e; fill-opacity: 0.7; stroke: #ff7f0e; stroke-opacity: 0.7"/>
     <use xlink:href="#m4de2517ff4" x="234.293146" y="284.122184" style="fill: #ff7f0e; fill-opacity: 0.7; stroke: #ff7f0e; stroke-opacity: 0.7"/>
     <use xlink:href="#m4de2517ff4" x="315.580592" y="242.062012" style="fill: #ff7f0e; fill-opacity: 0.7; stroke: #ff7f0e; stroke-opacity: 0.7"/>
     <use xlink:href="#m4de2517ff4" x="392.803667" y="192.390012" style="fill: #ff7f0e; fill-opacity: 0.7; stroke: #ff7f0e; stroke-opacity: 0.7"/>
     <use xlink:href="#m4de2517ff4" x="473.278239" y="104.369966" style="fill: #ff7f0e; fill-opacity: 0.7; stroke: #ff7f0e; stroke-opacity: 0.7"/>
     <use xlink:href="#m4de2517ff4" x="521.237833" y="72.237841" style="fill: #ff7f0e; fill-opacity: 0.7; stroke: #ff7f0e; stroke-opacity: 0.7"/>
    </g>
   </g>
   <g id="PathCollection_3">
    <defs>
     <path id="md3a72ac7d0" d="M 0 3
C 0.795609 3 1.55874 2.683901 2.12132 2.12132
C 2.683901 1.55874 3 0.795609 3 0
C 3 -0.795609 2.683901 -1.55874 2.12132 -2.12132
C 1.55874 -2.683901 0.795609 -3 0 -3
C -0.795609 -3 -1.55874 -2.683901 -2.12132 -2.12132
C -2.683901 -1.55874 -3 -0.795609 -3 0
C -3 0.795609 -2.683901 1.55874 -2.12132 2.12132
C -1.55874 2.683901 -0.795609 3 0 3
z
" style="stroke: #2ca02c; stroke-opacity: 0.7"/>
    </defs>
    <g clip-path="url(#p4b4b984b73)">
     <use xlink:href="#md3a72ac7d0" x="275.749744" y="299.151562" style="fill: #2ca02c; fill-opacity: 0.7; stroke: #2ca02c; stroke-opacity: 0.7"/>
     <use xlink:href="#md3a72ac7d0" x="339.966827" y="239.109361" style="fill: #2ca02c; fill-opacity: 0.7; stroke: #2ca02c; stroke-opacity: 0.7"/>
     <use xlink:href="#md3a72ac7d0" x="347.282697" y="234.693324" style="fill: #2ca02c; fill-opacity: 0.7; stroke: #2ca02c; stroke-opacity: 0.7"/>
     <use xlink:href="#md3a72ac7d0" x="359.475814" y="223.598469" style="fill: #2ca02c; fill-opacity: 0.7; stroke: #2ca02c; stroke-opacity: 0.7"/>
     <use xlink:href="#md3a72ac7d0" x="365.165935" y="228.184531" style="fill: #2ca02c; fill-opacity: 0.7; stroke: #2ca02c; stroke-opacity: 0.7"/>
     <use xlink:href="#md3a72ac7d0" x="367.604558" y="247.752723" style="fill: #2ca02c; fill-opacity: 0.7; stroke: #2ca02c; stroke-opacity: 0.7"/>
     <use xlink:href="#md3a72ac7d0" x="383.862048" y="224.683872" style="fill: #2ca02c; fill-opacity: 0.7; stroke: #2ca02c; stroke-opacity: 0.7"/>
     <use xlink:href="#md3a72ac7d0" x="385.487797" y="229.635514" style="fill: #2ca02c; fill-opacity: 0.7; stroke: #2ca02c; stroke-opacity: 0.7"/>
     <use xlink:href="#md3a72ac7d0" x="433.44739" y="198.86115" style="fill: #2ca02c; fill-opacity: 0.7; stroke: #2ca02c; stroke-opacity: 0.7"/>
     <use xlink:href="#md3a72ac7d0" x="452.956378" y="176.476278" style="fill: #2ca02c; fill-opacity: 0.7; stroke: #2ca02c; stroke-opacity: 0.7"/>
    </g>
   </g>
   <g id="PathCollection_4">
    <defs>
     <path id="mcc042aff2b" d="M 0 -3
L -3 3
L 3 3
z
" style="stroke: #d62728; stroke-opacity: 0.7"/>
    </defs>
    <g clip-path="url(#p4b4b984b73)">
     <use xlink:href="#mcc042aff2b" x="244.047639" y="295.475447" style="fill: #d62728; fill-opacity: 0.7; stroke: #d62728; stroke-opacity: 0.7"/>
     <use xlink:href="#mcc042aff2b" x="375.733303" y="213.193963" style="fill: #d62728; fill-opacity: 0.7; stroke: #d62728; stroke-opacity: 0.7"/>
     <use xlink:href="#mcc042aff2b" x="463.930183" y="121.775495" style="fill: #d62728; fill-opacity: 0.7; stroke: #d62728; stroke-opacity: 0.7"/>
     <use xlink:href="#mcc042aff2b" x="496.038724" y="79.015545" style="fill: #d62728; fill-opacity: 0.7; stroke: #d62728; stroke-opacity: 0.7"/>
     <use xlink:href="#mcc042aff2b" x="531.805201" y="43.249787" style="fill: #d62728; fill-opacity: 0.7; stroke: #d62728; stroke-opacity: 0.7"/>
     <use xlink:href="#mcc042aff2b" x="574.074673" y="60.087085" style="fill: #d62728; fill-opacity: 0.7; stroke: #d62728; stroke-opacity: 0.7"/>
     <use xlink:href="#mcc042aff2b" x="600.899531" y="90.130474" style="fill: #d62728; fill-opacity: 0.7; stroke: #d62728; stroke-opacity: 0.7"/>
     <use xlink:href="#mcc042aff2b" x="124.880242" y="333.638028" style="fill: #d62728; fill-opacity: 0.7; stroke: #d62728; stroke-opacity: 0.7"/>
     <use xlink:href="#mcc042aff2b" x="175.766184" y="310.827006" style="fill: #d62728; fill-opacity: 0.7; stroke: #d62728; stroke-opacity: 0.7"/>
     <use xlink:href="#mcc042aff2b" x="246.486263" y="265.873858" style="fill: #d62728; fill-opacity: 0.7; stroke: #d62728; stroke-opacity: 0.7"/>
     <use xlink:href="#mcc042aff2b" x="395.24229" y="166.884286" style="fill: #d62728; fill-opacity: 0.7; stroke: #d62728; stroke-opacity: 0.7"/>
     <use xlink:href="#mcc042aff2b" x="435.073139" y="158.965566" style="fill: #d62728; fill-opacity: 0.7; stroke: #d62728; stroke-opacity: 0.7"/>
     <use xlink:href="#mcc042aff2b" x="488.722854" y="104.941917" style="fill: #d62728; fill-opacity: 0.7; stroke: #d62728; stroke-opacity: 0.7"/>
     <use xlink:href="#mcc042aff2b" x="535.056699" y="61.873751" style="fill: #d62728; fill-opacity: 0.7; stroke: #d62728; stroke-opacity: 0.7"/>
     <use xlink:href="#mcc042aff2b" x="549.688439" y="88.868463" style="fill: #d62728; fill-opacity: 0.7; stroke: #d62728; stroke-opacity: 0.7"/>
     <use xlink:href="#mcc042aff2b" x="622.034267" y="84.885527" style="fill: #d62728; fill-opacity: 0.7; stroke: #d62728; stroke-opacity: 0.7"/>
     <use xlink:href="#mcc042aff2b" x="93.178138" y="327.855218" style="fill: #d62728; fill-opacity: 0.7; stroke: #d62728; stroke-opacity: 0.7"/>
     <use xlink:href="#mcc042aff2b" x="98.21796" y="322.406146" style="fill: #d62728; fill-opacity: 0.7; stroke: #d62728; stroke-opacity: 0.7"/>
     <use xlink:href="#mcc042aff2b" x="142.519618" y="302.725697" style="fill: #d62728; fill-opacity: 0.7; stroke: #d62728; stroke-opacity: 0.7"/>
     <use xlink:href="#mcc042aff2b" x="174.95331" y="282.9519" style="fill: #d62728; fill-opacity: 0.7; stroke: #d62728; stroke-opacity: 0.7"/>
     <use xlink:href="#mcc042aff2b" x="231.041648" y="255.364457" style="fill: #d62728; fill-opacity: 0.7; stroke: #d62728; stroke-opacity: 0.7"/>
     <use xlink:href="#mcc042aff2b" x="361.914437" y="199.018936" style="fill: #d62728; fill-opacity: 0.7; stroke: #d62728; stroke-opacity: 0.7"/>
     <use xlink:href="#mcc042aff2b" x="452.956378" y="129.593468" style="fill: #d62728; fill-opacity: 0.7; stroke: #d62728; stroke-opacity: 0.7"/>
     <use xlink:href="#mcc042aff2b" x="499.290222" y="97.554618" style="fill: #d62728; fill-opacity: 0.7; stroke: #d62728; stroke-opacity: 0.7"/>
     <use xlink:href="#mcc042aff2b" x="549.282002" y="100.224188" style="fill: #d62728; fill-opacity: 0.7; stroke: #d62728; stroke-opacity: 0.7"/>
     <use xlink:href="#mcc042aff2b" x="599.273782" y="101.875343" style="fill: #d62728; fill-opacity: 0.7; stroke: #d62728; stroke-opacity: 0.7"/>
     <use xlink:href="#mcc042aff2b" x="639.104631" y="106.590612" style="fill: #d62728; fill-opacity: 0.7; stroke: #d62728; stroke-opacity: 0.7"/>
     <use xlink:href="#mcc042aff2b" x="88.544754" y="308.55503" style="fill: #d62728; fill-opacity: 0.7; stroke: #d62728; stroke-opacity: 0.7"/>
     <use xlink:href="#mcc042aff2b" x="125.042817" y="293.999898" style="fill: #d62728; fill-opacity: 0.7; stroke: #d62728; stroke-opacity: 0.7"/>
     <use xlink:href="#mcc042aff2b" x="231.854522" y="235.03919" style="fill: #d62728; fill-opacity: 0.7; stroke: #d62728; stroke-opacity: 0.7"/>
     <use xlink:href="#mcc042aff2b" x="388.739295" y="161.615107" style="fill: #d62728; fill-opacity: 0.7; stroke: #d62728; stroke-opacity: 0.7"/>
     <use xlink:href="#mcc042aff2b" x="422.067148" y="146.718583" style="fill: #d62728; fill-opacity: 0.7; stroke: #d62728; stroke-opacity: 0.7"/>
     <use xlink:href="#mcc042aff2b" x="466.775243" y="99.135664" style="fill: #d62728; fill-opacity: 0.7; stroke: #d62728; stroke-opacity: 0.7"/>
     <use xlink:href="#mcc042aff2b" x="470.026741" y="119.503693" style="fill: #d62728; fill-opacity: 0.7; stroke: #d62728; stroke-opacity: 0.7"/>
     <use xlink:href="#mcc042aff2b" x="543.185443" y="106.882208" style="fill: #d62728; fill-opacity: 0.7; stroke: #d62728; stroke-opacity: 0.7"/>
     <use xlink:href="#mcc042aff2b" x="557.817184" y="76.043383" style="fill: #d62728; fill-opacity: 0.7; stroke: #d62728; stroke-opacity: 0.7"/>
     <use xlink:href="#mcc042aff2b" x="577.732608" y="110.362321" style="fill: #d62728; fill-opacity: 0.7; stroke: #d62728; stroke-opacity: 0.7"/>
     <use xlink:href="#mcc042aff2b" x="81.740994" y="252.074037" style="fill: #d62728; fill-opacity: 0.7; stroke: #d62728; stroke-opacity: 0.7"/>
     <use xlink:href="#mcc042aff2b" x="88.138316" y="272.743594" style="fill: #d62728; fill-opacity: 0.7; stroke: #d62728; stroke-opacity: 0.7"/>
     <use xlink:href="#mcc042aff2b" x="99.112122" y="270.827822" style="fill: #d62728; fill-opacity: 0.7; stroke: #d62728; stroke-opacity: 0.7"/>
     <use xlink:href="#mcc042aff2b" x="175.766184" y="241.969002" style="fill: #d62728; fill-opacity: 0.7; stroke: #d62728; stroke-opacity: 0.7"/>
     <use xlink:href="#mcc042aff2b" x="362.727312" y="154.915031" style="fill: #d62728; fill-opacity: 0.7; stroke: #d62728; stroke-opacity: 0.7"/>
     <use xlink:href="#mcc042aff2b" x="413.531966" y="136.946541" style="fill: #d62728; fill-opacity: 0.7; stroke: #d62728; stroke-opacity: 0.7"/>
     <use xlink:href="#mcc042aff2b" x="439.950386" y="133.216832" style="fill: #d62728; fill-opacity: 0.7; stroke: #d62728; stroke-opacity: 0.7"/>
     <use xlink:href="#mcc042aff2b" x="463.523746" y="138.081648" style="fill: #d62728; fill-opacity: 0.7; stroke: #d62728; stroke-opacity: 0.7"/>
     <use xlink:href="#mcc042aff2b" x="514.734837" y="119.876603" style="fill: #d62728; fill-opacity: 0.7; stroke: #d62728; stroke-opacity: 0.7"/>
     <use xlink:href="#mcc042aff2b" x="598.460907" y="131.955152" style="fill: #d62728; fill-opacity: 0.7; stroke: #d62728; stroke-opacity: 0.7"/>
    </g>
   </g>
   <g id="PathCollection_5">
    <defs>
     <path id="mcaf3a1f241" d="M -1 3
L 1 3
L 1 1
L 3 1
L 3 -1
L 1 -1
L 1 -3
L -1 -3
L -1 -1
L -3 -1
L -3 1
L -1 1
z
" style="stroke: #9467bd; stroke-opacity: 0.7"/>
    </defs>
    <g clip-path="url(#p4b4b984b73)">
     <use xlink:href="#mcaf3a1f241" x="205.029665" y="262.302326" style="fill: #9467bd; fill-opacity: 0.7; stroke: #9467bd; stroke-opacity: 0.7"/>
     <use xlink:href="#mcaf3a1f241" x="222.587753" y="250.441981" style="fill: #9467bd; fill-opacity: 0.7; stroke: #9467bd; stroke-opacity: 0.7"/>
     <use xlink:href="#mcaf3a1f241" x="228.846887" y="240.028963" style="fill: #9467bd; fill-opacity: 0.7; stroke: #9467bd; stroke-opacity: 0.7"/>
     <use xlink:href="#mcaf3a1f241" x="248.518449" y="243.969212" style="fill: #9467bd; fill-opacity: 0.7; stroke: #9467bd; stroke-opacity: 0.7"/>
     <use xlink:href="#mcaf3a1f241" x="268.108724" y="231.372801" style="fill: #9467bd; fill-opacity: 0.7; stroke: #9467bd; stroke-opacity: 0.7"/>
     <use xlink:href="#mcaf3a1f241" x="272.579533" y="239.760016" style="fill: #9467bd; fill-opacity: 0.7; stroke: #9467bd; stroke-opacity: 0.7"/>
     <use xlink:href="#mcaf3a1f241" x="287.129986" y="226.113799" style="fill: #9467bd; fill-opacity: 0.7; stroke: #9467bd; stroke-opacity: 0.7"/>
     <use xlink:href="#mcaf3a1f241" x="314.849005" y="209.482688" style="fill: #9467bd; fill-opacity: 0.7; stroke: #9467bd; stroke-opacity: 0.7"/>
     <use xlink:href="#mcaf3a1f241" x="320.213977" y="204.13295" style="fill: #9467bd; fill-opacity: 0.7; stroke: #9467bd; stroke-opacity: 0.7"/>
     <use xlink:href="#mcaf3a1f241" x="323.221612" y="204.341165" style="fill: #9467bd; fill-opacity: 0.7; stroke: #9467bd; stroke-opacity: 0.7"/>
     <use xlink:href="#mcaf3a1f241" x="333.057394" y="201.199597" style="fill: #9467bd; fill-opacity: 0.7; stroke: #9467bd; stroke-opacity: 0.7"/>
     <use xlink:href="#mcaf3a1f241" x="338.422365" y="200.962074" style="fill: #9467bd; fill-opacity: 0.7; stroke: #9467bd; stroke-opacity: 0.7"/>
     <use xlink:href="#mcaf3a1f241" x="347.120122" y="193.218414" style="fill: #9467bd; fill-opacity: 0.7; stroke: #9467bd; stroke-opacity: 0.7"/>
     <use xlink:href="#mcaf3a1f241" x="357.36234" y="191.153493" style="fill: #9467bd; fill-opacity: 0.7; stroke: #9467bd; stroke-opacity: 0.7"/>
     <use xlink:href="#mcaf3a1f241" x="357.36234" y="189.180896" style="fill: #9467bd; fill-opacity: 0.7; stroke: #9467bd; stroke-opacity: 0.7"/>
     <use xlink:href="#mcaf3a1f241" x="363.540186" y="186.851451" style="fill: #9467bd; fill-opacity: 0.7; stroke: #9467bd; stroke-opacity: 0.7"/>
     <use xlink:href="#mcaf3a1f241" x="371.181206" y="182.105688" style="fill: #9467bd; fill-opacity: 0.7; stroke: #9467bd; stroke-opacity: 0.7"/>
     <use xlink:href="#mcaf3a1f241" x="394.591991" y="171.343345" style="fill: #9467bd; fill-opacity: 0.7; stroke: #9467bd; stroke-opacity: 0.7"/>
     <use xlink:href="#mcaf3a1f241" x="418.978225" y="154.869105" style="fill: #9467bd; fill-opacity: 0.7; stroke: #9467bd; stroke-opacity: 0.7"/>
    </g>
   </g>
   <g id="PathCollection_6">
    <defs>
     <path id="m80d4e796aa" d="M -1 3
L 1 3
L 1 1
L 3 1
L 3 -1
L 1 -1
L 1 -3
L -1 -3
L -1 -1
L -3 -1
L -3 1
L -1 1
z
" style="stroke: #8c564b; stroke-opacity: 0.7"/>
    </defs>
    <g clip-path="url(#p4b4b984b73)">
     <use xlink:href="#m80d4e796aa" x="335.08958" y="231.980168" style="fill: #8c564b; fill-opacity: 0.7; stroke: #8c564b; stroke-opacity: 0.7"/>
     <use xlink:href="#m80d4e796aa" x="335.08958" y="215.586674" style="fill: #8c564b; fill-opacity: 0.7; stroke: #8c564b; stroke-opacity: 0.7"/>
     <use xlink:href="#m80d4e796aa" x="394.429416" y="185.602944" style="fill: #8c564b; fill-opacity: 0.7; stroke: #8c564b; stroke-opacity: 0.7"/>
     <use xlink:href="#m80d4e796aa" x="423.692897" y="198.089216" style="fill: #8c564b; fill-opacity: 0.7; stroke: #8c564b; stroke-opacity: 0.7"/>
     <use xlink:href="#m80d4e796aa" x="424.505771" y="187.497229" style="fill: #8c564b; fill-opacity: 0.7; stroke: #8c564b; stroke-opacity: 0.7"/>
     <use xlink:href="#m80d4e796aa" x="465.149495" y="120.223951" style="fill: #8c564b; fill-opacity: 0.7; stroke: #8c564b; stroke-opacity: 0.7"/>
     <use xlink:href="#m80d4e796aa" x="486.284231" y="116.572966" style="fill: #8c564b; fill-opacity: 0.7; stroke: #8c564b; stroke-opacity: 0.7"/>
     <use xlink:href="#m80d4e796aa" x="501.728846" y="112.097555" style="fill: #8c564b; fill-opacity: 0.7; stroke: #8c564b; stroke-opacity: 0.7"/>
     <use xlink:href="#m80d4e796aa" x="334.276705" y="197.525975" style="fill: #8c564b; fill-opacity: 0.7; stroke: #8c564b; stroke-opacity: 0.7"/>
     <use xlink:href="#m80d4e796aa" x="334.276705" y="191.522031" style="fill: #8c564b; fill-opacity: 0.7; stroke: #8c564b; stroke-opacity: 0.7"/>
     <use xlink:href="#m80d4e796aa" x="379.797675" y="147.871088" style="fill: #8c564b; fill-opacity: 0.7; stroke: #8c564b; stroke-opacity: 0.7"/>
     <use xlink:href="#m80d4e796aa" x="391.990792" y="161.160194" style="fill: #8c564b; fill-opacity: 0.7; stroke: #8c564b; stroke-opacity: 0.7"/>
     <use xlink:href="#m80d4e796aa" x="393.616541" y="127.195077" style="fill: #8c564b; fill-opacity: 0.7; stroke: #8c564b; stroke-opacity: 0.7"/>
     <use xlink:href="#m80d4e796aa" x="422.067148" y="162.434224" style="fill: #8c564b; fill-opacity: 0.7; stroke: #8c564b; stroke-opacity: 0.7"/>
     <use xlink:href="#m80d4e796aa" x="422.880022" y="149.262395" style="fill: #8c564b; fill-opacity: 0.7; stroke: #8c564b; stroke-opacity: 0.7"/>
     <use xlink:href="#m80d4e796aa" x="458.646499" y="121.634967" style="fill: #8c564b; fill-opacity: 0.7; stroke: #8c564b; stroke-opacity: 0.7"/>
     <use xlink:href="#m80d4e796aa" x="478.968361" y="114.175598" style="fill: #8c564b; fill-opacity: 0.7; stroke: #8c564b; stroke-opacity: 0.7"/>
     <use xlink:href="#m80d4e796aa" x="491.974352" y="115.492806" style="fill: #8c564b; fill-opacity: 0.7; stroke: #8c564b; stroke-opacity: 0.7"/>
    </g>
   </g>
   <g id="matplotlib.axis_1">
    <g id="xtick_1">
     <g id="line2d_1">
      <path d="M 79.034122 382.857969
L 79.034122 27.077969
" clip-path="url(#p4b4b984b73)" style="fill: none; stroke: #b0b0b0; stroke-opacity: 0.22; stroke-width: 0.8; stroke-linecap: square"/>
     </g>
     <g id="line2d_2">
      <defs>
       <path id="m4e92a786cb" d="M 0 0
L 0 4
" style="stroke: #000000; stroke-width: 0.8"/>
      </defs>
      <g>
       <use xlink:href="#m4e92a786cb" x="79.034122" y="382.857969" style="stroke: #000000; stroke-width: 0.8"/>
      </g>
     </g>
     <g id="text_1">
      <!-- 0.0 -->
      <g transform="translate(71.08256 397.956406) scale(0.1 -0.1)">
       <defs>
        <path id="DejaVuSerif-30" d="M 2034 219
Q 2513 219 2750 744
Q 2988 1269 2988 2328
Q 2988 3391 2750 3916
Q 2513 4441 2034 4441
Q 1556 4441 1318 3916
Q 1081 3391 1081 2328
Q 1081 1269 1318 744
Q 1556 219 2034 219
z
M 2034 -91
Q 1275 -91 848 546
Q 422 1184 422 2328
Q 422 3475 848 4112
Q 1275 4750 2034 4750
Q 2797 4750 3222 4112
Q 3647 3475 3647 2328
Q 3647 1184 3222 546
Q 2797 -91 2034 -91
z
" transform="scale(0.015625)"/>
        <path id="DejaVuSerif-2e" d="M 603 325
Q 603 500 722 622
Q 841 744 1019 744
Q 1191 744 1312 622
Q 1434 500 1434 325
Q 1434 153 1312 31
Q 1191 -91 1019 -91
Q 841 -91 722 29
Q 603 150 603 325
z
" transform="scale(0.015625)"/>
       </defs>
       <use xlink:href="#DejaVuSerif-30"/>
       <use xlink:href="#DejaVuSerif-2e" transform="translate(63.623047 0)"/>
       <use xlink:href="#DejaVuSerif-30" transform="translate(95.410156 0)"/>
      </g>
     </g>
    </g>
    <g id="xtick_2">
     <g id="line2d_3">
      <path d="M 160.321569 382.857969
L 160.321569 27.077969
" clip-path="url(#p4b4b984b73)" style="fill: none; stroke: #b0b0b0; stroke-opacity: 0.22; stroke-width: 0.8; stroke-linecap: square"/>
     </g>
     <g id="line2d_4">
      <g>
       <use xlink:href="#m4e92a786cb" x="160.321569" y="382.857969" style="stroke: #000000; stroke-width: 0.8"/>
      </g>
     </g>
     <g id="text_2">
      <!-- 0.1 -->
      <g transform="translate(152.370007 397.956406) scale(0.1 -0.1)">
       <defs>
        <path id="DejaVuSerif-31" d="M 909 0
L 909 331
L 1722 331
L 1722 4213
L 781 3603
L 781 4013
L 1919 4750
L 2350 4750
L 2350 331
L 3163 331
L 3163 0
L 909 0
z
" transform="scale(0.015625)"/>
       </defs>
       <use xlink:href="#DejaVuSerif-30"/>
       <use xlink:href="#DejaVuSerif-2e" transform="translate(63.623047 0)"/>
       <use xlink:href="#DejaVuSerif-31" transform="translate(95.410156 0)"/>
      </g>
     </g>
    </g>
    <g id="xtick_3">
     <g id="line2d_5">
      <path d="M 241.609016 382.857969
L 241.609016 27.077969
" clip-path="url(#p4b4b984b73)" style="fill: none; stroke: #b0b0b0; stroke-opacity: 0.22; stroke-width: 0.8; stroke-linecap: square"/>
     </g>
     <g id="line2d_6">
      <g>
       <use xlink:href="#m4e92a786cb" x="241.609016" y="382.857969" style="stroke: #000000; stroke-width: 0.8"/>
      </g>
     </g>
     <g id="text_3">
      <!-- 0.2 -->
      <g transform="translate(233.657453 397.956406) scale(0.1 -0.1)">
       <defs>
        <path id="DejaVuSerif-32" d="M 819 3553
L 469 3553
L 469 4384
Q 803 4563 1142 4656
Q 1481 4750 1806 4750
Q 2534 4750 2956 4397
Q 3378 4044 3378 3438
Q 3378 2753 2422 1800
Q 2347 1728 2309 1691
L 1131 513
L 3078 513
L 3078 1088
L 3444 1088
L 3444 0
L 434 0
L 434 341
L 1850 1753
Q 2319 2222 2519 2614
Q 2719 3006 2719 3438
Q 2719 3909 2473 4175
Q 2228 4441 1797 4441
Q 1350 4441 1106 4219
Q 863 3997 819 3553
z
" transform="scale(0.015625)"/>
       </defs>
       <use xlink:href="#DejaVuSerif-30"/>
       <use xlink:href="#DejaVuSerif-2e" transform="translate(63.623047 0)"/>
       <use xlink:href="#DejaVuSerif-32" transform="translate(95.410156 0)"/>
      </g>
     </g>
    </g>
    <g id="xtick_4">
     <g id="line2d_7">
      <path d="M 322.896463 382.857969
L 322.896463 27.077969
" clip-path="url(#p4b4b984b73)" style="fill: none; stroke: #b0b0b0; stroke-opacity: 0.22; stroke-width: 0.8; stroke-linecap: square"/>
     </g>
     <g id="line2d_8">
      <g>
       <use xlink:href="#m4e92a786cb" x="322.896463" y="382.857969" style="stroke: #000000; stroke-width: 0.8"/>
      </g>
     </g>
     <g id="text_4">
      <!-- 0.3 -->
      <g transform="translate(314.9449 397.956406) scale(0.1 -0.1)">
       <defs>
        <path id="DejaVuSerif-33" d="M 622 4469
Q 988 4606 1323 4678
Q 1659 4750 1953 4750
Q 2638 4750 3022 4454
Q 3406 4159 3406 3634
Q 3406 3213 3140 2930
Q 2875 2647 2388 2547
Q 2963 2466 3280 2130
Q 3597 1794 3597 1259
Q 3597 606 3158 257
Q 2719 -91 1894 -91
Q 1528 -91 1179 -12
Q 831 66 488 225
L 488 1131
L 838 1131
Q 869 681 1141 450
Q 1413 219 1906 219
Q 2384 219 2661 495
Q 2938 772 2938 1253
Q 2938 1803 2653 2086
Q 2369 2369 1819 2369
L 1522 2369
L 1522 2688
L 1678 2688
Q 2225 2688 2498 2914
Q 2772 3141 2772 3597
Q 2772 4006 2547 4223
Q 2322 4441 1900 4441
Q 1478 4441 1245 4241
Q 1013 4041 972 3647
L 622 3647
L 622 4469
z
" transform="scale(0.015625)"/>
       </defs>
       <use xlink:href="#DejaVuSerif-30"/>
       <use xlink:href="#DejaVuSerif-2e" transform="translate(63.623047 0)"/>
       <use xlink:href="#DejaVuSerif-33" transform="translate(95.410156 0)"/>
      </g>
     </g>
    </g>
    <g id="xtick_5">
     <g id="line2d_9">
      <path d="M 404.183909 382.857969
L 404.183909 27.077969
" clip-path="url(#p4b4b984b73)" style="fill: none; stroke: #b0b0b0; stroke-opacity: 0.22; stroke-width: 0.8; stroke-linecap: square"/>
     </g>
     <g id="line2d_10">
      <g>
       <use xlink:href="#m4e92a786cb" x="404.183909" y="382.857969" style="stroke: #000000; stroke-width: 0.8"/>
      </g>
     </g>
     <g id="text_5">
      <!-- 0.4 -->
      <g transform="translate(396.232347 397.956406) scale(0.1 -0.1)">
       <defs>
        <path id="DejaVuSerif-34" d="M 2234 1581
L 2234 4063
L 641 1581
L 2234 1581
z
M 3609 0
L 1484 0
L 1484 331
L 2234 331
L 2234 1247
L 197 1247
L 197 1588
L 2241 4750
L 2859 4750
L 2859 1581
L 3750 1581
L 3750 1247
L 2859 1247
L 2859 331
L 3609 331
L 3609 0
z
" transform="scale(0.015625)"/>
       </defs>
       <use xlink:href="#DejaVuSerif-30"/>
       <use xlink:href="#DejaVuSerif-2e" transform="translate(63.623047 0)"/>
       <use xlink:href="#DejaVuSerif-34" transform="translate(95.410156 0)"/>
      </g>
     </g>
    </g>
    <g id="xtick_6">
     <g id="line2d_11">
      <path d="M 485.471356 382.857969
L 485.471356 27.077969
" clip-path="url(#p4b4b984b73)" style="fill: none; stroke: #b0b0b0; stroke-opacity: 0.22; stroke-width: 0.8; stroke-linecap: square"/>
     </g>
     <g id="line2d_12">
      <g>
       <use xlink:href="#m4e92a786cb" x="485.471356" y="382.857969" style="stroke: #000000; stroke-width: 0.8"/>
      </g>
     </g>
     <g id="text_6">
      <!-- 0.5 -->
      <g transform="translate(477.519794 397.956406) scale(0.1 -0.1)">
       <defs>
        <path id="DejaVuSerif-35" d="M 3219 4666
L 3219 4153
L 1081 4153
L 1081 2816
Q 1244 2928 1461 2984
Q 1678 3041 1947 3041
Q 2703 3041 3140 2622
Q 3578 2203 3578 1478
Q 3578 738 3136 323
Q 2694 -91 1894 -91
Q 1572 -91 1234 -12
Q 897 66 544 225
L 544 1131
L 897 1131
Q 925 688 1179 453
Q 1434 219 1894 219
Q 2388 219 2653 544
Q 2919 869 2919 1478
Q 2919 2084 2655 2407
Q 2391 2731 1894 2731
Q 1613 2731 1398 2631
Q 1184 2531 1019 2322
L 750 2322
L 750 4666
L 3219 4666
z
" transform="scale(0.015625)"/>
       </defs>
       <use xlink:href="#DejaVuSerif-30"/>
       <use xlink:href="#DejaVuSerif-2e" transform="translate(63.623047 0)"/>
       <use xlink:href="#DejaVuSerif-35" transform="translate(95.410156 0)"/>
      </g>
     </g>
    </g>
    <g id="xtick_7">
     <g id="line2d_13">
      <path d="M 566.758803 382.857969
L 566.758803 27.077969
" clip-path="url(#p4b4b984b73)" style="fill: none; stroke: #b0b0b0; stroke-opacity: 0.22; stroke-width: 0.8; stroke-linecap: square"/>
     </g>
     <g id="line2d_14">
      <g>
       <use xlink:href="#m4e92a786cb" x="566.758803" y="382.857969" style="stroke: #000000; stroke-width: 0.8"/>
      </g>
     </g>
     <g id="text_7">
      <!-- 0.6 -->
      <g transform="translate(558.807241 397.956406) scale(0.1 -0.1)">
       <defs>
        <path id="DejaVuSerif-36" d="M 2094 219
Q 2534 219 2771 542
Q 3009 866 3009 1472
Q 3009 2078 2771 2401
Q 2534 2725 2094 2725
Q 1647 2725 1412 2412
Q 1178 2100 1178 1509
Q 1178 888 1415 553
Q 1653 219 2094 219
z
M 1075 2569
Q 1288 2803 1556 2918
Q 1825 3034 2163 3034
Q 2859 3034 3264 2615
Q 3669 2197 3669 1472
Q 3669 763 3233 336
Q 2797 -91 2069 -91
Q 1278 -91 853 498
Q 428 1088 428 2181
Q 428 3406 931 4078
Q 1434 4750 2350 4750
Q 2597 4750 2869 4703
Q 3141 4656 3425 4563
L 3425 3794
L 3072 3794
Q 3034 4109 2831 4275
Q 2628 4441 2284 4441
Q 1678 4441 1381 3981
Q 1084 3522 1075 2569
z
" transform="scale(0.015625)"/>
       </defs>
       <use xlink:href="#DejaVuSerif-30"/>
       <use xlink:href="#DejaVuSerif-2e" transform="translate(63.623047 0)"/>
       <use xlink:href="#DejaVuSerif-36" transform="translate(95.410156 0)"/>
      </g>
     </g>
    </g>
    <g id="xtick_8">
     <g id="line2d_15">
      <path d="M 648.04625 382.857969
L 648.04625 27.077969
" clip-path="url(#p4b4b984b73)" style="fill: none; stroke: #b0b0b0; stroke-opacity: 0.22; stroke-width: 0.8; stroke-linecap: square"/>
     </g>
     <g id="line2d_16">
      <g>
       <use xlink:href="#m4e92a786cb" x="648.04625" y="382.857969" style="stroke: #000000; stroke-width: 0.8"/>
      </g>
     </g>
     <g id="text_8">
      <!-- 0.7 -->
      <g transform="translate(640.094687 397.956406) scale(0.1 -0.1)">
       <defs>
        <path id="DejaVuSerif-37" d="M 3609 4347
L 1784 0
L 1319 0
L 3059 4153
L 903 4153
L 903 3578
L 538 3578
L 538 4666
L 3609 4666
L 3609 4347
z
" transform="scale(0.015625)"/>
       </defs>
       <use xlink:href="#DejaVuSerif-30"/>
       <use xlink:href="#DejaVuSerif-2e" transform="translate(63.623047 0)"/>
       <use xlink:href="#DejaVuSerif-37" transform="translate(95.410156 0)"/>
      </g>
     </g>
    </g>
    <g id="text_9">
     <!-- $CO_2$ loading, mol $CO_2$/mol MEA -->
     <g transform="translate(272.312812 412.396094) scale(0.11 -0.11)">
      <defs>
       <path id="DejaVuSerif-Italic-43" d="M 4300 1234
Q 3966 581 3414 245
Q 2863 -91 2119 -91
Q 1663 -91 1303 65
Q 944 222 700 525
Q 419 875 334 1320
Q 250 1766 359 2328
Q 572 3416 1330 4083
Q 2088 4750 3116 4750
Q 3497 4750 3908 4650
Q 4319 4550 4775 4347
L 4569 3272
L 4216 3272
Q 4213 3859 3919 4137
Q 3625 4416 2997 4416
Q 2250 4416 1762 3886
Q 1275 3356 1075 2328
Q 875 1303 1156 773
Q 1438 244 2184 244
Q 2706 244 3092 492
Q 3478 741 3725 1234
L 4300 1234
z
" transform="scale(0.015625)"/>
       <path id="DejaVuSerif-Italic-4f" d="M 2219 244
Q 2984 244 3478 770
Q 3972 1297 4172 2328
Q 4372 3363 4084 3889
Q 3797 4416 3031 4416
Q 2263 4416 1769 3889
Q 1275 3363 1075 2328
Q 875 1297 1162 770
Q 1450 244 2219 244
z
M 2153 -91
Q 1678 -91 1311 65
Q 944 222 700 525
Q 419 875 334 1319
Q 250 1763 359 2328
Q 469 2894 725 3339
Q 981 3784 1400 4134
Q 1766 4441 2191 4595
Q 2616 4750 3097 4750
Q 4113 4750 4608 4084
Q 5103 3419 4891 2328
Q 4781 1769 4522 1320
Q 4263 872 3847 525
Q 3481 219 3056 64
Q 2631 -91 2153 -91
z
" transform="scale(0.015625)"/>
       <path id="DejaVuSerif-20" transform="scale(0.015625)"/>
       <path id="DejaVuSerif-6c" d="M 1313 331
L 1856 331
L 1856 0
L 184 0
L 184 331
L 738 331
L 738 4531
L 184 4531
L 184 4863
L 1313 4863
L 1313 331
z
" transform="scale(0.015625)"/>
       <path id="DejaVuSerif-6f" d="M 1925 219
Q 2388 219 2623 584
Q 2859 950 2859 1663
Q 2859 2375 2623 2739
Q 2388 3103 1925 3103
Q 1463 3103 1227 2739
Q 991 2375 991 1663
Q 991 950 1228 584
Q 1466 219 1925 219
z
M 1925 -91
Q 1200 -91 759 389
Q 319 869 319 1663
Q 319 2456 758 2934
Q 1197 3413 1925 3413
Q 2653 3413 3092 2934
Q 3531 2456 3531 1663
Q 3531 869 3092 389
Q 2653 -91 1925 -91
z
" transform="scale(0.015625)"/>
       <path id="DejaVuSerif-61" d="M 2547 1044
L 2547 1747
L 1806 1747
Q 1378 1747 1168 1562
Q 959 1378 959 997
Q 959 650 1171 447
Q 1384 244 1747 244
Q 2106 244 2326 466
Q 2547 688 2547 1044
z
M 3122 2075
L 3122 331
L 3634 331
L 3634 0
L 2547 0
L 2547 359
Q 2356 128 2106 18
Q 1856 -91 1522 -91
Q 969 -91 644 203
Q 319 497 319 997
Q 319 1513 691 1797
Q 1063 2081 1741 2081
L 2547 2081
L 2547 2309
Q 2547 2688 2317 2895
Q 2088 3103 1672 3103
Q 1328 3103 1125 2947
Q 922 2791 872 2484
L 575 2484
L 575 3156
Q 875 3284 1158 3348
Q 1441 3413 1709 3413
Q 2400 3413 2761 3070
Q 3122 2728 3122 2075
z
" transform="scale(0.015625)"/>
       <path id="DejaVuSerif-64" d="M 3359 331
L 3909 331
L 3909 0
L 2784 0
L 2784 519
Q 2616 206 2355 57
Q 2094 -91 1709 -91
Q 1097 -91 708 395
Q 319 881 319 1663
Q 319 2444 706 2928
Q 1094 3413 1709 3413
Q 2094 3413 2355 3264
Q 2616 3116 2784 2803
L 2784 4531
L 2241 4531
L 2241 4863
L 3359 4863
L 3359 331
z
M 2784 1497
L 2784 1825
Q 2784 2422 2554 2737
Q 2325 3053 1888 3053
Q 1444 3053 1217 2703
Q 991 2353 991 1663
Q 991 975 1217 622
Q 1444 269 1888 269
Q 2325 269 2554 583
Q 2784 897 2784 1497
z
" transform="scale(0.015625)"/>
       <path id="DejaVuSerif-69" d="M 622 4353
Q 622 4497 726 4603
Q 831 4709 978 4709
Q 1122 4709 1226 4603
Q 1331 4497 1331 4353
Q 1331 4206 1228 4103
Q 1125 4000 978 4000
Q 831 4000 726 4103
Q 622 4206 622 4353
z
M 1356 331
L 1900 331
L 1900 0
L 231 0
L 231 331
L 781 331
L 781 2988
L 231 2988
L 231 3322
L 1356 3322
L 1356 331
z
" transform="scale(0.015625)"/>
       <path id="DejaVuSerif-6e" d="M 263 0
L 263 331
L 781 331
L 781 2988
L 231 2988
L 231 3322
L 1356 3322
L 1356 2731
Q 1516 3069 1770 3241
Q 2025 3413 2363 3413
Q 2913 3413 3172 3097
Q 3431 2781 3431 2113
L 3431 331
L 3944 331
L 3944 0
L 2356 0
L 2356 331
L 2853 331
L 2853 1931
Q 2853 2541 2703 2767
Q 2553 2994 2175 2994
Q 1775 2994 1565 2701
Q 1356 2409 1356 1850
L 1356 331
L 1856 331
L 1856 0
L 263 0
z
" transform="scale(0.015625)"/>
       <path id="DejaVuSerif-67" d="M 3359 2988
L 3359 72
Q 3359 -644 2965 -1033
Q 2572 -1422 1844 -1422
Q 1516 -1422 1216 -1362
Q 916 -1303 641 -1184
L 641 -488
L 941 -488
Q 997 -813 1206 -963
Q 1416 -1113 1806 -1113
Q 2313 -1113 2548 -827
Q 2784 -541 2784 72
L 2784 519
Q 2616 206 2355 57
Q 2094 -91 1709 -91
Q 1097 -91 708 395
Q 319 881 319 1663
Q 319 2444 706 2928
Q 1094 3413 1709 3413
Q 2094 3413 2355 3264
Q 2616 3116 2784 2803
L 2784 3322
L 3909 3322
L 3909 2988
L 3359 2988
z
M 2784 1825
Q 2784 2422 2554 2737
Q 2325 3053 1888 3053
Q 1444 3053 1217 2703
Q 991 2353 991 1663
Q 991 975 1217 622
Q 1444 269 1888 269
Q 2325 269 2554 583
Q 2784 897 2784 1497
L 2784 1825
z
" transform="scale(0.015625)"/>
       <path id="DejaVuSerif-2c" d="M 231 -622
Q 525 -406 662 -114
Q 800 178 800 594
L 800 709
L 1416 709
Q 1391 175 1164 -208
Q 938 -591 481 -872
L 231 -622
z
" transform="scale(0.015625)"/>
       <path id="DejaVuSerif-6d" d="M 3316 2675
Q 3481 3041 3739 3227
Q 3997 3413 4341 3413
Q 4863 3413 5119 3089
Q 5375 2766 5375 2113
L 5375 331
L 5894 331
L 5894 0
L 4300 0
L 4300 331
L 4800 331
L 4800 2047
Q 4800 2556 4650 2772
Q 4500 2988 4153 2988
Q 3769 2988 3567 2697
Q 3366 2406 3366 1850
L 3366 331
L 3866 331
L 3866 0
L 2291 0
L 2291 331
L 2791 331
L 2791 2069
Q 2791 2566 2641 2777
Q 2491 2988 2144 2988
Q 1759 2988 1557 2697
Q 1356 2406 1356 1850
L 1356 331
L 1856 331
L 1856 0
L 263 0
L 263 331
L 781 331
L 781 2994
L 231 2994
L 231 3322
L 1356 3322
L 1356 2731
Q 1516 3063 1762 3238
Q 2009 3413 2322 3413
Q 2709 3413 2968 3220
Q 3228 3028 3316 2675
z
" transform="scale(0.015625)"/>
       <path id="DejaVuSerif-2f" d="M 1656 4666
L 2156 4666
L 500 -594
L 0 -594
L 1656 4666
z
" transform="scale(0.015625)"/>
       <path id="DejaVuSerif-4d" d="M 353 0
L 353 331
L 947 331
L 947 4331
L 319 4331
L 319 4666
L 1678 4666
L 3316 1344
L 4953 4666
L 6228 4666
L 6228 4331
L 5606 4331
L 5606 331
L 6203 331
L 6203 0
L 4378 0
L 4378 331
L 4972 331
L 4972 3938
L 3372 684
L 2931 684
L 1331 3938
L 1331 331
L 1925 331
L 1925 0
L 353 0
z
" transform="scale(0.015625)"/>
       <path id="DejaVuSerif-45" d="M 353 0
L 353 331
L 947 331
L 947 4331
L 353 4331
L 353 4666
L 4109 4666
L 4109 3628
L 3725 3628
L 3725 4281
L 1581 4281
L 1581 2719
L 3109 2719
L 3109 3303
L 3494 3303
L 3494 1753
L 3109 1753
L 3109 2338
L 1581 2338
L 1581 384
L 3775 384
L 3775 1038
L 4159 1038
L 4159 0
L 353 0
z
" transform="scale(0.015625)"/>
       <path id="DejaVuSerif-41" d="M 1281 1691
L 2994 1691
L 2138 3909
L 1281 1691
z
M -38 0
L -38 331
L 372 331
L 2034 4666
L 2559 4666
L 4225 331
L 4684 331
L 4684 0
L 2988 0
L 2988 331
L 3506 331
L 3116 1356
L 1153 1356
L 763 331
L 1275 331
L 1275 0
L -38 0
z
" transform="scale(0.015625)"/>
      </defs>
      <use xlink:href="#DejaVuSerif-Italic-43" transform="translate(0 0.015625)"/>
      <use xlink:href="#DejaVuSerif-Italic-4f" transform="translate(76.513672 0.015625)"/>
      <use xlink:href="#DejaVuSerif-32" transform="translate(158.496094 -15.55625) scale(0.7)"/>
      <use xlink:href="#DejaVuSerif-20" transform="translate(205.627539 0.015625)"/>
      <use xlink:href="#DejaVuSerif-6c" transform="translate(237.414648 0.015625)"/>
      <use xlink:href="#DejaVuSerif-6f" transform="translate(269.39707 0.015625)"/>
      <use xlink:href="#DejaVuSerif-61" transform="translate(329.602148 0.015625)"/>
      <use xlink:href="#DejaVuSerif-64" transform="translate(389.221289 0.015625)"/>
      <use xlink:href="#DejaVuSerif-69" transform="translate(453.234961 0.015625)"/>
      <use xlink:href="#DejaVuSerif-6e" transform="translate(485.217383 0.015625)"/>
      <use xlink:href="#DejaVuSerif-67" transform="translate(549.62168 0.015625)"/>
      <use xlink:href="#DejaVuSerif-2c" transform="translate(613.635352 0.015625)"/>
      <use xlink:href="#DejaVuSerif-20" transform="translate(645.422461 0.015625)"/>
      <use xlink:href="#DejaVuSerif-6d" transform="translate(677.20957 0.015625)"/>
      <use xlink:href="#DejaVuSerif-6f" transform="translate(772.033789 0.015625)"/>
      <use xlink:href="#DejaVuSerif-6c" transform="translate(832.238867 0.015625)"/>
      <use xlink:href="#DejaVuSerif-20" transform="translate(864.221289 0.015625)"/>
      <use xlink:href="#DejaVuSerif-Italic-43" transform="translate(896.008398 0.015625)"/>
      <use xlink:href="#DejaVuSerif-Italic-4f" transform="translate(972.52207 0.015625)"/>
      <use xlink:href="#DejaVuSerif-32" transform="translate(1054.504492 -15.55625) scale(0.7)"/>
      <use xlink:href="#DejaVuSerif-2f" transform="translate(1101.635937 0.015625)"/>
      <use xlink:href="#DejaVuSerif-6d" transform="translate(1135.327344 0.015625)"/>
      <use xlink:href="#DejaVuSerif-6f" transform="translate(1230.151562 0.015625)"/>
      <use xlink:href="#DejaVuSerif-6c" transform="translate(1290.356641 0.015625)"/>
      <use xlink:href="#DejaVuSerif-20" transform="translate(1322.339062 0.015625)"/>
      <use xlink:href="#DejaVuSerif-4d" transform="translate(1354.126172 0.015625)"/>
      <use xlink:href="#DejaVuSerif-45" transform="translate(1456.51875 0.015625)"/>
      <use xlink:href="#DejaVuSerif-41" transform="translate(1529.516797 0.015625)"/>
     </g>
    </g>
   </g>
   <g id="matplotlib.axis_2">
    <g id="ytick_1">
     <g id="line2d_17">
      <path d="M 53.872813 369.036703
L 666.972812 369.036703
" clip-path="url(#p4b4b984b73)" style="fill: none; stroke: #b0b0b0; stroke-opacity: 0.22; stroke-width: 0.8; stroke-linecap: square"/>
     </g>
     <g id="line2d_18">
      <defs>
       <path id="mc5eb3276a0" d="M 0 0
L -4 0
" style="stroke: #000000; stroke-width: 0.8"/>
      </defs>
      <g>
       <use xlink:href="#mc5eb3276a0" x="53.872813" y="369.036703" style="stroke: #000000; stroke-width: 0.8"/>
      </g>
     </g>
     <g id="text_10">
      <!-- −1.5 -->
      <g transform="translate(22.09 372.835921) scale(0.1 -0.1)">
       <defs>
        <path id="DejaVuSerif-2212" d="M 678 2259
L 4684 2259
L 4684 1753
L 678 1753
L 678 2259
z
" transform="scale(0.015625)"/>
       </defs>
       <use xlink:href="#DejaVuSerif-2212"/>
       <use xlink:href="#DejaVuSerif-31" transform="translate(83.789062 0)"/>
       <use xlink:href="#DejaVuSerif-2e" transform="translate(147.412109 0)"/>
       <use xlink:href="#DejaVuSerif-35" transform="translate(179.199219 0)"/>
      </g>
     </g>
    </g>
    <g id="ytick_2">
     <g id="line2d_19">
      <path d="M 53.872813 303.430875
L 666.972812 303.430875
" clip-path="url(#p4b4b984b73)" style="fill: none; stroke: #b0b0b0; stroke-opacity: 0.22; stroke-width: 0.8; stroke-linecap: square"/>
     </g>
     <g id="line2d_20">
      <g>
       <use xlink:href="#mc5eb3276a0" x="53.872813" y="303.430875" style="stroke: #000000; stroke-width: 0.8"/>
      </g>
     </g>
     <g id="text_11">
      <!-- −1.0 -->
      <g transform="translate(22.09 307.230093) scale(0.1 -0.1)">
       <use xlink:href="#DejaVuSerif-2212"/>
       <use xlink:href="#DejaVuSerif-31" transform="translate(83.789062 0)"/>
       <use xlink:href="#DejaVuSerif-2e" transform="translate(147.412109 0)"/>
       <use xlink:href="#DejaVuSerif-30" transform="translate(179.199219 0)"/>
      </g>
     </g>
    </g>
    <g id="ytick_3">
     <g id="line2d_21">
      <path d="M 53.872813 237.825047
L 666.972812 237.825047
" clip-path="url(#p4b4b984b73)" style="fill: none; stroke: #b0b0b0; stroke-opacity: 0.22; stroke-width: 0.8; stroke-linecap: square"/>
     </g>
     <g id="line2d_22">
      <g>
       <use xlink:href="#mc5eb3276a0" x="53.872813" y="237.825047" style="stroke: #000000; stroke-width: 0.8"/>
      </g>
     </g>
     <g id="text_12">
      <!-- −0.5 -->
      <g transform="translate(22.09 241.624266) scale(0.1 -0.1)">
       <use xlink:href="#DejaVuSerif-2212"/>
       <use xlink:href="#DejaVuSerif-30" transform="translate(83.789062 0)"/>
       <use xlink:href="#DejaVuSerif-2e" transform="translate(147.412109 0)"/>
       <use xlink:href="#DejaVuSerif-35" transform="translate(179.199219 0)"/>
      </g>
     </g>
    </g>
    <g id="ytick_4">
     <g id="line2d_23">
      <path d="M 53.872813 172.219219
L 666.972812 172.219219
" clip-path="url(#p4b4b984b73)" style="fill: none; stroke: #b0b0b0; stroke-opacity: 0.22; stroke-width: 0.8; stroke-linecap: square"/>
     </g>
     <g id="line2d_24">
      <g>
       <use xlink:href="#mc5eb3276a0" x="53.872813" y="172.219219" style="stroke: #000000; stroke-width: 0.8"/>
      </g>
     </g>
     <g id="text_13">
      <!-- 0.0 -->
      <g transform="translate(30.469688 176.018438) scale(0.1 -0.1)">
       <use xlink:href="#DejaVuSerif-30"/>
       <use xlink:href="#DejaVuSerif-2e" transform="translate(63.623047 0)"/>
       <use xlink:href="#DejaVuSerif-30" transform="translate(95.410156 0)"/>
      </g>
     </g>
    </g>
    <g id="ytick_5">
     <g id="line2d_25">
      <path d="M 53.872813 106.613391
L 666.972812 106.613391
" clip-path="url(#p4b4b984b73)" style="fill: none; stroke: #b0b0b0; stroke-opacity: 0.22; stroke-width: 0.8; stroke-linecap: square"/>
     </g>
     <g id="line2d_26">
      <g>
       <use xlink:href="#mc5eb3276a0" x="53.872813" y="106.613391" style="stroke: #000000; stroke-width: 0.8"/>
      </g>
     </g>
     <g id="text_14">
      <!-- 0.5 -->
      <g transform="translate(30.469688 110.41261) scale(0.1 -0.1)">
       <use xlink:href="#DejaVuSerif-30"/>
       <use xlink:href="#DejaVuSerif-2e" transform="translate(63.623047 0)"/>
       <use xlink:href="#DejaVuSerif-35" transform="translate(95.410156 0)"/>
      </g>
     </g>
    </g>
    <g id="ytick_6">
     <g id="line2d_27">
      <path d="M 53.872813 41.007563
L 666.972812 41.007563
" clip-path="url(#p4b4b984b73)" style="fill: none; stroke: #b0b0b0; stroke-opacity: 0.22; stroke-width: 0.8; stroke-linecap: square"/>
     </g>
     <g id="line2d_28">
      <g>
       <use xlink:href="#mc5eb3276a0" x="53.872813" y="41.007563" style="stroke: #000000; stroke-width: 0.8"/>
      </g>
     </g>
     <g id="text_15">
      <!-- 1.0 -->
      <g transform="translate(30.469688 44.806782) scale(0.1 -0.1)">
       <use xlink:href="#DejaVuSerif-31"/>
       <use xlink:href="#DejaVuSerif-2e" transform="translate(63.623047 0)"/>
       <use xlink:href="#DejaVuSerif-30" transform="translate(95.410156 0)"/>
      </g>
     </g>
    </g>
    <g id="text_16">
     <!-- $\log_{10}$(model/data) pressure residual -->
     <g transform="translate(15.56 305.562969) rotate(-90) scale(0.11 -0.11)">
      <defs>
       <path id="DejaVuSerif-28" d="M 2041 -997
Q 1281 -656 893 83
Q 506 822 506 1931
Q 506 3044 893 3783
Q 1281 4522 2041 4863
L 2041 4556
Q 1559 4225 1350 3623
Q 1141 3022 1141 1931
Q 1141 844 1350 242
Q 1559 -359 2041 -691
L 2041 -997
z
" transform="scale(0.015625)"/>
       <path id="DejaVuSerif-65" d="M 3469 1600
L 991 1600
L 991 1575
Q 991 903 1244 561
Q 1497 219 1991 219
Q 2369 219 2611 417
Q 2853 616 2950 1006
L 3413 1006
Q 3275 459 2904 184
Q 2534 -91 1931 -91
Q 1203 -91 761 389
Q 319 869 319 1663
Q 319 2450 753 2931
Q 1188 3413 1894 3413
Q 2647 3413 3050 2948
Q 3453 2484 3469 1600
z
M 2791 1931
Q 2772 2513 2545 2808
Q 2319 3103 1894 3103
Q 1497 3103 1269 2806
Q 1041 2509 991 1931
L 2791 1931
z
" transform="scale(0.015625)"/>
       <path id="DejaVuSerif-74" d="M 691 2988
L 184 2988
L 184 3322
L 691 3322
L 691 4353
L 1269 4353
L 1269 3322
L 2350 3322
L 2350 2988
L 1269 2988
L 1269 878
Q 1269 456 1350 337
Q 1431 219 1650 219
Q 1875 219 1978 351
Q 2081 484 2088 781
L 2522 781
Q 2497 328 2275 118
Q 2053 -91 1600 -91
Q 1103 -91 897 129
Q 691 350 691 878
L 691 2988
z
" transform="scale(0.015625)"/>
       <path id="DejaVuSerif-29" d="M 453 -997
L 453 -691
Q 934 -359 1145 242
Q 1356 844 1356 1931
Q 1356 3022 1145 3623
Q 934 4225 453 4556
L 453 4863
Q 1216 4522 1603 3783
Q 1991 3044 1991 1931
Q 1991 822 1603 83
Q 1216 -656 453 -997
z
" transform="scale(0.015625)"/>
       <path id="DejaVuSerif-70" d="M 1313 1825
L 1313 1497
Q 1313 897 1542 583
Q 1772 269 2209 269
Q 2650 269 2876 622
Q 3103 975 3103 1663
Q 3103 2353 2876 2703
Q 2650 3053 2209 3053
Q 1772 3053 1542 2737
Q 1313 2422 1313 1825
z
M 738 2988
L 184 2988
L 184 3322
L 1313 3322
L 1313 2803
Q 1481 3116 1742 3264
Q 2003 3413 2388 3413
Q 3000 3413 3387 2928
Q 3775 2444 3775 1663
Q 3775 881 3387 395
Q 3000 -91 2388 -91
Q 2003 -91 1742 57
Q 1481 206 1313 519
L 1313 -997
L 1856 -997
L 1856 -1331
L 184 -1331
L 184 -997
L 738 -997
L 738 2988
z
" transform="scale(0.015625)"/>
       <path id="DejaVuSerif-72" d="M 3059 3328
L 3059 2497
L 2728 2497
Q 2713 2744 2591 2866
Q 2469 2988 2234 2988
Q 1809 2988 1582 2694
Q 1356 2400 1356 1850
L 1356 331
L 2022 331
L 2022 0
L 263 0
L 263 331
L 781 331
L 781 2994
L 231 2994
L 231 3322
L 1356 3322
L 1356 2731
Q 1525 3078 1790 3245
Q 2056 3413 2438 3413
Q 2578 3413 2733 3391
Q 2888 3369 3059 3328
z
" transform="scale(0.015625)"/>
       <path id="DejaVuSerif-73" d="M 359 184
L 359 959
L 691 959
Q 703 588 923 403
Q 1144 219 1575 219
Q 1963 219 2166 364
Q 2369 509 2369 788
Q 2369 1006 2220 1140
Q 2072 1275 1594 1428
L 1178 1569
Q 750 1706 558 1912
Q 366 2119 366 2438
Q 366 2894 700 3153
Q 1034 3413 1625 3413
Q 1888 3413 2178 3344
Q 2469 3275 2778 3144
L 2778 2419
L 2447 2419
Q 2434 2741 2221 2922
Q 2009 3103 1644 3103
Q 1281 3103 1095 2975
Q 909 2847 909 2591
Q 909 2381 1050 2254
Q 1191 2128 1613 1997
L 2069 1856
Q 2541 1709 2748 1489
Q 2956 1269 2956 922
Q 2956 450 2595 179
Q 2234 -91 1600 -91
Q 1278 -91 972 -22
Q 666 47 359 184
z
" transform="scale(0.015625)"/>
       <path id="DejaVuSerif-75" d="M 2266 3322
L 3341 3322
L 3341 331
L 3884 331
L 3884 0
L 2766 0
L 2766 588
Q 2606 256 2353 82
Q 2100 -91 1766 -91
Q 1213 -91 952 223
Q 691 538 691 1209
L 691 2988
L 172 2988
L 172 3322
L 1269 3322
L 1269 1388
Q 1269 781 1417 556
Q 1566 331 1947 331
Q 2347 331 2556 625
Q 2766 919 2766 1478
L 2766 2988
L 2266 2988
L 2266 3322
z
" transform="scale(0.015625)"/>
      </defs>
      <use xlink:href="#DejaVuSerif-6c" transform="translate(0 0.015625)"/>
      <use xlink:href="#DejaVuSerif-6f" transform="translate(31.982422 0.015625)"/>
      <use xlink:href="#DejaVuSerif-67" transform="translate(92.1875 0.015625)"/>
      <use xlink:href="#DejaVuSerif-31" transform="translate(157.109531 -15.55625) scale(0.7)"/>
      <use xlink:href="#DejaVuSerif-30" transform="translate(201.645664 -15.55625) scale(0.7)"/>
      <use xlink:href="#DejaVuSerif-28" transform="translate(264.581462 0.015625)"/>
      <use xlink:href="#DejaVuSerif-6d" transform="translate(303.595134 0.015625)"/>
      <use xlink:href="#DejaVuSerif-6f" transform="translate(398.419353 0.015625)"/>
      <use xlink:href="#DejaVuSerif-64" transform="translate(458.624431 0.015625)"/>
      <use xlink:href="#DejaVuSerif-65" transform="translate(522.638103 0.015625)"/>
      <use xlink:href="#DejaVuSerif-6c" transform="translate(581.81779 0.015625)"/>
      <use xlink:href="#DejaVuSerif-2f" transform="translate(613.800212 0.015625)"/>
      <use xlink:href="#DejaVuSerif-64" transform="translate(647.491618 0.015625)"/>
      <use xlink:href="#DejaVuSerif-61" transform="translate(711.50529 0.015625)"/>
      <use xlink:href="#DejaVuSerif-74" transform="translate(771.124431 0.015625)"/>
      <use xlink:href="#DejaVuSerif-61" transform="translate(811.309978 0.015625)"/>
      <use xlink:href="#DejaVuSerif-29" transform="translate(870.929118 0.015625)"/>
      <use xlink:href="#DejaVuSerif-20" transform="translate(909.94279 0.015625)"/>
      <use xlink:href="#DejaVuSerif-70" transform="translate(941.729899 0.015625)"/>
      <use xlink:href="#DejaVuSerif-72" transform="translate(1005.743571 0.015625)"/>
      <use xlink:href="#DejaVuSerif-65" transform="translate(1053.546306 0.015625)"/>
      <use xlink:href="#DejaVuSerif-73" transform="translate(1112.725993 0.015625)"/>
      <use xlink:href="#DejaVuSerif-73" transform="translate(1164.044353 0.015625)"/>
      <use xlink:href="#DejaVuSerif-75" transform="translate(1215.362712 0.015625)"/>
      <use xlink:href="#DejaVuSerif-72" transform="translate(1279.767009 0.015625)"/>
      <use xlink:href="#DejaVuSerif-65" transform="translate(1327.569743 0.015625)"/>
      <use xlink:href="#DejaVuSerif-20" transform="translate(1386.749431 0.015625)"/>
      <use xlink:href="#DejaVuSerif-72" transform="translate(1418.53654 0.015625)"/>
      <use xlink:href="#DejaVuSerif-65" transform="translate(1466.339274 0.015625)"/>
      <use xlink:href="#DejaVuSerif-73" transform="translate(1525.518962 0.015625)"/>
      <use xlink:href="#DejaVuSerif-69" transform="translate(1576.837321 0.015625)"/>
      <use xlink:href="#DejaVuSerif-64" transform="translate(1608.819743 0.015625)"/>
      <use xlink:href="#DejaVuSerif-75" transform="translate(1672.833415 0.015625)"/>
      <use xlink:href="#DejaVuSerif-61" transform="translate(1737.237712 0.015625)"/>
      <use xlink:href="#DejaVuSerif-6c" transform="translate(1796.856853 0.015625)"/>
     </g>
    </g>
   </g>
   <g id="line2d_29">
    <path d="M 53.872813 172.219219
L 666.972812 172.219219
" clip-path="url(#p4b4b984b73)" style="fill: none; stroke-dasharray: 1,1.65; stroke-dashoffset: 0; stroke: #000000"/>
   </g>
   <g id="patch_3">
    <path d="M 53.872813 382.857969
L 53.872813 27.077969
" style="fill: none; stroke: #000000; stroke-width: 0.8; stroke-linejoin: miter; stroke-linecap: square"/>
   </g>
   <g id="patch_4">
    <path d="M 53.872813 382.857969
L 666.972812 382.857969
" style="fill: none; stroke: #000000; stroke-width: 0.8; stroke-linejoin: miter; stroke-linecap: square"/>
   </g>
   <g id="text_17">
    <!-- Full-ionic pressure residuals by loading -->
    <g transform="translate(215.919687 17.077969) scale(0.13 -0.13)">
     <defs>
      <path id="DejaVuSerif-Bold-46" d="M 300 0
L 300 378
L 897 378
L 897 4288
L 300 4288
L 300 4666
L 4459 4666
L 4459 3566
L 4031 3566
L 4031 4238
L 2106 4238
L 2106 2741
L 3291 2741
L 3291 3334
L 3719 3334
L 3719 1722
L 3291 1722
L 3291 2316
L 2106 2316
L 2106 378
L 2841 378
L 2841 0
L 300 0
z
" transform="scale(0.015625)"/>
      <path id="DejaVuSerif-Bold-75" d="M 3963 3322
L 3963 378
L 4434 378
L 4434 0
L 2853 0
L 2853 469
Q 2656 172 2400 40
Q 2144 -91 1753 -91
Q 1194 -91 908 239
Q 622 569 622 1209
L 622 2944
L 147 2944
L 147 3322
L 1728 3322
L 1728 1381
Q 1728 763 1831 595
Q 1934 428 2209 428
Q 2544 428 2698 675
Q 2853 922 2853 1459
L 2853 2944
L 2450 2944
L 2450 3322
L 3963 3322
z
" transform="scale(0.015625)"/>
      <path id="DejaVuSerif-Bold-6c" d="M 1797 378
L 2272 378
L 2272 0
L 219 0
L 219 378
L 691 378
L 691 4488
L 219 4488
L 219 4863
L 1797 4863
L 1797 378
z
" transform="scale(0.015625)"/>
      <path id="DejaVuSerif-Bold-2d" d="M 347 2138
L 2309 2138
L 2309 1294
L 347 1294
L 347 2138
z
" transform="scale(0.015625)"/>
      <path id="DejaVuSerif-Bold-69" d="M 588 4263
Q 588 4516 763 4689
Q 938 4863 1191 4863
Q 1438 4863 1611 4689
Q 1784 4516 1784 4263
Q 1784 4016 1611 3842
Q 1438 3669 1191 3669
Q 938 3669 763 3841
Q 588 4013 588 4263
z
M 1797 378
L 2272 378
L 2272 0
L 219 0
L 219 378
L 691 378
L 691 2944
L 219 2944
L 219 3322
L 1797 3322
L 1797 378
z
" transform="scale(0.015625)"/>
      <path id="DejaVuSerif-Bold-6f" d="M 2138 263
Q 2488 263 2630 563
Q 2772 863 2772 1663
Q 2772 2463 2631 2761
Q 2491 3059 2138 3059
Q 1784 3059 1640 2757
Q 1497 2456 1497 1663
Q 1497 869 1640 566
Q 1784 263 2138 263
z
M 2138 -91
Q 1259 -91 761 376
Q 263 844 263 1663
Q 263 2484 761 2948
Q 1259 3413 2138 3413
Q 3019 3413 3516 2948
Q 4013 2484 4013 1663
Q 4013 844 3514 376
Q 3016 -91 2138 -91
z
" transform="scale(0.015625)"/>
      <path id="DejaVuSerif-Bold-6e" d="M 219 0
L 219 378
L 691 378
L 691 2944
L 219 2944
L 219 3322
L 1797 3322
L 1797 2853
Q 1997 3150 2253 3281
Q 2509 3413 2900 3413
Q 3459 3413 3745 3083
Q 4031 2753 4031 2113
L 4031 378
L 4506 378
L 4506 0
L 2522 0
L 2522 378
L 2925 378
L 2925 2144
Q 2925 2566 2817 2730
Q 2709 2894 2444 2894
Q 2109 2894 1953 2648
Q 1797 2403 1797 1869
L 1797 378
L 2203 378
L 2203 0
L 219 0
z
" transform="scale(0.015625)"/>
      <path id="DejaVuSerif-Bold-63" d="M 3609 1038
Q 3491 469 3123 189
Q 2756 -91 2125 -91
Q 1238 -91 750 368
Q 263 828 263 1663
Q 263 2488 744 2950
Q 1225 3413 2081 3413
Q 2428 3413 2781 3347
Q 3134 3281 3500 3150
L 3500 2228
L 3150 2228
Q 3100 2650 2903 2854
Q 2706 3059 2350 3059
Q 1888 3059 1692 2746
Q 1497 2434 1497 1663
Q 1497 909 1687 586
Q 1878 263 2309 263
Q 2644 263 2845 463
Q 3047 663 3091 1038
L 3609 1038
z
" transform="scale(0.015625)"/>
      <path id="DejaVuSerif-Bold-20" transform="scale(0.015625)"/>
      <path id="DejaVuSerif-Bold-70" d="M 1728 1825
L 1728 1497
Q 1728 916 1876 656
Q 2025 397 2356 397
Q 2697 397 2836 672
Q 2975 947 2975 1663
Q 2975 2378 2836 2651
Q 2697 2925 2356 2925
Q 2025 2925 1876 2665
Q 1728 2406 1728 1825
z
M 622 2944
L 147 2944
L 147 3322
L 1728 3322
L 1728 2900
Q 1869 3159 2106 3286
Q 2344 3413 2694 3413
Q 3403 3413 3811 2945
Q 4219 2478 4219 1663
Q 4219 847 3811 378
Q 3403 -91 2694 -91
Q 2344 -91 2106 36
Q 1869 163 1728 422
L 1728 -953
L 2241 -953
L 2241 -1331
L 147 -1331
L 147 -953
L 622 -953
L 622 2944
z
" transform="scale(0.015625)"/>
      <path id="DejaVuSerif-Bold-72" d="M 3438 3359
L 3438 2369
L 3084 2369
Q 3066 2634 2941 2764
Q 2816 2894 2578 2894
Q 2216 2894 2006 2575
Q 1797 2256 1797 1691
L 1797 378
L 2400 378
L 2400 0
L 219 0
L 219 378
L 691 378
L 691 2944
L 184 2944
L 184 3322
L 1797 3322
L 1797 2731
Q 1959 3078 2226 3245
Q 2494 3413 2881 3413
Q 2978 3413 3117 3398
Q 3256 3384 3438 3359
z
" transform="scale(0.015625)"/>
      <path id="DejaVuSerif-Bold-65" d="M 2566 1875
Q 2566 2531 2444 2795
Q 2322 3059 2028 3059
Q 1744 3059 1620 2800
Q 1497 2541 1497 1931
L 1497 1875
L 2566 1875
z
M 3781 1503
L 1497 1503
L 1497 1478
Q 1497 834 1690 548
Q 1884 263 2316 263
Q 2675 263 2897 453
Q 3119 644 3181 1006
L 3700 1006
Q 3566 441 3166 175
Q 2766 -91 2047 -91
Q 1184 -91 723 364
Q 263 819 263 1663
Q 263 2488 734 2950
Q 1206 3413 2047 3413
Q 2872 3413 3312 2927
Q 3753 2441 3781 1503
z
" transform="scale(0.015625)"/>
      <path id="DejaVuSerif-Bold-73" d="M 300 97
L 300 1025
L 653 1025
Q 697 653 931 458
Q 1166 263 1569 263
Q 1906 263 2086 380
Q 2266 497 2266 716
Q 2266 916 2152 1025
Q 2038 1134 1709 1216
L 1253 1331
Q 738 1459 506 1698
Q 275 1938 275 2344
Q 275 2884 650 3148
Q 1025 3413 1806 3413
Q 2100 3413 2433 3364
Q 2766 3316 3169 3213
L 3169 2375
L 2816 2375
Q 2788 2716 2573 2887
Q 2359 3059 1959 3059
Q 1622 3059 1448 2951
Q 1275 2844 1275 2638
Q 1275 2469 1375 2372
Q 1475 2275 1734 2209
L 2188 2094
Q 2841 1928 3091 1684
Q 3341 1441 3341 1006
Q 3341 444 2939 176
Q 2538 -91 1691 -91
Q 1381 -91 1034 -44
Q 688 3 300 97
z
" transform="scale(0.015625)"/>
      <path id="DejaVuSerif-Bold-64" d="M 2747 1497
L 2747 1825
Q 2747 2406 2597 2665
Q 2447 2925 2119 2925
Q 1775 2925 1636 2651
Q 1497 2378 1497 1663
Q 1497 947 1637 672
Q 1778 397 2119 397
Q 2447 397 2597 656
Q 2747 916 2747 1497
z
M 3853 378
L 4325 378
L 4325 0
L 2747 0
L 2747 422
Q 2606 163 2367 36
Q 2128 -91 1778 -91
Q 1072 -91 667 378
Q 263 847 263 1663
Q 263 2481 667 2947
Q 1072 3413 1778 3413
Q 2128 3413 2367 3286
Q 2606 3159 2747 2900
L 2747 4488
L 2272 4488
L 2272 4863
L 3853 4863
L 3853 378
z
" transform="scale(0.015625)"/>
      <path id="DejaVuSerif-Bold-61" d="M 3525 2041
L 3525 378
L 4000 378
L 4000 0
L 2419 0
L 2419 422
Q 2200 159 1931 34
Q 1663 -91 1319 -91
Q 809 -91 536 182
Q 263 456 263 966
Q 263 1525 655 1803
Q 1047 2081 1838 2081
L 2419 2081
L 2419 2278
Q 2419 2681 2228 2873
Q 2038 3066 1638 3066
Q 1306 3066 1126 2930
Q 947 2794 872 2484
L 519 2484
L 519 3200
Q 816 3306 1134 3359
Q 1453 3413 1806 3413
Q 2697 3413 3111 3081
Q 3525 2750 3525 2041
z
M 2419 1044
L 2419 1709
L 2003 1709
Q 1694 1709 1528 1540
Q 1363 1372 1363 1056
Q 1363 741 1483 584
Q 1603 428 1850 428
Q 2106 428 2262 597
Q 2419 766 2419 1044
z
" transform="scale(0.015625)"/>
      <path id="DejaVuSerif-Bold-62" d="M 622 378
L 622 4488
L 147 4488
L 147 4863
L 1728 4863
L 1728 2900
Q 1869 3159 2106 3286
Q 2344 3413 2694 3413
Q 3403 3413 3811 2945
Q 4219 2478 4219 1663
Q 4219 847 3811 378
Q 3403 -91 2694 -91
Q 2344 -91 2106 36
Q 1869 163 1728 422
L 1728 0
L 147 0
L 147 378
L 622 378
z
M 1728 1497
Q 1728 916 1876 656
Q 2025 397 2356 397
Q 2697 397 2836 672
Q 2975 947 2975 1663
Q 2975 2378 2836 2651
Q 2697 2925 2356 2925
Q 2025 2925 1876 2665
Q 1728 2406 1728 1825
L 1728 1497
z
" transform="scale(0.015625)"/>
      <path id="DejaVuSerif-Bold-79" d="M 1997 -750
Q 1847 -1116 1634 -1269
Q 1422 -1422 1063 -1422
Q 909 -1422 721 -1387
Q 534 -1353 313 -1288
L 313 -594
L 666 -597
Q 675 -838 779 -953
Q 884 -1069 1094 -1069
Q 1297 -1069 1422 -958
Q 1547 -847 1672 -538
L 1722 -422
L 275 2944
L -84 2944
L -84 3322
L 1831 3322
L 1831 2944
L 1434 2944
L 2278 978
L 3066 2944
L 2625 2944
L 2625 3322
L 3872 3322
L 3872 2944
L 3469 2944
L 1997 -750
z
" transform="scale(0.015625)"/>
      <path id="DejaVuSerif-Bold-67" d="M 3853 2944
L 3853 44
Q 3853 -656 3354 -1039
Q 2856 -1422 1947 -1422
Q 1616 -1422 1275 -1370
Q 934 -1319 575 -1216
L 575 -422
L 928 -422
Q 975 -750 1192 -909
Q 1409 -1069 1813 -1069
Q 2325 -1069 2536 -823
Q 2747 -578 2747 44
L 2747 422
Q 2606 163 2367 36
Q 2128 -91 1778 -91
Q 1072 -91 667 378
Q 263 847 263 1663
Q 263 2481 667 2947
Q 1072 3413 1778 3413
Q 2128 3413 2367 3286
Q 2606 3159 2747 2900
L 2747 3322
L 4325 3322
L 4325 2944
L 3853 2944
z
M 2747 1825
Q 2747 2406 2597 2665
Q 2447 2925 2119 2925
Q 1775 2925 1636 2651
Q 1497 2378 1497 1663
Q 1497 947 1637 672
Q 1778 397 2119 397
Q 2447 397 2597 656
Q 2747 916 2747 1497
L 2747 1825
z
" transform="scale(0.015625)"/>
     </defs>
     <use xlink:href="#DejaVuSerif-Bold-46"/>
     <use xlink:href="#DejaVuSerif-Bold-75" transform="translate(69.246094 0)"/>
     <use xlink:href="#DejaVuSerif-Bold-6c" transform="translate(141.951172 0)"/>
     <use xlink:href="#DejaVuSerif-Bold-6c" transform="translate(179.939453 0)"/>
     <use xlink:href="#DejaVuSerif-Bold-2d" transform="translate(217.927734 0)"/>
     <use xlink:href="#DejaVuSerif-Bold-69" transform="translate(259.431641 0)"/>
     <use xlink:href="#DejaVuSerif-Bold-6f" transform="translate(297.419922 0)"/>
     <use xlink:href="#DejaVuSerif-Bold-6e" transform="translate(364.119141 0)"/>
     <use xlink:href="#DejaVuSerif-Bold-69" transform="translate(436.824219 0)"/>
     <use xlink:href="#DejaVuSerif-Bold-63" transform="translate(474.8125 0)"/>
     <use xlink:href="#DejaVuSerif-Bold-20" transform="translate(535.701172 0)"/>
     <use xlink:href="#DejaVuSerif-Bold-70" transform="translate(570.515625 0)"/>
     <use xlink:href="#DejaVuSerif-Bold-72" transform="translate(640.4375 0)"/>
     <use xlink:href="#DejaVuSerif-Bold-65" transform="translate(693.123047 0)"/>
     <use xlink:href="#DejaVuSerif-Bold-73" transform="translate(756.746094 0)"/>
     <use xlink:href="#DejaVuSerif-Bold-73" transform="translate(813.044922 0)"/>
     <use xlink:href="#DejaVuSerif-Bold-75" transform="translate(869.34375 0)"/>
     <use xlink:href="#DejaVuSerif-Bold-72" transform="translate(942.048828 0)"/>
     <use xlink:href="#DejaVuSerif-Bold-65" transform="translate(994.734375 0)"/>
     <use xlink:href="#DejaVuSerif-Bold-20" transform="translate(1058.357422 0)"/>
     <use xlink:href="#DejaVuSerif-Bold-72" transform="translate(1093.171875 0)"/>
     <use xlink:href="#DejaVuSerif-Bold-65" transform="translate(1145.857422 0)"/>
     <use xlink:href="#DejaVuSerif-Bold-73" transform="translate(1209.480469 0)"/>
     <use xlink:href="#DejaVuSerif-Bold-69" transform="translate(1265.779297 0)"/>
     <use xlink:href="#DejaVuSerif-Bold-64" transform="translate(1303.767578 0)"/>
     <use xlink:href="#DejaVuSerif-Bold-75" transform="translate(1373.689453 0)"/>
     <use xlink:href="#DejaVuSerif-Bold-61" transform="translate(1446.394531 0)"/>
     <use xlink:href="#DejaVuSerif-Bold-6c" transform="translate(1511.189453 0)"/>
     <use xlink:href="#DejaVuSerif-Bold-73" transform="translate(1549.177734 0)"/>
     <use xlink:href="#DejaVuSerif-Bold-20" transform="translate(1605.476562 0)"/>
     <use xlink:href="#DejaVuSerif-Bold-62" transform="translate(1640.291016 0)"/>
     <use xlink:href="#DejaVuSerif-Bold-79" transform="translate(1710.212891 0)"/>
     <use xlink:href="#DejaVuSerif-Bold-20" transform="translate(1768.318359 0)"/>
     <use xlink:href="#DejaVuSerif-Bold-6c" transform="translate(1803.132812 0)"/>
     <use xlink:href="#DejaVuSerif-Bold-6f" transform="translate(1841.121094 0)"/>
     <use xlink:href="#DejaVuSerif-Bold-61" transform="translate(1907.820312 0)"/>
     <use xlink:href="#DejaVuSerif-Bold-64" transform="translate(1972.615234 0)"/>
     <use xlink:href="#DejaVuSerif-Bold-69" transform="translate(2042.537109 0)"/>
     <use xlink:href="#DejaVuSerif-Bold-6e" transform="translate(2080.525391 0)"/>
     <use xlink:href="#DejaVuSerif-Bold-67" transform="translate(2153.230469 0)"/>
    </g>
   </g>
   <g id="legend_1">
    <g id="text_18">
     <!-- Literature source -->
     <g transform="translate(61.072813 41.876406) scale(0.1 -0.1)">
      <defs>
       <path id="DejaVuSerif-4c" d="M 353 0
L 353 331
L 947 331
L 947 4331
L 353 4331
L 353 4666
L 2175 4666
L 2175 4331
L 1581 4331
L 1581 384
L 3713 384
L 3713 1166
L 4097 1166
L 4097 0
L 353 0
z
" transform="scale(0.015625)"/>
       <path id="DejaVuSerif-63" d="M 3291 997
Q 3169 466 2822 187
Q 2475 -91 1925 -91
Q 1200 -91 759 389
Q 319 869 319 1663
Q 319 2459 759 2936
Q 1200 3413 1925 3413
Q 2241 3413 2553 3339
Q 2866 3266 3181 3116
L 3181 2266
L 2847 2266
Q 2781 2703 2561 2903
Q 2341 3103 1931 3103
Q 1466 3103 1228 2742
Q 991 2381 991 1663
Q 991 944 1227 581
Q 1463 219 1931 219
Q 2303 219 2525 412
Q 2747 606 2828 997
L 3291 997
z
" transform="scale(0.015625)"/>
      </defs>
      <use xlink:href="#DejaVuSerif-4c"/>
      <use xlink:href="#DejaVuSerif-69" transform="translate(66.40625 0)"/>
      <use xlink:href="#DejaVuSerif-74" transform="translate(98.388672 0)"/>
      <use xlink:href="#DejaVuSerif-65" transform="translate(138.574219 0)"/>
      <use xlink:href="#DejaVuSerif-72" transform="translate(197.753906 0)"/>
      <use xlink:href="#DejaVuSerif-61" transform="translate(245.556641 0)"/>
      <use xlink:href="#DejaVuSerif-74" transform="translate(305.175781 0)"/>
      <use xlink:href="#DejaVuSerif-75" transform="translate(345.361328 0)"/>
      <use xlink:href="#DejaVuSerif-72" transform="translate(409.765625 0)"/>
      <use xlink:href="#DejaVuSerif-65" transform="translate(457.568359 0)"/>
      <use xlink:href="#DejaVuSerif-20" transform="translate(516.748047 0)"/>
      <use xlink:href="#DejaVuSerif-73" transform="translate(548.535156 0)"/>
      <use xlink:href="#DejaVuSerif-6f" transform="translate(599.853516 0)"/>
      <use xlink:href="#DejaVuSerif-75" transform="translate(660.058594 0)"/>
      <use xlink:href="#DejaVuSerif-72" transform="translate(724.462891 0)"/>
      <use xlink:href="#DejaVuSerif-63" transform="translate(772.265625 0)"/>
      <use xlink:href="#DejaVuSerif-65" transform="translate(828.271484 0)"/>
     </g>
    </g>
    <g id="PathCollection_7">
     <g>
      <use xlink:href="#md65b88892e" x="86.782344" y="51.934844" style="fill: #1f77b4; fill-opacity: 0.7; stroke: #1f77b4; stroke-opacity: 0.7"/>
     </g>
    </g>
    <g id="text_19">
     <!-- Aronu -->
     <g transform="translate(101.182344 54.034844) scale(0.08 -0.08)">
      <use xlink:href="#DejaVuSerif-41"/>
      <use xlink:href="#DejaVuSerif-72" transform="translate(72.216797 0)"/>
      <use xlink:href="#DejaVuSerif-6f" transform="translate(120.019531 0)"/>
      <use xlink:href="#DejaVuSerif-6e" transform="translate(180.224609 0)"/>
      <use xlink:href="#DejaVuSerif-75" transform="translate(244.628906 0)"/>
     </g>
    </g>
    <g id="PathCollection_8">
     <g>
      <use xlink:href="#m4de2517ff4" x="86.782344" y="63.677344" style="fill: #ff7f0e; fill-opacity: 0.7; stroke: #ff7f0e; stroke-opacity: 0.7"/>
     </g>
    </g>
    <g id="text_20">
     <!-- Hilliard -->
     <g transform="translate(101.182344 65.777344) scale(0.08 -0.08)">
      <defs>
       <path id="DejaVuSerif-48" d="M 353 0
L 353 331
L 947 331
L 947 4331
L 353 4331
L 353 4666
L 2175 4666
L 2175 4331
L 1581 4331
L 1581 2719
L 4000 2719
L 4000 4331
L 3406 4331
L 3406 4666
L 5228 4666
L 5228 4331
L 4634 4331
L 4634 331
L 5228 331
L 5228 0
L 3406 0
L 3406 331
L 4000 331
L 4000 2338
L 1581 2338
L 1581 331
L 2175 331
L 2175 0
L 353 0
z
" transform="scale(0.015625)"/>
      </defs>
      <use xlink:href="#DejaVuSerif-48"/>
      <use xlink:href="#DejaVuSerif-69" transform="translate(87.207031 0)"/>
      <use xlink:href="#DejaVuSerif-6c" transform="translate(119.189453 0)"/>
      <use xlink:href="#DejaVuSerif-6c" transform="translate(151.171875 0)"/>
      <use xlink:href="#DejaVuSerif-69" transform="translate(183.154297 0)"/>
      <use xlink:href="#DejaVuSerif-61" transform="translate(215.136719 0)"/>
      <use xlink:href="#DejaVuSerif-72" transform="translate(274.755859 0)"/>
      <use xlink:href="#DejaVuSerif-64" transform="translate(322.558594 0)"/>
     </g>
    </g>
    <g id="PathCollection_9">
     <g>
      <use xlink:href="#md3a72ac7d0" x="86.782344" y="75.419844" style="fill: #2ca02c; fill-opacity: 0.7; stroke: #2ca02c; stroke-opacity: 0.7"/>
     </g>
    </g>
    <g id="text_21">
     <!-- Idris -->
     <g transform="translate(101.182344 77.519844) scale(0.08 -0.08)">
      <defs>
       <path id="DejaVuSerif-49" d="M 1581 331
L 2175 331
L 2175 0
L 353 0
L 353 331
L 947 331
L 947 4331
L 353 4331
L 353 4666
L 2175 4666
L 2175 4331
L 1581 4331
L 1581 331
z
" transform="scale(0.015625)"/>
      </defs>
      <use xlink:href="#DejaVuSerif-49"/>
      <use xlink:href="#DejaVuSerif-64" transform="translate(39.501953 0)"/>
      <use xlink:href="#DejaVuSerif-72" transform="translate(103.515625 0)"/>
      <use xlink:href="#DejaVuSerif-69" transform="translate(151.318359 0)"/>
      <use xlink:href="#DejaVuSerif-73" transform="translate(183.300781 0)"/>
     </g>
    </g>
    <g id="PathCollection_10">
     <g>
      <use xlink:href="#mcc042aff2b" x="86.782344" y="87.162344" style="fill: #d62728; fill-opacity: 0.7; stroke: #d62728; stroke-opacity: 0.7"/>
     </g>
    </g>
    <g id="text_22">
     <!-- Jou -->
     <g transform="translate(101.182344 89.262344) scale(0.08 -0.08)">
      <defs>
       <path id="DejaVuSerif-4a" d="M -538 -1119
L -538 -384
L -181 -384
Q -172 -694 -34 -845
Q 103 -997 378 -997
Q 750 -997 897 -762
Q 1044 -528 1044 153
L 1044 4331
L 319 4331
L 319 4666
L 2272 4666
L 2272 4331
L 1678 4331
L 1678 128
Q 1678 -644 1368 -987
Q 1059 -1331 372 -1331
Q 150 -1331 -79 -1278
Q -309 -1225 -538 -1119
z
" transform="scale(0.015625)"/>
      </defs>
      <use xlink:href="#DejaVuSerif-4a"/>
      <use xlink:href="#DejaVuSerif-6f" transform="translate(40.087891 0)"/>
      <use xlink:href="#DejaVuSerif-75" transform="translate(100.292969 0)"/>
     </g>
    </g>
    <g id="PathCollection_11">
     <g>
      <use xlink:href="#mcaf3a1f241" x="86.782344" y="98.904844" style="fill: #9467bd; fill-opacity: 0.7; stroke: #9467bd; stroke-opacity: 0.7"/>
     </g>
    </g>
    <g id="text_23">
     <!-- Mamun -->
     <g transform="translate(101.182344 101.004844) scale(0.08 -0.08)">
      <use xlink:href="#DejaVuSerif-4d"/>
      <use xlink:href="#DejaVuSerif-61" transform="translate(102.392578 0)"/>
      <use xlink:href="#DejaVuSerif-6d" transform="translate(162.011719 0)"/>
      <use xlink:href="#DejaVuSerif-75" transform="translate(256.835938 0)"/>
      <use xlink:href="#DejaVuSerif-6e" transform="translate(321.240234 0)"/>
     </g>
    </g>
    <g id="PathCollection_12">
     <g>
      <use xlink:href="#m80d4e796aa" x="86.782344" y="110.647344" style="fill: #8c564b; fill-opacity: 0.7; stroke: #8c564b; stroke-opacity: 0.7"/>
     </g>
    </g>
    <g id="text_24">
     <!-- Xu -->
     <g transform="translate(101.182344 112.747344) scale(0.08 -0.08)">
      <defs>
       <path id="DejaVuSerif-58" d="M 2119 1997
L 978 331
L 1581 331
L 1581 0
L 38 0
L 38 331
L 575 331
L 1919 2291
L 556 4331
L 56 4331
L 56 4666
L 1906 4666
L 1906 4331
L 1356 4331
L 2356 2828
L 3384 4331
L 2784 4331
L 2784 4666
L 4313 4666
L 4313 4331
L 3788 4331
L 2553 2534
L 4025 331
L 4525 331
L 4525 0
L 2675 0
L 2675 331
L 3231 331
L 2119 1997
z
" transform="scale(0.015625)"/>
      </defs>
      <use xlink:href="#DejaVuSerif-58"/>
      <use xlink:href="#DejaVuSerif-75" transform="translate(71.191406 0)"/>
     </g>
    </g>
   </g>
  </g>
 </g>
 <defs>
  <clipPath id="p4b4b984b73">
   <rect x="53.872813" y="27.077969" width="613.1" height="355.78"/>
  </clipPath>
 </defs>
</svg>
