<?xml version="1.0" encoding="utf-8" standalone="no"?>
<!DOCTYPE svg PUBLIC "-//W3C//DTD SVG 1.1//EN"
  "http://www.w3.org/Graphics/SVG/1.1/DTD/svg11.dtd">
<svg xmlns:xlink="http://www.w3.org/1999/xlink" width="690.961423pt" height="462.422094pt" viewBox="0 0 690.961423 462.422094" xmlns="http://www.w3.org/2000/svg" version="1.1">
 <metadata>
  <rdf:RDF xmlns:dc="http://purl.org/dc/elements/1.1/" xmlns:cc="http://creativecommons.org/ns#" xmlns:rdf="http://www.w3.org/1999/02/22-rdf-syntax-ns#">
   <cc:Work>
    <dc:type rdf:resource="http://purl.org/dc/dcmitype/StillImage"/>
    <dc:format>image/svg+xml</dc:format>
    <dc:creator>
     <cc:Agent>
      <dc:title>Matplotlib v3.10.9, https://matplotlib.org/</dc:title>
     </cc:Agent>
    </dc:creator>
   </cc:Work>
  </rdf:RDF>
 </metadata>
 <defs>
  <style type="text/css">*{stroke-linejoin: round; stroke-linecap: butt}</style>
 </defs>
 <g id="figure_1">
  <g id="patch_1">
   <path d="M 0 462.422094
L 690.961423 462.422094
L 690.961423 0
L 0 0
z
" style="fill: #ffffff"/>
  </g>
  <g id="axes_1">
   <g id="patch_2">
    <path d="M 52.402344 423.653969
L 591.538344 423.653969
L 591.538344 27.077969
L 52.402344 27.077969
z
" style="fill: #ffffff"/>
   </g>
   <g id="matplotlib.axis_1">
    <g id="xtick_1">
     <g id="line2d_1">
      <path d="M 52.402344 423.653969
L 52.402344 27.077969
" clip-path="url(#p459f309393)" style="fill: none; stroke: #b0b0b0; stroke-opacity: 0.22; stroke-width: 0.8; stroke-linecap: square"/>
     </g>
     <g id="line2d_2">
      <defs>
       <path id="m2afb703988" d="M 0 0
L 0 3.5
" style="stroke: #000000; stroke-width: 0.8"/>
      </defs>
      <g>
       <use xlink:href="#m2afb703988" x="52.402344" y="423.653969" style="stroke: #000000; stroke-width: 0.8"/>
      </g>
     </g>
     <g id="text_1">
      <!-- 0.0 -->
      <g transform="translate(44.450781 438.252406) scale(0.1 -0.1)">
       <defs>
        <path id="DejaVuSerif-30" d="M 2034 219
Q 2513 219 2750 744
Q 2988 1269 2988 2328
Q 2988 3391 2750 3916
Q 2513 4441 2034 4441
Q 1556 4441 1318 3916
Q 1081 3391 1081 2328
Q 1081 1269 1318 744
Q 1556 219 2034 219
z
M 2034 -91
Q 1275 -91 848 546
Q 422 1184 422 2328
Q 422 3475 848 4112
Q 1275 4750 2034 4750
Q 2797 4750 3222 4112
Q 3647 3475 3647 2328
Q 3647 1184 3222 546
Q 2797 -91 2034 -91
z
" transform="scale(0.015625)"/>
        <path id="DejaVuSerif-2e" d="M 603 325
Q 603 500 722 622
Q 841 744 1019 744
Q 1191 744 1312 622
Q 1434 500 1434 325
Q 1434 153 1312 31
Q 1191 -91 1019 -91
Q 841 -91 722 29
Q 603 150 603 325
z
" transform="scale(0.015625)"/>
       </defs>
       <use xlink:href="#DejaVuSerif-30"/>
       <use xlink:href="#DejaVuSerif-2e" transform="translate(63.623047 0)"/>
       <use xlink:href="#DejaVuSerif-30" transform="translate(95.410156 0)"/>
      </g>
     </g>
    </g>
    <g id="xtick_2">
     <g id="line2d_3">
      <path d="M 140.785295 423.653969
L 140.785295 27.077969
" clip-path="url(#p459f309393)" style="fill: none; stroke: #b0b0b0; stroke-opacity: 0.22; stroke-width: 0.8; stroke-linecap: square"/>
     </g>
     <g id="line2d_4">
      <g>
       <use xlink:href="#m2afb703988" x="140.785295" y="423.653969" style="stroke: #000000; stroke-width: 0.8"/>
      </g>
     </g>
     <g id="text_2">
      <!-- 0.2 -->
      <g transform="translate(132.833732 438.252406) scale(0.1 -0.1)">
       <defs>
        <path id="DejaVuSerif-32" d="M 819 3553
L 469 3553
L 469 4384
Q 803 4563 1142 4656
Q 1481 4750 1806 4750
Q 2534 4750 2956 4397
Q 3378 4044 3378 3438
Q 3378 2753 2422 1800
Q 2347 1728 2309 1691
L 1131 513
L 3078 513
L 3078 1088
L 3444 1088
L 3444 0
L 434 0
L 434 341
L 1850 1753
Q 2319 2222 2519 2614
Q 2719 3006 2719 3438
Q 2719 3909 2473 4175
Q 2228 4441 1797 4441
Q 1350 4441 1106 4219
Q 863 3997 819 3553
z
" transform="scale(0.015625)"/>
       </defs>
       <use xlink:href="#DejaVuSerif-30"/>
       <use xlink:href="#DejaVuSerif-2e" transform="translate(63.623047 0)"/>
       <use xlink:href="#DejaVuSerif-32" transform="translate(95.410156 0)"/>
      </g>
     </g>
    </g>
    <g id="xtick_3">
     <g id="line2d_5">
      <path d="M 229.168245 423.653969
L 229.168245 27.077969
" clip-path="url(#p459f309393)" style="fill: none; stroke: #b0b0b0; stroke-opacity: 0.22; stroke-width: 0.8; stroke-linecap: square"/>
     </g>
     <g id="line2d_6">
      <g>
       <use xlink:href="#m2afb703988" x="229.168245" y="423.653969" style="stroke: #000000; stroke-width: 0.8"/>
      </g>
     </g>
     <g id="text_3">
      <!-- 0.4 -->
      <g transform="translate(221.216683 438.252406) scale(0.1 -0.1)">
       <defs>
        <path id="DejaVuSerif-34" d="M 2234 1581
L 2234 4063
L 641 1581
L 2234 1581
z
M 3609 0
L 1484 0
L 1484 331
L 2234 331
L 2234 1247
L 197 1247
L 197 1588
L 2241 4750
L 2859 4750
L 2859 1581
L 3750 1581
L 3750 1247
L 2859 1247
L 2859 331
L 3609 331
L 3609 0
z
" transform="scale(0.015625)"/>
       </defs>
       <use xlink:href="#DejaVuSerif-30"/>
       <use xlink:href="#DejaVuSerif-2e" transform="translate(63.623047 0)"/>
       <use xlink:href="#DejaVuSerif-34" transform="translate(95.410156 0)"/>
      </g>
     </g>
    </g>
    <g id="xtick_4">
     <g id="line2d_7">
      <path d="M 317.551196 423.653969
L 317.551196 27.077969
" clip-path="url(#p459f309393)" style="fill: none; stroke: #b0b0b0; stroke-opacity: 0.22; stroke-width: 0.8; stroke-linecap: square"/>
     </g>
     <g id="line2d_8">
      <g>
       <use xlink:href="#m2afb703988" x="317.551196" y="423.653969" style="stroke: #000000; stroke-width: 0.8"/>
      </g>
     </g>
     <g id="text_4">
      <!-- 0.6 -->
      <g transform="translate(309.599634 438.252406) scale(0.1 -0.1)">
       <defs>
        <path id="DejaVuSerif-36" d="M 2094 219
Q 2534 219 2771 542
Q 3009 866 3009 1472
Q 3009 2078 2771 2401
Q 2534 2725 2094 2725
Q 1647 2725 1412 2412
Q 1178 2100 1178 1509
Q 1178 888 1415 553
Q 1653 219 2094 219
z
M 1075 2569
Q 1288 2803 1556 2918
Q 1825 3034 2163 3034
Q 2859 3034 3264 2615
Q 3669 2197 3669 1472
Q 3669 763 3233 336
Q 2797 -91 2069 -91
Q 1278 -91 853 498
Q 428 1088 428 2181
Q 428 3406 931 4078
Q 1434 4750 2350 4750
Q 2597 4750 2869 4703
Q 3141 4656 3425 4563
L 3425 3794
L 3072 3794
Q 3034 4109 2831 4275
Q 2628 4441 2284 4441
Q 1678 4441 1381 3981
Q 1084 3522 1075 2569
z
" transform="scale(0.015625)"/>
       </defs>
       <use xlink:href="#DejaVuSerif-30"/>
       <use xlink:href="#DejaVuSerif-2e" transform="translate(63.623047 0)"/>
       <use xlink:href="#DejaVuSerif-36" transform="translate(95.410156 0)"/>
      </g>
     </g>
    </g>
    <g id="xtick_5">
     <g id="line2d_9">
      <path d="M 405.934147 423.653969
L 405.934147 27.077969
" clip-path="url(#p459f309393)" style="fill: none; stroke: #b0b0b0; stroke-opacity: 0.22; stroke-width: 0.8; stroke-linecap: square"/>
     </g>
     <g id="line2d_10">
      <g>
       <use xlink:href="#m2afb703988" x="405.934147" y="423.653969" style="stroke: #000000; stroke-width: 0.8"/>
      </g>
     </g>
     <g id="text_5">
      <!-- 0.8 -->
      <g transform="translate(397.982585 438.252406) scale(0.1 -0.1)">
       <defs>
        <path id="DejaVuSerif-38" d="M 2981 1275
Q 2981 1775 2732 2051
Q 2484 2328 2034 2328
Q 1584 2328 1336 2051
Q 1088 1775 1088 1275
Q 1088 772 1336 495
Q 1584 219 2034 219
Q 2484 219 2732 495
Q 2981 772 2981 1275
z
M 2853 3541
Q 2853 3966 2637 4203
Q 2422 4441 2034 4441
Q 1650 4441 1433 4203
Q 1216 3966 1216 3541
Q 1216 3113 1433 2875
Q 1650 2638 2034 2638
Q 2422 2638 2637 2875
Q 2853 3113 2853 3541
z
M 2516 2484
Q 3047 2413 3344 2092
Q 3641 1772 3641 1275
Q 3641 619 3225 264
Q 2809 -91 2034 -91
Q 1263 -91 845 264
Q 428 619 428 1275
Q 428 1772 725 2092
Q 1022 2413 1556 2484
Q 1084 2569 832 2842
Q 581 3116 581 3541
Q 581 4103 968 4426
Q 1356 4750 2034 4750
Q 2713 4750 3100 4426
Q 3488 4103 3488 3541
Q 3488 3116 3236 2842
Q 2984 2569 2516 2484
z
" transform="scale(0.015625)"/>
       </defs>
       <use xlink:href="#DejaVuSerif-30"/>
       <use xlink:href="#DejaVuSerif-2e" transform="translate(63.623047 0)"/>
       <use xlink:href="#DejaVuSerif-38" transform="translate(95.410156 0)"/>
      </g>
     </g>
    </g>
    <g id="xtick_6">
     <g id="line2d_11">
      <path d="M 494.317098 423.653969
L 494.317098 27.077969
" clip-path="url(#p459f309393)" style="fill: none; stroke: #b0b0b0; stroke-opacity: 0.22; stroke-width: 0.8; stroke-linecap: square"/>
     </g>
     <g id="line2d_12">
      <g>
       <use xlink:href="#m2afb703988" x="494.317098" y="423.653969" style="stroke: #000000; stroke-width: 0.8"/>
      </g>
     </g>
     <g id="text_6">
      <!-- 1.0 -->
      <g transform="translate(486.365535 438.252406) scale(0.1 -0.1)">
       <defs>
        <path id="DejaVuSerif-31" d="M 909 0
L 909 331
L 1722 331
L 1722 4213
L 781 3603
L 781 4013
L 1919 4750
L 2350 4750
L 2350 331
L 3163 331
L 3163 0
L 909 0
z
" transform="scale(0.015625)"/>
       </defs>
       <use xlink:href="#DejaVuSerif-31"/>
       <use xlink:href="#DejaVuSerif-2e" transform="translate(63.623047 0)"/>
       <use xlink:href="#DejaVuSerif-30" transform="translate(95.410156 0)"/>
      </g>
     </g>
    </g>
    <g id="xtick_7">
     <g id="line2d_13">
      <path d="M 582.700049 423.653969
L 582.700049 27.077969
" clip-path="url(#p459f309393)" style="fill: none; stroke: #b0b0b0; stroke-opacity: 0.22; stroke-width: 0.8; stroke-linecap: square"/>
     </g>
     <g id="line2d_14">
      <g>
       <use xlink:href="#m2afb703988" x="582.700049" y="423.653969" style="stroke: #000000; stroke-width: 0.8"/>
      </g>
     </g>
     <g id="text_7">
      <!-- 1.2 -->
      <g transform="translate(574.748486 438.252406) scale(0.1 -0.1)">
       <use xlink:href="#DejaVuSerif-31"/>
       <use xlink:href="#DejaVuSerif-2e" transform="translate(63.623047 0)"/>
       <use xlink:href="#DejaVuSerif-32" transform="translate(95.410156 0)"/>
      </g>
     </g>
    </g>
    <g id="text_8">
     <!-- $CO_2$ loading, mol $CO_2$/mol MEA -->
     <g transform="translate(233.860344 452.692094) scale(0.11 -0.11)">
      <defs>
       <path id="DejaVuSerif-Italic-43" d="M 4300 1234
Q 3966 581 3414 245
Q 2863 -91 2119 -91
Q 1663 -91 1303 65
Q 944 222 700 525
Q 419 875 334 1320
Q 250 1766 359 2328
Q 572 3416 1330 4083
Q 2088 4750 3116 4750
Q 3497 4750 3908 4650
Q 4319 4550 4775 4347
L 4569 3272
L 4216 3272
Q 4213 3859 3919 4137
Q 3625 4416 2997 4416
Q 2250 4416 1762 3886
Q 1275 3356 1075 2328
Q 875 1303 1156 773
Q 1438 244 2184 244
Q 2706 244 3092 492
Q 3478 741 3725 1234
L 4300 1234
z
" transform="scale(0.015625)"/>
       <path id="DejaVuSerif-Italic-4f" d="M 2219 244
Q 2984 244 3478 770
Q 3972 1297 4172 2328
Q 4372 3363 4084 3889
Q 3797 4416 3031 4416
Q 2263 4416 1769 3889
Q 1275 3363 1075 2328
Q 875 1297 1162 770
Q 1450 244 2219 244
z
M 2153 -91
Q 1678 -91 1311 65
Q 944 222 700 525
Q 419 875 334 1319
Q 250 1763 359 2328
Q 469 2894 725 3339
Q 981 3784 1400 4134
Q 1766 4441 2191 4595
Q 2616 4750 3097 4750
Q 4113 4750 4608 4084
Q 5103 3419 4891 2328
Q 4781 1769 4522 1320
Q 4263 872 3847 525
Q 3481 219 3056 64
Q 2631 -91 2153 -91
z
" transform="scale(0.015625)"/>
       <path id="DejaVuSerif-20" transform="scale(0.015625)"/>
       <path id="DejaVuSerif-6c" d="M 1313 331
L 1856 331
L 1856 0
L 184 0
L 184 331
L 738 331
L 738 4531
L 184 4531
L 184 4863
L 1313 4863
L 1313 331
z
" transform="scale(0.015625)"/>
       <path id="DejaVuSerif-6f" d="M 1925 219
Q 2388 219 2623 584
Q 2859 950 2859 1663
Q 2859 2375 2623 2739
Q 2388 3103 1925 3103
Q 1463 3103 1227 2739
Q 991 2375 991 1663
Q 991 950 1228 584
Q 1466 219 1925 219
z
M 1925 -91
Q 1200 -91 759 389
Q 319 869 319 1663
Q 319 2456 758 2934
Q 1197 3413 1925 3413
Q 2653 3413 3092 2934
Q 3531 2456 3531 1663
Q 3531 869 3092 389
Q 2653 -91 1925 -91
z
" transform="scale(0.015625)"/>
       <path id="DejaVuSerif-61" d="M 2547 1044
L 2547 1747
L 1806 1747
Q 1378 1747 1168 1562
Q 959 1378 959 997
Q 959 650 1171 447
Q 1384 244 1747 244
Q 2106 244 2326 466
Q 2547 688 2547 1044
z
M 3122 2075
L 3122 331
L 3634 331
L 3634 0
L 2547 0
L 2547 359
Q 2356 128 2106 18
Q 1856 -91 1522 -91
Q 969 -91 644 203
Q 319 497 319 997
Q 319 1513 691 1797
Q 1063 2081 1741 2081
L 2547 2081
L 2547 2309
Q 2547 2688 2317 2895
Q 2088 3103 1672 3103
Q 1328 3103 1125 2947
Q 922 2791 872 2484
L 575 2484
L 575 3156
Q 875 3284 1158 3348
Q 1441 3413 1709 3413
Q 2400 3413 2761 3070
Q 3122 2728 3122 2075
z
" transform="scale(0.015625)"/>
       <path id="DejaVuSerif-64" d="M 3359 331
L 3909 331
L 3909 0
L 2784 0
L 2784 519
Q 2616 206 2355 57
Q 2094 -91 1709 -91
Q 1097 -91 708 395
Q 319 881 319 1663
Q 319 2444 706 2928
Q 1094 3413 1709 3413
Q 2094 3413 2355 3264
Q 2616 3116 2784 2803
L 2784 4531
L 2241 4531
L 2241 4863
L 3359 4863
L 3359 331
z
M 2784 1497
L 2784 1825
Q 2784 2422 2554 2737
Q 2325 3053 1888 3053
Q 1444 3053 1217 2703
Q 991 2353 991 1663
Q 991 975 1217 622
Q 1444 269 1888 269
Q 2325 269 2554 583
Q 2784 897 2784 1497
z
" transform="scale(0.015625)"/>
       <path id="DejaVuSerif-69" d="M 622 4353
Q 622 4497 726 4603
Q 831 4709 978 4709
Q 1122 4709 1226 4603
Q 1331 4497 1331 4353
Q 1331 4206 1228 4103
Q 1125 4000 978 4000
Q 831 4000 726 4103
Q 622 4206 622 4353
z
M 1356 331
L 1900 331
L 1900 0
L 231 0
L 231 331
L 781 331
L 781 2988
L 231 2988
L 231 3322
L 1356 3322
L 1356 331
z
" transform="scale(0.015625)"/>
       <path id="DejaVuSerif-6e" d="M 263 0
L 263 331
L 781 331
L 781 2988
L 231 2988
L 231 3322
L 1356 3322
L 1356 2731
Q 1516 3069 1770 3241
Q 2025 3413 2363 3413
Q 2913 3413 3172 3097
Q 3431 2781 3431 2113
L 3431 331
L 3944 331
L 3944 0
L 2356 0
L 2356 331
L 2853 331
L 2853 1931
Q 2853 2541 2703 2767
Q 2553 2994 2175 2994
Q 1775 2994 1565 2701
Q 1356 2409 1356 1850
L 1356 331
L 1856 331
L 1856 0
L 263 0
z
" transform="scale(0.015625)"/>
       <path id="DejaVuSerif-67" d="M 3359 2988
L 3359 72
Q 3359 -644 2965 -1033
Q 2572 -1422 1844 -1422
Q 1516 -1422 1216 -1362
Q 916 -1303 641 -1184
L 641 -488
L 941 -488
Q 997 -813 1206 -963
Q 1416 -1113 1806 -1113
Q 2313 -1113 2548 -827
Q 2784 -541 2784 72
L 2784 519
Q 2616 206 2355 57
Q 2094 -91 1709 -91
Q 1097 -91 708 395
Q 319 881 319 1663
Q 319 2444 706 2928
Q 1094 3413 1709 3413
Q 2094 3413 2355 3264
Q 2616 3116 2784 2803
L 2784 3322
L 3909 3322
L 3909 2988
L 3359 2988
z
M 2784 1825
Q 2784 2422 2554 2737
Q 2325 3053 1888 3053
Q 1444 3053 1217 2703
Q 991 2353 991 1663
Q 991 975 1217 622
Q 1444 269 1888 269
Q 2325 269 2554 583
Q 2784 897 2784 1497
L 2784 1825
z
" transform="scale(0.015625)"/>
       <path id="DejaVuSerif-2c" d="M 231 -622
Q 525 -406 662 -114
Q 800 178 800 594
L 800 709
L 1416 709
Q 1391 175 1164 -208
Q 938 -591 481 -872
L 231 -622
z
" transform="scale(0.015625)"/>
       <path id="DejaVuSerif-6d" d="M 3316 2675
Q 3481 3041 3739 3227
Q 3997 3413 4341 3413
Q 4863 3413 5119 3089
Q 5375 2766 5375 2113
L 5375 331
L 5894 331
L 5894 0
L 4300 0
L 4300 331
L 4800 331
L 4800 2047
Q 4800 2556 4650 2772
Q 4500 2988 4153 2988
Q 3769 2988 3567 2697
Q 3366 2406 3366 1850
L 3366 331
L 3866 331
L 3866 0
L 2291 0
L 2291 331
L 2791 331
L 2791 2069
Q 2791 2566 2641 2777
Q 2491 2988 2144 2988
Q 1759 2988 1557 2697
Q 1356 2406 1356 1850
L 1356 331
L 1856 331
L 1856 0
L 263 0
L 263 331
L 781 331
L 781 2994
L 231 2994
L 231 3322
L 1356 3322
L 1356 2731
Q 1516 3063 1762 3238
Q 2009 3413 2322 3413
Q 2709 3413 2968 3220
Q 3228 3028 3316 2675
z
" transform="scale(0.015625)"/>
       <path id="DejaVuSerif-2f" d="M 1656 4666
L 2156 4666
L 500 -594
L 0 -594
L 1656 4666
z
" transform="scale(0.015625)"/>
       <path id="DejaVuSerif-4d" d="M 353 0
L 353 331
L 947 331
L 947 4331
L 319 4331
L 319 4666
L 1678 4666
L 3316 1344
L 4953 4666
L 6228 4666
L 6228 4331
L 5606 4331
L 5606 331
L 6203 331
L 6203 0
L 4378 0
L 4378 331
L 4972 331
L 4972 3938
L 3372 684
L 2931 684
L 1331 3938
L 1331 331
L 1925 331
L 1925 0
L 353 0
z
" transform="scale(0.015625)"/>
       <path id="DejaVuSerif-45" d="M 353 0
L 353 331
L 947 331
L 947 4331
L 353 4331
L 353 4666
L 4109 4666
L 4109 3628
L 3725 3628
L 3725 4281
L 1581 4281
L 1581 2719
L 3109 2719
L 3109 3303
L 3494 3303
L 3494 1753
L 3109 1753
L 3109 2338
L 1581 2338
L 1581 384
L 3775 384
L 3775 1038
L 4159 1038
L 4159 0
L 353 0
z
" transform="scale(0.015625)"/>
       <path id="DejaVuSerif-41" d="M 1281 1691
L 2994 1691
L 2138 3909
L 1281 1691
z
M -38 0
L -38 331
L 372 331
L 2034 4666
L 2559 4666
L 4225 331
L 4684 331
L 4684 0
L 2988 0
L 2988 331
L 3506 331
L 3116 1356
L 1153 1356
L 763 331
L 1275 331
L 1275 0
L -38 0
z
" transform="scale(0.015625)"/>
      </defs>
      <use xlink:href="#DejaVuSerif-Italic-43" transform="translate(0 0.015625)"/>
      <use xlink:href="#DejaVuSerif-Italic-4f" transform="translate(76.513672 0.015625)"/>
      <use xlink:href="#DejaVuSerif-32" transform="translate(158.496094 -15.55625) scale(0.7)"/>
      <use xlink:href="#DejaVuSerif-20" transform="translate(205.627539 0.015625)"/>
      <use xlink:href="#DejaVuSerif-6c" transform="translate(237.414648 0.015625)"/>
      <use xlink:href="#DejaVuSerif-6f" transform="translate(269.39707 0.015625)"/>
      <use xlink:href="#DejaVuSerif-61" transform="translate(329.602148 0.015625)"/>
      <use xlink:href="#DejaVuSerif-64" transform="translate(389.221289 0.015625)"/>
      <use xlink:href="#DejaVuSerif-69" transform="translate(453.234961 0.015625)"/>
      <use xlink:href="#DejaVuSerif-6e" transform="translate(485.217383 0.015625)"/>
      <use xlink:href="#DejaVuSerif-67" transform="translate(549.62168 0.015625)"/>
      <use xlink:href="#DejaVuSerif-2c" transform="translate(613.635352 0.015625)"/>
      <use xlink:href="#DejaVuSerif-20" transform="translate(645.422461 0.015625)"/>
      <use xlink:href="#DejaVuSerif-6d" transform="translate(677.20957 0.015625)"/>
      <use xlink:href="#DejaVuSerif-6f" transform="translate(772.033789 0.015625)"/>
      <use xlink:href="#DejaVuSerif-6c" transform="translate(832.238867 0.015625)"/>
      <use xlink:href="#DejaVuSerif-20" transform="translate(864.221289 0.015625)"/>
      <use xlink:href="#DejaVuSerif-Italic-43" transform="translate(896.008398 0.015625)"/>
      <use xlink:href="#DejaVuSerif-Italic-4f" transform="translate(972.52207 0.015625)"/>
      <use xlink:href="#DejaVuSerif-32" transform="translate(1054.504492 -15.55625) scale(0.7)"/>
      <use xlink:href="#DejaVuSerif-2f" transform="translate(1101.635937 0.015625)"/>
      <use xlink:href="#DejaVuSerif-6d" transform="translate(1135.327344 0.015625)"/>
      <use xlink:href="#DejaVuSerif-6f" transform="translate(1230.151562 0.015625)"/>
      <use xlink:href="#DejaVuSerif-6c" transform="translate(1290.356641 0.015625)"/>
      <use xlink:href="#DejaVuSerif-20" transform="translate(1322.339062 0.015625)"/>
      <use xlink:href="#DejaVuSerif-4d" transform="translate(1354.126172 0.015625)"/>
      <use xlink:href="#DejaVuSerif-45" transform="translate(1456.51875 0.015625)"/>
      <use xlink:href="#DejaVuSerif-41" transform="translate(1529.516797 0.015625)"/>
     </g>
    </g>
   </g>
   <g id="matplotlib.axis_2">
    <g id="ytick_1">
     <g id="line2d_15">
      <path d="M 52.402344 386.395292
L 591.538344 386.395292
" clip-path="url(#p459f309393)" style="fill: none; stroke: #b0b0b0; stroke-opacity: 0.22; stroke-width: 0.8; stroke-linecap: square"/>
     </g>
     <g id="line2d_16">
      <defs>
       <path id="m8e441cfbad" d="M 0 0
L -3.5 0
" style="stroke: #000000; stroke-width: 0.8"/>
      </defs>
      <g>
       <use xlink:href="#m8e441cfbad" x="52.402344" y="386.395292" style="stroke: #000000; stroke-width: 0.8"/>
      </g>
     </g>
     <g id="text_9">
      <!-- $\mathdefault{10^{-2}}$ -->
      <g transform="translate(22.002344 390.19451) scale(0.1 -0.1)">
       <defs>
        <path id="DejaVuSerif-2212" d="M 678 2259
L 4684 2259
L 4684 1753
L 678 1753
L 678 2259
z
" transform="scale(0.015625)"/>
       </defs>
       <use xlink:href="#DejaVuSerif-31" transform="translate(0 0.7125)"/>
       <use xlink:href="#DejaVuSerif-30" transform="translate(63.623047 0.7125)"/>
       <use xlink:href="#DejaVuSerif-2212" transform="translate(128.154453 37.046875) scale(0.7)"/>
       <use xlink:href="#DejaVuSerif-32" transform="translate(186.806797 37.046875) scale(0.7)"/>
      </g>
     </g>
    </g>
    <g id="ytick_2">
     <g id="line2d_17">
      <path d="M 52.402344 262.624646
L 591.538344 262.624646
" clip-path="url(#p459f309393)" style="fill: none; stroke: #b0b0b0; stroke-opacity: 0.22; stroke-width: 0.8; stroke-linecap: square"/>
     </g>
     <g id="line2d_18">
      <g>
       <use xlink:href="#m8e441cfbad" x="52.402344" y="262.624646" style="stroke: #000000; stroke-width: 0.8"/>
      </g>
     </g>
     <g id="text_10">
      <!-- $\mathdefault{10^{-1}}$ -->
      <g transform="translate(22.002344 266.423865) scale(0.1 -0.1)">
       <use xlink:href="#DejaVuSerif-31" transform="translate(0 0.7125)"/>
       <use xlink:href="#DejaVuSerif-30" transform="translate(63.623047 0.7125)"/>
       <use xlink:href="#DejaVuSerif-2212" transform="translate(128.154453 37.046875) scale(0.7)"/>
       <use xlink:href="#DejaVuSerif-31" transform="translate(186.806797 37.046875) scale(0.7)"/>
      </g>
     </g>
    </g>
    <g id="ytick_3">
     <g id="line2d_19">
      <path d="M 52.402344 138.854
L 591.538344 138.854
" clip-path="url(#p459f309393)" style="fill: none; stroke: #b0b0b0; stroke-opacity: 0.22; stroke-width: 0.8; stroke-linecap: square"/>
     </g>
     <g id="line2d_20">
      <g>
       <use xlink:href="#m8e441cfbad" x="52.402344" y="138.854" style="stroke: #000000; stroke-width: 0.8"/>
      </g>
     </g>
     <g id="text_11">
      <!-- $\mathdefault{10^{0}}$ -->
      <g transform="translate(27.802344 142.653219) scale(0.1 -0.1)">
       <use xlink:href="#DejaVuSerif-31" transform="translate(0 0.7125)"/>
       <use xlink:href="#DejaVuSerif-30" transform="translate(63.623047 0.7125)"/>
       <use xlink:href="#DejaVuSerif-30" transform="translate(128.154453 37.046875) scale(0.7)"/>
      </g>
     </g>
    </g>
    <g id="ytick_4">
     <g id="line2d_21">
      <defs>
       <path id="m2a75089604" d="M 0 0
L -2 0
" style="stroke: #000000; stroke-width: 0.6"/>
      </defs>
      <g>
       <use xlink:href="#m2a75089604" x="52.402344" y="423.653969" style="stroke: #000000; stroke-width: 0.6"/>
      </g>
     </g>
    </g>
    <g id="ytick_5">
     <g id="line2d_22">
      <g>
       <use xlink:href="#m2a75089604" x="52.402344" y="413.853655" style="stroke: #000000; stroke-width: 0.6"/>
      </g>
     </g>
    </g>
    <g id="ytick_6">
     <g id="line2d_23">
      <g>
       <use xlink:href="#m2a75089604" x="52.402344" y="405.567607" style="stroke: #000000; stroke-width: 0.6"/>
      </g>
     </g>
    </g>
    <g id="ytick_7">
     <g id="line2d_24">
      <g>
       <use xlink:href="#m2a75089604" x="52.402344" y="398.389907" style="stroke: #000000; stroke-width: 0.6"/>
      </g>
     </g>
    </g>
    <g id="ytick_8">
     <g id="line2d_25">
      <g>
       <use xlink:href="#m2a75089604" x="52.402344" y="392.058726" style="stroke: #000000; stroke-width: 0.6"/>
      </g>
     </g>
    </g>
    <g id="ytick_9">
     <g id="line2d_26">
      <g>
       <use xlink:href="#m2a75089604" x="52.402344" y="349.136615" style="stroke: #000000; stroke-width: 0.6"/>
      </g>
     </g>
    </g>
    <g id="ytick_10">
     <g id="line2d_27">
      <g>
       <use xlink:href="#m2a75089604" x="52.402344" y="327.341686" style="stroke: #000000; stroke-width: 0.6"/>
      </g>
     </g>
    </g>
    <g id="ytick_11">
     <g id="line2d_28">
      <g>
       <use xlink:href="#m2a75089604" x="52.402344" y="311.877938" style="stroke: #000000; stroke-width: 0.6"/>
      </g>
     </g>
    </g>
    <g id="ytick_12">
     <g id="line2d_29">
      <g>
       <use xlink:href="#m2a75089604" x="52.402344" y="299.883323" style="stroke: #000000; stroke-width: 0.6"/>
      </g>
     </g>
    </g>
    <g id="ytick_13">
     <g id="line2d_30">
      <g>
       <use xlink:href="#m2a75089604" x="52.402344" y="290.083009" style="stroke: #000000; stroke-width: 0.6"/>
      </g>
     </g>
    </g>
    <g id="ytick_14">
     <g id="line2d_31">
      <g>
       <use xlink:href="#m2a75089604" x="52.402344" y="281.796961" style="stroke: #000000; stroke-width: 0.6"/>
      </g>
     </g>
    </g>
    <g id="ytick_15">
     <g id="line2d_32">
      <g>
       <use xlink:href="#m2a75089604" x="52.402344" y="274.619261" style="stroke: #000000; stroke-width: 0.6"/>
      </g>
     </g>
    </g>
    <g id="ytick_16">
     <g id="line2d_33">
      <g>
       <use xlink:href="#m2a75089604" x="52.402344" y="268.28808" style="stroke: #000000; stroke-width: 0.6"/>
      </g>
     </g>
    </g>
    <g id="ytick_17">
     <g id="line2d_34">
      <g>
       <use xlink:href="#m2a75089604" x="52.402344" y="225.365969" style="stroke: #000000; stroke-width: 0.6"/>
      </g>
     </g>
    </g>
    <g id="ytick_18">
     <g id="line2d_35">
      <g>
       <use xlink:href="#m2a75089604" x="52.402344" y="203.57104" style="stroke: #000000; stroke-width: 0.6"/>
      </g>
     </g>
    </g>
    <g id="ytick_19">
     <g id="line2d_36">
      <g>
       <use xlink:href="#m2a75089604" x="52.402344" y="188.107292" style="stroke: #000000; stroke-width: 0.6"/>
      </g>
     </g>
    </g>
    <g id="ytick_20">
     <g id="line2d_37">
      <g>
       <use xlink:href="#m2a75089604" x="52.402344" y="176.112677" style="stroke: #000000; stroke-width: 0.6"/>
      </g>
     </g>
    </g>
    <g id="ytick_21">
     <g id="line2d_38">
      <g>
       <use xlink:href="#m2a75089604" x="52.402344" y="166.312363" style="stroke: #000000; stroke-width: 0.6"/>
      </g>
     </g>
    </g>
    <g id="ytick_22">
     <g id="line2d_39">
      <g>
       <use xlink:href="#m2a75089604" x="52.402344" y="158.026315" style="stroke: #000000; stroke-width: 0.6"/>
      </g>
     </g>
    </g>
    <g id="ytick_23">
     <g id="line2d_40">
      <g>
       <use xlink:href="#m2a75089604" x="52.402344" y="150.848615" style="stroke: #000000; stroke-width: 0.6"/>
      </g>
     </g>
    </g>
    <g id="ytick_24">
     <g id="line2d_41">
      <g>
       <use xlink:href="#m2a75089604" x="52.402344" y="144.517434" style="stroke: #000000; stroke-width: 0.6"/>
      </g>
     </g>
    </g>
    <g id="ytick_25">
     <g id="line2d_42">
      <g>
       <use xlink:href="#m2a75089604" x="52.402344" y="101.595323" style="stroke: #000000; stroke-width: 0.6"/>
      </g>
     </g>
    </g>
    <g id="ytick_26">
     <g id="line2d_43">
      <g>
       <use xlink:href="#m2a75089604" x="52.402344" y="79.800394" style="stroke: #000000; stroke-width: 0.6"/>
      </g>
     </g>
    </g>
    <g id="ytick_27">
     <g id="line2d_44">
      <g>
       <use xlink:href="#m2a75089604" x="52.402344" y="64.336646" style="stroke: #000000; stroke-width: 0.6"/>
      </g>
     </g>
    </g>
    <g id="ytick_28">
     <g id="line2d_45">
      <g>
       <use xlink:href="#m2a75089604" x="52.402344" y="52.342031" style="stroke: #000000; stroke-width: 0.6"/>
      </g>
     </g>
    </g>
    <g id="ytick_29">
     <g id="line2d_46">
      <g>
       <use xlink:href="#m2a75089604" x="52.402344" y="42.541717" style="stroke: #000000; stroke-width: 0.6"/>
      </g>
     </g>
    </g>
    <g id="ytick_30">
     <g id="line2d_47">
      <g>
       <use xlink:href="#m2a75089604" x="52.402344" y="34.255669" style="stroke: #000000; stroke-width: 0.6"/>
      </g>
     </g>
    </g>
    <g id="ytick_31">
     <g id="line2d_48">
      <g>
       <use xlink:href="#m2a75089604" x="52.402344" y="27.077969" style="stroke: #000000; stroke-width: 0.6"/>
      </g>
     </g>
    </g>
    <g id="text_12">
     <!-- Reported species concentration, mol/kg -->
     <g transform="translate(15.558281 336.461672) rotate(-90) scale(0.11 -0.11)">
      <defs>
       <path id="DejaVuSerif-52" d="M 3066 2316
Q 3284 2256 3442 2114
Q 3600 1972 3725 1716
L 4403 331
L 4972 331
L 4972 0
L 3872 0
L 3144 1484
Q 2934 1916 2759 2042
Q 2584 2169 2278 2169
L 1581 2169
L 1581 331
L 2241 331
L 2241 0
L 353 0
L 353 331
L 947 331
L 947 4331
L 353 4331
L 353 4666
L 2719 4666
Q 3400 4666 3770 4341
Q 4141 4016 4141 3419
Q 4141 2938 3870 2661
Q 3600 2384 3066 2316
z
M 1581 2503
L 2503 2503
Q 2975 2503 3200 2726
Q 3425 2950 3425 3419
Q 3425 3888 3200 4109
Q 2975 4331 2503 4331
L 1581 4331
L 1581 2503
z
" transform="scale(0.015625)"/>
       <path id="DejaVuSerif-65" d="M 3469 1600
L 991 1600
L 991 1575
Q 991 903 1244 561
Q 1497 219 1991 219
Q 2369 219 2611 417
Q 2853 616 2950 1006
L 3413 1006
Q 3275 459 2904 184
Q 2534 -91 1931 -91
Q 1203 -91 761 389
Q 319 869 319 1663
Q 319 2450 753 2931
Q 1188 3413 1894 3413
Q 2647 3413 3050 2948
Q 3453 2484 3469 1600
z
M 2791 1931
Q 2772 2513 2545 2808
Q 2319 3103 1894 3103
Q 1497 3103 1269 2806
Q 1041 2509 991 1931
L 2791 1931
z
" transform="scale(0.015625)"/>
       <path id="DejaVuSerif-70" d="M 1313 1825
L 1313 1497
Q 1313 897 1542 583
Q 1772 269 2209 269
Q 2650 269 2876 622
Q 3103 975 3103 1663
Q 3103 2353 2876 2703
Q 2650 3053 2209 3053
Q 1772 3053 1542 2737
Q 1313 2422 1313 1825
z
M 738 2988
L 184 2988
L 184 3322
L 1313 3322
L 1313 2803
Q 1481 3116 1742 3264
Q 2003 3413 2388 3413
Q 3000 3413 3387 2928
Q 3775 2444 3775 1663
Q 3775 881 3387 395
Q 3000 -91 2388 -91
Q 2003 -91 1742 57
Q 1481 206 1313 519
L 1313 -997
L 1856 -997
L 1856 -1331
L 184 -1331
L 184 -997
L 738 -997
L 738 2988
z
" transform="scale(0.015625)"/>
       <path id="DejaVuSerif-72" d="M 3059 3328
L 3059 2497
L 2728 2497
Q 2713 2744 2591 2866
Q 2469 2988 2234 2988
Q 1809 2988 1582 2694
Q 1356 2400 1356 1850
L 1356 331
L 2022 331
L 2022 0
L 263 0
L 263 331
L 781 331
L 781 2994
L 231 2994
L 231 3322
L 1356 3322
L 1356 2731
Q 1525 3078 1790 3245
Q 2056 3413 2438 3413
Q 2578 3413 2733 3391
Q 2888 3369 3059 3328
z
" transform="scale(0.015625)"/>
       <path id="DejaVuSerif-74" d="M 691 2988
L 184 2988
L 184 3322
L 691 3322
L 691 4353
L 1269 4353
L 1269 3322
L 2350 3322
L 2350 2988
L 1269 2988
L 1269 878
Q 1269 456 1350 337
Q 1431 219 1650 219
Q 1875 219 1978 351
Q 2081 484 2088 781
L 2522 781
Q 2497 328 2275 118
Q 2053 -91 1600 -91
Q 1103 -91 897 129
Q 691 350 691 878
L 691 2988
z
" transform="scale(0.015625)"/>
       <path id="DejaVuSerif-73" d="M 359 184
L 359 959
L 691 959
Q 703 588 923 403
Q 1144 219 1575 219
Q 1963 219 2166 364
Q 2369 509 2369 788
Q 2369 1006 2220 1140
Q 2072 1275 1594 1428
L 1178 1569
Q 750 1706 558 1912
Q 366 2119 366 2438
Q 366 2894 700 3153
Q 1034 3413 1625 3413
Q 1888 3413 2178 3344
Q 2469 3275 2778 3144
L 2778 2419
L 2447 2419
Q 2434 2741 2221 2922
Q 2009 3103 1644 3103
Q 1281 3103 1095 2975
Q 909 2847 909 2591
Q 909 2381 1050 2254
Q 1191 2128 1613 1997
L 2069 1856
Q 2541 1709 2748 1489
Q 2956 1269 2956 922
Q 2956 450 2595 179
Q 2234 -91 1600 -91
Q 1278 -91 972 -22
Q 666 47 359 184
z
" transform="scale(0.015625)"/>
       <path id="DejaVuSerif-63" d="M 3291 997
Q 3169 466 2822 187
Q 2475 -91 1925 -91
Q 1200 -91 759 389
Q 319 869 319 1663
Q 319 2459 759 2936
Q 1200 3413 1925 3413
Q 2241 3413 2553 3339
Q 2866 3266 3181 3116
L 3181 2266
L 2847 2266
Q 2781 2703 2561 2903
Q 2341 3103 1931 3103
Q 1466 3103 1228 2742
Q 991 2381 991 1663
Q 991 944 1227 581
Q 1463 219 1931 219
Q 2303 219 2525 412
Q 2747 606 2828 997
L 3291 997
z
" transform="scale(0.015625)"/>
       <path id="DejaVuSerif-6b" d="M 1831 0
L 219 0
L 219 331
L 738 331
L 738 4531
L 184 4531
L 184 4863
L 1313 4863
L 1313 1697
L 2713 2988
L 2234 2988
L 2234 3322
L 3738 3322
L 3738 2988
L 3169 2988
L 2181 2075
L 3444 331
L 3922 331
L 3922 0
L 2284 0
L 2284 331
L 2759 331
L 1766 1697
L 1313 1275
L 1313 331
L 1831 331
L 1831 0
z
" transform="scale(0.015625)"/>
      </defs>
      <use xlink:href="#DejaVuSerif-52"/>
      <use xlink:href="#DejaVuSerif-65" transform="translate(75.292969 0)"/>
      <use xlink:href="#DejaVuSerif-70" transform="translate(134.472656 0)"/>
      <use xlink:href="#DejaVuSerif-6f" transform="translate(198.486328 0)"/>
      <use xlink:href="#DejaVuSerif-72" transform="translate(258.691406 0)"/>
      <use xlink:href="#DejaVuSerif-74" transform="translate(306.494141 0)"/>
      <use xlink:href="#DejaVuSerif-65" transform="translate(346.679688 0)"/>
      <use xlink:href="#DejaVuSerif-64" transform="translate(405.859375 0)"/>
      <use xlink:href="#DejaVuSerif-20" transform="translate(469.873047 0)"/>
      <use xlink:href="#DejaVuSerif-73" transform="translate(501.660156 0)"/>
      <use xlink:href="#DejaVuSerif-70" transform="translate(552.978516 0)"/>
      <use xlink:href="#DejaVuSerif-65" transform="translate(616.992188 0)"/>
      <use xlink:href="#DejaVuSerif-63" transform="translate(676.171875 0)"/>
      <use xlink:href="#DejaVuSerif-69" transform="translate(732.177734 0)"/>
      <use xlink:href="#DejaVuSerif-65" transform="translate(764.160156 0)"/>
      <use xlink:href="#DejaVuSerif-73" transform="translate(823.339844 0)"/>
      <use xlink:href="#DejaVuSerif-20" transform="translate(874.658203 0)"/>
      <use xlink:href="#DejaVuSerif-63" transform="translate(906.445312 0)"/>
      <use xlink:href="#DejaVuSerif-6f" transform="translate(962.451172 0)"/>
      <use xlink:href="#DejaVuSerif-6e" transform="translate(1022.65625 0)"/>
      <use xlink:href="#DejaVuSerif-63" transform="translate(1087.060547 0)"/>
      <use xlink:href="#DejaVuSerif-65" transform="translate(1143.066406 0)"/>
      <use xlink:href="#DejaVuSerif-6e" transform="translate(1202.246094 0)"/>
      <use xlink:href="#DejaVuSerif-74" transform="translate(1266.650391 0)"/>
      <use xlink:href="#DejaVuSerif-72" transform="translate(1306.835938 0)"/>
      <use xlink:href="#DejaVuSerif-61" transform="translate(1354.638672 0)"/>
      <use xlink:href="#DejaVuSerif-74" transform="translate(1414.257812 0)"/>
      <use xlink:href="#DejaVuSerif-69" transform="translate(1454.443359 0)"/>
      <use xlink:href="#DejaVuSerif-6f" transform="translate(1486.425781 0)"/>
      <use xlink:href="#DejaVuSerif-6e" transform="translate(1546.630859 0)"/>
      <use xlink:href="#DejaVuSerif-2c" transform="translate(1611.035156 0)"/>
      <use xlink:href="#DejaVuSerif-20" transform="translate(1642.822266 0)"/>
      <use xlink:href="#DejaVuSerif-6d" transform="translate(1674.609375 0)"/>
      <use xlink:href="#DejaVuSerif-6f" transform="translate(1769.433594 0)"/>
      <use xlink:href="#DejaVuSerif-6c" transform="translate(1829.638672 0)"/>
      <use xlink:href="#DejaVuSerif-2f" transform="translate(1861.621094 0)"/>
      <use xlink:href="#DejaVuSerif-6b" transform="translate(1895.3125 0)"/>
      <use xlink:href="#DejaVuSerif-67" transform="translate(1955.908203 0)"/>
     </g>
    </g>
   </g>
   <g id="line2d_49">
    <defs>
     <path id="me8cba11c4f" d="M 0 3
C 0.795609 3 1.55874 2.683901 2.12132 2.12132
C 2.683901 1.55874 3 0.795609 3 0
C 3 -0.795609 2.683901 -1.55874 2.12132 -2.12132
C 1.55874 -2.683901 0.795609 -3 0 -3
C -0.795609 -3 -1.55874 -2.683901 -2.12132 -2.12132
C -2.683901 -1.55874 -3 -0.795609 -3 0
C -3 0.795609 -2.683901 1.55874 -2.12132 2.12132
C -1.55874 2.683901 -0.795609 3 0 3
z
" style="stroke: #ffffff; stroke-opacity: 0.9; stroke-width: 0.45"/>
    </defs>
    <g clip-path="url(#p459f309393)">
     <use xlink:href="#me8cba11c4f" x="108.437135" y="389.748158" style="fill: #16805a; fill-opacity: 0.9; stroke: #ffffff; stroke-opacity: 0.9; stroke-width: 0.45"/>
     <use xlink:href="#me8cba11c4f" x="153.379865" y="363.991046" style="fill: #16805a; fill-opacity: 0.9; stroke: #ffffff; stroke-opacity: 0.9; stroke-width: 0.45"/>
     <use xlink:href="#me8cba11c4f" x="198.676127" y="319.437872" style="fill: #16805a; fill-opacity: 0.9; stroke: #ffffff; stroke-opacity: 0.9; stroke-width: 0.45"/>
     <use xlink:href="#me8cba11c4f" x="241.983773" y="295.771334" style="fill: #16805a; fill-opacity: 0.9; stroke: #ffffff; stroke-opacity: 0.9; stroke-width: 0.45"/>
     <use xlink:href="#me8cba11c4f" x="285.203036" y="279.301018" style="fill: #16805a; fill-opacity: 0.9; stroke: #ffffff; stroke-opacity: 0.9; stroke-width: 0.45"/>
     <use xlink:href="#me8cba11c4f" x="336.641914" y="237.444638" style="fill: #16805a; fill-opacity: 0.9; stroke: #ffffff; stroke-opacity: 0.9; stroke-width: 0.45"/>
     <use xlink:href="#me8cba11c4f" x="382.601048" y="174.36539" style="fill: #16805a; fill-opacity: 0.9; stroke: #ffffff; stroke-opacity: 0.9; stroke-width: 0.45"/>
     <use xlink:href="#me8cba11c4f" x="416.628484" y="169.179975" style="fill: #16805a; fill-opacity: 0.9; stroke: #ffffff; stroke-opacity: 0.9; stroke-width: 0.45"/>
     <use xlink:href="#me8cba11c4f" x="482.076059" y="134.295721" style="fill: #16805a; fill-opacity: 0.9; stroke: #ffffff; stroke-opacity: 0.9; stroke-width: 0.45"/>
     <use xlink:href="#me8cba11c4f" x="509.65154" y="127.936564" style="fill: #16805a; fill-opacity: 0.9; stroke: #ffffff; stroke-opacity: 0.9; stroke-width: 0.45"/>
     <use xlink:href="#me8cba11c4f" x="545.976933" y="120.17199" style="fill: #16805a; fill-opacity: 0.9; stroke: #ffffff; stroke-opacity: 0.9; stroke-width: 0.45"/>
     <use xlink:href="#me8cba11c4f" x="577.220306" y="112.6607" style="fill: #16805a; fill-opacity: 0.9; stroke: #ffffff; stroke-opacity: 0.9; stroke-width: 0.45"/>
    </g>
   </g>
   <g id="line2d_50">
    <defs>
     <path id="m8bd86dd4cd" d="M 0 3
C 0.795609 3 1.55874 2.683901 2.12132 2.12132
C 2.683901 1.55874 3 0.795609 3 0
C 3 -0.795609 2.683901 -1.55874 2.12132 -2.12132
C 1.55874 -2.683901 0.795609 -3 0 -3
C -0.795609 -3 -1.55874 -2.683901 -2.12132 -2.12132
C -2.683901 -1.55874 -3 -0.795609 -3 0
C -3 0.795609 -2.683901 1.55874 -2.12132 2.12132
C -1.55874 2.683901 -0.795609 3 0 3
z
" style="stroke: #ffffff; stroke-opacity: 0.9; stroke-width: 0.45"/>
    </defs>
    <g clip-path="url(#p459f309393)">
     <use xlink:href="#m8bd86dd4cd" x="52.667493" y="57.119317" style="fill: #1f5aa6; fill-opacity: 0.9; stroke: #ffffff; stroke-opacity: 0.9; stroke-width: 0.45"/>
     <use xlink:href="#m8bd86dd4cd" x="108.392943" y="71.735958" style="fill: #1f5aa6; fill-opacity: 0.9; stroke: #ffffff; stroke-opacity: 0.9; stroke-width: 0.45"/>
     <use xlink:href="#m8bd86dd4cd" x="153.424057" y="85.617342" style="fill: #1f5aa6; fill-opacity: 0.9; stroke: #ffffff; stroke-opacity: 0.9; stroke-width: 0.45"/>
     <use xlink:href="#m8bd86dd4cd" x="198.76451" y="98.491097" style="fill: #1f5aa6; fill-opacity: 0.9; stroke: #ffffff; stroke-opacity: 0.9; stroke-width: 0.45"/>
     <use xlink:href="#m8bd86dd4cd" x="285.203036" y="128.452342" style="fill: #1f5aa6; fill-opacity: 0.9; stroke: #ffffff; stroke-opacity: 0.9; stroke-width: 0.45"/>
     <use xlink:href="#m8bd86dd4cd" x="336.641914" y="142.859603" style="fill: #1f5aa6; fill-opacity: 0.9; stroke: #ffffff; stroke-opacity: 0.9; stroke-width: 0.45"/>
     <use xlink:href="#m8bd86dd4cd" x="382.468474" y="149.730177" style="fill: #1f5aa6; fill-opacity: 0.9; stroke: #ffffff; stroke-opacity: 0.9; stroke-width: 0.45"/>
     <use xlink:href="#m8bd86dd4cd" x="482.252825" y="180.230166" style="fill: #1f5aa6; fill-opacity: 0.9; stroke: #ffffff; stroke-opacity: 0.9; stroke-width: 0.45"/>
     <use xlink:href="#m8bd86dd4cd" x="509.695731" y="195.732229" style="fill: #1f5aa6; fill-opacity: 0.9; stroke: #ffffff; stroke-opacity: 0.9; stroke-width: 0.45"/>
     <use xlink:href="#m8bd86dd4cd" x="546.109507" y="216.359869" style="fill: #1f5aa6; fill-opacity: 0.9; stroke: #ffffff; stroke-opacity: 0.9; stroke-width: 0.45"/>
     <use xlink:href="#m8bd86dd4cd" x="577.35288" y="259.690657" style="fill: #1f5aa6; fill-opacity: 0.9; stroke: #ffffff; stroke-opacity: 0.9; stroke-width: 0.45"/>
    </g>
   </g>
   <g id="line2d_51">
    <defs>
     <path id="m4e0733e2c8" d="M -3.6 3.6
L 3.6 -3.6
M -3.6 -3.6
L 3.6 3.6
" style="stroke: #1f5aa6; stroke-opacity: 0.95; stroke-width: 1.3"/>
    </defs>
    <g clip-path="url(#p459f309393)">
     <use xlink:href="#m4e0733e2c8" x="241.983773" y="116.152952" style="fill: #1f5aa6; fill-opacity: 0.95; stroke: #1f5aa6; stroke-opacity: 0.95; stroke-width: 1.3"/>
     <use xlink:href="#m4e0733e2c8" x="415.877229" y="157.545464" style="fill: #1f5aa6; fill-opacity: 0.95; stroke: #1f5aa6; stroke-opacity: 0.95; stroke-width: 1.3"/>
    </g>
   </g>
   <g id="line2d_52">
    <defs>
     <path id="m31e5894796" d="M 0 3
C 0.795609 3 1.55874 2.683901 2.12132 2.12132
C 2.683901 1.55874 3 0.795609 3 0
C 3 -0.795609 2.683901 -1.55874 2.12132 -2.12132
C 1.55874 -2.683901 0.795609 -3 0 -3
C -0.795609 -3 -1.55874 -2.683901 -2.12132 -2.12132
C -2.683901 -1.55874 -3 -0.795609 -3 0
C -3 0.795609 -2.683901 1.55874 -2.12132 2.12132
C -1.55874 2.683901 -0.795609 3 0 3
z
" style="stroke: #ffffff; stroke-opacity: 0.9; stroke-width: 0.45"/>
    </defs>
    <g clip-path="url(#p459f309393)">
     <use xlink:href="#m31e5894796" x="52.711684" y="190.073906" style="fill: #bcbd22; fill-opacity: 0.9; stroke: #ffffff; stroke-opacity: 0.9; stroke-width: 0.45"/>
     <use xlink:href="#m31e5894796" x="108.569709" y="142.992965" style="fill: #bcbd22; fill-opacity: 0.9; stroke: #ffffff; stroke-opacity: 0.9; stroke-width: 0.45"/>
     <use xlink:href="#m31e5894796" x="152.849567" y="125.187078" style="fill: #bcbd22; fill-opacity: 0.9; stroke: #ffffff; stroke-opacity: 0.9; stroke-width: 0.45"/>
     <use xlink:href="#m31e5894796" x="199.029659" y="124.179466" style="fill: #bcbd22; fill-opacity: 0.9; stroke: #ffffff; stroke-opacity: 0.9; stroke-width: 0.45"/>
     <use xlink:href="#m31e5894796" x="285.070462" y="97.046921" style="fill: #bcbd22; fill-opacity: 0.9; stroke: #ffffff; stroke-opacity: 0.9; stroke-width: 0.45"/>
     <use xlink:href="#m31e5894796" x="336.686105" y="88.374191" style="fill: #bcbd22; fill-opacity: 0.9; stroke: #ffffff; stroke-opacity: 0.9; stroke-width: 0.45"/>
     <use xlink:href="#m31e5894796" x="382.645239" y="83.093982" style="fill: #bcbd22; fill-opacity: 0.9; stroke: #ffffff; stroke-opacity: 0.9; stroke-width: 0.45"/>
     <use xlink:href="#m31e5894796" x="417.291356" y="76.702088" style="fill: #bcbd22; fill-opacity: 0.9; stroke: #ffffff; stroke-opacity: 0.9; stroke-width: 0.45"/>
     <use xlink:href="#m31e5894796" x="482.473782" y="70.546348" style="fill: #bcbd22; fill-opacity: 0.9; stroke: #ffffff; stroke-opacity: 0.9; stroke-width: 0.45"/>
     <use xlink:href="#m31e5894796" x="509.739923" y="66.357649" style="fill: #bcbd22; fill-opacity: 0.9; stroke: #ffffff; stroke-opacity: 0.9; stroke-width: 0.45"/>
     <use xlink:href="#m31e5894796" x="545.31406" y="64.227906" style="fill: #bcbd22; fill-opacity: 0.9; stroke: #ffffff; stroke-opacity: 0.9; stroke-width: 0.45"/>
     <use xlink:href="#m31e5894796" x="576.513242" y="61.353055" style="fill: #bcbd22; fill-opacity: 0.9; stroke: #ffffff; stroke-opacity: 0.9; stroke-width: 0.45"/>
    </g>
   </g>
   <g id="line2d_53">
    <defs>
     <path id="m239bc97347" d="M -3.6 3.6
L 3.6 -3.6
M -3.6 -3.6
L 3.6 3.6
" style="stroke: #bcbd22; stroke-opacity: 0.95; stroke-width: 1.3"/>
    </defs>
    <g clip-path="url(#p459f309393)">
     <use xlink:href="#m239bc97347" x="242.027965" y="114.961182" style="fill: #bcbd22; fill-opacity: 0.95; stroke: #bcbd22; stroke-opacity: 0.95; stroke-width: 1.3"/>
    </g>
   </g>
   <g id="line2d_54">
    <defs>
     <path id="m11852894fc" d="M 0 3
C 0.795609 3 1.55874 2.683901 2.12132 2.12132
C 2.683901 1.55874 3 0.795609 3 0
C 3 -0.795609 2.683901 -1.55874 2.12132 -2.12132
C 1.55874 -2.683901 0.795609 -3 0 -3
C -0.795609 -3 -1.55874 -2.683901 -2.12132 -2.12132
C -2.683901 -1.55874 -3 -0.795609 -3 0
C -3 0.795609 -2.683901 1.55874 -2.12132 2.12132
C -1.55874 2.683901 -0.795609 3 0 3
z
" style="stroke: #ffffff; stroke-opacity: 0.9; stroke-width: 0.45"/>
    </defs>
    <g clip-path="url(#p459f309393)">
     <use xlink:href="#m11852894fc" x="108.348752" y="161.896659" style="fill: #d62728; fill-opacity: 0.9; stroke: #ffffff; stroke-opacity: 0.9; stroke-width: 0.45"/>
     <use xlink:href="#m11852894fc" x="198.676127" y="111.449417" style="fill: #d62728; fill-opacity: 0.9; stroke: #ffffff; stroke-opacity: 0.9; stroke-width: 0.45"/>
     <use xlink:href="#m11852894fc" x="241.851199" y="102.293247" style="fill: #d62728; fill-opacity: 0.9; stroke: #ffffff; stroke-opacity: 0.9; stroke-width: 0.45"/>
     <use xlink:href="#m11852894fc" x="285.291419" y="111.864249" style="fill: #d62728; fill-opacity: 0.9; stroke: #ffffff; stroke-opacity: 0.9; stroke-width: 0.45"/>
     <use xlink:href="#m11852894fc" x="336.686105" y="114.699894" style="fill: #d62728; fill-opacity: 0.9; stroke: #ffffff; stroke-opacity: 0.9; stroke-width: 0.45"/>
     <use xlink:href="#m11852894fc" x="382.468474" y="120.297443" style="fill: #d62728; fill-opacity: 0.9; stroke: #ffffff; stroke-opacity: 0.9; stroke-width: 0.45"/>
     <use xlink:href="#m11852894fc" x="416.672676" y="127.717646" style="fill: #d62728; fill-opacity: 0.9; stroke: #ffffff; stroke-opacity: 0.9; stroke-width: 0.45"/>
     <use xlink:href="#m11852894fc" x="509.65154" y="147.805943" style="fill: #d62728; fill-opacity: 0.9; stroke: #ffffff; stroke-opacity: 0.9; stroke-width: 0.45"/>
     <use xlink:href="#m11852894fc" x="545.800167" y="158.554917" style="fill: #d62728; fill-opacity: 0.9; stroke: #ffffff; stroke-opacity: 0.9; stroke-width: 0.45"/>
     <use xlink:href="#m11852894fc" x="577.264497" y="169.252787" style="fill: #d62728; fill-opacity: 0.9; stroke: #ffffff; stroke-opacity: 0.9; stroke-width: 0.45"/>
    </g>
   </g>
   <g id="line2d_55">
    <defs>
     <path id="m006bef4cba" d="M -3.6 3.6
L 3.6 -3.6
M -3.6 -3.6
L 3.6 3.6
" style="stroke: #d62728; stroke-opacity: 0.95; stroke-width: 1.3"/>
    </defs>
    <g clip-path="url(#p459f309393)">
     <use xlink:href="#m006bef4cba" x="153.468248" y="134.458931" style="fill: #d62728; fill-opacity: 0.95; stroke: #d62728; stroke-opacity: 0.95; stroke-width: 1.3"/>
    </g>
   </g>
   <g id="line2d_56">
    <defs>
     <path id="m2b1f0d7763" d="M 0 3
C 0.795609 3 1.55874 2.683901 2.12132 2.12132
C 2.683901 1.55874 3 0.795609 3 0
C 3 -0.795609 2.683901 -1.55874 2.12132 -2.12132
C 1.55874 -2.683901 0.795609 -3 0 -3
C -0.795609 -3 -1.55874 -2.683901 -2.12132 -2.12132
C -2.683901 -1.55874 -3 -0.795609 -3 0
C -3 0.795609 -2.683901 1.55874 -2.12132 2.12132
C -1.55874 2.683901 -0.795609 3 0 3
z
" style="stroke: #ffffff; stroke-opacity: 0.9; stroke-width: 0.45"/>
    </defs>
    <g clip-path="url(#p459f309393)">
     <use xlink:href="#m2b1f0d7763" x="108.348752" y="301.470743" style="fill: #17becf; fill-opacity: 0.9; stroke: #ffffff; stroke-opacity: 0.9; stroke-width: 0.45"/>
     <use xlink:href="#m2b1f0d7763" x="242.027965" y="241.937616" style="fill: #17becf; fill-opacity: 0.9; stroke: #ffffff; stroke-opacity: 0.9; stroke-width: 0.45"/>
     <use xlink:href="#m2b1f0d7763" x="285.247228" y="149.219313" style="fill: #17becf; fill-opacity: 0.9; stroke: #ffffff; stroke-opacity: 0.9; stroke-width: 0.45"/>
     <use xlink:href="#m2b1f0d7763" x="336.818679" y="127.130985" style="fill: #17becf; fill-opacity: 0.9; stroke: #ffffff; stroke-opacity: 0.9; stroke-width: 0.45"/>
     <use xlink:href="#m2b1f0d7763" x="416.761059" y="106.434919" style="fill: #17becf; fill-opacity: 0.9; stroke: #ffffff; stroke-opacity: 0.9; stroke-width: 0.45"/>
     <use xlink:href="#m2b1f0d7763" x="482.164442" y="100.056052" style="fill: #17becf; fill-opacity: 0.9; stroke: #ffffff; stroke-opacity: 0.9; stroke-width: 0.45"/>
     <use xlink:href="#m2b1f0d7763" x="509.518965" y="95.20445" style="fill: #17becf; fill-opacity: 0.9; stroke: #ffffff; stroke-opacity: 0.9; stroke-width: 0.45"/>
     <use xlink:href="#m2b1f0d7763" x="546.065316" y="89.607159" style="fill: #17becf; fill-opacity: 0.9; stroke: #ffffff; stroke-opacity: 0.9; stroke-width: 0.45"/>
     <use xlink:href="#m2b1f0d7763" x="577.264497" y="85.201676" style="fill: #17becf; fill-opacity: 0.9; stroke: #ffffff; stroke-opacity: 0.9; stroke-width: 0.45"/>
    </g>
   </g>
   <g id="line2d_57">
    <defs>
     <path id="mff087d7de5" d="M -3.6 3.6
L 3.6 -3.6
M -3.6 -3.6
L 3.6 3.6
" style="stroke: #17becf; stroke-opacity: 0.95; stroke-width: 1.3"/>
    </defs>
    <g clip-path="url(#p459f309393)">
     <use xlink:href="#mff087d7de5" x="382.512665" y="115.227209" style="fill: #17becf; fill-opacity: 0.95; stroke: #17becf; stroke-opacity: 0.95; stroke-width: 1.3"/>
    </g>
   </g>
   <g id="line2d_58">
    <defs>
     <path id="mba2b177f6d" d="M 0 3
C 0.795609 3 1.55874 2.683901 2.12132 2.12132
C 2.683901 1.55874 3 0.795609 3 0
C 3 -0.795609 2.683901 -1.55874 2.12132 -2.12132
C 1.55874 -2.683901 0.795609 -3 0 -3
C -0.795609 -3 -1.55874 -2.683901 -2.12132 -2.12132
C -2.683901 -1.55874 -3 -0.795609 -3 0
C -3 0.795609 -2.683901 1.55874 -2.12132 2.12132
C -1.55874 2.683901 -0.795609 3 0 3
z
" style="stroke: #ffffff; stroke-opacity: 0.9; stroke-width: 0.45"/>
    </defs>
    <g clip-path="url(#p459f309393)">
     <use xlink:href="#mba2b177f6d" x="108.392943" y="312.597648" style="fill: #9467bd; fill-opacity: 0.9; stroke: #ffffff; stroke-opacity: 0.9; stroke-width: 0.45"/>
     <use xlink:href="#mba2b177f6d" x="153.424057" y="286.6727" style="fill: #9467bd; fill-opacity: 0.9; stroke: #ffffff; stroke-opacity: 0.9; stroke-width: 0.45"/>
     <use xlink:href="#mba2b177f6d" x="198.45517" y="280.565641" style="fill: #9467bd; fill-opacity: 0.9; stroke: #ffffff; stroke-opacity: 0.9; stroke-width: 0.45"/>
     <use xlink:href="#mba2b177f6d" x="242.027965" y="256.869909" style="fill: #9467bd; fill-opacity: 0.9; stroke: #ffffff; stroke-opacity: 0.9; stroke-width: 0.45"/>
     <use xlink:href="#mba2b177f6d" x="284.937887" y="239.143517" style="fill: #9467bd; fill-opacity: 0.9; stroke: #ffffff; stroke-opacity: 0.9; stroke-width: 0.45"/>
     <use xlink:href="#mba2b177f6d" x="336.774488" y="223.75101" style="fill: #9467bd; fill-opacity: 0.9; stroke: #ffffff; stroke-opacity: 0.9; stroke-width: 0.45"/>
     <use xlink:href="#mba2b177f6d" x="382.777814" y="214.681563" style="fill: #9467bd; fill-opacity: 0.9; stroke: #ffffff; stroke-opacity: 0.9; stroke-width: 0.45"/>
     <use xlink:href="#mba2b177f6d" x="416.80525" y="200.984274" style="fill: #9467bd; fill-opacity: 0.9; stroke: #ffffff; stroke-opacity: 0.9; stroke-width: 0.45"/>
     <use xlink:href="#mba2b177f6d" x="482.031868" y="195.775608" style="fill: #9467bd; fill-opacity: 0.9; stroke: #ffffff; stroke-opacity: 0.9; stroke-width: 0.45"/>
     <use xlink:href="#mba2b177f6d" x="509.828306" y="185.364509" style="fill: #9467bd; fill-opacity: 0.9; stroke: #ffffff; stroke-opacity: 0.9; stroke-width: 0.45"/>
     <use xlink:href="#mba2b177f6d" x="545.844358" y="188.243189" style="fill: #9467bd; fill-opacity: 0.9; stroke: #ffffff; stroke-opacity: 0.9; stroke-width: 0.45"/>
     <use xlink:href="#mba2b177f6d" x="577.131923" y="188.264749" style="fill: #9467bd; fill-opacity: 0.9; stroke: #ffffff; stroke-opacity: 0.9; stroke-width: 0.45"/>
    </g>
   </g>
   <g id="patch_3">
    <path d="M 52.402344 423.653969
L 52.402344 27.077969
" style="fill: none; stroke: #000000; stroke-width: 0.8; stroke-linejoin: miter; stroke-linecap: square"/>
   </g>
   <g id="patch_4">
    <path d="M 52.402344 423.653969
L 591.538344 423.653969
" style="fill: none; stroke: #000000; stroke-width: 0.8; stroke-linejoin: miter; stroke-linecap: square"/>
   </g>
   <g id="text_13">
    <!-- Wong 2015 Raman speciation, 30 wt% MEA at 30 °C -->
    <g transform="translate(132.093156 17.077969) scale(0.13 -0.13)">
     <defs>
      <path id="DejaVuSerif-Bold-57" d="M 5453 0
L 4647 0
L 3591 3397
L 2534 0
L 1728 0
L 397 4288
L -56 4288
L -56 4666
L 2156 4666
L 2156 4288
L 1656 4288
L 2547 1422
L 3553 4666
L 4441 4666
L 5466 1369
L 6375 4288
L 5819 4288
L 5819 4666
L 7263 4666
L 7263 4288
L 6784 4288
L 5453 0
z
" transform="scale(0.015625)"/>
      <path id="DejaVuSerif-Bold-6f" d="M 2138 263
Q 2488 263 2630 563
Q 2772 863 2772 1663
Q 2772 2463 2631 2761
Q 2491 3059 2138 3059
Q 1784 3059 1640 2757
Q 1497 2456 1497 1663
Q 1497 869 1640 566
Q 1784 263 2138 263
z
M 2138 -91
Q 1259 -91 761 376
Q 263 844 263 1663
Q 263 2484 761 2948
Q 1259 3413 2138 3413
Q 3019 3413 3516 2948
Q 4013 2484 4013 1663
Q 4013 844 3514 376
Q 3016 -91 2138 -91
z
" transform="scale(0.015625)"/>
      <path id="DejaVuSerif-Bold-6e" d="M 219 0
L 219 378
L 691 378
L 691 2944
L 219 2944
L 219 3322
L 1797 3322
L 1797 2853
Q 1997 3150 2253 3281
Q 2509 3413 2900 3413
Q 3459 3413 3745 3083
Q 4031 2753 4031 2113
L 4031 378
L 4506 378
L 4506 0
L 2522 0
L 2522 378
L 2925 378
L 2925 2144
Q 2925 2566 2817 2730
Q 2709 2894 2444 2894
Q 2109 2894 1953 2648
Q 1797 2403 1797 1869
L 1797 378
L 2203 378
L 2203 0
L 219 0
z
" transform="scale(0.015625)"/>
      <path id="DejaVuSerif-Bold-67" d="M 3853 2944
L 3853 44
Q 3853 -656 3354 -1039
Q 2856 -1422 1947 -1422
Q 1616 -1422 1275 -1370
Q 934 -1319 575 -1216
L 575 -422
L 928 -422
Q 975 -750 1192 -909
Q 1409 -1069 1813 -1069
Q 2325 -1069 2536 -823
Q 2747 -578 2747 44
L 2747 422
Q 2606 163 2367 36
Q 2128 -91 1778 -91
Q 1072 -91 667 378
Q 263 847 263 1663
Q 263 2481 667 2947
Q 1072 3413 1778 3413
Q 2128 3413 2367 3286
Q 2606 3159 2747 2900
L 2747 3322
L 4325 3322
L 4325 2944
L 3853 2944
z
M 2747 1825
Q 2747 2406 2597 2665
Q 2447 2925 2119 2925
Q 1775 2925 1636 2651
Q 1497 2378 1497 1663
Q 1497 947 1637 672
Q 1778 397 2119 397
Q 2447 397 2597 656
Q 2747 916 2747 1497
L 2747 1825
z
" transform="scale(0.015625)"/>
      <path id="DejaVuSerif-Bold-20" transform="scale(0.015625)"/>
      <path id="DejaVuSerif-Bold-32" d="M 844 3513
L 469 3513
L 469 4519
Q 850 4634 1223 4692
Q 1597 4750 1978 4750
Q 2869 4750 3367 4386
Q 3866 4022 3866 3372
Q 3866 2909 3591 2542
Q 3316 2175 2541 1672
L 1241 819
L 3450 819
L 3450 1369
L 3878 1369
L 3878 0
L 428 0
L 428 763
L 1119 1241
Q 2003 1850 2297 2278
Q 2591 2706 2591 3278
Q 2591 3819 2367 4101
Q 2144 4384 1716 4384
Q 1347 4384 1125 4161
Q 903 3938 844 3513
z
" transform="scale(0.015625)"/>
      <path id="DejaVuSerif-Bold-30" d="M 2228 275
Q 2603 275 2742 615
Q 2881 956 2881 2328
Q 2881 3691 2742 4037
Q 2603 4384 2228 4384
Q 1853 4384 1714 4043
Q 1575 3703 1575 2328
Q 1575 956 1714 615
Q 1853 275 2228 275
z
M 2228 -91
Q 1294 -91 797 532
Q 300 1156 300 2328
Q 300 3500 797 4125
Q 1294 4750 2228 4750
Q 3159 4750 3656 4125
Q 4153 3500 4153 2328
Q 4153 1156 3656 532
Q 3159 -91 2228 -91
z
" transform="scale(0.015625)"/>
      <path id="DejaVuSerif-Bold-31" d="M 878 0
L 878 378
L 1753 378
L 1753 4153
L 781 3578
L 781 4044
L 1953 4750
L 2938 4750
L 2938 378
L 3816 378
L 3816 0
L 878 0
z
" transform="scale(0.015625)"/>
      <path id="DejaVuSerif-Bold-35" d="M 3609 4666
L 3609 3847
L 1113 3847
L 1113 2822
Q 1319 2981 1572 3062
Q 1825 3144 2106 3144
Q 2969 3144 3469 2708
Q 3969 2272 3969 1522
Q 3969 759 3469 334
Q 2969 -91 2069 -91
Q 1688 -91 1311 -28
Q 934 34 525 166
L 525 1184
L 900 1184
Q 919 725 1139 500
Q 1359 275 1791 275
Q 2250 275 2472 583
Q 2694 891 2694 1522
Q 2694 2144 2476 2451
Q 2259 2759 1819 2759
Q 1581 2759 1395 2661
Q 1209 2563 1050 2356
L 738 2356
L 738 4666
L 3609 4666
z
" transform="scale(0.015625)"/>
      <path id="DejaVuSerif-Bold-52" d="M 3397 2278
Q 3675 2238 3865 2094
Q 4056 1950 4197 1678
L 4878 378
L 5356 378
L 5356 0
L 3822 0
L 3078 1409
Q 2863 1847 2711 1967
Q 2559 2088 2291 2088
L 2100 2088
L 2100 378
L 2700 378
L 2700 0
L 300 0
L 300 378
L 897 378
L 897 4288
L 300 4288
L 300 4666
L 2963 4666
Q 3775 4666 4217 4339
Q 4659 4013 4659 3413
Q 4659 2925 4345 2642
Q 4031 2359 3397 2278
z
M 2100 2463
L 2509 2463
Q 2947 2463 3183 2700
Q 3419 2938 3419 3378
Q 3419 3819 3183 4053
Q 2947 4288 2509 4288
L 2100 4288
L 2100 2463
z
" transform="scale(0.015625)"/>
      <path id="DejaVuSerif-Bold-61" d="M 3525 2041
L 3525 378
L 4000 378
L 4000 0
L 2419 0
L 2419 422
Q 2200 159 1931 34
Q 1663 -91 1319 -91
Q 809 -91 536 182
Q 263 456 263 966
Q 263 1525 655 1803
Q 1047 2081 1838 2081
L 2419 2081
L 2419 2278
Q 2419 2681 2228 2873
Q 2038 3066 1638 3066
Q 1306 3066 1126 2930
Q 947 2794 872 2484
L 519 2484
L 519 3200
Q 816 3306 1134 3359
Q 1453 3413 1806 3413
Q 2697 3413 3111 3081
Q 3525 2750 3525 2041
z
M 2419 1044
L 2419 1709
L 2003 1709
Q 1694 1709 1528 1540
Q 1363 1372 1363 1056
Q 1363 741 1483 584
Q 1603 428 1850 428
Q 2106 428 2262 597
Q 2419 766 2419 1044
z
" transform="scale(0.015625)"/>
      <path id="DejaVuSerif-Bold-6d" d="M 3884 2778
Q 4116 3109 4384 3261
Q 4653 3413 5013 3413
Q 5584 3413 5867 3089
Q 6150 2766 6150 2113
L 6150 378
L 6625 378
L 6625 0
L 4647 0
L 4647 378
L 5044 378
L 5044 1947
Q 5044 2569 4948 2731
Q 4853 2894 4594 2894
Q 4300 2894 4137 2667
Q 3975 2441 3975 2022
L 3975 378
L 4372 378
L 4372 0
L 2472 0
L 2472 378
L 2869 378
L 2869 1947
Q 2869 2569 2772 2731
Q 2675 2894 2419 2894
Q 2122 2894 1959 2667
Q 1797 2441 1797 2022
L 1797 378
L 2194 378
L 2194 0
L 219 0
L 219 378
L 691 378
L 691 2944
L 219 2944
L 219 3322
L 1797 3322
L 1797 2853
Q 1991 3144 2241 3278
Q 2491 3413 2834 3413
Q 3241 3413 3494 3258
Q 3747 3103 3884 2778
z
" transform="scale(0.015625)"/>
      <path id="DejaVuSerif-Bold-73" d="M 300 97
L 300 1025
L 653 1025
Q 697 653 931 458
Q 1166 263 1569 263
Q 1906 263 2086 380
Q 2266 497 2266 716
Q 2266 916 2152 1025
Q 2038 1134 1709 1216
L 1253 1331
Q 738 1459 506 1698
Q 275 1938 275 2344
Q 275 2884 650 3148
Q 1025 3413 1806 3413
Q 2100 3413 2433 3364
Q 2766 3316 3169 3213
L 3169 2375
L 2816 2375
Q 2788 2716 2573 2887
Q 2359 3059 1959 3059
Q 1622 3059 1448 2951
Q 1275 2844 1275 2638
Q 1275 2469 1375 2372
Q 1475 2275 1734 2209
L 2188 2094
Q 2841 1928 3091 1684
Q 3341 1441 3341 1006
Q 3341 444 2939 176
Q 2538 -91 1691 -91
Q 1381 -91 1034 -44
Q 688 3 300 97
z
" transform="scale(0.015625)"/>
      <path id="DejaVuSerif-Bold-70" d="M 1728 1825
L 1728 1497
Q 1728 916 1876 656
Q 2025 397 2356 397
Q 2697 397 2836 672
Q 2975 947 2975 1663
Q 2975 2378 2836 2651
Q 2697 2925 2356 2925
Q 2025 2925 1876 2665
Q 1728 2406 1728 1825
z
M 622 2944
L 147 2944
L 147 3322
L 1728 3322
L 1728 2900
Q 1869 3159 2106 3286
Q 2344 3413 2694 3413
Q 3403 3413 3811 2945
Q 4219 2478 4219 1663
Q 4219 847 3811 378
Q 3403 -91 2694 -91
Q 2344 -91 2106 36
Q 1869 163 1728 422
L 1728 -953
L 2241 -953
L 2241 -1331
L 147 -1331
L 147 -953
L 622 -953
L 622 2944
z
" transform="scale(0.015625)"/>
      <path id="DejaVuSerif-Bold-65" d="M 2566 1875
Q 2566 2531 2444 2795
Q 2322 3059 2028 3059
Q 1744 3059 1620 2800
Q 1497 2541 1497 1931
L 1497 1875
L 2566 1875
z
M 3781 1503
L 1497 1503
L 1497 1478
Q 1497 834 1690 548
Q 1884 263 2316 263
Q 2675 263 2897 453
Q 3119 644 3181 1006
L 3700 1006
Q 3566 441 3166 175
Q 2766 -91 2047 -91
Q 1184 -91 723 364
Q 263 819 263 1663
Q 263 2488 734 2950
Q 1206 3413 2047 3413
Q 2872 3413 3312 2927
Q 3753 2441 3781 1503
z
" transform="scale(0.015625)"/>
      <path id="DejaVuSerif-Bold-63" d="M 3609 1038
Q 3491 469 3123 189
Q 2756 -91 2125 -91
Q 1238 -91 750 368
Q 263 828 263 1663
Q 263 2488 744 2950
Q 1225 3413 2081 3413
Q 2428 3413 2781 3347
Q 3134 3281 3500 3150
L 3500 2228
L 3150 2228
Q 3100 2650 2903 2854
Q 2706 3059 2350 3059
Q 1888 3059 1692 2746
Q 1497 2434 1497 1663
Q 1497 909 1687 586
Q 1878 263 2309 263
Q 2644 263 2845 463
Q 3047 663 3091 1038
L 3609 1038
z
" transform="scale(0.015625)"/>
      <path id="DejaVuSerif-Bold-69" d="M 588 4263
Q 588 4516 763 4689
Q 938 4863 1191 4863
Q 1438 4863 1611 4689
Q 1784 4516 1784 4263
Q 1784 4016 1611 3842
Q 1438 3669 1191 3669
Q 938 3669 763 3841
Q 588 4013 588 4263
z
M 1797 378
L 2272 378
L 2272 0
L 219 0
L 219 378
L 691 378
L 691 2944
L 219 2944
L 219 3322
L 1797 3322
L 1797 378
z
" transform="scale(0.015625)"/>
      <path id="DejaVuSerif-Bold-74" d="M 634 2944
L 153 2944
L 153 3322
L 634 3322
L 634 4353
L 1741 4353
L 1741 3322
L 2663 3322
L 2663 2944
L 1741 2944
L 1741 909
Q 1741 475 1809 369
Q 1878 263 2059 263
Q 2259 263 2356 397
Q 2453 531 2459 813
L 2925 813
Q 2897 313 2651 111
Q 2406 -91 1806 -91
Q 1122 -91 878 123
Q 634 338 634 909
L 634 2944
z
" transform="scale(0.015625)"/>
      <path id="DejaVuSerif-Bold-2c" d="M 84 -616
Q 409 -353 562 -28
Q 716 297 716 728
L 716 997
L 1606 997
L 1606 972
Q 1606 281 1317 -217
Q 1028 -716 428 -1056
L 84 -616
z
" transform="scale(0.015625)"/>
      <path id="DejaVuSerif-Bold-33" d="M 550 4531
Q 963 4641 1350 4695
Q 1738 4750 2106 4750
Q 2950 4750 3401 4448
Q 3853 4147 3853 3584
Q 3853 3163 3593 2900
Q 3334 2638 2834 2547
Q 3444 2450 3744 2131
Q 4044 1813 4044 1259
Q 4044 606 3526 257
Q 3009 -91 2028 -91
Q 1659 -91 1267 -28
Q 875 34 447 159
L 447 1184
L 825 1184
Q 859 741 1103 508
Q 1347 275 1778 275
Q 2253 275 2512 539
Q 2772 803 2772 1288
Q 2772 1794 2501 2069
Q 2231 2344 1734 2344
L 1528 2344
L 1528 2719
L 1691 2719
Q 2150 2719 2381 2931
Q 2613 3144 2613 3566
Q 2613 3963 2395 4173
Q 2178 4384 1772 4384
Q 1403 4384 1187 4182
Q 972 3981 928 3597
L 550 3597
L 550 4531
z
" transform="scale(0.015625)"/>
      <path id="DejaVuSerif-Bold-77" d="M 3450 3322
L 4206 1106
L 4831 2944
L 4397 2944
L 4397 3322
L 5638 3322
L 5638 2944
L 5247 2944
L 4244 0
L 3481 0
L 2778 2081
L 2069 0
L 1313 0
L 306 2944
L -56 2944
L -56 3322
L 1825 3322
L 1825 2944
L 1434 2944
L 2047 1147
L 2791 3322
L 3450 3322
z
" transform="scale(0.015625)"/>
      <path id="DejaVuSerif-Bold-25" d="M 1381 4434
Q 1181 4434 1093 4217
Q 1006 4000 1006 3481
Q 1006 2959 1093 2740
Q 1181 2522 1381 2522
Q 1584 2522 1671 2740
Q 1759 2959 1759 3481
Q 1759 4000 1671 4217
Q 1584 4434 1381 4434
z
M 1381 4750
Q 1978 4750 2295 4423
Q 2613 4097 2613 3481
Q 2613 2866 2295 2537
Q 1978 2209 1381 2209
Q 788 2209 470 2537
Q 153 2866 153 3481
Q 153 4097 470 4423
Q 788 4750 1381 4750
z
M 4231 4750
L 4769 4750
L 1850 -91
L 1313 -91
L 4231 4750
z
M 4697 2450
Q 5294 2450 5609 2123
Q 5925 1797 5925 1184
Q 5925 569 5609 239
Q 5294 -91 4697 -91
Q 4103 -91 3786 239
Q 3469 569 3469 1184
Q 3469 1797 3786 2123
Q 4103 2450 4697 2450
z
M 4697 2138
Q 4494 2138 4406 1920
Q 4319 1703 4319 1184
Q 4319 663 4408 444
Q 4497 225 4697 225
Q 4900 225 4987 444
Q 5075 663 5075 1184
Q 5075 1703 4987 1920
Q 4900 2138 4697 2138
z
" transform="scale(0.015625)"/>
      <path id="DejaVuSerif-Bold-4d" d="M 269 0
L 269 378
L 863 378
L 863 4288
L 269 4288
L 269 4666
L 2194 4666
L 3525 1672
L 4863 4666
L 6784 4666
L 6784 4288
L 6188 4288
L 6188 378
L 6784 378
L 6784 0
L 4384 0
L 4384 378
L 4978 378
L 4978 3938
L 3531 684
L 2741 684
L 1300 3938
L 1300 378
L 1894 378
L 1894 0
L 269 0
z
" transform="scale(0.015625)"/>
      <path id="DejaVuSerif-Bold-45" d="M 300 0
L 300 378
L 897 378
L 897 4288
L 300 4288
L 300 4666
L 4494 4666
L 4494 3566
L 4063 3566
L 4063 4238
L 2100 4238
L 2100 2741
L 3322 2741
L 3322 3334
L 3750 3334
L 3750 1722
L 3322 1722
L 3322 2316
L 2100 2316
L 2100 428
L 4122 428
L 4122 1100
L 4550 1100
L 4550 0
L 300 0
z
" transform="scale(0.015625)"/>
      <path id="DejaVuSerif-Bold-41" d="M -50 0
L -50 378
L 331 378
L 2088 4666
L 2834 4666
L 4594 378
L 5038 378
L 5038 0
L 2853 0
L 2853 378
L 3309 378
L 2925 1331
L 1172 1331
L 781 378
L 1338 378
L 1338 0
L -50 0
z
M 1325 1709
L 2772 1709
L 2053 3494
L 1325 1709
z
" transform="scale(0.015625)"/>
      <path id="DejaVuSerif-Bold-b0" d="M 1600 4794
Q 1806 4794 1997 4714
Q 2188 4634 2338 4488
Q 2484 4338 2561 4150
Q 2638 3963 2638 3750
Q 2638 3541 2561 3352
Q 2484 3163 2344 3022
Q 2194 2872 2000 2792
Q 1806 2713 1594 2713
Q 1153 2713 854 3011
Q 556 3309 556 3750
Q 556 4191 857 4492
Q 1159 4794 1600 4794
z
M 1600 4288
Q 1375 4288 1219 4131
Q 1063 3975 1063 3750
Q 1063 3525 1217 3372
Q 1372 3219 1600 3219
Q 1825 3219 1981 3373
Q 2138 3528 2138 3750
Q 2138 3975 1980 4131
Q 1822 4288 1600 4288
z
" transform="scale(0.015625)"/>
      <path id="DejaVuSerif-Bold-43" d="M 4769 1331
Q 4584 609 4106 259
Q 3628 -91 2822 -91
Q 1641 -91 955 561
Q 269 1213 269 2328
Q 269 3447 955 4098
Q 1641 4750 2822 4750
Q 3238 4750 3688 4650
Q 4138 4550 4641 4347
L 4641 3200
L 4244 3200
Q 4122 3788 3800 4080
Q 3478 4372 2950 4372
Q 2269 4372 1937 3870
Q 1606 3369 1606 2328
Q 1606 1288 1937 788
Q 2269 288 2956 288
Q 3422 288 3717 547
Q 4013 806 4147 1331
L 4769 1331
z
" transform="scale(0.015625)"/>
     </defs>
     <use xlink:href="#DejaVuSerif-Bold-57"/>
     <use xlink:href="#DejaVuSerif-Bold-6f" transform="translate(104.179688 0)"/>
     <use xlink:href="#DejaVuSerif-Bold-6e" transform="translate(170.878906 0)"/>
     <use xlink:href="#DejaVuSerif-Bold-67" transform="translate(243.583984 0)"/>
     <use xlink:href="#DejaVuSerif-Bold-20" transform="translate(313.505859 0)"/>
     <use xlink:href="#DejaVuSerif-Bold-32" transform="translate(348.320312 0)"/>
     <use xlink:href="#DejaVuSerif-Bold-30" transform="translate(417.900391 0)"/>
     <use xlink:href="#DejaVuSerif-Bold-31" transform="translate(487.480469 0)"/>
     <use xlink:href="#DejaVuSerif-Bold-35" transform="translate(557.060547 0)"/>
     <use xlink:href="#DejaVuSerif-Bold-20" transform="translate(626.640625 0)"/>
     <use xlink:href="#DejaVuSerif-Bold-52" transform="translate(661.455078 0)"/>
     <use xlink:href="#DejaVuSerif-Bold-61" transform="translate(746.810547 0)"/>
     <use xlink:href="#DejaVuSerif-Bold-6d" transform="translate(811.605469 0)"/>
     <use xlink:href="#DejaVuSerif-Bold-61" transform="translate(917.416016 0)"/>
     <use xlink:href="#DejaVuSerif-Bold-6e" transform="translate(982.210938 0)"/>
     <use xlink:href="#DejaVuSerif-Bold-20" transform="translate(1054.916016 0)"/>
     <use xlink:href="#DejaVuSerif-Bold-73" transform="translate(1089.730469 0)"/>
     <use xlink:href="#DejaVuSerif-Bold-70" transform="translate(1146.029297 0)"/>
     <use xlink:href="#DejaVuSerif-Bold-65" transform="translate(1215.951172 0)"/>
     <use xlink:href="#DejaVuSerif-Bold-63" transform="translate(1279.574219 0)"/>
     <use xlink:href="#DejaVuSerif-Bold-69" transform="translate(1340.462891 0)"/>
     <use xlink:href="#DejaVuSerif-Bold-61" transform="translate(1378.451172 0)"/>
     <use xlink:href="#DejaVuSerif-Bold-74" transform="translate(1443.246094 0)"/>
     <use xlink:href="#DejaVuSerif-Bold-69" transform="translate(1489.4375 0)"/>
     <use xlink:href="#DejaVuSerif-Bold-6f" transform="translate(1527.425781 0)"/>
     <use xlink:href="#DejaVuSerif-Bold-6e" transform="translate(1594.125 0)"/>
     <use xlink:href="#DejaVuSerif-Bold-2c" transform="translate(1666.830078 0)"/>
     <use xlink:href="#DejaVuSerif-Bold-20" transform="translate(1701.644531 0)"/>
     <use xlink:href="#DejaVuSerif-Bold-33" transform="translate(1736.458984 0)"/>
     <use xlink:href="#DejaVuSerif-Bold-30" transform="translate(1806.039062 0)"/>
     <use xlink:href="#DejaVuSerif-Bold-20" transform="translate(1875.619141 0)"/>
     <use xlink:href="#DejaVuSerif-Bold-77" transform="translate(1910.433594 0)"/>
     <use xlink:href="#DejaVuSerif-Bold-74" transform="translate(1996.517578 0)"/>
     <use xlink:href="#DejaVuSerif-Bold-25" transform="translate(2042.708984 0)"/>
     <use xlink:href="#DejaVuSerif-Bold-20" transform="translate(2137.728516 0)"/>
     <use xlink:href="#DejaVuSerif-Bold-4d" transform="translate(2172.542969 0)"/>
     <use xlink:href="#DejaVuSerif-Bold-45" transform="translate(2283.236328 0)"/>
     <use xlink:href="#DejaVuSerif-Bold-41" transform="translate(2359.457031 0)"/>
     <use xlink:href="#DejaVuSerif-Bold-20" transform="translate(2437.044922 0)"/>
     <use xlink:href="#DejaVuSerif-Bold-61" transform="translate(2471.859375 0)"/>
     <use xlink:href="#DejaVuSerif-Bold-74" transform="translate(2536.654297 0)"/>
     <use xlink:href="#DejaVuSerif-Bold-20" transform="translate(2582.845703 0)"/>
     <use xlink:href="#DejaVuSerif-Bold-33" transform="translate(2617.660156 0)"/>
     <use xlink:href="#DejaVuSerif-Bold-30" transform="translate(2687.240234 0)"/>
     <use xlink:href="#DejaVuSerif-Bold-20" transform="translate(2756.820312 0)"/>
     <use xlink:href="#DejaVuSerif-Bold-b0" transform="translate(2791.634766 0)"/>
     <use xlink:href="#DejaVuSerif-Bold-43" transform="translate(2841.634766 0)"/>
    </g>
   </g>
   <g id="legend_1">
    <g id="line2d_59">
     <defs>
      <path id="m084541604f" d="M 0 3.1
C 0.82213 3.1 1.610698 2.773364 2.192031 2.192031
C 2.773364 1.610698 3.1 0.82213 3.1 0
C 3.1 -0.82213 2.773364 -1.610698 2.192031 -2.192031
C 1.610698 -2.773364 0.82213 -3.1 0 -3.1
C -0.82213 -3.1 -1.610698 -2.773364 -2.192031 -2.192031
C -2.773364 -1.610698 -3.1 -0.82213 -3.1 0
C -3.1 0.82213 -2.773364 1.610698 -2.192031 2.192031
C -1.610698 2.773364 -0.82213 3.1 0 3.1
z
" style="stroke: #16805a"/>
     </defs>
     <g>
      <use xlink:href="#m084541604f" x="614.029704" y="38.866562" style="fill: #16805a; stroke: #16805a"/>
     </g>
    </g>
    <g id="text_14">
     <!-- $CO_2$ -->
     <g transform="translate(630.229704 42.016562) scale(0.09 -0.09)">
      <use xlink:href="#DejaVuSerif-Italic-43" transform="translate(0 0.78125)"/>
      <use xlink:href="#DejaVuSerif-Italic-4f" transform="translate(76.513672 0.78125)"/>
      <use xlink:href="#DejaVuSerif-32" transform="translate(158.496094 -14.790625) scale(0.7)"/>
     </g>
    </g>
    <g id="line2d_60">
     <defs>
      <path id="m578ac64639" d="M 0 3.1
C 0.82213 3.1 1.610698 2.773364 2.192031 2.192031
C 2.773364 1.610698 3.1 0.82213 3.1 0
C 3.1 -0.82213 2.773364 -1.610698 2.192031 -2.192031
C 1.610698 -2.773364 0.82213 -3.1 0 -3.1
C -0.82213 -3.1 -1.610698 -2.773364 -2.192031 -2.192031
C -2.773364 -1.610698 -3.1 -0.82213 -3.1 0
C -3.1 0.82213 -2.773364 1.610698 -2.192031 2.192031
C -1.610698 2.773364 -0.82213 3.1 0 3.1
z
" style="stroke: #1f5aa6"/>
     </defs>
     <g>
      <use xlink:href="#m578ac64639" x="614.029704" y="52.076875" style="fill: #1f5aa6; stroke: #1f5aa6"/>
     </g>
    </g>
    <g id="text_15">
     <!-- $MEA$ -->
     <g transform="translate(630.229704 55.226875) scale(0.09 -0.09)">
      <defs>
       <path id="DejaVuSerif-Italic-4d" d="M -97 0
L -34 331
L 559 331
L 1338 4331
L 709 4331
L 775 4666
L 2134 4666
L 3125 1344
L 5409 4666
L 6684 4666
L 6619 4331
L 5997 4331
L 5222 331
L 5816 331
L 5753 0
L 3928 0
L 3991 331
L 4584 331
L 5288 3938
L 3053 684
L 2613 684
L 1647 3938
L 944 331
L 1538 331
L 1475 0
L -97 0
z
" transform="scale(0.015625)"/>
       <path id="DejaVuSerif-Italic-45" d="M -97 0
L -34 331
L 559 331
L 1338 4331
L 744 4331
L 809 4666
L 4566 4666
L 4366 3628
L 3981 3628
L 4106 4281
L 1963 4281
L 1659 2719
L 3188 2719
L 3300 3303
L 3684 3303
L 3384 1753
L 3000 1753
L 3113 2338
L 1584 2338
L 1206 384
L 3400 384
L 3525 1038
L 3909 1038
L 3709 0
L -97 0
z
" transform="scale(0.015625)"/>
       <path id="DejaVuSerif-Italic-41" d="M 1159 1691
L 2872 1691
L 2447 3909
L 1159 1691
z
M -488 0
L -425 331
L -16 331
L 2491 4666
L 3016 4666
L 3841 331
L 4297 331
L 4234 0
L 2538 0
L 2600 331
L 3119 331
L 2928 1356
L 966 1356
L 375 331
L 888 331
L 825 0
L -488 0
z
" transform="scale(0.015625)"/>
      </defs>
      <use xlink:href="#DejaVuSerif-Italic-4d" transform="translate(0 0.09375)"/>
      <use xlink:href="#DejaVuSerif-Italic-45" transform="translate(102.392578 0.09375)"/>
      <use xlink:href="#DejaVuSerif-Italic-41" transform="translate(175.390625 0.09375)"/>
     </g>
    </g>
    <g id="line2d_61">
     <defs>
      <path id="m4458b678d2" d="M 0 3.1
C 0.82213 3.1 1.610698 2.773364 2.192031 2.192031
C 2.773364 1.610698 3.1 0.82213 3.1 0
C 3.1 -0.82213 2.773364 -1.610698 2.192031 -2.192031
C 1.610698 -2.773364 0.82213 -3.1 0 -3.1
C -0.82213 -3.1 -1.610698 -2.773364 -2.192031 -2.192031
C -2.773364 -1.610698 -3.1 -0.82213 -3.1 0
C -3.1 0.82213 -2.773364 1.610698 -2.192031 2.192031
C -1.610698 2.773364 -0.82213 3.1 0 3.1
z
" style="stroke: #bcbd22"/>
     </defs>
     <g>
      <use xlink:href="#m4458b678d2" x="614.029704" y="65.287187" style="fill: #bcbd22; stroke: #bcbd22"/>
     </g>
    </g>
    <g id="text_16">
     <!-- $MEAH^+$ -->
     <g transform="translate(630.229704 68.437187) scale(0.09 -0.09)">
      <defs>
       <path id="DejaVuSerif-Italic-48" d="M -97 0
L -34 331
L 559 331
L 1338 4331
L 744 4331
L 809 4666
L 2631 4666
L 2566 4331
L 1972 4331
L 1659 2719
L 4078 2719
L 4391 4331
L 3797 4331
L 3863 4666
L 5684 4666
L 5619 4331
L 5025 4331
L 4247 331
L 4841 331
L 4778 0
L 2956 0
L 3019 331
L 3616 331
L 4003 2338
L 1584 2338
L 1194 331
L 1788 331
L 1725 0
L -97 0
z
" transform="scale(0.015625)"/>
       <path id="DejaVuSerif-2b" d="M 2931 4013
L 2931 2259
L 4684 2259
L 4684 1753
L 2931 1753
L 2931 0
L 2431 0
L 2431 1753
L 678 1753
L 678 2259
L 2431 2259
L 2431 4013
L 2931 4013
z
" transform="scale(0.015625)"/>
      </defs>
      <use xlink:href="#DejaVuSerif-Italic-4d" transform="translate(0 0.773438)"/>
      <use xlink:href="#DejaVuSerif-Italic-45" transform="translate(102.392578 0.773438)"/>
      <use xlink:href="#DejaVuSerif-Italic-41" transform="translate(175.390625 0.773438)"/>
      <use xlink:href="#DejaVuSerif-Italic-48" transform="translate(247.607422 0.773438)"/>
      <use xlink:href="#DejaVuSerif-2b" transform="translate(355.268854 37.107812) scale(0.7)"/>
     </g>
    </g>
    <g id="line2d_62">
     <defs>
      <path id="m4f637676b4" d="M 0 3.1
C 0.82213 3.1 1.610698 2.773364 2.192031 2.192031
C 2.773364 1.610698 3.1 0.82213 3.1 0
C 3.1 -0.82213 2.773364 -1.610698 2.192031 -2.192031
C 1.610698 -2.773364 0.82213 -3.1 0 -3.1
C -0.82213 -3.1 -1.610698 -2.773364 -2.192031 -2.192031
C -2.773364 -1.610698 -3.1 -0.82213 -3.1 0
C -3.1 0.82213 -2.773364 1.610698 -2.192031 2.192031
C -1.610698 2.773364 -0.82213 3.1 0 3.1
z
" style="stroke: #d62728"/>
     </defs>
     <g>
      <use xlink:href="#m4f637676b4" x="614.029704" y="78.4975" style="fill: #d62728; stroke: #d62728"/>
     </g>
    </g>
    <g id="text_17">
     <!-- $MEACOO^-$ -->
     <g transform="translate(630.229704 81.6475) scale(0.09 -0.09)">
      <use xlink:href="#DejaVuSerif-Italic-4d" transform="translate(0 0.78125)"/>
      <use xlink:href="#DejaVuSerif-Italic-45" transform="translate(102.392578 0.78125)"/>
      <use xlink:href="#DejaVuSerif-Italic-41" transform="translate(175.390625 0.78125)"/>
      <use xlink:href="#DejaVuSerif-Italic-43" transform="translate(247.607422 0.78125)"/>
      <use xlink:href="#DejaVuSerif-Italic-4f" transform="translate(324.121094 0.78125)"/>
      <use xlink:href="#DejaVuSerif-Italic-4f" transform="translate(406.103516 0.78125)"/>
      <use xlink:href="#DejaVuSerif-2212" transform="translate(508.724089 37.115625) scale(0.7)"/>
     </g>
    </g>
    <g id="line2d_63">
     <defs>
      <path id="m3dba704352" d="M 0 3.1
C 0.82213 3.1 1.610698 2.773364 2.192031 2.192031
C 2.773364 1.610698 3.1 0.82213 3.1 0
C 3.1 -0.82213 2.773364 -1.610698 2.192031 -2.192031
C 1.610698 -2.773364 0.82213 -3.1 0 -3.1
C -0.82213 -3.1 -1.610698 -2.773364 -2.192031 -2.192031
C -2.773364 -1.610698 -3.1 -0.82213 -3.1 0
C -3.1 0.82213 -2.773364 1.610698 -2.192031 2.192031
C -1.610698 2.773364 -0.82213 3.1 0 3.1
z
" style="stroke: #17becf"/>
     </defs>
     <g>
      <use xlink:href="#m3dba704352" x="614.029704" y="91.707812" style="fill: #17becf; stroke: #17becf"/>
     </g>
    </g>
    <g id="text_18">
     <!-- $HCO_3^-$ -->
     <g transform="translate(630.229704 94.857812) scale(0.09 -0.09)">
      <defs>
       <path id="DejaVuSerif-33" d="M 622 4469
Q 988 4606 1323 4678
Q 1659 4750 1953 4750
Q 2638 4750 3022 4454
Q 3406 4159 3406 3634
Q 3406 3213 3140 2930
Q 2875 2647 2388 2547
Q 2963 2466 3280 2130
Q 3597 1794 3597 1259
Q 3597 606 3158 257
Q 2719 -91 1894 -91
Q 1528 -91 1179 -12
Q 831 66 488 225
L 488 1131
L 838 1131
Q 869 681 1141 450
Q 1413 219 1906 219
Q 2384 219 2661 495
Q 2938 772 2938 1253
Q 2938 1803 2653 2086
Q 2369 2369 1819 2369
L 1522 2369
L 1522 2688
L 1678 2688
Q 2225 2688 2498 2914
Q 2772 3141 2772 3597
Q 2772 4006 2547 4223
Q 2322 4441 1900 4441
Q 1478 4441 1245 4241
Q 1013 4041 972 3647
L 622 3647
L 622 4469
z
" transform="scale(0.015625)"/>
      </defs>
      <use xlink:href="#DejaVuSerif-Italic-48" transform="translate(0 0.78125)"/>
      <use xlink:href="#DejaVuSerif-Italic-43" transform="translate(87.207031 0.78125)"/>
      <use xlink:href="#DejaVuSerif-Italic-4f" transform="translate(163.720703 0.78125)"/>
      <use xlink:href="#DejaVuSerif-2212" transform="translate(266.341276 39.28125) scale(0.7)"/>
      <use xlink:href="#DejaVuSerif-33" transform="translate(245.703125 -25.171875) scale(0.7)"/>
     </g>
    </g>
    <g id="line2d_64">
     <defs>
      <path id="maff11bb2b7" d="M 0 3.1
C 0.82213 3.1 1.610698 2.773364 2.192031 2.192031
C 2.773364 1.610698 3.1 0.82213 3.1 0
C 3.1 -0.82213 2.773364 -1.610698 2.192031 -2.192031
C 1.610698 -2.773364 0.82213 -3.1 0 -3.1
C -0.82213 -3.1 -1.610698 -2.773364 -2.192031 -2.192031
C -2.773364 -1.610698 -3.1 -0.82213 -3.1 0
C -3.1 0.82213 -2.773364 1.610698 -2.192031 2.192031
C -1.610698 2.773364 -0.82213 3.1 0 3.1
z
" style="stroke: #9467bd"/>
     </defs>
     <g>
      <use xlink:href="#maff11bb2b7" x="614.029704" y="106.827812" style="fill: #9467bd; stroke: #9467bd"/>
     </g>
    </g>
    <g id="text_19">
     <!-- $CO_3^{2-}$ -->
     <g transform="translate(630.229704 109.977812) scale(0.09 -0.09)">
      <use xlink:href="#DejaVuSerif-Italic-43" transform="translate(0 0.546875)"/>
      <use xlink:href="#DejaVuSerif-Italic-4f" transform="translate(76.513672 0.546875)"/>
      <use xlink:href="#DejaVuSerif-32" transform="translate(165.858854 39.046875) scale(0.7)"/>
      <use xlink:href="#DejaVuSerif-2212" transform="translate(223.670378 39.046875) scale(0.7)"/>
      <use xlink:href="#DejaVuSerif-33" transform="translate(158.496094 -25.40625) scale(0.7)"/>
     </g>
    </g>
   </g>
   <g id="legend_2">
    <g id="line2d_65">
     <defs>
      <path id="me3f777de11" d="M 0 3
C 0.795609 3 1.55874 2.683901 2.12132 2.12132
C 2.683901 1.55874 3 0.795609 3 0
C 3 -0.795609 2.683901 -1.55874 2.12132 -2.12132
C 1.55874 -2.683901 0.795609 -3 0 -3
C -0.795609 -3 -1.55874 -2.683901 -2.12132 -2.12132
C -2.683901 -1.55874 -3 -0.795609 -3 0
C -3 0.795609 -2.683901 1.55874 -2.12132 2.12132
C -1.55874 2.683901 -0.795609 3 0 3
z
" style="stroke: #2b2b2b"/>
     </defs>
     <g>
      <use xlink:href="#me3f777de11" x="614.029704" y="397.193969" style="fill: #2b2b2b; stroke: #2b2b2b"/>
     </g>
    </g>
    <g id="text_20">
     <!-- extracted -->
     <g transform="translate(630.229704 400.343969) scale(0.09 -0.09)">
      <defs>
       <path id="DejaVuSerif-78" d="M 1863 2028
L 2559 2988
L 2113 2988
L 2113 3322
L 3391 3322
L 3391 2988
L 2950 2988
L 2059 1759
L 3097 331
L 3531 331
L 3531 0
L 1997 0
L 1997 331
L 2419 331
L 1697 1325
L 972 331
L 1403 331
L 1403 0
L 141 0
L 141 331
L 581 331
L 1497 1594
L 488 2988
L 78 2988
L 78 3322
L 1563 3322
L 1563 2988
L 1166 2988
L 1863 2028
z
" transform="scale(0.015625)"/>
      </defs>
      <use xlink:href="#DejaVuSerif-65"/>
      <use xlink:href="#DejaVuSerif-78" transform="translate(59.179688 0)"/>
      <use xlink:href="#DejaVuSerif-74" transform="translate(115.576172 0)"/>
      <use xlink:href="#DejaVuSerif-72" transform="translate(155.761719 0)"/>
      <use xlink:href="#DejaVuSerif-61" transform="translate(203.564453 0)"/>
      <use xlink:href="#DejaVuSerif-63" transform="translate(263.183594 0)"/>
      <use xlink:href="#DejaVuSerif-74" transform="translate(319.189453 0)"/>
      <use xlink:href="#DejaVuSerif-65" transform="translate(359.375 0)"/>
      <use xlink:href="#DejaVuSerif-64" transform="translate(418.554688 0)"/>
     </g>
    </g>
    <g id="line2d_66">
     <defs>
      <path id="m701415c262" d="M -3.6 3.6
L 3.6 -3.6
M -3.6 -3.6
L 3.6 3.6
" style="stroke: #2b2b2b"/>
     </defs>
     <g>
      <use xlink:href="#m701415c262" x="614.029704" y="410.404281" style="fill: #2b2b2b; stroke: #2b2b2b"/>
     </g>
    </g>
    <g id="text_21">
     <!-- ambiguous -->
     <g transform="translate(630.229704 413.554281) scale(0.09 -0.09)">
      <defs>
       <path id="DejaVuSerif-62" d="M 738 331
L 738 4531
L 184 4531
L 184 4863
L 1313 4863
L 1313 2803
Q 1481 3116 1742 3264
Q 2003 3413 2388 3413
Q 3000 3413 3387 2928
Q 3775 2444 3775 1663
Q 3775 881 3387 395
Q 3000 -91 2388 -91
Q 2003 -91 1742 57
Q 1481 206 1313 519
L 1313 0
L 184 0
L 184 331
L 738 331
z
M 1313 1497
Q 1313 897 1542 583
Q 1772 269 2209 269
Q 2650 269 2876 622
Q 3103 975 3103 1663
Q 3103 2353 2876 2703
Q 2650 3053 2209 3053
Q 1772 3053 1542 2737
Q 1313 2422 1313 1825
L 1313 1497
z
" transform="scale(0.015625)"/>
       <path id="DejaVuSerif-75" d="M 2266 3322
L 3341 3322
L 3341 331
L 3884 331
L 3884 0
L 2766 0
L 2766 588
Q 2606 256 2353 82
Q 2100 -91 1766 -91
Q 1213 -91 952 223
Q 691 538 691 1209
L 691 2988
L 172 2988
L 172 3322
L 1269 3322
L 1269 1388
Q 1269 781 1417 556
Q 1566 331 1947 331
Q 2347 331 2556 625
Q 2766 919 2766 1478
L 2766 2988
L 2266 2988
L 2266 3322
z
" transform="scale(0.015625)"/>
      </defs>
      <use xlink:href="#DejaVuSerif-61"/>
      <use xlink:href="#DejaVuSerif-6d" transform="translate(59.619141 0)"/>
      <use xlink:href="#DejaVuSerif-62" transform="translate(154.443359 0)"/>
      <use xlink:href="#DejaVuSerif-69" transform="translate(218.457031 0)"/>
      <use xlink:href="#DejaVuSerif-67" transform="translate(250.439453 0)"/>
      <use xlink:href="#DejaVuSerif-75" transform="translate(314.453125 0)"/>
      <use xlink:href="#DejaVuSerif-6f" transform="translate(378.857422 0)"/>
      <use xlink:href="#DejaVuSerif-75" transform="translate(439.0625 0)"/>
      <use xlink:href="#DejaVuSerif-73" transform="translate(503.466797 0)"/>
     </g>
    </g>
   </g>
  </g>
 </g>
 <defs>
  <clipPath id="p459f309393">
   <rect x="52.402344" y="27.077969" width="539.136" height="396.576"/>
  </clipPath>
 </defs>
</svg>
